<svg width="108" height="67" viewBox="0 0 108 67" fill="none" xmlns="http://www.w3.org/2000/svg">
<mask id="path-1-inside-1_632_82" fill="white">
<path d="M68.8066 51.3057L0 51.3057V15.6943L68.8066 15.6943V0.000976562L108 33.5L68.8066 66.999V51.3057Z"/>
</mask>
<path d="M68.8066 51.3057L0 51.3057V15.6943L68.8066 15.6943V0.000976562L108 33.5L68.8066 66.999V51.3057Z" fill="#B9A82B"/>
<path d="M68.8066 51.3057H71.8066V48.3057H68.8066V51.3057ZM0 51.3057H-3V54.3057H0V51.3057ZM0 15.6943L0 12.6943H-3L-3 15.6943H0ZM68.8066 15.6943V18.6943H71.8066V15.6943H68.8066ZM68.8066 0.000976562L70.7558 -2.27953L65.8066 -6.50965V0.000976562H68.8066ZM108 33.5L109.949 35.7805L112.617 33.5L109.949 31.2195L108 33.5ZM68.8066 66.999H65.8066V73.5096L70.7558 69.2795L68.8066 66.999ZM68.8066 51.3057V48.3057L0 48.3057V51.3057V54.3057L68.8066 54.3057V51.3057ZM0 51.3057H3V15.6943H0H-3V51.3057H0ZM0 15.6943V18.6943L68.8066 18.6943V15.6943V12.6943L0 12.6943L0 15.6943ZM68.8066 15.6943H71.8066V0.000976562H68.8066H65.8066V15.6943H68.8066ZM68.8066 0.000976562L66.8575 2.28149L106.051 35.7805L108 33.5L109.949 31.2195L70.7558 -2.27953L68.8066 0.000976562ZM108 33.5L106.051 31.2195L66.8575 64.7185L68.8066 66.999L70.7558 69.2795L109.949 35.7805L108 33.5ZM68.8066 66.999H71.8066V51.3057H68.8066H65.8066V66.999H68.8066Z" fill="black" mask="url(#path-1-inside-1_632_82)"/>
</svg>
