<svg width="108" height="67" viewBox="0 0 108 67" fill="none" xmlns="http://www.w3.org/2000/svg">
<mask id="path-1-inside-1_632_78" fill="white">
<path d="M39.1934 15.6934L108 15.6934V51.3047H39.1934V66.998L0 33.499L39.1934 0V15.6934Z"/>
</mask>
<path d="M39.1934 15.6934L108 15.6934V51.3047H39.1934V66.998L0 33.499L39.1934 0V15.6934Z" fill="#B9A82B"/>
<path d="M39.1934 15.6934H36.1934V18.6934H39.1934V15.6934ZM108 15.6934H111V12.6934H108V15.6934ZM108 51.3047V54.3047H111V51.3047H108ZM39.1934 51.3047V48.3047H36.1934V51.3047H39.1934ZM39.1934 66.998L37.2442 69.2786L42.1934 73.5087V66.998H39.1934ZM0 33.499L-1.94918 31.2185L-4.61734 33.499L-1.94918 35.7795L0 33.499ZM39.1934 0L42.1934 0V-6.51063L37.2442 -2.28051L39.1934 0ZM39.1934 15.6934V18.6934H108V15.6934V12.6934L39.1934 12.6934V15.6934ZM108 15.6934H105V51.3047H108H111V15.6934H108ZM108 51.3047V48.3047H39.1934V51.3047V54.3047H108V51.3047ZM39.1934 51.3047H36.1934V66.998H39.1934H42.1934V51.3047H39.1934ZM39.1934 66.998L41.1425 64.7175L1.94918 31.2185L0 33.499L-1.94918 35.7795L37.2442 69.2786L39.1934 66.998ZM0 33.499L1.94918 35.7795L41.1425 2.28051L39.1934 0L37.2442 -2.28051L-1.94918 31.2185L0 33.499ZM39.1934 0L36.1934 0V15.6934H39.1934H42.1934V0L39.1934 0Z" fill="black" mask="url(#path-1-inside-1_632_78)"/>
</svg>
