<svg width="211" height="273" viewBox="0 0 211 273" fill="none" xmlns="http://www.w3.org/2000/svg">
<g filter="url(#filter0_d_369_206)">
<path fill-rule="evenodd" clip-rule="evenodd" d="M146.091 0.439743C147.966 -0.000671816 150.04 -0.0425387 151.64 0.026657C153.187 0.0935724 154.754 0.286465 155.643 0.539352L156.046 0.65361L156.41 0.853805C157.383 1.38841 158.429 2.07465 159.3 2.73369L159.779 3.09599L160.108 3.58818C160.518 4.20416 160.668 4.80375 160.728 5.21611C160.781 5.57953 160.775 5.91356 160.775 5.95732C160.775 7.86974 159.159 9.42021 157.166 9.42021C156.551 9.42014 155.972 9.27239 155.465 9.01201C155.373 9.14517 155.279 9.2778 155.188 9.41142C154.31 10.699 153.783 11.6302 153.632 12.0901C153.261 13.2267 152.72 14.4526 152.367 15.3382C151.976 16.3182 151.641 17.2716 151.418 18.3724C151.186 19.5124 151.255 20.5704 151.457 21.4222C151.557 21.8468 151.686 22.1988 151.809 22.4632C151.814 22.4732 151.819 22.4829 151.824 22.4925C152.908 22.3721 154.368 21.5003 155.832 19.722C155.848 19.6754 155.886 19.5617 155.937 19.3401C155.965 19.2167 156.07 18.7191 156.15 18.4104C156.246 18.04 156.421 17.4496 156.775 16.846L156.885 16.6653C158.046 14.8406 159.921 14.1308 161.521 13.97C163.057 13.8158 164.587 14.1162 165.793 14.4583C168.246 15.1543 170.611 16.3977 171.716 17.0569C173.763 18.2775 174.766 20.1624 175.351 21.4456C175.636 22.0702 175.932 22.816 176.122 23.2669C176.348 23.8036 176.517 24.1571 176.674 24.4144C178.033 26.6267 178.852 29.0594 179.495 31.1058C180.003 32.7243 180.119 33.4112 180.52 34.5091C180.833 35.3656 181.163 35.9365 181.618 36.4007C181.916 36.7051 182.432 37.0173 183.457 37.2913C184.534 37.5794 185.755 37.7286 187.39 37.9505C189.011 38.1704 190.408 38.7378 191.517 39.2591C192.071 39.5191 192.618 39.7996 193.083 40.0354C193.57 40.2829 193.992 40.4941 194.403 40.679C196.676 41.7004 198.517 42.3627 200.314 42.6868C202.726 43.1218 204.285 44.6225 205.168 46.2405C205.989 47.7469 206.3 49.4508 206.417 50.8938C206.653 53.8065 206.184 56.888 205.942 58.3372C205.761 59.4209 205.307 60.5801 204.387 61.5306C203.487 62.4618 202.392 62.9708 201.491 63.2747C200.584 63.5805 199.63 63.7584 198.792 63.886C196.845 64.1826 195.575 64.2444 193.906 64.594C190.998 65.2033 188.99 65.4427 187.505 65.6097C186.412 65.7324 185.826 65.8025 185.406 65.889C185.423 65.9783 185.443 66.0782 185.47 66.1888C185.743 67.3068 186.309 68.5898 186.965 70.1448C187.854 72.2533 187.872 74.5429 187.551 76.4964C187.226 78.4787 186.505 80.4184 185.579 82.0022C185.24 82.5815 185.01 83.3683 184.883 84.263C184.802 84.843 184.774 85.3842 184.764 85.8489C184.887 85.9359 185.038 86.0383 185.232 86.1624C186.218 86.7943 188.274 87.9467 189.98 89.7854C192.1 92.0709 192.707 95.2239 192.859 97.7044C193.02 100.32 192.716 102.957 192.371 104.875C191.995 106.964 190.513 108.239 189.292 108.948C188.084 109.649 186.698 110.063 185.54 110.336C182.621 111.025 179.257 111.279 176.252 111.479C174.141 111.619 172.211 111.736 170.495 111.917C170.539 112.372 170.6 112.898 170.683 113.493C171.018 115.897 171.731 119.675 171.971 122.081C172.213 124.498 172.988 126.282 173.794 128.176C174.422 129.652 175.217 130.969 176.198 132.95C176.992 134.554 178.04 136.852 177.976 139.088C177.947 140.12 177.604 141.145 176.882 142.011C176.196 142.832 175.345 143.301 174.634 143.575C173.318 144.081 171.854 144.147 170.858 144.157C169.891 144.166 168.661 144.108 167.934 144.09C167.579 144.936 166.992 145.528 166.518 145.894C165.884 146.383 165.189 146.682 164.587 146.861C162.252 147.552 160.186 146.956 158.697 146.223C157.654 145.71 156.674 145.013 155.913 144.444L155.255 143.948C155.275 143.964 155.021 143.803 154.316 143.651C153.562 143.488 152.425 143.367 150.857 143.436C148.829 143.525 147.117 144.245 145.694 145.109C144.981 145.542 144.364 145.997 143.808 146.422C143.447 146.698 142.677 147.317 142.06 147.665C142.034 147.696 141.799 147.952 141.557 148.822C141.254 149.911 141.103 151.39 141.057 153.147C141.012 154.89 141.073 156.646 141.104 158.352C141.132 159.874 141.153 161.677 140.882 162.992C140.294 165.839 139.978 168.4 139.318 170.835L139.306 170.88L139.293 170.926C139.105 171.548 138.954 172.911 138.787 175.235L138.775 175.404L138.746 175.569C138.435 177.349 137.655 178.395 136.749 179.505C135.52 181.01 133.252 181.274 131.683 180.095C130.199 178.979 129.873 176.972 130.882 175.484C130.258 175.96 129.83 176.426 129.621 176.819C129.088 177.817 128.386 178.527 127.601 179.245C126.764 180.012 125.879 180.752 124.421 182.132C123.376 183.122 122.701 183.972 122.298 184.594C121.837 185.303 121.841 185.538 121.866 185.32C121.758 186.253 121.082 186.992 120.207 187.261C120.002 187.784 119.604 188.238 119.045 188.51C117.859 189.086 116.411 188.63 115.811 187.492C115.529 186.956 115.28 186.444 115.064 185.994C114.864 185.577 114.703 185.24 114.557 184.95C114.522 184.952 114.484 184.955 114.446 184.958C114.036 184.992 113.356 185.065 112.669 185.055C110.729 185.028 109.369 184.709 108.295 184.38C107.084 184.01 106.868 183.886 106.442 183.85C104.138 183.654 101.48 183.318 99.3346 183.691C97.8681 183.946 96.9361 184.141 96.3366 184.945C95.3284 186.296 93.923 190.291 94.6413 195.68C94.9373 197.901 95.2838 200.262 95.4401 202.392C95.5938 204.486 95.5943 206.661 95.0358 208.474C94.1566 211.327 93.7001 213.389 93.36 214.899C93.1942 215.635 93.037 216.327 92.8649 216.896C92.7007 217.439 92.452 218.128 91.9782 218.722C91.6024 219.194 91.2682 219.666 90.8473 220.258C90.4339 220.839 89.959 221.503 89.3512 222.267C87.179 224.999 86.0434 226.285 84.5133 227.421C83.9045 227.874 83.3851 228.366 82.9411 228.812C82.8035 228.95 82.436 229.327 82.3219 229.441C82.183 229.579 81.8779 229.887 81.5358 230.111C81.4547 230.164 81.3698 230.209 81.2848 230.251C81.2818 230.961 81.3055 231.599 81.3512 232.153C81.3968 232.705 81.4617 233.146 81.5339 233.477C81.611 233.83 81.6749 233.958 81.6686 233.947L81.9928 234.539L81.9352 235.206C81.885 235.789 81.6504 236.269 81.5329 236.497C81.3947 236.766 81.2213 237.048 81.0895 237.263C80.7967 237.742 80.5225 238.189 80.2936 238.713C79.8832 239.652 79.0176 240.764 78.4548 241.524C77.7634 242.456 77.2506 243.195 77.0036 243.78C76.8429 244.16 76.6976 244.686 76.4069 245.606C76.1475 246.427 75.8033 247.44 75.3073 248.42C74.9784 249.07 74.3955 249.994 74.0817 250.54C73.6831 251.234 73.4404 251.758 73.3473 252.159C73.1266 253.111 72.8133 254.354 72.2917 255.497C71.7838 256.611 70.9341 257.961 69.4333 258.741C68.0875 259.439 66.8787 259.961 65.9059 260.389C64.8871 260.838 64.2144 261.148 63.7048 261.473C62.9187 261.974 62.1363 262.364 61.5895 262.637C61.2956 262.784 61.1034 262.881 60.9596 262.96C60.9383 262.972 60.9202 262.981 60.9059 262.99C59.976 263.764 58.568 263.744 57.6637 262.908C57.6488 262.895 57.6352 262.88 57.6208 262.866C54.5883 263.346 51.8971 263.938 48.2673 264.396C46.9501 264.562 45.7412 263.671 45.568 262.408C45.3951 261.143 46.3231 259.984 47.6403 259.818C48.5482 259.703 49.3541 259.586 50.1051 259.468C50.0005 259.081 49.8489 258.58 49.6423 257.99C48.948 256.411 48.467 255.59 47.9899 255.036C47.5471 254.523 47.0075 254.12 45.9381 253.569C45.6788 253.435 45.2217 253.297 44.2321 253.076C43.3313 252.876 42.0885 252.625 40.6589 252.234C40.0406 252.065 39.271 251.685 38.7858 250.856C38.4136 250.219 38.3755 249.551 38.359 249.335C38.3357 249.03 38.3243 248.675 38.3151 248.363C38.3053 248.028 38.2968 247.71 38.2799 247.402C38.1763 245.508 38.1512 243.989 38.0465 242.323C37.9453 240.71 37.7934 239.589 37.5739 238.963C37.4288 238.55 37.0322 237.841 36.4655 236.993C36.3804 236.866 36.2921 236.741 36.2057 236.617C35.0171 236.679 33.9362 235.889 33.7126 234.736C33.5675 233.987 33.4993 233.272 33.4518 232.675C33.4037 232.07 33.379 231.665 33.3346 231.305C32.9451 229.595 32.7114 227.217 32.6266 224.505C32.4189 222.875 32.4845 221.327 32.4772 220.127C32.4694 218.841 32.3913 217.712 31.9987 216.471C31.4509 214.74 31.2028 213.599 30.5387 212.338C30.3003 211.886 30.0994 211.33 29.9479 210.944C29.7715 210.494 29.5498 209.957 29.1989 209.264C28.494 207.871 27.2193 205.752 24.6598 202.477C23.3537 200.805 22.8341 200.189 22.3131 199.546C21.7012 198.791 20.1222 197.377 19.5993 194.968C19.2823 193.508 18.8346 191.893 17.6325 190.629C16.9108 189.871 16.1895 188.948 15.5475 188.11C14.8727 187.228 14.2879 186.444 13.7428 185.795C12.654 184.499 10.6714 182.09 9.27213 180.442C8.8596 180.425 8.44539 180.311 8.07291 180.081C7.78179 179.902 7.34082 179.633 6.83951 179.167L6.78678 179.118L6.73697 179.067C6.28506 178.593 5.89919 178.07 5.60026 177.669C5.27493 177.233 5.01539 176.888 4.7233 176.569L4.38053 176.194L4.22916 175.716C3.96429 174.878 3.96047 173.777 4.06022 173.071C4.25147 171.717 4.65682 167.387 5.1608 164.79C5.54669 162.802 5.97392 159.087 6.11686 157.093C6.16726 156.39 6.52842 152.456 7.55045 147.07C8.10332 144.156 8.68212 141.982 10.3024 139.931C11.3569 138.596 12.6408 137.359 13.4079 136.541C13.8323 136.089 14.1143 135.754 14.2917 135.491C14.3687 135.376 14.4045 135.303 14.4206 135.269C14.4438 134.839 14.3474 134.103 14.1159 132.523C13.8917 130.992 13.5988 128.952 13.4186 126.298C13.3012 124.568 13.4582 122.174 13.4655 120.538C13.4695 119.63 13.4363 118.857 13.3415 118.232C13.2417 117.574 13.1024 117.293 13.0495 117.217C12.4811 116.408 11.9316 116.019 11.3942 115.659C11.1763 115.514 10.6755 115.198 10.2926 114.83C9.80151 114.359 9.32071 113.651 9.2692 112.673C9.1327 110.082 9.13248 108.306 9.13248 108.115C9.13248 108.015 9.14017 107.916 9.15299 107.82C8.40359 107.396 7.81038 106.713 7.53483 105.853C6.94959 104.025 8.01964 102.088 9.92447 101.526C10.0824 101.479 10.3273 101.367 10.6803 101.129C11.0634 100.871 11.3452 100.632 11.8249 100.258C11.7937 100.282 11.8924 100.218 12.0153 99.8899C12.1356 99.5688 12.2027 99.2045 12.2565 98.8206L12.2731 98.7024L12.2985 98.5843C12.3384 98.3984 12.3842 98.2163 12.4079 98.1204C12.4134 98.098 12.4186 98.0789 12.4225 98.0628C12.4307 97.4979 12.5799 96.9659 12.8376 96.4974C12.7535 96.007 12.6782 95.3732 12.6012 94.4241C12.4317 92.3341 12.3944 90.4312 12.4372 88.9065C12.476 87.5229 12.5861 86.0998 12.8581 85.1819C12.9269 84.9491 13.0818 84.1849 13.3092 82.8089C13.5226 81.5182 13.7697 79.8873 14.0387 78.0784C14.0683 77.8793 14.0641 77.8137 14.112 77.2708C14.154 76.7939 14.2213 76.2033 14.3717 75.3528C14.6646 73.6976 15.142 71.463 15.318 69.3675C15.496 67.2485 15.3414 65.6576 15.3385 63.6067C15.334 60.3029 15.8661 57.2376 16.0719 55.1077C16.4793 50.8923 16.4687 48.6284 17.5475 45.7513C17.9178 44.7639 18.2756 43.9738 18.5612 43.3821C18.7011 43.0923 18.8262 42.8442 18.9098 42.677C19.0174 42.462 19.0204 42.4505 19.0016 42.4964C19.2707 41.8393 19.7455 41.2602 19.9167 41.0481C20.1939 40.7047 20.5393 40.3098 20.9118 39.8958C21.6581 39.0664 22.6635 37.9947 23.7672 36.8118C25.6041 34.8434 27.7264 34.233 28.5192 33.9817C29.9249 33.1802 31.9806 32.2154 33.57 31.7093L33.5807 31.7063C34.2506 31.4952 34.7188 31.3513 35.5016 31.0413C36.2988 30.7257 37.1463 30.7046 37.9128 30.9251C38.1705 30.842 38.4495 30.7501 38.7497 30.6478C41.0382 29.8675 42.291 29.1712 43.1374 28.6556C43.466 28.4553 44.1224 28.0324 44.5456 27.7933C45.0952 27.4826 45.8259 27.1276 46.7565 26.9456L46.8991 26.9075C47.1011 26.8446 47.4968 26.6973 48.2477 26.3636C48.71 26.1581 49.2371 25.9147 49.8796 25.6194C50.5132 25.3282 51.2387 24.9954 52.0622 24.6282C52.8577 24.2735 53.6916 23.8229 54.7311 23.2688C55.716 22.7438 56.866 22.1385 58.0729 21.6311C59.3844 21.0798 60.3983 20.7349 61.5299 20.3616C62.6433 19.9944 63.8921 19.5927 65.8034 18.8987C67.7793 18.1812 69.0536 17.6732 70.0417 17.2728C71.0086 16.8809 71.8415 16.5327 72.7848 16.2073C73.8814 15.8292 74.8207 15.6757 75.5182 15.5784C76.3191 15.4667 76.4773 15.4541 76.6667 15.3997C77.2356 15.2362 78.0711 15.0509 78.8464 14.8616C79.7246 14.6472 80.899 14.3427 82.5251 13.8558C84.0063 13.4122 84.8844 13.2708 86.2965 12.9905C89.9492 12.2656 92.6275 11.3974 93.1833 11.1761C94.9244 10.4821 96.4865 10.0319 99.7038 9.72881C103.196 9.3998 105.176 8.97729 107.24 8.69658C107.941 8.60117 108.924 8.41596 110.149 8.19267C111.302 7.98263 112.632 7.74683 113.809 7.60966C115.476 7.38874 116.954 7.26166 118.129 7.17509C118.545 7.0141 119 6.92513 119.476 6.92509C119.484 6.92509 120.029 6.93082 122.026 6.78838C125.639 6.53063 128.259 5.93984 129.824 5.36162C131.61 4.70158 133.142 4.07852 134.326 3.58623C135.37 3.15198 136.447 2.68565 136.971 2.51103C138.554 1.9838 140.606 1.53289 142.296 1.19072C144.168 0.811447 145.458 0.588532 146.091 0.439743ZM148.192 7.08818C148.058 7.11143 147.93 7.13777 147.808 7.16631C147.054 7.34359 145.291 7.66223 143.786 7.96709C142.097 8.30908 140.446 8.68502 139.339 9.054C139.327 9.05817 139.28 9.07536 139.181 9.11455C139.062 9.16174 138.909 9.22446 138.713 9.30595C138.134 9.54656 138.003 9.60507 137.196 9.94072C135.965 10.4528 134.333 11.1168 132.418 11.8245C130.011 12.7136 126.655 13.4036 122.561 13.6956C121.938 13.74 121.436 13.7696 121.03 13.7923C120.796 13.8573 120.494 13.9278 120.147 13.971L120.046 13.9837L119.944 13.9915C118.621 14.0835 116.852 14.195 114.742 14.4769L114.679 14.4847C113.774 14.5902 112.666 14.784 111.496 14.9974C110.398 15.1975 109.172 15.429 108.253 15.554C106.748 15.7586 104.051 16.2773 100.409 16.6204C97.846 16.8619 96.9859 17.1607 95.9528 17.5726C94.8567 18.0095 91.7112 18.9881 87.7575 19.7728C86.1813 20.0856 85.7321 20.1507 84.6755 20.4671C82.9109 20.9955 81.6116 21.332 80.6266 21.5726C79.5393 21.8381 79.1213 21.9233 78.738 22.0335C77.8896 22.2774 76.9621 22.3753 76.5563 22.4319C76.0472 22.503 75.6565 22.5762 75.2253 22.7249C74.5166 22.9693 73.9164 23.2202 72.8493 23.6526C71.8033 24.0765 70.4409 24.6186 68.3571 25.3753C66.3239 26.1136 64.9679 26.5502 63.8756 26.9104C62.8016 27.2647 62.0075 27.5371 60.9684 27.9739C60.1105 28.3346 59.2332 28.7925 58.237 29.3235C57.2952 29.8256 56.1923 30.4242 55.1042 30.9095C54.3206 31.2588 53.6258 31.5764 52.9967 31.8655C52.3765 32.1506 51.7975 32.4186 51.2819 32.6478C50.3618 33.0567 49.3268 33.4919 48.3102 33.7073C48.2891 33.718 48.2549 33.7344 48.2077 33.761C47.8819 33.9452 47.7201 34.0669 47.0055 34.5022C45.7653 35.2579 44.0287 36.1973 41.1667 37.1731C39.8271 37.6299 38.7991 37.9323 38.0622 38.1253C37.6951 38.2214 37.3882 38.2939 37.1432 38.345C37.0227 38.3701 36.8995 38.3931 36.7819 38.4124C36.7635 38.4156 36.4405 38.4739 36.0778 38.4739C35.8615 38.4739 35.6498 38.4542 35.444 38.4192C34.3573 38.817 32.8694 39.5306 31.9821 40.0628L31.7087 40.2269L31.4088 40.3421C31.0414 40.483 30.6315 40.615 30.4245 40.6849C30.1696 40.7708 30.0106 40.8293 29.8756 40.8899C29.6706 40.9821 29.446 41.1085 29.1442 41.4319C28.0076 42.65 27.0658 43.6541 26.3747 44.4222C26.0284 44.807 25.781 45.092 25.6217 45.2894C25.6043 45.3109 25.5894 45.3307 25.5758 45.3479C25.5142 45.478 25.4555 45.5966 25.4157 45.6761C25.3206 45.8662 25.2239 46.0583 25.111 46.2923C24.8904 46.7492 24.6186 47.3456 24.3376 48.095C23.665 49.8887 23.7363 50.7934 23.2575 55.7474C22.983 58.5875 22.5513 60.7078 22.5553 63.5979C22.5573 64.9967 22.7192 67.4496 22.5114 69.9241C22.3015 72.4218 21.7225 75.1806 21.487 76.512C21.3733 77.1547 21.33 77.5524 21.3034 77.8548C21.2826 78.0907 21.2517 78.5964 21.1833 79.0569C20.9143 80.8651 20.6603 82.5441 20.4372 83.8938C20.2284 85.1568 20.0112 86.365 19.8005 87.0765C19.7981 87.1 19.6895 87.7227 19.651 89.0931C19.6152 90.3695 19.646 92.0303 19.7965 93.886C19.86 94.668 19.9118 95.0871 19.9489 95.3196C19.9782 95.5032 19.9955 95.5543 20.0163 95.6243C20.3013 96.5865 20.1315 97.5691 19.6315 98.3626C19.6253 98.5695 19.6093 98.8581 19.5465 99.1976C19.5078 99.4069 19.4573 99.6098 19.4313 99.7151C19.4104 99.8 19.3964 99.8575 19.3854 99.9036C19.2468 100.882 18.7706 103.764 16.3786 105.631C16.0249 105.907 15.0877 106.719 13.8239 107.399C13.9005 107.624 13.944 107.865 13.944 108.115C13.944 108.246 13.9433 109.666 14.0426 111.802C14.0738 111.823 14.1078 111.846 14.1452 111.871C14.8743 112.359 15.9839 113.135 17.0387 114.637C17.6827 115.554 17.9609 116.635 18.1022 117.566C18.2485 118.529 18.2814 119.571 18.277 120.558C18.2675 122.714 18.1146 124.44 18.2204 125.998C18.3885 128.475 18.6605 130.378 18.8805 131.88C19.0813 133.251 19.308 134.649 19.2116 135.728C19.1289 136.651 18.7173 137.425 18.3327 137.996C17.9399 138.58 17.4475 139.136 16.984 139.63C15.9753 140.706 15.0307 141.59 14.1374 142.721C13.2493 143.845 12.8185 145.079 12.2838 147.897C11.2959 153.104 10.9566 156.866 10.9176 157.409C10.7671 159.51 10.3224 163.415 9.89127 165.636C9.40528 168.14 9.08562 171.866 8.8278 173.691C8.81703 173.767 8.80857 173.91 8.81315 174.077C9.08118 174.407 9.31634 174.72 9.51237 174.983C9.79491 175.362 9.99903 175.627 10.1911 175.842C10.9524 175.774 11.7348 176.054 12.2624 176.659C13.6386 178.239 16.2803 181.458 17.4899 182.898C18.1241 183.653 18.8107 184.575 19.4245 185.376C20.0711 186.221 20.6566 186.959 21.1852 187.515C23.3369 189.776 23.9784 192.498 24.3102 194.027C24.5368 195.071 24.9486 195.278 26.111 196.712C26.6097 197.327 27.1691 197.994 28.5085 199.708C31.203 203.157 32.6562 205.527 33.527 207.248C33.9639 208.112 34.2436 208.789 34.4508 209.317C34.6829 209.908 34.749 210.094 34.8337 210.255C35.7475 211.99 36.1817 213.8 36.6022 215.129C37.1936 216.998 37.2789 218.645 37.2878 220.1C37.2958 221.423 37.2508 222.443 37.3571 223.547L37.4128 224.028L37.4284 224.143L37.4313 224.259C37.5019 226.644 37.6907 228.571 37.945 229.891L38.0573 230.418L38.0837 230.527L38.0983 230.637C38.1394 230.943 38.1692 231.284 38.195 231.613C38.418 231.752 38.6218 231.928 38.7926 232.143C39.2332 232.697 39.8941 233.569 40.5163 234.5C41.107 235.384 41.785 236.5 42.1325 237.491C42.5815 238.77 42.7501 240.464 42.8493 242.045C42.9451 243.572 43.0008 245.628 43.0846 247.159C43.1021 247.478 43.1114 247.801 43.1198 248.084C43.913 248.275 44.6266 248.424 45.32 248.578C46.2409 248.783 47.3102 249.035 48.2165 249.502C49.5668 250.199 50.7029 250.94 51.6979 252.095C52.5315 253.063 53.1797 254.222 53.8337 255.652L54.1149 256.282L54.1471 256.357L54.1745 256.434C54.4762 257.288 54.6994 258.042 54.8473 258.64C55.584 258.511 56.3705 258.38 57.2526 258.244L57.2594 258.242L57.2663 258.241C57.801 258.163 58.2501 258.166 58.5309 258.166C58.9212 258.166 59.289 258.257 59.6149 258.415C60.0914 258.175 60.5753 257.925 61.0407 257.628C61.9169 257.069 62.9391 256.615 63.8991 256.193C64.9057 255.749 65.9627 255.292 67.1432 254.679C67.262 254.617 67.5494 254.378 67.8835 253.646C68.2038 252.943 68.4368 252.08 68.651 251.157C68.9012 250.078 69.4308 249.073 69.8678 248.312C70.3894 247.404 70.7059 246.945 70.9792 246.405C71.3035 245.763 71.5594 245.035 71.8024 244.266C72.014 243.596 72.2744 242.684 72.5446 242.044C73.0386 240.876 73.899 239.704 74.5339 238.848C75.297 237.818 75.7114 237.261 75.8571 236.928C76.2282 236.079 76.6629 235.378 76.9401 234.925C76.9424 234.921 76.9447 234.917 76.9469 234.913C76.7379 234.167 76.6225 233.33 76.5553 232.517C76.4415 231.137 76.4434 229.464 76.5778 227.617L76.5817 227.556L76.5895 227.496C76.6875 226.732 76.833 226.031 77.1579 225.336C77.4737 224.661 77.9 224.124 78.2946 223.646C79.1193 222.646 80.6328 222.478 81.6745 223.269C81.7652 223.338 81.847 223.414 81.9245 223.492C82.7636 222.808 83.6148 221.87 85.526 219.466C86.0526 218.804 86.4684 218.225 86.8737 217.656C87.2607 217.112 87.6631 216.54 88.1188 215.965C88.1333 215.933 88.1786 215.829 88.2448 215.61C88.3607 215.226 88.4809 214.706 88.6569 213.924C89.0005 212.398 89.4881 210.195 90.4215 207.165C90.7223 206.189 90.7877 204.712 90.6413 202.716C90.4974 200.756 90.1782 198.586 89.8688 196.265C89.041 190.054 90.5286 184.799 92.4245 182.257C94.3327 179.699 97.3617 179.342 98.4772 179.148C101.438 178.633 104.975 179.091 106.866 179.251C107.998 179.347 109.156 179.798 109.756 179.982C110.491 180.207 111.376 180.42 112.74 180.439C113.115 180.444 113.448 180.406 114.037 180.358C114.563 180.315 115.279 180.267 116.062 180.369C116.726 180.456 117.207 180.757 117.492 180.984C117.779 181.212 117.989 181.463 118.131 181.652C118.205 181.751 118.276 181.854 118.343 181.959C118.963 181.042 119.843 179.981 121.042 178.846C122.494 177.471 123.641 176.49 124.279 175.906C124.969 175.274 125.186 174.999 125.338 174.715C126.048 173.382 127.209 172.347 128.234 171.615C129.123 170.98 130.048 170.476 130.811 170.125C130.845 169.959 130.879 169.792 130.91 169.622C130.972 169.282 131.067 168.683 131.224 168.219L131.246 168.158L131.271 168.097C131.435 167.692 131.642 167.317 131.776 167.07C132.049 166.567 132.488 166.202 132.995 166.002C133.194 164.867 133.408 163.555 133.802 161.646C133.892 161.21 133.919 160.224 133.887 158.474C133.859 156.908 133.792 154.911 133.842 152.974C133.892 151.051 134.059 148.923 134.584 147.036C135.083 145.241 136.105 142.945 138.444 141.674C138.416 141.689 138.503 141.622 139.31 141.005C139.938 140.525 140.794 139.889 141.837 139.256C143.924 137.989 146.851 136.679 150.528 136.518C154.548 136.341 157.777 137.045 159.681 138.477C160.374 138.998 160.892 139.391 161.344 139.686C161.897 138.707 162.758 138.2 163.163 137.993C163.724 137.707 164.309 137.543 164.583 137.466C165.774 137.131 167.15 137.146 168.012 137.164C168.926 137.184 169.588 137.219 170.276 137.229C170.122 136.859 169.928 136.425 169.678 135.921C169.015 134.581 167.814 132.443 167.113 130.795C166.325 128.943 165.143 126.295 164.788 122.742C164.552 120.382 163.964 117.525 163.53 114.411C163.336 113.018 163.173 111.539 163.208 110.325C163.224 109.749 163.289 108.946 163.575 108.166C163.843 107.437 164.677 105.818 166.763 105.441L167.287 105.351C169.936 104.919 173.006 104.753 175.752 104.57C178.833 104.364 181.592 104.136 183.816 103.611C184.244 103.51 184.614 103.405 184.923 103.297C185.101 103.235 185.243 103.175 185.355 103.123C185.594 101.614 185.758 99.7988 185.654 98.1126C185.529 96.0723 185.052 94.8891 184.59 94.3909C183.663 93.3914 182.648 92.8356 181.223 91.9222C180.256 91.3019 177.534 89.6599 177.541 86.4778L177.542 85.9769C177.553 84.5408 177.693 81.3333 179.286 78.6116C179.793 77.7452 180.23 76.5891 180.422 75.4202C180.618 74.2221 180.511 73.3042 180.275 72.7435C179.732 71.4551 178.877 69.5453 178.443 67.7688C178.06 66.1988 177.61 63.2324 179.824 61.0101C180.852 59.9782 182.229 59.585 182.507 59.4905C183.933 59.0065 185.381 58.8761 186.666 58.7317C188.041 58.5772 189.788 58.3689 192.367 57.8284C194.212 57.4418 196.536 57.2174 197.66 57.0462C198.207 56.9628 198.601 56.8811 198.886 56.803C199.111 55.3742 199.37 53.2602 199.221 51.431C199.138 50.405 198.945 49.7682 198.774 49.4534C196.188 48.9623 193.777 48.0448 191.342 46.9505C190.756 46.6869 190.196 46.4055 189.708 46.1575C189.196 45.8979 188.771 45.6793 188.344 45.4788C187.493 45.079 186.894 44.8776 186.381 44.8079C184.978 44.6176 183.17 44.4038 181.519 43.9622C179.816 43.5066 177.903 42.7206 176.358 41.1429C174.979 39.7343 174.219 38.195 173.709 36.7981C173.287 35.6425 172.846 33.9322 172.586 33.1048C171.99 31.2102 171.412 29.5771 170.618 28.2015L170.296 27.6585C169.933 27.0255 169.652 26.3875 169.429 25.8597C169.139 25.1708 168.974 24.7361 168.74 24.222C168.287 23.2289 168.013 23.0025 167.907 22.9388C167.095 22.4543 165.344 21.5532 163.747 21.0999C163.439 21.0126 163.179 20.9531 162.965 20.9153C162.805 21.6038 162.479 22.8111 161.566 23.9319C159.575 26.3777 155.624 29.9839 150.453 29.3694C148.768 29.1692 147.421 28.4048 146.414 27.2063C144.726 25.1984 143.477 21.2683 144.334 17.0481C144.67 15.3912 145.165 14.0189 145.627 12.8616C146.126 11.6101 146.462 10.8856 146.747 10.0159C147.06 9.05902 147.614 8.02867 148.192 7.08818Z" fill="#151515"/>
</g>
<defs>
<filter id="filter0_d_369_206" x="0" y="0" width="210.481" height="272.416" filterUnits="userSpaceOnUse" color-interpolation-filters="sRGB">
<feFlood flood-opacity="0" result="BackgroundImageFix"/>
<feColorMatrix in="SourceAlpha" type="matrix" values="0 0 0 0 0 0 0 0 0 0 0 0 0 0 0 0 0 0 127 0" result="hardAlpha"/>
<feOffset dy="4"/>
<feGaussianBlur stdDeviation="2"/>
<feComposite in2="hardAlpha" operator="out"/>
<feColorMatrix type="matrix" values="0 0 0 0 0 0 0 0 0 0 0 0 0 0 0 0 0 0 0.25 0"/>
<feBlend mode="normal" in2="BackgroundImageFix" result="effect1_dropShadow_369_206"/>
<feBlend mode="normal" in="SourceGraphic" in2="effect1_dropShadow_369_206" result="shape"/>
</filter>
</defs>
</svg>
