<svg width="115" height="205" viewBox="0 0 115 205" fill="none" xmlns="http://www.w3.org/2000/svg">
<g filter="url(#filter0_d_369_117)">
<path fill-rule="evenodd" clip-rule="evenodd" d="M39.8296 0.0617868C41.7524 -0.26119 43.1575 0.750992 43.939 1.49929C44.3548 1.89754 44.715 2.33291 44.9985 2.68581C45.3168 3.08192 45.5174 3.34612 45.7427 3.60476C46.1801 4.10698 46.3827 4.36563 46.7036 4.72194C46.9818 5.03084 47.1535 5.18234 47.2622 5.25808C47.3022 5.28603 47.4875 5.47078 49.8862 5.36257C52.0393 5.26542 55.509 4.99959 60.9585 4.93776C62.5463 4.91976 63.7625 5.16568 64.7593 5.63894C65.6575 6.06545 66.3784 6.73678 66.4517 6.79421C67.4994 7.61432 68.1333 8.6329 68.5796 9.3489C69.069 10.134 69.4011 10.6779 69.9048 11.1858C71.0751 12.3657 72.0154 12.7103 72.7192 12.8606C73.125 12.9472 73.5005 12.98 73.9907 13.0237C74.3855 13.0589 75.1152 13.1134 75.7944 13.3499C76.5846 13.6249 77.815 13.7669 79.4312 13.8323C80.8126 13.8882 82.8277 13.8895 84.2183 13.9758C85.3804 14.0481 86.5938 14.3124 87.6421 14.5335C88.7543 14.768 89.8109 14.986 90.9302 15.0882C93.5794 15.3299 96.2903 15.6756 98.2739 15.929L99.9858 16.1438L100.265 16.177L100.528 16.2708C101.449 16.6003 102.374 16.9184 103.071 17.1751C103.696 17.4055 104.389 17.6753 104.938 17.9905C104.958 18.0008 104.968 18.0066 105.028 18.0374C105.079 18.0639 105.165 18.1091 105.259 18.1643C105.318 18.1985 105.405 18.2536 105.51 18.3284C106.76 18.1625 107.926 18.9516 108.19 20.1262C108.204 20.1526 108.225 20.1902 108.257 20.2434C108.295 20.3064 108.337 20.3737 108.395 20.4651C109.461 22.1474 110.299 24.2444 110.122 26.8352C110.033 28.1327 109.832 29.8494 109.384 31.4622C108.97 32.9568 108.206 34.8898 106.62 36.0432C105.55 36.8206 104.279 37.2324 103.525 37.4866C103.455 37.5101 103.32 37.5716 103.05 37.7434C102.918 37.8276 102.779 37.9217 102.604 38.0403C102.437 38.1534 102.237 38.2893 102.027 38.4251C101.158 38.9867 99.9515 39.6559 98.2788 39.8714C97.0067 40.0352 96.0665 40.1432 95.3657 40.4036C95.2173 40.4588 95.1141 40.5097 95.0464 40.5501C95.02 40.5658 95.0015 40.58 94.9878 40.5901C94.8815 41.826 94.8324 43.1012 94.7798 44.3899C94.7283 45.6532 94.6739 46.9487 94.5552 48.1214C94.4386 49.2725 94.2454 50.4717 93.8491 51.5022C93.4597 52.5148 92.7226 53.7501 91.2573 54.3469C91.1913 54.3738 91.125 54.3965 91.061 54.4173C90.7716 54.974 90.4772 55.6082 90.2437 56.2659C89.8474 57.3821 89.7227 58.3079 89.856 58.9534C90.1207 60.2341 91.943 63.4502 91.7837 69.2747C91.7273 71.336 91.5877 73.0819 91.5347 74.26C91.4778 75.5223 91.5042 76.3479 91.6763 77.1135C91.962 78.3851 92.4181 79.8587 92.8403 81.178C92.8536 81.2194 92.8662 81.2608 92.8794 81.302C93.1929 81.7926 93.3813 82.3597 93.4077 82.9593C93.5406 83.3911 93.7042 83.9382 93.7603 84.3528C93.8552 85.056 93.6083 85.7256 93.145 86.2102C93.1005 86.9598 93.0687 87.7862 93.0649 88.6165C93.0602 89.6731 93.1027 90.6638 93.2046 91.4768C93.3139 92.3485 93.455 92.6913 93.4595 92.7053C94.5933 94.7273 95.5807 96.4041 96.3442 97.6057C96.7288 98.2108 97.0317 98.6557 97.2495 98.9485C97.2808 98.9905 97.3099 99.0255 97.3335 99.0559C98.2709 99.6635 99.963 100.705 101.159 102.104C101.74 102.784 102.27 103.456 102.71 104.014C103.159 104.583 103.484 104.992 103.753 105.297C103.771 105.312 103.813 105.345 103.888 105.398C104.085 105.535 104.261 105.64 104.641 105.883C105.168 106.22 106.272 106.918 107.081 108.046L107.239 108.278L107.333 108.425C107.623 108.895 108.334 110.227 107.799 111.868C107.904 111.548 107.347 113.651 106.756 115.253C106.057 117.149 104.941 119.604 103.184 121.972C102.515 122.873 100.636 125.463 96.8423 128.566C95.4669 129.69 94.4654 130.544 93.6567 131.217C93.268 131.541 92.903 131.84 92.5845 132.084C92.3176 132.289 91.8787 132.617 91.3882 132.86C90.5276 133.285 89.4633 133.476 88.7681 133.582C87.9229 133.711 86.9437 133.805 85.939 133.865C85.6194 133.883 85.2904 133.897 84.9556 133.909C83.7832 135.133 82.2635 135.068 81.8843 135.037C81.2085 134.983 80.6223 134.77 80.1587 134.511C79.9178 134.377 79.6913 134.235 79.4751 134.094C78.9788 134.54 78.4347 134.999 77.8774 135.449C76.9942 136.164 75.991 136.938 74.978 137.719C73.9528 138.51 72.9046 139.318 71.8794 140.137C70.2331 141.453 69.1489 142.272 68.3316 142.978C68.0317 143.237 67.8466 143.414 67.7378 143.529C67.1205 145.342 65.6854 146.765 64.5991 147.788C63.9451 148.405 63.1802 149.08 62.4175 149.763C61.6351 150.463 60.7997 151.22 59.9136 152.073C57.844 154.064 54.1267 157.728 51.437 159.522C50.6551 160.043 49.5214 161.232 48.4282 163.061C47.3387 164.884 46.6656 166.315 46.061 167.577C45.504 168.74 44.8443 170.14 43.8237 171.303C42.4852 172.828 40.4916 174.502 37.9976 175.119C36.1934 175.566 34.3445 175.796 32.2173 176.499C31.2427 176.822 30.5851 177.141 30.2134 177.409C30.1789 177.434 30.1494 177.456 30.1255 177.475C29.8967 179.29 29.6836 181.059 29.4624 182.55C29.2399 184.051 28.9684 185.589 28.5581 186.731C28.1146 187.964 27.4729 190.127 26.8364 191.59C26.2215 193.003 24.9723 195.446 22.2222 196.29C21.2211 196.598 19.6017 196.866 17.8853 196.194C15.9542 195.437 14.3253 194.173 13.1255 192.975C12.5152 192.365 12.0812 191.684 11.8023 191.236C11.4666 190.696 11.2793 190.368 10.9927 189.954C10.5174 189.268 9.9111 188.579 8.77491 187.938C7.63443 187.294 7.06465 186.867 6.57179 186.42C6.41873 186.282 6.48787 186.342 6.4048 186.268C6.38612 186.251 6.38814 186.253 6.39698 186.26C6.42072 186.278 6.38149 186.243 6.18409 186.132C4.64008 185.263 4.01848 183.462 4.63917 181.909C4.63434 181.875 4.62774 181.839 4.62452 181.804C4.28082 178.013 4.05982 169.046 4.00148 164.985C3.96596 162.512 4.5748 159.71 5.45069 157.075C5.82367 155.954 6.74346 155.429 7.38136 155.207C7.95707 155.007 8.55271 154.959 8.92628 154.936C9.68708 154.889 10.1421 154.902 10.6167 154.859C10.763 154.403 10.8591 153.65 10.8638 152.603C10.8734 150.428 10.5259 148.031 10.3706 146.129C10.1924 143.947 9.98626 142.122 9.70655 139.49C9.53262 137.852 9.63058 135.07 9.96144 133.503C10.1364 132.675 10.5186 131.572 11.5767 130.904C12.0883 130.58 12.605 130.457 13.0493 130.424C13.083 130.059 13.1165 129.636 13.146 129.154C13.2732 127.075 13.3453 124.3 13.4878 121.005C13.5517 119.526 13.512 118.197 13.4946 116.588C13.4775 114.997 13.4848 113.223 13.6577 111.011C14.3653 101.959 14.2557 100.592 13.7446 99.2415C13.2372 97.9006 12.259 95.8574 12.0474 93.7835C11.9118 92.4538 12.3746 91.1088 12.7329 90.1321C13.1521 88.9898 13.5704 88.0133 13.9028 86.8382C14.9132 83.2664 17.6666 80.4904 21.0942 77.1897C22.3936 75.9385 22.6107 75.2289 23.9556 72.3421C25.1975 69.6763 26.0122 66.4236 25.7691 63.1985C25.4538 59.0168 25.8261 55.3019 25.9956 53.6516C26.1249 52.3932 26.6305 49.1769 27.4644 44.4807C27.9839 41.555 27.442 39.3725 26.9146 36.385C25.4694 28.1992 28.1997 22.5086 28.4614 20.7444C28.9418 17.5022 28.8197 14.5065 28.478 12.6751C28.062 10.4444 28.2536 8.74894 28.6929 7.428C28.908 6.7813 29.1671 6.27268 29.3794 5.89382C29.4744 5.72432 29.5821 5.54252 29.6304 5.45925C29.6988 5.34132 29.701 5.33186 29.687 5.36354L29.7544 5.21706C30.4786 3.72858 31.878 3.09706 32.8267 2.78347C33.3339 2.61581 33.854 2.49368 34.272 2.39772C34.7278 2.2931 35.0704 2.21707 35.3921 2.12429C35.6725 2.0433 35.9327 1.87881 36.6929 1.39772C37.3468 0.983901 38.3356 0.372293 39.6421 0.0979196L39.8296 0.0617868ZM40.4341 4.67214C40.1419 4.77065 39.8239 4.94685 39.3413 5.25222C38.8338 5.57343 37.893 6.22399 36.7759 6.54616C36.2885 6.68668 35.7778 6.7992 35.3911 6.88796C34.9667 6.98539 34.6542 7.06239 34.3931 7.1487C34.2138 7.20799 34.1112 7.25672 34.0571 7.28542C33.9035 7.59679 33.6609 8.00248 33.6167 8.08132C33.4896 8.30816 33.3723 8.54443 33.2769 8.83132C33.0949 9.37846 32.9247 10.3087 33.2144 11.8616C33.656 14.2292 33.7692 17.7218 33.2251 21.3938C32.7098 24.8713 30.3688 28.3066 31.6587 35.6135C32.1356 38.3146 32.894 41.3844 32.2066 45.2561C31.3669 49.985 30.8924 53.0373 30.7827 54.1048C30.6175 55.7133 30.284 59.0994 30.5679 62.8655C30.8804 67.0107 29.838 71.0277 28.3482 74.2259C27.1455 76.8073 26.5684 78.459 24.5025 80.4485C20.8939 83.9234 19.1648 85.8579 18.5454 88.0471C18.1514 89.4399 17.6 90.7678 17.271 91.6643C16.8814 92.7261 16.8175 93.1561 16.8355 93.3333C16.9688 94.64 17.5439 95.7545 18.2671 97.6653C19.2155 100.171 19.1291 102.74 18.4556 111.356C18.2971 113.383 18.2897 115.011 18.3062 116.539C18.3225 118.05 18.3652 119.561 18.2944 121.198C18.1574 124.367 18.0786 127.303 17.9487 129.424C17.8837 130.486 17.8009 131.446 17.6743 132.195C17.6122 132.562 17.5256 132.968 17.3892 133.342C17.3038 133.576 17.0046 134.396 16.1577 134.904C15.5821 135.249 14.9991 135.324 14.5464 135.312C14.4247 136.471 14.391 138.063 14.4927 139.021C14.7686 141.618 14.9837 143.517 15.1675 145.769C15.2901 147.27 15.686 150.203 15.6753 152.622C15.6699 153.84 15.5687 155.188 15.1773 156.335C14.7937 157.459 13.8873 159.011 11.8989 159.348C11.329 159.445 10.7824 159.481 10.3345 159.501C10.1115 159.511 9.89071 159.518 9.70948 159.524H9.70753C9.11781 161.526 8.79027 163.401 8.81202 164.92C8.86384 168.528 9.04101 175.781 9.30519 179.914C9.48593 179.981 9.6639 180.062 9.83644 180.159C10.2604 180.398 10.6153 180.627 10.94 180.879C11.23 181.105 11.4953 181.357 11.5259 181.385C11.537 181.395 11.6464 181.523 12.4351 181.968C14.7258 183.261 16.0768 184.782 17.0044 186.121C17.4189 186.72 17.7949 187.359 17.9976 187.685C18.2381 188.071 18.3246 188.17 18.3306 188.177C18.8519 188.698 19.4036 189.129 19.9263 189.439C19.9972 189.305 20.083 189.136 20.1763 188.922C20.4085 188.388 20.6348 187.749 20.895 186.967C21.1397 186.232 21.4288 185.327 21.7359 184.473C21.8922 184.038 22.0895 183.116 22.3179 181.575C22.5365 180.101 22.7457 178.352 22.9976 176.364L23.0259 176.165C23.3521 174.143 24.6634 172.748 25.8784 171.872C27.1194 170.978 28.5844 170.375 29.8648 169.951C32.2475 169.163 35.441 168.6 36.1958 168.413C36.6303 168.306 37.428 167.84 38.3032 166.842C38.5815 166.525 38.8585 166.031 39.5034 164.685C40.1011 163.437 40.8965 161.742 42.1675 159.615C43.5623 157.282 45.3441 155.152 47.3179 153.835C49.328 152.494 52.4551 149.441 54.8032 147.182C55.782 146.24 56.6928 145.417 57.4946 144.699C58.3161 143.964 58.975 143.382 59.5425 142.847C60.8206 141.643 60.8921 141.319 60.8628 141.43C61.1157 140.476 61.6412 139.741 62.061 139.245C62.4962 138.732 63.0101 138.255 63.5044 137.828C64.4531 137.01 65.8338 135.956 67.2603 134.816C68.3422 133.951 69.4406 133.105 70.4566 132.322C71.4849 131.528 72.4193 130.807 73.2271 130.154C74.0483 129.49 74.6496 128.967 75.0386 128.576C75.1203 128.494 75.1835 128.426 75.2319 128.371C75.5582 127.592 76.1633 126.972 76.9087 126.598C77.0789 126.445 77.2665 126.305 77.4722 126.182C79.057 125.236 81.1082 125.613 82.2271 126.998C83.2743 127.033 84.4219 127.016 85.4976 126.952C86.3428 126.903 87.0802 126.828 87.6343 126.743C87.8482 126.711 87.9989 126.68 88.0972 126.659C88.2906 126.51 88.5559 126.295 88.9273 125.986C89.6632 125.373 90.7583 124.442 92.1616 123.294C95.2963 120.731 96.7748 118.669 97.3042 117.955C99.0417 115.613 99.9323 113.158 100.425 111.511C100.201 111.369 99.9051 111.181 99.647 111.001C99.272 110.74 98.7644 110.356 98.3013 109.837C97.8555 109.337 97.3807 108.733 96.9556 108.194C96.5042 107.621 96.0574 107.054 95.5796 106.495C95.0734 105.903 94.474 105.601 92.9019 104.538C92.4502 104.233 92.1216 103.878 91.9556 103.692C91.7509 103.462 91.5543 103.213 91.3745 102.971C91.0133 102.485 90.6098 101.883 90.1831 101.211C89.3243 99.8597 88.2677 98.0617 87.104 95.9866C86.4468 94.8146 86.1774 93.4115 86.0386 92.304C85.888 91.1027 85.8427 89.8008 85.8482 88.5862C85.859 86.1595 86.0756 83.7885 86.2232 82.6731C86.3478 81.7318 86.8555 80.9266 87.5767 80.3841C87.353 79.6201 87.1409 78.8336 86.9732 78.0872C86.6683 76.7308 86.6665 75.4281 86.728 74.0608C86.7934 72.6097 86.9175 71.2234 86.9741 69.1526C87.1192 63.8464 85.7661 62.8999 85.1362 59.8518C84.7613 58.0368 85.1858 56.195 85.689 54.7776C86.2078 53.3162 86.9141 52.0242 87.3892 51.2112L87.4683 51.0852C87.6615 50.7957 87.916 50.5456 88.2183 50.3528C88.5504 50.1411 88.8779 50.0384 89.1304 49.9866C89.1925 49.9739 89.2536 49.9635 89.313 49.9553C89.3196 49.939 89.3285 49.9217 89.3355 49.9036C89.5143 49.4383 89.661 48.7127 89.7661 47.6751C89.869 46.6587 89.9185 45.4999 89.9712 44.2092C90.0228 42.9444 90.0774 41.5653 90.1939 40.2112C90.2863 39.1358 90.723 38.2064 91.4273 37.4758C92.0942 36.7842 92.9064 36.3662 93.6284 36.0979C94.995 35.5902 96.6415 35.4235 97.6382 35.2952C98.2578 35.2154 98.7439 34.9808 99.3394 34.596C99.4955 34.4951 99.6487 34.3908 99.8257 34.2708C99.994 34.1566 100.19 34.0234 100.39 33.8958C100.786 33.6439 101.308 33.3404 101.932 33.1301C102.809 32.8346 103.345 32.6312 103.714 32.3626C103.939 32.1994 104.368 31.5972 104.735 30.2747C105.069 29.0697 105.241 27.6846 105.32 26.5325C105.41 25.2214 105.036 24.117 104.398 23.055C103.843 23.121 103.262 23.0056 102.761 22.6829C102.37 22.4303 102.082 22.0853 101.905 21.6995C101.754 21.6392 101.57 21.5671 101.346 21.4846C100.719 21.2537 100.014 21.0112 99.1069 20.6887C97.0561 20.437 93.7598 19.9836 90.4751 19.6839C89.0269 19.5517 87.7047 19.2741 86.6099 19.0432C85.4512 18.7989 84.6279 18.6271 83.9067 18.5823C82.4539 18.4921 81.0952 18.5211 79.229 18.4456C77.5977 18.3796 75.7053 18.2307 74.1538 17.6907C74.1474 17.6896 74.0402 17.6645 73.5454 17.6204C73.1043 17.5811 72.4253 17.528 71.6733 17.3675C70.0611 17.0231 68.2654 16.2294 66.4204 14.3694C65.4783 13.4196 64.8759 12.3995 64.4517 11.719C63.9843 10.9693 63.725 10.6192 63.4097 10.3723C62.8151 9.90695 62.8753 9.89527 62.6255 9.77663C62.4732 9.70437 62.0503 9.54321 61.0151 9.55495C55.6775 9.61551 52.4138 9.87105 50.1128 9.97487C48.0598 10.0675 46.068 10.1317 44.436 8.99538C43.877 8.60607 43.4195 8.13636 43.063 7.7405C42.749 7.39184 42.3092 6.86183 42.0513 6.56569C41.7453 6.21435 41.4161 5.78904 41.188 5.50515C40.9252 5.17803 40.7223 4.94182 40.5396 4.76686C40.4994 4.72842 40.4638 4.69743 40.4341 4.67214Z" fill="#151515"/>
</g>
<defs>
<filter id="filter0_d_369_117" x="0" y="0" width="114.145" height="204.612" filterUnits="userSpaceOnUse" color-interpolation-filters="sRGB">
<feFlood flood-opacity="0" result="BackgroundImageFix"/>
<feColorMatrix in="SourceAlpha" type="matrix" values="0 0 0 0 0 0 0 0 0 0 0 0 0 0 0 0 0 0 127 0" result="hardAlpha"/>
<feOffset dy="4"/>
<feGaussianBlur stdDeviation="2"/>
<feComposite in2="hardAlpha" operator="out"/>
<feColorMatrix type="matrix" values="0 0 0 0 0 0 0 0 0 0 0 0 0 0 0 0 0 0 0.25 0"/>
<feBlend mode="normal" in2="BackgroundImageFix" result="effect1_dropShadow_369_117"/>
<feBlend mode="normal" in="SourceGraphic" in2="effect1_dropShadow_369_117" result="shape"/>
</filter>
</defs>
</svg>

<svg width="107" height="110" viewBox="0 0 107 110" fill="none" xmlns="http://www.w3.org/2000/svg">
<g filter="url(#filter0_d_369_112)">
<path fill-rule="evenodd" clip-rule="evenodd" d="M36.6499 1.38558C38.6401 -0.41975 41.4074 -0.0853782 43.1304 0.321122C45.0346 0.770467 46.9263 1.61738 48.0698 2.12483C49.5185 2.76777 50.4668 3.86264 51.0415 4.50862C51.7493 5.30413 51.9897 5.52426 52.2144 5.62288C53.3512 6.12152 54.8317 6.35778 56.8081 6.53304C57.3752 6.58334 57.8386 6.69992 61.1997 6.75765C64.5758 6.81561 71.0553 6.81677 74.8716 6.99202C78.213 7.14547 80.4729 7.43226 82.2027 7.71663C84.0654 8.02288 84.8838 8.23596 85.9361 8.34456C87.7087 8.52761 88.9294 9.58465 89.7144 10.4549C90.4689 11.2914 91.2051 12.4171 91.7036 13.1063C94.2148 16.5777 95.0917 17.9988 96.1831 19.3133C97.1284 20.3381 97.9134 21.2096 98.5112 21.9393C99.013 22.5516 99.5043 23.2043 99.8237 23.8592L99.9497 24.1405L100.013 24.2967L100.053 24.4598C100.194 25.043 100.221 25.6786 100.226 26.1756C100.718 26.4393 101.153 26.8169 101.483 27.3006C102.416 28.6693 102.207 30.436 101.084 31.5741C101.046 31.7328 101.004 31.944 100.956 32.2283C100.849 32.8483 100.748 33.6066 100.595 34.6795C100.447 35.7206 100.262 36.9725 100.001 38.452C99.5292 41.1359 99.7632 43.246 99.5943 47.1483L99.5816 47.4285L99.523 47.702C99.2288 49.0747 98.6737 50.8111 98.2827 51.8709C98.264 51.9217 98.2424 51.9735 98.2222 52.0272C98.2188 52.5418 98.2018 53.1808 98.1148 53.7723L98.0982 53.8846L98.0737 53.9959C97.7547 55.4621 97.625 56.5379 97.4859 57.9764L97.4253 58.6082L97.1353 59.1766C96.7643 59.9049 95.9815 61.4397 94.8667 63.0067C93.7986 64.508 92.1697 66.4124 89.9527 67.5418C89.1796 67.9356 88.1718 68.5073 86.9439 69.2049C85.7497 69.8834 84.3881 70.657 83.0191 71.3846C82.1367 71.8536 81.3903 72.3184 80.0591 72.9539C78.7663 73.5711 77.2235 74.3483 75.8814 74.9364C74.5895 75.5024 72.9563 76.1424 71.3775 76.286C69.468 76.4594 67.1526 76.5567 65.5288 76.6698C64.6495 76.731 63.907 76.7987 63.3091 76.8836C63.0138 76.9256 62.7836 76.9674 62.6109 77.0067C62.4629 77.0403 62.3924 77.0638 62.3794 77.0682C60.19 77.9456 57.6187 78.9065 56.1275 80.0428C52.2489 82.998 48.8181 85.2519 47.2066 86.0858C46.6079 86.3955 45.8481 86.6548 45.3667 86.8231C44.7747 87.0301 44.1844 87.2347 43.5542 87.492C42.2999 88.0042 41.0573 88.6605 40.02 89.6102C39.388 90.189 39.0713 90.4408 38.3989 91.3553C37.7489 92.2395 36.809 93.6986 35.2769 96.3612C35.1054 96.8785 34.8984 97.337 34.6773 97.7449C33.9955 99.1775 32.2746 100.969 29.3648 101.34C28.5361 101.445 27.6764 101.519 26.8941 101.493C26.5012 101.48 26.0239 101.439 25.5278 101.321C25.0628 101.211 24.324 100.974 23.6382 100.405C22.9369 99.8231 22.4946 99.1197 22.2319 98.533C22.2479 98.5686 22.2073 98.4768 22.021 98.203C21.8475 97.948 21.6033 97.6164 21.272 97.1903C20.6049 96.3321 19.7007 95.236 18.5318 93.8201C17.1037 92.0905 16.0924 91.2719 14.9048 90.3983C14.1878 89.8709 13.5362 89.331 13.0454 88.9324C12.7144 88.6637 12.4631 88.4668 12.2622 88.3182C10.8031 88.7212 9.17899 88.2063 8.2798 86.9354C7.78383 86.2343 7.59188 85.4212 7.67531 84.6395C7.55224 84.2506 7.40953 83.8027 7.24757 83.2967C6.82746 81.9841 6.31334 80.3382 5.97902 78.8504C5.67426 77.4941 5.67236 76.1921 5.7339 74.825C5.79924 73.3739 5.92432 71.9876 5.98097 69.9168C6.12608 64.6104 4.77287 63.6634 4.14308 60.6151C3.76815 58.8 4.19255 56.9583 4.69581 55.5408C5.21465 54.0797 5.92093 52.7884 6.39601 51.9754C6.59671 51.6321 6.87889 51.3382 7.22413 51.118C7.55645 50.9061 7.88362 50.8017 8.13624 50.7498C8.19861 50.737 8.26025 50.7267 8.31984 50.7186C8.32641 50.7024 8.33441 50.6857 8.34132 50.6678C8.5202 50.2025 8.6669 49.4761 8.77199 48.4383C8.87486 47.4222 8.9254 46.2638 8.97804 44.9735C9.02965 43.7085 9.08327 42.3287 9.19972 40.9744C9.29217 39.8993 9.72913 38.9715 10.4331 38.241C11.1 37.5493 11.9122 37.1305 12.6343 36.8621C14.0011 36.3543 15.6483 36.1877 16.645 36.0594C17.2648 35.9796 17.7506 35.7442 18.3462 35.3592C18.5023 35.2583 18.6556 35.1551 18.8325 35.035C19.0009 34.9208 19.1965 34.7877 19.397 34.66C19.7924 34.4081 20.3142 34.1046 20.938 33.8944C21.8156 33.5986 22.3514 33.3946 22.7212 33.1258C22.9457 32.9623 23.3748 32.3607 23.7417 31.0389C24.076 29.834 24.2477 28.4488 24.3267 27.2967C24.4219 25.9071 23.9994 24.7475 23.2896 23.6268C23.1365 23.3852 22.6164 22.6295 22.4693 21.7401C22.2841 20.621 22.6883 19.657 23.2505 18.9403L23.4585 18.6903C24.5268 17.4873 25.9753 16.9381 26.9331 16.5819C28.1271 16.1378 28.9102 15.8797 29.6167 15.3807C30.858 14.504 31.6538 13.2819 32.1255 12.0223C32.6063 10.7383 32.6941 9.56093 32.6431 8.97444C32.4616 6.89285 33.4697 5.08112 34.3277 3.90511C35.225 2.67513 36.2525 1.74616 36.6499 1.38558ZM41.981 4.80452C40.4234 4.43707 39.9866 4.71358 39.9556 4.74104C39.5816 5.08034 38.866 5.73659 38.27 6.55354C37.6345 7.42477 37.3974 8.12375 37.438 8.58968C37.5497 9.87196 37.3545 11.7115 36.6538 13.5828C35.9438 15.479 34.6591 17.5522 32.4683 19.0994C31.1186 20.0525 29.5882 20.5459 28.6724 20.8866C28.1026 21.0985 27.7415 21.2605 27.5034 21.3953C28.5191 23.0491 29.2992 25.0929 29.1275 27.5994C29.0385 28.8967 28.8385 30.613 28.3911 32.2254C27.9764 33.7201 27.2124 35.6531 25.6255 36.8065C24.5557 37.5839 23.2861 37.9966 22.5318 38.2508C22.4624 38.2742 22.3274 38.3346 22.0571 38.5067C21.9247 38.591 21.7851 38.6856 21.6099 38.8045C21.4432 38.9176 21.2437 39.0536 21.0337 39.1893C20.1646 39.751 18.9585 40.4201 17.2857 40.6356C16.0132 40.7994 15.0735 40.9074 14.3726 41.1678C14.224 41.223 14.121 41.2729 14.0532 41.3133C14.0267 41.3291 14.0084 41.3442 13.9946 41.3543C13.8884 42.5903 13.8382 43.8653 13.7857 45.1541C13.7341 46.4172 13.6797 47.712 13.561 48.8846C13.4445 50.0356 13.2521 51.235 12.856 52.2655C12.4666 53.2782 11.7288 54.5143 10.2632 55.1112C10.1973 55.138 10.1317 55.1607 10.0679 55.1815C9.77845 55.7382 9.48403 56.3724 9.2505 57.0301C8.85412 58.1465 8.72949 59.0721 8.86281 59.7176C9.12757 60.9983 10.9498 64.2136 10.7905 70.0379C10.7341 72.0995 10.5936 73.846 10.5405 75.0242C10.4837 76.286 10.5102 77.1114 10.6821 77.8768C10.9175 78.9239 11.2691 80.1082 11.6216 81.2303C12.0709 81.1702 12.5338 81.1633 13.0054 81.2176C14.2328 81.3591 15.2166 81.8737 15.8823 82.2918C16.5545 82.7139 17.1971 83.2317 17.7066 83.6453C18.2673 84.1007 18.7525 84.5028 19.2954 84.9022C20.8229 86.0258 22.3012 87.2329 24.189 89.5194C25.3317 90.9034 26.3126 92.0919 27.0571 93.0496C27.4148 93.5097 27.785 94.0014 28.1148 94.494C28.2281 94.2931 28.3408 94.0978 28.4497 93.9061C28.4541 93.7382 28.4575 93.5204 28.4575 93.2254C28.4576 91.7598 29.407 90.5072 30.7476 90.0018C31.4376 88.8869 32.0054 88.0378 32.5015 87.3631C33.6106 85.8545 34.3737 85.2065 35.0366 84.5994C36.9414 82.8553 39.0508 81.8038 40.728 81.119C41.5637 80.7778 42.3352 80.511 42.895 80.3153C43.189 80.2125 43.4039 80.1373 43.5776 80.0711C43.7007 80.0242 43.7619 79.9976 43.7808 79.9891C44.8183 79.4522 47.8494 77.5075 51.6392 74.6199C54.1249 72.7259 57.941 71.3426 59.5982 70.6785C60.466 70.3308 61.4387 70.1487 62.2534 70.033C63.117 69.9104 64.0678 69.8278 65.0054 69.7625C67.0163 69.6225 68.8336 69.5597 70.6968 69.3905C70.9629 69.3662 71.6323 69.1847 72.8833 68.6366C74.085 68.11 75.3275 67.4778 76.8443 66.7537C78.041 66.1825 78.1159 66.0739 79.523 65.326C80.7855 64.655 82.0557 63.9327 83.2661 63.2449C84.4427 62.5765 85.6144 61.9118 86.5689 61.4256C87.2362 61.0857 88.0606 60.2893 88.9058 59.1014C89.5201 58.2378 90.0118 57.3607 90.3677 56.6844C90.4566 55.8302 90.5584 55.0066 90.7144 54.0965C89.8226 52.6629 90.134 50.8347 91.4097 49.743C91.4297 49.6914 91.4528 49.6304 91.479 49.5594C91.7749 48.7574 92.1709 47.5079 92.3941 46.5662C92.4954 43.7424 92.3371 40.4119 92.8853 37.2977C93.1276 35.9208 93.3016 34.7504 93.4448 33.743C93.5836 32.7672 93.706 31.8484 93.8335 31.1043C93.9572 30.3823 94.1283 29.5493 94.4429 28.785C94.6616 28.2536 94.9844 27.6685 95.478 27.1346C95.4391 26.9697 95.4165 26.7981 95.4165 26.6219C95.4165 26.1514 95.4085 25.8708 95.3921 25.6912C95.3662 25.6487 95.3369 25.5958 95.2964 25.536C95.1684 25.3469 94.9848 25.1038 94.73 24.7928C94.2164 24.166 93.4953 23.3644 92.5259 22.3143L92.4859 22.2703L92.4478 22.2254C91.2193 20.7516 90.0526 18.9215 87.7505 15.7391C87.029 14.7417 86.6075 14.0649 86.0767 13.4764C85.8416 13.2158 85.6661 13.0727 85.5464 12.9969C85.491 12.9618 85.4559 12.9461 85.44 12.9403C85.4328 12.9376 85.4285 12.9359 85.4263 12.9354C85.4249 12.9351 85.4233 12.9355 85.4224 12.9354C84.2024 12.8095 82.7993 12.4991 81.3902 12.2674C79.8478 12.0138 77.7819 11.7476 74.6411 11.6033C70.9136 11.4322 64.6664 11.4349 61.1138 11.3739C57.5482 11.3126 56.9137 11.1793 56.3657 11.1307C54.3562 10.9525 52.156 10.6737 50.2144 9.8221C48.8319 9.21569 47.8983 8.08653 47.3833 7.50765C46.7353 6.77931 46.4102 6.47505 46.0503 6.31526C44.84 5.77818 43.362 5.13036 41.981 4.80452Z" fill="#151515"/>
</g>
<defs>
<filter id="filter0_d_369_112" x="0" y="0" width="106.071" height="109.498" filterUnits="userSpaceOnUse" color-interpolation-filters="sRGB">
<feFlood flood-opacity="0" result="BackgroundImageFix"/>
<feColorMatrix in="SourceAlpha" type="matrix" values="0 0 0 0 0 0 0 0 0 0 0 0 0 0 0 0 0 0 127 0" result="hardAlpha"/>
<feOffset dy="4"/>
<feGaussianBlur stdDeviation="2"/>
<feComposite in2="hardAlpha" operator="out"/>
<feColorMatrix type="matrix" values="0 0 0 0 0 0 0 0 0 0 0 0 0 0 0 0 0 0 0.25 0"/>
<feBlend mode="normal" in2="BackgroundImageFix" result="effect1_dropShadow_369_112"/>
<feBlend mode="normal" in="SourceGraphic" in2="effect1_dropShadow_369_112" result="shape"/>
</filter>
</defs>
</svg>
