<svg width="173" height="186" viewBox="0 0 173 186" fill="none" xmlns="http://www.w3.org/2000/svg">
<g filter="url(#filter0_d_369_353)">
<path fill-rule="evenodd" clip-rule="evenodd" d="M28.1042 1.11317C29.4564 -0.291459 31.7399 -0.378552 33.2038 0.918835C33.2899 0.995171 33.3714 1.07494 33.448 1.15712C36.0283 1.17556 38.9109 1.45678 46.3386 2.94618C49.7571 3.63166 51.428 4.80508 52.7966 5.82313C53.6656 6.46958 54.3975 7.23277 54.9802 7.84462C55.6131 8.50915 56.069 8.99274 56.5466 9.37489C58.071 10.5946 60.0575 12.1002 61.3796 13.2684C62.1394 13.9398 62.9241 14.7627 63.5417 15.3837C64.1583 16.0036 64.6179 16.4317 64.9724 16.6893C64.9763 16.6897 64.9808 16.6899 64.9851 16.6903C65.1527 16.7048 65.4221 16.6992 65.8327 16.6542C66.0342 16.632 66.2813 16.5476 67.0749 16.0038C67.8041 15.5041 68.9007 14.6906 70.4245 13.9999C71.8196 13.3677 73.3879 13.2281 74.7087 13.247C76.0656 13.2663 77.392 13.4586 78.4372 13.6581C80.4814 14.0485 82.1615 15.2774 83.4343 16.5458C84.2891 17.3977 84.9102 18.2257 85.4362 18.9813C85.9938 19.7822 86.3533 20.3556 86.8611 21.0126C88.0553 22.5575 89.6402 23.1734 91.2995 23.4765C92.1616 23.6339 92.9512 23.6929 93.779 23.7733C94.1627 23.8106 94.6004 23.8574 95.0056 23.9335C95.328 23.994 95.8162 24.1038 96.2995 24.3515L96.5066 24.4667L96.6814 24.579C97.5278 25.1538 97.989 25.9584 98.2517 26.6034C98.537 27.3042 98.6855 28.0553 98.7761 28.7069C98.8682 29.3701 98.9154 30.0534 98.9548 30.6337C98.9966 31.2505 99.0281 31.7294 99.0798 32.1249C99.103 32.3024 99.1312 32.4398 99.1628 32.5487C99.2788 32.5742 99.4222 32.6033 99.5964 32.6317C100.389 32.7609 101.498 32.8543 102.847 32.9257C104.182 32.9962 105.671 33.041 107.205 33.0849C108.726 33.1284 110.293 33.1709 111.735 33.2382C115.764 33.4262 118.404 33.6141 121.708 33.8798C127.351 34.3336 130.478 34.5729 131.854 34.7382C133.891 34.9832 134.551 36.7448 134.605 36.8583C135.172 38.0426 135.389 39.457 135.524 40.5409C135.681 41.8057 135.736 42.6476 135.886 43.3436C135.966 43.7095 136.146 44.0572 136.514 44.5604C136.791 44.9387 137.517 45.8151 137.978 46.5751C138.506 47.4444 139.206 47.7857 140.664 48.0077C141.535 48.1404 142.413 48.2858 143.206 48.4628C144.322 48.712 145.048 49.3945 145.48 50.0546C145.874 50.6562 146.077 51.3106 146.2 51.7733C146.311 52.1927 146.439 52.8098 146.503 53.0819C146.594 53.4696 146.66 53.6591 146.704 53.7479C147.438 55.234 147.629 57.1897 147.721 58.8563C147.771 59.7396 147.795 60.6691 147.822 61.5487C147.85 62.4442 147.881 63.3015 147.941 64.1122C148.039 65.4289 148.547 66.1877 149.346 67.6845C149.88 68.6844 150.083 69.6924 150.23 70.3778C150.391 71.128 150.504 71.6162 150.742 72.1015C150.844 72.3088 151.009 72.4878 151.513 72.8222C151.681 72.9332 152.172 73.2403 152.47 73.4481C152.842 73.7075 153.292 74.0578 153.701 74.5321C154.489 75.4473 154.878 76.5034 155.123 77.285C155.326 77.9319 155.423 78.3263 155.53 78.6835C155.788 78.7064 156.12 78.7184 156.569 78.7225C157.048 78.727 157.708 78.7239 158.354 78.7382C159.453 78.7625 161.144 78.7905 163.186 79.8612C165.387 81.0152 166.352 82.9736 166.619 83.3934C167.21 84.3252 167.438 85.3885 167.516 86.3397C167.597 87.314 167.535 88.353 167.408 89.3642C167.153 91.382 166.597 93.5686 166.089 95.411C165.497 97.5558 165.227 99.1729 164.867 101.114C164.569 102.718 164.728 103.682 164.944 104.321C165.136 104.887 165.361 105.238 165.69 105.768L166.056 106.373L166.136 106.511L166.197 106.657C166.557 107.535 166.789 108.367 166.959 108.975C167.048 109.296 167.112 109.526 167.174 109.716C167.223 109.868 167.249 109.926 167.25 109.93L167.276 109.977L167.306 110.04C167.537 110.522 167.68 110.983 167.777 111.289C167.82 111.423 167.845 111.559 167.862 111.694C168.433 112.052 168.844 112.64 168.935 113.341C169.1 114.606 168.165 115.759 166.846 115.917C166.123 116.004 165.239 116.009 164.451 116.012C163.603 116.015 162.742 116.014 161.864 116.058C160.032 116.152 158.601 116.435 157.703 117.005C155.231 118.573 154.256 119.68 153.69 121.238C152.964 123.24 152.111 124.657 151.293 125.808C150.901 126.358 150.505 126.865 150.191 127.277C149.862 127.71 149.602 128.066 149.383 128.422C148.778 129.403 148.32 130.359 147.714 131.564C147.119 132.747 146.425 134.076 145.414 135.6C144.029 137.689 143.426 139.682 142.878 141.488C142.62 142.337 142.325 143.313 141.92 144.127C141.499 144.971 140.801 145.972 139.529 146.516C139.001 146.743 138.435 146.845 138.076 146.904C137.875 146.938 137.66 146.969 137.474 146.997C137.279 147.026 137.096 147.054 136.913 147.086C136.164 147.215 135.593 147.38 135.144 147.66C134.722 147.924 134.306 148.321 133.79 148.935C133.532 149.243 133.276 149.57 132.979 149.948C132.691 150.315 132.37 150.723 132.02 151.134C131.144 152.162 130.088 152.857 129.119 153.427C128.041 154.06 127.242 154.453 126.154 155.145C125.643 155.471 125.122 155.745 124.687 155.973C124.226 156.214 123.858 156.406 123.509 156.618C122.857 157.015 122.414 157.402 122.09 157.963C121.095 159.684 119.442 163.728 118.876 165.677C118.767 166.05 118.568 166.375 118.309 166.639C117.66 168.332 115.747 169.278 113.915 168.766C113.184 168.561 111.407 168.442 109.161 168.577C106.969 168.709 105.041 169.038 104.117 169.356C102.531 169.903 101.405 170.522 99.0554 171.519C97.2014 172.306 95.8525 172.934 94.8562 173.556C94.6579 174.067 94.2733 174.514 93.7312 174.79C93.5862 174.864 93.4364 174.921 93.2849 174.964C93.2568 175.014 93.2321 175.061 93.2116 175.107C92.4306 176.867 90.3117 177.686 88.4782 176.936C86.6447 176.187 85.7919 174.153 86.573 172.393C87.4635 170.388 89.0078 168.986 90.6491 167.921C90.6529 167.918 90.6571 167.915 90.6609 167.913C90.8602 167.443 91.0644 167.015 91.1941 166.723C91.4479 166.149 91.5926 165.727 91.6404 165.302C91.9457 162.582 92.9416 161.96 92.3161 158.116C91.9863 156.089 91.507 154.489 90.906 152.928C90.5681 152.05 90.1601 151.243 89.5935 149.882C89.1105 148.721 88.5782 147.287 88.4284 145.93C88.2687 144.482 88.0959 143.002 87.5612 141.701C87.2924 141.047 86.9438 140.424 86.4353 139.516C85.9389 138.631 85.3403 137.557 84.6921 136.146C84.1885 135.05 83.9081 133.668 83.7419 133.078C83.5427 132.371 83.4034 132.216 83.3835 132.197C81.9483 131.19 80.4005 129.99 79.1501 129.005C78.5561 128.537 77.6919 127.743 77.3259 127.435C76.803 126.996 76.4276 126.751 76.0925 126.619C74.9357 126.163 72.7246 125.326 71.5515 123.111C71.3228 122.679 71.0787 122.241 70.823 121.783C70.5722 121.334 70.3089 120.863 70.0661 120.402C69.6067 119.531 69.0957 118.475 68.8913 117.455C68.7808 116.903 68.7698 116.343 68.7673 115.931C68.7644 115.454 68.773 115.106 68.7536 114.691C68.7181 113.933 68.5928 113.254 68.2136 112.579C67.4371 111.197 66.9223 110.242 66.3884 109.469C65.8877 108.744 65.4787 108.348 65.0339 108.082C63.2306 107.005 61.7239 105.602 60.9538 103.671C60.4395 102.381 59.7225 100.735 59.448 99.0067C59.3579 98.4396 58.258 96.1651 58.778 92.0917C59.0482 89.976 59.7588 86.9199 60.1882 84.9735C60.3928 84.046 60.5782 81.7018 61.6823 79.662C62.1238 78.8465 62.5067 78.1774 62.8845 76.996C63.2718 75.7848 63.6674 73.9744 63.9685 70.9921C64.1151 69.5397 64.4831 68.2344 64.7234 67.244C64.9765 66.2006 65.1272 65.382 65.0818 64.5067C64.9632 62.2249 64.589 60.8601 64.2439 59.7811C63.9157 58.755 63.3929 57.4533 63.3952 55.8632C63.3962 55.2337 63.4466 54.6015 63.4987 54.0321C63.5536 53.4326 63.6083 52.9183 63.6413 52.3866C63.7072 51.3243 63.6562 50.5444 63.4294 49.9257C63.006 48.7711 62.3035 47.5967 61.2204 46.8388C60.5474 46.3678 59.8889 45.8432 59.3318 45.413C58.7454 44.9602 58.2193 44.5692 57.6745 44.2352C56.6151 43.5859 55.6669 43.1664 54.6267 42.9227C52.6166 42.4519 50.8833 41.6983 49.5769 41.2372C48.9943 41.0316 47.8919 40.6978 46.9821 40.2724C45.9949 39.8106 44.8572 39.0904 44.071 37.8475C43.5252 36.9846 42.906 35.8169 42.5769 35.2626C42.1583 34.5577 41.8121 34.0958 41.4109 33.7489C40.745 33.1735 40.2335 33.1352 38.1804 32.5253C37.296 32.2625 36.2683 31.8691 35.5495 31.62C34.724 31.3339 34.1125 31.1623 33.6325 31.1112C32.4493 30.9853 31.4545 30.5519 30.8279 30.288C30.1051 29.9836 29.7694 29.8589 29.4402 29.8222C27.0302 29.5541 24.6454 29.1347 22.9685 27.9169C21.8812 27.1274 20.6968 26.6051 19.2732 25.9677C17.6829 25.2556 16.0495 24.4009 14.7654 23.7343C14.1079 23.393 13.5556 23.1087 13.115 22.8964C12.7271 22.7095 12.5556 22.6438 12.528 22.6307L12.5466 22.6327L12.4675 22.6112C11.4663 23.5541 10.6224 24.343 10.155 24.7899C8.74332 26.1394 6.45911 26.1354 5.05246 24.7811C3.64583 23.4265 3.64961 21.2335 5.06125 19.8837C6.68096 18.3351 10.6801 14.694 12.7097 12.4091C14.2757 10.6461 16.7778 8.68066 19.2605 7.86415C20.3882 7.49326 20.9968 7.31347 22.0642 6.59657C23.2619 5.79211 25.0574 4.27827 28.1042 1.11317ZM33.406 5.81239C30.2463 9.09471 28.0368 11.0386 26.2029 12.2704C24.2388 13.5895 22.788 14.0253 21.6003 14.4159C20.7363 14.7001 19.2489 15.7247 18.2029 16.9022C17.6025 17.5781 16.8522 18.3541 16.0505 19.1561C16.37 19.3186 16.7084 19.4941 17.0544 19.6737C18.3739 20.3587 19.8735 21.1416 21.3083 21.7841C22.627 22.3745 24.3036 23.0957 25.8728 24.2352C26.3814 24.6046 27.5092 24.9589 29.9939 25.2352C31.159 25.3649 32.1493 25.8031 32.7605 26.0604C33.4683 26.3585 33.8176 26.4856 34.1628 26.5224C35.2472 26.6378 36.3136 26.9764 37.1843 27.2782C38.1621 27.6171 38.8505 27.8915 39.6032 28.1151C40.925 28.5078 42.9487 28.8647 44.6306 30.3182C45.5967 31.1532 46.2445 32.1133 46.7575 32.9774C47.3602 33.9925 47.6107 34.5426 48.1853 35.4511C48.3105 35.649 48.5486 35.8695 49.0905 36.1229C49.71 36.4126 50.2921 36.5694 51.238 36.9032C52.9924 37.5224 54.1057 38.0492 55.7673 38.4384C57.4399 38.8302 58.8752 39.4931 60.2644 40.3446C61.0417 40.8211 61.7373 41.3435 62.3484 41.8153C62.9888 42.3098 63.504 42.7225 64.0554 43.1083C66.2176 44.6214 67.3678 46.7545 67.9685 48.3925C68.5201 49.8967 68.5208 51.4242 68.4441 52.661C68.4057 53.2791 68.3405 53.9138 68.2927 54.4364C68.2421 54.9889 68.2074 55.453 68.2068 55.87C68.2057 56.5783 68.3937 57.0234 68.8425 58.4266C69.2744 59.777 69.7436 61.5264 69.8864 64.2772C69.9666 65.8218 69.6839 67.1571 69.4089 68.2909C69.1209 69.478 68.8657 70.3748 68.7585 71.4364C68.4381 74.6108 67.9972 76.7489 67.4851 78.3505C66.9636 79.9813 66.3847 80.9903 65.9519 81.7899C65.249 83.0886 65.3081 84.0581 64.8952 85.9296C64.4355 88.0132 63.7908 90.7941 63.5534 92.6532C63.1345 95.9351 63.8852 96.2977 64.2048 98.3104C64.382 99.4263 64.8454 100.512 65.447 102.021C65.703 102.663 66.2491 103.324 67.3493 104.021L67.8034 104.303C68.9173 105.02 69.7215 105.935 70.4001 106.918C71.0905 107.918 71.75 109.142 72.4499 110.388C73.3 111.901 73.5069 113.345 73.5603 114.484C73.5853 115.019 73.5768 115.564 73.5788 115.904C73.5813 116.308 73.5973 116.49 73.6159 116.583C73.6814 116.91 73.9073 117.461 74.3591 118.317C74.5718 118.721 74.8082 119.143 75.0642 119.601C75.3153 120.051 75.5849 120.535 75.8415 121.019C76.1109 121.528 76.631 121.84 77.9226 122.35C78.9911 122.771 79.8388 123.412 80.4929 123.961C81.3043 124.642 81.5728 124.94 82.2029 125.436C83.4441 126.414 84.9052 127.544 86.2243 128.47C87.6371 129.461 88.1245 130.943 88.3864 131.873C88.7149 133.038 88.7849 133.61 89.0945 134.284C89.6622 135.52 90.1856 136.46 90.6726 137.329C91.1474 138.176 91.6448 139.051 92.0378 140.007C92.8509 141.985 93.0646 144.093 93.2136 145.444C93.2885 146.122 93.5961 147.049 94.0622 148.169C94.4449 149.088 95.0956 150.486 95.4196 151.328C96.1158 153.137 96.6845 155.035 97.07 157.404C97.656 161.006 96.9671 163.599 96.6081 164.977C98.1742 164.292 99.9836 163.422 101.676 162.839C103.55 162.193 106.27 161.812 108.709 161.665C110.78 161.54 113.193 161.55 115.104 161.923C115.925 159.746 117.04 157.179 117.882 155.723C118.73 154.256 119.878 153.359 120.937 152.716C121.445 152.408 121.964 152.14 122.382 151.921C122.826 151.688 123.177 151.5 123.493 151.299C124.629 150.575 125.882 149.915 126.607 149.489C127.44 149 127.939 148.629 128.295 148.212C128.577 147.881 128.846 147.54 129.135 147.171C129.416 146.813 129.725 146.418 130.044 146.039C130.681 145.281 131.471 144.445 132.52 143.79C133.782 143.002 135.112 142.705 136.064 142.541C136.306 142.499 136.536 142.464 136.735 142.434C136.943 142.403 137.105 142.38 137.256 142.355C137.354 142.339 137.427 142.322 137.48 142.311C137.506 142.271 137.54 142.214 137.58 142.134C137.782 141.728 137.97 141.147 138.259 140.196C138.803 138.403 139.561 135.827 141.354 133.123C142.216 131.824 142.814 130.682 143.38 129.558C143.934 128.456 144.504 127.266 145.241 126.071C145.585 125.513 145.96 125.008 146.305 124.555C146.666 124.08 146.985 123.675 147.318 123.206C147.95 122.317 148.586 121.263 149.146 119.721C150.198 116.821 152.135 115.002 155.049 113.153C157.087 111.86 159.64 111.549 161.609 111.448C161.977 111.429 162.342 111.419 162.695 111.411C162.523 110.952 162.398 110.483 162.31 110.168C162.153 109.604 161.993 109.051 161.775 108.494C161.455 107.976 160.78 106.96 160.369 105.748C159.879 104.301 159.712 102.559 160.131 100.305C160.479 98.4311 160.783 96.5994 161.437 94.2294C161.939 92.4116 162.419 90.4878 162.631 88.8095C162.736 87.9726 162.766 87.2651 162.719 86.7059C162.671 86.1243 162.554 85.8651 162.509 85.7938C161.97 84.9444 161.688 84.3374 160.879 83.913C159.899 83.3994 159.189 83.3743 158.244 83.3534C157.234 83.3311 155.807 83.3704 154.82 83.2548C153.792 83.1343 151.951 82.7229 151.213 80.8515C150.929 80.1337 150.657 79.0686 150.515 78.6151C150.314 77.9742 150.147 77.6525 149.993 77.4735C149.817 77.2689 149.637 77.1892 148.782 76.6229C148.064 76.1472 147.041 75.3971 146.389 74.0692C145.872 73.0163 145.667 72.0076 145.517 71.3075C145.354 70.5429 145.254 70.1455 145.064 69.7899C144.447 68.6334 143.326 66.9137 143.142 64.4403C143.074 63.5251 143.041 62.5822 143.013 61.6854C142.985 60.7728 142.962 59.9163 142.917 59.1024C142.821 57.3749 142.634 56.2867 142.357 55.7265C142.073 55.1518 141.914 54.5435 141.809 54.1005C141.678 53.5417 141.638 53.2935 141.537 52.911C141.53 52.8847 141.522 52.8601 141.515 52.8368C141.036 52.7456 140.5 52.6572 139.91 52.5673C137.837 52.2516 135.408 51.5126 133.821 48.8993C133.477 48.3329 133.194 48.0593 132.576 47.2138C132.049 46.4929 131.447 45.5406 131.175 44.2811C130.969 43.3308 130.86 41.9972 130.747 41.0888C130.648 40.2984 130.536 39.6826 130.399 39.2294C128.841 39.0798 126.007 38.8594 121.306 38.4813C118.043 38.2189 115.461 38.0353 111.502 37.8505C110.115 37.7857 108.6 37.7441 107.061 37.7001C105.536 37.6564 103.987 37.6103 102.583 37.536C101.194 37.4626 99.8624 37.3571 98.7907 37.1825C98.2595 37.0959 97.7088 36.9804 97.2136 36.8095C96.8115 36.6706 96.0199 36.3598 95.4675 35.6493C94.6614 34.6123 94.4123 33.5174 94.3054 32.6991C94.2315 32.1332 94.1916 31.4878 94.154 30.9335C94.1139 30.3425 94.0744 29.8055 94.0066 29.3173C93.9514 28.9207 93.8843 28.6297 93.8191 28.4257C93.6809 28.4078 93.5093 28.388 93.2937 28.3671C92.595 28.2992 91.5255 28.2171 90.4001 28.0116C88.0836 27.5885 85.1768 26.5851 82.9958 23.7636C82.3971 22.989 81.857 22.1526 81.4353 21.5468C80.982 20.8956 80.5427 20.3183 79.9695 19.747C79.014 18.7948 78.1673 18.3143 77.4978 18.1864C76.6099 18.0169 75.596 17.8769 74.6374 17.8632C73.6429 17.849 72.9196 17.9761 72.4792 18.1757C71.4343 18.6493 70.7335 19.1695 69.8708 19.7606C69.0727 20.3075 67.9314 21.0717 66.3796 21.2421C65.8334 21.302 65.1944 21.344 64.5554 21.289C63.9236 21.2345 63.1183 21.0714 62.3767 20.5839C61.534 20.0299 60.719 19.2315 60.0622 18.5712C59.3321 17.8372 58.7295 17.2018 58.1208 16.664C56.9117 15.5955 55.1705 14.2857 53.4646 12.9208C52.68 12.2929 51.9787 11.5366 51.4284 10.9589C50.8279 10.3283 50.3495 9.84534 49.8484 9.47255C48.7919 8.68669 47.7901 7.95401 45.3552 7.46571C38.0882 6.00852 35.5451 5.79046 33.4402 5.7743C33.4286 5.7867 33.4178 5.80011 33.406 5.81239Z" fill="black"/>
</g>
<defs>
<filter id="filter0_d_369_353" x="0" y="0" width="172.954" height="185.214" filterUnits="userSpaceOnUse" color-interpolation-filters="sRGB">
<feFlood flood-opacity="0" result="BackgroundImageFix"/>
<feColorMatrix in="SourceAlpha" type="matrix" values="0 0 0 0 0 0 0 0 0 0 0 0 0 0 0 0 0 0 127 0" result="hardAlpha"/>
<feOffset dy="4"/>
<feGaussianBlur stdDeviation="2"/>
<feComposite in2="hardAlpha" operator="out"/>
<feColorMatrix type="matrix" values="0 0 0 0 0 0 0 0 0 0 0 0 0 0 0 0 0 0 0.25 0"/>
<feBlend mode="normal" in2="BackgroundImageFix" result="effect1_dropShadow_369_353"/>
<feBlend mode="normal" in="SourceGraphic" in2="effect1_dropShadow_369_353" result="shape"/>
</filter>
</defs>
</svg>
