<svg width="107" height="110" viewBox="0 0 107 110" fill="none" xmlns="http://www.w3.org/2000/svg">
<g filter="url(#filter0_d_369_112)">
<path fill-rule="evenodd" clip-rule="evenodd" d="M36.6499 1.38558C38.6401 -0.41975 41.4074 -0.0853782 43.1304 0.321122C45.0346 0.770467 46.9263 1.61738 48.0698 2.12483C49.5185 2.76777 50.4668 3.86264 51.0415 4.50862C51.7493 5.30413 51.9897 5.52426 52.2144 5.62288C53.3512 6.12152 54.8317 6.35778 56.8081 6.53304C57.3752 6.58334 57.8386 6.69992 61.1997 6.75765C64.5758 6.81561 71.0553 6.81677 74.8716 6.99202C78.213 7.14547 80.4729 7.43226 82.2027 7.71663C84.0654 8.02288 84.8838 8.23596 85.9361 8.34456C87.7087 8.52761 88.9294 9.58465 89.7144 10.4549C90.4689 11.2914 91.2051 12.4171 91.7036 13.1063C94.2148 16.5777 95.0917 17.9988 96.1831 19.3133C97.1284 20.3381 97.9134 21.2096 98.5112 21.9393C99.013 22.5516 99.5043 23.2043 99.8237 23.8592L99.9497 24.1405L100.013 24.2967L100.053 24.4598C100.194 25.043 100.221 25.6786 100.226 26.1756C100.718 26.4393 101.153 26.8169 101.483 27.3006C102.416 28.6693 102.207 30.436 101.084 31.5741C101.046 31.7328 101.004 31.944 100.956 32.2283C100.849 32.8483 100.748 33.6066 100.595 34.6795C100.447 35.7206 100.262 36.9725 100.001 38.452C99.5292 41.1359 99.7632 43.246 99.5943 47.1483L99.5816 47.4285L99.523 47.702C99.2288 49.0747 98.6737 50.8111 98.2827 51.8709C98.264 51.9217 98.2424 51.9735 98.2222 52.0272C98.2188 52.5418 98.2018 53.1808 98.1148 53.7723L98.0982 53.8846L98.0737 53.9959C97.7547 55.4621 97.625 56.5379 97.4859 57.9764L97.4253 58.6082L97.1353 59.1766C96.7643 59.9049 95.9815 61.4397 94.8667 63.0067C93.7986 64.508 92.1697 66.4124 89.9527 67.5418C89.1796 67.9356 88.1718 68.5073 86.9439 69.2049C85.7497 69.8834 84.3881 70.657 83.0191 71.3846C82.1367 71.8536 81.3903 72.3184 80.0591 72.9539C78.7663 73.5711 77.2235 74.3483 75.8814 74.9364C74.5895 75.5024 72.9563 76.1424 71.3775 76.286C69.468 76.4594 67.1526 76.5567 65.5288 76.6698C64.6495 76.731 63.907 76.7987 63.3091 76.8836C63.0138 76.9256 62.7836 76.9674 62.6109 77.0067C62.4629 77.0403 62.3924 77.0638 62.3794 77.0682C60.19 77.9456 57.6187 78.9065 56.1275 80.0428C52.2489 82.998 48.8181 85.2519 47.2066 86.0858C46.6079 86.3955 45.8481 86.6548 45.3667 86.8231C44.7747 87.0301 44.1844 87.2347 43.5542 87.492C42.2999 88.0042 41.0573 88.6605 40.02 89.6102C39.388 90.189 39.0713 90.4408 38.3989 91.3553C37.7489 92.2395 36.809 93.6986 35.2769 96.3612C35.1054 96.8785 34.8984 97.337 34.6773 97.7449C33.9955 99.1775 32.2746 100.969 29.3648 101.34C28.5361 101.445 27.6764 101.519 26.8941 101.493C26.5012 101.48 26.0239 101.439 25.5278 101.321C25.0628 101.211 24.324 100.974 23.6382 100.405C22.9369 99.8231 22.4946 99.1197 22.2319 98.533C22.2479 98.5686 22.2073 98.4768 22.021 98.203C21.8475 97.948 21.6033 97.6164 21.272 97.1903C20.6049 96.3321 19.7007 95.236 18.5318 93.8201C17.1037 92.0905 16.0924 91.2719 14.9048 90.3983C14.1878 89.8709 13.5362 89.331 13.0454 88.9324C12.7144 88.6637 12.4631 88.4668 12.2622 88.3182C10.8031 88.7212 9.17899 88.2063 8.2798 86.9354C7.78383 86.2343 7.59188 85.4212 7.67531 84.6395C7.55224 84.2506 7.40953 83.8027 7.24757 83.2967C6.82746 81.9841 6.31334 80.3382 5.97902 78.8504C5.67426 77.4941 5.67236 76.1921 5.7339 74.825C5.79924 73.3739 5.92432 71.9876 5.98097 69.9168C6.12608 64.6104 4.77287 63.6634 4.14308 60.6151C3.76815 58.8 4.19255 56.9583 4.69581 55.5408C5.21465 54.0797 5.92093 52.7884 6.39601 51.9754C6.59671 51.6321 6.87889 51.3382 7.22413 51.118C7.55645 50.9061 7.88362 50.8017 8.13624 50.7498C8.19861 50.737 8.26025 50.7267 8.31984 50.7186C8.32641 50.7024 8.33441 50.6857 8.34132 50.6678C8.5202 50.2025 8.6669 49.4761 8.77199 48.4383C8.87486 47.4222 8.9254 46.2638 8.97804 44.9735C9.02965 43.7085 9.08327 42.3287 9.19972 40.9744C9.29217 39.8993 9.72913 38.9715 10.4331 38.241C11.1 37.5493 11.9122 37.1305 12.6343 36.8621C14.0011 36.3543 15.6483 36.1877 16.645 36.0594C17.2648 35.9796 17.7506 35.7442 18.3462 35.3592C18.5023 35.2583 18.6556 35.1551 18.8325 35.035C19.0009 34.9208 19.1965 34.7877 19.397 34.66C19.7924 34.4081 20.3142 34.1046 20.938 33.8944C21.8156 33.5986 22.3514 33.3946 22.7212 33.1258C22.9457 32.9623 23.3748 32.3607 23.7417 31.0389C24.076 29.834 24.2477 28.4488 24.3267 27.2967C24.4219 25.9071 23.9994 24.7475 23.2896 23.6268C23.1365 23.3852 22.6164 22.6295 22.4693 21.7401C22.2841 20.621 22.6883 19.657 23.2505 18.9403L23.4585 18.6903C24.5268 17.4873 25.9753 16.9381 26.9331 16.5819C28.1271 16.1378 28.9102 15.8797 29.6167 15.3807C30.858 14.504 31.6538 13.2819 32.1255 12.0223C32.6063 10.7383 32.6941 9.56093 32.6431 8.97444C32.4616 6.89285 33.4697 5.08112 34.3277 3.90511C35.225 2.67513 36.2525 1.74616 36.6499 1.38558ZM41.981 4.80452C40.4234 4.43707 39.9866 4.71358 39.9556 4.74104C39.5816 5.08034 38.866 5.73659 38.27 6.55354C37.6345 7.42477 37.3974 8.12375 37.438 8.58968C37.5497 9.87196 37.3545 11.7115 36.6538 13.5828C35.9438 15.479 34.6591 17.5522 32.4683 19.0994C31.1186 20.0525 29.5882 20.5459 28.6724 20.8866C28.1026 21.0985 27.7415 21.2605 27.5034 21.3953C28.5191 23.0491 29.2992 25.0929 29.1275 27.5994C29.0385 28.8967 28.8385 30.613 28.3911 32.2254C27.9764 33.7201 27.2124 35.6531 25.6255 36.8065C24.5557 37.5839 23.2861 37.9966 22.5318 38.2508C22.4624 38.2742 22.3274 38.3346 22.0571 38.5067C21.9247 38.591 21.7851 38.6856 21.6099 38.8045C21.4432 38.9176 21.2437 39.0536 21.0337 39.1893C20.1646 39.751 18.9585 40.4201 17.2857 40.6356C16.0132 40.7994 15.0735 40.9074 14.3726 41.1678C14.224 41.223 14.121 41.2729 14.0532 41.3133C14.0267 41.3291 14.0084 41.3442 13.9946 41.3543C13.8884 42.5903 13.8382 43.8653 13.7857 45.1541C13.7341 46.4172 13.6797 47.712 13.561 48.8846C13.4445 50.0356 13.2521 51.235 12.856 52.2655C12.4666 53.2782 11.7288 54.5143 10.2632 55.1112C10.1973 55.138 10.1317 55.1607 10.0679 55.1815C9.77845 55.7382 9.48403 56.3724 9.2505 57.0301C8.85412 58.1465 8.72949 59.0721 8.86281 59.7176C9.12757 60.9983 10.9498 64.2136 10.7905 70.0379C10.7341 72.0995 10.5936 73.846 10.5405 75.0242C10.4837 76.286 10.5102 77.1114 10.6821 77.8768C10.9175 78.9239 11.2691 80.1082 11.6216 81.2303C12.0709 81.1702 12.5338 81.1633 13.0054 81.2176C14.2328 81.3591 15.2166 81.8737 15.8823 82.2918C16.5545 82.7139 17.1971 83.2317 17.7066 83.6453C18.2673 84.1007 18.7525 84.5028 19.2954 84.9022C20.8229 86.0258 22.3012 87.2329 24.189 89.5194C25.3317 90.9034 26.3126 92.0919 27.0571 93.0496C27.4148 93.5097 27.785 94.0014 28.1148 94.494C28.2281 94.2931 28.3408 94.0978 28.4497 93.9061C28.4541 93.7382 28.4575 93.5204 28.4575 93.2254C28.4576 91.7598 29.407 90.5072 30.7476 90.0018C31.4376 88.8869 32.0054 88.0378 32.5015 87.3631C33.6106 85.8545 34.3737 85.2065 35.0366 84.5994C36.9414 82.8553 39.0508 81.8038 40.728 81.119C41.5637 80.7778 42.3352 80.511 42.895 80.3153C43.189 80.2125 43.4039 80.1373 43.5776 80.0711C43.7007 80.0242 43.7619 79.9976 43.7808 79.9891C44.8183 79.4522 47.8494 77.5075 51.6392 74.6199C54.1249 72.7259 57.941 71.3426 59.5982 70.6785C60.466 70.3308 61.4387 70.1487 62.2534 70.033C63.117 69.9104 64.0678 69.8278 65.0054 69.7625C67.0163 69.6225 68.8336 69.5597 70.6968 69.3905C70.9629 69.3662 71.6323 69.1847 72.8833 68.6366C74.085 68.11 75.3275 67.4778 76.8443 66.7537C78.041 66.1825 78.1159 66.0739 79.523 65.326C80.7855 64.655 82.0557 63.9327 83.2661 63.2449C84.4427 62.5765 85.6144 61.9118 86.5689 61.4256C87.2362 61.0857 88.0606 60.2893 88.9058 59.1014C89.5201 58.2378 90.0118 57.3607 90.3677 56.6844C90.4566 55.8302 90.5584 55.0066 90.7144 54.0965C89.8226 52.6629 90.134 50.8347 91.4097 49.743C91.4297 49.6914 91.4528 49.6304 91.479 49.5594C91.7749 48.7574 92.1709 47.5079 92.3941 46.5662C92.4954 43.7424 92.3371 40.4119 92.8853 37.2977C93.1276 35.9208 93.3016 34.7504 93.4448 33.743C93.5836 32.7672 93.706 31.8484 93.8335 31.1043C93.9572 30.3823 94.1283 29.5493 94.4429 28.785C94.6616 28.2536 94.9844 27.6685 95.478 27.1346C95.4391 26.9697 95.4165 26.7981 95.4165 26.6219C95.4165 26.1514 95.4085 25.8708 95.3921 25.6912C95.3662 25.6487 95.3369 25.5958 95.2964 25.536C95.1684 25.3469 94.9848 25.1038 94.73 24.7928C94.2164 24.166 93.4953 23.3644 92.5259 22.3143L92.4859 22.2703L92.4478 22.2254C91.2193 20.7516 90.0526 18.9215 87.7505 15.7391C87.029 14.7417 86.6075 14.0649 86.0767 13.4764C85.8416 13.2158 85.6661 13.0727 85.5464 12.9969C85.491 12.9618 85.4559 12.9461 85.44 12.9403C85.4328 12.9376 85.4285 12.9359 85.4263 12.9354C85.4249 12.9351 85.4233 12.9355 85.4224 12.9354C84.2024 12.8095 82.7993 12.4991 81.3902 12.2674C79.8478 12.0138 77.7819 11.7476 74.6411 11.6033C70.9136 11.4322 64.6664 11.4349 61.1138 11.3739C57.5482 11.3126 56.9137 11.1793 56.3657 11.1307C54.3562 10.9525 52.156 10.6737 50.2144 9.8221C48.8319 9.21569 47.8983 8.08653 47.3833 7.50765C46.7353 6.77931 46.4102 6.47505 46.0503 6.31526C44.84 5.77818 43.362 5.13036 41.981 4.80452Z" fill="#151515"/>
</g>
<defs>
<filter id="filter0_d_369_112" x="0" y="0" width="106.071" height="109.498" filterUnits="userSpaceOnUse" color-interpolation-filters="sRGB">
<feFlood flood-opacity="0" result="BackgroundImageFix"/>
<feColorMatrix in="SourceAlpha" type="matrix" values="0 0 0 0 0 0 0 0 0 0 0 0 0 0 0 0 0 0 127 0" result="hardAlpha"/>
<feOffset dy="4"/>
<feGaussianBlur stdDeviation="2"/>
<feComposite in2="hardAlpha" operator="out"/>
<feColorMatrix type="matrix" values="0 0 0 0 0 0 0 0 0 0 0 0 0 0 0 0 0 0 0.25 0"/>
<feBlend mode="normal" in2="BackgroundImageFix" result="effect1_dropShadow_369_112"/>
<feBlend mode="normal" in="SourceGraphic" in2="effect1_dropShadow_369_112" result="shape"/>
</filter>
</defs>
</svg>
