<svg width="195" height="108" viewBox="0 0 195 108" fill="none" xmlns="http://www.w3.org/2000/svg">
<g filter="url(#filter0_d_369_100)">
<path fill-rule="evenodd" clip-rule="evenodd" d="M61.3582 0.0975279C64.2964 -0.043544 66.8256 -0.0173548 68.701 0.0858092C69.635 0.137192 70.4336 0.208762 71.0535 0.293817C71.3599 0.335852 71.6588 0.385557 71.9246 0.447137C72.0694 0.480677 72.595 0.596843 73.0633 0.909051C73.8783 1.45261 74.448 2.14571 74.8758 2.77624C75.2888 3.38505 75.6657 4.0865 75.9842 4.65807C76.2541 5.14253 76.4652 5.63523 76.5897 5.90807C76.6606 6.0636 76.7098 6.16713 76.7527 6.24597C76.7936 6.32095 76.8143 6.34753 76.8143 6.34753C77.0989 6.70996 77.6624 7.05441 78.6141 7.31628C79.5535 7.57472 80.5255 7.66649 81.4188 7.7655C85.3231 8.19822 86.6122 7.52882 89.8924 6.78503C91.7493 6.36399 93.5661 6.17671 95.076 6.04479C96.695 5.90334 97.7598 5.83269 98.4979 5.6737C99.8959 5.37243 101.853 4.87684 103.712 5.07604C105.246 5.24059 105.954 6.42469 106.179 6.84948C106.47 7.40048 106.654 8.02805 106.78 8.5155C106.91 9.0193 107.032 9.59508 107.133 10.0389C107.224 10.446 107.304 10.7716 107.383 11.0272C107.42 11.0852 107.477 11.1596 107.575 11.2733C107.619 11.3241 107.785 11.5131 107.884 11.6327C107.941 11.7023 108.013 11.7905 108.089 11.8954C108.093 11.8981 108.097 11.9013 108.101 11.9042C108.124 11.9195 108.148 11.9358 108.177 11.9549C109.109 12.5769 109.438 13.7171 109.042 14.6893C112.664 16.5538 114.358 17.5455 115.139 17.9569C115.704 18.254 116.913 18.5101 118.592 18.6805C119.369 18.7595 120.157 18.8132 120.899 18.8592C121.614 18.9036 122.342 18.944 122.9 18.995C124.871 19.1749 126.379 19.4559 128.414 20.1161C130.772 20.8813 132.597 22.3193 133.23 22.6844C134.349 23.329 135.882 24.6202 137.382 26.0702C137.63 26.3105 137.866 26.4579 138.547 26.9501C139.172 27.4022 139.934 27.9911 140.844 28.9139C144.167 32.2856 145.348 33.7562 147.866 35.0702C150.662 36.5291 152.677 37.6269 154.306 38.3339C155.382 38.8006 157.812 39.8405 159.4 40.2811C160.413 40.562 161.766 40.9492 162.991 41.3007C164.228 41.6553 165.323 41.9708 165.846 42.1161C167.113 42.4684 168.177 43.1851 168.971 43.7645C169.894 44.4371 170.447 44.9091 171.165 45.3583C171.954 45.8519 174.089 46.9865 175.519 48.5292C176.028 49.0779 176.459 49.7228 176.716 50.077C176.995 50.4635 177.211 50.7217 177.455 50.9344C177.475 50.9433 177.508 50.9576 177.554 50.9735C177.72 51.0312 177.957 51.0924 178.303 51.1639C178.857 51.2788 179.97 51.4583 180.83 51.7391L180.924 51.7694L181.014 51.8075C182.565 52.4547 183.74 53.263 184.602 53.8456C184.666 53.8556 184.755 53.8689 184.875 53.8827C185.015 53.8987 185.15 53.9283 185.28 53.9657C186.541 53.2253 188.203 53.2806 189.423 54.2196C190.977 55.4164 191.226 57.5963 189.979 59.0878C189.524 59.6323 189.247 60.0236 189.005 60.5546C188.755 61.1016 188.481 61.9321 188.229 63.3553C188.214 63.5865 188.204 63.8238 188.2 64.0692C189.166 64.6906 189.802 65.7475 189.802 66.9471C189.802 67.1276 189.785 67.3585 189.781 67.4208C189.772 67.559 189.759 67.7618 189.743 68.0692C189.71 68.6877 189.661 69.7461 189.601 71.5536C189.502 74.5986 189.565 79.8635 189.523 83.0087C189.467 87.2273 188.818 89.1787 188.686 90.0262C188.455 91.5123 187.778 92.6105 187.184 93.3983C186.905 93.7689 186.605 94.121 186.391 94.3729C186.155 94.6519 185.982 94.8601 185.827 95.0692C185.204 95.9101 184.2 96.9216 182.957 97.909C181.092 99.3896 178.699 99.6145 177.332 99.6737C176.558 99.7071 175.818 99.6914 175.281 99.6805C174.995 99.6747 174.782 99.6706 174.599 99.6708C174.422 99.6709 174.352 99.6765 174.348 99.6766C172.366 99.8653 170.599 98.4756 170.402 96.5731C170.391 96.4664 170.385 96.3599 170.385 96.2548C169.332 96.12 167.777 95.9662 165.444 95.8016C154.462 95.7482 146.848 95.8983 145.502 96.0145C142.35 96.2866 128.973 97.4163 120.815 96.3856C118.729 96.122 117.144 95.5119 115.814 94.8954C114.424 94.2508 113.676 93.806 112.662 93.4471C112.622 93.4412 112.551 93.4308 112.441 93.4188C112.184 93.3907 111.826 93.3619 111.376 93.3348C110.479 93.281 109.307 93.2378 108.013 93.204C105.432 93.1365 102.447 93.1092 100.388 93.1092C100.205 93.1092 100.027 93.087 99.8553 93.0497C99.6896 93.5311 99.3593 93.9642 98.8816 94.2616C97.7671 94.9552 96.2776 94.6503 95.5545 93.5809C94.1212 91.4612 93.1991 90.165 92.4754 89.3632C92.1265 88.9766 91.8957 88.7869 91.7547 88.6952C91.6901 88.6532 91.6513 88.6359 91.6356 88.6298C91.622 88.6245 91.6135 88.6233 91.6043 88.6219C89.1638 88.2609 87.2671 87.2244 86.0574 86.6727C85.091 86.232 83.9115 85.5595 82.8045 84.912C81.6466 84.2346 80.5386 83.5685 79.5633 83.0311C78.3327 82.3531 76.8814 81.3897 75.7879 80.7196C74.5183 79.9416 73.6923 79.5325 73.2303 79.4305C70.9302 78.923 68.3713 78.019 66.5984 77.121C65.8213 76.7273 65.2229 76.4825 64.3748 76.0839C63.6074 75.7231 62.7541 75.2849 61.9451 74.663C60.4292 73.4976 58.7288 72.6233 56.5233 71.326C52.4792 68.9474 50.3006 66.6906 48.9998 65.4637C48.7089 65.1894 48.3323 64.9051 47.8367 64.5497C47.385 64.2257 46.785 63.8094 46.2576 63.3817C45.2582 62.5712 43.757 61.1339 43.8465 58.9393L43.866 58.6034C43.9248 57.8052 44.0716 56.9019 44.201 56.0936C44.3593 55.1046 44.5106 54.157 44.576 53.2743C44.6431 52.369 44.6026 51.7259 44.4891 51.3173C44.4494 51.1746 44.4116 51.1012 44.3904 51.0673C43.8217 50.8023 43.2809 50.4671 43.0076 50.3085C42.6391 50.0945 42.5602 50.0792 42.5848 50.0848C41.0504 49.7361 38.8703 49.589 34.3826 49.327C31.9358 49.1842 29.1576 49.1306 26.5135 49.0419C23.9674 48.9564 21.4361 48.837 19.7645 48.5311C18.1764 48.2405 16.4277 47.9165 14.9344 47.621C13.5028 47.3376 12.1386 47.0486 11.4305 46.826C10.5591 46.5521 9.96118 45.8463 9.81036 45.037C9.5021 45.3232 9.25905 45.5458 9.09844 45.703C7.91443 46.8618 6.0152 46.841 4.85626 45.6571C3.69738 44.4731 3.71726 42.5739 4.90118 41.4149C5.74654 40.5875 6.33927 40.1518 7.41387 38.9237C7.32432 38.4933 7.36098 38.0339 7.54766 37.5975C8.15545 36.1778 9.11354 33.9976 10.0174 32.0389C10.4687 31.0611 10.9132 30.1235 11.2977 29.3583C11.6464 28.6642 12.0384 27.9199 12.3709 27.4745C13.1754 26.3971 14.6221 25.2297 15.8484 24.2811C17.2253 23.2161 18.4764 22.3156 19.4305 21.5214C20.838 20.3497 22.5781 19.6355 24.2274 19.0243C25.9739 18.3771 27.7138 17.8128 29.701 16.9257C33.3266 15.307 33.9664 13.1398 36.4139 9.90612C37.8639 7.99028 38.7853 7.04286 40.0379 5.98327C40.7665 5.367 41.6792 4.90282 42.1629 4.63854C42.3649 4.52818 42.5186 4.43789 42.6434 4.3612C42.6423 4.34352 42.6427 4.32451 42.6414 4.30554C42.6309 4.15347 42.6127 3.97931 42.5877 3.78112C42.4713 2.85758 42.941 1.99704 43.7156 1.53893C44.1135 0.790796 44.9229 0.278265 45.8582 0.278192C46.7017 0.278192 47.8658 0.358854 48.9715 0.439325C50.1282 0.52351 51.2794 0.611739 52.242 0.648309C53.4611 0.694564 55.085 0.597347 56.7859 0.459833C58.4014 0.329221 60.1556 0.15528 61.3582 0.0975279ZM68.4256 4.69518C66.7346 4.60217 64.3778 4.57443 61.5984 4.70788C60.5014 4.76056 58.9732 4.91626 57.1902 5.06042C55.493 5.19764 53.6007 5.32039 52.0516 5.26159C50.9795 5.22086 49.7189 5.12472 48.6072 5.04382C48.1939 5.01373 47.8056 4.98766 47.449 4.96472C47.4177 5.45619 47.3004 6.27271 46.7381 6.98425C46.0668 7.83339 45.0605 8.36886 44.5438 8.65124C43.8416 9.03493 43.4818 9.2244 43.2195 9.44616C42.2693 10.25 41.5802 10.9362 40.3065 12.619C38.5663 14.9181 36.8477 18.8269 31.7313 21.1112C29.5493 22.0853 27.4956 22.7622 25.9608 23.3309C24.3289 23.9356 23.2988 24.4135 22.5838 25.0087C21.5546 25.8654 20.045 26.9654 18.868 27.8758C17.5407 28.9026 16.6383 29.6868 16.282 30.1639C16.2775 30.1709 16.2145 30.2637 16.0848 30.4969C15.9603 30.7207 15.808 31.0122 15.6316 31.3632C15.2794 32.0641 14.8586 32.9506 14.4168 33.9081C13.6115 35.6531 12.7582 37.5881 12.1629 38.9696C12.9028 39.942 12.9773 41.2802 12.3416 42.3319C12.5366 42.3447 12.7333 42.3783 12.9275 42.4393C13.3216 42.5632 14.3892 42.7993 15.9061 43.0995C17.3613 43.3875 19.0795 43.7057 20.6658 43.996C21.9038 44.2225 24.0416 44.3381 26.6805 44.4266C29.2215 44.5119 32.1456 44.571 34.6746 44.7186C38.9662 44.9692 41.6559 45.1294 43.6941 45.5926C44.4702 45.7692 45.1134 46.1345 45.4988 46.3583C45.9741 46.6342 46.2041 46.7825 46.5057 46.9208C48.0512 47.6294 48.8041 48.9282 49.1375 50.1268C49.4567 51.2748 49.4548 52.5224 49.3748 53.6024C49.2931 54.7052 49.1094 55.8405 48.9568 56.7938C48.7947 57.8072 48.6775 58.5594 48.6541 59.1122C48.6575 59.1213 48.6691 59.1506 48.702 59.2001C48.7949 59.34 48.9872 59.5505 49.3631 59.8553C49.7465 60.1663 50.1673 60.4574 50.7166 60.8514C51.2221 61.214 51.8289 61.6587 52.3719 62.1708C53.7211 63.4432 55.5312 65.327 59.0379 67.3895C60.939 68.5077 63.1237 69.6534 64.9539 71.0604C65.3485 71.3637 65.8271 71.6258 66.492 71.9383C67.0763 72.213 68.0122 72.6153 68.8445 73.037C70.213 73.7302 72.3737 74.5036 74.3084 74.9305C75.7037 75.2385 77.2021 76.1075 78.3777 76.828C79.7298 77.6566 80.8464 78.4137 81.9598 79.0272C83.008 79.6048 84.2278 80.3369 85.3094 80.9696C86.442 81.6322 87.4153 82.1815 88.1219 82.5038C89.6948 83.2211 90.7789 83.828 92.3367 84.0585C93.9452 84.2964 95.1139 85.2328 96.1131 86.3397C96.8145 87.1168 97.5764 88.1458 98.4627 89.4208C98.9014 88.8581 99.5999 88.4931 100.388 88.493C102.479 88.493 105.509 88.5198 108.144 88.5887C109.459 88.6231 110.696 88.6686 111.676 88.7274C112.163 88.7567 112.611 88.7912 112.984 88.8319C113.235 88.8592 113.645 88.9069 114.024 89.0145L114.184 89.0633L114.7 89.2528C115.901 89.7198 117.067 90.3483 117.908 90.7382C118.973 91.2318 120.045 91.6318 121.443 91.8085C128.965 92.7588 141.764 91.7013 145.071 91.4159C146.7 91.2753 154.615 91.1312 165.556 91.1854L165.638 91.1864L165.719 91.1913C170.799 91.5478 172.819 91.8685 174.094 92.2997L174.34 92.3866L174.564 92.4715L174.767 92.5975C174.846 92.6462 174.92 92.6979 174.991 92.7499C175.155 92.7523 175.306 92.7541 175.434 92.7567C175.997 92.7681 176.507 92.7774 177.008 92.7557C177.51 92.734 177.889 92.6847 178.159 92.618C178.29 92.5858 178.362 92.5567 178.391 92.5438C179.277 91.8365 179.786 91.2697 179.945 91.0555C180.249 90.6449 180.557 90.2817 180.79 90.0067C181.045 89.7048 181.202 89.519 181.337 89.3397C181.461 89.1751 181.512 89.0854 181.533 89.0419C181.548 89.0106 181.548 89.0039 181.549 89.0018C181.816 87.2845 182.258 86.5229 182.306 82.9198C182.343 80.1424 182.288 74.4 182.388 71.3358C182.411 70.6513 182.432 70.0681 182.452 69.5712C181.82 69.05 181.371 68.3182 181.236 67.4657C180.941 65.6006 180.941 64.0535 181.041 62.7079L181.053 62.5497L181.079 62.3934C181.386 60.5933 181.784 59.1638 182.325 57.9344L182.225 57.8846L182.109 57.8065C181.097 57.1324 180.307 56.5613 179.185 56.0809C178.704 55.9352 178.183 55.8619 177.288 55.6766C176.605 55.5351 175.308 55.2621 174.355 54.4696C173.628 53.8647 173.13 53.2155 172.765 52.7118C172.357 52.1482 172.18 51.8745 171.924 51.5975C171.055 50.661 169.806 50.0193 168.537 49.2255C167.636 48.6621 166.664 47.8806 166.06 47.4403C165.329 46.907 164.864 46.6499 164.508 46.5507C163.959 46.3981 162.831 46.0736 161.614 45.7245C160.385 45.3721 159.052 44.9909 158.063 44.7167C156.078 44.166 153.316 42.9703 152.324 42.5399C150.482 41.7407 148.213 40.5065 145.567 39.1258C142.192 37.3647 140.348 35.1295 137.348 32.0868C136.679 31.4073 136.137 30.9882 135.651 30.6366C135.22 30.3251 134.535 29.8718 133.967 29.3221C132.512 27.9153 131.33 26.9738 130.755 26.6425C129.168 25.7284 128.603 25.0508 126.873 24.4891C125.222 23.9535 124.082 23.7411 122.445 23.5917C121.982 23.5494 121.371 23.5152 120.59 23.4667C119.835 23.4199 118.966 23.3617 118.086 23.2723C116.45 23.1063 114.335 22.7995 112.824 22.0038C111.692 21.4075 110.108 20.4528 105.679 18.201C104.526 17.6154 104.075 16.2595 104.646 15.1444C104.527 15.0313 104.407 14.9045 104.297 14.7655L104.174 14.6092L104.114 14.5008C104.045 14.4177 104.021 14.393 103.867 14.2147C103.622 13.9303 103.251 13.4778 102.954 12.8495L102.9 12.7372L102.859 12.619C102.678 12.0921 102.541 11.5094 102.429 11.0165C102.314 10.5032 102.225 10.0833 102.124 9.68639C101.464 9.76341 100.657 9.94053 99.5525 10.1786C98.4148 10.4237 96.8724 10.5246 95.5125 10.6434C94.0432 10.7718 92.508 10.935 90.9988 11.2772C88.123 11.9293 85.8201 12.9004 80.867 12.3514C80.1063 12.2671 78.6913 12.1396 77.2889 11.7538C75.8994 11.3715 74.1648 10.6466 72.9705 9.12487C72.5835 8.63169 72.3371 8.10094 72.1814 7.75964C71.9977 7.35683 71.8942 7.11155 71.74 6.83483C71.3609 6.15435 71.112 5.69052 70.8436 5.29479C70.7187 5.11071 70.614 4.98057 70.5281 4.88757C70.482 4.88041 70.4296 4.87303 70.3719 4.86511C69.9291 4.80437 69.2744 4.74188 68.4256 4.69518Z" fill="black"/>
</g>
<defs>
<filter id="filter0_d_369_100" x="0" y="0" width="194.773" height="107.694" filterUnits="userSpaceOnUse" color-interpolation-filters="sRGB">
<feFlood flood-opacity="0" result="BackgroundImageFix"/>
<feColorMatrix in="SourceAlpha" type="matrix" values="0 0 0 0 0 0 0 0 0 0 0 0 0 0 0 0 0 0 127 0" result="hardAlpha"/>
<feOffset dy="4"/>
<feGaussianBlur stdDeviation="2"/>
<feComposite in2="hardAlpha" operator="out"/>
<feColorMatrix type="matrix" values="0 0 0 0 0 0 0 0 0 0 0 0 0 0 0 0 0 0 0.25 0"/>
<feBlend mode="normal" in2="BackgroundImageFix" result="effect1_dropShadow_369_100"/>
<feBlend mode="normal" in="SourceGraphic" in2="effect1_dropShadow_369_100" result="shape"/>
</filter>
</defs>
</svg>
