<svg width="94" height="214" viewBox="0 0 94 214" fill="none" xmlns="http://www.w3.org/2000/svg">
<path d="M32.0156 0.791016C33.9589 -0.353691 36.0517 0.0133261 37.0596 0.248047C37.6726 0.390849 38.2469 0.577443 38.6758 0.720703C39.1724 0.886615 39.4227 0.975349 39.6533 1.04004C41.3792 1.52407 42.3173 2.7357 42.7842 3.65137C43.2205 4.50737 43.4097 5.40684 43.5146 5.97559C43.5714 6.28314 43.6193 6.59476 43.6572 6.83301C43.6985 7.09274 43.7295 7.28139 43.7617 7.44141C43.7654 7.4594 43.77 7.4764 43.7734 7.49219C44.3043 8.17139 45.1844 9.26842 45.8096 10.4365C45.9175 10.4801 46.0399 10.5285 46.1982 10.5879C46.3595 10.6484 46.5773 10.729 46.7891 10.8125C47.0639 10.9209 47.4261 11.071 47.8135 11.2725C47.8356 10.7175 47.8699 10.102 47.9375 9.49316L47.9619 9.30078C48.5319 5.31114 52.6744 4.40084 52.584 4.43359C54.1226 3.90219 55.5475 4.26448 56.542 4.8623C57.3874 5.37058 57.9521 6.05379 58.2666 6.46973C58.6069 6.9198 58.9047 7.40472 59.0996 7.71973C59.3374 8.10402 59.4505 8.28108 59.5361 8.39453C60.646 9.86555 60.6602 11.6556 60.6924 12.1729C60.8112 14.0821 60.3015 15.5528 59.8125 16.6426C59.2266 17.9482 59.1 18.0234 58.9795 18.4912C58.7812 19.2616 58.4712 19.8696 58.2441 20.2783C57.9363 20.8322 57.9411 20.7857 57.8457 20.9824C56.8664 23.0021 54.9733 23.75 53.9795 24.0762C53.4806 24.2399 52.9058 24.3869 52.6074 24.4688C52.2277 24.5729 52.0358 24.6373 51.917 24.6885C51.5444 24.8489 50.1847 25.4913 48.3096 26.5469C48.3288 26.6867 48.3487 26.8251 48.3662 26.959C48.4701 27.7523 48.5884 28.7707 48.71 29.7422C48.9157 31.3864 49.1492 33.044 49.4297 34.3916C49.7051 34.6493 49.9957 34.9839 50.2402 35.4102L50.3623 35.6406L50.5059 35.9404C51.1887 37.4293 51.3823 38.7142 51.4932 39.6504C51.5577 40.1959 51.5758 40.4219 51.6221 40.6914C51.6582 40.9017 51.6844 40.9515 51.6787 40.9395C52.1519 41.9495 52.8574 43.0874 53.6992 44.2725C53.7724 44.3754 53.8895 44.5003 54.4004 44.8574C54.7925 45.1315 55.8192 45.7881 56.6191 46.7422C57.9772 48.3621 58.8145 50.2533 59.2891 51.127C59.3505 51.2401 59.4888 51.4236 59.9385 51.7939C60.1932 52.0037 60.3894 52.1494 60.7529 52.4365C60.8334 52.5001 60.9189 52.5695 61.0088 52.6426C61.0163 52.6414 61.0245 52.6408 61.0322 52.6396C63.0001 52.3388 64.8502 53.6254 65.1641 55.5137C65.4476 57.2209 64.3785 58.8349 62.7168 59.3516C62.9478 59.6897 63.1928 60.0437 63.4482 60.4082C64.043 61.257 64.7025 62.1914 65.1865 62.9971C65.8726 64.1389 66.7352 65.1617 67.4941 65.8369C68.0043 66.2908 68.3508 66.8343 68.5879 67.2627C68.8338 67.7071 69.0479 68.1912 69.2314 68.6182C69.6318 69.5495 69.9358 70.3095 70.3457 70.9805C72.0395 73.7537 71.6643 76.4586 71.0537 81.582C70.6561 84.9183 71.0094 87.1382 71.1914 90.7412C71.3445 93.7729 71.3592 98.4994 71.6172 101.782C71.878 105.101 72.4943 106.997 73.1094 108.174C73.7116 109.326 74.3704 109.926 75.1855 110.714C75.8186 111.325 76.6157 111.836 77.6514 112.404C78.5938 112.921 79.9474 113.589 81.1426 114.317C81.911 114.786 82.4675 114.961 83.7773 115.543C85.0152 116.093 86.5215 116.853 88.6484 118.303L88.875 118.458L89.0596 118.657C89.4913 119.127 89.8835 119.572 90.2344 119.988C91.4256 119.722 92.6553 120.362 93.0557 121.497C93.461 122.647 93.4648 123.954 93.3682 124.826C93.4961 125.395 93.3964 125.993 93.0859 126.494C93.0602 126.967 93.096 127.485 93.2393 127.995L93.3418 128.361L93.3164 128.74C93.2554 129.667 92.7379 130.316 92.5215 130.576C92.3292 130.807 91.942 131.205 91.8643 131.289C91.5482 131.633 91.4007 131.865 91.3408 132.172C90.9423 134.218 90.1222 135.872 88.75 137.284C86.6337 139.462 83.4471 142.513 82.5322 143.526C81.2761 144.918 80.0304 146.504 78.1641 148.756C76.9644 150.203 75.9062 152.472 71.0771 155.788C70.2823 156.334 69.4937 157.413 68.498 158.843C68.0603 159.472 67.5544 160.202 67.0449 160.79C66.6195 161.281 65.7862 162.176 64.5635 162.455C64.104 162.56 63.6204 162.753 62.9336 163.088C62.3351 163.38 61.3539 163.899 60.3877 164.345C59.1215 164.929 57.9595 165.511 57.1533 166.193C56.665 166.607 56.218 167.084 55.4092 167.964C54.6179 168.825 53.5641 169.977 51.9453 171.603C50.7764 172.776 50.1067 174.215 49.3438 175.996C48.9675 176.875 48.7976 177.557 48.6074 178.426C48.4122 179.318 48.1935 180.421 47.7109 181.914C47.2123 183.457 46.3689 185.779 44.6904 187.269C43.3919 188.421 41.8784 189.749 40.3496 191.035C39.1061 192.081 37.8169 193.177 36.4473 194.418C35.3718 195.393 34.2243 196.212 33.2148 196.896C32.1389 197.627 31.3496 198.122 30.6924 198.616C28.8899 199.971 27.4184 201.042 25.0488 203.735C23.5432 205.447 22.7808 206.222 22.3516 206.755C22.3025 206.816 22.2502 206.873 22.1963 206.928C23.6354 207.69 24.3907 209.328 23.9199 210.909C23.3724 212.748 21.3742 213.812 19.458 213.287C16.6671 212.522 16.6884 212.527 14.3682 211.931C12.56 211.466 11.0145 210.802 10.0293 210.323C8.13764 209.403 7.66326 207.575 7.53809 207.126C7.44673 206.799 7.36023 206.411 7.31348 206.211C7.25424 205.958 7.20849 205.782 7.15918 205.633C6.86623 204.746 6.79185 203.753 6.79199 202.886C6.79216 201.957 6.88116 200.912 7.05566 199.81C7.36373 197.864 8.31259 196.338 8.99414 195.343C9.16852 195.088 9.34226 194.846 9.4873 194.643C9.55026 194.554 9.60523 194.472 9.6582 194.397C8.30833 193.778 7.12804 193.025 6.35449 192.318L6.30566 192.274L6.25879 192.228C5.83426 191.81 5.45819 191.338 5.15527 190.665C3.42812 187.538 2.45447 185.098 1.89844 183.049C1.32932 180.951 1.23181 179.37 1.1416 178.224C1.09201 177.594 1.06179 176.998 1.0332 176.471C1.00387 175.929 0.974882 175.437 0.926758 174.924C0.796393 173.532 0.905478 171.394 1.07031 168.979C1.23596 166.551 1.50816 163.233 1.75488 159.731C1.97693 156.579 1.82819 154.024 1.71582 150.287C1.60704 146.669 1.4559 142.088 1.79102 137.135C2.14287 131.934 2.89686 127.518 2.76953 122.761C2.64704 118.186 1.63877 113.723 1.04199 111.094C0.259603 107.646 0.296245 102.851 0.509766 95.8457C0.679447 90.2792 1.08658 84.921 1.05859 79.6641C0.757289 76.3922 0.370211 73.7393 0.258789 70.9736L0.256836 70.9326L0.255859 70.8916C0.217715 68.4465 0.218744 64.1161 0.00292969 59.2871C0.00108345 59.2457 0.00130341 59.2042 0.000976562 59.1631C0.000918558 59.155 8.35151e-07 59.1467 0 59.1387C2.23037e-05 57.8023 0.155238 55.5697 0.378906 53.4717C0.593019 51.4633 0.914505 49.1264 1.3418 47.7725C1.83019 46.2248 2.19415 44.418 2.23535 42.6367C2.25126 41.9467 2.14806 41.048 2.03809 39.501C1.94071 38.1312 1.86008 36.4183 2.06641 34.7295C2.13552 34.1642 2.31091 33.306 2.41504 32.7246C2.54065 32.0232 2.65812 31.2628 2.7168 30.4502L2.73438 30.25C2.94914 28.1945 4.13952 26.6691 5.29395 25.6406C6.47687 24.5869 7.9118 23.7895 9.16016 23.1855C10.4198 22.5761 11.7482 22.0446 12.7197 21.6416C13.2327 21.4288 13.6415 21.2541 13.9688 21.0996C14.2917 20.9472 14.4152 20.8697 14.4258 20.8633C14.9146 20.5147 15.2796 19.9609 15.9639 17.8857C16.5934 15.9766 17.404 13.1551 19.3135 10.0557C20.4601 8.19449 21.693 7.02816 22.9717 6.22754C23.5716 5.85193 24.1214 5.5959 24.4961 5.4248C24.9379 5.22304 25.0181 5.18688 25.084 5.14746C25.8996 4.65931 26.845 4.14537 27.6035 3.72168C28.428 3.26117 29.0537 2.89545 29.4795 2.59766C29.7814 2.38648 30.0793 2.15883 30.4912 1.85059C30.8702 1.56701 31.3329 1.2245 31.8271 0.90625L32.0156 0.791016ZM34.9287 7.3125C34.5959 7.56152 34.1564 7.89647 33.7305 8.19434C32.9669 8.72835 32.04 9.25649 31.2334 9.70703C30.3608 10.1944 29.5945 10.6098 28.9033 11.0234C28.3983 11.3256 27.8422 11.567 27.5977 11.6787C27.2851 11.8214 27.0946 11.9155 26.916 12.0273C26.6371 12.202 26.154 12.5613 25.5264 13.5801C24.1189 15.8646 23.5398 17.8636 22.8438 19.9746C22.2024 21.9195 21.3049 24.5861 18.7305 26.4219C17.8119 27.0769 16.4957 27.6204 15.583 27.999C14.4822 28.4556 13.4246 28.8779 12.4092 29.3691C11.3827 29.8658 10.6525 30.3173 10.2051 30.7158C10.0288 30.8728 9.94433 30.9773 9.9082 31.0303C9.82367 32.1318 9.66889 33.1126 9.52832 33.8975C9.36204 34.8258 9.27509 35.2112 9.23535 35.5361C9.1108 36.5556 9.14725 37.7361 9.23926 39.0303C9.31865 40.1468 9.47677 41.6841 9.45117 42.791C9.39252 45.3258 8.88431 47.7631 8.24805 49.7793C8.05352 50.3957 7.78232 52.0782 7.55859 54.1768C7.34846 56.148 7.22141 58.0759 7.2168 59.083C7.43279 63.9709 7.4364 68.4201 7.47168 70.7402C7.56542 73.0191 7.83198 74.8461 8.13086 77.8408L8.26172 79.208L8.27344 79.3477L8.27441 79.4863C8.3109 84.9086 7.88124 90.8784 7.72363 96.0488C7.50199 103.321 7.5389 107.175 8.09375 109.62C8.68452 112.223 9.84223 117.274 9.98438 122.583C10.1216 127.71 9.28648 133.248 8.99316 137.583C8.68319 142.165 8.82075 146.433 8.93066 150.088C9.03698 153.623 9.20711 156.622 8.95508 160.199C8.69116 163.945 8.4465 166.882 8.27246 169.432C8.09766 171.993 8.04501 173.556 8.11523 174.305C8.17641 174.957 8.21136 175.56 8.24121 176.111C8.2718 176.676 8.29627 177.172 8.33789 177.701C8.42917 178.861 8.49547 179.876 8.88281 181.304C9.27126 182.736 10.0166 184.687 11.5615 187.477C11.6376 187.529 11.7286 187.589 11.834 187.654C12.0608 187.794 12.3365 187.945 12.6504 188.095L12.9756 188.242L13.1562 188.32L13.3271 188.417C13.9875 188.79 14.7747 189.259 15.4346 189.816C16.0628 190.347 17.0573 191.353 17.2939 192.897C17.4593 193.977 17.248 195.112 16.9014 196.052C16.624 196.804 16.2056 197.453 15.9102 197.888C15.7517 198.121 15.5849 198.355 15.4414 198.556C15.2902 198.767 15.1561 198.955 15.0264 199.145C14.4915 199.926 14.2576 200.425 14.1904 200.85C14.0603 201.672 14.0089 202.364 14.0088 202.887C14.0087 203.323 14.0447 203.53 14.0488 203.563L14.0391 203.54C14.1713 203.94 14.2647 204.315 14.334 204.607C14.8955 204.835 15.5458 205.064 16.2354 205.241C17.0636 205.454 17.6033 205.596 18.0771 205.72C17.9718 205.109 18.12 204.459 18.5459 203.931C19.036 203.323 20.1129 202.19 21.373 200.758C24.0629 197.701 25.8411 196.397 27.7266 194.98C28.5035 194.397 29.5553 193.726 30.4375 193.127C31.3864 192.483 32.3157 191.812 33.1436 191.062C34.5807 189.759 35.9259 188.618 37.1797 187.563C38.6603 186.318 40.1354 185.022 41.4229 183.879C42.0446 183.327 42.595 182.156 43.1152 180.547C43.5184 179.299 43.6923 178.419 43.8984 177.478C44.1096 176.513 44.3498 175.508 44.8926 174.24C45.6377 172.5 46.5949 170.291 48.4658 168.412C50.0146 166.857 51.0171 165.763 51.8008 164.91C52.5668 164.076 53.2145 163.37 53.9707 162.73C55.3399 161.572 57.0782 160.748 58.3037 160.183C59.2618 159.741 59.8734 159.401 60.7549 158.972C61.4714 158.623 62.2636 158.271 63.1602 158.035C63.2044 157.992 63.2668 157.929 63.3457 157.838C63.6601 157.475 64.0166 156.969 64.498 156.277C65.3409 155.067 66.6207 153.171 68.2773 152.033C72.3881 149.21 72.8266 147.78 74.3984 145.883C76.158 143.76 77.5519 141.992 78.8955 140.504C79.8424 139.455 83.4134 136.007 85.2314 134.136C85.9057 133.442 86.3592 132.619 86.6113 131.324C86.9038 129.823 87.7033 128.835 88.2568 128.233C88.2958 128.191 88.3316 128.154 88.3633 128.12C88.2325 127.238 88.2459 126.4 88.333 125.656C88.0995 125.307 87.9401 125.018 87.8037 124.702L87.7754 124.639L87.7529 124.574C87.7716 124.626 87.6719 124.393 87.2148 123.788C86.8401 123.292 86.3119 122.662 85.6338 121.915C83.8905 120.745 82.7055 120.154 81.7559 119.732C80.8376 119.325 79.6903 118.902 78.5635 118.216C77.474 117.552 76.5043 117.093 75.2637 116.413C74.1164 115.784 72.8689 115.027 71.7725 113.968C70.9957 113.217 69.8003 112.141 68.8086 110.243C67.8296 108.37 67.1111 105.841 66.8193 102.129C66.563 98.8658 66.5174 93.5522 66.3867 90.9648C66.225 87.7627 65.8178 84.8888 66.2744 81.0576C66.9508 75.3825 66.9027 74.4754 66.1943 73.3154C65.569 72.2917 65.1084 71.1356 64.7832 70.3789C64.6041 69.9622 64.4653 69.6589 64.3379 69.4287C64.253 69.2754 64.2039 69.2093 64.1943 69.1963C63.0632 68.1837 61.9171 66.8 61.0176 65.3027C60.6358 64.6673 60.0876 63.8856 59.4561 62.9844C58.8538 62.125 58.1792 61.1606 57.6562 60.2832C57.3728 59.8075 57.2853 59.2756 57.3691 58.7734C57.1408 58.6235 56.9157 58.4467 56.7012 58.2373C56.326 57.8711 56.1373 57.7901 55.2383 57.0498C54.5349 56.4706 53.5818 55.6014 52.8896 54.3271C52.0352 52.7539 51.7594 51.9935 50.9961 51.083C50.9376 51.0133 50.8647 50.9535 50.1504 50.4541C49.5541 50.0372 48.5558 49.3288 47.7354 48.1738C46.766 46.8092 45.8088 45.2993 45.0967 43.7793C44.4731 42.4482 44.3889 40.9946 44.3223 40.4316C44.2647 39.9458 44.1986 39.5527 44.0684 39.1602C43.9936 39.1014 43.9156 39.0381 43.8398 38.9697C43.4058 38.5781 42.8911 37.9497 42.6533 37.0449C42.1399 35.0897 41.7974 32.586 41.5449 30.5684C41.4113 29.5006 41.3077 28.6057 41.2051 27.8223C41.1553 27.442 41.1106 27.1291 41.0703 26.8828C41.0504 26.761 41.0335 26.6667 41.0195 26.5967C41.0095 26.5465 41.003 26.5192 41.001 26.5107C40.8956 26.1247 40.6313 25.0612 41.1152 23.8145C41.5864 22.6008 42.5225 21.8149 43.3809 21.3086C45.3053 20.1736 46.9483 19.3238 48.0078 18.8115C46.7076 18.552 45.4743 18.0658 44.3809 17.3623C44.4023 17.3761 44.3363 17.3329 44.0469 17.2188C43.9716 17.1891 43.2216 16.9087 42.9346 16.791C42.2091 16.4934 40.3238 15.7028 39.4551 13.7305C39.1913 13.1316 38.725 12.6192 37.7168 11.2832C37.3218 10.7598 37.0977 10.2293 36.9648 9.84668C36.8275 9.45103 36.7391 9.06699 36.6768 8.75781C36.6138 8.44578 36.5628 8.13135 36.5225 7.87793C36.4871 7.65535 36.4576 7.47361 36.4277 7.30273C36.3838 7.2879 36.3415 7.2737 36.3027 7.26074C35.9151 7.13123 35.6242 7.04116 35.377 6.98242C35.2399 7.08118 35.0915 7.19067 34.9287 7.3125Z" fill="#151515"/>
</svg>
