<svg width="238" height="289" viewBox="0 0 238 289" fill="none" xmlns="http://www.w3.org/2000/svg">
<g filter="url(#filter0_d_369_303)">
<path d="M58.4755 0.0957031C59.7066 -0.254178 60.9948 0.38647 61.4208 1.5332C62.6515 0.660781 64.3764 0.608329 65.6815 1.51562C65.7867 1.58875 65.8648 1.64037 65.9276 1.68262C67.3139 1.93533 69.4033 2.21908 71.4696 2.48047L73.9286 2.78516L74.0848 2.81836C75.2831 3.07056 76.769 3.26795 78.1718 3.25781C79.6488 3.24713 80.627 3.00806 81.1278 2.72949C82.3657 2.04074 84.8466 1.08513 87.5516 0.638672C90.1341 0.212512 93.9613 0.0780452 96.9852 2.26074C98.1665 3.11352 99.1799 4.27777 99.8397 4.98926C100.607 5.8169 101.236 6.4398 101.98 6.92969C103.322 7.81253 105.513 8.67146 107.718 9.61719C108.964 10.152 110.019 10.8097 110.872 11.3398C111.767 11.8956 112.512 12.3585 113.413 12.7842C113.768 12.952 114.147 13.1065 114.641 13.3066C115.099 13.4927 115.674 13.7265 116.243 14C117.405 14.5585 118.822 15.412 119.908 16.9189C121.509 19.1409 123.947 21.8914 125.59 27.4639C125.988 28.8158 127.575 33.2815 128.872 39.6816C129.488 42.7206 129.993 46.4052 130.273 49.0713C130.411 50.3836 130.506 51.5557 130.521 52.3086C130.525 52.4986 130.526 52.727 130.512 52.9531C130.505 53.0629 130.491 53.2352 130.456 53.4326C130.44 53.5258 130.355 54.0585 130.016 54.6299C129.847 54.9155 129.387 55.6049 128.447 56.0449C127.293 56.5849 126.1 56.4421 125.241 56.0312C124.543 55.697 124.141 55.2339 123.985 55.042C123.798 54.8105 123.678 54.6018 123.612 54.4805C123.394 54.0751 123.281 53.6722 123.244 53.541C122.735 51.7398 122.064 47.7326 118.203 44.042C117.541 43.4094 116.85 42.694 116.196 41.998C116.192 45.4188 116.216 48.3558 116.258 50.6504C116.285 52.1476 116.319 53.3581 116.357 54.2451C116.4 55.2399 116.44 55.5901 116.434 55.5635C117.026 58.731 116.3 61.1591 119.624 66.6748C122.737 71.8406 123.894 73.8592 127.083 79.3223C128.073 79.8596 128.785 80.835 128.902 82.0039C128.924 82.2202 128.946 82.3971 128.965 82.5439C129.042 82.6765 129.12 82.8112 129.2 82.9473C129.539 83.5263 129.685 84.1589 129.66 84.7773C130.198 86.1073 130.74 87.2313 131.629 88.7031C131.655 88.7245 131.683 88.7508 131.719 88.7783C131.883 88.9065 132.097 89.0559 132.391 89.251C132.899 89.5887 133.798 90.152 134.572 90.7529C136.246 92.0523 138.352 94.2977 138.001 97.876C137.901 98.8963 137.504 100.145 137.223 101.057C136.891 102.129 136.544 103.237 136.27 104.421C135.708 106.849 135.598 109.034 136.336 110.791C138.134 115.075 140.837 117.878 144.776 120.944C147.969 123.43 149.893 125.402 151.258 126.763C152.715 128.215 153.096 128.463 153.474 128.592C155.635 129.327 157.75 129.83 159.451 130.019C160.032 130.083 160.521 130.104 160.918 130.097C161.005 129.782 161.131 129.419 161.314 129.053C161.723 128.234 162.442 127.35 163.63 126.789L164.072 126.584C166.352 125.551 169.608 124.384 172.653 123.696C174.266 123.332 176.001 123.059 177.585 123.079C178.905 123.096 181.13 123.318 182.692 124.911L182.842 125.069L183.014 125.271C183.399 125.754 183.679 126.288 183.801 126.515C184.025 126.93 184.194 127.262 184.437 127.687C184.892 128.481 185.462 129.329 186.269 130.115C186.911 130.74 187.563 131.106 188.415 131.523C189.092 131.856 190.662 132.526 191.824 133.696C192.753 134.632 193.595 135.553 194.196 136.181C194.847 136.861 195.344 137.339 195.855 137.735C196.406 138.163 196.942 138.645 197.331 138.986C197.72 139.328 198.002 139.565 198.241 139.742C198.982 139.463 200.114 139.046 201.939 138.492C201.876 138.511 202 138.477 202.397 138.252C202.757 138.048 203.196 137.773 203.737 137.422C204.755 136.761 206.145 135.82 207.508 135.019C208.853 134.228 210.508 133.365 212.203 132.941C213.849 132.53 216.235 132.381 218.268 133.939L218.465 134.096L218.741 134.329C221.575 136.771 223.818 140.039 224.631 142.355C224.906 143.14 225.025 143.902 225.099 144.505C225.136 144.81 225.166 145.122 225.193 145.395C225.222 145.679 225.248 145.94 225.28 146.204C225.403 147.209 225.605 148.205 226.178 149.356C228.102 153.227 229.061 154.976 232.516 163.504C233.385 164.168 233.924 165.205 233.876 166.352C233.868 166.528 233.86 166.705 233.852 166.882C234.04 167.572 233.995 168.277 233.758 168.914C233.685 170.319 233.593 171.739 233.439 173.154L233.433 173.209L233.426 173.264C232.835 177.42 231.722 181.148 229.943 183.709C229.607 184.764 229.105 187.567 229.933 190.639C231.047 194.769 231.17 199.802 229.977 204.293C229.779 205.041 229.498 205.848 229.271 206.517C229.027 207.236 228.811 207.892 228.644 208.54C228.301 209.875 228.279 210.784 228.495 211.444C229.092 213.269 228.034 215.213 226.133 215.785C224.885 216.161 223.584 215.853 222.669 215.082C221.157 215.833 219.163 216.678 217.15 217.338L216.901 217.42L216.64 217.447C215.889 217.528 215.076 217.413 214.649 217.363C214.106 217.3 213.667 217.258 213.21 217.279C212.43 217.316 211.364 217.548 209.961 218.835C207.743 220.871 205.963 222.643 204.674 223.967C204.028 224.629 203.505 225.18 203.104 225.602C202.744 225.981 202.397 226.349 202.187 226.541C201.303 227.353 200.08 228.138 198.839 228.945C197.328 229.928 194.466 232.164 191.224 235.006C189.403 236.601 187.788 238.045 186.532 239.218C185.223 240.441 184.448 241.24 184.177 241.599C183.704 242.225 183.321 242.863 182.834 243.616C182.418 244.26 181.831 245.146 181.073 245.781C179.633 246.989 177.811 247.799 175.723 248.309C174.241 248.67 172.76 248.481 171.774 248.459C170.598 248.433 168.882 248.498 165.888 249.181C165.151 249.349 164.779 249.582 164.462 249.816C164.364 249.889 164.269 249.962 164.147 250.058C164.036 250.145 163.888 250.262 163.732 250.374C163.411 250.606 162.963 250.894 162.376 251.096C161.484 251.401 160.137 251.659 159.216 251.882C158.136 252.143 157.048 252.468 156.001 252.995C154.619 253.69 152.827 254.553 150.002 254.763C146.522 255.021 145.204 255.478 144.679 255.796C144.687 255.791 144.664 255.805 144.604 255.854C144.545 255.904 144.468 255.975 144.369 256.074C144.156 256.287 143.937 256.533 143.626 256.874C143.067 257.486 142.247 258.377 141.207 259.045C140.491 259.505 139.683 259.575 139.314 259.6C138.84 259.631 138.323 259.615 137.854 259.591C136.764 259.534 135.926 259.441 134.778 259.403C133.715 259.368 132.804 259.407 132.102 259.562C131.399 259.717 131.193 259.923 131.135 260.003C130.326 261.114 130.191 262.132 130.116 263.309C130.105 263.476 130.075 263.637 130.03 263.792C130.368 264.956 129.713 266.186 128.507 266.589C127.631 266.881 126.7 266.659 126.068 266.09C125.89 266.198 125.694 266.322 125.48 266.46C123.817 267.538 121.468 269.289 118.624 271.566L118.515 271.653L118.395 271.729C116.007 273.221 114.039 274.084 111.865 274.898C109.649 275.729 107.506 276.413 104.251 277.712C101.3 278.89 99.3858 279.072 96.7499 279.351C96.0589 279.424 95.3 279.524 94.4364 279.635C93.5892 279.743 92.6648 279.859 91.7137 279.946C89.8307 280.12 87.7155 280.202 85.6903 279.886C85.2618 279.819 84.3413 279.668 83.5321 279.063C82.5847 278.355 82.1661 277.341 82.076 276.299C81.9421 274.746 81.9483 272.93 81.9032 272.006C81.8939 271.815 81.8807 271.655 81.869 271.522C81.5965 271.389 81.3513 271.262 81.1737 271.173C80.6909 270.931 80.2625 270.738 79.8075 270.608C79.0111 270.382 77.9151 270.28 76.2421 271.055C75.1643 271.553 74.1828 272.13 73.2147 272.713C72.3022 273.262 71.2837 273.893 70.3319 274.329C69.235 274.831 68.0511 275.152 67.0253 275.413C65.9321 275.692 65.0134 275.905 64.1259 276.208C63.2413 276.51 60.8121 277.348 58.5741 277.773C57.5022 277.977 56.1881 278.147 55.038 277.971C54.4533 277.881 53.6596 277.666 52.9823 277.093C52.2149 276.443 51.8524 275.552 51.8553 274.637L51.8641 274.392C51.9025 273.825 52.0553 273.304 52.1298 273.033C52.1524 272.951 52.1711 272.873 52.1903 272.802C52.1368 272.8 52.0801 272.799 52.0204 272.798C51.6779 272.789 51.2194 272.774 50.7655 272.718C50.3261 272.664 49.715 272.552 49.118 272.257C48.3683 271.886 47.7171 271.495 47.2626 271.217C46.8817 271.814 46.4694 272.436 46.0673 272.996C45.7792 273.397 45.4803 273.79 45.1932 274.13C44.937 274.433 44.5788 274.83 44.1708 275.128C43.294 275.768 42.1074 275.741 41.2684 275.135C41.0641 275.171 40.8617 275.221 40.6503 275.294C38.2914 276.494 35.3535 277.691 32.079 278.488C30.7913 278.802 29.4822 278.054 29.1552 276.818C29.0559 276.443 29.0593 276.066 29.1473 275.714C28.895 275.674 28.6386 275.623 28.3895 275.555C24.8657 274.585 20.7621 273.244 17.7401 270.684C16.3255 269.485 14.7182 267.361 13.2596 265.156C11.7583 262.887 10.2655 260.3 9.09753 257.995C6.70341 253.27 4.89893 247.114 4.04968 243.146C3.78243 241.898 4.62032 240.677 5.92175 240.421C7.22321 240.164 8.49525 240.969 8.76257 242.218C9.09437 243.768 9.58067 245.659 10.1884 247.646C10.2003 247.54 10.2144 247.433 10.2264 247.323C10.4089 245.665 10.6084 243.52 10.8817 241.707L10.9862 241.01L11.4784 240.488C12.7917 239.096 15.0216 237.952 20.746 236.926C23.578 236.418 26.0807 235.933 29.4618 235.611C29.5652 234.88 29.7314 234.048 29.9149 233.201C30.1812 231.972 30.5394 230.458 30.869 228.981C31.554 225.913 32.1919 222.668 32.2714 220.005C32.4471 214.107 32.8253 211.832 34.0048 209.678C34.9344 207.98 35.902 205.887 37.0116 204.199C38.623 201.748 40.9997 197.435 46.0848 195.499C48.225 194.684 50.3798 194.108 51.9247 193.634C52.7356 193.385 53.3762 193.167 53.8778 192.949C54.3936 192.725 54.6135 192.563 54.6874 192.492C54.8664 192.32 55.0384 192.072 55.2362 191.402C55.4679 190.618 55.6096 189.763 55.9598 188.231C56.5989 185.437 56.5633 182.845 56.8915 179.924C57.1761 177.391 57.7871 174.181 60.6327 172.447L60.7675 172.369C61.449 171.994 62.2173 171.851 62.6132 171.776C63.2101 171.664 63.5624 171.617 63.9891 171.511C64.7736 171.315 64.7528 171.158 64.7635 171.127C65.287 169.623 65.5552 167.891 65.7968 166.102C66.0165 164.473 66.2351 162.526 66.7509 161.133C67.0476 160.331 67.3552 159.002 67.496 157.564C67.6392 156.101 67.5832 154.787 67.3358 153.932C67.1886 153.423 67.0803 152.874 66.9901 152.427C66.893 151.945 66.8077 151.53 66.6981 151.135C66.5059 150.441 66.2903 150.023 66.0497 149.758C66.0223 149.756 65.9908 149.751 65.955 149.749C64.2346 149.655 62.6476 149.514 61.3065 149.146C59.8884 148.756 58.6008 148.074 57.6464 146.833C57.3536 146.452 57.2303 146.066 57.1786 145.888C57.1146 145.667 57.0746 145.45 57.0477 145.268C56.9939 144.901 56.9645 144.481 56.9462 144.061C56.9093 143.212 56.9083 142.119 56.91 140.963C56.9135 138.59 56.9265 135.84 56.7235 133.535C56.6575 132.786 56.7618 131.635 56.8427 130.642C56.9334 129.527 57.0329 128.284 57.0516 127.035C57.0705 125.776 57.0035 124.61 56.7987 123.655C56.5911 122.688 56.2953 122.197 56.0702 121.979C56.0437 121.965 55.9447 121.915 55.7157 121.846C55.3091 121.723 54.9633 121.665 54.2762 121.503C53.2527 121.261 51.0951 120.729 50.1161 118.651C49.3783 117.086 48.7577 115.491 48.1962 114.064C47.9037 113.322 47.3166 112.539 46.3026 111.455C46.1656 111.378 46.0261 111.293 45.8973 111.21C45.1823 110.747 44.556 110.23 44.0038 109.675C43.9921 109.682 43.9814 109.691 43.9696 109.698C42.8369 110.364 41.3553 110.022 40.661 108.936C40.2573 108.304 39.7687 107.544 39.3885 106.747L39.3563 106.68L39.329 106.611C38.8879 105.505 37.7608 103.334 36.2909 98.6826L36.1991 98.3916L36.1893 98.0879C35.9842 92.0336 36.0704 86.7106 35.9794 82.6045C35.8848 78.3408 35.6012 75.0952 34.745 72.3994C34.1163 70.4204 33.8748 68.5244 33.5985 66.7402C33.3172 64.9234 32.9793 63.0316 32.1864 60.7314C31.7424 59.4434 31.2439 58.173 30.7333 56.8877C30.2286 55.6172 29.7048 54.3153 29.2401 53.0361C28.316 50.4925 27.5357 47.8036 27.5399 45.0781C27.543 43.1122 27.5946 39.8701 27.6063 37.6172C27.6097 36.966 27.6105 36.4012 27.6063 35.9541C27.4668 35.6144 27.4082 35.2377 27.454 34.8496C27.4748 34.6731 27.4994 34.4871 27.5311 34.3242C27.5448 34.2543 27.5748 34.1076 27.6307 33.9434C27.6556 33.8704 27.7196 33.6905 27.8427 33.4854C27.8802 33.4226 28.3032 32.6586 29.3134 32.3984C29.7053 32.2975 30.0568 32.2949 30.3661 32.3486C30.4278 32.1516 30.4922 31.9521 30.5594 31.75L30.6522 31.5C31.1534 30.2838 32.1913 29.5511 33.0243 29.1152C33.9442 28.634 35.0162 28.3048 35.9901 28.0537C36.9723 27.8005 38.0437 27.5818 38.9442 27.3857C39.8972 27.1783 40.6715 26.9935 41.2635 26.791C42.5931 26.3362 43.8876 25.725 45.4872 24.9502C47.0627 24.187 48.8885 23.2886 51.1346 22.3672C53.7205 21.3064 54.9847 20.2665 56.3212 19.1406C56.5096 17.6666 56.6278 15.6226 56.7274 13.292C56.8431 10.5851 56.9348 7.54661 57.1171 4.95117L57.119 4.93359C57.1542 4.48471 57.1561 4.31056 57.1356 4.12402C57.1134 3.92206 57.0523 3.6119 56.8524 2.96484C56.475 1.74253 57.2017 0.458005 58.4755 0.0957031ZM92.6473 7.79492C92.0781 7.384 90.8108 7.12797 88.7753 7.46387C86.8628 7.77949 85.2009 8.46874 84.7479 8.7207C82.6686 9.87746 80.2219 10.1682 78.2255 10.1826C76.229 10.197 74.2641 9.93405 72.7098 9.61719C69.9318 9.27571 66.0103 8.79354 63.8807 8.35352L63.4891 8.27148L63.1249 8.11035C62.5857 7.871 62.1252 7.58319 61.7928 7.36035C61.6922 9.32961 61.6224 11.4375 61.535 13.4814C61.4189 16.1989 61.2707 18.8753 60.9501 20.6992L60.8046 21.5205L60.1473 22.0645C58.6045 23.3405 56.842 25.047 53.0262 26.6123C50.945 27.4661 49.2565 28.2956 47.6552 29.0713C46.0778 29.8353 44.5316 30.5756 42.8798 31.1406C41.9848 31.4467 40.952 31.6826 40.0096 31.8877C39.0145 32.1043 38.0995 32.2907 37.2382 32.5127C36.369 32.7367 35.739 32.954 35.328 33.1689C35.213 33.2291 35.1378 33.2763 35.0927 33.3086C34.1404 36.2207 33.8934 38.4162 33.8934 40.7842C33.8933 41.7611 33.2596 42.5937 32.3661 42.9307C32.3583 43.7161 32.3524 44.4518 32.3514 45.085C32.3485 47.0109 32.906 49.1014 33.7831 51.5156C34.2191 52.7156 34.7113 53.9389 35.2294 55.2432C35.7415 56.5323 36.273 57.8875 36.7538 59.2822C37.6749 61.9544 38.0612 64.1492 38.3573 66.0615C38.6584 68.006 38.8491 69.4837 39.3475 71.0527C40.4103 74.3987 40.6932 78.1904 40.7889 82.5059C40.8865 86.9052 40.7929 91.6206 40.9882 97.6318C41.4221 98.988 41.8127 100.079 42.1581 100.983C42.1592 100.984 42.16 100.985 42.161 100.985C42.3357 101.051 42.4875 101.126 42.6053 101.189C42.8445 101.319 43.0799 101.477 43.2997 101.645C43.4621 101.768 43.6317 101.91 43.8036 102.067C44.6731 102.187 45.4426 102.759 45.743 103.612C45.8637 103.955 46.0014 104.281 46.1532 104.593C46.7342 105.17 47.3936 105.806 48.0145 106.406C48.5697 106.943 49.1761 107.532 49.4882 107.904C49.5157 107.937 49.5894 108.026 49.6766 108.15C50.9282 109.464 52.0749 110.852 52.6971 112.433C53.2674 113.881 53.8266 115.314 54.4803 116.706C54.5438 116.746 54.7715 116.864 55.4276 117.02C55.8114 117.11 56.565 117.262 57.1561 117.44C57.7508 117.62 58.5476 117.919 59.246 118.509L59.3846 118.631L59.6093 118.85C60.7002 119.969 61.232 121.422 61.5116 122.725C61.8175 124.15 61.8832 125.694 61.8622 127.102C61.841 128.519 61.728 129.902 61.6385 131.001C61.5393 132.221 61.4946 132.873 61.5184 133.146C61.7426 135.691 61.7249 138.663 61.7216 140.969C61.7198 142.151 61.7221 143.138 61.7538 143.868C61.7621 144.059 61.7727 144.216 61.7831 144.344C61.9577 144.468 62.215 144.592 62.6317 144.707C63.4098 144.921 64.5215 145.046 66.2284 145.14C66.7263 145.167 67.267 145.235 67.8046 145.423C68.3156 145.602 68.7145 145.851 69.0419 146.117L69.1786 146.232L69.412 146.449C70.5398 147.547 71.0531 148.886 71.3475 149.948C71.5064 150.521 71.6209 151.089 71.7137 151.55C71.8135 152.045 71.8857 152.399 71.9716 152.696C72.4467 154.339 72.4521 156.3 72.286 157.997C72.1173 159.72 71.7443 161.438 71.285 162.679C70.9887 163.48 70.8285 164.766 70.5682 166.694C70.3298 168.461 70.0169 170.608 69.327 172.59C68.5294 174.88 66.4983 175.655 65.2001 175.979C64.5856 176.133 63.8776 176.244 63.537 176.308C63.3072 176.351 63.1854 176.383 63.1356 176.396C62.4563 176.859 61.9586 177.893 61.6747 180.419C61.4239 182.651 61.3644 186.138 60.6591 189.222C60.3834 190.427 60.1461 191.712 59.8651 192.662C59.5503 193.727 59.0755 194.809 58.0936 195.753C57.4303 196.391 56.6133 196.829 55.8632 197.155C55.0979 197.488 54.2401 197.771 53.3905 198.031C51.6139 198.576 49.7959 199.054 47.8593 199.791C44.5321 201.058 42.9685 203.791 41.0809 206.663C40.0913 208.169 39.4361 209.684 38.2635 211.825C37.6606 212.926 37.2579 214.197 37.0809 220.136C36.9876 223.269 36.2571 226.889 35.5741 229.948C35.2197 231.535 34.8942 232.902 34.6259 234.141C34.3555 235.389 34.2003 236.261 34.1688 236.779C34.1223 237.544 33.8963 238.649 32.8739 239.418C32.0137 240.065 30.9833 240.114 30.703 240.138C27.172 240.433 24.7392 240.907 21.6298 241.465C17.7901 242.153 16.201 242.809 15.5233 243.216C15.3278 244.699 15.1753 246.32 15.0116 247.808C14.9168 248.669 14.8161 249.501 14.701 250.18C14.6437 250.518 14.5763 250.859 14.493 251.168C14.4246 251.422 14.291 251.871 14.0214 252.286L13.913 252.454L13.7753 252.603C13.3204 253.091 12.8108 253.383 12.3163 253.572C12.67 254.408 13.0395 255.216 13.4247 255.977C14.5164 258.131 15.9217 260.565 17.3221 262.682C18.7652 264.863 20.0649 266.493 20.9257 267.223C23.0616 269.033 26.2113 270.152 29.7157 271.117C29.9862 271.192 30.3962 271.22 31.1219 271.248C31.4242 271.26 31.8244 271.274 32.1932 271.314C32.4757 271.345 32.9648 271.41 33.4637 271.614L33.6776 271.711L33.786 271.769C34.2327 272.018 34.5642 272.389 34.7635 272.813C36.1451 272.295 37.4155 271.721 38.535 271.146L38.66 271.081L38.7919 271.031C39.8329 270.639 40.9076 270.505 41.451 270.448C41.751 269.966 42.2142 269.622 42.7391 269.45C43.0341 269.006 43.327 268.548 43.5887 268.119L43.7255 267.914C44.4381 266.926 45.5582 266.545 45.995 266.409L46.1385 266.369C47.6138 265.979 48.8164 266.709 49.2655 266.971C49.9292 267.358 50.3926 267.686 51.2538 268.117C51.277 268.122 51.3175 268.131 51.3788 268.139C51.5663 268.162 51.8047 268.172 52.1542 268.182C52.4576 268.19 52.8974 268.197 53.3026 268.231C53.6421 268.26 54.1351 268.32 54.6405 268.494L54.8573 268.575L55.0526 268.661C56.0121 269.112 56.661 269.85 56.9637 270.729C57.2395 271.53 57.1633 272.278 57.1229 272.618C57.092 272.879 57.0443 273.126 56.996 273.352C57.189 273.324 57.4036 273.29 57.6385 273.245C59.477 272.895 61.5812 272.177 62.5135 271.858C63.6421 271.473 64.837 271.194 65.7899 270.951C66.8103 270.691 67.6073 270.461 68.2606 270.162C68.8969 269.871 69.6213 269.426 70.6581 268.802C71.6398 268.211 72.8152 267.515 74.1522 266.896C76.9241 265.614 79.2547 265.635 81.1766 266.183C82.0806 266.44 82.8354 266.797 83.3973 267.078C84.0598 267.409 84.2751 267.53 84.4716 267.597C85.9462 268.1 86.3494 269.453 86.4647 269.89C86.6257 270.5 86.6798 271.195 86.7089 271.79C86.7688 273.018 86.7455 274.096 86.829 275.378C88.1626 275.541 89.6672 275.497 91.2528 275.351C92.1095 275.272 92.9602 275.166 93.7987 275.059C94.6208 274.953 95.4603 274.841 96.2235 274.761C98.8133 274.487 100.134 274.355 102.403 273.449C105.669 272.146 108.192 271.319 110.116 270.598C112.046 269.874 113.672 269.157 115.657 267.928C118.49 265.663 120.946 263.828 122.788 262.634C123.702 262.042 124.573 261.536 125.315 261.23C125.383 261.203 125.458 261.174 125.537 261.145C125.76 260.011 126.211 258.706 127.189 257.36C128.197 255.975 129.711 255.352 131.024 255.062C132.34 254.772 133.747 254.75 134.943 254.789C136.054 254.826 137.419 254.944 138.116 254.98C138.424 254.997 138.653 255.001 138.819 254.999C139.175 254.718 139.548 254.335 140.006 253.833C140.265 253.548 140.587 253.19 140.896 252.88C141.202 252.574 141.614 252.193 142.111 251.892C143.706 250.926 146.062 250.424 149.631 250.159C151.48 250.022 152.58 249.505 153.767 248.907C155.297 248.138 156.798 247.706 158.039 247.405C159.42 247.071 160.126 246.96 160.733 246.755C160.748 246.746 160.781 246.726 160.836 246.687C160.905 246.636 160.983 246.577 161.105 246.481C161.217 246.394 161.366 246.276 161.53 246.155C162.261 245.617 163.24 245.039 164.774 244.688C168.156 243.917 170.284 243.808 171.885 243.843C173.675 243.882 173.905 243.988 174.536 243.834C176.11 243.45 177.185 242.911 177.908 242.305C178.044 242.191 178.285 241.893 178.744 241.183C179.132 240.582 179.674 239.694 180.282 238.889C180.837 238.154 181.919 237.083 183.176 235.909C184.486 234.685 186.145 233.204 187.979 231.597C191.272 228.711 194.336 226.297 196.139 225.124C197.517 224.227 198.338 223.685 198.862 223.204C198.865 223.201 198.881 223.186 198.913 223.154C198.951 223.117 199 223.067 199.062 223.002C199.188 222.872 199.348 222.703 199.551 222.49C199.951 222.069 200.492 221.499 201.159 220.814C202.494 219.444 204.337 217.607 206.635 215.498C208.868 213.448 211.03 212.76 212.974 212.668C213.878 212.625 214.675 212.716 215.229 212.78C215.529 212.815 215.722 212.838 215.896 212.851C215.909 212.852 215.921 212.852 215.932 212.853C217.968 212.161 219.929 211.286 221.141 210.632C221.118 209.244 221.36 207.955 221.638 206.879C221.874 205.962 222.165 205.093 222.409 204.374C222.67 203.604 222.857 203.057 222.983 202.582C223.859 199.282 223.773 195.437 222.947 192.374C221.618 187.445 222.492 182.834 223.375 180.784L223.544 180.39L223.807 180.048C224.694 178.897 225.692 176.378 226.266 172.374C226.42 170.947 226.507 169.498 226.579 167.973C222.539 157.904 221.661 156.356 219.664 152.338C218.63 150.258 218.289 148.447 218.113 147.01C218.071 146.664 218.038 146.335 218.01 146.055C217.98 145.762 217.957 145.529 217.931 145.312C217.876 144.869 217.826 144.668 217.79 144.564C217.447 143.585 216.057 141.381 214.085 139.629C214.065 139.633 214.044 139.637 214.021 139.643C213.39 139.8 212.476 140.219 211.279 140.923C210.101 141.616 208.977 142.383 207.781 143.159C206.81 143.79 205.388 144.709 204.114 145.096C201.908 145.765 201.048 146.138 200.145 146.464C197.428 147.445 195.186 146.189 194.045 145.382C193.438 144.953 192.88 144.465 192.455 144.092C191.981 143.675 191.651 143.379 191.319 143.122C190.386 142.399 189.602 141.619 188.881 140.865C188.109 140.059 187.485 139.367 186.598 138.473C186.593 138.468 186.527 138.405 186.291 138.272C185.997 138.107 185.705 137.973 185.129 137.69C184.065 137.169 182.591 136.399 181.13 134.977C179.688 133.573 178.747 132.13 178.113 131.023C177.902 130.655 177.706 130.288 177.556 130.006C177.535 130.005 177.513 130.004 177.491 130.004C176.745 129.995 175.655 130.133 174.307 130.438C172.056 130.946 169.589 131.803 167.764 132.58C167.729 132.761 167.68 133.004 167.604 133.262C167.45 133.786 167.029 134.978 165.765 135.799C164.603 136.552 163.284 136.843 162.181 136.956C161.035 137.074 159.817 137.03 158.626 136.898C156.241 136.635 153.58 135.976 151.061 135.118C148.826 134.357 147.327 132.831 146.057 131.565C144.695 130.207 143.043 128.513 140.229 126.323C135.798 122.874 132.077 119.179 129.642 113.378C128.08 109.656 128.562 105.782 129.224 102.919C129.563 101.457 129.987 100.109 130.303 99.0869C130.467 98.5554 130.596 98.1364 130.69 97.7842C130.736 97.6126 130.768 97.4785 130.789 97.376C130.809 97.2779 130.815 97.2322 130.815 97.2275C130.836 97.0182 130.896 96.8046 130.034 96.1357C129.54 95.7524 129.048 95.4538 128.285 94.9473C127.661 94.533 126.704 93.8843 125.957 93.0244L125.77 92.8096L125.622 92.5703C123.984 89.9153 123.216 88.0987 122.314 85.6885L122.274 85.582L122.242 85.4736C122.188 85.2938 122.139 85.1203 122.094 84.9443C117.831 77.6592 116.854 75.9117 113.377 70.1416C109.209 63.2262 109.641 58.4453 109.331 56.7861C109.231 56.2534 109.182 55.3814 109.145 54.5303C109.104 53.5666 109.068 52.2956 109.041 50.7695C108.986 47.7134 108.962 43.5772 108.99 38.7148C109 37.0417 109.039 35.88 109.15 35.0996C109.199 34.7579 109.31 34.079 109.689 33.4072C109.912 33.0134 110.257 32.5639 110.782 32.1855C111.314 31.8028 111.843 31.628 112.219 31.543C114.143 31.1079 115.711 31.9247 116.524 32.4551C117.404 33.0283 118.21 33.7986 118.877 34.4814C119.571 35.1922 120.161 35.845 120.753 36.4941C119.85 32.9748 119.005 30.5686 118.645 29.3486C117.394 25.1046 115.765 23.3466 113.972 20.8584C113.859 20.7016 113.644 20.4961 113.01 20.1914C112.681 20.0334 112.317 19.8839 111.828 19.6855C111.374 19.5013 110.798 19.2686 110.224 18.9971C108.888 18.3658 107.804 17.6831 106.95 17.1523C106.054 16.5957 105.439 16.2255 104.772 15.9395C103.064 15.2068 99.9439 13.9877 97.8973 12.6406C96.3834 11.644 95.2683 10.4781 94.4481 9.59375C93.5203 8.59334 93.1006 8.12225 92.6473 7.79492Z" fill="black"/>
</g>
<defs>
<filter id="filter0_d_369_303" x="0" y="0" width="237.969" height="288.1" filterUnits="userSpaceOnUse" color-interpolation-filters="sRGB">
<feFlood flood-opacity="0" result="BackgroundImageFix"/>
<feColorMatrix in="SourceAlpha" type="matrix" values="0 0 0 0 0 0 0 0 0 0 0 0 0 0 0 0 0 0 127 0" result="hardAlpha"/>
<feOffset dy="4"/>
<feGaussianBlur stdDeviation="2"/>
<feComposite in2="hardAlpha" operator="out"/>
<feColorMatrix type="matrix" values="0 0 0 0 0 0 0 0 0 0 0 0 0 0 0 0 0 0 0.25 0"/>
<feBlend mode="normal" in2="BackgroundImageFix" result="effect1_dropShadow_369_303"/>
<feBlend mode="normal" in="SourceGraphic" in2="effect1_dropShadow_369_303" result="shape"/>
</filter>
</defs>
</svg>
