<svg width="101" height="160" viewBox="0 0 101 160" fill="none" xmlns="http://www.w3.org/2000/svg">
<g filter="url(#filter0_d_369_374)">
<path fill-rule="evenodd" clip-rule="evenodd" d="M36.3792 0.0078125L37.0676 0.0507812C40.5271 0.281068 44.2953 0.788732 46.8382 1.02832C48.3153 1.16749 49.3727 1.22064 50.0559 1.18262C50.0622 1.18227 50.0684 1.18103 50.0745 1.18066C51.1992 0.412609 52.7341 0.302631 54.0003 1.01855C55.7171 1.98943 56.2892 4.11123 55.2776 5.75879C55.0347 6.15429 54.7464 6.47557 54.4446 6.73828C54.4183 16.7456 53.6631 27.5385 53.4241 31.5898C53.4674 31.644 53.5228 31.7106 53.595 31.7949C53.7005 31.9182 53.8799 32.1235 54.0344 32.3135C54.5251 32.9167 55.3231 33.4056 56.511 33.752C57.7034 34.0995 59.1317 34.2562 60.6624 34.2979C62.186 34.3393 63.6917 34.265 65.0549 34.2002C65.7187 34.1686 66.3736 34.1383 66.9446 34.1309C67.4846 34.1238 68.1092 34.1332 68.6614 34.2275C71.0417 34.6343 73.0677 36.0347 74.5501 37.1357C75.3889 37.7588 75.9786 38.2311 76.6497 38.709C77.2927 39.1668 77.7462 39.4302 78.0755 39.5576C78.9396 39.8919 79.5351 40.4919 79.9339 41.0293C80.3386 41.5749 80.6497 42.203 80.8997 42.8281C81.3987 44.076 81.7859 45.6514 82.1165 47.3613C82.7779 50.7826 83.3083 55.2837 83.9309 59.8369C84.4483 63.6201 85.527 67.4587 86.802 73.1357C87.7058 77.1597 88.6917 80.618 89.2229 84.0039C89.8743 88.156 90.3881 90.853 90.4993 98.8359C90.5309 101.108 90.153 103.196 89.7971 105.562C89.435 107.97 89.0429 110.936 88.9368 115.258C88.8969 116.885 89.3919 118.245 90.1575 119.654C90.5535 120.384 90.9911 121.073 91.4778 121.861C91.9457 122.619 92.4529 123.46 92.8753 124.355C94.062 126.871 95.6094 129.623 96.5921 132.285C96.9368 133.219 96.6151 134.222 95.8674 134.823C95.9653 134.939 96.0575 135.056 96.1419 135.174C97.1457 136.574 96.7768 138.491 95.3176 139.454C94.6334 139.906 93.8305 140.067 93.0676 139.968C92.0289 142.063 90.4579 143.518 88.7776 144.774C87.4557 145.763 86.679 146.505 85.6116 147.383C84.6865 148.143 83.431 149.099 81.7571 149.483C80.6499 149.738 79.2542 150.029 77.8372 150.381C76.3242 150.757 75.3429 151.074 75.0071 151.253C73.551 152.028 71.7396 151.6 70.8137 150.312C70.4985 150.63 70.0861 150.866 69.6067 150.971C68.3112 151.254 67.0216 150.475 66.7268 149.231C66.5462 148.47 66.3805 147.826 66.2327 147.261C66.0879 146.707 65.9503 146.19 65.8421 145.736C65.7311 145.271 65.6352 144.811 65.5794 144.338C59.4364 139.18 55.6863 137.804 51.5969 136.658C48.5581 135.807 46.6833 135.163 44.7766 133.852C43.8722 133.229 42.5558 132.218 41.1721 131.165C39.7544 130.086 38.2099 128.92 36.7571 127.906C34.6199 126.415 33.0778 124.025 31.9339 121.901C31.1552 120.456 29.3119 118.178 28.3538 113.426C26.7282 105.363 30.9802 99.9479 31.4749 98.5576C31.7962 97.6532 32.0817 96.8981 32.2903 96.1436C32.4959 95.3996 32.5706 94.8386 32.5374 94.4062C32.4909 93.8027 32.2599 93.102 31.8167 92.21C31.3541 91.2791 30.8104 90.414 30.1594 89.2695C28.808 86.8938 27.7628 86.3398 25.9944 84.6768C24.7583 83.5144 22.6472 82.287 20.2092 81.0254C18.0454 79.9056 15.5305 78.7163 13.8323 77.71C12.0754 77.1083 10.7703 76.5093 9.78639 75.8047C9.55226 75.637 9.3201 75.4712 9.0862 75.3037C7.76605 75.8718 6.16211 75.642 5.07155 74.6074C3.65438 73.2629 3.64118 71.0699 5.04225 69.71C6.12746 68.6567 7.0723 67.2849 8.1819 65.5322C8.2266 65.3034 8.27489 64.9491 8.31081 64.4141C8.34676 63.8782 8.39457 62.5633 8.46217 61.7705C8.54136 60.8423 8.70003 59.6159 9.18288 58.4658C9.70097 57.2319 10.7051 55.8439 12.5491 55.1426L12.9456 55.002C13.9181 54.6791 15.1986 54.3892 16.2796 54.1357C17.668 53.8102 19.1299 53.4614 20.5169 53.0254C21.9284 52.5816 23.0593 52.1073 23.8372 51.6123C24.5319 51.1702 24.6453 50.9054 24.6507 50.8926C25.2233 48.6762 25.8953 45.4178 26.5706 42.0693C27.0347 39.7679 27.7348 36.8447 28.5882 34.4492C29.2443 32.6075 29.486 30.3123 29.843 26.4736C30.2092 22.5367 30.3788 18.0054 30.5423 13.9375C30.6981 10.059 30.852 6.26459 31.2522 4.2666C31.3383 3.83667 31.5546 2.79874 32.2581 1.86133C33.1225 0.709518 34.4814 0.0045941 36.0608 0L36.3792 0.0078125ZM38.1428 7.08203C37.989 8.71727 37.876 11.1731 37.7542 14.2041C37.5932 18.2101 37.4175 22.94 37.0315 27.0898C36.6996 30.6586 36.4152 33.8882 35.4173 36.6895C34.7198 38.6473 34.0932 41.2154 33.6555 43.3857C32.9886 46.6931 32.2811 50.1469 31.6536 52.5732C31.0592 54.8706 29.3708 56.402 27.8264 57.3848C26.261 58.3809 24.4243 59.0844 22.7639 59.6064C21.0792 60.1361 19.3644 60.5425 17.9924 60.8643C16.9814 61.1013 16.2675 61.2717 15.7815 61.4043C15.7383 61.6145 15.6923 61.915 15.6565 62.335C15.5798 63.2347 15.591 63.7099 15.5139 64.8584C15.4551 65.7346 15.342 66.9186 14.9524 68.0195L14.8274 68.3721L14.6272 68.6914C13.9755 69.7304 13.2603 70.8513 12.4456 71.9482C12.5181 72.0002 12.5905 72.0524 12.6633 72.1045C13.0599 72.3885 13.7602 72.7605 15.0764 73.2324L15.679 73.4414L15.9436 73.5293L16.1809 73.6748C17.6857 74.594 19.9196 75.6299 22.4934 76.9619C24.8953 78.2049 27.5789 79.7036 29.3616 81.3799C30.7034 82.6417 32.5826 83.8931 34.3831 87.0586C34.911 87.9867 35.6233 89.1427 36.1594 90.2217C36.7148 91.3392 37.2254 92.6388 37.3352 94.0664C37.4249 95.2326 37.2079 96.3603 36.9407 97.3271C36.6764 98.2831 36.3084 99.2621 36.0296 100.047C34.9065 103.207 31.7748 106.087 33.0774 112.549C33.8625 116.443 35.1386 117.796 36.2083 119.781C37.2954 121.799 38.4129 123.353 39.5862 124.172C41.1301 125.249 42.7465 126.471 44.1614 127.548C45.6098 128.65 46.7984 129.561 47.5803 130.099C48.7802 130.924 49.9772 131.395 52.9446 132.227C57.6854 133.554 62.0963 135.251 68.8948 140.988C69.8268 141.37 70.441 142.294 70.3469 143.314C70.3211 143.595 70.346 143.929 70.5315 144.706C70.6254 145.1 70.7446 145.548 70.8987 146.138C70.9344 146.274 70.9707 146.417 71.009 146.565C71.252 146.292 71.5497 146.055 71.8967 145.87C73.0627 145.25 74.8464 144.765 76.2298 144.421C77.7094 144.053 79.3428 143.708 80.2649 143.496C80.3365 143.48 80.5938 143.4 81.4368 142.707C82.1376 142.131 83.3857 141.001 84.8342 139.918C86.359 138.778 87.0943 137.929 87.5012 136.794C87.8268 135.886 88.3728 135.027 89.1497 134.36L89.3196 134.222C90.0432 133.654 90.9059 133.304 91.8157 133.203C90.9379 131.012 89.7751 128.978 88.4924 126.26C88.1887 125.616 87.8013 124.964 87.3382 124.214C86.8938 123.494 86.3634 122.66 85.8899 121.788C84.9164 119.995 84.0612 117.842 84.1272 115.149C84.2393 110.581 84.6561 107.42 85.0344 104.904C85.419 102.347 85.713 100.712 85.6878 98.8975C85.5807 91.2122 85.1015 88.7471 84.4651 84.6904C83.9615 81.4805 83.0828 78.4892 82.0989 74.1084C80.893 68.7394 79.7117 64.4688 79.1604 60.4375C78.5176 55.7368 78.0155 51.4643 77.385 48.2031C77.0697 46.5721 76.7462 45.3283 76.4075 44.4814C76.2535 44.0964 76.1225 43.865 76.0364 43.7402C75.2108 43.3865 74.4423 42.887 73.7835 42.418C73.0894 41.9238 72.2538 41.2675 71.6057 40.7861C70.1135 39.6778 68.9175 38.9603 67.8186 38.7725C67.7467 38.7602 67.511 38.7405 67.011 38.7471C66.542 38.7532 65.9754 38.779 65.2923 38.8115C63.9613 38.8748 62.268 38.9604 60.5257 38.9131C58.7903 38.8659 56.8841 38.6863 55.1126 38.1699C53.3367 37.6521 51.5396 36.7488 50.2424 35.1543C50.1617 35.055 49.6378 34.4635 49.3762 34.0977C49.054 33.6469 48.5363 32.8025 48.5989 31.6982L48.8548 27.5195C49.1511 22.6515 49.5598 15.272 49.6253 8.11719C48.5334 8.11989 47.3225 8.03296 46.1331 7.9209C43.5553 7.67803 40.8832 7.31935 38.1428 7.08203Z" fill="black"/>
</g>
<defs>
<filter id="filter0_d_369_374" x="0" y="0" width="100.73" height="159.64" filterUnits="userSpaceOnUse" color-interpolation-filters="sRGB">
<feFlood flood-opacity="0" result="BackgroundImageFix"/>
<feColorMatrix in="SourceAlpha" type="matrix" values="0 0 0 0 0 0 0 0 0 0 0 0 0 0 0 0 0 0 127 0" result="hardAlpha"/>
<feOffset dy="4"/>
<feGaussianBlur stdDeviation="2"/>
<feComposite in2="hardAlpha" operator="out"/>
<feColorMatrix type="matrix" values="0 0 0 0 0 0 0 0 0 0 0 0 0 0 0 0 0 0 0.25 0"/>
<feBlend mode="normal" in2="BackgroundImageFix" result="effect1_dropShadow_369_374"/>
<feBlend mode="normal" in="SourceGraphic" in2="effect1_dropShadow_369_374" result="shape"/>
</filter>
</defs>
</svg>
