<svg width="152" height="110" viewBox="0 0 152 110" fill="none" xmlns="http://www.w3.org/2000/svg">
<g filter="url(#filter0_d_369_317)">
<path fill-rule="evenodd" clip-rule="evenodd" d="M73.1992 0.189475C74.8194 -0.00593814 77.1519 -0.0576604 79.415 0.0693578C81.6179 0.193038 84.0891 0.501522 85.8301 1.17678C86.6183 1.48254 87.3218 1.93912 87.8857 2.33694C88.177 2.54241 88.4664 2.75871 88.7334 2.95803C89.0083 3.1633 89.2618 3.35325 89.5185 3.53713C90.6027 4.31353 91.3303 4.66375 91.9619 4.7051C94.0526 4.84185 96.0336 4.74722 98.4121 4.79494C100.588 4.8386 103.012 5.00972 105.092 5.86037C108.422 7.22247 113.412 9.61039 117.54 11.0342C118.467 11.354 119.427 11.5442 120.681 11.8076C121.889 12.0614 123.293 12.3709 124.811 12.9336C127.802 14.0432 132.03 15.6132 135.89 18.3965C137.501 19.5585 139.375 20.2508 146.281 22.9727C147.332 23.3867 147.91 24.4315 147.742 25.4629C147.738 25.5766 147.728 25.6915 147.706 25.8067C147.462 27.0599 146.205 27.8864 144.899 27.6524C143.31 27.3675 142.436 27.2898 141.945 27.3018C141.896 27.303 141.855 27.3073 141.821 27.3096C141.785 27.357 141.743 27.4127 141.686 27.4893C141.617 27.5835 141.526 27.7057 141.426 27.835C140.99 28.3972 140.381 29.0756 139.364 29.7666C138.543 30.325 137.938 31.1105 137.089 32.3457C136.287 33.5116 135.273 35.066 133.721 36.4805C132.682 37.4266 130.901 38.3384 128.345 38.8828C124.284 39.7476 122.572 40.7907 120.937 41.9248C119.557 42.8818 114.753 46.7597 111.437 49.4688C109.498 51.052 107.473 52.4335 104.487 54.9912C97.8403 60.6856 96.0123 61.6263 93.4804 63.044C92.8263 63.4102 91.9965 63.7204 91.3135 63.9746C90.5586 64.2556 89.8239 64.5229 89.0967 64.8447C87.5879 65.5126 86.6028 66.2137 86.1484 67.0322C85.536 68.1356 85.0896 69.1794 84.8691 69.9932C84.7896 70.2868 84.7505 70.5131 84.7344 70.6748C84.78 70.7108 84.8306 70.7476 84.875 70.7852C85.0289 70.9155 85.2557 71.1251 85.4638 71.419C85.6758 71.7183 85.9124 72.1653 85.9736 72.753C86.033 73.3238 85.9069 73.8381 85.7265 74.2598C85.4008 75.0211 84.7792 75.7453 84.0293 76.4737C80.9243 79.4891 79.5953 81.6958 77.7822 84.7256C75.9183 87.8404 73.63 91.6715 68.6582 97.6299C67.9309 98.5014 66.679 98.7325 65.6826 98.2412C65.4117 99.9557 63.839 101.241 61.9892 101.179C58.4837 101.061 55.4035 100.893 53.0654 100.659C51.9049 100.543 50.8451 100.402 49.9756 100.225C49.5433 100.136 49.0829 100.023 48.6465 99.8721C48.2872 99.7479 47.5934 99.4831 46.9678 98.9453C46.3939 98.452 45.8194 97.8794 45.3388 97.3936C45.0496 97.181 44.7944 96.9245 44.581 96.6319C44.4036 96.4546 44.256 96.3097 44.1279 96.1924C43.9811 96.0579 43.9285 96.022 43.9521 96.0381C43.6206 95.8296 43.3366 95.5766 43.1025 95.293L43.0283 95.2305L42.9844 95.1406C42.7265 94.7901 42.5403 94.3993 42.4326 93.9893C41.7831 92.587 41.3354 91.4077 40.5625 90.0039C40.1759 89.3018 39.8236 88.7813 39.5146 88.4326C39.3263 88.2201 39.2109 88.1364 39.1787 88.1143C37.9496 87.6904 36.3808 87.028 35.1982 86.5606C33.7812 86.0004 32.8696 85.7002 32.4179 85.6328C31.299 85.4662 30.0657 85.3498 28.624 85.1778C27.3455 85.0252 25.7922 84.8175 24.5722 84.4463C21.8021 83.6034 19.8755 81.7833 18.9463 81.0821C17.6996 80.1413 16.8779 79.7039 15.7226 79.3565C15.474 79.2817 15.15 79.2152 14.6709 79.1377C14.2833 79.075 13.5863 78.9768 13.0283 78.8701C11.9618 78.6662 9.87227 78.1995 8.46873 76.4317C7.61726 75.3591 7.10234 74.2179 6.76951 73.0596C6.51489 72.1732 6.41438 71.0618 6.34373 70.1074C6.27494 69.1782 6.19411 67.6939 6.10642 66.4405C5.91286 63.6736 5.58328 60.2509 4.75779 56.4346C4.35624 54.578 3.51664 49.5603 4.36716 42.7549C4.47163 41.9192 4.62258 41.1737 4.75681 40.5547C4.90319 39.8797 4.9999 39.4806 5.07126 39.0752C5.10154 38.9032 5.11569 38.7806 5.12302 38.6983C4.29893 37.127 4.83508 35.1821 6.41599 34.2207C7.69049 33.4459 9.27755 33.5335 10.4365 34.3223C10.8168 33.995 11.2591 33.5996 11.7851 33.1348C12.7107 32.3169 13.8537 31.3333 15.0478 30.6055C15.6521 30.2372 16.2946 29.9596 16.8271 29.7442C17.4373 29.4973 17.8173 29.3619 18.2646 29.167C18.6274 29.0089 18.8278 28.8926 18.9316 28.8242C18.928 28.7315 18.9213 28.6102 18.9052 28.4492C18.8666 28.062 18.7585 27.2673 18.7158 26.5547C18.6478 25.421 19.3527 24.6998 19.7685 24.3916C20.1682 24.0955 20.5923 23.9396 20.8535 23.8565C21.4083 23.6798 22.0772 23.5717 22.7021 23.4922C23.9916 23.3282 25.7642 23.2109 27.6318 23.0811C31.5024 22.8121 35.9794 22.4744 39.2969 21.6231C40.7153 21.2591 42.0346 20.941 43.2402 20.5615C44.464 20.1763 45.3145 19.8009 45.8281 19.4297C47.8432 17.9727 49.1846 16.4393 53.6914 11.9375C56.3778 9.25407 59.9871 5.98594 64.0088 3.74905C66.9292 2.12465 69.3326 0.655929 73.1992 0.189475ZM79.1347 4.67873C77.0805 4.56342 75.0539 4.61928 73.7998 4.77053C71.062 5.10077 69.4933 6.03525 66.4209 7.74416C62.9945 9.65006 59.7602 12.5396 57.1611 15.1358C52.922 19.3703 51.1454 21.3652 48.7236 23.1162C47.5603 23.9573 46.0952 24.523 44.7412 24.9492C43.3687 25.3813 41.8467 25.7474 40.539 26.083C36.6965 27.0691 31.7365 27.4254 27.9795 27.6865C26.2356 27.8077 24.7781 27.9057 23.6953 28.0264C23.7457 28.5337 23.8203 29.3904 23.5713 30.2071C22.9909 32.1091 21.196 32.961 20.2549 33.3711C19.7471 33.5924 19.0945 33.8383 18.6972 33.999C18.2223 34.1912 17.8809 34.3482 17.6269 34.503C16.8391 34.9832 15.9809 35.7032 15.0439 36.5313C14.3023 37.1866 13.42 37.9952 12.624 38.5879C12.6211 38.5925 12.6183 38.5976 12.6152 38.6026C12.5698 38.676 12.4819 38.8218 12.3799 38.9678C12.3662 38.9873 12.3491 39.0055 12.334 39.0264C12.3076 39.4816 12.2471 39.89 12.1875 40.2285C12.0858 40.806 11.9288 41.4744 11.8222 41.9658C11.7036 42.5131 11.6023 43.0342 11.5342 43.5791C10.7987 49.4633 11.5377 53.707 11.8232 55.0274C12.7442 59.2852 13.1036 63.0612 13.3076 65.9766C13.4186 67.564 13.4634 68.5429 13.5429 69.6172C13.5783 70.095 13.6136 70.4713 13.6513 70.7666C13.6699 70.9116 13.6869 71.0225 13.7021 71.1045C13.7159 71.1785 13.7252 71.2139 13.7265 71.2188C13.8224 71.5525 13.9274 71.7937 14.04 71.9854C14.1317 72.0102 14.2617 72.0432 14.4394 72.0772C14.869 72.1593 15.2168 72.2028 15.8711 72.3086C16.4337 72.3997 17.1503 72.5281 17.8818 72.7481C20.0762 73.4081 21.6634 74.3236 23.4062 75.6387C25.1729 76.9718 25.613 77.4976 26.7539 77.8447C27.2487 77.9952 28.162 78.1443 29.5146 78.3057C30.7051 78.4477 32.2699 78.6022 33.5244 78.7891C34.9646 79.0036 36.6638 79.6505 37.9482 80.1582C39.4476 80.7509 40.6405 81.2642 41.6601 81.6123C43.1447 82.1193 44.2405 83.0761 45.0117 83.9463C45.7975 84.8329 46.4327 85.8421 46.9433 86.7696C47.6157 87.9907 48.3198 89.5815 48.8095 90.6787C48.9036 90.7365 49.0071 90.8032 49.1142 90.8799L49.3388 91.0508L49.5605 91.2432C50.0563 91.7029 50.386 92.2236 50.6045 92.6602C50.8822 92.9409 51.1393 93.1972 51.3857 93.4287C51.4153 93.4352 51.4467 93.4443 51.4804 93.4512C51.9886 93.5551 52.7604 93.6649 53.8144 93.7705C55.9062 93.9801 58.7933 94.1408 62.2422 94.2569C63.1597 94.2877 63.9848 94.646 64.6015 95.209C64.6808 95.0466 64.7804 94.8903 64.9023 94.7442C69.6539 89.0498 71.8021 85.4475 73.6103 82.4258C75.4693 79.3193 77.0486 76.6846 80.6074 73.2285C80.613 73.223 80.6184 73.2174 80.624 73.2119C80.591 73.1664 80.5574 73.1192 80.5254 73.0703C80.0216 72.3016 79.9107 71.4628 79.9131 70.8184C79.9155 70.1496 80.0405 69.4684 80.2129 68.8321C80.5584 67.5564 81.1786 66.1645 81.9013 64.8623C83.1266 62.6549 85.3477 61.42 87.082 60.6524C87.9764 60.2565 88.8734 59.9305 89.5732 59.6699C90.3446 59.3828 90.7939 59.2032 91.0556 59.0567C93.297 57.8016 94.8649 57.0445 101.283 51.5459C104.167 49.0754 106.871 47.1344 108.317 45.9531C111.542 43.3198 116.539 39.2773 118.117 38.1826C120.204 36.7356 122.511 35.3954 127.303 34.375C129.281 33.9538 130.179 33.3406 130.408 33.1319C131.484 32.1519 132.193 31.0814 133.072 29.8028C133.904 28.5939 134.941 27.1158 136.584 25.999C137.086 25.6582 137.347 25.3614 137.565 25.0801C137.629 24.9986 137.688 24.9176 137.762 24.8184C137.801 24.7651 137.848 24.7028 137.897 24.6367C135.704 23.7207 134.278 23.0095 132.999 22.0869C129.737 19.7351 126.099 18.3613 123.076 17.2403C121.927 16.8141 120.831 16.5661 119.651 16.3184C118.518 16.0803 117.202 15.8244 115.913 15.3799C111.656 13.9116 106.075 11.281 103.206 10.1074C102.044 9.63209 100.431 9.4537 98.3115 9.41115C96.3952 9.37272 93.822 9.45459 91.6347 9.31155C89.5014 9.17193 87.7979 8.06611 86.6406 7.23733C86.3371 7.01996 86.0423 6.79866 85.7783 6.60158C85.5063 6.39854 85.266 6.22049 85.0351 6.05764C84.5551 5.719 84.2432 5.54186 84.0273 5.45803C83.0557 5.08114 81.249 4.79746 79.1347 4.67873Z" fill="black"/>
</g>
<defs>
<filter id="filter0_d_369_317" x="0" y="0" width="151.771" height="109.181" filterUnits="userSpaceOnUse" color-interpolation-filters="sRGB">
<feFlood flood-opacity="0" result="BackgroundImageFix"/>
<feColorMatrix in="SourceAlpha" type="matrix" values="0 0 0 0 0 0 0 0 0 0 0 0 0 0 0 0 0 0 127 0" result="hardAlpha"/>
<feOffset dy="4"/>
<feGaussianBlur stdDeviation="2"/>
<feComposite in2="hardAlpha" operator="out"/>
<feColorMatrix type="matrix" values="0 0 0 0 0 0 0 0 0 0 0 0 0 0 0 0 0 0 0.25 0"/>
<feBlend mode="normal" in2="BackgroundImageFix" result="effect1_dropShadow_369_317"/>
<feBlend mode="normal" in="SourceGraphic" in2="effect1_dropShadow_369_317" result="shape"/>
</filter>
</defs>
</svg>
