<svg width="140" height="155" viewBox="0 0 140 155" fill="none" xmlns="http://www.w3.org/2000/svg">
<g filter="url(#filter0_d_369_109)">
<path d="M112.282 0C116.288 0.00603034 120.177 0.286231 123.969 2.85449C125.942 4.19108 128.297 6.38629 129.711 7.5459C130.548 8.23214 131.163 8.66786 131.607 8.90137C131.653 8.92584 131.694 8.94471 131.729 8.96094C133.493 8.79015 135.154 9.97784 135.573 11.8018C136.032 13.7959 134.832 15.794 132.893 16.2656C132.679 16.3175 132.468 16.3535 132.261 16.3779C130.992 17.8639 129.59 19.4579 128.344 20.5039C126.738 21.8515 125.783 22.6018 124.752 23.7354C123.25 25.387 121.39 26.8468 118.768 31.375C118.514 31.8128 118.523 31.8378 118.505 31.9365C118.453 32.2231 118.421 32.7365 118.397 34.1396C118.351 36.731 118.349 41.9487 118.208 45.0127C118.088 47.6254 117.874 49.5236 117.786 50.7969C117.696 52.0952 117.702 53.0608 117.936 54.3916C118.333 56.6523 118.434 58.3272 118.495 59.6367C118.56 61.0119 118.582 61.6732 118.739 62.3066C119.013 63.4088 119.124 64.5006 119.218 65.2939C119.323 66.1791 119.407 66.6867 119.543 67.0557C120.244 68.9507 120.491 71.6331 120.312 80.7344C120.263 83.1964 119.607 84.8966 118.693 86.1699C118.265 86.7645 117.82 87.2097 117.513 87.5127C117.438 87.5866 117.378 87.6475 117.325 87.6992C117.657 88.2859 117.748 88.7997 117.765 88.8809C117.825 89.1786 117.846 89.445 117.853 89.6436C117.867 90.0516 117.835 90.4805 117.755 90.9023C117.61 91.6699 117.201 92.9748 116.027 93.9727C115.4 94.506 114.743 94.7803 114.257 94.9316C113.774 95.082 113.319 95.1523 113 95.1934C112.7 95.232 112.341 95.2631 112.161 95.2812C111.93 95.3046 111.794 95.3232 111.695 95.3418C111.225 95.4307 110.884 95.7615 109.318 97.3193C108.719 97.914 107.75 98.8557 106.499 99.4521C105.79 99.7905 105.022 100.003 104.216 100.056C104.171 100.264 104.108 100.481 104.02 100.701C103.688 101.522 103.086 102.214 102.293 102.639C101.579 103.022 100.907 103.084 100.492 103.082C100.321 103.081 100.152 103.072 100.053 103.067C99.9796 103.064 99.9213 103.061 99.8673 103.059C99.9254 103.281 99.9839 103.518 100.033 103.754C100.218 104.635 100.657 107.051 98.9552 109.03C98.0916 110.035 97.0199 110.341 96.4435 110.451C95.8493 110.564 95.2896 110.558 94.9454 110.546C94.591 110.534 94.1805 110.502 93.9171 110.484C93.6087 110.464 93.3569 110.45 93.1241 110.45C92.6957 110.45 92.4962 110.499 92.424 110.523C92.414 110.538 92.4006 110.561 92.3839 110.592C92.0913 111.14 91.8657 112.105 91.4523 113.998C91.1134 115.55 90.6257 117.812 89.5812 119.691C88.8383 121.028 87.7299 121.859 87.171 122.282C86.4507 122.827 86.1921 123.009 85.9532 123.276C85.2897 124.018 84.8844 124.673 84.299 125.539C83.8484 126.205 82.909 127.642 81.299 128.409C78.6786 129.658 75.732 129.329 74.3761 129.251C73.8566 129.221 73.5089 129.213 73.2706 129.217C71.4469 131.82 69.7993 133.507 68.2306 134.765C67.406 135.426 66.6459 135.935 65.9904 136.357C65.4274 136.72 65.0227 136.971 64.6339 137.234C63.7887 140.882 61.622 143.957 58.2794 145.945C57.7779 146.244 56.4341 146.966 54.8038 146.686C53.816 146.516 52.8145 145.983 52.089 145.008C51.4254 144.116 51.1991 143.132 51.129 142.37C51.0268 141.258 50.9795 140.002 50.9327 138.898C50.9033 138.203 50.8718 137.557 50.8331 136.968C49.9602 137.157 48.8719 137.218 47.6925 136.829C45.9343 136.249 44.8912 134.919 44.423 134.268C44.3504 134.282 44.268 134.3 44.174 134.317C43.3719 134.467 41.0903 134.903 39.0646 133.362C38.1743 132.685 37.2605 131.856 36.4777 131.146C35.6418 130.389 34.9205 129.734 34.2433 129.202C33.9712 128.988 33.7458 128.826 33.5626 128.704C33.4322 128.822 33.2929 128.951 33.1447 129.091C32.7215 129.49 32.1253 130.074 31.5577 130.571C30.4303 131.559 28.6327 132.944 26.1915 133.113C25.6631 133.15 24.5251 133.259 23.5011 133.161C22.5822 133.073 20.4359 132.713 19.2316 130.595C18.9085 130.026 18.7096 129.465 18.5939 129.122C18.5368 128.953 18.4721 128.751 18.4347 128.637C18.4148 128.576 18.3951 128.523 18.379 128.476C18.2293 128.43 18.0159 128.367 17.7238 128.295C16.7818 128.062 16.3104 127.99 15.1691 127.721C14.4501 127.551 13.1402 127.238 12.1486 126.617C11.7118 126.344 10.3766 125.429 10.1046 123.578C9.80828 121.559 11.0009 120.23 11.5197 119.748L11.7238 119.567C12.209 119.16 12.7354 118.848 13.0323 118.672C13.4992 118.396 13.8077 118.227 14.2052 117.977C14.955 117.504 15.4164 117.101 15.6827 116.703C16.1455 116.012 16.6914 115.371 17.09 114.9C17.5342 114.376 17.8754 113.972 18.1759 113.548C18.7245 112.773 18.9997 112.121 19.0226 111.296C19.0615 109.892 19.0381 108.763 18.9454 107.947C18.8933 107.935 18.8394 107.925 18.7863 107.912C18.4811 107.836 18.07 107.717 17.632 107.516C16.8134 107.139 15.9607 106.519 15.3107 105.537C14.6699 104.569 14.3831 103.488 14.3097 102.438C14.2011 100.883 14.7017 99.4346 15.047 98.5518C15.1705 98.236 15.3175 97.8944 15.4659 97.5596C14.9757 97.4264 14.4143 97.2123 13.8712 96.8516C12.6633 96.0492 11.8495 94.7359 11.7208 93.1318C11.6048 91.6849 11.0913 90.5787 10.3507 89.2783C10.024 88.7046 9.48872 87.8197 9.10071 87.0303C8.68015 86.1745 8.23173 85.0583 8.1134 83.7314C7.73863 79.5267 6.90215 77.2098 6.17102 75.5479C5.89893 74.9294 5.24958 73.5854 4.94446 72.8447C4.52425 71.8246 4.14459 70.6411 4.04309 69.2012C3.95649 67.9724 3.79455 64.9519 5.90637 62.7383C6.69751 61.9091 7.59466 61.2709 8.2843 60.8008C9.07788 60.2599 9.57197 59.953 10.0948 59.5508C11.0082 58.8482 11.0579 58.5509 11.0753 58.2734C11.1732 56.7155 11.0759 54.9126 10.9308 52.875C10.7931 50.9414 10.6052 48.7247 10.6163 46.7305C10.6271 44.7992 10.8105 42.4794 11.7814 40.4971C12.915 38.1825 14.9661 36.6428 17.7697 36.3662C21.0049 36.0473 24.0296 36.4135 25.799 36.5205C26.3885 36.5562 26.8021 36.5597 27.0919 36.5498C27.1185 36.4868 27.1508 36.4118 27.1906 36.3193C27.4585 35.6966 27.8931 34.7503 28.6339 33.8174C31.2825 30.4822 35.0536 29.5394 36.9103 28.8779C39.694 27.8862 42.196 28.0279 44.0001 28.1846C45.2145 28.29 45.9213 28.3527 46.3927 28.3584C46.6559 27.8479 46.9032 27.3059 47.3859 26.3574C48.303 24.5555 49.9667 21.5062 52.9777 20.0049C53.4694 19.7597 54.1613 19.2562 55.3029 18.3545C56.3358 17.5386 57.6609 16.4617 59.1056 15.4863C62.005 13.5289 65.9861 11.5528 70.8146 12.2949C72.1479 12.4999 74.4061 12.9706 75.6632 15.1973L75.7823 15.418L75.9542 15.7705C76.343 16.5951 76.6439 17.4394 76.8829 18.125C77.1846 18.9904 77.3961 19.6244 77.6476 20.2109C77.893 20.7833 78.0768 21.0602 78.1866 21.1855C78.1979 21.1984 78.2076 21.2084 78.215 21.2158C78.8997 21.3842 80.2226 21.45 80.8947 21.3379C81.2022 21.2866 81.3336 21.2096 81.465 21.1152C81.5614 21.0459 81.6868 20.9429 81.8751 20.7656C82.0949 20.5587 82.2582 20.3899 82.587 20.0684C85.3005 17.415 87.9532 15.1252 92.34 10.3037C93.1068 9.46082 93.6291 8.43159 94.4337 6.91211C95.0736 5.70365 96.1802 3.54407 98.1749 2.29102L98.4406 2.13477C99.0769 1.78759 99.8227 1.54173 100.434 1.36523C101.244 1.13129 102.24 0.903209 103.39 0.703125C105.693 0.302174 108.721 -0.00535016 112.282 0ZM112.272 7.4209C109.111 7.41616 106.49 7.6906 104.595 8.02051C103.645 8.18584 102.904 8.36118 102.386 8.51074C102.128 8.58536 101.968 8.64229 101.885 8.67285C101.834 8.72418 101.748 8.8209 101.629 8.98926C101.389 9.32736 101.134 9.77894 100.773 10.4609C100.13 11.674 99.1457 13.6856 97.6095 15.374C93.0318 20.4054 90.0306 23.0312 87.5607 25.4463C86.6513 26.3355 85.0752 28.1583 82.0499 28.6631C80.3557 28.9457 78.0192 28.8152 76.4425 28.4111C73.2514 27.5933 71.7927 24.9503 71.0441 23.2041C70.6603 22.309 70.336 21.3384 70.089 20.6299C69.955 20.2455 69.8361 19.9171 69.7247 19.6318C67.4929 19.2966 65.3759 20.1313 63.0665 21.6904C61.9031 22.476 60.841 23.3384 59.6993 24.2402C58.6665 25.0561 57.3958 26.05 56.1271 26.6826C55.465 27.0127 54.7212 27.9502 53.7804 29.7988C53.4419 30.4639 52.8833 31.652 52.4874 32.3682C52.2605 32.7787 51.9518 33.2972 51.5587 33.7744C51.2018 34.2077 50.4883 34.9659 49.3644 35.3369C47.1499 36.0675 44.6812 35.6919 43.3937 35.5801C41.8042 35.4421 40.5648 35.4302 39.2726 35.8906C36.5621 36.8563 35.2713 37.1918 34.2238 38.5107C34.1038 38.6618 33.9804 38.8792 33.7902 39.3213C33.7388 39.4407 33.5527 39.8903 33.4532 40.1143C33.3243 40.4045 33.1174 40.8462 32.8204 41.2891C31.7361 42.9063 30.1658 43.5535 28.879 43.8037C27.6828 44.0363 26.4076 43.9911 25.3761 43.9287C23.0769 43.7897 20.962 43.5072 18.4591 43.7539C18.1381 43.7856 18.2514 43.7851 18.2277 43.835C18.0403 44.2175 17.8425 45.0903 17.8331 46.7725C17.8241 48.3918 17.978 50.2122 18.129 52.333C18.2727 54.3502 18.4113 56.6223 18.2775 58.752C18.0604 62.2056 16.0324 64.2523 14.4181 65.4941C13.6769 66.0642 12.7938 66.6304 12.2716 66.9863C11.7889 67.3154 11.4651 67.5587 11.2374 67.7627C11.2296 67.8313 11.2221 67.9234 11.2198 68.041C11.2166 68.2169 11.2242 68.422 11.2413 68.665C11.2664 69.0199 11.354 69.3775 11.59 69.9502C11.9411 70.8025 12.1366 71.1048 12.7452 72.4883C13.776 74.8312 14.846 77.9499 15.3009 83.0537C15.3024 83.0698 15.3203 83.2342 15.5411 83.6836C15.7951 84.2004 16.0784 84.6497 16.5782 85.5273C17.2774 86.7549 18.1261 88.3738 18.5988 90.4668C18.7956 90.4787 19.0193 90.4946 19.2491 90.5215C19.479 90.5484 19.7622 90.5893 20.0695 90.6621L20.3839 90.7461L20.5636 90.8037C21.4639 91.1084 22.4221 91.7194 23.0695 92.8057C23.7187 93.8954 23.7788 95.0063 23.7247 95.7461C23.6282 97.0663 23.0626 98.3573 22.7491 99.0635C22.3801 99.8951 22.1178 100.425 21.8771 100.998C22.0443 101.044 22.2307 101.102 22.4279 101.176L22.7443 101.304L22.9972 101.425C24.2259 102.057 24.9193 103.103 25.295 103.897C25.6978 104.749 25.9051 105.655 26.0265 106.43C26.2703 107.985 26.2834 109.815 26.2365 111.508C26.1588 114.304 25.0974 116.382 24.0099 117.918C23.4924 118.649 22.9395 119.295 22.5323 119.775C22.0796 120.31 21.8159 120.629 21.6281 120.91C21.4665 121.152 21.2963 121.379 21.1222 121.596C21.533 121.751 21.9532 121.939 22.34 122.172L22.5353 122.296L22.8175 122.494C24.1758 123.512 24.771 124.868 25.0704 125.677C25.0789 125.7 25.0861 125.724 25.0948 125.748C25.2748 125.736 25.4682 125.725 25.7042 125.709C25.7186 125.708 26.0046 125.687 26.8771 124.923C27.3092 124.544 27.692 124.164 28.2638 123.624C28.7823 123.134 29.4212 122.549 30.1398 122.021L30.3107 121.899C32.0829 120.695 33.9831 120.896 35.3097 121.358C36.5924 121.805 37.7446 122.613 38.6271 123.307C39.5459 124.029 40.4703 124.872 41.2511 125.58C41.8706 126.142 42.4031 126.621 42.88 127.016C42.8825 127.015 42.8853 127.015 42.8878 127.015C43.0583 126.983 43.1976 126.953 43.4425 126.903C43.6547 126.861 43.9343 126.806 44.2306 126.765C44.7257 126.695 45.626 126.602 46.6183 126.873L46.8185 126.933L47.0197 127.002C48.005 127.365 48.6932 127.972 49.1349 128.446C49.4617 128.797 49.751 129.19 49.9376 129.451C50.0226 129.41 50.121 129.364 50.2394 129.307C50.5169 129.173 51.0384 128.922 51.6105 128.756L51.8195 128.7C52.8726 128.447 54.0609 128.552 55.1417 129.218C56.1611 129.846 56.7196 130.753 57.0187 131.377C57.5071 132.396 57.7302 133.582 57.8556 134.554C58.3162 133.141 59.2242 132.051 60.254 131.32L60.754 130.976C61.2575 130.638 61.76 130.326 62.1564 130.07C62.7283 129.702 63.2521 129.347 63.7941 128.912C64.8433 128.071 66.1312 126.793 67.7491 124.396L67.9611 124.102C69.0485 122.687 70.5155 122.138 71.6749 121.932C72.8055 121.731 73.9885 121.796 74.7784 121.842C76.5558 121.944 77.4303 121.968 78.0441 121.763C78.1141 121.672 78.2188 121.53 78.3741 121.301C78.8078 120.66 79.5584 119.463 80.6427 118.251C81.4771 117.319 82.4702 116.625 82.8947 116.304C83.1804 116.088 83.3098 115.97 83.3566 115.928C83.7496 115.18 84.0413 114.062 84.4103 112.372C84.7182 110.962 85.1507 108.718 86.0568 107.021C87.7186 103.908 90.4581 103.181 92.3956 103.053C92.377 102.963 92.3564 102.873 92.34 102.782C92.0006 100.903 92.8376 99.4505 93.3488 98.75C93.9033 97.9902 94.5684 97.4242 95.0294 97.0742C95.1973 96.9468 95.3692 96.8304 95.5421 96.7236C95.2485 95.6459 95.3098 94.5281 95.6847 93.542C96.0408 92.6055 96.9001 91.3039 98.5275 90.8408L98.7745 90.7773C99.997 90.5052 101.034 90.8303 101.649 91.1035C102.283 91.3856 102.816 91.7707 103.112 91.9883C103.459 92.2431 103.594 92.3491 103.773 92.4775C103.914 92.3552 104.084 92.1986 104.301 91.9834C105.124 91.1654 107.252 88.6365 110.389 88.043C110.584 88.0061 110.774 87.9772 110.948 87.9541C111.161 87.4982 111.467 87.079 111.865 86.7305C112.067 86.5543 112.283 86.4053 112.507 86.2822C112.716 85.7143 112.979 85.3359 113.154 85.085C113.503 84.5883 113.973 84.1491 114.184 83.9414C114.459 83.67 114.653 83.4655 114.822 83.2295C115.101 82.8411 115.471 82.1512 115.501 80.6348C115.686 71.2302 115.346 69.6246 115.046 68.8145C114.672 67.8017 114.539 66.7136 114.442 65.8926C114.333 64.9793 114.257 64.2529 114.077 63.5303C113.77 62.2922 113.743 61.0199 113.69 59.875C113.633 58.6638 113.545 57.2296 113.2 55.2715C112.874 53.4183 112.879 52.0174 112.987 50.4453C113.098 48.8479 113.283 47.3699 113.401 44.7793C113.538 41.8016 113.537 36.8257 113.586 34.0488C113.609 32.7683 113.635 31.8009 113.777 31.0225C113.954 30.0565 114.294 29.4305 114.634 28.8438C117.598 23.7251 119.981 21.7398 121.237 20.3574C122.548 18.9165 123.829 17.9061 125.302 16.6699C125.871 16.1923 126.493 15.5492 127.159 14.8115C126.468 14.3512 125.809 13.8377 125.212 13.3486C123.105 11.6216 121.646 10.1678 119.998 9.05176C118.074 7.74897 116.029 7.42656 112.272 7.4209Z" fill="black"/>
</g>
<defs>
<filter id="filter0_d_369_109" x="0" y="0" width="139.671" height="154.749" filterUnits="userSpaceOnUse" color-interpolation-filters="sRGB">
<feFlood flood-opacity="0" result="BackgroundImageFix"/>
<feColorMatrix in="SourceAlpha" type="matrix" values="0 0 0 0 0 0 0 0 0 0 0 0 0 0 0 0 0 0 127 0" result="hardAlpha"/>
<feOffset dy="4"/>
<feGaussianBlur stdDeviation="2"/>
<feComposite in2="hardAlpha" operator="out"/>
<feColorMatrix type="matrix" values="0 0 0 0 0 0 0 0 0 0 0 0 0 0 0 0 0 0 0.25 0"/>
<feBlend mode="normal" in2="BackgroundImageFix" result="effect1_dropShadow_369_109"/>
<feBlend mode="normal" in="SourceGraphic" in2="effect1_dropShadow_369_109" result="shape"/>
</filter>
</defs>
</svg>
