<svg width="125" height="171" viewBox="0 0 125 171" fill="none" xmlns="http://www.w3.org/2000/svg">
<g filter="url(#filter0_d_369_290)">
<path fill-rule="evenodd" clip-rule="evenodd" d="M106.208 0.00619946C106.731 -0.0283405 107.87 0.0519262 108.62 1.02182L108.763 1.22788L108.804 1.29136L108.84 1.35679C108.857 1.38635 108.87 1.41722 108.885 1.44663C109.273 1.81863 109.531 2.31815 109.581 2.88315C109.639 3.54528 109.69 3.89333 109.728 4.08725C109.759 4.24321 109.781 4.30442 109.829 4.4437C109.99 4.91254 110.493 6.02267 111.514 7.61362L111.56 7.68491L111.6 7.75913C113.33 10.9518 114.926 14.8449 118.757 24.7894C119.754 25.4054 120.416 26.4794 120.416 27.7025C120.416 27.9381 120.419 29.3954 120.276 30.6087C120.199 31.2645 120.086 31.8101 119.996 32.2308C119.9 32.6795 119.847 32.9178 119.811 33.1781L119.802 33.2425L119.791 33.306C119.094 37.2169 116.713 41.8155 114.371 44.5355C111.898 47.4074 110.658 48.7869 109.236 50.2953C108.659 50.9071 107.933 51.4241 107.482 51.7474C106.935 52.1399 106.494 52.4481 106.049 52.8148C105.21 53.5079 104.633 54.1993 104.344 55.1039C103.384 58.1156 102.341 60.1433 101.896 63.2982C101.569 65.6199 101.177 67.5619 100.923 68.9857C100.647 70.5278 100.562 71.3369 100.605 71.8773C100.758 73.7921 100.434 76.2775 99.9333 78.471C99.4413 80.625 98.6467 83.0795 97.5348 84.764C97.0974 85.4267 96.748 86.2615 95.6149 88.4896C94.5765 90.5315 93.0738 93.3157 90.6091 97.2259C88.2338 100.994 84.4148 106.767 82.5466 109.677C81.6099 111.136 81.1538 111.919 80.9147 112.349C80.7912 112.571 80.728 112.694 80.6432 112.853C80.5728 112.985 80.4248 113.264 80.2038 113.563C78.231 116.234 74.8311 120.135 73.194 121.538C71.3665 123.105 68.8648 125.385 67.6208 126.759C67.0785 127.358 66.4764 127.988 65.9157 128.576C65.3393 129.18 64.7969 129.749 64.3112 130.291C63.8203 130.839 63.4444 131.295 63.1852 131.661C63.0392 131.868 62.9709 131.989 62.946 132.035C62.7068 133.029 62.5813 134.326 62.6706 135.559C62.7685 136.91 63.0882 137.713 63.3171 138.02C64.5767 139.706 66.0186 141.585 67.2682 144.482C67.9987 146.175 69.161 149.731 69.6813 152.988C69.9346 154.573 70.0956 156.432 69.7868 158.057C69.6309 158.877 69.3045 159.925 68.5436 160.851C67.6911 161.888 66.4437 162.579 64.9636 162.7C63.5471 162.815 62.1768 162.71 61.0358 162.583C59.6709 162.432 59.0507 162.316 58.0886 162.229C57.6684 162.191 57.2286 162.164 56.7126 162.133C56.2208 162.103 55.6561 162.068 55.0964 162.013C54.0515 161.909 52.5835 161.701 51.2497 161.025C49.5936 160.185 47.3353 159.125 45.3805 158.24C44.2799 157.741 43.4811 157.536 41.7282 156.912C40.0841 156.328 38.0956 155.526 35.3141 154.052C33.1858 152.924 31.1763 151.786 29.485 150.655C27.8473 149.559 26.2519 148.306 25.1784 146.893C24.4816 145.976 23.8015 145.407 23.0378 144.822C22.3687 144.309 21.0928 143.426 20.1471 142.183C18.3838 139.865 16.9493 136.91 16.8259 132.347C16.6997 127.68 17.8859 120.987 19.4645 115.096C20.2551 112.146 22.1141 108.376 24.5202 103.567C25.2513 102.105 25.7654 100.835 26.3171 99.4857C26.8625 98.1514 27.4515 96.7238 28.28 95.1625C30.299 91.3571 31.8063 88.8874 32.9841 87.013C34.1927 85.0895 34.8866 84.0417 35.4889 82.8167C36.2519 81.2652 36.9383 80.1649 37.7057 78.4544C38.4359 76.8268 38.6917 75.7262 38.6423 75.1361C38.4284 72.5906 37.4569 71.1932 36.279 69.5394C36.0689 69.2444 35.802 68.9197 35.4245 68.4681C35.0813 68.0576 34.6327 67.5246 34.2311 66.9691C33.5237 65.9906 32.2967 64.0821 32.735 61.7337L32.8386 61.2416C33.1136 60.0532 33.6011 58.6134 33.8591 57.6927C34.2191 56.4078 34.4981 55.0687 34.5104 53.5404C34.538 50.1078 34.4078 47.2469 34.2048 45.1673C34.1028 44.1228 33.9872 43.3214 33.8757 42.766C33.8346 42.5617 33.7993 42.4218 33.7761 42.3353C33.4426 41.9397 32.7669 41.4575 31.6921 41.1654C30.0818 40.7279 25.5911 39.6782 21.7702 39.2962C17.5919 38.8787 10.3459 39.5969 7.96941 39.8255C5.98647 40.0163 4.21721 38.6277 4.01824 36.7249C3.81962 34.8223 5.26591 33.1248 7.24871 32.9339C7.56815 32.9032 8.0316 32.8607 8.60515 32.807C8.48252 32.2673 8.56948 31.7218 8.82097 31.2562C8.29737 30.978 7.87951 30.515 7.68816 29.9232C7.44343 29.1656 7.1876 28.3466 7.06804 26.7054C6.95762 25.1892 6.9583 22.9691 7.07097 21.3753L7.07488 21.3128L7.08269 21.2523C7.31313 19.439 8.09133 17.7222 8.78386 16.3871C8.71687 16.2523 8.6625 16.1095 8.62273 15.9593C8.35666 14.9535 8.82261 13.933 9.69988 13.4193C9.57433 12.9044 9.63118 12.3461 9.90398 11.8392C10.5139 10.7067 11.9649 10.2629 13.1452 10.848C13.6301 11.0885 14.0679 11.4363 14.3932 11.8929C15.7121 11.3906 16.927 10.8398 18.0026 10.2865L18.1276 10.221L18.2594 10.1722C19.3005 9.77962 20.3752 9.64548 20.9186 9.58921C21.218 9.10747 21.68 8.76457 22.2038 8.59214C22.4998 8.14645 22.7936 7.68646 23.0563 7.2562L23.193 7.05014C23.9057 6.06281 25.0258 5.68198 25.4626 5.54624L25.6052 5.50522C27.0807 5.11507 28.284 5.84581 28.7331 6.10776C29.3968 6.49494 29.8601 6.82283 30.7214 7.25425C30.7445 7.25895 30.7851 7.26817 30.8464 7.27573C31.0339 7.29883 31.2724 7.30934 31.6218 7.3187C31.9252 7.32682 32.3649 7.33408 32.7702 7.3685C33.1097 7.39735 33.6026 7.45638 34.1081 7.63022L34.3249 7.71225L34.5202 7.79819C35.4797 8.24899 36.1286 8.98746 36.4313 9.86655C36.7068 10.6669 36.6308 11.4138 36.5905 11.7542C36.5596 12.015 36.5119 12.2628 36.4636 12.4886C36.6565 12.4615 36.8703 12.4269 37.1052 12.3822C38.9438 12.0323 41.0487 11.3136 41.9811 10.9955C43.1097 10.6104 44.3045 10.3311 45.2575 10.0882C46.2776 9.82828 47.0739 9.59815 47.7272 9.29917C48.3635 9.00786 49.0887 8.56297 50.1257 7.93882C51.1074 7.34791 52.2828 6.65234 53.6198 6.03354C56.3918 4.75068 58.7223 4.77223 60.6442 5.31968C61.5482 5.57718 62.303 5.93428 62.8649 6.21518C63.5272 6.5463 63.7427 6.66676 63.9391 6.73374C65.4138 7.23692 65.817 8.58997 65.9323 9.02671C66.0933 9.63688 66.1474 10.3319 66.1764 10.9271C66.2364 12.1553 66.2131 13.2326 66.2966 14.515C67.6302 14.6785 69.1348 14.6329 70.7204 14.4867C71.5771 14.4076 72.4277 14.3032 73.2663 14.1957C74.0884 14.0902 74.9279 13.9774 75.6911 13.8968C78.2809 13.6233 79.6014 13.492 81.8708 12.5863C85.1363 11.283 87.6591 10.4548 89.5837 9.73374C91.5139 9.01053 93.1395 8.29416 95.1247 7.06479C97.9575 4.79989 100.412 2.96494 102.255 1.77085C103.168 1.17862 104.04 0.672787 104.783 0.367528C105.131 0.224375 105.641 0.0437104 106.208 0.00619946ZM104.948 5.59604C103.284 6.67422 100.936 8.42587 98.0915 10.7035L97.9811 10.7904L97.863 10.8646C95.4742 12.3569 93.507 13.2209 91.3327 14.0355C89.1164 14.8658 86.9738 15.5498 83.7184 16.849C80.7672 18.0268 78.8533 18.2083 76.2175 18.4867C75.5264 18.5596 74.7676 18.661 73.904 18.7718C73.0568 18.8805 72.1324 18.9956 71.1813 19.0833C69.2982 19.257 67.1831 19.3381 65.1579 19.0218C64.7293 18.9549 63.808 18.8045 62.9987 18.1996C62.0516 17.4913 61.6336 16.4773 61.5436 15.4349C61.4097 13.8819 61.4149 12.0672 61.3698 11.1429C61.3605 10.952 61.3483 10.7923 61.3366 10.6595C61.0641 10.5265 60.8189 10.3987 60.6413 10.3099C60.1586 10.0686 59.73 9.87509 59.2751 9.74546C58.4787 9.51866 57.3826 9.41749 55.7096 10.1917C54.6319 10.6906 53.6504 11.2663 52.6823 11.849C51.7696 12.3983 50.7514 13.0304 49.7995 13.4662C48.7026 13.9683 47.5187 14.2887 46.4928 14.5501C45.3995 14.8288 44.4802 15.0422 43.5925 15.3451C42.7076 15.647 40.2794 16.4846 38.0417 16.9105C36.9697 17.1145 35.6557 17.2842 34.5055 17.1078C33.9209 17.0181 33.1272 16.8029 32.4499 16.2298C31.6824 15.5803 31.32 14.6892 31.3229 13.7738L31.3317 13.5277C31.3701 12.9609 31.5229 12.4412 31.5973 12.1703C31.62 12.0879 31.6387 12.0106 31.6579 11.9388C31.6044 11.9374 31.5476 11.9355 31.488 11.9339C31.1455 11.9248 30.6869 11.9108 30.2331 11.8548C29.7936 11.8006 29.1827 11.6884 28.5856 11.3929C27.8358 11.0218 27.1846 10.6309 26.7302 10.3529C26.3492 10.9507 25.9361 11.5728 25.5339 12.1332C25.2459 12.5343 24.9477 12.927 24.6608 13.2669C24.4046 13.5705 24.0464 13.9669 23.6384 14.265C22.763 14.9043 21.5786 14.878 20.7399 14.2748C20.5343 14.3115 20.3306 14.3613 20.1178 14.4349C18.3326 15.3432 16.2152 16.2482 13.8718 16.9808C13.85 17.0217 13.8302 17.0626 13.8093 17.1019C12.9206 18.7679 12.0741 20.25 11.8669 21.7552C11.7732 23.1437 11.7749 25.1086 11.8678 26.3841C11.9129 27.0019 11.9773 27.4062 12.0417 27.7025C12.1063 28.0001 12.1786 28.2292 12.2839 28.555C12.4789 29.1589 12.402 29.781 12.1208 30.3011C12.6228 30.5681 13.0288 31.0059 13.2302 31.5677L13.235 31.5833L13.236 31.5843L13.2419 31.5999L13.2428 31.6019L13.2477 31.6175L13.2487 31.6195L13.2546 31.6371C13.2557 31.6403 13.2553 31.6375 13.2565 31.641L13.2614 31.6546L13.2624 31.6556L13.2673 31.6712L13.2682 31.6732L13.2741 31.6917L13.2751 31.6927L13.28 31.7064C13.2875 31.7274 13.2746 31.6937 13.2819 31.7142L13.2868 31.7259V31.7269L13.2936 31.7455L13.2946 31.7464L13.3044 31.7757L13.3063 31.7826L13.3073 31.7835L13.3102 31.7923C13.3289 31.8444 13.3226 31.8249 13.3141 31.8011L13.32 31.8187C13.323 31.827 13.3189 31.8141 13.3219 31.8226C13.327 31.8368 13.3323 31.8538 13.3229 31.8275C13.3249 31.8329 13.3278 31.8387 13.3298 31.8441L13.3337 31.8558V31.8578L13.3395 31.8734L13.3405 31.8744L13.3464 31.8929L13.3473 31.8939L13.3532 31.9095V31.9115L13.3571 31.9232C13.3645 31.9438 13.3744 31.9683 13.361 31.931C13.369 31.9532 13.3791 31.9853 13.3659 31.9486C13.3682 31.955 13.3709 31.9611 13.3727 31.9662L13.3786 31.9837C13.3806 31.9893 13.3834 31.9958 13.3854 32.0013L13.3864 32.0052L13.3874 32.0072L13.3913 32.0179C13.3917 32.0189 13.3924 32.0218 13.3942 32.0267L13.4011 32.0443V32.0462L13.4069 32.0619C13.4229 32.1064 13.4165 32.0871 13.4089 32.0658L13.4147 32.0833C13.4238 32.1087 13.4341 32.1359 13.4167 32.0873L13.4284 32.1224C13.4168 32.0899 13.4258 32.113 13.4323 32.1312L13.4352 32.14C13.4356 32.1411 13.4357 32.1425 13.4362 32.1439L13.4411 32.1576L13.4606 32.2093C13.4616 32.212 13.4627 32.2156 13.4636 32.2181C13.4646 32.2209 13.4656 32.2235 13.4665 32.2259L13.4723 32.2445C13.4727 32.2456 13.4738 32.2469 13.4743 32.2484L13.4792 32.2621C13.4896 32.2912 13.4811 32.2662 13.4919 32.2962L13.4928 32.3011C13.4957 32.3093 13.4907 32.2964 13.4938 32.305C13.4948 32.3077 13.4958 32.3111 13.4968 32.3138C13.5094 32.3492 13.4908 32.2957 13.5036 32.3314L13.528 32.4007C13.529 32.4035 13.5306 32.4091 13.5339 32.4183C16.5095 32.2396 19.9109 32.1481 22.5173 32.4085C26.9055 32.8471 31.8342 34.0059 33.6579 34.5013C36.1364 35.1748 38.585 36.6032 40.0397 38.8617C40.5842 39.707 40.8274 40.7825 40.9626 41.4554C41.1332 42.3054 41.2755 43.3451 41.3903 44.5208C41.6209 46.8826 41.7563 49.9836 41.7272 53.5941C41.7084 55.9302 41.2756 57.8958 40.8288 59.4906C40.3782 61.0987 40.0855 61.8538 39.9059 62.6332C39.9568 62.7222 40.0367 62.8502 40.1608 63.0218C40.3927 63.3425 40.6755 63.6818 41.0544 64.1351C41.3987 64.547 41.8449 65.0794 42.238 65.6312C43.5486 67.4713 45.4632 70.134 45.8366 74.5794C46.0384 76.9828 45.1237 79.435 44.3346 81.1937C43.5825 82.8701 42.3991 84.9924 42.0153 85.7728C41.2117 87.407 40.2477 88.8656 39.1647 90.5892C38.0505 92.3625 36.6317 94.6832 34.7106 98.3041C34.0585 99.5332 33.5834 100.678 33.0368 102.015C32.4964 103.337 31.8897 104.838 31.0261 106.565C28.4949 111.624 27.0274 114.684 26.4548 116.821C24.9344 122.494 23.9404 128.456 24.0407 132.167C24.1225 135.189 24.9893 136.802 25.9762 138.1C26.2033 138.399 26.4731 138.592 27.5407 139.41C28.5139 140.155 29.7628 141.172 31.0094 142.813C31.3656 143.281 32.168 144.007 33.612 144.973C35.0024 145.903 36.7608 146.908 38.8024 147.99C41.2388 149.281 42.8962 149.942 44.236 150.418C45.4667 150.856 46.9918 151.312 48.4626 151.978C50.4591 152.882 52.8273 153.991 54.6218 154.902C54.6283 154.905 54.713 154.943 54.9216 154.99C55.1462 155.04 55.4433 155.085 55.8386 155.124C56.2352 155.164 56.6629 155.19 57.1677 155.221C57.6484 155.25 58.2114 155.283 58.7663 155.333C59.6732 155.415 61.1102 155.62 61.8639 155.703C62.1694 155.737 62.4595 155.764 62.7341 155.785C62.7164 155.317 62.6587 154.733 62.5475 154.037C62.1221 151.375 61.1273 148.355 60.5993 147.131C59.7027 145.053 58.7194 143.752 57.4518 142.056C56.0918 140.236 55.6088 137.936 55.4714 136.04C55.3281 134.065 55.5245 132.012 55.9538 130.312L56.0055 130.121C56.2811 129.18 56.7992 128.358 57.2145 127.771C57.6976 127.088 58.2756 126.404 58.8395 125.775C59.4088 125.14 60.0238 124.495 60.5915 123.9C61.1747 123.288 61.7056 122.734 62.1725 122.218C63.7363 120.49 66.5296 117.965 68.3864 116.373C69.4179 115.489 72.3831 112.154 74.238 109.661C74.2949 109.554 74.4021 109.35 74.5466 109.09C74.8748 108.5 75.411 107.589 76.402 106.045C78.3898 102.949 82.0495 97.4229 84.4333 93.641C86.7755 89.9251 88.1768 87.326 89.1296 85.4525C89.9875 83.7655 90.7168 82.1519 91.4382 81.0589C91.862 80.4168 92.4422 78.9197 92.8835 76.9876C93.3157 75.0953 93.4848 73.3582 93.4089 72.4046C93.289 70.8985 93.5452 69.2955 93.8092 67.8167C94.0945 66.2193 94.4393 64.5301 94.7438 62.3695C95.2918 58.482 96.8001 55.0922 97.443 53.0765C98.2779 50.4591 99.9308 48.7307 101.341 47.5658C102.022 47.0038 102.712 46.5225 103.164 46.1986C103.409 46.0229 103.582 45.8955 103.718 45.7874C103.857 45.6779 103.895 45.6372 103.883 45.6498C105.208 44.2443 106.375 42.9503 108.808 40.1244C110.424 38.2483 112.212 34.7486 112.676 32.14C112.753 31.6294 112.856 31.1622 112.925 30.8392C113.006 30.4612 113.066 30.1648 113.105 29.8304C113.196 29.0628 113.199 27.9839 113.199 27.7025C113.199 26.9125 113.475 26.1846 113.939 25.6019C110.332 16.2531 108.879 12.7565 107.36 9.94272C106.253 8.20587 105.572 6.79702 105.26 5.89389C105.214 5.75922 105.171 5.62603 105.13 5.48081C105.071 5.51829 105.01 5.55598 104.948 5.59604Z" fill="black"/>
</g>
<defs>
<filter id="filter0_d_369_290" x="0" y="0" width="124.416" height="170.749" filterUnits="userSpaceOnUse" color-interpolation-filters="sRGB">
<feFlood flood-opacity="0" result="BackgroundImageFix"/>
<feColorMatrix in="SourceAlpha" type="matrix" values="0 0 0 0 0 0 0 0 0 0 0 0 0 0 0 0 0 0 127 0" result="hardAlpha"/>
<feOffset dy="4"/>
<feGaussianBlur stdDeviation="2"/>
<feComposite in2="hardAlpha" operator="out"/>
<feColorMatrix type="matrix" values="0 0 0 0 0 0 0 0 0 0 0 0 0 0 0 0 0 0 0.25 0"/>
<feBlend mode="normal" in2="BackgroundImageFix" result="effect1_dropShadow_369_290"/>
<feBlend mode="normal" in="SourceGraphic" in2="effect1_dropShadow_369_290" result="shape"/>
</filter>
</defs>
</svg>
