<svg width="68" height="133" viewBox="0 0 68 133" fill="none" xmlns="http://www.w3.org/2000/svg">
<g filter="url(#filter0_d_369_248)">
<path fill-rule="evenodd" clip-rule="evenodd" d="M51.7914 0.180835C53.6228 -0.0688795 55.3118 -0.0467641 56.6664 0.166186C57.3235 0.269502 58.048 0.440005 58.7123 0.731616C59.039 0.875052 59.4901 1.10845 59.9252 1.47966C60.3074 1.80581 60.9447 2.4702 61.1811 3.50701L61.2221 3.7199L61.2494 3.92302C61.3028 4.40821 61.2822 4.95347 61.2738 5.22185C61.2593 5.68571 61.2306 6.29183 61.1986 6.97771C61.1338 8.37183 61.0494 10.2337 61.0072 12.4533C60.9646 14.6984 60.9036 16.4973 60.9672 18.0187C61.034 19.6176 61.2316 20.3165 61.3549 20.551C62.5513 22.8251 62.4976 25.6972 62.3725 27.633C62.3033 28.7031 62.1852 29.7571 62.0912 30.6203C61.9904 31.5467 61.9265 32.1788 61.9184 32.6154C61.9027 33.462 61.9835 34.6038 62.1381 35.6955C62.3034 36.8626 62.5051 37.6228 62.6068 37.8625C62.9352 38.6347 63.0736 39.5349 63.1508 40.1867C63.2396 40.936 63.2922 41.7924 63.3197 42.675C63.3749 44.4454 63.3327 46.498 63.2192 48.3586C62.9522 52.7317 62.452 56.0449 62.1508 58.256C61.831 60.6033 61.4818 62.5125 61.1811 64.0383C60.8649 65.6424 60.6506 66.6068 60.5346 67.3566C60.3279 68.6924 60.084 70.372 59.4897 72.966C59.1527 74.436 58.3094 75.5255 57.8061 76.1418C57.1248 76.9759 56.9919 77.0772 56.8402 77.3332C55.6917 79.2711 53.6449 79.8462 52.5971 80.1554C51.3042 80.537 49.8828 80.8762 47.6537 81.6574C47.296 82.8503 46.9745 84.2046 46.6127 85.7013C46.1985 87.4147 45.7261 89.3357 45.101 91.009C43.8227 94.4307 42.6638 98.1098 41.1166 101.153C40.546 102.275 40.2198 103.177 39.8676 104.398C39.6548 105.135 39.5064 105.896 39.2807 106.921C39.0746 107.857 38.8056 108.997 38.3705 110.089C37.624 111.962 36.0041 112.861 35.3324 113.233C34.8159 113.518 34.7352 113.545 34.4506 113.713C34.3618 113.765 34.3131 113.799 34.2924 113.814C34.2217 113.89 34.134 114.015 34.0219 114.315C33.9553 114.493 33.8882 114.709 33.8061 115.007C33.7651 115.156 33.7251 115.309 33.6781 115.486C33.6328 115.656 33.5815 115.848 33.5268 116.045C32.8538 118.468 31.8494 120.496 30.9672 121.845C30.0431 123.258 28.6713 123.97 27.5004 124.31C26.3649 124.639 25.2306 124.682 24.3461 124.651C22.7247 124.593 20.7819 124.172 20.8285 124.179C18.6204 123.846 17.3976 122.327 16.8051 121.278C16.2061 120.216 15.8863 119.028 15.6889 118.112C15.4853 117.169 15.3486 116.191 15.2494 115.54C15.2176 115.332 15.1899 115.16 15.1654 115.019C15.0238 114.955 14.8448 114.88 14.5404 114.758C14.1986 114.621 13.6955 114.418 13.1781 114.147C10.9485 112.979 9.56792 111.395 8.65958 110.224C8.00128 109.375 7.65078 108.379 7.44181 107.652C7.21222 106.852 7.04807 105.98 6.92326 105.144C6.67429 103.476 6.5373 101.627 6.43107 100.211C6.19601 97.0793 5.49838 95.2376 5.10001 93.3185C4.84171 92.074 4.66331 90.5932 4.52189 89.4133C4.35982 88.0611 4.25958 87.2687 4.17716 86.9474C3.52225 84.3945 4.8352 82.3422 5.64103 81.3C6.08565 80.725 6.5656 80.2181 6.91251 79.8556C7.32613 79.4235 7.49177 79.2524 7.5922 79.1261C7.56334 79.1625 7.63233 79.0816 7.76603 78.7463C7.89862 78.4136 8.01525 78.0432 8.1879 77.5051C8.33882 77.0346 8.54887 76.3821 8.8256 75.7697C9.08808 75.1889 9.55846 74.2969 10.4145 73.5676L10.4399 73.5392C10.4572 73.5195 10.4826 73.4882 10.5141 73.4416C10.5784 73.3464 10.6604 73.2004 10.7475 72.9894C10.9263 72.5561 11.0858 71.9519 11.1918 71.173C11.3438 70.0565 11.7035 69.1512 11.9604 68.5422C11.9774 68.5019 11.9926 68.4628 12.0082 68.4259C11.1675 67.2985 11.1301 65.8346 11.8139 64.6896C11.7911 64.6214 11.7701 64.5523 11.7465 64.4836C11.352 63.3376 11.2052 61.8231 11.2201 60.4201C11.2357 58.9555 11.431 57.2255 11.9633 55.6037C12.8449 52.9174 13.0775 51.5395 13.0795 49.5285C13.0813 47.6689 13.2786 45.5614 13.6537 43.5929C14.0171 41.6865 14.6005 39.6237 15.519 38.0217L15.683 37.7521C16.5292 36.4453 17.7473 35.6977 18.4565 35.2707C19.3664 34.7227 19.9355 34.4297 20.6195 33.8908C21.2581 33.3877 21.6119 33.009 21.8383 32.7424C21.9711 32.586 22.0599 32.4696 22.2152 32.2736C22.3307 32.128 22.5855 31.8033 22.9106 31.4992L23.7494 30.715L23.9457 30.6877C24.2652 29.8948 24.8869 29.2126 25.7485 28.8156C25.9903 28.7042 26.2388 28.6211 26.4897 28.5646C26.6265 28.393 26.7658 28.2183 26.9076 28.0412C29.4286 24.8945 29.0644 22.9615 29.3119 20.0793C29.5007 17.8817 29.6404 16.0289 30.5121 12.9719L30.5629 12.8049C30.831 11.9757 31.3165 11.2227 32.0473 10.6379C32.709 10.1084 33.4249 9.86192 33.5229 9.82439C35.8776 8.92185 38.6994 8.81791 40.5746 8.78533C41.6781 8.76616 42.3799 8.77527 43.0649 8.75017C43.2099 8.74485 43.3247 8.73778 43.4135 8.73162C44.664 8.08073 46.6907 7.03901 48.433 6.049C48.4132 6.01659 48.3911 5.98312 48.3705 5.94744C48.2998 5.82471 48.0182 5.34413 47.8959 4.69158C47.7462 3.89233 47.8369 2.83167 48.56 1.86931C49.1787 1.04607 49.9852 0.672223 50.4379 0.504077C50.924 0.323557 51.404 0.233671 51.7914 0.180835ZM53.6449 11.1066C51.2676 12.5716 47.7027 14.3718 46.4711 15.0197C45.7435 15.4025 45.004 15.5194 44.6459 15.5685C44.2034 15.6292 43.744 15.6553 43.3402 15.6701C42.5923 15.6975 41.5168 15.696 40.7045 15.7101C39.2971 15.7346 38.0892 15.814 37.1586 15.9953C36.7493 17.7025 36.6541 18.9037 36.5043 20.6476C36.3188 22.8082 36.7246 27.1512 32.6293 32.2629C32.016 33.0284 31.4989 33.6819 31.0727 34.2404L30.933 34.7043L30.6127 35.1564C30.3934 35.4658 30.1456 35.7255 29.8901 35.9445C29.8797 35.9638 29.8719 35.9777 29.8676 35.9865C29.3606 37.5293 27.8219 38.5018 26.1938 38.3986C25.9029 38.6654 25.5749 38.9474 25.2006 39.2424C24.0507 40.1484 22.8609 40.7951 22.2934 41.1369C22.0027 41.3119 21.8517 41.4198 21.7836 41.4709C21.4327 42.1343 21.0468 43.2993 20.7533 44.839C20.4546 46.4064 20.2987 48.0992 20.2973 49.5353C20.2944 52.416 19.89 54.5061 18.8471 57.6838C18.5852 58.4818 18.4475 59.4987 18.4369 60.4904C18.4318 60.9729 18.4576 61.4061 18.4994 61.7531C18.5202 61.9256 18.5433 62.0644 18.5649 62.1681C18.5833 62.2567 18.5964 62.302 18.599 62.3107C19.0034 63.4851 19.2893 64.566 19.5033 65.3996C19.6153 65.8356 19.697 66.1599 19.7748 66.4465C19.8118 66.5826 19.8428 66.6866 19.8676 66.7668C19.8905 66.8407 19.9019 66.875 19.9037 66.8801C20.468 68.3149 19.9736 69.8826 18.7943 70.7961C18.7344 70.9354 18.6863 71.0533 18.6498 71.1398C18.4521 71.6086 18.3777 71.8519 18.3481 72.0695C18.0672 74.1335 17.3698 76.737 15.4438 78.5314C15.3496 78.7412 15.2468 79.0398 15.0854 79.5431C14.944 79.9838 14.746 80.6206 14.5063 81.2218C14.2677 81.8201 13.9063 82.6019 13.3305 83.3263C12.9743 83.7744 12.4999 84.2561 12.2279 84.5402C11.8893 84.8941 11.6361 85.1684 11.4369 85.4259C11.3622 85.5226 11.3084 85.6008 11.2699 85.6603C11.4485 86.5211 11.5803 87.6918 11.6918 88.6222C11.8409 89.8662 11.9885 91.0523 12.1781 91.966C12.3854 92.964 13.353 96.0321 13.6293 99.714C13.7397 101.184 13.8606 102.781 14.0668 104.162C14.1696 104.851 14.2828 105.405 14.3998 105.813C14.4585 106.017 14.5047 106.133 14.5258 106.184C15.1618 106.992 15.7806 107.619 16.6361 108.068C16.7926 108.15 16.9856 108.232 17.3295 108.37C17.6202 108.487 18.111 108.68 18.5824 108.912C19.5733 109.401 20.7904 110.212 21.599 111.702L21.7543 112.009L21.8442 112.212C22.0403 112.684 22.1423 113.146 22.1977 113.413C22.2735 113.78 22.3366 114.181 22.391 114.538C22.509 115.313 22.6086 116.02 22.7572 116.709C22.8312 117.052 22.9044 117.321 22.9701 117.526C23.0509 117.54 23.1335 117.557 23.2192 117.571C23.6853 117.651 24.1681 117.714 24.6127 117.73C24.8268 117.737 24.9952 117.731 25.1225 117.721C25.5904 116.911 26.1515 115.708 26.5531 114.262C26.8206 113.299 27.2463 110.876 29.0785 109.025L29.2875 108.821C29.7804 108.367 30.2851 108.041 30.6723 107.813C30.8974 107.68 31.1147 107.562 31.2875 107.47C31.4806 107.366 31.5997 107.304 31.7309 107.232C31.7471 107.223 31.762 107.213 31.7768 107.204C31.9291 106.738 32.0668 106.181 32.2192 105.489C32.3994 104.671 32.6211 103.56 32.9125 102.55C33.3484 101.039 33.8161 99.7166 34.6303 98.1154C35.9459 95.5282 36.8335 92.6139 38.3061 88.672C38.7666 87.4392 39.1538 85.909 39.5824 84.1359C39.9895 82.4521 40.44 80.525 41.0053 78.8322C41.2815 78.0054 41.7848 76.8906 43.0043 76.0832C43.5006 75.7547 43.982 75.5711 44.2504 75.4738C44.3906 75.423 44.5338 75.3742 44.6352 75.34C44.7485 75.3018 44.8428 75.27 44.9428 75.2345C47.5419 74.3122 49.4701 73.8332 50.476 73.5363C50.6525 73.4842 50.7902 73.4387 50.8959 73.4025C51.0943 73.1183 51.2908 72.8689 51.4565 72.6672C51.5875 72.5076 51.7211 72.3515 51.8295 72.2238C51.9449 72.088 52.0382 71.9771 52.1254 71.8703C52.3498 71.5955 52.4305 71.4606 52.4526 71.423C52.979 69.117 53.1905 67.6601 53.3949 66.339C53.5386 65.411 53.8201 64.1167 54.0893 62.7511C54.3739 61.3069 54.699 59.5343 54.9955 57.3576C55.305 55.0864 55.7661 52.032 56.0151 47.9533C56.1181 46.265 56.1538 44.4191 56.1059 42.882C56.0818 42.1112 56.0382 41.4611 55.9799 40.9689C55.9277 40.528 55.8808 40.3736 55.892 40.3976L55.9252 40.4787L55.8402 40.2707C55.4255 39.2052 55.1562 37.8248 54.9867 36.6281C54.7951 35.2751 54.6798 33.7711 54.7035 32.4924C54.7183 31.6961 54.8209 30.7429 54.9125 29.9015C55.011 28.9966 55.1115 28.0986 55.1693 27.2033C55.2983 25.2085 55.1333 24.0921 54.9125 23.672C54.0376 22.0091 53.8267 20.0043 53.7553 18.2961C53.6807 16.5102 53.7511 14.3972 53.7904 12.3273C53.7992 11.8671 53.81 11.4215 53.8217 10.9924C53.7635 11.0314 53.7047 11.0698 53.6449 11.1066Z" fill="black"/>
</g>
<defs>
<filter id="filter0_d_369_248" x="0" y="0" width="67.3438" height="132.659" filterUnits="userSpaceOnUse" color-interpolation-filters="sRGB">
<feFlood flood-opacity="0" result="BackgroundImageFix"/>
<feColorMatrix in="SourceAlpha" type="matrix" values="0 0 0 0 0 0 0 0 0 0 0 0 0 0 0 0 0 0 127 0" result="hardAlpha"/>
<feOffset dy="4"/>
<feGaussianBlur stdDeviation="2"/>
<feComposite in2="hardAlpha" operator="out"/>
<feColorMatrix type="matrix" values="0 0 0 0 0 0 0 0 0 0 0 0 0 0 0 0 0 0 0.25 0"/>
<feBlend mode="normal" in2="BackgroundImageFix" result="effect1_dropShadow_369_248"/>
<feBlend mode="normal" in="SourceGraphic" in2="effect1_dropShadow_369_248" result="shape"/>
</filter>
</defs>
</svg>
