<svg width="199" height="157" viewBox="0 0 199 157" fill="none" xmlns="http://www.w3.org/2000/svg">
<g filter="url(#filter0_d_369_219)">
<path fill-rule="evenodd" clip-rule="evenodd" d="M88.9922 0.0188572C90.4032 0.171234 91.8968 0.629814 93.2628 1.06769C94.6619 1.51619 96.0296 1.97817 97.504 2.34601C98.9045 2.49938 100.337 2.81626 101.42 3.66534C101.433 3.6734 101.448 3.68256 101.476 3.69952C101.494 3.71113 101.72 3.84602 101.925 4.02276C102.021 4.10577 102.235 4.30021 102.422 4.60382C102.663 3.82222 102.969 3.02309 103.358 2.21515C104.195 0.479627 106.34 -0.276136 108.148 0.52667C109.957 1.32972 110.746 3.38774 109.909 5.12335C109.07 6.86501 108.827 8.61356 108.811 10.3382C108.802 11.2151 108.851 12.0472 108.902 12.9095C108.949 13.702 109.009 14.6648 108.963 15.5296C108.887 16.9531 108.746 17.4755 108.785 18.7405C108.785 18.7405 108.787 18.7637 108.792 18.8138C108.798 18.8655 108.806 18.9363 108.82 19.0276C108.849 19.2132 108.896 19.4547 108.962 19.7562C109.095 20.3613 109.296 21.1354 109.565 22.0726C110.102 23.9448 110.876 26.3506 111.834 29.1536C112.329 30.6026 112.8 31.4424 113.121 31.9105C113.31 32.1849 113.465 32.3567 113.587 32.4749C113.699 32.4898 113.894 32.5104 114.2 32.5169C114.68 32.5271 115.198 32.5119 115.963 32.4983C116.683 32.4856 117.536 32.4771 118.476 32.5198C120.772 32.6242 124.424 33.1085 127.398 33.9232C131.685 35.0975 133.302 38.8778 133.52 41.1624C133.595 41.9586 133.653 42.7047 133.704 43.3548C133.746 43.8924 133.784 44.3493 133.822 44.7454C133.835 44.7476 133.849 44.75 133.862 44.7523C134.062 44.7856 134.297 44.8252 134.541 44.8714C135.027 44.9633 135.629 45.0958 136.26 45.3108C137.843 45.8506 138.966 47.0276 139.623 47.8431C140.364 48.7621 140.978 49.812 141.417 50.7689C141.497 50.944 141.675 51.2052 142.19 51.7884C142.618 52.2735 143.396 53.1032 144.041 54.0335C144.869 55.2281 145.235 56.4667 145.482 57.4671C145.768 58.6217 145.88 59.3306 146.226 60.5364C146.626 61.9333 147.001 62.7371 147.297 63.2464C147.594 63.7584 147.86 64.0694 148.319 64.6243C149.357 65.8791 149.711 67.2258 149.899 68.0179C150.019 68.522 150.043 68.6672 150.119 68.9534C150.122 68.9636 150.124 68.9734 150.127 68.9827C150.183 68.9993 150.254 69.0191 150.34 69.0374C150.532 69.0784 150.771 69.1132 151.064 69.1409C152.835 69.3089 154.17 70.1516 154.964 70.7103C155.361 70.9897 155.776 71.3132 156.033 71.5081C156.337 71.7386 156.529 71.8741 156.682 71.9661C157.691 72.5759 158.448 73.3408 158.965 73.8763C159.554 74.4875 159.896 74.8681 160.36 75.2669C161.58 76.3139 162.597 77.554 163.442 78.7718L163.794 79.2913L163.829 79.3441L163.862 79.3987C164.165 79.8967 164.455 80.2792 164.746 80.6536C164.878 80.8229 165.068 81.0657 165.226 81.2786C165.348 81.4438 165.502 81.6592 165.653 81.9105L165.803 82.1732L165.851 82.263L165.893 82.3558C165.992 82.5719 166.074 82.7838 166.144 82.9769C166.454 83.3743 166.76 83.8113 167.017 84.1956C167.747 84.303 168.34 84.5613 168.677 84.7249C169.091 84.926 169.475 85.159 169.776 85.3509C171.158 86.232 171.757 87.5543 172.032 88.2327C172.19 88.6211 172.321 89.0171 172.423 89.3235C172.535 89.6609 172.62 89.9186 172.716 90.1771C172.946 90.7988 173.017 91.3525 173.057 91.9446C173.093 92.4861 173.113 93.2831 173.14 94.4857C173.167 95.7291 173.195 97.4894 173.222 99.2366C173.249 100.993 173.275 102.737 173.302 103.972C173.332 105.352 173.371 106.372 173.407 107.264C173.438 108.023 173.466 108.718 173.482 109.453C173.484 109.457 173.486 109.461 173.488 109.464C173.628 109.715 173.872 110.076 174.236 110.545C174.924 111.431 175.771 112.371 176.599 113.303C176.617 113.308 176.638 113.315 176.661 113.321C176.992 113.393 177.494 113.431 178.219 113.425C178.567 113.422 178.918 113.411 179.301 113.398C179.662 113.386 180.081 113.371 180.474 113.37C180.852 113.37 181.346 113.38 181.846 113.451C182.226 113.504 183.071 113.648 183.889 114.188L184.053 114.301L184.54 114.665C185.466 115.369 186.114 115.95 186.715 116.629L187.013 116.978L187.264 117.282L187.438 117.631C187.729 118.216 187.917 118.792 188.045 119.441L188.097 119.723L188.118 119.856L188.13 119.988C188.172 120.487 188.169 121.142 188.169 121.578C188.169 122.693 187.619 123.684 186.766 124.318C188.039 123.79 189.244 123.632 189.963 123.546C191.941 123.31 193.744 124.657 193.99 126.555C194.236 128.453 192.832 130.183 190.855 130.419C190.25 130.491 189.89 130.568 189.639 130.67C189.452 130.746 189.396 130.806 189.343 130.885C187.373 133.848 185.538 136.466 184.209 138.403C183.731 139.099 183.289 140.248 182.974 141.603C182.666 142.925 182.556 144.109 182.556 144.663C182.556 146.576 180.94 148.126 178.947 148.126C177.02 148.126 175.445 146.676 175.344 144.85C175.207 144.804 175.072 144.749 174.939 144.686C174.141 144.306 172.704 143.642 171.384 142.999C170.105 142.377 168.606 141.619 167.651 140.98C166.493 140.204 165.627 139.16 165.026 138.233C164.418 137.292 163.936 136.243 163.673 135.258C163.509 134.645 162.705 133.333 161 131.873C159.9 130.932 158.746 130.134 157.94 129.66C157.322 129.298 156.443 128.934 155.543 128.619C154.67 128.314 153.964 128.119 153.634 128.021C152.641 127.726 151.967 127.153 151.551 126.671C151.335 126.422 151.169 126.171 151.041 125.956C150.756 125.932 150.409 125.905 149.982 125.882C141.713 125.432 140.146 125.185 138.374 124.546C137.078 124.079 136.308 123.18 135.889 122.558C135.464 121.928 135.183 121.257 134.994 120.76C134.805 120.262 134.622 119.693 134.49 119.303C134.428 119.118 134.369 118.954 134.315 118.808C134.269 118.79 134.217 118.77 134.157 118.748C133.688 118.58 133.403 118.5 132.678 118.253C132.074 118.048 131.351 117.782 130.601 117.421C128.643 116.479 126.826 115.657 125.221 114.909C123.945 114.313 122.618 113.683 121.681 113.108L121.337 112.886C121.334 112.887 121.212 112.826 120.901 112.759C120.52 112.677 120.018 112.62 119.421 112.6C118.219 112.559 116.959 112.674 116.177 112.793C114.39 113.065 112.675 112.781 111.422 112.127C109.996 111.383 109.167 110.194 108.729 109.511C108.493 109.144 108.269 108.753 108.116 108.491C107.941 108.191 107.826 108.002 107.725 107.857C107.743 107.883 107.718 107.825 107.503 107.708C107.273 107.584 106.939 107.455 106.429 107.301C106.424 107.3 106.418 107.3 106.412 107.299C106.295 107.283 106.181 107.272 105.898 107.241C105.381 107.184 104.654 107.095 103.741 106.877C101.285 106.291 97.8318 105.209 94.3116 103.998C90.2136 102.589 88.7123 98.8651 88.1924 97.4437C87.9366 97.3966 87.5517 97.3587 87.0128 97.3568C86.2508 97.354 85.5523 97.4133 84.7315 97.4603C84.3838 97.4802 83.9094 97.5045 83.4669 97.4857C83.2466 97.4762 82.9038 97.4516 82.5225 97.3675C82.2212 97.301 81.4104 97.0993 80.6768 96.4349L80.4913 96.2669L80.3321 96.0765C79.2876 94.8196 78.7285 93.2581 78.4346 91.472L78.4161 91.3568L78.4053 91.2396C78.3586 90.7361 78.3355 90.1721 78.3233 89.598C78.2002 88.7261 78.0265 86.8327 77.8975 84.178C77.8286 82.7592 77.9124 81.6412 77.9854 80.848C77.994 80.7548 77.9999 80.6724 78.0069 80.5989C77.708 80.4092 77.3354 80.2014 76.7657 79.8851C76.2096 79.5763 75.5263 79.1952 74.7823 78.7337C74.012 78.2559 72.6385 77.7278 71.2989 77.4319C69.926 77.1287 69.1422 77.2032 68.712 77.2747C68.4298 77.3217 68.2705 77.3686 67.8721 77.4632C67.7103 77.5016 67.4189 77.5685 67.0938 77.6097C66.7661 77.6512 66.2268 77.6912 65.5967 77.5677C64.7879 77.4091 62.6898 76.9088 61.3751 76.5257C61.0823 76.4404 60.3789 76.2801 58.8819 76.0765C58.8759 76.0758 58.8582 76.0732 58.8253 76.0706C58.7751 76.0668 58.7075 76.0636 58.6133 76.0589C58.4843 76.0525 58.1176 76.0368 57.8643 76.0228C57.2471 75.9885 56.4289 75.9223 55.5001 75.7288L55.3594 75.6995L55.2227 75.6605C53.7481 75.2333 52.5327 74.8568 51.6661 74.5941C51.2221 74.4594 50.8903 74.362 50.6456 74.2943C50.595 74.2803 50.5533 74.2689 50.5196 74.2601C50.3647 74.2562 50.1487 74.2542 49.8399 74.2542C48.3548 74.2541 47.08 73.3926 46.5264 72.1624C46.2047 71.9538 45.8658 71.7371 45.5264 71.5218C45.4293 71.4602 45.2405 71.3585 44.7051 71.1448C44.0995 70.9031 43.5148 70.6936 42.3829 70.2542C41.0648 69.7425 39.9819 69.2295 39.1954 68.846C38.7737 68.6404 38.5185 68.512 38.2872 68.4026C38.2736 68.3962 38.2601 68.3897 38.2481 68.3841C38.1846 68.3784 38.0893 68.3735 37.9581 68.3743C37.6777 68.3761 37.3247 68.4046 36.9034 68.4632C36.045 68.5826 35.1411 68.7909 34.2823 68.9935C30.1447 69.9693 27.0651 67.5042 26.3477 66.928C25.7011 66.4085 25.1551 65.7366 24.8878 65.4193C24.5304 64.995 24.3015 64.7323 24.0596 64.514C23.6035 64.1024 23.088 63.6834 22.4512 63.1741C21.8339 62.6805 21.1074 62.1048 20.3409 61.4564C19.2894 60.5668 18.3584 59.9008 17.6592 59.4319C17.309 59.1971 17.0134 59.0093 16.7745 58.8587C16.6527 58.782 16.2532 58.5377 16.001 58.3431C15.6167 58.0463 14.8843 57.6387 13.8585 57.2483C13.7849 57.2204 13.6866 57.1869 13.4981 57.1273C13.3355 57.0758 13.0719 56.9938 12.8067 56.9017C12.2352 56.7031 11.5181 56.4123 10.7491 55.9183C9.06438 54.836 7.81535 53.8137 6.91608 53.0364C6.35901 52.5549 6.23392 52.4331 5.89362 52.1419C5.79863 52.0606 5.73802 52.012 5.70709 51.9876C4.29972 51.1512 3.68331 49.5131 4.15827 48.0316C4.14282 47.9258 4.1319 47.8181 4.1319 47.7083C4.13195 46.4334 5.20954 45.3997 6.53815 45.3997C6.56517 45.3997 6.62156 45.3987 6.70416 45.3958C6.66556 44.9586 6.59609 44.4513 6.50983 43.7991C6.41674 43.0954 6.31365 42.271 6.27448 41.4173C6.17837 39.3205 6.86489 37.7778 7.45026 36.5687C8.03376 35.3634 9.26443 34.3377 10.1612 33.6497C11.1435 32.8962 12.2986 32.1374 13.0499 31.6175C13.6311 31.2153 14.2342 30.8073 14.8516 30.39C15.4722 29.9705 16.1125 29.5387 16.7852 29.0745C18.2666 28.0523 19.9906 27.5189 21.5548 27.1653C23.0127 26.8358 24.8636 26.5655 26.0899 26.3284C27.3177 26.091 28.2358 25.6146 29.8731 24.9554C31.1671 24.4344 32.0887 24.1217 32.8565 23.3626C34.6292 21.6095 35.2857 21.1431 36.3624 19.1556C39.1216 14.0619 42.6183 11.7417 43.6632 10.7776C44.4429 10.0583 45.3752 9.56568 46.1094 9.19659C46.9288 8.78473 47.566 8.49475 48.2286 8.09112C49.1183 7.54909 49.9038 6.99252 50.7432 6.42022C51.5283 5.88499 52.4186 5.29371 53.3272 4.88604C54.591 4.31906 56.2189 3.66751 58.5489 3.72491C60.1891 3.7654 62.2335 4.36997 63.8301 4.80597C65.5991 5.28902 67.1194 5.66487 68.3624 5.70147C68.3996 5.69333 68.4804 5.67603 68.6153 5.63604C68.9188 5.54604 69.2796 5.41956 69.8184 5.23468C70.844 4.88281 72.2449 4.41795 73.9542 4.10089C76.432 3.64131 78.2479 3.55029 80.9053 2.60675C82.7161 1.96379 84.1686 1.35688 85.3936 0.875302C85.982 0.643995 86.5591 0.424898 87.0665 0.27081C87.4794 0.145411 88.2236 -0.063962 88.9922 0.0188572ZM88.5176 4.67315C88.2169 4.76454 87.8008 4.91762 87.2178 5.14679C86.0984 5.58684 84.4901 6.25624 82.5762 6.93585C79.4258 8.05451 76.8037 8.27493 74.8672 8.63409C73.5304 8.88207 72.4098 9.24777 71.4376 9.58136C70.9778 9.7391 70.4697 9.91835 70.0352 10.0472C69.6391 10.1646 69.0209 10.332 68.3721 10.3216C66.3781 10.2894 64.2218 9.71408 62.5128 9.24737C60.588 8.72176 59.2958 8.36171 58.4258 8.34015C57.2045 8.31003 56.3855 8.61144 55.3663 9.06866C54.9021 9.27689 54.3366 9.6332 53.5303 10.1829C52.7783 10.6956 51.8354 11.3629 50.8067 11.9896C49.9202 12.5296 48.9733 12.969 48.3419 13.2864C47.6257 13.6464 47.2395 13.8831 46.9981 14.1058C45.483 15.5037 42.915 17.0699 40.6319 21.2845C39.165 23.9925 37.9446 24.9616 36.3106 26.5775C34.7016 28.1687 32.6719 28.8357 31.7344 29.2132C30.5442 29.6925 28.8893 30.4973 27.0401 30.8548C25.3431 31.1828 24.1065 31.3312 22.6583 31.6585C21.3163 31.9619 20.3147 32.3251 19.5938 32.8226C18.8994 33.3018 18.2412 33.7459 17.6221 34.1644C16.9997 34.5851 16.4198 34.9772 15.8643 35.3616C14.9641 35.9846 14.0235 36.5966 13.1651 37.2552C12.7482 37.575 12.4084 37.8642 12.1553 38.1165C11.8968 38.3743 11.8182 38.5065 11.8135 38.514C11.3036 39.5675 11.0388 40.2699 11.0821 41.2142C11.1119 41.8641 11.1919 42.5275 11.2833 43.2181C11.3693 43.8682 11.4763 44.6154 11.5215 45.2718C11.5631 45.8746 11.5808 46.7168 11.3174 47.5149C11.4808 47.6584 11.6382 47.7967 11.7471 47.8909C12.4972 48.5392 13.4656 49.3289 14.7647 50.1634C14.8875 50.2422 15.0233 50.3077 15.2628 50.3909C15.403 50.4396 15.5354 50.48 15.7569 50.5501C15.953 50.6121 16.2292 50.7007 16.5186 50.8108C17.9298 51.3479 19.3792 52.0625 20.5255 52.9476C20.4219 52.8676 20.36 52.8334 20.7364 53.0706C20.9954 53.2339 21.3582 53.4636 21.793 53.7552C22.6645 54.3396 23.8181 55.1655 25.1143 56.262C25.7867 56.8308 26.4183 57.3316 27.0714 57.8538C27.7049 58.3604 28.3733 58.898 29.0049 59.4681C29.6568 60.0564 30.1744 60.6782 30.5001 61.0648C30.6829 61.2818 30.7974 61.417 30.8995 61.5286C30.9499 61.5837 30.9806 61.6139 30.9932 61.6263L30.9805 61.6175C31.2358 61.8225 31.5396 62.0396 31.8741 62.1771C32.1774 62.3017 32.3797 62.3113 32.5596 62.2689C33.3849 62.0742 34.6126 61.7842 35.8673 61.6097C37.032 61.4477 38.6936 61.3096 40.2471 61.7161C40.766 61.852 41.2659 62.0901 41.4766 62.1898C41.7582 62.3228 42.1379 62.5117 42.4649 62.6712C43.1765 63.0181 44.0498 63.4305 45.0899 63.8343C45.9708 64.1762 46.8892 64.5149 47.4766 64.7493C48.1337 65.0115 48.8285 65.314 49.5069 65.7444C50.0527 66.0907 50.7642 66.5395 51.3878 66.9671C51.5811 67.0997 51.8469 67.2866 52.1358 67.5071C52.3325 67.5534 52.5102 67.6015 52.6456 67.639C52.9882 67.7337 53.3977 67.8564 53.8399 67.9905C54.711 68.2547 55.8013 68.5921 57.1407 68.9818C57.5131 69.0521 57.8821 69.0875 58.2813 69.1097C58.5556 69.1249 58.6761 69.1274 58.9874 69.1429C59.2218 69.1546 59.5546 69.1728 59.8946 69.2191C61.5272 69.4411 62.6556 69.6616 63.4727 69.8997C64.3311 70.1498 65.6511 70.4731 66.4727 70.6595C66.7313 70.5977 67.0924 70.5148 67.4786 70.4505C68.8399 70.224 70.594 70.1696 72.918 70.6829C74.808 71.1004 77.028 71.88 78.7003 72.9173C79.28 73.2769 79.8265 73.582 80.3809 73.89C80.8999 74.1781 81.5125 74.5149 82.0567 74.8646C83.152 75.5683 84.6886 76.7636 85.169 78.9007C85.3151 79.5509 85.2812 80.1616 85.2637 80.4427C85.2439 80.7607 85.2 81.1744 85.1739 81.4583C85.1142 82.1067 85.0591 82.8782 85.1065 83.8558C85.1554 84.8619 85.213 85.72 85.2647 86.4251C85.4331 86.8253 85.5274 87.262 85.5274 87.72C85.5274 88.8739 85.53 89.7969 85.5811 90.471C86.0363 90.4479 86.5411 90.4301 87.0401 90.4319C88.0961 90.4358 89.5068 90.5199 90.8575 90.9778C92.2395 91.4465 93.8208 92.4107 94.6524 94.2464L94.7305 94.4271L94.9903 95.0765C95.2189 95.6613 95.3787 96.0797 95.6817 96.5569C96.0055 97.0669 96.327 97.3353 96.7471 97.4798C100.208 98.6702 103.387 99.6557 105.484 100.157C105.955 100.269 106.329 100.317 106.72 100.36C106.891 100.379 107.184 100.409 107.436 100.444C107.639 100.472 107.9 100.513 108.19 100.583L108.49 100.662L109.035 100.831C110.406 101.276 112.404 102.117 113.72 104C113.997 104.397 114.235 104.801 114.412 105.104C114.611 105.445 114.739 105.667 114.876 105.881C114.896 105.912 114.916 105.94 114.934 105.966C114.968 105.963 115.006 105.96 115.046 105.953C116.18 105.781 117.915 105.619 119.678 105.679C121.239 105.732 123.658 105.972 125.488 107.221C125.827 107.452 126.732 107.913 128.376 108.68C129.873 109.378 131.831 110.265 133.837 111.231C134.735 111.663 135.339 111.777 136.69 112.263C137.554 112.574 139.616 113.32 140.631 115.324L140.727 115.522L140.914 115.958C141.091 116.393 141.237 116.818 141.357 117.171C141.516 117.645 141.625 117.975 141.738 118.284C142.659 118.448 144.749 118.661 150.392 118.968C151.531 119.03 152.574 119.114 153.428 119.3C154.261 119.481 155.432 119.865 156.336 120.887L156.513 121.1L156.641 121.272C156.759 121.439 156.853 121.594 156.925 121.722C156.931 121.734 156.937 121.747 156.943 121.758C158.188 122.151 160.153 122.841 161.706 123.753C162.888 124.447 164.388 125.492 165.804 126.703C167.985 128.57 169.988 131.008 170.664 133.54C170.723 133.761 170.888 134.162 171.158 134.579C171.436 135.009 171.682 135.233 171.779 135.298C172.256 135.617 173.306 136.169 174.649 136.824C175.327 137.154 175.994 137.47 176.609 137.759C176.997 136.676 177.508 135.574 178.181 134.594C179.56 132.583 181.326 130.068 183.259 127.16C183.943 126.131 184.781 125.402 185.644 124.882C185.302 124.985 184.937 125.041 184.56 125.041C182.567 125.041 180.951 123.491 180.951 121.578C180.951 121.252 180.949 121.009 180.945 120.832C180.792 120.685 180.596 120.515 180.321 120.298C180.109 120.301 179.862 120.308 179.553 120.319C179.183 120.331 178.738 120.346 178.278 120.35C177.387 120.357 176.221 120.326 175.067 120.076C173.921 119.826 172.421 119.281 171.276 117.988C170.503 117.114 169.363 115.861 168.447 114.681C167.986 114.086 167.506 113.414 167.126 112.733C166.799 112.147 166.295 111.125 166.275 109.935C166.263 109.153 166.232 108.443 166.195 107.532C166.159 106.625 166.117 105.557 166.086 104.117C166.059 102.856 166.032 101.086 166.005 99.3382C165.978 97.5818 165.951 95.8473 165.924 94.6312C165.896 93.3741 165.879 92.7465 165.855 92.386C165.852 92.3542 165.85 92.3271 165.849 92.305C165.732 91.9785 165.627 91.6662 165.548 91.4271C165.483 91.2319 165.43 91.0803 165.385 90.9554C164.097 90.7098 162.306 90.0403 161.157 88.2601C160.955 87.946 160.742 87.6323 160.556 87.3753C160.463 87.2471 160.385 87.1463 160.326 87.0735C160.293 87.0327 160.274 87.011 160.269 87.0042L160.291 87.0257C160.211 86.9452 160.135 86.861 160.064 86.7728C160.055 86.7618 160.046 86.7506 160.037 86.7396C160.013 86.709 159.989 86.6782 159.966 86.6468C159.952 86.6274 159.938 86.6077 159.924 86.5882C159.905 86.5615 159.886 86.5345 159.868 86.5071C159.854 86.4861 159.841 86.4649 159.827 86.4437C159.812 86.4201 159.798 86.3963 159.783 86.3724C159.766 86.3438 159.749 86.3154 159.732 86.2864C159.719 86.2626 159.706 86.2384 159.693 86.2142C159.682 86.1927 159.67 86.1714 159.659 86.1497C159.643 86.1182 159.628 86.0862 159.613 86.054C159.601 86.0274 159.589 86.0008 159.577 85.9739C159.57 85.9578 159.563 85.9414 159.557 85.9251C159.514 85.823 159.477 85.7194 159.445 85.6146C159.399 85.461 159.37 85.3696 159.343 85.2894L158.963 84.7991C158.625 84.3652 158.17 83.7653 157.683 82.9749C156.973 81.9027 156.259 81.0385 155.549 80.429C154.753 79.7461 154.073 78.9999 153.668 78.5804C153.191 78.0853 152.981 77.9137 152.838 77.8275C152.338 77.5254 151.891 77.194 151.558 76.9407C151.177 76.6519 150.953 76.4751 150.696 76.2943C150.447 76.1191 150.31 76.0477 150.258 76.0228C148.561 75.8533 145.335 75.2922 143.763 72.3372C143.435 71.7212 143.249 71.1267 143.128 70.6751C143.027 70.2959 142.909 69.7492 142.863 69.5589C142.751 69.088 142.681 68.9543 142.666 68.93C142.269 68.4504 141.623 67.7033 140.991 66.6155C140.358 65.525 139.787 64.1851 139.268 62.3743C138.896 61.077 138.617 59.703 138.46 59.0667C138.265 58.2768 138.133 58.0144 138.032 57.8685C137.688 57.3718 137.314 56.9799 136.683 56.2649C136.139 55.6485 135.349 54.729 134.812 53.5579C134.57 53.0316 134.241 52.4861 133.915 52.0814C133.797 51.9354 133.699 51.8363 133.632 51.7728C133.267 51.6734 132.871 51.6266 131.987 51.4661C131.283 51.3382 129.597 51.0439 128.29 49.8509C127.32 48.9655 127.038 47.8159 126.946 47.4456C126.808 46.8854 126.727 46.272 126.669 45.7249C126.568 44.7833 126.452 43.0438 126.333 41.7933C126.319 41.6432 126.227 41.3159 126.022 41.0267C125.847 40.7811 125.657 40.648 125.417 40.5823C123.046 39.9328 119.951 39.5204 118.134 39.4378C117.434 39.406 116.77 39.4103 116.097 39.4222C115.468 39.4333 114.713 39.4541 114.04 39.4398C112.772 39.4127 110.705 39.2751 109.002 37.8392C107.933 36.9376 106.33 35.2738 104.976 31.3109C104.002 28.4606 103.187 25.9356 102.606 23.9095C102.065 22.0257 101.61 20.1953 101.571 18.9495C101.522 17.3692 101.725 15.7414 101.755 15.1751C101.777 14.7618 101.75 14.2093 101.696 13.303C101.647 12.4659 101.582 11.4133 101.593 10.2737C101.601 9.47433 101.646 8.61413 101.76 7.70929C101.747 7.71814 101.736 7.72775 101.725 7.73565C101.467 7.91221 101.225 8.00805 101.094 8.05499C100.034 8.43516 98.8727 8.05046 98.2637 7.19073C98.2271 7.17671 98.1808 7.1602 98.1241 7.14288C97.8572 7.06143 97.4399 6.97726 96.8038 6.91436L96.628 6.89679L96.4571 6.85577C94.7109 6.42936 93.0782 5.87613 91.7383 5.44659C90.4339 5.02844 89.4547 4.74668 88.6573 4.63409C88.621 4.64362 88.5741 4.656 88.5176 4.67315Z" fill="#151515"/>
</g>
<defs>
<filter id="filter0_d_369_219" x="0" y="0" width="198.018" height="156.126" filterUnits="userSpaceOnUse" color-interpolation-filters="sRGB">
<feFlood flood-opacity="0" result="BackgroundImageFix"/>
<feColorMatrix in="SourceAlpha" type="matrix" values="0 0 0 0 0 0 0 0 0 0 0 0 0 0 0 0 0 0 127 0" result="hardAlpha"/>
<feOffset dy="4"/>
<feGaussianBlur stdDeviation="2"/>
<feComposite in2="hardAlpha" operator="out"/>
<feColorMatrix type="matrix" values="0 0 0 0 0 0 0 0 0 0 0 0 0 0 0 0 0 0 0.25 0"/>
<feBlend mode="normal" in2="BackgroundImageFix" result="effect1_dropShadow_369_219"/>
<feBlend mode="normal" in="SourceGraphic" in2="effect1_dropShadow_369_219" result="shape"/>
</filter>
</defs>
</svg>
