<svg width="253" height="207" viewBox="0 0 253 207" fill="none" xmlns="http://www.w3.org/2000/svg">
<g filter="url(#filter0_d_369_393)">
<path fill-rule="evenodd" clip-rule="evenodd" d="M201.8 0.27856C202.969 -0.328068 204.429 0.0889916 205.061 1.2102C205.261 1.56433 205.354 1.9464 205.351 2.3225C206.467 2.01277 207.682 2.51468 208.193 3.55493C208.337 3.84837 208.813 4.53595 209.564 5.34985C210.294 6.14078 211.108 6.86047 211.805 7.29711C215.37 9.53021 216.364 13.1394 217.329 15.2805C218.488 17.8532 219.659 20.6539 220.652 23.0188C221.672 25.4467 222.459 27.3037 222.905 28.1477C223.938 30.1039 224.626 31.9606 225.419 34.1584C225.768 35.1287 226.304 35.8691 226.979 36.6331C227.554 37.2837 228.625 38.3364 229.337 39.3567C229.508 39.6024 229.87 39.8691 230.908 40.0725C231.414 40.1716 231.966 40.2355 232.621 40.3069C233.233 40.3736 233.971 40.4498 234.666 40.5813C237.116 41.0448 239.908 41.6728 242.185 43.2444C243.498 44.1506 244.782 45.3703 245.822 46.5872C246.932 47.886 247.245 49.4611 247.444 50.425C247.687 51.6 247.807 52.1244 248.072 52.5129C248.387 52.9743 248.507 53.504 248.452 54.0129C248.523 54.2964 248.541 54.5974 248.492 54.9036C248.353 55.7729 248.151 56.8213 247.281 57.7268L247.136 57.8772L246.966 58.0012C246.134 58.6072 244.175 59.8912 242.367 61.1614L242.319 61.1956L242.267 61.2288C241.396 61.778 240.489 62.4755 239.465 63.2825C238.473 64.0643 237.366 64.9538 236.218 65.76C233.346 67.7773 231.951 68.3426 229.518 70.5823C228.781 71.2615 228.04 72.027 227.225 72.8606C226.432 73.672 225.573 74.5447 224.683 75.3313C222.99 76.8278 220.706 78.4627 217.916 78.4612C210.209 78.4569 204.367 78.1679 199.816 78.5227C196.957 78.7456 195.7 78.8086 194.299 79.343C193.668 79.5838 193 79.9641 192.028 80.4924C191.148 80.9707 190.034 81.5587 188.826 81.9143C187.286 82.3673 185.683 82.5466 184.4 82.6858C182.99 82.8387 182.067 82.9402 181.406 83.1506C180.755 83.3577 179.624 83.9264 178.419 84.8616C177.231 85.783 176.108 86.9546 175.357 88.2737C174.674 89.4729 173.744 90.7228 172.845 91.8762C171.897 93.0927 171.027 94.1479 170.24 95.1995C169.779 95.8154 169.015 97.2358 168.105 99.2278C167.225 101.155 166.285 103.442 165.457 105.656C163.515 110.846 163.086 112.377 161.834 117.326C161.301 119.431 160.321 121.385 159.637 122.857C158.859 124.532 158.56 125.418 158.592 125.986C158.714 128.128 159.128 130.808 158.548 133.537C158.061 135.831 156.671 138.492 155.083 140.377C153.987 141.677 152.947 142.894 151.896 145.113C151.592 145.754 151.313 146.416 151.022 147.114C150.738 147.796 150.438 148.529 150.117 149.235C149.478 150.636 148.664 152.152 147.415 153.408C146.783 154.043 146.206 154.713 145.539 155.47C144.895 156.2 144.176 156.998 143.362 157.739C141.366 159.554 138.518 161.839 136.952 163.073C135.18 164.469 134.011 165.22 132.846 166.458C132.522 166.803 132.066 167.525 131.497 168.75C130.949 169.93 130.379 171.392 129.761 173.07C129.632 173.421 129.463 174.234 129.323 175.526C129.189 176.759 129.098 178.27 129.058 179.907C129.011 181.836 129.039 183.897 129.144 185.842C129.515 186.244 129.794 186.735 129.94 187.292C130.188 188.239 130.002 189.192 129.505 189.961C129.519 191.117 128.63 192.125 127.406 192.276C126.983 192.328 126.571 192.269 126.202 192.126C125.725 192.424 125.211 192.772 124.697 193.128C124.404 193.332 124.143 193.547 123.728 193.889C123.34 194.209 122.825 194.631 122.197 195.052C121.262 195.678 120.358 196.185 119.631 196.579C118.811 197.024 118.408 197.231 118.123 197.41C116.752 198.275 115.162 198.584 114.035 198.716C112.826 198.858 111.671 198.847 110.869 198.807C109.566 198.742 106.414 198.379 104.092 197.769C103.161 197.524 102.47 197.126 102.037 196.857C101.931 196.791 101.832 196.728 101.756 196.679C101.674 196.626 101.619 196.59 101.565 196.556C101.47 196.496 101.435 196.478 101.431 196.476C100.576 196.057 99.9359 195.46 99.5524 195.081C99.1873 194.721 98.6879 194.176 98.3932 193.868C97.9083 193.361 97.4192 192.937 96.4469 192.004L96.0319 191.617C95.9082 191.505 95.7976 191.407 95.6998 191.321C95.6107 191.241 95.4968 191.139 95.402 191.052C95.34 190.995 95.127 190.801 94.9274 190.559L93.816 189.207C91.7448 188.675 90.8116 188.561 90.278 188.608C89.8986 188.641 87.7894 188.965 85.1598 189.104C82.4249 189.248 78.3107 189.299 76.1334 189.365C73.5863 189.441 71.3954 189.624 69.3619 189.6C66.5673 189.567 64.0697 188.145 63.5006 187.897C62.485 187.454 61.6505 186.944 60.3658 185.671C59.3181 184.633 57.7727 182.679 56.9557 181.651C55.3937 179.684 54.4986 177.546 53.7184 175.553L53.6891 175.479L53.6637 175.404C53.497 174.91 53.355 174.397 53.2916 173.892C53.248 173.544 53.1344 172.494 53.7506 171.431L53.8131 171.325C53.3187 168.51 54.1843 165.401 54.6783 163.607C54.8482 162.99 54.8858 162.272 54.8366 161.484C54.8124 161.098 54.7698 160.722 54.7213 160.346C54.6804 160.029 54.6117 159.553 54.5778 159.204C54.4555 157.949 54.3956 157.161 54.1783 156.233C54.0611 155.732 53.922 155.392 53.8151 155.177C52.8116 155.716 51.558 155.788 50.4498 155.261C48.8161 154.485 47.8855 154.084 46.8629 153.832C46.7722 153.879 46.6575 153.938 46.5309 153.996C46.3663 154.072 46.153 154.163 45.9039 154.245C45.0487 154.529 44.6018 154.7 44.026 155.08C44.0209 155.084 44.0155 155.087 44.0104 155.09C44.0112 155.147 44.0121 155.208 44.0133 155.272C44.035 156.394 44.1292 158.251 44.0475 160.196C43.8946 163.831 42.8208 166.124 42.2975 167.22C41.4326 169.031 39.945 169.8 39.1891 170.17C37.3266 171.083 35.463 171.216 34.0358 171.1C32.6602 170.988 31.4442 170.624 30.6696 170.241C29.57 169.698 28.8673 168.912 28.4215 168.369C28.1963 168.095 27.9636 167.789 27.7653 167.53C27.5533 167.253 27.3372 166.973 27.0875 166.666C25.944 165.262 25.2896 163.772 24.8678 162.574C24.6568 161.975 24.4929 161.414 24.3659 160.975C24.2252 160.488 24.1499 160.226 24.0797 160.031C23.82 159.307 23.6374 158.281 23.5006 157.259C23.3515 156.144 23.2212 154.747 23.1393 153.133C23.0878 152.119 22.7576 150.844 22.4762 150.141C21.9642 148.861 21.9258 147.781 21.8444 145.998C21.7681 144.329 21.7467 140.715 21.6891 138.915C21.6421 137.445 21.5765 136.535 21.5241 135.978C21.4239 135.905 21.3045 135.822 21.1627 135.725C20.8574 135.516 20.5789 135.334 20.1784 135.065C19.8248 134.827 19.4493 134.599 18.9762 134.316C18.5587 134.066 18.0645 133.771 17.5348 133.435C16.0819 132.67 14.7412 131.633 13.7985 130.764L13.6852 130.66L13.6803 130.655C11.151 130.007 8.6668 129.372 6.6764 128.861C4.75138 128.366 3.60818 126.468 4.12366 124.62C4.6393 122.773 6.61854 121.676 8.54358 122.171C9.12006 122.319 9.73854 122.476 10.3873 122.643C10.2833 122.033 10.4311 121.385 10.8561 120.858C11.3462 120.25 12.4231 119.116 13.6832 117.684C16.3729 114.627 18.1513 113.325 20.0367 111.908C20.8136 111.325 21.8654 110.654 22.7477 110.055C23.6967 109.411 24.6257 108.738 25.4537 107.988C26.8908 106.685 28.2362 105.545 29.4899 104.49C30.9705 103.245 32.4456 101.949 33.733 100.806C34.3547 100.254 34.9052 99.0833 35.4254 97.4739C35.8286 96.2265 36.0025 95.3463 36.2086 94.4045C36.4198 93.4397 36.6601 92.4354 37.2028 91.1682C37.9479 89.4282 38.905 87.2176 40.776 85.3391C42.3246 83.7845 43.3273 82.691 44.111 81.8381C44.8771 81.0043 45.5246 80.2974 46.2809 79.6575C47.6501 78.4989 49.3884 77.6757 50.6139 77.1106C51.5721 76.6687 52.1835 76.3283 53.0651 75.8987C53.7816 75.5495 54.5739 75.1979 55.4703 74.9622C55.5145 74.9189 55.5771 74.8558 55.6559 74.7649C55.9702 74.4022 56.327 73.8966 56.8082 73.2053C57.6511 71.9946 58.9308 70.0979 60.5875 68.9602C64.6982 66.1374 65.1367 64.7056 66.7086 62.8088C68.4682 60.6857 69.8621 58.9183 71.2057 57.4299C72.1529 56.3807 75.7237 52.9337 77.5416 51.0627C78.2157 50.3689 78.6694 49.5464 78.9215 48.2522C79.2139 46.7506 80.0135 45.7632 80.567 45.1614C80.8023 44.9055 80.8932 44.8128 80.9635 44.7395C81.3167 43.7976 82.2842 43.1518 83.3776 43.218C83.384 43.2184 83.3906 43.2195 83.3971 43.22C83.4742 42.9247 83.6144 42.6395 83.819 42.3821C85.1326 40.7297 88.1497 37.8466 89.3356 36.6389C89.697 36.2706 89.9121 35.8432 90.2233 35.0969C90.4914 34.4538 90.9256 33.2778 91.8395 32.3079C92.622 31.4774 93.6268 30.9531 94.3356 30.5666C95.1187 30.1397 95.9273 29.6985 96.8737 28.9797C99.1195 27.2739 100.384 25.7408 101.82 24.3293C103.517 22.6606 105.502 22.1411 108.272 21.2551C110.001 20.7019 111.51 20.537 112.903 20.4788C113.576 20.4506 114.253 20.4471 114.863 20.4387C115.492 20.4301 116.091 20.4165 116.712 20.3733C117.794 20.2979 118.794 20.1274 119.896 19.928C120.972 19.7333 122.182 19.5038 123.501 19.3723C125.66 19.1572 130.18 19.0173 133.834 18.7893C135.918 18.6592 137.744 18.6224 139.354 18.5998C140.986 18.577 142.334 18.5685 143.574 18.5002C149.036 18.1993 152.05 18.0713 153.932 17.9543C154.822 17.8991 155.366 17.8477 155.714 17.802C155.73 17.6513 155.746 17.4898 155.764 17.2942C155.783 17.0867 155.806 16.8431 155.837 16.5959C155.895 16.1174 155.997 15.4903 156.238 14.8704C157.958 10.4437 162.431 10.1661 164.099 9.89379C166.528 9.49737 168.415 9.24378 169.934 8.94653C170.625 8.81141 171.136 8.68359 171.504 8.56274C171.542 8.42652 171.598 8.26421 171.681 8.09008L171.765 7.92407C172.673 6.25121 174.553 5.84876 175.551 5.69555C176.642 5.52822 178.169 5.48518 179.164 5.4104C183.09 4.91737 188.49 4.36999 191.909 3.84594L191.922 3.84399C192.457 3.76505 192.906 3.76782 193.187 3.76782C193.576 3.76787 193.943 3.8593 194.268 4.01684C194.746 3.77602 195.232 3.52452 195.699 3.2268C196.575 2.66818 197.597 2.21495 198.557 1.79223C199.564 1.34901 200.62 0.891393 201.8 0.27856ZM203.613 4.58227C202.458 5.16109 201.42 5.61139 200.563 5.98852C199.544 6.43722 198.872 6.74759 198.362 7.0725C197.576 7.57371 196.794 7.96459 196.248 8.23754C195.954 8.38429 195.761 8.47968 195.617 8.55883C195.595 8.57102 195.577 8.58164 195.562 8.59008C194.632 9.36364 193.225 9.34269 192.321 8.50805C192.305 8.493 192.29 8.47656 192.274 8.46118C188.743 8.98253 183.277 9.54848 179.715 9.99731L179.656 10.0051L179.596 10.01C178.947 10.0603 178.262 10.0928 177.724 10.1252C177.147 10.1601 176.688 10.1974 176.311 10.2551C176.221 10.2689 176.143 10.2826 176.076 10.2961C176.057 10.3711 176.035 10.4506 176.008 10.5325C175.903 10.8527 175.708 11.2672 175.331 11.6497C174.695 12.2947 173.869 12.6543 173.217 12.8801C172.52 13.1218 171.719 13.3087 170.895 13.47C169.284 13.7852 167.126 14.0831 164.906 14.4456C162.448 14.8467 161.331 14.9803 160.747 16.4836C160.708 16.5839 160.659 16.7774 160.615 17.137C160.594 17.3087 160.577 17.4898 160.557 17.7004C160.539 17.8997 160.517 18.1363 160.49 18.3674C160.44 18.7965 160.349 19.4302 160.094 20.0354C159.818 20.6898 159.26 21.5143 158.177 21.9368C157.15 22.3375 156.085 22.4474 154.244 22.5618C152.359 22.6789 149.206 22.8145 143.85 23.1096C142.478 23.1852 140.987 23.1941 139.423 23.2161C137.837 23.2383 136.107 23.2743 134.146 23.3967C130.145 23.6464 126.07 23.7576 123.998 23.9641C122.92 24.0715 121.929 24.2597 120.788 24.4661C119.673 24.6677 118.439 24.8817 117.059 24.9778C116.295 25.031 115.582 25.046 114.932 25.0549C114.264 25.0641 113.694 25.0678 113.113 25.092C111.997 25.1387 110.964 25.2617 109.794 25.636C106.562 26.6696 105.956 26.8721 105.263 27.553C104.155 28.6425 102.427 30.6496 99.859 32.5998C98.6004 33.5558 97.512 34.1454 96.7125 34.5813C95.8387 35.0578 95.5734 35.2289 95.4078 35.4045C95.1924 35.6333 95.0583 35.9286 94.6901 36.8118C94.3649 37.5918 93.8752 38.7481 92.8366 39.8059C91.3798 41.2894 88.755 43.7833 87.6432 45.1819C87.1339 45.8224 86.3443 46.1344 85.5651 46.0832C85.4084 46.7882 85.0142 47.2841 84.8317 47.5032C84.6392 47.7341 84.2518 48.1319 84.1744 48.2161C83.858 48.5601 83.7108 48.7928 83.651 49.0998C83.2525 51.1463 82.4323 52.8001 81.0602 54.2122C78.9438 56.3903 75.757 59.4402 74.8424 60.4534C73.5862 61.8449 72.3408 63.4317 70.4743 65.6838C69.2747 67.1314 68.216 69.3993 63.3873 72.7151C62.5924 73.2611 61.8039 74.3396 60.8082 75.7698C60.3705 76.3985 59.8645 77.1292 59.3551 77.717C58.9296 78.2079 58.0964 79.1041 56.8737 79.383C56.4142 79.4878 55.9307 79.6811 55.2438 80.0159C54.6453 80.3075 53.664 80.8262 52.6979 81.2717C51.4316 81.8557 50.2697 82.4383 49.4635 83.1204C48.9752 83.5336 48.5283 84.0105 47.7194 84.8909C46.9281 85.7521 45.8743 86.9044 44.2555 88.5295C43.0867 89.7028 42.4168 91.141 41.6539 92.9221C41.2775 93.801 41.1079 94.4835 40.9176 95.3528C40.7223 96.2452 40.5038 97.3486 40.0211 98.842C39.5225 100.385 38.679 102.706 37.0006 104.196C35.7021 105.348 34.1886 106.676 32.6598 107.962C31.4162 109.008 30.1271 110.104 28.7575 111.345C27.6819 112.32 26.5346 113.138 25.525 113.823C24.4491 114.553 23.6598 115.049 23.0026 115.543C21.2001 116.898 19.7286 117.97 17.359 120.663C15.8535 122.374 15.091 123.149 14.6617 123.682C14.6487 123.698 14.6331 123.712 14.6198 123.728C15.373 123.921 16.1354 124.117 16.8951 124.312C17.9381 124.579 18.7515 125.258 19.1969 126.117C19.6892 126.53 20.2546 126.941 20.7907 127.247L21.0817 127.404L21.2457 127.488L21.4 127.586C21.8698 127.888 22.3095 128.149 22.7965 128.441C23.266 128.722 23.7902 129.037 24.319 129.393C24.9002 129.784 25.7812 130.35 26.4498 130.895C26.9755 131.323 28.2525 132.403 28.5602 134.116L28.5866 134.283L28.6481 134.736C28.7229 135.345 28.8311 136.488 28.902 138.703C28.9761 141.021 28.9731 143.916 29.0543 145.695C29.0996 146.686 29.1288 147.147 29.1647 147.434C29.1789 147.547 29.1888 147.589 29.1901 147.594C29.1907 147.596 29.1912 147.599 29.193 147.605C29.1952 147.611 29.2011 147.628 29.2135 147.659C29.7249 148.938 30.253 150.938 30.3473 152.796C30.4215 154.257 30.5376 155.471 30.6588 156.377C30.7881 157.343 30.8974 157.754 30.902 157.773C31.0629 158.22 31.209 158.74 31.32 159.123C31.4445 159.554 31.5629 159.955 31.7047 160.358C31.9889 161.165 32.3239 161.849 32.775 162.403C33.0941 162.794 33.3629 163.143 33.5817 163.429C33.8139 163.732 33.9588 163.922 34.0895 164.081C34.0982 164.092 34.1069 164.102 34.1149 164.112C34.2597 164.147 34.443 164.183 34.6471 164.199C35.1117 164.237 35.5363 164.178 35.8883 164.01C36.2494 163.225 36.7502 161.946 36.8356 159.916C36.9059 158.243 36.8236 156.8 36.7965 155.4C36.7843 154.77 36.7814 154.03 36.86 153.37C36.8996 153.038 36.9753 152.582 37.151 152.103C37.3161 151.653 37.6854 150.861 38.5231 150.229L38.692 150.107C38.8582 149.991 39.0111 149.898 39.1217 149.832C39.2782 149.74 39.4351 149.653 39.5494 149.59C39.6806 149.518 39.7619 149.474 39.8434 149.428C39.8996 149.396 39.9281 149.379 39.9362 149.374C41.2913 148.48 42.4563 148.063 43.444 147.734C43.4588 147.726 43.4791 147.717 43.5035 147.704C43.5963 147.656 43.9231 147.481 44.2565 147.336C45.058 146.988 46.2667 146.639 47.7653 146.928C48.0866 146.99 48.3965 147.059 48.6969 147.134C48.9237 146.989 49.1879 146.851 49.4938 146.742L49.6725 146.684C50.5552 146.415 51.3126 146.518 51.6744 146.585C52.0358 146.652 52.3746 146.762 52.4869 146.798L52.5172 146.807L52.5465 146.818C53.9894 147.302 54.9368 147.65 55.8414 148.08C56.8009 148.537 58.3144 149.277 59.4977 150.836C60.3145 151.912 60.8765 153.251 61.2194 154.715C61.5611 156.175 61.6587 157.476 61.7643 158.56C61.8225 159.156 62.4798 162.385 61.6559 165.376C61.0775 167.476 60.7359 169.107 60.9313 170.186C61.0482 170.831 61.149 171.267 61.2194 171.534C61.2545 171.668 61.2802 171.751 61.2926 171.789C61.3104 171.844 61.2962 171.791 61.2457 171.679C61.7002 172.686 61.6161 173.785 61.1178 174.684C61.6127 175.816 62.0853 176.684 62.695 177.451C63.6382 178.639 64.8738 180.184 65.5504 180.855C65.966 181.267 66.1678 181.418 66.2428 181.47C66.2796 181.495 66.2977 181.509 66.484 181.59C66.8242 181.738 67.2247 181.931 67.4821 182.051C67.7832 182.192 68.0409 182.307 68.2907 182.404C68.7881 182.596 69.15 182.672 69.4508 182.675C71.3507 182.697 72.7138 182.539 75.9059 182.443C78.3484 182.369 82.1218 182.327 84.7643 182.188C86.0132 182.122 86.9503 182.029 87.6823 181.943C88.2978 181.87 89.1081 181.755 89.6295 181.71C91.7061 181.53 93.974 182.057 96.3229 182.685C97.5906 183.024 98.5106 183.972 98.8356 185.107C98.9677 185.146 99.0499 185.179 99.069 185.186C99.2827 185.265 99.4436 185.347 99.5153 185.385C99.6683 185.466 99.786 185.542 99.8307 185.572C99.936 185.64 100.029 185.708 100.077 185.742C100.183 185.82 100.306 185.914 100.388 185.977C100.651 186.177 100.876 186.406 101.064 186.655L101.528 187.085L101.54 187.097C102.239 187.768 103.097 188.544 103.711 189.185C103.929 189.413 104.143 189.644 104.306 189.818C104.483 190.006 104.615 190.143 104.727 190.254C104.795 190.322 104.845 190.364 104.876 190.391C105.135 190.526 105.354 190.658 105.519 190.762C105.617 190.823 105.712 190.886 105.781 190.93C105.857 190.979 105.91 191.014 105.96 191.044C106.009 191.075 106.044 191.093 106.065 191.105C107.768 191.543 110.33 191.846 111.245 191.892C111.794 191.919 112.502 191.92 113.158 191.843C113.856 191.761 114.141 191.629 114.157 191.623C114.711 191.274 115.509 190.86 116.078 190.551C116.739 190.192 117.412 189.811 118.068 189.372C118.369 189.171 118.641 188.953 119.026 188.636C119.384 188.341 119.883 187.922 120.468 187.516C121.129 187.057 121.937 186.508 122.732 186.035C123.15 185.787 123.695 185.478 124.296 185.215C124.218 183.397 124.204 181.537 124.247 179.799C124.289 178.074 124.386 176.436 124.537 175.048C124.681 173.719 124.891 172.436 125.224 171.531C125.85 169.832 126.472 168.227 127.101 166.871C127.709 165.562 128.416 164.277 129.276 163.364C130.761 161.786 132.492 160.613 133.898 159.505C135.461 158.274 138.192 156.08 140.052 154.388C140.658 153.838 141.229 153.209 141.867 152.487C142.48 151.791 143.177 150.982 143.934 150.221C144.595 149.557 145.138 148.635 145.708 147.384C145.99 146.764 146.258 146.116 146.555 145.402C146.846 144.703 147.161 143.951 147.516 143.201C148.833 140.421 150.2 138.828 151.341 137.474C152.51 136.087 153.52 134.091 153.834 132.615C154.25 130.655 153.945 128.97 153.79 126.239C153.683 124.361 154.568 122.43 155.243 120.977C156.012 119.32 156.754 117.831 157.158 116.237C158.443 111.159 158.92 109.468 160.929 104.096C161.788 101.799 162.768 99.4113 163.699 97.3733C164.6 95.4002 165.541 93.5642 166.334 92.5061C167.143 91.4247 168.158 90.1821 168.993 89.1116C169.876 87.9779 170.627 86.9504 171.134 86.0598C172.257 84.0882 173.845 82.4724 175.394 81.2707C176.925 80.083 178.558 79.1919 179.891 78.7678C181.142 78.37 182.659 78.228 183.859 78.0979C185.185 77.954 186.363 77.81 187.416 77.5002C188.066 77.3089 188.769 76.9578 189.656 76.4758C190.451 76.0438 191.498 75.4423 192.521 75.052C194.75 74.2015 196.871 74.1194 199.426 73.9202C204.232 73.5456 210.595 73.8399 217.919 73.844C218.755 73.8444 219.852 73.3247 221.424 71.9348C222.167 71.2781 222.914 70.523 223.714 69.7034C224.494 68.9059 225.336 68.0348 226.187 67.2512C228.911 64.7434 231.095 63.6358 233.377 62.0334C234.388 61.3232 235.365 60.5394 236.412 59.7141C237.413 58.925 238.484 58.0933 239.579 57.3987C241.393 56.1254 242.759 55.2343 243.663 54.6038C243.673 54.5585 243.68 54.506 243.691 54.4465C243.086 53.2935 242.878 52.0629 242.725 51.3225C242.502 50.2416 242.343 49.7978 242.102 49.5159C241.264 48.5355 240.277 47.6157 239.376 46.9934C238.035 46.0684 236.196 45.577 233.736 45.1116C233.273 45.0241 232.749 44.9671 232.077 44.8938C231.447 44.8251 230.691 44.7418 229.946 44.5959C228.483 44.3093 226.57 43.6917 225.338 41.9241C224.819 41.181 224.28 40.7172 223.309 39.6194C222.439 38.6348 221.494 37.3931 220.872 35.6682C220.077 33.4628 219.482 31.8783 218.614 30.2346C218.049 29.1652 217.163 27.0649 216.188 24.7444C215.187 22.3607 214.043 19.621 212.913 17.1135C211.562 14.1158 211.186 12.4229 209.175 11.1633C207.992 10.422 206.855 9.379 205.962 8.4104C205.089 7.46506 204.269 6.39516 203.84 5.52172C203.691 5.21756 203.619 4.89798 203.613 4.58227Z" fill="#151515"/>
</g>
<defs>
<filter id="filter0_d_369_393" x="0" y="0" width="252.519" height="206.833" filterUnits="userSpaceOnUse" color-interpolation-filters="sRGB">
<feFlood flood-opacity="0" result="BackgroundImageFix"/>
<feColorMatrix in="SourceAlpha" type="matrix" values="0 0 0 0 0 0 0 0 0 0 0 0 0 0 0 0 0 0 127 0" result="hardAlpha"/>
<feOffset dy="4"/>
<feGaussianBlur stdDeviation="2"/>
<feComposite in2="hardAlpha" operator="out"/>
<feColorMatrix type="matrix" values="0 0 0 0 0 0 0 0 0 0 0 0 0 0 0 0 0 0 0.25 0"/>
<feBlend mode="normal" in2="BackgroundImageFix" result="effect1_dropShadow_369_393"/>
<feBlend mode="normal" in="SourceGraphic" in2="effect1_dropShadow_369_393" result="shape"/>
</filter>
</defs>
</svg>
