<svg width="112" height="102" viewBox="0 0 112 102" fill="none" xmlns="http://www.w3.org/2000/svg">
<g filter="url(#filter0_d_369_433)">
<path fill-rule="evenodd" clip-rule="evenodd" d="M11.6717 0.0136014C13.0882 -0.10473 14.1842 0.567495 14.845 1.31229C14.8756 1.34673 14.9046 1.38005 14.9286 1.40796L14.9824 1.47173C14.9942 1.4855 15.0051 1.49756 15.0163 1.51038C15.0493 1.51391 15.0916 1.5184 15.1447 1.52005C21.0048 1.70064 23.1809 1.8871 27.8023 2.3298C31.0419 2.64015 32.8705 3.85462 36.2718 6.11379C36.8295 6.48421 37.4296 6.88283 38.085 7.31005C41.2152 9.35035 43.1083 10.543 44.3371 11.3144C44.4383 11.3779 44.5362 11.4396 44.6309 11.4989C45.6334 12.1276 46.2816 12.5338 46.8354 12.9522C48.0581 13.876 49.1456 15.1793 50.3144 16.5932C50.4474 16.7541 50.5839 16.9201 50.7247 17.0908C51.8921 18.5066 53.3459 20.2691 55.3966 22.5252C56.6089 23.8591 58.2657 25.2271 59.7747 26.4725C60.3287 26.9298 60.8632 27.3701 61.348 27.7867C62.784 29.0207 63.6128 29.6688 64.9116 30.6836C65.4085 31.0718 65.9744 31.5135 66.6691 32.0625C66.8994 32.2446 67.1514 32.4439 67.4198 32.6558C69.504 34.3009 72.5841 36.7316 74.2893 38.1888C75.5852 39.2962 76.6938 40.293 77.7275 41.7959C78.72 43.2391 79.5643 45.0315 80.627 47.6507C81.3527 49.4393 82.0733 50.3855 82.9431 51.5043C83.2279 51.8707 83.5916 52.304 84.0065 52.7991C85.5357 54.6237 87.7662 57.2858 89.3605 60.5149C89.5905 60.9809 89.8315 61.5407 90.0575 62.0658C90.0992 62.1629 90.1403 62.2589 90.1809 62.3528C90.4586 62.9952 90.7495 63.652 91.084 64.3144C91.7607 65.6539 92.5516 66.8776 93.5544 67.8065C96.3572 70.4025 100.645 75.7842 105.699 83.1039C106.006 83.2627 106.378 83.4965 106.727 83.8382C107.362 84.461 107.675 85.184 107.831 85.8307C108.077 86.8498 108.08 88.2836 107.667 89.5113C107.284 90.648 106.506 91.8706 105.217 92.5822C104.275 93.1021 102.9 93.6581 101.348 93.8896C99.7927 94.1214 97.8032 94.0591 95.9352 93.0035C95.81 92.9328 95.5737 92.8184 95.1695 92.6218L95.1675 92.6208C94.9506 92.5154 94.6852 92.3858 94.3629 92.2276C93.5307 91.8189 92.4755 91.2881 91.3579 90.6631C89.2136 89.464 86.4894 87.7316 84.7324 85.6056C84.072 84.8065 83.6982 84.1709 83.3523 83.5831C82.7108 82.4932 82.1649 81.5666 80.0664 80.061C79.7883 79.8615 79.513 79.6615 79.239 79.4619C78.2938 78.7734 77.3577 78.0909 76.3235 77.4627C75.0087 76.6639 73.7799 76.1129 72.6364 75.905C70.997 75.607 69.0928 75.4261 67.5164 75.4025C66.7249 75.3907 66.0869 75.4202 65.6435 75.474C65.5634 75.4837 65.4971 75.4942 65.4433 75.503C65.0401 75.809 64.3687 76.3155 63.5136 76.8085C62.3653 77.4705 60.8143 78.1785 58.4484 78.9904C54.0452 80.5013 48.7053 81.6906 44.3849 81.3529C43.4008 81.276 42.5825 81.1437 41.8628 80.9258C41.0913 80.6922 40.5546 80.397 40.1422 80.1412C40.1088 80.1205 40.0323 80.0837 39.9201 80.0301C38.9052 79.5447 34.9796 77.6674 33.7995 73.6168C33.1169 71.2738 32.986 67.789 34.9834 63.1094C36.3354 59.9417 37.2897 57.4852 37.3313 54.3538L37.3323 54.2447C37.3753 51.0048 37.412 48.2676 37.393 46.181C37.3834 45.1256 37.3598 44.2758 37.3193 43.6338C37.2847 43.0839 37.2441 42.823 37.2327 42.7497C37.2292 42.727 37.2285 42.7226 37.2317 42.7332L37.2307 42.7313L37.2297 42.7275C37.0512 42.1367 36.9917 41.9394 36.8742 41.7273C36.793 41.5806 36.6355 41.3467 36.1972 41.0248C33.4422 39.0021 31.8075 37.4403 30.4987 36.1895L30.419 36.1132C29.1311 34.8828 28.2777 34.0892 26.8792 33.2655C24.685 31.9731 22.8443 30.9353 21.4835 30.2217C20.7991 29.8629 20.2717 29.6049 19.9003 29.441C19.8185 29.4049 19.7505 29.3781 19.6961 29.3569C19.6809 29.351 19.6664 29.3457 19.6533 29.3405C19.5922 29.3356 19.5294 29.3311 19.4651 29.326C18.1223 29.2195 16.1021 29.0589 14.2914 28.7395C13.2785 28.5607 12.1622 28.3054 11.1907 27.9094C10.4064 27.5896 8.82012 26.8313 8.19561 25.1497C7.90585 24.3697 7.48278 23.7199 6.83248 22.7214C6.61385 22.3857 6.36918 22.01 6.09565 21.5773C5.45642 20.566 5.08806 19.2334 4.851 18.2137C4.59078 17.0943 4.3905 15.8861 4.23366 14.8964C4.12004 14.1794 3.95069 13.0197 4.0136 11.7666C4.07596 10.5256 4.37599 8.94055 5.41458 7.51587C5.41084 7.52078 5.41284 7.51663 5.42155 7.50138C5.44017 7.46878 5.48839 7.38467 5.56991 7.22598C5.69443 6.98355 5.84198 6.67759 6.02197 6.29931C6.05065 6.23902 6.08045 6.17722 6.11058 6.11379C6.43999 5.42034 6.85278 4.55045 7.29051 3.75411C7.7216 2.96985 8.3744 1.87612 9.22718 1.11517C9.64945 0.738403 10.4807 0.113119 11.6717 0.0136014ZM12.4812 6.93706C12.1993 7.47786 11.9214 8.06238 11.6428 8.64836C11.6206 8.69507 11.5983 8.74176 11.5761 8.78848C11.5595 8.82332 11.5429 8.8597 11.5253 8.8967C11.2356 9.50663 10.8151 10.3908 10.4101 10.9423C10.293 11.1019 10.1547 11.4316 10.1233 12.0555C10.0923 12.6731 10.1757 13.3329 10.2806 13.9948C10.4367 14.9794 10.6092 16.0076 10.8183 16.9072C10.9223 17.3546 11.0263 17.7316 11.128 18.0291C11.1781 18.1756 11.223 18.2876 11.2594 18.3692C11.2918 18.4418 11.3112 18.4755 11.3112 18.4755C11.4554 18.7036 11.6171 18.9492 11.7882 19.2099C12.401 20.1436 13.1407 21.271 13.681 22.4789C14.0559 22.6158 14.6252 22.764 15.3857 22.8982C16.8799 23.1619 18.5852 23.2984 19.961 23.4084C20.1308 23.422 20.2961 23.4351 20.4549 23.448C20.9504 23.4886 21.3807 23.6289 21.599 23.7041C21.8731 23.7986 22.1573 23.9151 22.4324 24.0365C22.9857 24.2807 23.6508 24.6109 24.3909 24.9989C25.8793 25.7793 27.8183 26.8731 30.0536 28.1896C32.1118 29.4019 33.3988 30.6296 34.7106 31.8828L34.7783 31.9475C36.0381 33.1514 37.4475 34.498 39.8883 36.29C40.9929 37.1011 41.7445 37.9802 42.2631 38.9164C42.6997 39.7048 42.9299 40.4819 43.0636 40.9331L43.0646 40.934C43.0784 40.9804 43.0906 41.0234 43.1025 41.0625C43.3037 41.7285 43.3812 42.5595 43.4261 43.2715C43.4761 44.0653 43.5007 45.0344 43.5107 46.1288C43.53 48.2512 43.4936 50.9956 43.4519 54.1306L43.448 54.4302C43.39 58.8012 42.0011 62.1839 40.6361 65.3821C39.1174 68.9403 39.4115 71.0546 39.6871 72.0012C39.8996 72.7305 40.3547 73.2627 41.0114 73.7415C41.35 73.9883 41.7204 74.2041 42.1257 74.4217C42.1959 74.4595 42.2847 74.5066 42.3845 74.559C42.7042 74.7267 43.1372 74.9534 43.436 75.1387C43.5613 75.2164 43.5957 75.2315 43.6849 75.2586C43.8263 75.3013 44.1605 75.3795 44.8758 75.4354C47.9297 75.6741 52.3109 74.799 56.4092 73.3926C58.5223 72.6675 59.6825 72.1109 60.3891 71.7036C60.9021 71.4078 61.1596 71.2123 61.5063 70.9499C61.6689 70.8267 61.8515 70.689 62.0888 70.5189L62.2969 70.3788C62.7845 70.0748 63.2753 69.9146 63.6092 69.8232C64.0333 69.7071 64.4729 69.6325 64.8847 69.5826C65.7098 69.4825 66.6544 69.4523 67.61 69.4666C69.5283 69.4953 71.7789 69.7087 73.7635 70.0696C75.9754 70.4718 77.9505 71.4476 79.5696 72.4312C80.8478 73.2077 82.0583 74.0906 83.0237 74.7947C83.2665 74.9718 83.4938 75.1376 83.7028 75.2875C86.9796 77.6386 88.6122 80.4043 89.243 81.4728C89.3677 81.6841 89.4535 81.829 89.5048 81.8912C90.5011 83.0967 92.363 84.3739 94.4117 85.5196C95.3904 86.0669 96.334 86.5424 97.1241 86.9304C97.2978 87.0156 97.4777 87.1028 97.6558 87.1893C98.192 87.4499 98.7136 87.7038 99.0139 87.8735C99.2898 88.0293 99.7353 88.1241 100.419 88.0223C100.689 87.982 100.957 87.914 101.207 87.8348C99.8681 87.3128 99.0891 85.9466 99.3375 84.5726C94.9205 78.3063 91.4219 74.0387 89.3306 72.1017C87.5877 70.4874 86.4176 68.5651 85.5907 66.9282C85.1735 66.1024 84.8262 65.3128 84.5392 64.6487C84.4903 64.5356 84.4439 64.4282 84.3998 64.326C84.1695 63.7917 84.0005 63.399 83.8432 63.0804C82.5976 60.5575 81.0266 58.676 79.5427 56.8991C79.0323 56.2879 78.5321 55.6889 78.0591 55.0805C77.0792 53.8201 75.9659 52.3651 74.9355 49.8258C73.896 47.2639 73.2463 45.9745 72.6394 45.092C72.0737 44.2694 71.4768 43.6955 70.2467 42.6444C68.6453 41.2759 65.6868 38.9406 63.5814 37.2785C63.3067 37.0617 63.0464 36.8562 62.8057 36.6659C62.1716 36.1648 61.6346 35.7446 61.1478 35.3643C59.8026 34.3133 58.8427 33.5639 57.2924 32.2316C56.9833 31.966 56.5826 31.6353 56.1244 31.2576C54.567 29.9736 52.3462 28.1431 50.8093 26.4522C48.6468 24.0731 47.104 22.2023 45.9303 20.7792C45.9273 20.7756 45.9243 20.7721 45.9213 20.7685C45.8979 20.7401 45.8748 20.7116 45.8516 20.6835C45.7455 20.5549 45.6421 20.4298 45.542 20.3086C44.2576 18.755 43.6254 18.0507 43.0776 17.6368C42.7398 17.3816 42.3189 17.1173 41.0144 16.2985C39.7654 15.5145 37.8417 14.3034 34.6747 12.2391C34.0024 11.8009 33.4099 11.4125 32.8844 11.068C29.2032 8.65423 28.8038 8.39221 27.2009 8.23866C22.6799 7.80559 20.6436 7.62947 14.9506 7.45403C14.0229 7.4254 13.2023 7.24627 12.4812 6.93706Z" fill="black"/>
</g>
<defs>
<filter id="filter0_d_369_433" x="0" y="0" width="112" height="102" filterUnits="userSpaceOnUse" color-interpolation-filters="sRGB">
<feFlood flood-opacity="0" result="BackgroundImageFix"/>
<feColorMatrix in="SourceAlpha" type="matrix" values="0 0 0 0 0 0 0 0 0 0 0 0 0 0 0 0 0 0 127 0" result="hardAlpha"/>
<feOffset dy="4"/>
<feGaussianBlur stdDeviation="2"/>
<feComposite in2="hardAlpha" operator="out"/>
<feColorMatrix type="matrix" values="0 0 0 0 0 0 0 0 0 0 0 0 0 0 0 0 0 0 0.25 0"/>
<feBlend mode="normal" in2="BackgroundImageFix" result="effect1_dropShadow_369_433"/>
<feBlend mode="normal" in="SourceGraphic" in2="effect1_dropShadow_369_433" result="shape"/>
</filter>
</defs>
</svg>
