<svg width="122" height="117" viewBox="0 0 122 117" fill="none" xmlns="http://www.w3.org/2000/svg">
<g filter="url(#filter0_d_369_314)">
<path fill-rule="evenodd" clip-rule="evenodd" d="M85.5143 0.0321871C89.1486 -0.101429 93.2167 0.186115 96.6354 0.798789L97.0221 0.868125L97.3659 1.05269C98.4839 1.65129 99.7062 2.59721 100.968 3.47359C102.281 4.3849 104.009 5.5026 106.554 6.82613C106.543 6.39545 106.537 5.96172 106.542 5.52633C106.564 3.61428 108.198 2.08197 110.191 2.10348C112.184 2.12511 113.782 3.69238 113.759 5.60445C113.709 9.86405 114.703 14.0563 115.634 16.8837C116.388 19.1717 118.02 24.3004 116.538 30.0781C116.115 31.727 115.354 34.2924 114.232 36.8115C113.167 39.2028 111.536 42.1136 109.11 43.8925C108.005 44.7029 106.798 45.4053 105.975 45.9189C105.073 46.4822 104.403 46.9506 103.834 47.5039C103.855 47.4835 103.731 47.6085 103.629 47.9306C103.533 48.2309 103.484 48.6211 103.548 49.0615C103.773 50.6374 103.813 52.5257 103.9 54.0869C103.994 55.7722 104.15 57.462 104.565 59.207C105.227 61.9867 106.013 62.966 107.817 66.2968C108.16 66.9304 108.5 67.5008 108.845 68.081C109.174 68.6345 109.54 69.2502 109.85 69.8515C110.472 71.0577 111.131 72.6916 110.838 74.6543C110.674 75.7455 110.257 77.6258 108.321 79.1728C107.47 79.853 106.48 80.49 105.607 81.0429C104.677 81.6317 103.839 82.1502 103.041 82.708C101.327 83.905 100.651 84.7285 100.474 85.2783C99.6079 87.9722 99.1716 91.0377 99.3795 93.206C99.4389 93.8252 99.5351 94.4193 99.6452 95.0859C99.7477 95.7074 99.8765 96.4689 99.9362 97.2138C100.062 98.7824 99.932 100.821 98.3844 102.706C97.1903 104.161 95.9667 105.672 94.6813 106.756C93.2363 107.974 91.4586 108.885 89.1471 108.883C84.0929 108.879 81.3331 107.994 78.9196 106.648C77.7022 105.97 76.6686 105.349 75.7282 104.784C74.7782 104.214 73.9333 103.708 73.0084 103.202C72.2769 102.802 71.6131 102.333 71.0514 101.92C70.4268 101.461 69.9691 101.106 69.3561 100.673C68.2407 99.8842 66.9542 99.0947 65.1774 98.4365C64.3113 98.1157 62.8597 98.0434 60.8063 98.2734C59.8409 98.3816 58.8607 98.5406 57.8776 98.7089C56.9417 98.8692 55.914 99.0549 55.0416 99.1728C52.5285 99.5124 50.4227 99.6291 48.6803 99.5088C46.9787 99.3912 45.3048 99.0278 43.9323 98.1377C42.6468 97.3039 40.5143 95.9771 38.7663 93.9599C37.9646 93.0349 37.335 92.2773 36.692 91.6162C36.0239 90.9293 35.6599 90.6912 35.5495 90.6396C35.5766 90.6523 35.1151 90.5043 33.6891 90.3339C32.4205 90.1824 30.9397 90.0648 29.2057 89.9013C27.5362 89.7439 25.7029 89.5501 23.984 89.2529C22.3091 88.9633 20.4953 88.537 18.9684 87.8213C17.2491 87.0153 15.9948 86.1764 15.028 85.4765C13.9128 84.6692 13.6306 84.4175 13.2516 84.2138C11.5256 83.2864 9.08084 81.9329 6.06899 79.4951C4.54562 78.2621 4.35244 76.077 5.63735 74.6152C5.6599 74.5895 5.68353 74.5649 5.70669 74.54C5.42216 74.4572 5.1483 74.3239 4.902 74.1347C3.86487 73.3379 3.69757 71.8848 4.52797 70.8896C9.27936 65.1954 11.4278 61.5939 13.236 58.5722C15.095 55.4656 16.6741 52.8302 20.2331 49.374C20.2387 49.3685 20.2441 49.3628 20.2497 49.3574C20.2168 49.312 20.1829 49.2654 20.151 49.2168C19.6473 48.4481 19.5364 47.6092 19.5387 46.9648C19.5411 46.2959 19.6661 45.614 19.8385 44.9775C20.1841 43.7018 20.8042 42.31 21.527 41.0078C22.7522 38.8003 24.9734 37.5654 26.7077 36.7978C27.6019 36.402 28.4991 36.0769 29.1989 35.8164C29.9704 35.5292 30.4196 35.3486 30.6813 35.2021C32.9226 33.9471 34.4907 33.1907 40.9088 27.6923C43.7928 25.2217 46.4966 23.2799 47.943 22.0986C51.1673 19.4652 56.1646 15.4227 57.7428 14.3281C59.8293 12.881 62.1369 11.5408 66.9284 10.5205C68.9063 10.0992 69.8047 9.487 70.0338 9.27828C71.1096 8.29834 71.8186 7.22781 72.6979 5.94918C73.5293 4.74027 74.5661 3.26126 76.2096 2.14449C77.3661 1.3587 78.8816 0.886876 80.3825 0.584922C81.9317 0.27326 83.6953 0.0990833 85.5143 0.0321871ZM95.3424 5.26754C92.3635 4.76734 88.8357 4.53007 85.6979 4.64547C84.0585 4.70577 82.5779 4.8602 81.3688 5.10348C80.1113 5.35651 79.3523 5.66585 78.9899 5.91207C78.168 6.47051 77.5642 7.25663 76.7145 8.49215C75.9127 9.65806 74.8992 11.2124 73.3463 12.6269C72.3077 13.573 70.5269 14.4838 67.9704 15.0283C63.9098 15.893 62.1974 16.9362 60.5622 18.0703C59.1823 19.0273 54.3791 22.9051 51.0622 25.6142C49.1236 27.1975 47.0985 28.5789 44.1129 31.1367C37.4659 36.8312 35.6379 37.7717 33.1061 39.1894C32.4519 39.5557 31.6221 39.8668 30.9391 40.1211C30.1843 40.402 29.4495 40.6684 28.7223 40.9902C27.2134 41.6581 26.2284 42.3601 25.7741 43.1787C25.1617 44.282 24.7152 45.3259 24.4948 46.1396C24.4153 46.433 24.3762 46.6586 24.36 46.8203C24.4055 46.8562 24.4553 46.8931 24.4997 46.9306C24.6536 47.0609 24.8812 47.2704 25.0895 47.5644C25.3014 47.8637 25.538 48.3108 25.5993 48.8984C25.6587 49.4692 25.5325 49.9835 25.3522 50.4052C25.0265 51.1666 24.4049 51.8908 23.6549 52.6191C20.5499 55.6345 19.2209 57.8413 17.4079 60.8711C15.5843 63.9184 13.3527 67.6497 8.60122 73.3896C9.35454 73.4301 10.1011 73.6975 10.7223 74.2002C13.2284 76.2286 15.2226 77.3352 16.778 78.1709C17.7283 78.6815 18.7742 79.5135 19.3747 79.9482C20.1237 80.4905 20.9742 81.0524 22.1374 81.5976C22.7651 81.8919 23.8018 82.1836 25.2643 82.4365C26.6826 82.6817 28.2748 82.8555 29.9108 83.0097C31.4825 83.1579 33.1888 83.2958 34.5797 83.4619C35.8129 83.6091 37.4846 83.841 38.7106 84.414C40.0597 85.0448 41.1647 86.0651 41.9684 86.8916C42.7975 87.7441 43.6434 88.7559 44.3161 89.5322C45.2932 90.6598 46.5284 91.4624 47.9518 92.3857C47.9622 92.3882 48.2773 92.5379 49.1979 92.6015C50.243 92.6737 51.7963 92.6169 54.0348 92.3144C54.7345 92.2199 55.5531 92.0724 56.609 91.8916C57.6178 91.7188 58.7763 91.5282 59.9694 91.3945C62.233 91.1409 65.1792 91.0128 67.776 91.9746C70.3312 92.921 72.1859 94.0704 73.6374 95.0966C74.3078 95.5707 74.9915 96.0921 75.4401 96.4218C75.9512 96.7975 76.2943 97.0285 76.5797 97.1845C77.6512 97.7702 78.6155 98.3491 79.5553 98.913C80.5049 99.4829 81.4438 100.047 82.5456 100.661C83.7065 101.308 85.1811 101.954 89.153 101.957C89.2518 101.957 89.4019 101.989 89.9176 101.554C90.5932 100.984 91.3647 100.065 92.7155 98.4199C92.7291 98.4033 92.7258 98.4116 92.7321 98.3838C92.747 98.3167 92.7713 98.1383 92.7399 97.7451C92.7069 97.3324 92.6316 96.8627 92.5172 96.1699C92.4103 95.5218 92.277 94.7162 92.193 93.8408C91.8743 90.5174 92.5235 86.5143 93.5778 83.2363C94.5056 80.3514 96.9674 78.3846 98.7926 77.1093C99.7635 76.431 100.795 75.7924 101.631 75.2627C102.496 74.7152 103.154 74.281 103.653 73.8886C103.663 73.845 103.676 73.7829 103.69 73.6894C103.687 73.7614 103.747 73.63 103.381 72.9199C103.184 72.5372 102.93 72.1089 102.576 71.5136C102.238 70.9452 101.831 70.2613 101.414 69.4902C99.8905 66.678 98.4561 64.6389 97.5299 60.75C96.9787 58.4352 96.7955 56.2884 96.693 54.4589C96.5836 52.5055 96.5675 51.2008 96.3961 50.0039C95.9898 47.1654 96.9164 44.3706 98.6959 42.6396C99.8225 41.5439 101.018 40.7505 102.039 40.1132C103.139 39.4262 103.912 38.9875 104.729 38.3886C105.596 37.7531 106.627 36.2663 107.596 34.0898C108.509 32.0412 109.158 29.868 109.529 28.4218C110.498 24.6445 109.462 21.1241 108.753 18.9707C108.233 17.394 107.684 15.414 107.262 13.1953C106.879 13.0301 106.534 12.7687 106.276 12.414C105.893 11.8886 105.717 11.7158 105.593 11.6162C105.459 11.5081 105.267 11.3888 104.673 11.1005L104.651 11.0888L104.628 11.0781C101.667 9.56129 99.6597 8.26406 98.1471 7.21383C96.7476 6.24208 96.0226 5.67627 95.3424 5.26754Z" fill="black"/>
</g>
<defs>
<filter id="filter0_d_369_314" x="0" y="0" width="121.139" height="116.883" filterUnits="userSpaceOnUse" color-interpolation-filters="sRGB">
<feFlood flood-opacity="0" result="BackgroundImageFix"/>
<feColorMatrix in="SourceAlpha" type="matrix" values="0 0 0 0 0 0 0 0 0 0 0 0 0 0 0 0 0 0 127 0" result="hardAlpha"/>
<feOffset dy="4"/>
<feGaussianBlur stdDeviation="2"/>
<feComposite in2="hardAlpha" operator="out"/>
<feColorMatrix type="matrix" values="0 0 0 0 0 0 0 0 0 0 0 0 0 0 0 0 0 0 0.25 0"/>
<feBlend mode="normal" in2="BackgroundImageFix" result="effect1_dropShadow_369_314"/>
<feBlend mode="normal" in="SourceGraphic" in2="effect1_dropShadow_369_314" result="shape"/>
</filter>
</defs>
</svg>
