<svg width="179" height="192" viewBox="0 0 179 192" fill="none" xmlns="http://www.w3.org/2000/svg">
<g filter="url(#filter0_d_369_251)">
<path fill-rule="evenodd" clip-rule="evenodd" d="M121.051 0.00235082C123.314 -0.0653645 124.789 1.34739 125.371 1.9711C125.945 2.5868 126.721 3.69913 126.74 3.72403C127.524 4.7376 127.687 5.8049 127.719 6.45841C127.747 7.01733 127.677 7.69548 127.674 7.73575C127.553 9.54382 126.713 11.0275 126.052 12.0063C125.706 12.5194 125.345 12.9836 125.052 13.3529C124.727 13.7635 124.532 14.0017 124.366 14.2289C123.472 15.4539 120.804 19.0678 118.839 21.5531C118.196 22.366 117.823 23.2704 117.145 24.5951C116.775 25.3196 116.589 26.0207 115.971 27.5375C115.592 28.4696 115.204 29.236 114.787 29.935C114.814 29.9442 114.843 29.9535 114.871 29.9633C115.64 30.2326 117.138 30.3503 118.917 30.2328C119.738 30.1785 120.502 30.0823 121.105 29.977C121.793 29.8568 122.035 29.7658 121.957 29.7983C122.552 29.5521 123.155 29.3331 123.657 29.1469C124.106 28.9805 124.506 28.8287 124.894 28.6664C124.91 28.6402 124.927 28.6082 124.945 28.5707C124.979 28.4992 125.007 28.4231 125.029 28.3529C125.349 27.3106 125.956 26.4759 126.465 25.89C126.996 25.2778 127.599 24.7382 128.143 24.2934C129.166 23.4576 130.437 22.6123 130.852 22.3129C131.938 21.5303 133.512 20.7099 134.632 20.102C135.696 19.5239 138.047 18.3692 140.754 17.475L141.05 17.3871C142.43 17.0152 143.717 17.2391 144.615 17.5727L144.801 17.6449L145.198 17.8178C147.138 18.705 148.408 19.9411 149.161 20.727C149.779 21.3724 150.059 22.0831 150.195 22.518C150.344 22.9926 150.418 23.4605 150.46 23.8549C150.543 24.643 150.533 25.5122 150.492 26.3197C150.404 28.0383 149.67 29.2913 149.003 30.1889C148.699 30.5979 148.351 31.0057 148.106 31.2992C147.835 31.6246 147.605 31.907 147.387 32.2104C145.896 34.2851 144.057 35.7076 141.518 37.7309C141.682 37.9652 141.929 38.3129 142.147 38.6518C142.844 39.7352 143.564 40.7807 144.254 41.6117C145.024 42.5408 145.438 42.8038 145.443 42.807C146.466 43.281 148.042 43.8695 149.89 44.6215C151.499 45.2759 153.103 45.4456 154.457 45.5678C154.645 45.5846 155.106 45.5441 155.849 45.2963C156.544 45.0645 157.242 44.735 157.804 44.433C158.946 43.8197 159.708 43.1891 160.037 42.6986C160.725 41.671 161.004 40.5257 161.333 38.9008C161.481 38.1681 161.668 37.1978 161.966 36.2943C162.275 35.3575 162.776 34.247 163.71 33.2611L163.821 33.144L163.943 33.0365C164.481 32.5642 164.955 32.19 165.557 31.8715L165.746 31.7748C166.18 31.5631 166.569 31.4312 166.748 31.3686C167.756 31.0146 168.823 31.1203 169.7 31.5736C169.773 31.5157 169.849 31.4598 169.928 31.4066C171.561 30.3104 173.812 30.6914 174.955 32.2582C175.269 32.6895 175.863 33.4982 176.411 34.4545C176.942 35.3826 177.561 36.6721 177.787 38.1156C178.022 39.6208 177.951 41.0723 177.819 42.4438C177.753 43.1302 177.666 43.8544 177.581 44.5717C177.494 45.3028 177.405 46.0575 177.328 46.8734C177.023 50.0976 176.97 52.9027 176.974 55.1342C176.979 57.1595 177.049 59.2025 176.948 60.2738C176.87 61.0991 176.9 62.5244 177.051 64.0697C177.215 65.7392 177.549 67.4146 177.663 76.2826C177.775 85.0371 177.668 100.942 177.667 109.3C177.665 116.934 177.903 118.468 178.072 119.916L178.138 120.55L178.15 120.677L178.152 120.805C178.179 122.624 178.245 124.153 178.338 125.288C178.384 125.859 178.435 126.291 178.483 126.591C178.502 126.707 178.518 126.782 178.527 126.825L178.579 126.942L178.649 127.221C178.925 128.329 178.917 129.788 178.131 131.25C177.38 132.645 175.78 133.342 174.252 133.063C174.214 133.128 174.177 133.197 174.136 133.266L174.098 133.33L174.057 133.393C170.028 139.624 169.754 141.135 167.916 144.496L167.74 144.817L167.499 145.097C166.115 146.698 164.925 147.804 163.795 148.93C162.657 150.063 161.354 151.427 159.467 153.785C159.154 154.176 158.875 154.564 158.543 155.022C158.237 155.443 157.854 155.968 157.433 156.452C156.585 157.425 155.134 158.754 152.835 158.929C152.165 158.98 151.062 159.056 149.917 158.911C148.764 158.764 147.186 158.347 145.894 157.106C145.194 156.434 144.702 155.617 144.349 154.871C143.835 155.283 143.208 155.657 142.437 155.931C141.242 156.356 140.129 156.228 139.534 156.127C139.263 156.559 138.855 157.044 138.24 157.44C137.598 157.853 136.378 158.496 135.174 159.128C134.598 159.431 133.908 159.762 133.407 160.012C132.848 160.291 132.386 160.534 131.998 160.774C131.622 161.006 131.424 161.169 131.328 161.259C131.327 161.307 131.323 161.366 131.323 161.438C131.325 161.964 131.347 162.083 131.36 162.887C131.378 164.051 131.34 165.838 130.533 167.632C130.276 168.202 130.015 168.825 129.723 169.511C129.44 170.178 129.132 170.898 128.813 171.583C128.498 172.262 128.141 172.977 127.745 173.625C127.377 174.228 126.835 175.009 126.083 175.633C125.017 176.517 123.989 177.136 123.152 177.604C122.192 178.141 121.81 178.319 121.411 178.588C120.967 178.887 119.367 180.058 117.34 181.141C115.327 182.217 112.569 183.393 109.533 183.671C107.449 183.862 104.719 183.958 102.274 183.891C101.053 183.858 99.8347 183.781 98.7692 183.642C97.8606 183.523 96.5383 183.301 95.4792 182.727C94.5442 182.22 93.8431 181.52 93.3874 181.022C92.9338 180.526 92.4552 179.919 92.1647 179.567C91.9211 179.271 91.7443 179.072 91.611 178.935C91.4003 178.943 91.1184 178.977 90.7673 179.061C90.5255 179.119 90.253 179.206 89.8542 179.341C89.5154 179.456 88.9795 179.644 88.4606 179.781C87.5518 180.02 85.2478 180.516 83.277 178.867C82.8548 178.513 82.3522 178.127 81.696 177.61C81.0784 177.123 80.3694 176.555 79.6969 175.951C79.0341 175.355 78.3177 174.647 77.7233 173.861C77.1544 173.108 76.4976 172.027 76.3171 170.703C76.2091 169.911 76.1361 169.041 76.1842 168.197C76.2289 167.414 76.3945 166.281 77.068 165.235L77.8581 163.993C78.7117 162.674 79.7776 161.191 81.2604 160.149C81.9496 159.665 82.6624 159.448 83.1305 159.338C83.6216 159.223 84.0976 159.17 84.4616 159.139C84.783 159.111 85.1196 159.093 85.3903 159.079C85.284 158.299 85.0527 157.783 84.7331 157.166C84.4931 156.704 83.9509 156.16 82.0671 154.936C81.2494 154.405 80.533 153.802 79.9674 153.245C79.4539 152.738 78.8777 152.085 78.5036 151.41C77.9612 150.43 77.9584 149.314 78.3952 148.373C77.697 147.515 76.8031 146.524 75.9743 145.181C75.5736 144.532 75.1951 144.034 74.7604 143.455C74.3558 142.917 73.8063 142.189 73.3698 141.32C73.1949 140.971 73.0646 140.63 72.9674 140.334C72.8811 140.29 72.7899 140.242 72.6969 140.187C71.3911 139.411 70.851 138.225 70.6256 137.445C70.3961 136.65 70.3652 135.862 70.3844 135.246C70.4235 134 70.7016 132.685 70.9616 131.69C71.113 131.11 71.4683 130.14 71.8239 129.167C71.4731 129.187 71.1146 129.198 70.7653 129.201C69.5287 129.211 67.9513 129.15 66.3278 129.087C64.7793 129.028 63.5999 128.495 62.7282 127.835C62.6854 127.865 62.6421 127.895 62.5973 127.926C61.6061 128.606 60.3077 129.471 58.8571 130.195C56.2093 131.516 53.0154 132.631 52.278 132.946C49.6521 134.065 47.205 133.123 45.9538 132.526C45.2713 132.2 44.6402 131.823 44.236 131.587C43.7697 131.315 43.6455 131.258 43.6569 131.26L43.6686 131.264C42.0226 130.663 40.661 129.573 39.6764 128.59C38.661 127.576 37.806 126.434 37.2214 125.417C37.058 125.134 36.5102 124.413 35.612 123.52C35.4569 123.366 35.297 123.214 35.1354 123.064C34.9876 123.686 34.8674 124.275 34.6794 125.074C34.4806 125.917 34.2043 126.99 33.7624 127.935C33.0912 129.369 31.8446 131.698 29.2799 133.092C25.4384 135.18 22.1799 135.898 21.5016 136.146C20.7215 136.432 20.0032 136.441 19.5631 136.417C19.0945 136.392 18.6646 136.313 18.3288 136.237C17.6733 136.088 16.9684 135.857 16.4147 135.674C14.0945 134.907 13.1837 133.038 12.8063 131.905C12.6133 131.325 12.495 130.752 12.4128 130.323C12.3153 129.814 12.2742 129.551 12.2018 129.224C12.1547 129.012 12.066 128.773 11.8532 128.214C11.6876 127.779 11.376 126.976 11.2506 126.105C11.1325 125.283 11.2373 124.551 11.3249 124.077C11.4011 123.663 11.5482 123.06 11.6081 122.788C11.6836 122.444 11.7471 122.099 11.7848 121.731C11.7631 121.728 11.7403 121.725 11.7184 121.722C11.5122 121.693 11.243 121.653 10.9635 121.595C9.31851 121.253 8.12181 120.298 7.36002 119.553C6.57195 118.782 5.90396 117.887 5.39908 117.189C4.63115 116.127 4.35528 114.838 4.22037 113.971C4.06538 112.975 4.00731 111.864 4.00065 110.769C3.98728 108.568 4.18278 106.094 4.42838 104.027C4.6444 102.208 5.40826 100.471 6.23502 99.019C7.08176 97.5317 8.1193 96.1268 9.10123 94.9379C10.0242 93.8203 10.6753 92.5142 11.2077 91.0805C12.1908 88.433 14.6782 86.3614 16.3903 85.0141C17.1575 84.4103 18.4768 83.4239 19.0583 82.9711C19.8748 82.3352 20.3988 81.8799 20.7028 81.5414C20.8423 81.386 21.1518 81.0322 21.4508 80.7582C21.6162 80.6068 21.9071 80.3556 22.3053 80.1313C22.7205 79.8975 23.3832 79.619 24.235 79.6039L24.527 79.6078C25.9577 79.6729 26.9588 80.3904 27.4245 80.7719C27.9381 81.1928 28.3931 81.7111 28.6305 81.976C29.2957 82.7184 29.5111 82.8956 29.653 82.9633C29.5386 82.9087 30.0976 83.1266 31.8034 82.9106C33.3205 82.7184 35.271 82.2432 37.4616 81.4584C37.4656 81.4494 37.4717 81.44 37.4762 81.4291C37.542 81.271 37.6152 81.0256 37.7155 80.5805C37.7885 80.2564 37.938 79.5157 38.071 78.976C38.8042 76.0004 40.139 72.819 40.8337 71.5316C41.4103 70.4631 42.3712 69.0979 43.571 67.1859C44.5877 65.5657 45.8113 64.4916 47.1462 63.8158C48.3849 63.1888 49.6053 62.9947 49.946 62.9232C50.0455 62.9023 50.1191 62.8759 50.1735 62.851C50.2195 62.7878 50.3494 62.6022 50.5475 62.1898C50.7108 61.85 50.852 61.5099 51.0544 61.0414C51.2336 60.6264 51.4734 60.0801 51.7653 59.5629C53.1567 57.0978 55.4162 55.9567 55.8288 55.7172L56.0104 55.6166C56.9199 55.1402 57.8526 55.0223 58.4255 54.9809C59.1123 54.9312 59.8093 54.9614 60.4147 55.0111C62.7031 55.1992 64.1073 56.7833 64.6462 57.4096C64.9785 57.7959 65.311 58.234 65.5143 58.4945C65.5776 58.5756 65.6354 58.6454 65.6852 58.7074C65.8495 58.7334 66.0695 58.7581 66.3405 58.768C66.7219 58.7818 67.1138 58.7645 67.486 58.726C67.5035 58.5429 67.5273 58.3261 67.5622 58.101C67.6024 57.8417 67.6666 57.5093 67.7799 57.1537L67.8776 56.8725C68.3984 55.4905 69.3751 54.509 70.2311 53.849C71.154 53.1376 72.1918 52.6037 73.0739 52.2035C73.9594 51.8018 74.8776 51.4526 75.5358 51.1947C75.8663 51.0653 76.1303 50.9586 76.3483 50.8647C76.8204 49.4798 78.1771 48.4789 79.778 48.4789C79.818 48.4789 79.8603 48.475 79.9049 48.474C80.0194 48.4031 80.1231 48.3372 80.2184 48.2797C80.4323 48.1508 80.5239 48.098 80.6393 48.0268C80.6988 47.99 80.7318 47.9673 80.7477 47.9565C81.4388 47.2932 82.3426 46.9545 83.2506 46.9428C83.2243 46.4949 83.1666 46.0771 83.1169 45.8031C82.9652 44.9671 83.0314 44.1164 83.1286 43.4389C83.2335 42.7076 83.4163 41.9118 83.6501 41.0883C84.1185 39.4379 84.8473 37.4867 85.7868 35.39C86.6564 33.4496 88.2416 31.3445 88.7292 30.5775C90.0053 28.5694 91.8296 26.5545 93.3649 25.2738L93.5817 25.101C94.0869 24.717 94.5751 24.4684 94.9157 24.3051C95.448 24.0498 95.4509 24.0663 95.7663 23.9037C96.0485 23.7582 96.4225 23.5393 96.9577 22.8803C97.5654 22.1319 97.8546 21.5401 98.0983 20.9584C98.2747 20.5374 98.7129 19.262 99.4626 18.2563C100.267 17.1768 101.378 16.3042 102.348 15.5707C103.44 14.7459 104.567 13.9485 106.069 12.7572C108.293 10.9929 108.926 9.9727 109.866 8.80899C111.423 6.88004 112.063 6.03499 113.929 3.61954C116.43 0.38297 120.004 0.0723291 120.83 0.013093L121.051 0.00235082ZM120.438 7.16153C120.193 7.28291 119.942 7.46584 119.727 7.74356C117.878 10.1367 117.186 11.0509 115.571 13.0512C114.762 14.0525 113.629 15.7447 110.668 18.0941C109.091 19.3444 107.703 20.34 106.814 21.0121C105.804 21.7754 105.468 22.1047 105.333 22.2856C105.327 22.293 105.289 22.3519 105.208 22.5356C105.065 22.8587 105.036 22.9641 104.794 23.5414C104.389 24.5071 103.799 25.7231 102.651 27.1371C101.437 28.6317 100.256 29.4518 99.1803 30.0063C98.8181 30.1929 98.1948 30.4744 98.1423 30.4994C98.0947 30.5222 98.0613 30.5393 98.0407 30.5502C97.0615 31.3806 95.7583 32.8202 94.8923 34.183C93.846 35.8293 93.0268 36.7647 92.4167 38.1264C91.5739 40.0071 90.9723 41.6452 90.6139 42.9076C90.4344 43.5401 90.3294 44.0322 90.279 44.3832C90.2508 44.5793 90.246 44.6872 90.2448 44.7231C90.3604 45.3886 90.518 46.5531 90.4772 47.8002C90.4409 48.9084 90.2383 51.0464 88.7233 52.6381C87.9428 53.4579 86.973 53.9439 86.2546 54.2367C85.4825 54.5513 84.6646 54.7757 83.9186 54.9369C83.4438 55.0395 82.9601 55.1217 82.486 55.1898C81.9044 55.5997 81.2893 56.0457 80.7975 56.3988L80.6764 56.4848L80.5485 56.5629C79.8258 56.9964 78.8965 57.3578 78.2633 57.6059C77.5036 57.9036 76.821 58.1638 76.1589 58.4643C75.4933 58.7662 75.0356 59.0286 74.7516 59.2475C74.723 59.2695 74.6994 59.2914 74.6784 59.309C74.6751 59.3407 74.6704 59.3768 74.6667 59.4174C74.6464 59.64 74.6084 60.2014 74.5387 60.6742C74.4385 61.3542 74.026 64.038 71.2243 64.9887C69.5821 65.5458 67.6871 65.7477 66.0671 65.6889C65.2426 65.6589 64.3676 65.558 63.5446 65.3422C62.8164 65.1512 61.6806 64.7572 60.7809 63.8568C60.3557 63.4312 59.9912 62.9704 59.738 62.6459C59.4727 62.306 59.3076 62.0906 59.1413 61.892C58.7135 62.1538 58.3598 62.4219 58.112 62.8607C58.0168 63.0294 57.9022 63.2773 57.7223 63.6938C57.5655 64.0568 57.3426 64.5878 57.1022 65.0883C56.6587 66.0114 55.8235 67.5836 54.2067 68.6029C53.3145 69.1654 52.3761 69.5034 51.488 69.6898C50.7931 69.8357 50.6902 69.8513 50.5133 69.9408C50.4323 69.9818 50.1465 70.132 49.7536 70.7582C48.2103 73.2177 47.6961 73.8763 47.2428 74.7162C46.8232 75.4939 45.694 78.1406 45.0954 80.5697C44.9699 81.0789 44.9204 81.3762 44.7702 82.0434C44.6472 82.5896 44.4733 83.2912 44.1784 83.9994C43.5091 85.6064 42.2577 87.133 39.9899 87.9457C37.4207 88.8664 34.9303 89.5003 32.7477 89.7768C30.7533 90.0294 28.3527 90.0759 26.4401 89.1635C25.6106 88.7677 24.9151 88.2404 24.3659 87.7426C24.1083 87.9538 23.8528 88.1569 23.6061 88.349C22.5215 89.1937 21.9914 89.563 20.9665 90.3695C19.095 91.8423 18.2261 92.8112 18.0055 93.4047C17.3253 95.2367 16.3499 97.3125 14.7575 99.2406C13.9374 100.234 13.1578 101.302 12.568 102.338C11.9583 103.409 11.6663 104.247 11.5993 104.811C11.3731 106.715 11.2063 108.896 11.2174 110.729C11.2231 111.65 11.274 112.402 11.359 112.949C11.3967 113.19 11.4331 113.338 11.4538 113.413C11.8813 113.997 12.2165 114.414 12.5124 114.704C12.5839 114.773 12.6408 114.823 12.6823 114.857C12.8046 114.874 12.9837 114.899 13.3171 114.945C13.7372 115.003 14.3938 115.1 15.069 115.308C15.7438 115.516 16.6764 115.904 17.487 116.69C18.3121 117.49 18.8079 118.506 18.9567 119.624L18.9831 119.85L19.0094 120.195C19.12 121.896 18.8852 123.235 18.6696 124.216C18.5375 124.817 18.4849 124.993 18.4323 125.277C18.4356 125.288 18.4391 125.299 18.443 125.312C18.4847 125.444 18.5418 125.601 18.6325 125.839C18.7847 126.239 19.0854 126.989 19.2614 127.783C19.3164 128.031 19.3626 128.273 19.402 128.484C19.4459 128.719 19.4732 128.877 19.5104 129.071C19.5335 129.191 19.5573 129.295 19.5768 129.385C19.617 129.397 19.6547 129.408 19.6901 129.418C21.3133 128.907 22.9056 128.598 25.7243 127.066C26.1689 126.824 26.6258 126.279 27.1784 125.098C27.2974 124.844 27.4456 124.371 27.6393 123.548C27.7954 122.886 28.0285 121.771 28.2506 120.91C28.4849 120.001 28.8207 118.878 29.3737 117.87C29.9165 116.88 30.9345 115.518 32.7712 114.927L33.0631 114.843C34.5141 114.477 35.8241 114.884 36.777 115.472C38.2688 116.392 39.6803 117.592 40.8063 118.711C41.8977 119.797 42.9359 121.021 43.5397 122.071C43.8212 122.56 44.303 123.214 44.8815 123.791C45.4145 124.324 45.8567 124.619 46.1276 124.746L46.234 124.79L46.4958 124.893C47.1023 125.147 47.6765 125.49 47.987 125.671C48.4673 125.952 48.8167 126.158 49.1686 126.326C49.3755 126.424 49.5199 126.479 49.612 126.508C51.2316 125.841 53.1433 125.24 55.528 124.05C56.4999 123.565 57.4518 122.942 58.401 122.291C59.1794 121.758 60.3306 120.926 61.236 120.483L61.3923 120.41C62.2173 120.046 63.9892 119.559 65.694 120.714L65.8698 120.839L66.0231 120.959C66.364 121.24 66.5972 121.52 66.7233 121.68C66.8755 121.874 67.0043 122.067 67.07 122.164C67.0742 122.171 67.0787 122.177 67.0827 122.183C68.5633 122.239 69.7786 122.283 70.7038 122.276C70.9737 122.274 71.188 122.266 71.3542 122.257C72.4972 121.489 74.053 120.666 76.0309 120.397L76.277 120.37C76.9096 120.318 77.9361 120.364 78.9381 120.979C79.5982 121.384 80.216 122.031 80.5407 122.922C80.8519 123.777 80.7902 124.573 80.6442 125.157C80.1465 127.146 79.5109 129.026 78.9811 130.508C78.3887 132.166 78.0635 132.991 77.9635 133.373C77.8327 133.874 77.7292 134.354 77.6667 134.769C78.1516 135.068 78.6934 135.521 79.1012 136.2C79.3627 136.635 79.5077 137.047 79.5876 137.299C79.6665 137.549 79.7311 137.812 79.7633 137.937C79.8489 138.27 79.874 138.317 79.8727 138.314C79.9959 138.559 80.1794 138.826 80.6149 139.406C81.0206 139.946 81.5911 140.692 82.1842 141.654C82.718 142.519 83.128 142.93 84.1266 144.163C84.6303 144.785 85.1798 145.426 85.6794 145.95C85.929 146.211 86.1426 146.42 86.3141 146.573C86.4539 146.697 86.5217 146.743 86.5221 146.745L86.4958 146.729C87.8782 147.553 88.4773 149.128 88.0778 150.563C89.2764 151.483 90.4282 152.604 91.194 154.08C92.1661 155.954 92.7704 157.803 92.6598 160.871C92.5939 162.699 91.6239 164.147 90.1745 164.991C89.0156 165.665 87.7467 165.834 87.028 165.907C86.6193 165.948 86.2194 165.971 85.904 165.988C85.597 166.004 85.3766 166.015 85.1803 166.031C84.7868 166.433 84.3413 167.113 83.3903 168.589C83.3789 168.813 83.3934 169.155 83.4518 169.631C83.4753 169.669 83.5109 169.723 83.5641 169.793C83.7772 170.075 84.1249 170.442 84.6276 170.894C85.1207 171.337 85.6799 171.788 86.276 172.257C86.5434 172.468 86.8336 172.695 87.1217 172.922C87.2172 172.89 87.3261 172.853 87.4508 172.811C87.8522 172.675 88.4116 172.488 89.0182 172.342C90.27 172.042 91.7722 171.872 93.2887 172.142C94.6548 172.385 95.6549 173.094 96.279 173.633C96.9133 174.182 97.4473 174.813 97.8249 175.271C98.2708 175.812 98.5201 176.134 98.8112 176.453C98.8946 176.544 98.9593 176.609 99.0055 176.654C99.1244 176.681 99.3583 176.73 99.7438 176.781C100.463 176.875 101.403 176.939 102.48 176.968C104.633 177.027 107.064 176.941 108.847 176.778C110.467 176.63 112.216 175.952 113.829 175.09C115.428 174.235 116.574 173.384 117.264 172.919C117.994 172.428 118.98 171.921 119.517 171.621C120.154 171.264 120.735 170.904 121.302 170.442C121.33 170.406 121.405 170.31 121.519 170.122C121.721 169.792 121.954 169.34 122.222 168.763C122.487 168.193 122.755 167.568 123.04 166.898C123.316 166.247 123.613 165.54 123.907 164.886C124.079 164.503 124.159 163.952 124.144 162.992C124.14 162.734 124.107 161.843 124.106 161.461C124.104 160.954 124.121 160.155 124.351 159.347L124.417 159.136C125.119 156.982 126.909 155.681 128.093 154.95C129.277 154.219 130.997 153.426 131.711 153.052C132.38 152.701 132.926 152.411 133.343 152.185C133.364 152.123 133.385 152.057 133.411 151.991C133.491 151.779 133.607 151.515 133.78 151.234C134.537 149.999 135.723 149.217 137.088 148.962C138.209 148.753 139.216 148.951 139.699 149.055C139.783 149.073 139.869 149.096 139.952 149.116C140.01 149.002 140.081 148.861 140.18 148.667C140.36 148.317 140.643 147.781 141.044 147.25L141.174 147.085C141.84 146.289 142.662 145.901 143.282 145.712C143.584 145.621 143.847 145.573 144.002 145.547C144.081 145.534 144.154 145.523 144.197 145.517C144.249 145.509 144.266 145.507 144.282 145.504L144.579 145.465C144.924 145.428 145.407 145.407 145.946 145.492C146.668 145.605 147.707 145.951 148.511 146.878L148.669 147.073L148.858 147.33C149.775 148.64 150.251 150.168 150.525 150.959C150.702 151.47 150.824 151.798 150.942 152.051C151.07 152.063 151.233 152.072 151.439 152.069C151.572 152.067 151.71 152.061 151.856 152.052C151.868 152.039 151.883 152.025 151.896 152.009C152.084 151.793 152.297 151.51 152.621 151.064C152.919 150.653 153.306 150.113 153.744 149.566C155.819 146.973 157.303 145.414 158.597 144.125C159.806 142.922 160.656 142.133 161.699 140.953C162.989 138.518 163.933 135.923 167.879 129.813C168.218 129.231 168.392 128.884 168.483 128.694C168.559 128.535 168.539 128.57 168.622 128.392C168.645 128.341 168.7 128.227 168.77 128.099C168.835 127.982 168.986 127.718 169.236 127.433L169.36 127.299C169.866 126.778 170.506 126.439 171.186 126.289C171.172 126.139 171.155 125.986 171.142 125.83C171.036 124.533 170.97 122.902 170.94 121.065C170.774 119.355 170.448 118.199 170.45 109.298C170.451 100.845 170.558 85.0667 170.446 76.3676C170.336 67.7826 170.025 66.328 169.867 64.7201C169.697 62.9886 169.624 61.0833 169.759 59.6479C169.821 58.999 169.763 57.7091 169.757 55.1488C169.752 52.7947 169.808 49.7594 170.14 46.2475C170.226 45.3457 170.322 44.5223 170.41 43.7856C170.499 43.0352 170.576 42.4006 170.633 41.807C170.748 40.6178 170.756 39.8208 170.65 39.143C170.606 38.862 170.436 38.4006 170.086 37.7885C170.036 37.7026 169.983 37.6197 169.932 37.5365C169.715 37.6699 169.48 37.7848 169.227 37.8734C169.166 37.8949 169.125 37.9087 169.088 37.9223C169.082 37.9244 169.076 37.9273 169.071 37.9291C169.057 37.9407 169.039 37.9545 169.019 37.9711C168.983 38.0347 168.921 38.1599 168.847 38.3842C168.701 38.828 168.592 39.3633 168.418 40.2221C168.102 41.7801 167.635 44.1642 166.107 46.4447C164.832 48.3479 162.855 49.6561 161.329 50.476C160.55 50.8945 159.45 51.4278 158.219 51.8383C157.038 52.2325 155.446 52.6124 153.781 52.4623C152.388 52.3367 149.798 52.1075 147.072 50.9984C145.556 50.3818 143.531 49.6127 142.303 49.0434C140.741 48.3193 139.478 46.9751 138.607 45.9252C137.65 44.7715 136.753 43.451 136.006 42.2885C135.87 42.0782 135.728 41.8803 135.501 41.5541C135.3 41.2656 135.036 40.8809 134.793 40.4594C134.322 39.643 133.69 38.2863 133.898 36.6117L133.923 36.432C133.994 35.9904 134.147 35.4053 134.527 34.768C134.923 34.1026 135.453 33.5679 136.01 33.1195C139.476 30.3306 140.498 29.5959 141.446 28.2777C141.818 27.7603 142.182 27.3185 142.472 26.9711C142.789 26.592 142.971 26.3774 143.127 26.1674C143.218 26.0443 143.263 25.9678 143.285 25.9281C143.299 25.6259 143.308 25.3569 143.306 25.1225C143.306 25.0342 143.302 24.9536 143.299 24.8813C143.032 24.6424 142.753 24.4299 142.443 24.2514C140.533 24.9357 138.894 25.7451 138.186 26.1293C136.786 26.8899 135.792 27.414 135.188 27.849C134.377 28.4339 133.633 28.9034 132.823 29.5658C132.451 29.8701 132.181 30.1249 132.008 30.3236C131.959 30.3801 131.927 30.4223 131.907 30.4496C131.491 31.7203 130.435 33.8673 128.068 34.893C127.417 35.1751 126.794 35.4079 126.257 35.6068C125.696 35.8151 125.25 35.9774 124.811 36.1586C124.101 36.4523 123.183 36.6531 122.397 36.7904C121.524 36.9428 120.494 37.0715 119.412 37.143C117.383 37.277 114.636 37.2519 112.397 36.4682C112.481 36.4976 112.476 36.4866 112.046 36.4106C111.75 36.3583 111.163 36.2601 110.588 36.0912C110.021 35.925 109.119 35.597 108.315 34.8842C107.399 34.0724 106.831 32.9567 106.757 31.6781C106.737 31.3175 106.711 30.7143 106.797 30.0619C106.882 29.4124 107.109 28.4633 107.792 27.5649L108.009 27.2719C108.498 26.6002 108.856 25.9844 109.251 25.016C109.549 24.2834 110.142 22.5674 110.666 21.5434C111.057 20.7778 111.891 18.8821 113.09 17.3666C114.967 14.9927 117.57 11.4689 118.454 10.2572C118.727 9.88309 119.069 9.46056 119.305 9.16153C119.575 8.82125 119.802 8.52564 119.996 8.23868C120.415 7.61718 120.469 7.3364 120.472 7.28848C120.474 7.26425 120.475 7.2399 120.477 7.21622C120.464 7.19785 120.451 7.17957 120.438 7.16153Z" fill="black"/>
</g>
<defs>
<filter id="filter0_d_369_251" x="0" y="0" width="182.813" height="191.912" filterUnits="userSpaceOnUse" color-interpolation-filters="sRGB">
<feFlood flood-opacity="0" result="BackgroundImageFix"/>
<feColorMatrix in="SourceAlpha" type="matrix" values="0 0 0 0 0 0 0 0 0 0 0 0 0 0 0 0 0 0 127 0" result="hardAlpha"/>
<feOffset dy="4"/>
<feGaussianBlur stdDeviation="2"/>
<feComposite in2="hardAlpha" operator="out"/>
<feColorMatrix type="matrix" values="0 0 0 0 0 0 0 0 0 0 0 0 0 0 0 0 0 0 0.25 0"/>
<feBlend mode="normal" in2="BackgroundImageFix" result="effect1_dropShadow_369_251"/>
<feBlend mode="normal" in="SourceGraphic" in2="effect1_dropShadow_369_251" result="shape"/>
</filter>
</defs>
</svg>
