<svg width="162" height="129" viewBox="0 0 162 129" fill="none" xmlns="http://www.w3.org/2000/svg">
<g filter="url(#filter0_d_369_147)">
<path fill-rule="evenodd" clip-rule="evenodd" d="M64.0367 0.833269C64.8855 -0.147215 66.4024 -0.281705 67.4244 0.532487C68.4463 1.34706 68.5866 2.80274 67.7379 3.78346C67.6891 3.83984 67.6386 3.89381 67.5904 3.9485C68.0482 3.81387 68.552 3.80736 69.0416 3.9612C69.4356 4.08508 70.5032 4.3221 72.0201 4.62233C73.4753 4.91034 75.1936 5.22851 76.7799 5.51882C78.0179 5.74534 80.1557 5.86093 82.7945 5.94948C85.3356 6.03475 88.2597 6.09384 90.7887 6.24147C95.0802 6.49201 97.77 6.65126 99.8082 7.11452C100.584 7.291 101.227 7.65634 101.613 7.88014C102.088 8.15607 102.317 8.3054 102.619 8.44362C104.164 9.15217 104.918 10.4501 105.252 11.6487C105.571 12.7966 105.569 14.0442 105.489 15.1243C105.407 16.227 105.223 17.3623 105.071 18.3157C104.909 19.3295 104.792 20.0822 104.768 20.635C104.772 20.6442 104.783 20.6726 104.816 20.7219C104.909 20.8619 105.101 21.073 105.477 21.3782C105.861 21.6891 106.281 21.9802 106.831 22.3743C107.336 22.7368 107.943 23.1816 108.486 23.6936C109.835 24.9661 111.645 26.8499 115.152 28.9124C117.053 30.0305 119.238 31.1753 121.068 32.5823C121.463 32.8856 121.941 33.1486 122.606 33.4612C123.19 33.7359 124.126 34.1382 124.959 34.5598C126.327 35.253 128.488 36.0265 130.422 36.4534C131.818 36.7613 133.316 37.6303 134.492 38.3508C135.844 39.1794 136.96 39.9356 138.074 40.5491C139.122 41.1267 140.342 41.8597 141.423 42.4924C142.556 43.1549 143.529 43.7034 144.236 44.0257C145.809 44.743 146.893 45.3508 148.451 45.5813C150.059 45.8192 151.228 46.7547 152.227 47.8616C153.209 48.9496 154.312 50.5307 155.705 52.5911C159.028 57.5056 156.21 62.5354 155.867 63.1389C155.546 63.7032 155.153 64.1429 154.822 64.4817C154.658 64.6497 154.484 64.8167 154.336 64.9612C154.179 65.1128 154.035 65.2532 153.889 65.4026C153.346 65.958 152.729 66.682 152.11 67.9583C151.425 69.3712 150.354 70.2225 149.579 70.7883C148.676 71.4476 148.373 71.6282 148.133 71.9348C147.725 72.4581 147.364 73.0844 146.81 74.0784C146.273 75.0411 145.606 76.2465 144.643 77.719C142.575 80.8805 138.795 83.5486 135.929 85.4544C133.892 86.8096 132.664 87.5702 131.221 88.5413C129.19 89.9085 126.813 90.4339 124.642 90.9387C122.334 91.4755 120.606 91.6474 119.332 91.7727C117.974 91.9063 117.547 91.9756 117.261 92.1018C117.231 92.1277 117.116 92.2361 116.942 92.5364C116.689 92.9745 116.429 93.6153 116.15 94.5003C115.874 95.3754 115.614 96.3679 115.319 97.4915C115.029 98.5938 114.709 99.802 114.329 101.014C113.565 103.448 113.079 105.416 112.814 109.418L112.79 109.792L112.642 110.14C111.826 112.068 111.531 112.946 111.245 113.709C111.339 114.338 111.301 114.997 111.109 115.647C110.45 117.875 108.219 119.21 105.984 118.798C105.912 118.827 105.818 118.867 105.694 118.922C105.55 118.986 105.443 119.035 105.254 119.119C105.089 119.193 104.891 119.28 104.678 119.368C104.185 119.573 103.227 120.011 102.066 120.321C100.842 120.647 99.4704 120.826 97.7232 120.853C95.4932 120.886 93.8539 119.928 92.7799 119.046C92.4536 118.778 92.072 118.408 91.7291 118.063C90.8792 117.92 90.079 117.487 89.5064 116.782C87.8704 114.77 84.2077 111.319 83.2877 110.557C83.0046 110.323 82.721 110.121 82.1529 109.725C81.5944 109.335 80.8478 108.817 79.7691 108.018C78.9671 107.424 78.1437 106.818 77.1783 105.865C76.2386 104.938 75.2254 103.747 73.8668 101.961C72.2578 99.8458 71.6421 97.7207 71.3697 95.9876C71.2377 95.1475 71.1833 94.3766 71.1432 93.8225C71.0964 93.1773 71.0718 92.9455 71.0455 92.8264C70.4935 90.3312 70.3347 87.8804 70.2691 85.8772C70.2305 84.6983 70.2208 83.7905 70.2037 83.0676C69.6099 82.9304 69.3149 83.0052 69.0797 83.0784C68.8539 83.1487 68.6169 83.2497 68.1822 83.4456C67.8099 83.6134 67.1921 83.8981 66.5103 84.1116C66.4855 84.1194 66.4381 84.1371 66.3004 84.1917C66.1994 84.2317 65.9495 84.3336 65.7037 84.4182C65.1575 84.6062 64.2242 84.864 63.0709 84.7024C62.5122 84.6241 62.015 84.4698 61.5738 84.2708C61.5519 84.3733 61.5272 84.492 61.4957 84.6399C61.378 85.1924 61.1518 86.2902 60.5221 87.3333C58.3622 90.9102 54.2764 91.2299 51.6178 91.2327L51.1393 91.2337L50.6793 91.1145C50.6596 91.1095 50.6402 91.104 50.6207 91.0989C50.4615 91.232 50.2886 91.3544 50.1012 91.4622C48.3916 92.4447 46.1751 91.912 45.151 90.2717C44.6954 89.5419 44.1577 88.6635 43.5992 87.7532C43.0373 86.8373 42.4508 85.8824 41.8873 84.9778C40.6891 83.0543 39.7818 81.6713 39.4264 81.2483C39.4109 81.23 39.4025 81.2213 39.401 81.22C39.4002 81.2195 39.3986 81.2189 39.3971 81.218C39.3788 81.2073 39.2995 81.1641 39.067 81.0911C38.7822 81.0016 38.5398 80.9447 38.0055 80.801C37.5356 80.6747 36.9397 80.5046 36.2916 80.2512C34.6013 79.5905 33.7103 79.1788 27.2389 78.262C26.0016 78.0867 23.4804 77.9755 18.7203 78.3264C16.6528 78.4789 15.3416 78.6775 13.9225 78.8157C13.3092 78.8754 12.5796 78.9319 11.8902 78.8938C11.2846 78.8604 10.0396 78.731 8.94882 77.8645C8.07248 77.1683 7.37515 76.4119 6.89218 75.9104C6.37549 75.3739 5.95836 74.9652 5.41562 74.5667C3.83307 73.4045 3.53196 71.2309 4.74277 69.7122C5.0372 69.343 5.39362 69.0462 5.78769 68.8255C5.81964 68.0275 5.87043 67.1475 5.94394 66.2669C6.08225 64.61 6.31557 62.7457 6.72617 61.4319C7.31099 59.5607 7.92792 58.0631 8.39511 56.884C8.8854 55.6467 9.15555 54.8859 9.25058 54.2395C9.51846 52.4179 10.4993 51.042 11.3932 50.0481C11.8404 49.5508 12.3087 49.1042 12.692 48.7395C13.1033 48.3482 13.3935 48.072 13.6217 47.8176C14.4814 46.8593 15.5259 46.2688 16.318 45.8479C17.207 45.3755 17.7616 45.1175 18.2984 44.7239C19.6864 43.7061 20.9047 42.6241 21.4156 41.7366C22.0084 40.7067 22.6804 39.783 23.317 39.0364C24.5404 37.6015 26.2486 36.9423 27.5328 36.4807C28.9638 35.9664 30.1181 35.617 31.2769 34.9407C33.6714 33.5431 35.8146 31.24 37.5514 28.9837C38.4053 27.8743 39.1309 26.8172 39.7203 25.9407C40.2444 25.1613 40.8042 24.2979 41.1812 23.8557C42.0639 22.8205 42.7412 21.7114 43.5836 20.0286C45.8626 15.4758 50.2311 14.2977 52.7789 13.3421C52.964 13.2726 53.4944 12.9005 54.3746 11.9241C54.781 11.4733 55.1834 10.9863 55.5914 10.4788L56.8424 8.90749C58.4215 6.93973 59.3619 5.68566 61.3043 3.56081L61.3482 3.51296L61.3951 3.46706C62.2197 2.65998 62.8819 2.16748 64.0367 0.833269ZM65.943 5.66042C65.485 6.09698 65.1158 6.42504 64.8697 6.66237C63.0927 8.61018 62.2747 9.70631 60.6549 11.7249L60.6539 11.7258C59.8981 12.6671 58.945 13.911 58.0133 14.9446C57.149 15.9034 55.9392 17.1135 54.5309 17.6419C51.4411 18.8008 49.2203 19.4323 47.9215 22.0266C46.9989 23.8697 46.129 25.3439 44.9049 26.7796C44.7552 26.9551 44.4359 27.4433 43.7633 28.4436C43.1558 29.347 42.3658 30.5 41.4215 31.7268C39.5616 34.1431 36.9735 37.0198 33.7779 38.885C32.1214 39.8518 30.3732 40.3906 29.2203 40.8049C27.9215 41.2718 27.3628 41.5829 27.0416 41.9592C26.5767 42.5045 26.0708 43.1989 25.6275 43.969C24.582 45.7854 22.6116 47.3709 21.2193 48.3919C20.3147 49.0552 19.2751 49.5534 18.649 49.886C17.9263 50.27 17.5341 50.5342 17.2691 50.8294C16.8894 51.2527 16.4422 51.6729 16.0797 52.0178C15.6891 52.3895 15.3456 52.7202 15.0357 53.0647C14.4151 53.7548 14.0981 54.3214 14.0152 54.885C13.8332 56.1234 13.3559 57.3545 12.8922 58.5247C12.4053 59.7533 11.86 61.0801 11.3355 62.7581C11.0842 63.5622 10.8775 64.9977 10.7408 66.635C10.6511 67.71 10.5987 68.785 10.5738 69.6741C11.24 70.2328 11.7638 70.7657 12.192 71.2102C12.4825 71.5119 12.7091 71.7484 12.9107 71.9495C12.9944 71.9425 13.089 71.9353 13.1939 71.9251C14.1442 71.8325 16.0623 71.5773 18.1676 71.4221C23.1291 71.0564 26.2712 71.1241 28.2926 71.4104C35.1284 72.3788 36.6227 72.9033 39.0143 73.8382C39.2863 73.9445 39.5763 74.0319 39.9527 74.1331C40.2645 74.2169 40.8309 74.3576 41.3131 74.509C42.4517 74.8668 43.8543 75.4842 45.0436 76.8987C45.7936 77.7909 46.9987 79.685 48.0826 81.4251C48.4354 81.9914 48.7933 82.5769 49.148 83.1536C49.2915 83.1893 49.4344 83.2336 49.5758 83.2874C50.017 83.4551 50.3533 83.6241 50.608 83.763C50.6603 83.7915 50.7307 83.8314 50.7828 83.8606C51.1794 84.0085 51.588 84.1534 52.0963 84.3001C52.9961 84.2756 53.5673 84.1866 53.9283 84.0686C54.2393 83.9669 54.2555 83.8977 54.2779 83.8606C54.2462 83.9132 54.2947 83.8618 54.4244 83.2532C54.5131 82.837 54.6991 81.796 55.1432 80.844C55.4843 80.1127 56.0817 78.7322 56.6783 77.7464C56.944 77.3073 57.4757 76.475 58.3121 75.8645C58.7694 75.5307 59.5888 75.0636 60.7057 75.0257C61.8568 74.9867 62.8059 75.4188 63.4693 75.9583L63.5982 76.0676L63.7955 76.2551C63.9755 76.4384 64.1038 76.6044 64.1822 76.7122C64.2959 76.8685 64.3835 77.0121 64.443 77.1135C64.4948 77.202 64.5437 77.2927 64.5875 77.3753C65.5884 76.869 68.7382 75.3766 72.61 76.5237C72.7501 76.5652 72.833 76.5819 73.1812 76.6712C73.4416 76.7379 73.8874 76.856 74.3492 77.0471C74.8143 77.2397 75.4868 77.5814 76.0865 78.2024C76.698 78.8356 77.1026 79.6245 77.2516 80.5003L77.2779 80.676L77.3326 81.1926C77.442 82.4708 77.4368 84.22 77.484 85.6604C77.5449 87.5211 77.6855 89.4925 78.1051 91.3889C78.2584 92.0822 78.3077 92.8495 78.3434 93.3411C78.3856 93.9242 78.4238 94.4297 78.5064 94.9553C78.6635 95.954 78.9704 96.923 79.6969 97.8782C80.9688 99.5505 81.7526 100.446 82.3512 101.036C82.9239 101.601 83.382 101.945 84.1793 102.535C85.1696 103.269 85.8442 103.738 86.3961 104.122C86.9386 104.501 87.4566 104.863 88.0006 105.313C88.573 105.787 89.8369 106.941 91.2125 108.285C91.3913 108.2 91.5775 108.125 91.7711 108.063C94.1361 107.3 96.6719 108.598 97.4352 110.963C97.4452 110.994 97.4531 111.021 97.4605 111.044C97.5298 111.116 97.5977 111.183 97.6588 111.247C97.8261 111.424 97.9243 111.528 98.0543 111.664C98.1164 111.729 98.1719 111.784 98.2193 111.832C99.0044 111.791 99.4596 111.702 99.7496 111.624C100.173 111.511 100.399 111.4 101.233 111.054C101.306 111.024 102.604 110.419 103.44 110.154C104.501 109.817 105.929 109.564 107.56 109.926C107.701 109.571 107.86 109.179 108.04 108.749C108.337 104.607 108.887 102.346 109.722 99.6829C110.067 98.5842 110.362 97.4716 110.654 96.3626C110.94 95.275 111.229 94.1642 111.545 93.1633C111.857 92.1721 112.233 91.1623 112.735 90.2952C113.229 89.4418 113.973 88.4988 115.139 87.9563L115.37 87.8557C116.528 87.3783 117.81 87.2814 118.841 87.1799C120.062 87.0599 121.527 86.9121 123.508 86.4514C125.882 85.8994 127.308 85.5354 128.459 84.761C129.793 83.8631 131.41 82.8423 133.188 81.6594C136.143 79.6944 139.098 77.5118 140.568 75.2649C141.433 73.9429 142.029 72.8654 142.568 71.8997C143.089 70.9654 143.617 70.018 144.284 69.1643C145.046 68.1885 146.174 67.4725 146.666 67.1135C147.285 66.6613 147.573 66.3709 147.748 66.011C148.625 64.2005 149.566 63.0768 150.382 62.2424C150.576 62.0447 150.76 61.8657 150.915 61.7151C151.077 61.5574 151.2 61.438 151.311 61.3245C151.53 61.0999 151.607 60.9912 151.643 60.928C151.964 60.3632 153.362 57.6078 151.669 55.1038C150.235 52.9836 149.313 51.6869 148.589 50.885C148.24 50.4983 148.009 50.3097 147.868 50.218C147.804 50.1763 147.765 50.1588 147.75 50.1526C147.736 50.1473 147.728 50.1452 147.718 50.1438C145.278 49.7828 143.381 48.7473 142.171 48.1956C141.205 47.7549 140.026 47.0814 138.919 46.4339C137.761 45.7565 136.653 45.0903 135.677 44.553C134.447 43.875 132.995 42.9116 131.902 42.2415C130.633 41.4635 129.806 41.0554 129.344 40.9534C127.044 40.4458 124.485 39.5409 122.712 38.6428C121.935 38.2492 121.337 38.0054 120.489 37.6067C119.721 37.246 118.868 36.8077 118.059 36.1858C116.543 35.0204 114.843 34.1461 112.637 32.8489C108.593 30.4703 106.415 28.2135 105.114 26.9866C104.823 26.7122 104.446 26.4271 103.951 26.0716C103.499 25.7475 102.899 25.3312 102.372 24.9036C101.372 24.0931 99.8711 22.6565 99.9605 20.4622L99.9801 20.1262C100.039 19.3278 100.186 18.424 100.315 17.6155C100.473 16.6266 100.625 15.6798 100.69 14.7971C100.757 13.8918 100.717 13.2488 100.603 12.8401C100.564 12.6977 100.526 12.6242 100.504 12.5901C99.9358 12.3252 99.395 11.99 99.1217 11.8313C98.7524 11.6169 98.6738 11.602 98.6988 11.6077C97.1645 11.259 94.9845 11.1119 90.4967 10.8499C88.0499 10.707 85.2717 10.6525 82.6275 10.5637C80.0815 10.4783 77.5501 10.3598 75.8785 10.054C74.2905 9.76336 72.5417 9.43936 71.0484 9.14382C69.6169 8.86049 68.2527 8.57149 67.5445 8.34889C66.3595 7.97632 65.6799 6.80464 65.943 5.66042Z" fill="black"/>
</g>
<defs>
<filter id="filter0_d_369_147" x="0" y="0" width="161.308" height="128.854" filterUnits="userSpaceOnUse" color-interpolation-filters="sRGB">
<feFlood flood-opacity="0" result="BackgroundImageFix"/>
<feColorMatrix in="SourceAlpha" type="matrix" values="0 0 0 0 0 0 0 0 0 0 0 0 0 0 0 0 0 0 127 0" result="hardAlpha"/>
<feOffset dy="4"/>
<feGaussianBlur stdDeviation="2"/>
<feComposite in2="hardAlpha" operator="out"/>
<feColorMatrix type="matrix" values="0 0 0 0 0 0 0 0 0 0 0 0 0 0 0 0 0 0 0.25 0"/>
<feBlend mode="normal" in2="BackgroundImageFix" result="effect1_dropShadow_369_147"/>
<feBlend mode="normal" in="SourceGraphic" in2="effect1_dropShadow_369_147" result="shape"/>
</filter>
</defs>
</svg>
