<svg width="118" height="117" viewBox="0 0 118 117" fill="none" xmlns="http://www.w3.org/2000/svg">
<g filter="url(#filter0_d_369_386)">
<path fill-rule="evenodd" clip-rule="evenodd" d="M42.9798 0.316228C44.288 -0.221578 45.415 0.0591935 45.8528 0.199041L45.9974 0.247869L46.3831 0.389471C46.7727 0.539018 47.1647 0.707049 47.472 0.837713C47.942 1.03763 48.3114 1.19359 48.6311 1.30842C48.9335 1.41697 49.6176 1.49272 50.8724 1.51545C51.3626 1.52432 52.0463 1.52738 52.5931 1.55842C52.8815 1.5748 53.2372 1.60366 53.6009 1.66486C53.9178 1.71822 54.5053 1.83712 55.1126 2.15412C55.5694 2.39258 55.9483 2.63354 56.2493 2.83674C56.3961 2.93586 56.5326 3.03272 56.639 3.10724C56.7536 3.18755 56.832 3.24191 56.9046 3.29084C56.9241 3.30396 56.9419 3.31593 56.9573 3.32599C58.5462 3.56988 59.7772 3.77787 61.0091 3.48615C61.656 3.33291 62.2706 3.13206 62.9993 2.89533C63.6417 2.68662 64.5364 2.3928 65.4143 2.2381C67.3115 1.90389 68.9029 1.93809 70.2864 2.36017C71.2867 2.66546 72.0981 3.19566 72.4173 3.4256L72.5608 3.53595L73.0423 3.85822L73.3929 4.31037C74.3794 5.58397 74.93 6.78811 75.222 7.92658H75.2239L75.3313 8.19025C75.4877 8.55901 75.5716 8.93888 75.5921 9.31525C76.0004 9.98925 76.5327 10.8707 77.2181 12.0233C78.1234 13.5457 78.5607 14.8397 79.0013 16.076C79.0933 16.3342 79.1952 16.543 79.4153 17.0369C79.592 17.4334 79.8833 18.0971 80.0393 18.8533C80.1843 19.5561 80.264 20.266 80.3196 20.8807C80.3605 20.9124 80.4026 20.9465 80.4475 20.9813C80.6972 21.1741 81.0315 21.4294 81.3655 21.6893C83.9338 23.6873 85.1754 25.8546 86.0677 27.1658C86.7926 28.2311 87.1334 28.6544 88.9729 30.8436C90.3741 32.5111 91.1109 33.993 91.4681 35.3289C91.6428 35.9827 91.7066 36.5277 91.7395 36.9149C91.7568 37.1175 91.7632 37.2213 91.7659 37.2645C91.8009 37.4292 91.8377 37.6125 91.8753 37.8221C92.4373 36.9229 93.035 36.1024 93.6438 35.4412C94.0226 35.0299 94.5051 34.5703 95.0804 34.1981C95.5437 33.8982 96.6878 33.2438 98.1927 33.449L99.0286 33.5633L99.7249 34.0213C101.386 35.1137 102.551 36.6608 103.264 37.7742L103.38 37.9315C103.395 37.949 103.409 37.9643 103.499 38.0574C104.279 38.862 104.582 39.9275 104.423 40.9354C104.446 40.9853 104.467 41.0321 104.486 41.074C104.538 41.1915 104.577 41.279 104.624 41.3651C104.802 41.6891 104.939 42.028 105.015 42.325C105.084 42.5953 105.148 42.8762 105.243 43.2244C105.279 43.3548 105.393 43.6738 105.443 43.9549C105.5 44.2832 105.505 44.6609 105.446 45.1971L105.447 45.199C105.534 45.2863 105.602 45.3949 105.639 45.5194C105.647 45.5447 105.653 45.5701 105.658 45.5955C105.963 46.1038 106.138 46.6933 106.138 47.3221C106.138 49.0362 106.139 53.5828 106.103 59.3279C106.081 62.8494 105.733 64.3912 105.534 65.9627C105.405 66.9905 105.558 67.5644 105.691 67.9002C105.88 68.3795 106.035 68.5197 106.549 69.3289C106.581 69.3795 106.608 69.4208 107.302 70.0047C107.921 70.5251 108.863 71.34 109.656 72.6463C111.356 75.4485 111.661 77.4217 112.25 79.4149C112.566 80.4811 112.98 81.9581 113.178 85.2528C113.345 88.024 113.299 90.3642 113.178 92.1004C113.118 92.9659 113.037 93.7035 112.95 94.284C112.906 94.5716 112.856 94.8504 112.799 95.1014C112.765 95.2514 112.663 95.7118 112.435 96.1678C111.494 98.0491 109.857 99.2603 107.836 99.8641C106.36 100.305 106.077 100.435 105.511 100.847C105.207 101.068 104.849 101.466 104.402 102.143C104.184 102.473 103.98 102.814 103.747 103.204C103.534 103.562 103.266 104.013 102.989 104.421C102.033 105.825 100.868 107.02 99.8763 107.917C98.5646 109.103 96.5711 109.163 95.1907 108.135C95.1161 108.138 95.0394 108.143 94.9602 108.146C94.2342 108.175 93.2819 108.188 92.3811 108.202C91.5164 108.215 90.6977 108.229 90.0765 108.252C88.8584 108.442 86.9532 108.74 84.9759 108.845C82.9866 108.949 80.5431 108.886 78.5579 108.066C76.7413 107.316 76.2134 106.644 73.472 106.62C70.346 106.593 67.6967 106.54 65.7435 106.472C64.7691 106.439 63.9506 106.401 63.3265 106.358C63.0162 106.337 62.7348 106.313 62.4964 106.286C62.3094 106.265 61.9855 106.226 61.6858 106.139C60.0588 105.67 57.453 104.7 55.6917 103.659C54.8917 103.186 54.2537 102.686 53.052 102.261C51.9226 101.86 50.2917 101.551 47.9554 101.859C43.1243 102.496 37.099 103.368 32.5198 102.899C29.499 102.59 27.8334 101.984 23.6321 100.337C22.3425 99.8311 20.966 99.166 19.7923 98.3113C18.6407 97.4727 17.4792 96.3017 16.9778 94.7313C16.4593 93.1066 16.069 91.8992 15.5481 90.8533C15.1687 90.0914 14.8241 89.1686 14.5374 88.4559C14.2224 87.6729 13.9294 87.0062 13.5872 86.449C12.6025 84.8459 11.9675 83.0058 11.7161 81.0252C11.5542 79.7496 11.2876 78.7988 11.0315 78.0916C10.7609 78.0721 10.4882 78.0245 10.2181 77.9432C8.59934 77.4556 7.59203 75.9741 7.69657 74.4188C7.68063 74.3689 7.66696 74.3219 7.63407 74.2176C7.59643 74.0983 7.54807 73.9437 7.50224 73.7742C7.41384 73.4472 7.30038 72.9527 7.28447 72.3768C7.25741 71.3938 7.51022 70.4719 7.69657 69.8914C7.90112 69.2545 8.14891 68.6679 8.30302 68.3074C8.49266 67.8639 8.66076 67.5357 9.05204 66.5789C9.10503 66.4484 9.16269 66.0696 8.85478 65.2625C8.71548 64.8975 8.53788 64.5412 8.34697 64.1834C8.29781 64.0913 8.1128 63.749 8.05693 63.6434C8.05004 63.6304 8.04184 63.6142 8.03251 63.5965C7.94281 63.5299 7.82588 63.4441 7.67021 63.3319C7.37699 63.1204 6.95629 62.8196 6.55107 62.4881C6.15056 62.1604 5.64707 61.7097 5.20536 61.1483C4.02224 59.6442 3.94484 58.0664 4.02079 57.0496C4.05472 56.5958 4.13182 56.1308 4.16142 55.9324C4.19241 55.7247 4.19689 55.6563 4.19755 55.6561L4.19853 55.6795C4.17002 54.3693 4.50281 53.1149 4.79423 52.2381C5.10042 51.3171 5.45825 50.532 5.63408 50.1463L5.70829 49.993C6.08662 49.2429 6.62746 48.7053 6.95341 48.407C7.34958 48.0446 7.78092 47.7233 8.13993 47.4686C8.50127 47.2122 8.89477 46.9504 9.1995 46.7449C9.53222 46.5206 9.78427 46.3468 9.98368 46.1961C10.0674 46.1329 10.3888 45.7442 10.6526 44.7137C10.7653 44.2734 10.8387 43.8288 10.8929 43.4276C10.9202 43.2252 10.9409 43.0501 10.9622 42.8709C10.9758 42.7562 11.007 42.473 11.055 42.2332L11.1614 41.743C11.4422 40.5195 11.95 38.7796 12.5042 37.3611C12.7228 36.8016 12.864 36.3111 12.9436 35.9569C12.8705 35.8259 12.785 35.6742 12.6585 35.4539C12.5098 35.195 12.3299 34.8801 12.137 34.5164C10.8798 32.1461 10.579 29.8485 10.6976 27.9852C10.9932 23.3377 10.8709 22.5559 10.8206 22.3045C10.4008 20.2062 11.3099 18.3821 11.8245 17.4334C12.1414 16.8013 12.6871 15.9888 13.1839 15.2772C13.2018 15.2489 13.2205 15.2196 13.2425 15.1834C13.2607 15.1534 13.3304 15.0375 13.3968 14.9354C13.4752 14.8148 13.6003 14.6324 13.7747 14.4315C13.9583 14.2199 14.1597 14.03 14.3782 13.8592L14.5257 13.7498C15.5835 13.0054 16.9398 12.8928 18.0804 13.3612C18.5809 12.8669 19.2382 12.5111 19.9925 12.3738C20.0147 12.3677 20.0844 12.3484 20.2151 12.3045C20.4882 12.2127 20.9337 12.0486 21.6448 11.7615C22.9286 11.2433 24.3648 10.9673 27.7024 10.2596C30.4785 9.67097 31.5844 9.47083 32.6126 9.35724C32.6379 9.34786 32.6922 9.32685 32.7864 9.28498C32.9787 9.19944 33.6827 8.85321 34.4505 8.62092C34.4704 8.61384 34.7289 8.52147 35.3138 8.13556C35.9253 7.73204 36.798 7.07191 38.0247 6.00763C38.0458 5.98225 38.0839 5.93645 38.139 5.86408C38.2871 5.66917 38.477 5.40131 38.7395 5.02131C39.2436 4.29184 39.9434 3.25727 40.8128 2.09845C41.2001 1.58218 41.8863 0.765806 42.9798 0.316228ZM44.7542 8.84846C44.4938 9.22528 44.224 9.61097 43.97 9.94514C43.7437 10.2429 43.3926 10.6862 42.9563 11.0662C40.2403 13.432 38.3077 14.716 36.6204 15.2264C36.4332 15.283 36.3827 15.3188 35.8196 15.5692C35.3152 15.7934 34.5227 16.1188 33.471 16.2322C32.8551 16.2987 32.107 16.4177 29.2601 17.0213C25.472 17.8245 24.9486 17.9411 24.4427 18.1453C23.0256 18.7174 22.0253 19.0771 21.219 19.1971C20.5406 19.2979 19.8774 19.2098 19.2864 18.9744C19.2855 18.9759 19.2854 18.9779 19.2845 18.9793L19.2532 19.0272L19.221 19.074C18.9357 19.4819 18.7085 19.8188 18.5433 20.077C18.4609 20.2056 18.4017 20.3013 18.3636 20.367C18.3305 20.4241 18.3259 20.4361 18.3372 20.4129L18.303 20.4891L18.2454 20.5945C18.1501 20.7695 18.0786 20.9128 18.0247 21.033C17.9889 21.113 17.9646 21.1751 17.9485 21.2205C18.1601 22.4531 18.17 24.1738 17.9007 28.407C17.8495 29.212 17.9725 30.2508 18.5686 31.3748C18.7074 31.6364 18.8422 31.8724 18.9788 32.1102C19.1043 32.3287 19.2651 32.6046 19.4017 32.8563C19.6505 33.3148 20.0266 34.0519 20.1731 34.9735L20.1995 35.16L20.2239 35.4608C20.2544 36.168 20.1128 36.9025 20.0101 37.368C19.8558 38.0666 19.612 38.8997 19.263 39.7928C18.7825 41.0224 18.3264 42.6497 18.1526 43.4949C18.1499 43.5162 18.1438 43.5659 18.1331 43.6561C18.1145 43.8123 18.0861 44.0501 18.0501 44.3172C17.9775 44.8556 17.8627 45.5786 17.6614 46.3651C17.2972 47.7878 16.49 50.0942 14.4495 51.6365C14.0788 51.9167 13.6811 52.187 13.3489 52.411C12.9886 52.6539 12.7012 52.8452 12.431 53.0369C12.2791 53.1447 12.1654 53.2314 12.0813 53.2977C11.9472 53.6037 11.7972 53.9606 11.6702 54.3426C11.5215 54.7899 11.4492 55.1303 11.4241 55.3524L11.4134 55.534V55.7459C11.4062 56.2324 11.3431 56.666 11.306 56.9149C11.2856 57.051 11.2694 57.1539 11.2571 57.2361C11.4595 57.4002 11.6926 57.5705 12.0061 57.7967C12.2788 57.9934 12.7032 58.2949 13.0657 58.6053C13.2549 58.7673 13.5018 58.9937 13.7405 59.2733C13.9423 59.5097 14.2449 59.9096 14.4642 60.4549C14.4711 60.4685 14.4808 60.4866 14.4925 60.5086C14.5937 60.6999 14.6045 60.7145 14.7708 61.0262C15.0112 61.4768 15.3432 62.1245 15.6321 62.8817C16.1801 64.3179 16.7718 66.6587 15.7698 69.1092C15.3896 70.0389 15.0075 70.8715 14.9798 70.9363C14.8312 71.284 14.6932 71.6185 14.5931 71.9305C14.5637 72.022 14.5422 72.0987 14.5267 72.16C14.55 72.2343 14.5795 72.3289 14.6419 72.5291C14.7128 72.7569 14.8393 73.1736 14.9056 73.6473C14.9534 73.9892 14.9825 74.4526 14.9036 74.9813C15.2545 75.7288 16.1148 77.4909 16.4925 80.4666C16.6696 81.8623 17.107 83.0871 17.7317 84.1043C18.2882 85.0103 18.6984 85.9801 19.0257 86.7938C19.3812 87.6776 19.6169 88.3139 19.8899 88.8621C20.5955 90.2788 21.0863 91.8409 21.5774 93.3797C21.6649 93.6532 21.9573 94.0923 22.7005 94.6336C23.4223 95.1592 24.3842 95.6448 25.4515 96.0633C29.638 97.7049 30.7497 98.0738 33.0306 98.3074C36.8815 98.7019 42.1972 97.9573 47.3011 97.285C50.426 96.8734 52.8544 97.2693 54.72 97.9305C56.5129 98.5661 57.8068 99.4867 58.2142 99.7274C59.4662 100.467 61.5799 101.278 62.9837 101.691C63.0022 101.694 63.027 101.698 63.0579 101.701C63.1946 101.716 63.3959 101.734 63.6692 101.753C64.2134 101.79 64.9682 101.826 65.9173 101.859C67.8114 101.925 70.4138 101.976 73.5149 102.003C77.5195 102.037 79.3621 103.371 80.4602 103.825C81.3711 104.201 82.8705 104.331 84.7132 104.234C86.4806 104.141 88.2165 103.865 89.4612 103.671L89.6018 103.649L89.7444 103.642C90.4589 103.613 91.4051 103.599 92.3059 103.586C93.0476 103.575 93.7613 103.561 94.3509 103.544C94.509 103.305 94.7014 103.081 94.9261 102.878C95.6751 102.2 96.4086 101.424 96.9456 100.635C97.0845 100.43 97.2425 100.168 97.4837 99.7635C97.7057 99.3914 97.9868 98.9197 98.303 98.4403C98.9231 97.5001 99.8297 96.289 101.149 95.3289C102.746 94.1661 104.018 93.7516 105.691 93.2518C105.741 93.2367 105.783 93.2209 105.818 93.2078C105.87 92.8421 105.931 92.3152 105.978 91.6385C106.079 90.1877 106.122 88.1344 105.973 85.6512C105.809 82.9276 105.499 81.9527 105.308 81.3055C104.527 78.664 104.524 77.9525 103.418 76.1307C103.235 75.8293 103.025 75.6167 102.544 75.2117C102.139 74.8708 101.117 74.0864 100.385 72.9334C100.248 72.7183 99.4476 71.6326 98.9436 70.3592C98.3829 68.9421 98.1033 67.2352 98.3694 65.1287C98.6067 63.2511 98.8673 62.2903 98.886 59.286C98.9217 53.562 98.9212 49.0321 98.9212 47.3221C98.9212 46.4805 99.2339 45.7083 99.7542 45.1082C99.7507 45.0461 99.7468 44.989 99.7454 44.9363C99.7413 44.7849 99.6827 44.3534 99.5686 43.6502C99.0683 43.4673 98.6024 43.175 98.2132 42.7733C98.0536 42.6086 97.8625 42.4058 97.6311 42.1151C97.1838 42.9084 96.6919 43.8543 95.4944 45.4295C94.5475 46.6752 93.6963 47.8757 93.0677 48.7615C92.7671 49.1851 92.4856 49.5822 92.2854 49.8494C92.2141 49.9446 92.0414 50.1751 91.8479 50.3807C91.793 50.439 91.6741 50.5634 91.51 50.7C91.489 50.7178 90.9153 51.2362 90.0003 51.4549C89.434 51.5902 88.2887 51.7081 87.1487 50.993C86.043 50.2993 85.6985 49.2909 85.5921 48.8123C85.4098 47.9919 85.5994 47.3205 85.6087 47.283C85.6114 47.272 85.939 46.0389 85.6028 44.0692C84.9385 40.1774 84.8385 39.2743 84.6849 38.5965C84.6124 38.2766 84.5863 37.9893 84.5745 37.8494C84.5678 37.7705 84.5619 37.6893 84.5579 37.6346C84.5534 37.5727 84.5502 37.5251 84.5462 37.4783C84.5321 37.3123 84.5149 37.1893 84.4778 37.0506C84.4111 36.8011 84.2003 36.1964 83.3558 35.1912C81.5206 33.0073 80.9687 32.3416 80.0237 30.9529C78.8769 29.2677 78.304 28.2232 76.8206 27.0692C76.2524 26.6271 75.5678 26.113 75.1097 25.7313C74.8736 25.5346 74.5533 25.2567 74.2669 24.9363C74.1207 24.7728 73.9186 24.527 73.7337 24.2127C73.5586 23.9151 73.2952 23.3822 73.2298 22.6756C73.1225 21.5146 73.1134 20.9454 72.9593 20.1981C72.9542 20.1823 72.9203 20.0743 72.7806 19.7606C72.6574 19.4843 72.3788 18.8971 72.1722 18.3172C71.7019 16.9977 71.4635 16.3193 70.9495 15.4549C69.8767 13.6509 69.1939 12.5325 68.7522 11.8035C68.5374 11.4489 68.358 11.1509 68.2229 10.9139C68.1118 10.7189 67.9169 10.3745 67.7767 9.98713C67.6519 9.64242 67.5874 9.29147 67.5774 8.94514C67.3662 8.95637 67.0837 8.98504 66.7171 9.04963C66.4501 9.09673 66.0697 9.2103 65.3138 9.45588C64.6436 9.67359 63.735 9.97495 62.7395 10.2108C59.7241 10.925 56.7867 10.3109 55.6116 10.1326C54.2669 9.92858 53.3165 9.33575 52.7571 8.95881C52.3947 8.71459 52.2036 8.57465 52.0462 8.4676C51.7193 8.45333 51.3323 8.45006 50.7366 8.43928C49.6694 8.41995 47.7454 8.38535 46.1028 7.79572C45.9385 7.73674 45.7733 7.67211 45.6106 7.60822C45.3018 8.04934 45.0207 8.46273 44.7542 8.84846Z" fill="#151515"/>
</g>
<defs>
<filter id="filter0_d_369_386" x="0" y="0" width="117.287" height="116.883" filterUnits="userSpaceOnUse" color-interpolation-filters="sRGB">
<feFlood flood-opacity="0" result="BackgroundImageFix"/>
<feColorMatrix in="SourceAlpha" type="matrix" values="0 0 0 0 0 0 0 0 0 0 0 0 0 0 0 0 0 0 127 0" result="hardAlpha"/>
<feOffset dy="4"/>
<feGaussianBlur stdDeviation="2"/>
<feComposite in2="hardAlpha" operator="out"/>
<feColorMatrix type="matrix" values="0 0 0 0 0 0 0 0 0 0 0 0 0 0 0 0 0 0 0.25 0"/>
<feBlend mode="normal" in2="BackgroundImageFix" result="effect1_dropShadow_369_386"/>
<feBlend mode="normal" in="SourceGraphic" in2="effect1_dropShadow_369_386" result="shape"/>
</filter>
</defs>
</svg>
