<svg width="231" height="189" viewBox="0 0 231 189" fill="none" xmlns="http://www.w3.org/2000/svg">
<g filter="url(#filter0_d_369_188)">
<path fill-rule="evenodd" clip-rule="evenodd" d="M36.595 0.237588C39.5559 -0.277014 43.0933 0.180735 44.9837 0.341104C46.1161 0.437191 47.2741 0.88826 47.8734 1.07157C48.6086 1.29646 49.4935 1.50936 50.8568 1.5286C51.2323 1.53389 51.5658 1.49672 52.1546 1.44853C52.6804 1.4055 53.3969 1.35722 54.18 1.45927C54.8445 1.54595 55.3248 1.84735 55.6097 2.0745C55.8964 2.30318 56.1066 2.55267 56.2484 2.74149C56.5275 3.11335 56.7627 3.54833 56.9476 3.91044C57.1404 4.28816 57.3504 4.7334 57.5521 5.1536C57.7616 5.59026 57.9805 6.04027 58.222 6.49833C58.6994 7.40386 59.1194 8.7784 59.5218 10.2317C59.9402 11.743 60.4171 13.6402 60.9525 15.6829C61.3645 17.2552 61.5347 18.9046 61.7327 20.4964C61.9366 22.1348 62.1845 23.8931 62.7288 25.9622C62.9091 26.6476 63.2341 27.1033 63.7405 27.6643C64.1745 28.145 65.1712 29.0924 65.7601 30.2815C66.2244 31.2191 66.7964 31.8779 67.7015 32.7522C68.5972 33.6175 69.9126 34.7708 71.4144 36.4397C72.7811 37.9586 73.8947 39.0431 74.7757 39.9143C75.2064 40.3403 75.6191 40.7518 75.9603 41.1311C76.2919 41.5 76.659 41.9488 76.9251 42.4612C77.9864 44.5056 78.4795 47.0401 78.6175 48.2395C78.6618 48.6252 78.785 49.1135 78.9837 49.9192C79.1426 50.5636 79.3316 51.3475 79.4554 52.1975L79.5042 52.5657L79.5071 52.595L79.5101 52.6233C79.5367 52.9103 79.5493 53.2108 79.5589 53.4349C79.5697 53.6881 79.5776 53.854 79.5901 53.9808C79.5917 53.9968 79.5929 54.0095 79.5941 54.0188C79.6094 54.0505 79.6455 54.1202 79.72 54.2434C80.3867 55.346 79.9959 56.7587 78.847 57.3987C78.4046 57.645 77.9145 57.7386 77.4407 57.7005C77.1162 58.4787 76.7552 59.3861 76.4153 60.5774C76.2509 61.1541 76.2036 61.7098 76.1966 62.4993C76.1899 63.2478 76.2249 64.3492 76.1448 65.6018C75.9662 68.3949 76.0274 70.7515 76.1859 72.4378C76.2655 73.2851 76.3668 73.9281 76.4622 74.3548C76.4804 74.4359 76.4984 74.5038 76.513 74.5589C77.4403 75.5052 78.2807 76.3202 79.6634 77.1487C80.0233 77.3643 80.4819 77.5145 81.1419 77.6516C81.6168 77.7503 82.7312 77.9249 83.4603 78.1272C84.2483 78.3459 84.7828 78.4295 85.7015 78.6477C86.5107 78.84 87.4534 79.1078 88.3939 79.6263C89.4162 80.1899 90.3419 81.0087 91.5189 82.1077C92.767 83.2732 94.3747 84.8345 96.9984 87.2483C98.8645 88.9652 100.155 89.8626 101.341 90.3763C102.506 90.8805 103.816 91.3094 105.164 91.4778C106.051 91.5885 106.865 91.8296 107.448 91.9876C108.073 92.1571 108.607 92.2866 109.234 92.344C110.228 92.4352 111.188 92.6801 111.929 92.8684C112.746 93.0761 113.313 93.2187 113.826 93.2737C115.96 93.5029 118.888 93.6641 121.571 93.8391C122.887 93.925 124.147 94.0146 125.17 94.1175C125.681 94.1688 126.162 94.2267 126.577 94.2933C126.946 94.3523 127.431 94.4432 127.856 94.6058C128.481 94.8449 129.106 94.946 130.004 95.0618C130.858 95.1719 132.006 95.299 133.248 95.6809C136.818 96.7787 139.98 98.919 145.019 102.054C148.366 104.137 150.064 104.847 151.589 105.486C152.248 105.761 152.822 105.916 153.558 106.116C154.283 106.315 155.158 106.556 156.149 107.001C158.082 107.87 159.589 108.342 160.99 108.821C162.262 109.256 163.257 109.491 165.366 109.733C166.986 109.919 168.129 110.193 169.102 110.409C170.046 110.619 170.873 110.785 172.072 110.852C173.425 110.927 174.512 111.206 175.446 111.469C176.401 111.738 177.117 111.963 178.04 112.114C178.513 112.191 179.026 112.31 179.438 112.397C179.89 112.492 180.423 112.597 181.15 112.696C182.615 112.895 184.938 113.085 188.986 113.114C191.285 113.129 192.587 112.755 193.32 112.444C193.693 112.285 193.971 112.121 194.217 111.964C194.289 111.918 194.531 111.759 194.64 111.691C194.77 111.61 195.043 111.441 195.379 111.317C195.4 111.304 195.506 111.229 195.673 110.963C195.909 110.588 196.133 110.053 196.382 109.329C196.588 108.729 196.884 107.759 197.146 107.069C197.407 106.378 197.832 105.377 198.604 104.637C199.13 104.132 199.777 103.791 200.304 103.556C200.862 103.307 201.474 103.097 202.065 102.917C203.21 102.568 204.585 102.243 205.569 101.984C207.119 101.575 208.016 101.095 209.243 100.553C209.802 100.088 210.35 99.663 210.876 99.2591C211.128 99.066 211.374 98.8761 211.62 98.6839C211.672 97.9999 211.935 97.3235 212.42 96.7513C213.678 95.2683 215.952 95.0452 217.497 96.2522C218.753 97.2331 219.412 98.3464 219.811 99.2835C219.99 99.7051 220.125 100.116 220.202 100.344C220.247 100.475 220.278 100.56 220.304 100.63C220.316 100.662 220.326 100.686 220.332 100.702C220.338 100.716 220.341 100.723 220.342 100.725C220.921 101.929 221.276 103.564 221.483 105.179C221.7 106.881 221.791 108.874 221.689 110.954L221.668 111.381L221.539 111.79C220.981 113.567 220.446 115.608 220.182 116.619C220.502 117.525 220.409 118.471 219.998 119.268C220.564 119.41 221.234 119.646 221.882 120.071L222.113 120.231L222.306 120.38C224.25 121.949 224.373 124.284 224.455 124.824C224.705 126.446 224.768 127.543 224.811 128.3C224.837 128.774 224.855 128.96 224.859 129.008C225.335 130.31 226.142 133.012 226.374 135.285C226.47 136.223 226.165 136.951 226.03 137.245C225.864 137.605 225.666 137.902 225.523 138.103C225.234 138.507 224.878 138.916 224.569 139.256C224.246 139.612 223.861 140.018 223.487 140.416C223.147 140.778 222.794 141.157 222.432 141.558C222.454 141.683 222.504 141.845 222.581 142.03C222.658 142.212 222.745 142.376 222.816 142.498C222.911 142.662 223.441 143.489 223.759 144.153C224.168 145.007 224.471 145.968 224.675 147.225L224.708 147.429L224.716 147.634C224.781 149.356 224.815 150.859 224.82 152.003C224.822 152.573 224.817 153.075 224.804 153.479C224.801 153.584 224.794 153.722 224.784 153.877C225.243 154.458 225.517 155.181 225.517 155.966C225.517 155.971 225.519 156.108 225.525 156.452C225.53 156.78 225.536 157.25 225.544 157.843C225.56 159.03 225.578 160.712 225.591 162.747C225.598 163.785 225.529 164.569 225.456 165.223C225.38 165.911 225.332 166.227 225.314 166.662C225.256 168.03 225.066 170.227 225.041 173.048C225.022 175.347 224.307 177.109 222.982 178.401C221.556 179.791 219.595 180.099 219.228 180.178C217.611 180.528 215.707 180.466 214.358 180.377C213.629 180.329 212.944 180.264 212.39 180.208C211.938 180.163 211.632 180.131 211.415 180.111C211.382 180.114 211.344 180.119 211.305 180.122C210.93 180.158 210.407 180.193 209.565 180.208C208.029 180.236 205.101 180.238 203.461 180.152C201.688 180.058 200.274 179.44 199.19 178.547C198.235 177.761 197.618 176.805 197.374 176.452C196.549 175.259 196.472 173.994 196.619 173.039C196.757 172.152 197.105 171.382 197.374 170.855C197.652 170.311 197.985 169.769 198.221 169.381C198.489 168.939 198.665 168.644 198.787 168.394C199.013 167.934 199.158 167.571 199.309 167.17C199.455 166.781 199.653 166.226 199.92 165.608C200.022 165.373 200.053 165.292 200.088 165.052C200.136 164.725 200.179 164.101 200.13 162.874C200.111 162.852 200.089 162.822 200.058 162.786C200.015 162.736 199.898 162.601 199.784 162.45C199.688 162.322 199.438 161.982 199.253 161.511C198.632 159.928 199.186 158.525 199.335 158.134C199.386 158 199.438 157.872 199.474 157.785C199.515 157.687 199.539 157.626 199.562 157.568C199.606 157.454 199.602 157.448 199.592 157.495C199.67 157.129 199.764 156.798 199.845 156.533C199.885 156.4 199.926 156.272 199.959 156.165C199.995 156.053 200.022 155.966 200.047 155.883C200.063 155.831 200.075 155.787 200.085 155.75C199.986 154.462 199.874 152.972 199.694 151.704C199.636 151.301 199.575 150.963 199.519 150.692C198.991 150.516 198.365 150.443 197.66 150.409C196.574 150.358 195.745 150.342 195.105 150.387C194.568 150.425 194.405 150.494 194.443 150.476C192.595 151.5 190.741 151.474 189.436 151.304C188.786 151.219 188.173 151.084 187.729 150.987C187.226 150.876 186.937 150.812 186.683 150.776C185.389 150.591 184.213 150.56 183.197 150.562C182.869 150.562 182.036 150.573 181.758 150.573C181.392 150.572 180.752 150.569 180.154 150.459C179.884 150.41 179.581 150.392 178.925 150.428C178.368 150.458 177.203 150.556 175.998 150.597C174.465 150.648 172.077 150.64 170.052 150.604C169.948 151.224 169.667 151.826 169.203 152.333C168.172 153.461 166.323 154.758 163.364 155.659C162.376 155.96 161.834 156.159 161.339 156.424C160.866 156.677 160.297 157.069 159.45 157.87C157.605 159.615 155.019 160.397 154.511 160.603C154.472 160.637 154.317 160.769 153.966 161.139C153.555 161.571 152.717 162.513 151.617 163.236C149.972 164.315 147.726 163.911 146.601 162.333C145.727 161.108 145.785 159.536 146.624 158.388C146.544 158.361 146.463 158.331 146.384 158.295C145.73 158 145.392 157.862 145.165 157.785C145.003 157.731 144.908 157.712 144.751 157.694C141.955 157.477 135.215 157.204 130.412 157.626L130.411 157.625C128.139 157.851 125.238 158.006 122.507 158.018C119.829 158.029 117.08 157.907 115.257 157.498C113.643 157.137 112.163 156.653 110.925 156.25C109.62 155.825 108.687 155.525 107.927 155.391C105.384 154.941 100.509 153.759 97.7181 152.491C96.9706 152.151 96.1788 151.99 95.0198 151.752C93.9359 151.53 92.5437 151.241 91.14 150.549C89.5103 149.746 88.2266 148.551 87.2689 147.651C86.4724 146.902 85.9352 146.4 85.4837 146.076C85.4051 146.094 85.32 146.116 85.2318 146.134C84.1854 146.352 83.3811 146.74 82.4651 147.246C81.6004 147.725 80.4144 148.453 79.0003 148.922C78.519 149.082 77.728 149.286 76.8275 149.205C75.8355 149.117 74.7466 148.679 73.9603 147.65C72.3618 145.557 70.5578 143.041 68.9573 141.423C68.5332 140.994 67.9524 140.671 66.93 140.209C65.9893 139.785 64.6303 139.227 63.3157 138.346C59.5951 135.853 57.2404 135.332 54.8128 134.536C54.116 134.308 52.5299 133.897 51.3704 133.43C50.0602 132.902 48.5542 132.063 47.5081 130.53C46.6196 129.227 46.3664 127.679 46.1868 126.809C45.9636 125.728 45.8037 125.284 45.5628 125.002C44.725 124.022 43.7386 123.102 42.8372 122.48C41.4971 121.555 39.6578 121.063 37.1976 120.598C36.735 120.51 36.2108 120.454 35.5384 120.381C34.9082 120.312 34.1515 120.229 33.4066 120.083C31.9435 119.797 30.0317 119.179 28.7991 117.411C28.281 116.668 27.7413 116.205 26.7708 115.107C25.9005 114.122 24.9552 112.88 24.3333 111.156C23.5383 108.95 22.9436 107.366 22.0755 105.722C21.5107 104.653 20.6241 102.552 19.6497 100.232C18.6487 97.8479 17.5045 95.1075 16.3743 92.5999C15.0234 89.6024 14.6474 87.9102 12.637 86.6507C11.4537 85.9094 10.317 84.8664 9.42316 83.8977C8.55086 82.9524 7.73073 81.8826 7.30206 81.0091C7.14406 80.687 7.07254 80.3477 7.07453 80.014C6.01062 80.3104 4.83914 79.8686 4.29035 78.8958C3.65813 77.7745 4.09264 76.3736 5.26105 75.7669C5.3796 75.7053 5.66794 75.4668 6.00226 74.7337C6.32265 74.0311 6.55462 73.1673 6.76886 72.2434C7.01906 71.1648 7.54866 70.1607 7.98566 69.3997C8.50743 68.4911 8.82369 68.0317 9.09699 67.4915C9.42129 66.8504 9.67726 66.1225 9.92023 65.3538C10.1318 64.6843 10.3931 63.7707 10.6634 63.1311C11.1574 61.9626 12.0169 60.7911 12.6517 59.9349C13.4151 58.9049 13.8303 58.348 13.9759 58.0149C14.3471 57.1656 14.7818 56.465 15.0589 56.012C15.061 56.0085 15.0627 56.0047 15.0648 56.0013C14.8557 55.2548 14.7403 54.4181 14.6732 53.6048C14.5593 52.2244 14.5612 50.5518 14.6956 48.7044L14.7005 48.6438L14.7083 48.5833C14.8063 47.8187 14.9509 47.1179 15.2757 46.4231C15.5914 45.748 16.018 45.2119 16.4124 44.7337C17.237 43.734 18.7505 43.5655 19.7923 44.3567C19.8835 44.426 19.9664 44.5017 20.0443 44.5804C20.8826 43.8965 21.7345 42.958 23.6439 40.5569C24.1705 39.8946 24.5862 39.3153 24.9915 38.7454C25.3784 38.2015 25.7801 37.6311 26.2357 37.0559C26.25 37.0239 26.2951 36.9194 26.3616 36.6995C26.4775 36.3162 26.5978 35.7963 26.7737 35.0149C27.1174 33.489 27.6058 31.2849 28.5394 28.2552C28.8401 27.2792 28.9046 25.8017 28.7581 23.8059C28.6143 21.846 28.296 19.6769 27.9866 17.3558C27.1588 11.145 28.6454 5.88866 30.5413 3.34696C32.4497 0.788591 35.4798 0.431455 36.595 0.237588ZM44.5599 4.94071C42.2554 4.74522 39.5977 4.40865 37.4525 4.78153C35.986 5.03644 35.0539 5.23095 34.4544 6.03446C33.4462 7.38608 32.0398 11.381 32.7581 16.7698C33.0542 18.9909 33.4016 21.3513 33.5579 23.4817C33.7116 25.5764 33.7122 27.752 33.1536 29.5647C32.2744 32.4184 31.8179 34.4793 31.4778 35.9895C31.3121 36.7255 31.1548 37.4164 30.9827 37.9856C30.8185 38.5286 30.5697 39.2174 30.096 39.8118C29.7201 40.2834 29.3861 40.7562 28.9652 41.3479C28.5516 41.9293 28.0771 42.5931 27.4691 43.3577C25.2969 46.0893 24.1612 47.3745 22.6312 48.511C22.0222 48.9634 21.503 49.4554 21.0589 49.9016C20.9215 50.0397 20.5542 50.4162 20.4398 50.5306C20.3008 50.6693 19.9958 50.9776 19.6536 51.2015C19.5725 51.2545 19.4877 51.2998 19.4027 51.3421C19.4 52.0504 19.4244 52.6876 19.47 53.2405C19.5156 53.7922 19.5806 54.2335 19.6527 54.5638C19.7232 54.8867 19.7824 55.0215 19.7874 55.0335L20.1107 55.6263L20.053 56.2933C20.0029 56.8759 19.7683 57.3556 19.6507 57.5843C19.5125 57.8531 19.3401 58.1345 19.2083 58.3499C18.9154 58.8286 18.6404 59.2763 18.4114 59.8001C18.001 60.7391 17.1354 61.8513 16.5726 62.6106C15.8813 63.5432 15.3695 64.2821 15.1224 64.8665C14.9616 65.2469 14.8165 65.7736 14.5257 66.6936C14.2663 67.5145 13.9221 68.5277 13.4261 69.5081C13.0972 70.1582 12.5133 71.0809 12.1995 71.6272C11.8009 72.3214 11.5582 72.8453 11.4652 73.2464C11.2444 74.1982 10.9312 75.4403 10.4095 76.5843C10.2416 76.9524 10.0354 77.3459 9.78156 77.7366C10.5694 77.8335 11.291 78.3008 11.6546 79.0413C11.7985 79.3346 12.2744 80.023 13.0257 80.8372C13.7555 81.6281 14.5701 82.3478 15.2669 82.7845C18.8313 85.0176 19.8253 88.6268 20.7903 90.7679C21.9498 93.3404 23.1196 96.1413 24.1126 98.5061C25.1322 100.934 25.9208 102.791 26.3665 103.635C27.3998 105.591 28.0879 107.448 28.8802 109.646C29.23 110.616 29.7655 111.356 30.4407 112.12C31.016 112.771 32.0868 113.824 32.7982 114.844C32.9697 115.09 33.3315 115.357 34.3694 115.56C34.8754 115.659 35.4278 115.722 36.0823 115.793C36.6944 115.86 37.4321 115.937 38.1273 116.069C40.5774 116.532 43.3697 117.16 45.6468 118.732C46.9598 119.638 48.2434 120.858 49.2835 122.075C50.3936 123.373 50.7065 124.948 50.9056 125.912C51.1482 127.087 51.2685 127.612 51.5335 128C51.8372 128.445 52.3526 128.818 53.2327 129.172C54.2635 129.587 55.0378 129.731 56.3685 130.167C58.6434 130.913 61.6885 131.625 66.0696 134.561C66.9613 135.158 67.8457 135.521 68.9769 136.032C70.026 136.505 71.3464 137.132 72.4466 138.244C74.1951 140.012 76.1272 142.653 77.5384 144.519C78.3449 144.236 78.9945 143.837 80.0618 143.246C81.1261 142.658 82.4389 141.992 84.2093 141.622C84.3414 141.595 84.4579 141.567 84.6107 141.532C84.7439 141.501 84.9359 141.457 85.1312 141.424C85.4276 141.374 86.1998 141.255 87.0257 141.597L87.1917 141.671L87.4485 141.804C88.7223 142.495 89.83 143.596 90.6351 144.353C91.6276 145.286 92.4397 145.999 93.3382 146.442C94.1091 146.822 94.9236 147.011 96.0257 147.237C97.0528 147.447 98.4284 147.704 99.7776 148.318C102.003 149.329 106.394 150.425 108.8 150.851C109.978 151.06 111.283 151.492 112.472 151.879C113.728 152.288 114.998 152.699 116.351 153.002C117.576 153.277 119.828 153.412 122.486 153.401C125.078 153.39 127.834 153.241 129.945 153.031L129.974 153.029C134.557 152.626 140.58 152.806 143.942 153.01L145.207 153.097L145.246 153.1L145.285 153.105C146.362 153.224 147.097 153.516 148.428 154.116C149.043 154.392 149.476 154.888 149.68 155.459C150.151 155.061 150.737 154.647 151.431 154.337L151.744 154.202C152.054 154.074 152.348 153.964 152.579 153.876C152.919 153.748 153.166 153.654 153.403 153.55C153.834 153.361 154.123 153.183 154.381 152.939C155.556 151.828 156.637 151.01 157.823 150.375C158.986 149.752 160.111 149.384 161.18 149.059C161.681 148.906 162.095 148.746 162.435 148.594C162.403 148.56 162.371 148.525 162.433 148.591L162.43 148.589C162.425 148.584 162.416 148.575 162.408 148.566H162.409L162.415 148.573L162.416 148.575L162.423 148.581L162.424 148.583H162.425C162.421 148.578 162.415 148.572 162.407 148.563L162.405 148.562L162.402 148.559L162.401 148.557C162.398 148.554 162.396 148.552 162.394 148.549H162.392V148.548L162.391 148.546L162.384 148.54L162.381 148.536L162.377 148.533L162.372 148.527L162.371 148.526L162.365 148.52C161.032 147.098 161.153 144.908 162.634 143.629C164.007 142.444 166.065 142.458 167.42 143.597C167.584 143.607 167.778 143.616 168.007 143.624C170.011 143.701 173.778 143.742 175.745 143.676C176.921 143.637 177.539 143.567 178.518 143.514C179.398 143.466 180.386 143.451 181.512 143.658C181.349 143.628 181.338 143.646 181.767 143.647C182.284 143.647 182.411 143.637 183.183 143.636C184.366 143.634 185.945 143.669 187.744 143.926C188.337 144.011 188.936 144.146 189.341 144.236C189.805 144.338 190.123 144.404 190.409 144.441C190.68 144.476 190.815 144.47 190.867 144.463C192.125 143.754 193.528 143.554 194.576 143.48C195.694 143.401 196.907 143.44 198.014 143.492C199.211 143.549 201.948 143.71 204.405 145.388C205.227 145.95 205.656 146.68 205.854 147.063C206.084 147.508 206.24 147.961 206.352 148.34C206.576 149.102 206.73 149.968 206.844 150.769C207.074 152.384 207.207 154.244 207.304 155.501C207.348 156.068 207.28 156.565 207.21 156.918C207.14 157.274 207.044 157.601 206.972 157.837C206.795 158.414 206.722 158.6 206.664 158.874C206.612 159.123 206.546 159.351 206.481 159.549C206.908 160.277 207.284 161.239 207.336 162.45C207.401 163.952 207.372 165.084 207.235 166.02C207.082 167.054 206.813 167.734 206.585 168.261C206.403 168.682 206.293 168.999 206.098 169.519C205.907 170.027 205.675 170.613 205.316 171.345C205.037 171.913 204.702 172.465 204.456 172.869C204.371 173.01 204.294 173.136 204.225 173.251C205.668 173.307 208.063 173.308 209.429 173.283C210.099 173.271 210.432 173.245 210.603 173.229C210.652 173.224 210.696 173.221 210.749 173.215C210.794 173.211 210.872 173.202 210.951 173.196C211.082 173.184 211.273 173.172 211.504 173.176L211.748 173.186L212.409 173.244C212.652 173.269 212.91 173.297 213.147 173.321C213.674 173.374 214.256 173.429 214.852 173.468C216.153 173.553 217.137 173.531 217.642 173.422C217.703 173.409 217.752 173.397 217.799 173.387C217.811 173.286 217.823 173.156 217.825 172.991C217.85 170.052 218.061 167.374 218.103 166.381C218.134 165.646 218.228 164.951 218.28 164.49C218.335 163.994 218.379 163.485 218.374 162.789C218.358 160.123 218.329 157.983 218.312 156.85C217.806 156.254 217.502 155.494 217.502 154.666C217.502 154.489 217.497 154.064 217.573 153.568L217.576 153.542C217.579 153.512 217.585 153.425 217.59 153.261C217.6 152.97 217.605 152.558 217.603 152.031C217.599 151.027 217.568 149.679 217.51 148.102C217.4 147.505 217.283 147.214 217.201 147.041C217.145 146.926 217.077 146.805 216.965 146.62C216.88 146.48 216.671 146.145 216.508 145.865C216.189 145.314 215.565 144.139 215.313 142.696C215.052 141.203 215.148 139.061 216.812 137.205C217.281 136.682 217.73 136.201 218.124 135.782C218.478 135.404 218.767 135.094 219.016 134.824C218.754 133.474 218.312 131.999 218.034 131.252C217.658 130.246 217.635 129.222 217.604 128.672C217.566 127.999 217.517 127.146 217.316 125.834C217.315 125.832 217.314 125.829 217.314 125.826C216.615 125.717 215.614 125.547 214.312 125.198C213.487 124.976 212.314 124.436 211.625 123.184C210.993 122.034 211.171 120.953 211.207 120.717C211.272 120.294 211.385 119.969 211.437 119.825C211.44 119.816 211.444 119.804 211.449 119.792C211.662 118.911 212.04 117.513 212.216 116.862C212.373 116.282 212.672 115.774 213.071 115.366L213.074 115.35L213.117 115.187C213.323 114.403 213.88 112.243 214.495 110.231C214.549 108.681 214.474 107.225 214.32 106.023C214.142 104.632 213.895 103.847 213.788 103.625C213.704 103.449 213.63 103.273 213.566 103.11C213.07 103.492 212.612 103.85 212.16 104.237L211.881 104.477L211.538 104.622C210.545 105.047 209 105.868 206.843 106.436C205.66 106.747 204.551 107.004 203.522 107.318C203.025 107.469 202.627 107.611 202.329 107.743C202.143 107.826 202.045 107.884 202.005 107.908C201.975 107.958 201.853 108.156 201.668 108.645C201.423 109.293 201.264 109.865 200.951 110.776C200.681 111.563 200.321 112.509 199.791 113.351C199.277 114.167 198.483 115.075 197.25 115.57C197.138 115.64 197.112 115.661 196.88 115.809C196.506 116.047 195.979 116.363 195.268 116.665C193.83 117.276 191.839 117.751 188.951 117.731C184.771 117.702 182.22 117.505 180.474 117.267C179.595 117.147 178.937 117.019 178.402 116.906C177.827 116.784 177.555 116.717 177.237 116.665C175.962 116.458 174.901 116.127 174.091 115.899C173.26 115.665 172.592 115.506 171.793 115.461C170.197 115.372 169.066 115.141 168.017 114.908C166.997 114.681 166.111 114.468 164.794 114.317C162.409 114.043 161.053 113.744 159.375 113.17C158.069 112.724 156.3 112.167 154.108 111.182C153.499 110.908 152.952 110.752 152.242 110.558C151.542 110.367 150.665 110.135 149.665 109.717C147.976 109.01 146.03 108.186 142.402 105.928C137.025 102.583 134.57 100.935 131.781 100.077C131.021 99.8439 130.321 99.7604 129.364 99.637C128.451 99.5193 127.301 99.3637 126.074 98.8938C126.16 98.9271 126.111 98.8992 125.785 98.847C125.507 98.8023 125.134 98.756 124.669 98.7093C123.741 98.616 122.559 98.5314 121.243 98.4456C118.662 98.2772 115.562 98.1065 113.29 97.8626C112.352 97.7617 111.41 97.5123 110.698 97.3313C109.909 97.131 109.318 96.9904 108.776 96.9407C107.703 96.8423 106.83 96.6181 106.14 96.4309C105.408 96.2324 104.996 96.1135 104.543 96.0569C102.581 95.8118 100.8 95.2073 99.3616 94.5843C97.4412 93.7525 95.6861 92.4369 93.6693 90.5813C91.0526 88.1739 89.3128 86.4896 88.1634 85.4163C86.9433 84.277 86.4198 83.8636 85.9964 83.6302C85.6327 83.4297 85.1986 83.2844 84.5452 83.1292C84.0012 83 82.9859 82.8011 82.1234 82.5618C81.5515 82.4032 81.1715 82.382 80.1243 82.1643C79.2625 81.9852 78.1701 81.6972 77.1146 81.0647C75.0232 79.8115 73.7902 78.5275 72.7337 77.4446C72.3113 77.0116 72.1133 76.5022 72.0325 76.2845C71.9213 75.9846 71.832 75.6545 71.7581 75.3245C71.609 74.6577 71.4845 73.817 71.3939 72.8518C71.2117 70.9122 71.1501 68.3215 71.3421 65.3186C71.412 64.2247 71.3773 63.4396 71.386 62.4593C71.3944 61.5201 71.4485 60.5022 71.7747 59.3587C72.3903 57.2008 73.3482 55.122 73.5228 54.6419C73.7397 54.045 74.1866 53.5886 74.7347 53.3304C74.7293 53.2264 74.7263 53.1356 74.7191 53.053C74.635 52.3712 74.4783 51.6973 74.3021 50.9827C74.1396 50.324 73.9205 49.4871 73.8353 48.7464C73.7286 47.8185 73.3265 45.8837 72.6185 44.5198C72.6138 44.5121 72.5491 44.4051 72.3177 44.1477C72.0822 43.8858 71.7653 43.567 71.3226 43.1292C70.4563 42.2725 69.2454 41.0939 67.7728 39.4573C66.4169 37.9505 65.363 37.0452 64.2874 36.0061C63.2211 34.9761 62.2182 33.8841 61.4153 32.263C61.1941 31.8163 60.9069 31.5765 60.1038 30.6868C59.3733 29.8775 58.5073 28.7785 58.0638 27.0931C57.4432 24.7341 57.1677 22.7432 56.9564 21.0442C56.7392 19.2987 56.6031 18.021 56.2855 16.8089C55.7309 14.693 55.2807 12.891 54.8724 11.4163C54.4481 9.88398 54.1411 8.98461 53.929 8.58231C53.6463 8.0461 53.3966 7.53353 53.181 7.08427C52.9805 6.66658 52.8209 6.32987 52.6751 6.03935C52.6395 6.04203 52.602 6.04501 52.5638 6.04813C52.1538 6.08169 51.4734 6.15448 50.7864 6.14481C48.8469 6.11748 47.4865 5.79854 46.4124 5.47001C45.2022 5.09981 44.9861 4.97689 44.5599 4.94071Z" fill="#151515"/>
</g>
<defs>
<filter id="filter0_d_369_188" x="0" y="0" width="230.393" height="188.446" filterUnits="userSpaceOnUse" color-interpolation-filters="sRGB">
<feFlood flood-opacity="0" result="BackgroundImageFix"/>
<feColorMatrix in="SourceAlpha" type="matrix" values="0 0 0 0 0 0 0 0 0 0 0 0 0 0 0 0 0 0 127 0" result="hardAlpha"/>
<feOffset dy="4"/>
<feGaussianBlur stdDeviation="2"/>
<feComposite in2="hardAlpha" operator="out"/>
<feColorMatrix type="matrix" values="0 0 0 0 0 0 0 0 0 0 0 0 0 0 0 0 0 0 0.25 0"/>
<feBlend mode="normal" in2="BackgroundImageFix" result="effect1_dropShadow_369_188"/>
<feBlend mode="normal" in="SourceGraphic" in2="effect1_dropShadow_369_188" result="shape"/>
</filter>
</defs>
</svg>
