<svg width="138" height="147" viewBox="0 0 138 147" fill="none" xmlns="http://www.w3.org/2000/svg">
<g filter="url(#filter0_d_369_171)">
<path d="M56.2283 0.5C58.319 0.500002 61.349 0.526778 63.9841 0.595703C65.299 0.630098 66.5359 0.675556 67.5154 0.734375C68.0029 0.763655 68.4513 0.798218 68.824 0.838867C69.0745 0.866199 69.4851 0.913929 69.864 1.02148L70.0232 1.07031L70.5398 1.25977C71.7407 1.72679 72.9058 2.3553 73.7468 2.74512C74.812 3.23884 75.8844 3.63873 77.283 3.81543C84.8054 4.76578 97.6045 3.70826 100.911 3.42285C102.54 3.28224 110.454 3.13819 121.395 3.19238H121.477L121.558 3.19824C126.639 3.55475 128.659 3.87541 129.933 4.30664L130.178 4.39355L130.404 4.47852L130.606 4.60449C130.807 4.72907 130.984 4.86713 131.14 5.00879C132.364 5.46734 133.283 6.55287 133.422 7.89355C133.618 9.7965 132.17 11.4917 130.187 11.6807C130.254 11.6743 130.197 11.6573 129.556 11.958C129.12 12.163 128.162 12.6483 127.032 12.9043C126.987 12.9372 126.922 12.988 126.835 13.0625C126.446 13.396 126.039 13.8327 125.341 14.5576C122.959 17.0285 120.854 17.9363 120.308 18.2764C119.709 18.65 119.073 19.0048 118.606 19.2734C118.096 19.5667 117.709 19.7996 117.381 20.0332C116.631 20.567 115.956 21.4174 115.624 22.0977C115.362 22.6339 115.184 23.1839 114.874 24.0674C114.603 24.8396 114.21 25.9285 113.546 26.9512C112.951 27.8662 112.176 28.651 111.554 29.2354C110.985 29.7706 110.188 30.4519 109.843 30.7637C109.656 30.9314 109.363 31.217 108.927 32.6875C108.926 32.7103 108.862 33.0921 108.819 34.1221C108.779 35.0895 108.764 36.3054 108.744 37.7598C108.716 39.7817 108.645 42.1087 108.535 44.0977C108.48 45.0898 108.413 46.0255 108.334 46.8086C108.264 47.4965 108.159 48.3449 107.964 48.9932C107.938 49.0799 107.909 49.5178 108.288 50.4111C108.451 50.7956 108.647 51.1635 108.838 51.499C108.94 51.6787 109.015 51.8054 109.114 51.9756C109.152 52.0416 109.258 52.2208 109.361 52.4258L109.46 52.6367L109.55 52.8496C110.433 55.0455 110.061 56.93 109.723 58.2773C109.369 59.6903 109.077 60.5311 109.062 61.8262C109.049 62.9293 109.36 64.6654 109.827 66.5576C110.053 67.4737 110.292 68.3344 110.507 69.0811L111.047 70.9238V70.9248C111.453 72.3403 112.146 74.5573 112.308 75.8828L112.318 75.9639L112.324 76.0439C112.375 76.7471 112.374 77.5584 112.374 78.2178C112.374 78.5478 112.324 78.8666 112.234 79.1689C112.377 79.7054 112.522 80.0854 112.62 80.2666C113.133 81.2203 113.324 82.3038 113.42 83.083C113.526 83.9517 113.562 84.8981 113.564 85.8057C113.568 87.6232 113.436 89.5765 113.337 90.9688C113.262 92.0122 113 92.9793 112.76 93.832C112.504 94.7375 112.214 95.7013 111.895 97.0527C111.757 97.6389 111.685 98.4925 111.558 99.8633C111.446 101.073 111.291 102.628 110.912 104.065C110.738 104.725 110.584 105.455 110.414 106.296C110.249 107.108 110.067 108.033 109.85 108.949C109.676 109.686 109.448 110.443 109.135 111.218C108.547 112.678 107.364 113.475 106.329 113.862C105.413 114.205 104.479 114.285 103.842 114.315C103.173 114.348 102.428 114.337 101.837 114.332C101.192 114.327 100.607 114.327 100.034 114.361C99.571 114.389 99.3131 114.489 99.0994 114.61C98.8312 114.763 98.4861 115.035 97.9441 115.607C97.3694 116.215 96.8873 117.141 96.4724 118.425C95.9897 119.918 95.0651 122.758 93.1384 127.414C92.4656 129.04 91.8473 130.785 91.2937 132.295C91.0278 133.02 90.7636 133.727 90.5261 134.289C90.409 134.566 90.2698 134.876 90.115 135.164C90.0478 135.289 89.6913 135.991 89.0046 136.539C86.56 138.492 83.5801 137.787 82.3328 137.453C81.6044 137.258 80.7803 136.979 80.323 136.836C80.0523 136.751 79.8479 136.692 79.6843 136.651C79.5527 136.619 79.4873 136.609 79.4734 136.607C77.3472 136.419 75.8563 135.036 75.1921 134.39C74.7804 133.989 74.3939 133.563 74.1013 133.243C73.7752 132.886 73.5597 132.655 73.3738 132.478C71.6637 130.849 70.6247 130.006 69.7869 129.485C68.0903 128.431 67.4565 126.824 67.1589 125.827C67.0033 125.306 66.8919 124.776 66.8054 124.357C66.7123 123.906 66.6424 123.555 66.5544 123.195C66.5319 123.114 66.5102 123.039 66.4919 122.973C66.2752 122.762 66.083 122.522 65.9246 122.255C65.865 122.186 65.7688 122.082 65.615 121.923C65.3254 121.623 64.7647 121.067 64.3015 120.539C63.5268 119.657 63.2222 119.337 62.6912 119.053C61.8654 118.611 60.1213 117.877 57.6257 117.005C56.2734 116.532 53.2641 115.887 50.3357 114.026C49.0764 113.226 48.1721 112.379 47.574 111.819C47.2493 111.516 47.0795 111.358 46.9343 111.24C46.9286 111.236 46.9228 111.232 46.9177 111.228C46.7959 111.193 46.5085 111.119 45.9832 111.026C45.3033 110.907 44.4763 110.798 43.5291 110.678C41.7803 110.456 39.447 110.189 37.7566 109.755C36.0733 109.322 34.4554 108.43 33.198 107.598C31.9032 106.741 30.7188 105.765 29.8835 104.933C28.6006 103.654 27.4933 102.842 26.033 101.935C23.802 100.548 22.2232 98.2628 21.7185 97.666C20.7507 96.5215 19.5543 94.8146 18.6638 93.3438C17.9932 92.236 16.9151 90.6424 16.4548 88.7695C16.4389 88.7535 16.4189 88.7323 16.3933 88.708C16.3308 88.6487 16.2548 88.5816 16.1443 88.4844C16.048 88.3996 15.896 88.2666 15.7556 88.1396C15.4641 87.8759 15.0598 87.4925 14.6775 86.9961C14.2953 86.4999 13.9611 86.1476 13.2214 85.2383C12.6186 84.4972 11.8812 83.5342 11.3132 82.4805C10.3731 80.7359 9.21779 78.8334 8.17261 77.0977C7.23601 75.5423 6.16801 73.7786 5.74683 72.6963C5.20954 71.3154 5.08468 69.8427 4.99976 68.959C4.89022 67.8192 4.82805 67.4541 4.75659 67.2812C4.09144 65.6752 4.76629 63.8763 6.26929 63.0234C6.30811 62.947 6.34095 62.8848 6.36499 62.8379C6.57092 62.3021 6.96516 61.15 7.76636 59.2324C8.06364 55.0899 8.61256 52.8289 9.448 50.166C9.79274 49.0672 10.0879 47.9538 10.3796 46.8447C10.6656 45.7574 10.9547 44.6472 11.2703 43.6465C11.5828 42.6553 11.9592 41.6454 12.4607 40.7783C12.9545 39.9248 13.6995 38.9819 14.866 38.4395L15.0955 38.3389C16.2533 37.8614 17.5353 37.7646 18.5671 37.6631C19.7882 37.543 21.2529 37.3944 23.2341 36.9336C25.6076 36.3816 27.0337 36.0184 28.1843 35.2441C29.5184 34.3462 31.1354 33.3254 32.9138 32.1426C35.8684 30.1775 38.825 27.995 40.2947 25.748C41.1593 24.4262 41.7553 23.3484 42.2937 22.3828C42.8147 21.4485 43.3425 20.5011 44.0095 19.6475C44.772 18.6716 45.8996 17.9556 46.3914 17.5967C47.0111 17.1442 47.2998 16.8532 47.4744 16.4932C48.352 14.6831 49.2907 13.5589 50.1072 12.7246C50.3008 12.5268 50.4862 12.3479 50.6414 12.1973C50.8036 12.0398 50.9261 11.921 51.0369 11.8076C51.2564 11.5828 51.333 11.4744 51.3689 11.4111C51.6894 10.8473 53.0877 8.09154 51.3943 5.58691C50.6712 4.51741 50.9888 3.08751 52.1033 2.39355C52.6703 2.04063 53.3342 1.94697 53.9451 2.08008C54.2629 1.16194 55.1648 0.5 56.2283 0.5ZM56.4792 5.11621C58.016 9.30147 55.8874 13.1034 55.5925 13.6221C55.2717 14.1864 54.8784 14.6251 54.5476 14.9639C54.3835 15.1319 54.2111 15.2989 54.0623 15.4434C53.9058 15.5952 53.7614 15.7361 53.615 15.8857C53.0714 16.4411 52.4544 17.1652 51.8357 18.4414C51.1507 19.8541 50.0805 20.7056 49.3054 21.2715C48.4022 21.9309 48.0987 22.1104 47.8591 22.417C47.4503 22.9403 47.0902 23.5674 46.5359 24.5615C45.9991 25.5243 45.332 26.7297 44.3689 28.2021C42.301 31.3637 38.5194 34.0308 35.6541 35.9365C33.6165 37.2917 32.3897 38.0524 30.947 39.0234C28.9154 40.3908 26.5388 40.916 24.3679 41.4209C22.0602 41.9576 20.3324 42.1306 19.0583 42.2559C17.7024 42.3892 17.2736 42.4581 16.988 42.584C16.9592 42.6086 16.8421 42.7164 16.6667 43.0195C16.4133 43.4577 16.1547 44.0987 15.8757 44.9834C15.5997 45.8586 15.3402 46.851 15.0447 47.9746C14.7548 49.0769 14.4347 50.2851 14.0544 51.4971C13.2907 53.9313 12.8061 55.8996 12.5408 59.9014L12.5164 60.2754L12.3689 60.623C11.6235 62.3837 11.3125 63.2686 11.0466 63.9902C11.212 64.2129 11.3537 64.4572 11.4636 64.7227C12.0031 66.0254 12.1099 67.5276 12.1863 68.3223C12.2873 69.3736 12.3653 69.9053 12.5085 70.2734C12.6607 70.6643 13.2995 71.7709 14.4207 73.6328C15.4332 75.3144 16.688 77.3775 17.7234 79.2988C17.9771 79.7697 18.3824 80.3278 18.9109 80.9775C19.1695 81.2955 19.426 81.5975 19.696 81.918C19.9502 82.2196 20.2349 82.5597 20.4822 82.8809C20.4895 82.8903 20.5353 82.9463 20.7058 83.1006C20.7714 83.1599 21.2276 83.5566 21.4675 83.7842C22.1217 84.405 22.9801 85.3726 23.3943 86.8516L23.4714 87.1543L23.533 87.376C23.6981 87.8929 24.0466 88.4479 24.9041 89.8643C25.6547 91.1042 26.6443 92.5002 27.323 93.3027C27.5797 93.6063 27.8532 93.9546 28.0662 94.2217C28.2992 94.5139 28.5115 94.7759 28.7312 95.0244C29.1739 95.5251 29.5676 95.8808 29.9558 96.1221C31.7579 97.2419 33.3266 98.3795 35.0828 100.13C35.5591 100.605 36.3686 101.284 37.2947 101.896C38.2582 102.534 39.0892 102.927 39.6238 103.064C40.7343 103.35 42.4496 103.555 44.4734 103.812C45.4122 103.93 46.4037 104.061 47.282 104.215C48.0798 104.355 49.1169 104.567 49.9832 104.946C51.2147 105.485 52.1898 106.466 52.6111 106.859C53.1919 107.402 53.6769 107.843 54.3201 108.252C56.3 109.51 57.5916 109.623 60.0964 110.498C62.6709 111.398 64.8593 112.283 66.2078 113.005C68.0451 113.989 69.119 115.276 69.821 116.076C70.0437 116.33 70.2668 116.558 70.5398 116.837C71.2683 117.151 71.8936 117.699 72.281 118.437C72.4772 118.81 72.5876 119.009 72.7166 119.25C72.8327 119.467 72.9767 119.74 73.1091 120.069C73.2134 120.329 73.3065 120.625 73.3816 120.883L73.5437 121.47L73.5603 121.526L73.575 121.583C73.704 122.107 73.8069 122.632 73.8855 123.013C73.9724 123.434 74.0336 123.707 74.0974 123.921V123.923C75.4543 124.82 76.822 126.004 78.4578 127.562C78.8537 127.939 79.2374 128.361 79.5261 128.677C79.8483 129.029 80.0936 129.296 80.3298 129.525C80.4422 129.635 80.5304 129.713 80.5955 129.768C81.3576 129.883 82.071 130.098 82.5632 130.252C83.265 130.472 83.7005 130.625 84.199 130.762C84.2858 130.531 84.3832 130.277 84.4861 129.996C85.0035 128.585 85.69 126.65 86.4314 124.858C88.2678 120.421 89.1305 117.76 89.5789 116.373C90.1281 114.674 91.0026 112.641 92.6023 110.951C94.1859 109.278 96.2216 107.651 99.5828 107.449C100.431 107.398 101.236 107.401 101.894 107.406C102.254 107.409 102.553 107.411 102.812 107.411C102.998 106.627 103.155 105.834 103.33 104.972C103.499 104.137 103.686 103.234 103.916 102.365C104.135 101.534 104.254 100.499 104.37 99.25C104.471 98.1626 104.581 96.6873 104.856 95.5225C105.218 93.9912 105.562 92.8415 105.793 92.0225C106.039 91.1511 106.116 90.7816 106.136 90.4951C106.237 89.0925 106.351 87.3644 106.347 85.8213C106.346 85.0488 106.314 84.3944 106.253 83.8936C106.199 83.4531 106.141 83.3103 106.159 83.3477C105.629 82.3295 105.271 81.1123 105.044 80.0645C104.803 78.9522 104.644 77.7339 104.644 76.6807C104.644 76.2623 104.721 75.8606 104.863 75.4893C104.672 74.7829 104.403 73.8595 104.088 72.7617H104.089C103.871 72.0052 103.297 70.1485 102.804 68.1553C102.327 66.2207 101.822 63.7688 101.845 61.749C101.872 59.4624 102.461 57.6369 102.706 56.6592C102.921 55.7998 102.901 55.5657 102.837 55.3926C102.829 55.3792 102.819 55.3629 102.808 55.3447C102.747 55.2396 102.622 55.028 102.503 54.8174C102.249 54.3715 101.912 53.749 101.604 53.0244C101.042 51.6998 100.316 49.4416 101.031 47.0693C101.017 47.1173 101.076 46.8733 101.151 46.1367C101.216 45.4941 101.276 44.6697 101.328 43.7295C101.432 41.8533 101.501 39.6207 101.528 37.668C101.547 36.2602 101.562 34.9291 101.607 33.8457C101.647 32.8895 101.718 31.6959 101.985 30.7949C102.586 28.7648 103.356 27.1083 104.901 25.7158C105.556 25.126 105.952 24.8061 106.506 24.2861C107.007 23.8152 107.289 23.4904 107.422 23.2861C107.595 23.02 107.765 22.627 108.035 21.8584C108.266 21.201 108.605 20.1498 109.089 19.1592C109.884 17.531 111.29 15.7462 113.081 14.4717C113.711 14.0233 114.353 13.6448 114.895 13.333C115.481 12.9964 115.922 12.7525 116.376 12.4697C117.748 11.6144 118.471 11.4838 120.042 9.85449C120.58 9.29564 121.306 8.51692 122.021 7.90234C122.035 7.89047 122.049 7.87826 122.063 7.86621C121.814 7.84748 121.554 7.82765 121.284 7.80859C110.302 7.75518 102.688 7.90432 101.342 8.02051C98.1906 8.2925 84.8135 9.42327 76.655 8.39258C74.5692 8.12904 72.9842 7.51887 71.6541 6.90234C70.2633 6.25771 69.5149 5.813 68.5007 5.4541C68.4612 5.44817 68.3903 5.43781 68.28 5.42578C68.0225 5.39769 67.665 5.36885 67.2146 5.3418C66.3178 5.28795 65.1452 5.24476 63.8523 5.21094C61.3742 5.14612 58.5244 5.11832 56.4792 5.11621Z" fill="black"/>
<path d="M56.2283 0.5V0V0.5ZM63.9841 0.595703L63.9972 0.0958741V0.0958741L63.9841 0.595703ZM67.5154 0.734375L67.5454 0.235275L67.5454 0.235274L67.5154 0.734375ZM68.824 0.838867L68.8782 0.341816L68.8782 0.341815L68.824 0.838867ZM69.864 1.02148L70.0107 0.543362L70.0005 0.540488L69.864 1.02148ZM70.0232 1.07031L70.1953 0.600884L70.1827 0.596246L70.1698 0.592296L70.0232 1.07031ZM70.5398 1.25977L70.7211 0.793676L70.7119 0.790337L70.5398 1.25977ZM73.7468 2.74512L73.5366 3.19875L73.5366 3.19876L73.7468 2.74512ZM77.283 3.81543L77.2203 4.31149L77.2203 4.31149L77.283 3.81543ZM100.911 3.42285L100.868 2.9247V2.9247L100.911 3.42285ZM121.395 3.19238L121.393 3.69238H121.395V3.19238ZM121.477 3.19238L121.513 2.69368L121.495 2.69238H121.477V3.19238ZM121.558 3.19824L121.522 3.69694L121.523 3.69702L121.558 3.19824ZM129.933 4.30664L130.1 3.83534L130.094 3.83301L129.933 4.30664ZM130.178 4.39355L130.355 3.92555L130.346 3.9223L130.178 4.39355ZM130.404 4.47852L130.669 4.05417L130.627 4.02803L130.58 4.0106L130.404 4.47852ZM130.606 4.60449L130.342 5.02884L130.342 5.02926L130.606 4.60449ZM131.14 5.00879L130.805 5.37941L130.876 5.44351L130.965 5.47701L131.14 5.00879ZM133.422 7.89355L133.919 7.84212V7.84208L133.422 7.89355ZM130.187 11.6807L130.14 11.1829L130.235 12.1784L130.187 11.6807ZM129.556 11.958L129.344 11.5055L129.344 11.5055L129.556 11.958ZM127.032 12.9043L126.922 12.4167L126.821 12.4395L126.737 12.5003L127.032 12.9043ZM126.835 13.0625L126.509 12.6832L126.509 12.6832L126.835 13.0625ZM125.341 14.5576L125.701 14.9046L125.701 14.9046L125.341 14.5576ZM120.308 18.2764L120.044 17.852L120.044 17.8521L120.308 18.2764ZM118.606 19.2734L118.357 18.84L118.357 18.84L118.606 19.2734ZM117.381 20.0332L117.091 19.6258L117.091 19.6259L117.381 20.0332ZM115.624 22.0977L115.174 21.8782L115.174 21.8783L115.624 22.0977ZM114.874 24.0674L115.346 24.2329L114.874 24.0674ZM113.546 26.9512L113.965 27.2236L113.965 27.2236L113.546 26.9512ZM111.554 29.2354L111.897 29.5998L111.897 29.5998L111.554 29.2354ZM109.843 30.7637L109.508 30.3922L109.508 30.3923L109.843 30.7637ZM108.927 32.6875L108.448 32.5456L108.433 32.5954L108.429 32.6471L108.927 32.6875ZM108.819 34.1221L108.32 34.1013V34.1013L108.819 34.1221ZM108.744 37.7598L109.244 37.7667L108.744 37.7598ZM108.535 44.0977L109.034 44.1254L108.535 44.0977ZM108.334 46.8086L108.831 46.8591V46.8591L108.334 46.8086ZM107.964 48.9932L107.485 48.8489L107.485 48.849L107.964 48.9932ZM108.288 50.4111L107.828 50.6065L107.828 50.6066L108.288 50.4111ZM108.838 51.499L108.403 51.7463V51.7463L108.838 51.499ZM109.114 51.9756L109.546 51.7246V51.7246L109.114 51.9756ZM109.361 52.4258L109.814 52.2139L109.808 52.2019L109.361 52.4258ZM109.46 52.6367L109.92 52.4423L109.917 52.4335L109.913 52.4249L109.46 52.6367ZM109.55 52.8496L110.013 52.6629L110.01 52.6552L109.55 52.8496ZM109.723 58.2773L110.208 58.3989V58.3988L109.723 58.2773ZM109.062 61.8262L108.562 61.8203V61.8203L109.062 61.8262ZM109.827 66.5576L109.341 66.6775H109.341L109.827 66.5576ZM110.507 69.0811L110.026 69.2194L110.027 69.2217L110.507 69.0811ZM111.047 70.9238H111.547V70.8521L111.526 70.7832L111.047 70.9238ZM111.047 70.9248H110.547V70.9951L110.566 71.0627L111.047 70.9248ZM112.308 75.8828L112.805 75.823L112.805 75.8222L112.308 75.8828ZM112.318 75.9639L112.817 75.9274L112.816 75.9157L112.815 75.9041L112.318 75.9639ZM112.324 76.0439L112.823 76.0075L112.823 76.0075L112.324 76.0439ZM112.374 78.2178L112.874 78.2178V78.2178H112.374ZM112.234 79.1689L111.755 79.0265L111.715 79.1613L111.751 79.2972L112.234 79.1689ZM112.62 80.2666L113.06 80.0297L113.06 80.0297L112.62 80.2666ZM113.42 83.083L113.916 83.022V83.022L113.42 83.083ZM113.564 85.8057L114.064 85.8045V85.8045L113.564 85.8057ZM113.337 90.9688L113.835 91.0044L113.835 91.0044L113.337 90.9688ZM112.76 93.832L113.241 93.9678V93.9678L112.76 93.832ZM111.895 97.0527L111.409 96.9379L111.409 96.9379L111.895 97.0527ZM111.558 99.8633L112.056 99.9094L111.558 99.8633ZM110.912 104.065L110.428 103.938V103.938L110.912 104.065ZM110.414 106.296L109.924 106.196L110.414 106.296ZM109.85 108.949L110.337 109.064V109.064L109.85 108.949ZM109.135 111.218L109.599 111.405L109.599 111.405L109.135 111.218ZM106.329 113.862L106.504 114.331L106.504 114.331L106.329 113.862ZM103.842 114.315L103.866 114.815H103.866L103.842 114.315ZM101.837 114.332L101.84 113.832H101.84L101.837 114.332ZM100.034 114.361L100.004 113.862H100.004L100.034 114.361ZM99.0994 114.61L98.8526 114.175L98.8526 114.175L99.0994 114.61ZM97.9441 115.607L97.5809 115.264L97.5809 115.264L97.9441 115.607ZM96.4724 118.425L95.9966 118.271L96.4724 118.425ZM93.1384 127.414L92.6764 127.223H92.6764L93.1384 127.414ZM91.2937 132.295L91.7631 132.467L91.2937 132.295ZM90.5261 134.289L90.9867 134.484L90.5261 134.289ZM90.115 135.164L89.6747 134.927L89.6746 134.927L90.115 135.164ZM89.0046 136.539L89.3167 136.93L89.3167 136.93L89.0046 136.539ZM82.3328 137.453L82.2035 137.936H82.2035L82.3328 137.453ZM80.323 136.836L80.4725 136.359L80.4725 136.359L80.323 136.836ZM79.6843 136.651L79.8038 136.166H79.8038L79.6843 136.651ZM79.4734 136.607L79.5461 136.113L79.5319 136.111L79.5176 136.109L79.4734 136.607ZM75.1921 134.39L74.8435 134.748H74.8435L75.1921 134.39ZM74.1013 133.243L74.4704 132.906L74.1013 133.243ZM73.3738 132.478L73.7186 132.115H73.7186L73.3738 132.478ZM69.7869 129.485L69.523 129.91H69.523L69.7869 129.485ZM67.1589 125.827L66.6798 125.97L66.6798 125.97L67.1589 125.827ZM66.8054 124.357L66.3157 124.458V124.458L66.8054 124.357ZM66.5544 123.195L67.0402 123.077L67.0382 123.069L67.036 123.061L66.5544 123.195ZM66.4919 122.973L66.974 122.84L66.9379 122.709L66.8404 122.614L66.4919 122.973ZM65.9246 122.255L66.3547 122L66.3317 121.961L66.3022 121.927L65.9246 122.255ZM65.615 121.923L65.9744 121.575L65.9744 121.575L65.615 121.923ZM64.3015 120.539L63.9258 120.869L63.9258 120.869L64.3015 120.539ZM62.6912 119.053L62.9272 118.612L62.9271 118.612L62.6912 119.053ZM57.6257 117.005L57.7907 116.533L57.7906 116.533L57.6257 117.005ZM50.3357 114.026L50.0676 114.448L50.0676 114.448L50.3357 114.026ZM47.574 111.819L47.9155 111.454L47.574 111.819ZM46.9343 111.24L47.2498 110.852L47.2498 110.852L46.9343 111.24ZM46.9177 111.228L47.23 110.837L47.1506 110.774L47.0528 110.746L46.9177 111.228ZM45.9832 111.026L46.0696 110.534L46.0696 110.534L45.9832 111.026ZM43.5291 110.678L43.5919 110.182H43.5918L43.5291 110.678ZM37.7566 109.755L37.6321 110.239H37.6321L37.7566 109.755ZM33.198 107.598L32.9221 108.015L32.9221 108.015L33.198 107.598ZM29.8835 104.933L30.2365 104.578L30.2365 104.578L29.8835 104.933ZM26.033 101.935L25.7691 102.359H25.7691L26.033 101.935ZM21.7185 97.666L21.3367 97.9889L21.3367 97.9889L21.7185 97.666ZM18.6638 93.3438L19.0915 93.0848L19.0915 93.0848L18.6638 93.3438ZM16.4548 88.7695L16.9404 88.6502L16.9073 88.5156L16.8097 88.4173L16.4548 88.7695ZM16.3933 88.708L16.7375 88.3453L16.7375 88.3453L16.3933 88.708ZM16.1443 88.4844L16.4746 88.109H16.4746L16.1443 88.4844ZM15.7556 88.1396L15.4202 88.5104L15.4202 88.5104L15.7556 88.1396ZM14.6775 86.9961L14.2813 87.3012H14.2814L14.6775 86.9961ZM13.2214 85.2383L12.8335 85.5538L12.8335 85.5538L13.2214 85.2383ZM11.3132 82.4805L10.8731 82.7177L10.8731 82.7177L11.3132 82.4805ZM8.17261 77.0977L7.74427 77.3556H7.74427L8.17261 77.0977ZM5.74683 72.6963L5.28086 72.8776L5.28086 72.8776L5.74683 72.6963ZM4.99976 68.959L5.49746 68.9112H5.49746L4.99976 68.959ZM4.75659 67.2812L5.21866 67.0902L5.21854 67.0899L4.75659 67.2812ZM6.26929 63.0234L6.51604 63.4583L6.64696 63.384L6.71511 63.2498L6.26929 63.0234ZM6.36499 62.8379L6.81 63.0659L6.82215 63.0421L6.8317 63.0173L6.36499 62.8379ZM7.76636 59.2324L8.22771 59.4252L8.25922 59.3498L8.26507 59.2682L7.76636 59.2324ZM9.448 50.166L8.97093 50.0163L8.97093 50.0163L9.448 50.166ZM10.3796 46.8447L10.8632 46.9719L10.8632 46.9719L10.3796 46.8447ZM11.2703 43.6465L10.7934 43.4961L10.7934 43.4961L11.2703 43.6465ZM12.4607 40.7783L12.0279 40.5279L12.0279 40.528L12.4607 40.7783ZM14.866 38.4395L14.6652 37.9814L14.6551 37.9861L14.866 38.4395ZM15.0955 38.3389L14.9048 37.8765L14.8947 37.8809L15.0955 38.3389ZM18.5671 37.6631L18.6161 38.1607H18.6161L18.5671 37.6631ZM23.2341 36.9336L23.3474 37.4206H23.3474L23.2341 36.9336ZM28.1843 35.2441L28.4635 35.659L28.4635 35.6589L28.1843 35.2441ZM32.9138 32.1426L33.1907 32.5589H33.1907L32.9138 32.1426ZM40.2947 25.748L40.7131 26.0217L40.7131 26.0217L40.2947 25.748ZM42.2937 22.3828L41.857 22.1393L42.2937 22.3828ZM44.0095 19.6475L43.6155 19.3396L43.6155 19.3396L44.0095 19.6475ZM46.3914 17.5967L46.6862 18.0005L46.6862 18.0005L46.3914 17.5967ZM47.4744 16.4932L47.0245 16.275L47.0245 16.275L47.4744 16.4932ZM50.1072 12.7246L49.7498 12.3749L49.7498 12.3749L50.1072 12.7246ZM50.6414 12.1973L50.2931 11.8385L50.2931 11.8385L50.6414 12.1973ZM51.0369 11.8076L51.3946 12.157L51.3946 12.1569L51.0369 11.8076ZM51.3689 11.4111L50.9342 11.164V11.164L51.3689 11.4111ZM51.3943 5.58691L50.9801 5.86696L50.9801 5.86697L51.3943 5.58691ZM52.1033 2.39355L51.8391 1.96906L51.839 1.96911L52.1033 2.39355ZM53.9451 2.08008L53.8386 2.56861L54.2724 2.66313L54.4176 2.24362L53.9451 2.08008ZM56.4792 5.11621L56.4798 4.61621L55.7627 4.61547L56.0099 5.28855L56.4792 5.11621ZM55.5925 13.6221L56.0272 13.8692V13.8692L55.5925 13.6221ZM54.5476 14.9639L54.9053 15.3132L54.9053 15.3132L54.5476 14.9639ZM54.0623 15.4434L53.714 15.0846V15.0846L54.0623 15.4434ZM53.615 15.8857L53.2577 15.536L53.2577 15.536L53.615 15.8857ZM51.8357 18.4414L52.2856 18.6596L52.2856 18.6595L51.8357 18.4414ZM49.3054 21.2715L49.6002 21.6753L49.6003 21.6753L49.3054 21.2715ZM47.8591 22.417L47.4651 22.1091L47.4651 22.1092L47.8591 22.417ZM46.5359 24.5615L46.0992 24.318L46.5359 24.5615ZM44.3689 28.2021L44.7873 28.4758L44.7873 28.4758L44.3689 28.2021ZM35.6541 35.9365L35.931 36.3528L35.6541 35.9365ZM30.947 39.0234L31.2262 39.4382L31.2262 39.4382L30.947 39.0234ZM24.3679 41.4209L24.2547 40.9339H24.2547L24.3679 41.4209ZM19.0583 42.2559L19.1073 42.7535H19.1073L19.0583 42.2559ZM16.988 42.584L16.7863 42.1265L16.7191 42.1561L16.6633 42.2038L16.988 42.584ZM16.6667 43.0195L16.2339 42.7692L16.2339 42.7692L16.6667 43.0195ZM15.8757 44.9834L15.3989 44.833L15.3989 44.833L15.8757 44.9834ZM15.0447 47.9746L15.5282 48.1018L15.0447 47.9746ZM14.0544 51.4971L13.5774 51.3474L13.5774 51.3474L14.0544 51.4971ZM12.5408 59.9014L12.0419 59.8683L12.0418 59.8688L12.5408 59.9014ZM12.5164 60.2754L12.9767 60.4706L13.0098 60.3926L13.0153 60.308L12.5164 60.2754ZM12.3689 60.623L11.9086 60.4278L11.9085 60.4281L12.3689 60.623ZM11.0466 63.9902L10.5775 63.8174L10.4839 64.0712L10.6452 64.2884L11.0466 63.9902ZM11.4636 64.7227L11.9256 64.5313L11.9256 64.5313L11.4636 64.7227ZM12.1863 68.3223L11.6886 68.3701L11.6886 68.3701L12.1863 68.3223ZM12.5085 70.2734L12.0426 70.4547L12.0426 70.4548L12.5085 70.2734ZM14.4207 73.6328L13.9923 73.8907L14.4207 73.6328ZM17.7234 79.2988L17.2832 79.536L17.2832 79.536L17.7234 79.2988ZM18.9109 80.9775L18.523 81.293L18.523 81.293L18.9109 80.9775ZM19.696 81.918L19.3137 82.2401H19.3137L19.696 81.918ZM20.4822 82.8809L20.086 83.1859L20.0872 83.1874L20.4822 82.8809ZM20.7058 83.1006L20.3703 83.4713L20.3704 83.4714L20.7058 83.1006ZM21.4675 83.7842L21.8117 83.4215L21.8117 83.4215L21.4675 83.7842ZM23.3943 86.8516L23.8789 86.7281L23.8758 86.7167L23.3943 86.8516ZM23.4714 87.1543L22.9868 87.2778L22.9896 87.288L23.4714 87.1543ZM23.533 87.376L23.0512 87.5097L23.0537 87.519L23.0567 87.5281L23.533 87.376ZM24.9041 89.8643L25.3318 89.6053L24.9041 89.8643ZM27.323 93.3027L27.7048 92.9799H27.7048L27.323 93.3027ZM28.0662 94.2217L27.6753 94.5335H27.6753L28.0662 94.2217ZM28.7312 95.0244L28.3566 95.3556L28.3566 95.3556L28.7312 95.0244ZM29.9558 96.1221L29.6919 96.5468L29.9558 96.1221ZM35.0828 100.13L34.7298 100.484L34.7298 100.484L35.0828 100.13ZM37.2947 101.896L37.0188 102.313L37.0188 102.313L37.2947 101.896ZM39.6238 103.064L39.4992 103.549L39.4993 103.549L39.6238 103.064ZM44.4734 103.812L44.5362 103.315H44.5362L44.4734 103.812ZM47.282 104.215L47.3684 103.722H47.3684L47.282 104.215ZM49.9832 104.946L50.1836 104.488L50.1836 104.488L49.9832 104.946ZM52.6111 106.859L52.2696 107.225H52.2696L52.6111 106.859ZM54.3201 108.252L54.0519 108.674L54.052 108.674L54.3201 108.252ZM60.0964 110.498L60.2614 110.026H60.2614L60.0964 110.498ZM66.2078 113.005L66.4438 112.564L66.4437 112.564L66.2078 113.005ZM69.821 116.076L69.4453 116.406V116.406L69.821 116.076ZM70.5398 116.837L70.1828 117.187L70.2515 117.257L70.3417 117.296L70.5398 116.837ZM72.281 118.437L72.7237 118.204L72.7237 118.204L72.281 118.437ZM72.7166 119.25L73.1574 119.014V119.014L72.7166 119.25ZM73.1091 120.069L73.5731 119.883L73.5731 119.883L73.1091 120.069ZM73.3816 120.883L73.8636 120.75L73.8616 120.743L73.3816 120.883ZM73.5437 121.47L73.0617 121.603L73.0639 121.61L73.5437 121.47ZM73.5603 121.526L74.0444 121.401L74.0424 121.393L74.0401 121.386L73.5603 121.526ZM73.575 121.583L74.0605 121.464L74.059 121.458L73.575 121.583ZM73.8855 123.013L73.3958 123.114L73.8855 123.013ZM74.0974 123.921H74.5974V123.848L74.5765 123.778L74.0974 123.921ZM74.0974 123.923H73.5974V124.192L73.8216 124.34L74.0974 123.923ZM78.4578 127.562L78.8026 127.199H78.8026L78.4578 127.562ZM79.5261 128.677L79.1571 129.014L79.5261 128.677ZM80.3298 129.525L79.9812 129.884L79.9812 129.884L80.3298 129.525ZM80.5955 129.768L80.2747 130.151L80.3821 130.241L80.5207 130.262L80.5955 129.768ZM82.5632 130.252L82.4137 130.729L82.5632 130.252ZM84.199 130.762L84.0667 131.244L84.5062 131.364L84.6669 130.938L84.199 130.762ZM84.4861 129.996L84.9555 130.168L84.4861 129.996ZM86.4314 124.858L85.9694 124.667H85.9694L86.4314 124.858ZM89.5789 116.373L89.1031 116.219L89.5789 116.373ZM92.6023 110.951L92.2392 110.607L92.2391 110.607L92.6023 110.951ZM99.5828 107.449L99.5528 106.95H99.5528L99.5828 107.449ZM101.894 107.406L101.89 107.906L101.894 107.406ZM102.812 107.411L102.813 107.911L103.208 107.911L103.299 107.526L102.812 107.411ZM103.33 104.972L102.84 104.872L103.33 104.972ZM103.916 102.365L104.399 102.493V102.493L103.916 102.365ZM104.37 99.25L104.868 99.2961L104.37 99.25ZM104.856 95.5225L105.343 95.6373L104.856 95.5225ZM105.793 92.0225L106.274 92.1582L105.793 92.0225ZM106.136 90.4951L106.635 90.5307L106.635 90.5307L106.136 90.4951ZM106.347 85.8213L106.847 85.8201V85.8201L106.347 85.8213ZM106.253 83.8936L106.749 83.8326V83.8326L106.253 83.8936ZM106.159 83.3477L105.715 83.5785L106.608 83.1282L106.159 83.3477ZM105.044 80.0645L104.555 80.1702L104.555 80.1702L105.044 80.0645ZM104.644 76.6807H104.144V76.6807L104.644 76.6807ZM104.863 75.4893L105.33 75.6675L105.388 75.5157L105.346 75.3589L104.863 75.4893ZM104.088 72.7617V72.2617H103.424L103.607 72.8996L104.088 72.7617ZM104.089 72.7617V73.2617H104.752L104.569 72.6237L104.089 72.7617ZM102.804 68.1553L102.319 68.2752V68.2752L102.804 68.1553ZM101.845 61.749L101.345 61.7432V61.7432L101.845 61.749ZM102.706 56.6592L103.191 56.7807V56.7807L102.706 56.6592ZM102.837 55.3926L103.305 55.2187L103.291 55.18L103.271 55.1442L102.837 55.3926ZM102.808 55.3447L103.241 55.0938L103.241 55.0938L102.808 55.3447ZM102.503 54.8174L102.068 55.0646L102.503 54.8174ZM101.604 53.0244L101.144 53.2198V53.2198L101.604 53.0244ZM101.031 47.0693L101.51 47.2136L100.552 46.9247L101.031 47.0693ZM101.151 46.1367L101.649 46.1873V46.1873L101.151 46.1367ZM101.328 43.7295L101.827 43.7572V43.7572L101.328 43.7295ZM101.528 37.668L102.028 37.6749L101.528 37.668ZM101.607 33.8457L101.108 33.8249V33.8249L101.607 33.8457ZM101.985 30.7949L101.506 30.653L101.506 30.653L101.985 30.7949ZM104.901 25.7158L104.566 25.3444L104.566 25.3444L104.901 25.7158ZM106.506 24.2861L106.848 24.6506L106.848 24.6506L106.506 24.2861ZM107.422 23.2861L107.841 23.5586L107.841 23.5586L107.422 23.2861ZM108.035 21.8584L108.507 22.0239V22.0239L108.035 21.8584ZM109.089 19.1592L108.639 18.9398L108.639 18.9398L109.089 19.1592ZM113.081 14.4717L112.791 14.0643L112.791 14.0643L113.081 14.4717ZM114.895 13.333L114.646 12.8996V12.8996L114.895 13.333ZM116.376 12.4697L116.64 12.894L116.64 12.894L116.376 12.4697ZM120.042 9.85449L120.402 10.2015L120.402 10.2015L120.042 9.85449ZM122.021 7.90234L121.695 7.52303L121.695 7.52304L122.021 7.90234ZM122.063 7.86621L122.387 8.2469L123.313 7.45858L122.101 7.36761L122.063 7.86621ZM121.284 7.80859L121.319 7.30983L121.303 7.30868L121.286 7.3086L121.284 7.80859ZM101.342 8.02051L101.299 7.52236V7.52236L101.342 8.02051ZM76.655 8.39258L76.5924 8.88863L76.5924 8.88864L76.655 8.39258ZM71.6541 6.90234L71.4438 7.35598L71.4438 7.35599L71.6541 6.90234ZM68.5007 5.4541L68.6675 4.98275L68.6224 4.96676L68.575 4.95965L68.5007 5.4541ZM68.28 5.42578L68.3342 4.92873L68.3342 4.92873L68.28 5.42578ZM67.2146 5.3418L67.2446 4.8427L67.2446 4.8427L67.2146 5.3418ZM63.8523 5.21094L63.8654 4.71111V4.71111L63.8523 5.21094ZM56.2283 0.5V1C58.3159 1 61.3414 1.02675 63.9711 1.09553L63.9841 0.595703L63.9972 0.0958741C61.3567 0.0268071 58.3221 2.20537e-06 56.2283 0V0.5ZM63.9841 0.595703L63.9711 1.09553C65.2837 1.12987 66.5142 1.17515 67.4854 1.23348L67.5154 0.734375L67.5454 0.235274C66.5577 0.175962 65.3143 0.130328 63.9972 0.0958741L63.9841 0.595703ZM67.5154 0.734375L67.4854 1.23348C67.9687 1.26251 68.4083 1.29649 68.7698 1.33592L68.824 0.838867L68.8782 0.341815C68.4943 0.299943 68.037 0.264804 67.5454 0.235275L67.5154 0.734375ZM68.824 0.838867L68.7698 1.33592C69.0207 1.36329 69.3934 1.40765 69.7275 1.50248L69.864 1.02148L70.0005 0.540488C69.5768 0.420206 69.1283 0.369102 68.8782 0.341816L68.824 0.838867ZM69.864 1.02148L69.7174 1.4995L69.8766 1.54833L70.0232 1.07031L70.1698 0.592296L70.0106 0.543468L69.864 1.02148ZM70.0232 1.07031L69.851 1.53974L70.3676 1.72919L70.5398 1.25977L70.7119 0.790337L70.1953 0.600884L70.0232 1.07031ZM70.5398 1.25977L70.3586 1.72577C71.5425 2.18617 72.6542 2.78976 73.5366 3.19875L73.7468 2.74512L73.9571 2.29148C73.1575 1.92084 71.9389 1.2674 70.721 0.793763L70.5398 1.25977ZM73.7468 2.74512L73.5366 3.19876C74.6291 3.70516 75.7531 4.12611 77.2203 4.31149L77.283 3.81543L77.3456 3.31937C76.0158 3.15135 74.995 2.77253 73.9571 2.29148L73.7468 2.74512ZM77.283 3.81543L77.2203 4.31149C84.8062 5.26987 97.6632 4.20505 100.954 3.921L100.911 3.42285L100.868 2.9247C97.5458 3.21147 84.8045 4.2617 77.3456 3.31937L77.283 3.81543ZM100.911 3.42285L100.954 3.921C102.555 3.78279 110.443 3.63814 121.393 3.69238L121.395 3.19238L121.398 2.69239C110.465 2.63824 102.525 2.78169 100.868 2.9247L100.911 3.42285ZM121.395 3.19238V3.69238H121.477V3.19238V2.69238H121.395V3.19238ZM121.477 3.19238L121.441 3.69108L121.522 3.69694L121.558 3.19824L121.594 2.69954L121.513 2.69368L121.477 3.19238ZM121.558 3.19824L121.523 3.69702C126.613 4.05411 128.569 4.37282 129.773 4.78028L129.933 4.30664L130.094 3.83301C128.748 3.378 126.666 3.05539 121.593 2.69947L121.558 3.19824ZM129.933 4.30664L129.766 4.77789L130.011 4.86481L130.178 4.39355L130.346 3.9223L130.1 3.83539L129.933 4.30664ZM130.178 4.39355L130.002 4.86147L130.228 4.94643L130.404 4.47852L130.58 4.0106L130.355 3.92564L130.178 4.39355ZM130.404 4.47852L130.14 4.90286L130.342 5.02884L130.606 4.60449L130.871 4.18015L130.669 4.05417L130.404 4.47852ZM130.606 4.60449L130.342 5.02926C130.514 5.13605 130.668 5.2553 130.805 5.37941L131.14 5.00879L131.476 4.63817C131.3 4.47896 131.099 4.32209 130.87 4.17972L130.606 4.60449ZM131.14 5.00879L130.965 5.47701C132.027 5.87475 132.807 6.8089 132.924 7.94503L133.422 7.89355L133.919 7.84208C133.759 6.29685 132.702 5.05993 131.316 4.54057L131.14 5.00879ZM133.422 7.89355L132.924 7.94499C133.091 9.55259 131.866 11.0184 130.14 11.1829L130.187 11.6807L130.235 12.1784C132.475 11.9649 134.146 10.0404 133.919 7.84212L133.422 7.89355ZM130.187 11.6807L130.235 12.1784C130.256 12.1764 130.275 12.1736 130.273 12.1738C130.273 12.1739 130.271 12.1741 130.269 12.1743C130.268 12.1745 130.263 12.1751 130.258 12.1756C130.254 12.1761 130.241 12.1773 130.225 12.1778C130.216 12.1781 130.201 12.1784 130.182 12.1774C130.168 12.1767 130.126 12.1742 130.073 12.1593C130.046 12.1518 129.997 12.1356 129.942 12.1011C129.887 12.0664 129.8 11.9957 129.748 11.8711C129.628 11.586 129.81 11.3745 129.836 11.345C129.883 11.292 129.931 11.2622 129.943 11.2546C129.963 11.2425 129.979 11.2343 129.987 11.2302C130.004 11.2219 130.017 11.2165 130.021 11.2147C130.027 11.2124 130.032 11.2106 130.034 11.2098C130.07 11.1966 129.987 11.2264 129.96 11.2365C129.859 11.2749 129.672 11.3514 129.344 11.5055L129.556 11.958L129.769 12.4106C130.081 12.2639 130.243 12.1985 130.314 12.1718C130.373 12.1494 130.332 12.1658 130.38 12.1482C130.383 12.1471 130.388 12.1451 130.394 12.1426C130.399 12.1406 130.413 12.135 130.43 12.1265C130.439 12.1224 130.455 12.1141 130.474 12.102C130.486 12.0943 130.534 12.0645 130.582 12.0114C130.608 11.9819 130.789 11.7703 130.67 11.4852C130.618 11.3606 130.53 11.2898 130.475 11.2552C130.421 11.2206 130.371 11.2044 130.345 11.1969C130.292 11.182 130.249 11.1795 130.235 11.1788C130.216 11.1778 130.201 11.1781 130.192 11.1784C130.176 11.1789 130.162 11.1802 130.158 11.1806C130.147 11.1817 130.139 11.1829 130.138 11.183C130.129 11.1842 130.135 11.1833 130.14 11.1829L130.187 11.6807ZM129.556 11.958L129.344 11.5055C128.895 11.7164 127.988 12.175 126.922 12.4167L127.032 12.9043L127.142 13.3919C128.336 13.1216 129.346 12.6095 129.769 12.4106L129.556 11.958ZM127.032 12.9043L126.737 12.5003C126.68 12.5419 126.605 12.601 126.509 12.6832L126.835 13.0625L127.16 13.4418C127.238 13.3749 127.293 13.3325 127.327 13.3083L127.032 12.9043ZM126.835 13.0625L126.509 12.6832C126.097 13.0366 125.667 13.4989 124.981 14.2106L125.341 14.5576L125.701 14.9046C126.412 14.1666 126.795 13.7553 127.16 13.4418L126.835 13.0625ZM125.341 14.5576L124.981 14.2106C122.656 16.6227 120.64 17.4804 120.044 17.852L120.308 18.2764L120.573 18.7007C121.068 18.3922 123.262 17.4343 125.701 14.9046L125.341 14.5576ZM120.308 18.2764L120.044 17.8521C119.455 18.2195 118.832 18.567 118.357 18.84L118.606 19.2734L118.855 19.7069C119.315 19.4426 119.964 19.0806 120.573 18.7007L120.308 18.2764ZM118.606 19.2734L118.357 18.84C117.846 19.134 117.44 19.3771 117.091 19.6258L117.381 20.0332L117.671 20.4406C117.978 20.2221 118.347 19.9995 118.855 19.7069L118.606 19.2734ZM117.381 20.0332L117.091 19.6259C116.268 20.2112 115.541 21.1281 115.174 21.8782L115.624 22.0977L116.073 22.3171C116.371 21.7068 116.993 20.9229 117.671 20.4405L117.381 20.0332ZM115.624 22.0977L115.174 21.8783C114.896 22.4483 114.705 23.0369 114.402 23.9019L114.874 24.0674L115.346 24.2329C115.662 23.331 115.828 22.8195 116.073 22.317L115.624 22.0977ZM114.874 24.0674L114.402 23.9019C114.131 24.673 113.755 25.7111 113.126 26.6787L113.546 26.9512L113.965 27.2236C114.665 26.1459 115.074 25.0061 115.346 24.2329L114.874 24.0674ZM113.546 26.9512L113.126 26.6787C112.565 27.5424 111.826 28.2945 111.212 28.8709L111.554 29.2354L111.897 29.5998C112.527 29.0076 113.337 28.1899 113.965 27.2236L113.546 26.9512ZM111.554 29.2354L111.212 28.8709C110.644 29.4042 109.873 30.0631 109.508 30.3922L109.843 30.7637L110.177 31.1351C110.504 30.8407 111.325 30.137 111.897 29.5998L111.554 29.2354ZM109.843 30.7637L109.508 30.3923C109.384 30.5037 109.224 30.6599 109.04 30.9971C108.865 31.3169 108.671 31.7935 108.448 32.5456L108.927 32.6875L109.407 32.8294C109.62 32.111 109.79 31.7095 109.917 31.477C110.035 31.2618 110.115 31.1913 110.177 31.1351L109.843 30.7637ZM108.927 32.6875L108.429 32.6471C108.43 32.6357 108.363 33.0614 108.32 34.1013L108.819 34.1221L109.319 34.1429C109.361 33.1228 109.421 32.785 109.426 32.7279L108.927 32.6875ZM108.819 34.1221L108.32 34.1013C108.279 35.0774 108.264 36.302 108.244 37.7529L108.744 37.7598L109.244 37.7667C109.264 36.3088 109.279 35.1015 109.319 34.1429L108.819 34.1221ZM108.744 37.7598L108.244 37.7529C108.216 39.7695 108.146 42.0894 108.036 44.0699L108.535 44.0977L109.034 44.1254C109.145 42.128 109.216 39.7938 109.244 37.7667L108.744 37.7598ZM108.535 44.0977L108.036 44.0699C107.981 45.0582 107.915 45.9856 107.836 46.758L108.334 46.8086L108.831 46.8591C108.912 46.0654 108.979 45.1213 109.034 44.1254L108.535 44.0977ZM108.334 46.8086L107.836 46.758C107.766 47.448 107.665 48.2521 107.485 48.8489L107.964 48.9932L108.442 49.1374C108.653 48.4377 108.761 47.5451 108.831 46.8591L108.334 46.8086ZM107.964 48.9932L107.485 48.849C107.44 48.999 107.439 49.2181 107.48 49.4783C107.524 49.7572 107.625 50.1294 107.828 50.6065L108.288 50.4111L108.748 50.2158C108.571 49.7996 108.497 49.5061 108.468 49.3211C108.435 49.1173 108.461 49.0741 108.442 49.1373L107.964 48.9932ZM108.288 50.4111L107.828 50.6066C108.002 51.0163 108.208 51.403 108.403 51.7463L108.838 51.499L109.272 51.2518C109.086 50.924 108.901 50.5749 108.748 50.2157L108.288 50.4111ZM108.838 51.499L108.403 51.7463C108.507 51.9281 108.586 52.0616 108.682 52.2265L109.114 51.9756L109.546 51.7246C109.445 51.5493 109.373 51.4293 109.272 51.2518L108.838 51.499ZM109.114 51.9756L108.682 52.2265C108.722 52.2956 108.82 52.461 108.914 52.6496L109.361 52.4258L109.808 52.2019C109.697 51.9806 109.583 51.7875 109.546 51.7246L109.114 51.9756ZM109.361 52.4258L108.908 52.6376L109.007 52.8485L109.46 52.6367L109.913 52.4249L109.814 52.214L109.361 52.4258ZM109.46 52.6367L108.999 52.8311L109.089 53.044L109.55 52.8496L110.01 52.6552L109.92 52.4423L109.46 52.6367ZM109.55 52.8496L109.086 53.0363C109.909 55.0812 109.569 56.8363 109.238 58.1558L109.723 58.2773L110.208 58.3988C110.553 57.0238 110.958 55.0097 110.013 52.6629L109.55 52.8496ZM109.723 58.2773L109.238 58.1558C108.894 59.5311 108.578 60.4498 108.562 61.8203L109.062 61.8262L109.562 61.832C109.577 60.6123 109.845 59.8495 110.208 58.3989L109.723 58.2773ZM109.062 61.8262L108.562 61.8203C108.549 62.9926 108.874 64.7827 109.341 66.6775L109.827 66.5576L110.312 66.4377C109.846 64.5481 109.55 62.866 109.562 61.832L109.062 61.8262ZM109.827 66.5576L109.341 66.6775C109.57 67.6019 109.81 68.4692 110.026 69.2194L110.507 69.0811L110.987 68.9427C110.773 68.1995 110.536 67.3454 110.312 66.4377L109.827 66.5576ZM110.507 69.0811L110.027 69.2217L110.567 71.0644L111.047 70.9238L111.526 70.7832L110.986 68.9404L110.507 69.0811ZM111.047 70.9238H110.547V70.9248H111.047H111.547V70.9238H111.047ZM111.047 70.9248L110.566 71.0627C110.982 72.5125 111.656 74.6695 111.812 75.9434L112.308 75.8828L112.805 75.8222C112.636 74.4451 111.923 72.1681 111.527 70.7869L111.047 70.9248ZM112.308 75.8828L111.812 75.9426L111.822 76.0237L112.318 75.9639L112.815 75.9041L112.805 75.823L112.308 75.8828ZM112.318 75.9639L111.819 76.0004L111.825 76.0804L112.324 76.0439L112.823 76.0075L112.817 75.9274L112.318 75.9639ZM112.324 76.0439L111.825 76.0804C111.875 76.7617 111.874 77.5532 111.874 78.2178H112.374H112.874C112.874 77.5636 112.876 76.7325 112.823 76.0075L112.324 76.0439ZM112.374 78.2178L111.874 78.2177C111.874 78.4972 111.832 78.768 111.755 79.0265L112.234 79.1689L112.713 79.3114C112.816 78.9651 112.874 78.5984 112.874 78.2178L112.374 78.2178ZM112.234 79.1689L111.751 79.2972C111.897 79.8484 112.055 80.2719 112.18 80.5035L112.62 80.2666L113.06 80.0297C112.99 79.8989 112.856 79.5623 112.717 79.0406L112.234 79.1689ZM112.62 80.2666L112.18 80.5035C112.647 81.3728 112.83 82.3803 112.923 83.144L113.42 83.083L113.916 83.022C113.818 82.2272 113.619 81.0678 113.06 80.0297L112.62 80.2666ZM113.42 83.083L112.923 83.144C113.027 83.985 113.062 84.9095 113.064 85.8068L113.564 85.8057L114.064 85.8045C114.062 84.8867 114.026 83.9183 113.916 83.022L113.42 83.083ZM113.564 85.8057L113.064 85.8068C113.068 87.6037 112.937 89.5401 112.838 90.9331L113.337 90.9688L113.835 91.0044C113.935 89.6128 114.068 87.6427 114.064 85.8045L113.564 85.8057ZM113.337 90.9688L112.838 90.9331C112.767 91.9202 112.519 92.8431 112.278 93.6963L112.76 93.832L113.241 93.9678C113.481 93.1155 113.757 92.1042 113.835 91.0044L113.337 90.9688ZM112.76 93.832L112.278 93.6962C112.025 94.5949 111.731 95.5729 111.409 96.9379L111.895 97.0527L112.382 97.1676C112.698 95.8296 112.983 94.88 113.241 93.9678L112.76 93.832ZM111.895 97.0527L111.409 96.9379C111.26 97.5677 111.185 98.4696 111.06 99.8171L111.558 99.8633L112.056 99.9094C112.185 98.5154 112.254 97.7101 112.382 97.1676L111.895 97.0527ZM111.558 99.8633L111.06 99.8171C110.948 101.029 110.796 102.545 110.428 103.938L110.912 104.065L111.395 104.193C111.787 102.71 111.944 101.117 112.056 99.9094L111.558 99.8633ZM110.912 104.065L110.428 103.938C110.25 104.613 110.094 105.356 109.924 106.196L110.414 106.296L110.904 106.395C111.075 105.554 111.225 104.837 111.395 104.193L110.912 104.065ZM110.414 106.296L109.924 106.196C109.758 107.012 109.578 107.927 109.364 108.834L109.85 108.949L110.337 109.064C110.556 108.138 110.74 107.203 110.904 106.395L110.414 106.296ZM109.85 108.949L109.364 108.834C109.194 109.55 108.973 110.282 108.672 111.031L109.135 111.218L109.599 111.405C109.922 110.603 110.158 109.822 110.337 109.064L109.85 108.949ZM109.135 111.218L108.672 111.031C108.151 112.322 107.102 113.04 106.154 113.394L106.329 113.862L106.504 114.331C107.626 113.911 108.943 113.033 109.599 111.405L109.135 111.218ZM106.329 113.862L106.154 113.394C105.312 113.709 104.441 113.786 103.817 113.816L103.842 114.315L103.866 114.815C104.517 114.783 105.514 114.701 106.504 114.331L106.329 113.862ZM103.842 114.315L103.817 113.816C103.167 113.847 102.439 113.837 101.84 113.832L101.837 114.332L101.833 114.832C102.418 114.836 103.18 114.848 103.866 114.815L103.842 114.315ZM101.837 114.332L101.84 113.832C101.196 113.827 100.596 113.827 100.004 113.862L100.034 114.361L100.064 114.86C100.618 114.827 101.188 114.827 101.833 114.832L101.837 114.332ZM100.034 114.361L100.004 113.862C99.4671 113.894 99.1347 114.015 98.8526 114.175L99.0994 114.61L99.3461 115.045C99.4914 114.963 99.6749 114.884 100.064 114.86L100.034 114.361ZM99.0994 114.61L98.8526 114.175C98.522 114.363 98.1374 114.676 97.5809 115.264L97.9441 115.607L98.3072 115.951C98.8348 115.394 99.1403 115.162 99.3461 115.045L99.0994 114.61ZM97.9441 115.607L97.5809 115.264C96.9326 115.949 96.4217 116.956 95.9966 118.271L96.4724 118.425L96.9482 118.579C97.3529 117.326 97.8062 116.481 98.3073 115.951L97.9441 115.607ZM96.4724 118.425L95.9966 118.271C95.5165 119.757 94.5965 122.583 92.6764 127.223L93.1384 127.414L93.6004 127.605C95.5338 122.933 96.463 120.08 96.9482 118.579L96.4724 118.425ZM93.1384 127.414L92.6764 127.223C91.9985 128.861 91.3751 130.621 90.8243 132.123L91.2937 132.295L91.7631 132.467C92.3195 130.95 92.9327 129.219 93.6004 127.605L93.1384 127.414ZM91.2937 132.295L90.8243 132.123C90.5581 132.849 90.2977 133.545 90.0656 134.094L90.5261 134.289L90.9867 134.484C91.2295 133.909 91.4975 133.191 91.7631 132.467L91.2937 132.295ZM90.5261 134.289L90.0656 134.094C89.951 134.365 89.8187 134.659 89.6747 134.927L90.115 135.164L90.5553 135.401C90.7208 135.093 90.867 134.767 90.9867 134.484L90.5261 134.289ZM90.115 135.164L89.6746 134.927C89.6085 135.05 89.2924 135.669 88.6926 136.148L89.0046 136.539L89.3167 136.93C90.0903 136.312 90.487 135.528 90.5554 135.401L90.115 135.164ZM89.0046 136.539L88.6926 136.148C86.4595 137.932 83.7126 137.305 82.462 136.97L82.3328 137.453L82.2035 137.936C83.4476 138.269 86.6605 139.051 89.3167 136.93L89.0046 136.539ZM82.3328 137.453L82.462 136.97C81.7471 136.779 80.9467 136.507 80.4725 136.359L80.323 136.836L80.1735 137.313C80.614 137.451 81.4616 137.738 82.2035 137.936L82.3328 137.453ZM80.323 136.836L80.4725 136.359C80.1987 136.273 79.9826 136.21 79.8038 136.166L79.6843 136.651L79.5648 137.137C79.7132 137.173 79.9059 137.229 80.1735 137.313L80.323 136.836ZM79.6843 136.651L79.8038 136.166C79.6551 136.129 79.5741 136.117 79.5461 136.113L79.4734 136.607L79.4007 137.102C79.4029 137.102 79.4149 137.104 79.4397 137.109C79.4656 137.114 79.5067 137.123 79.5649 137.137L79.6843 136.651ZM79.4734 136.607L79.5176 136.109C77.5795 135.937 76.1988 134.671 75.5408 134.031L75.1921 134.39L74.8435 134.748C75.5139 135.4 77.1149 136.9 79.4292 137.105L79.4734 136.607ZM75.1921 134.39L75.5408 134.031C75.1415 133.643 74.7653 133.228 74.4704 132.906L74.1013 133.243L73.7323 133.581C74.0225 133.898 74.4193 134.335 74.8435 134.748L75.1921 134.39ZM74.1013 133.243L74.4704 132.906C74.1466 132.552 73.9192 132.307 73.7186 132.115L73.3738 132.478L73.029 132.84C73.2001 133.003 73.4039 133.221 73.7323 133.581L74.1013 133.243ZM73.3738 132.478L73.7186 132.115C72.0029 130.482 70.9337 129.609 70.0507 129.061L69.7869 129.485L69.523 129.91C70.3158 130.403 71.3246 131.217 73.029 132.84L73.3738 132.478ZM69.7869 129.485L70.0507 129.061C68.5094 128.103 67.9232 126.64 67.6381 125.684L67.1589 125.827L66.6798 125.97C66.9898 127.009 67.6712 128.759 69.523 129.91L69.7869 129.485ZM67.1589 125.827L67.6381 125.684C67.4893 125.186 67.3816 124.676 67.2951 124.256L66.8054 124.357L66.3157 124.458C66.4021 124.877 66.5173 125.425 66.6798 125.97L67.1589 125.827ZM66.8054 124.357L67.2951 124.256C67.203 123.81 67.1309 123.448 67.0402 123.077L66.5544 123.195L66.0687 123.314C66.154 123.663 66.2215 124.002 66.3157 124.458L66.8054 124.357ZM66.5544 123.195L67.036 123.061C67.0119 122.974 66.9922 122.906 66.974 122.84L66.4919 122.973L66.0099 123.106C66.0282 123.172 66.0519 123.255 66.0729 123.33L66.5544 123.195ZM66.4919 122.973L66.8404 122.614C66.6537 122.433 66.4895 122.227 66.3547 122L65.9246 122.255L65.4944 122.51C65.6765 122.817 65.8966 123.091 66.1435 123.331L66.4919 122.973ZM65.9246 122.255L66.3022 121.927C66.234 121.849 66.1306 121.737 65.9744 121.575L65.615 121.923L65.2556 122.27C65.407 122.427 65.496 122.524 65.5469 122.583L65.9246 122.255ZM65.615 121.923L65.9744 121.575C65.6743 121.265 65.1298 120.725 64.6772 120.209L64.3015 120.539L63.9258 120.869C64.3996 121.409 64.9765 121.982 65.2556 122.271L65.615 121.923ZM64.3015 120.539L64.6773 120.209C63.9099 119.335 63.5499 118.945 62.9272 118.612L62.6912 119.053L62.4552 119.494C62.8944 119.729 63.1437 119.978 63.9258 120.869L64.3015 120.539ZM62.6912 119.053L62.9271 118.612C62.0658 118.151 60.2915 117.407 57.7907 116.533L57.6257 117.005L57.4608 117.477C59.9511 118.347 61.6651 119.071 62.4552 119.494L62.6912 119.053ZM57.6257 117.005L57.7906 116.533C56.3685 116.036 53.4673 115.423 50.6038 113.604L50.3357 114.026L50.0676 114.448C53.0609 116.35 56.1783 117.029 57.4608 117.477L57.6257 117.005ZM50.3357 114.026L50.6038 113.604C49.387 112.831 48.5118 112.012 47.9155 111.454L47.574 111.819L47.2325 112.185C47.8324 112.746 48.7657 113.621 50.0676 114.448L50.3357 114.026ZM47.574 111.819L47.9155 111.454C47.5957 111.155 47.4115 110.984 47.2498 110.852L46.9343 111.24L46.6188 111.628C46.7476 111.733 46.9029 111.876 47.2325 112.185L47.574 111.819ZM46.9343 111.24L47.2498 110.852C47.2434 110.847 47.2378 110.843 47.2336 110.84C47.2295 110.836 47.226 110.834 47.2244 110.833C47.2221 110.831 47.2226 110.831 47.2229 110.832C47.2236 110.832 47.2263 110.834 47.23 110.837L46.9177 111.228L46.6054 111.618C46.6117 111.623 46.617 111.627 46.6204 111.63C46.6235 111.632 46.6267 111.634 46.6272 111.635C46.6284 111.636 46.6277 111.635 46.6265 111.634C46.6252 111.633 46.6224 111.631 46.6189 111.628L46.9343 111.24ZM46.9177 111.228L47.0528 110.746C46.9139 110.707 46.6103 110.629 46.0696 110.534L45.9832 111.026L45.8967 111.519C46.4067 111.608 46.6778 111.68 46.7827 111.709L46.9177 111.228ZM45.9832 111.026L46.0696 110.534C45.3762 110.412 44.5379 110.301 43.5919 110.182L43.5291 110.678L43.4663 111.174C44.4147 111.294 45.2303 111.402 45.8967 111.519L45.9832 111.026ZM43.5291 110.678L43.5918 110.182C41.8256 109.958 39.5329 109.695 37.8811 109.271L37.7566 109.755L37.6321 110.239C39.3611 110.684 41.735 110.955 43.4663 111.174L43.5291 110.678ZM37.7566 109.755L37.8811 109.271C36.275 108.858 34.7106 107.999 33.4739 107.181L33.198 107.598L32.9221 108.015C34.2003 108.86 35.8716 109.787 37.6321 110.239L37.7566 109.755ZM33.198 107.598L33.4739 107.181C32.2047 106.341 31.0465 105.386 30.2365 104.578L29.8835 104.933L29.5306 105.287C30.3911 106.144 31.6017 107.141 32.9221 108.015L33.198 107.598ZM29.8835 104.933L30.2365 104.578C28.9201 103.267 27.7806 102.432 26.2969 101.51L26.033 101.935L25.7691 102.359C27.2061 103.252 28.2811 104.041 29.5306 105.287L29.8835 104.933ZM26.033 101.935L26.2969 101.51C24.1535 100.178 22.6479 97.9907 22.1003 97.3431L21.7185 97.666L21.3367 97.9889C21.7985 98.5349 23.4505 100.918 25.7691 102.359L26.033 101.935ZM21.7185 97.666L22.1003 97.3432C21.1531 96.2231 19.9717 94.5386 19.0915 93.0848L18.6638 93.3438L18.2361 93.6027C19.1368 95.0905 20.3482 96.82 21.3367 97.9889L21.7185 97.666ZM18.6638 93.3438L19.0915 93.0848C18.4026 91.9468 17.3779 90.4306 16.9404 88.6502L16.4548 88.7695L15.9693 88.8889C16.4523 90.8542 17.5837 92.5252 18.2361 93.6027L18.6638 93.3438ZM16.4548 88.7695L16.8097 88.4173C16.8043 88.4118 16.7701 88.3763 16.7375 88.3453L16.3933 88.708L16.0491 89.0707C16.0565 89.0776 16.0636 89.0848 16.0716 89.0928C16.0757 89.097 16.0796 89.101 16.0844 89.1059C16.0888 89.1104 16.0944 89.1161 16.1 89.1218L16.4548 88.7695ZM16.3933 88.708L16.7375 88.3453C16.6667 88.2781 16.5829 88.2043 16.4746 88.109L16.1443 88.4844L15.814 88.8597C15.9267 88.9589 15.9948 89.0192 16.0491 89.0707L16.3933 88.708ZM16.1443 88.4844L16.4746 88.109C16.3768 88.0229 16.2281 87.8929 16.091 87.7689L15.7556 88.1396L15.4202 88.5104C15.5638 88.6403 15.7192 88.7764 15.814 88.8597L16.1443 88.4844ZM15.7556 88.1396L16.0911 87.7689C15.8077 87.5126 15.4289 87.1524 15.0736 86.691L14.6775 86.9961L14.2814 87.3012C14.6906 87.8325 15.1205 88.2393 15.4202 88.5104L15.7556 88.1396ZM14.6775 86.9961L15.0736 86.691C14.6927 86.1964 14.3191 85.7954 13.6093 84.9228L13.2214 85.2383L12.8335 85.5538C13.6031 86.4999 13.898 86.8034 14.2813 87.3012L14.6775 86.9961ZM13.2214 85.2383L13.6093 84.9228C13.012 84.1883 12.2985 83.2546 11.7534 82.2432L11.3132 82.4805L10.8731 82.7177C11.4639 83.8138 12.2253 84.806 12.8335 85.5538L13.2214 85.2383ZM11.3132 82.4805L11.7534 82.2433C10.8063 80.4857 9.64365 78.5713 8.60095 76.8397L8.17261 77.0977L7.74427 77.3556C8.79194 79.0954 9.93995 80.986 10.8731 82.7177L11.3132 82.4805ZM8.17261 77.0977L8.60095 76.8397C7.65167 75.2633 6.61426 73.5466 6.21279 72.515L5.74683 72.6963L5.28086 72.8776C5.72176 74.0106 6.82035 75.8212 7.74427 77.3556L8.17261 77.0977ZM5.74683 72.6963L6.2128 72.515C5.70464 71.209 5.5834 69.8055 5.49746 68.9112L4.99976 68.959L4.50205 69.0068C4.58596 69.88 4.71445 71.4219 5.28086 72.8776L5.74683 72.6963ZM4.99976 68.959L5.49746 68.9112C5.44255 68.3397 5.39861 67.9526 5.3584 67.6836C5.31934 67.4223 5.27914 67.2365 5.21866 67.0902L4.75659 67.2812L4.29452 67.4723C4.3055 67.4988 4.33211 67.582 4.36939 67.8314C4.40551 68.0731 4.44743 68.4384 4.50205 69.0068L4.99976 68.959ZM4.75659 67.2812L5.21854 67.0899C4.65519 65.7297 5.22034 64.1935 6.51604 63.4583L6.26929 63.0234L6.02253 62.5886C4.31223 63.559 3.52768 65.6207 4.29464 67.4726L4.75659 67.2812ZM6.26929 63.0234L6.71511 63.2498C6.75575 63.1698 6.77985 63.1247 6.81 63.0659L6.36499 62.8379L5.91998 62.6099C5.90206 62.6449 5.86048 62.7242 5.82347 62.7971L6.26929 63.0234ZM6.36499 62.8379L6.8317 63.0173C7.04428 62.4642 7.42988 61.3347 8.22771 59.4252L7.76636 59.2324L7.30501 59.0397C6.50043 60.9653 6.09756 62.14 5.89828 62.6585L6.36499 62.8379ZM7.76636 59.2324L8.26507 59.2682C8.55928 55.1686 9.09987 52.9459 9.92507 50.3157L9.448 50.166L8.97093 50.0163C8.12524 52.7119 7.56801 55.0111 7.26764 59.1966L7.76636 59.2324ZM9.448 50.166L9.92507 50.3157C10.2738 49.2042 10.5717 48.0801 10.8632 46.9719L10.3796 46.8447L9.89609 46.7175C9.60412 47.8276 9.31169 48.9302 8.97093 50.0163L9.448 50.166ZM10.3796 46.8447L10.8632 46.9719C11.1502 45.8806 11.436 44.7835 11.7471 43.7968L11.2703 43.6465L10.7934 43.4961C10.4734 44.5108 10.181 45.6341 9.89608 46.7175L10.3796 46.8447ZM11.2703 43.6465L11.7471 43.7969C12.0558 42.8179 12.4192 41.8486 12.8935 41.0287L12.4607 40.7783L12.0279 40.528C11.4991 41.4421 11.1098 42.4927 10.7934 43.4961L11.2703 43.6465ZM12.4607 40.7783L12.8935 41.0287C13.361 40.2206 14.0403 39.3748 15.0768 38.8928L14.866 38.4395L14.6551 37.9861C13.3586 38.589 12.548 39.629 12.0279 40.5279L12.4607 40.7783ZM14.866 38.4395L15.0667 38.8974L15.2962 38.7968L15.0955 38.3389L14.8947 37.8809L14.6653 37.9815L14.866 38.4395ZM15.0955 38.3389L15.2861 38.8011C16.3614 38.3577 17.5612 38.2644 18.6161 38.1607L18.5671 37.6631L18.5182 37.1655C17.5094 37.2647 16.1452 37.3652 14.9048 37.8766L15.0955 38.3389ZM18.5671 37.6631L18.6161 38.1607C19.8426 38.0401 21.3335 37.889 23.3474 37.4206L23.2341 36.9336L23.1209 36.4466C21.1723 36.8998 19.7339 37.0459 18.5182 37.1655L18.5671 37.6631ZM23.2341 36.9336L23.3474 37.4206C25.6972 36.8741 27.2218 36.4945 28.4635 35.659L28.1843 35.2441L27.9052 34.8293C26.8456 35.5423 25.5179 35.8891 23.1209 36.4466L23.2341 36.9336ZM28.1843 35.2441L28.4635 35.6589C29.8079 34.7541 31.3868 33.7587 33.1907 32.5589L32.9138 32.1426L32.6369 31.7263C30.884 32.8921 29.2288 33.9384 27.9051 34.8293L28.1843 35.2441ZM32.9138 32.1426L33.1907 32.5589C36.1341 30.6013 39.1789 28.3673 40.7131 26.0217L40.2947 25.748L39.8762 25.4744C38.4711 27.6227 35.6027 29.7537 32.6369 31.7263L32.9138 32.1426ZM40.2947 25.748L40.7131 26.0217C41.5885 24.6833 42.1923 23.5914 42.7304 22.6263L42.2937 22.3828L41.857 22.1393C41.3183 23.1055 40.73 24.169 39.8762 25.4744L40.2947 25.748ZM42.2937 22.3828L42.7304 22.6263C43.2546 21.6862 43.7644 20.7734 44.4035 19.9553L44.0095 19.6475L43.6155 19.3396C42.9207 20.2289 42.3747 21.2108 41.857 22.1393L42.2937 22.3828ZM44.0095 19.6475L44.4035 19.9553C45.1108 19.0501 46.1566 18.3871 46.6862 18.0005L46.3914 17.5967L46.0966 17.1928C45.6426 17.5242 44.4331 18.2932 43.6155 19.3396L44.0095 19.6475ZM46.3914 17.5967L46.6862 18.0005C47.3196 17.5381 47.6936 17.187 47.9243 16.7113L47.4744 16.4932L47.0245 16.275C46.906 16.5194 46.7026 16.7504 46.0965 17.1929L46.3914 17.5967ZM47.4744 16.4932L47.9243 16.7113C48.7735 14.9599 49.6771 13.8789 50.4645 13.0743L50.1072 12.7246L49.7498 12.3749C48.9043 13.2389 47.9305 14.4063 47.0245 16.275L47.4744 16.4932ZM50.1072 12.7246L50.4645 13.0743C50.6527 12.882 50.833 12.708 50.9896 12.5561L50.6414 12.1973L50.2931 11.8385C50.1393 11.9878 49.9489 12.1715 49.7498 12.3749L50.1072 12.7246ZM50.6414 12.1973L50.9896 12.5561C51.1502 12.4002 51.2781 12.2762 51.3946 12.157L51.0369 11.8076L50.6792 11.4583C50.5741 11.5658 50.4569 11.6795 50.2931 11.8385L50.6414 12.1973ZM51.0369 11.8076L51.3946 12.1569C51.6253 11.9207 51.7364 11.7764 51.8036 11.6582L51.3689 11.4111L50.9342 11.164C50.9295 11.1723 50.8875 11.245 50.6791 11.4583L51.0369 11.8076ZM51.3689 11.4111L51.8036 11.6582C51.9791 11.3495 52.4388 10.4617 52.6301 9.30865C52.8225 8.14886 52.7464 6.694 51.8085 5.30686L51.3943 5.58691L50.9801 5.86697C51.7356 6.98445 51.807 8.15976 51.6436 9.14496C51.479 10.1369 51.0793 10.9089 50.9342 11.164L51.3689 11.4111ZM51.3943 5.58691L51.8085 5.30687C51.2489 4.47921 51.4865 3.36659 52.3676 2.818L52.1033 2.39355L51.839 1.96911C50.491 2.80842 50.0935 4.55561 50.9801 5.86696L51.3943 5.58691ZM52.1033 2.39355L52.3675 2.81805C52.818 2.53767 53.3478 2.46167 53.8386 2.56861L53.9451 2.08008L54.0515 1.59154C53.3206 1.43228 52.5226 1.5436 51.8391 1.96906L52.1033 2.39355ZM53.9451 2.08008L54.4176 2.24362C54.6642 1.53107 55.3734 1 56.2283 1V0.5V0C54.9562 0 53.8615 0.792814 53.4726 1.91654L53.9451 2.08008ZM56.4792 5.11621L56.0099 5.28855C57.4629 9.24578 55.4468 12.8668 55.1579 13.375L55.5925 13.6221L56.0272 13.8692C56.328 13.3401 58.5691 9.35715 56.9486 4.94387L56.4792 5.11621ZM55.5925 13.6221L55.1579 13.375C54.8681 13.8847 54.509 14.2878 54.1899 14.6145L54.5476 14.9639L54.9053 15.3132C55.2479 14.9624 55.6754 14.488 56.0272 13.8692L55.5925 13.6221ZM54.5476 14.9639L54.1899 14.6145C54.0314 14.7769 53.864 14.939 53.714 15.0846L54.0623 15.4434L54.4105 15.8022C54.5583 15.6587 54.7357 15.4869 54.9053 15.3132L54.5476 14.9639ZM54.0623 15.4434L53.714 15.0846C53.5574 15.2366 53.409 15.3814 53.2577 15.536L53.615 15.8857L53.9723 16.2355C54.1139 16.0908 54.2543 15.9537 54.4105 15.8022L54.0623 15.4434ZM53.615 15.8857L53.2577 15.536C52.6853 16.1208 52.0331 16.8882 51.3858 18.2233L51.8357 18.4414L52.2856 18.6595C52.8758 17.4422 53.4576 16.7614 53.9723 16.2355L53.615 15.8857ZM51.8357 18.4414L51.3858 18.2232C50.7563 19.5215 49.7698 20.3133 49.0106 20.8677L49.3054 21.2715L49.6003 21.6753C50.3911 21.0979 51.5451 20.1867 52.2856 18.6596L51.8357 18.4414ZM49.3054 21.2715L49.0106 20.8677C48.574 21.1864 48.2531 21.4102 48.0316 21.5779C47.7985 21.7544 47.6237 21.9063 47.4651 22.1091L47.8591 22.417L48.2531 22.7248C48.3342 22.6211 48.4309 22.5299 48.6353 22.3751C48.8512 22.2116 49.1337 22.0159 49.6002 21.6753L49.3054 21.2715ZM47.8591 22.417L47.4651 22.1092C47.0282 22.6684 46.6496 23.3309 46.0992 24.318L46.5359 24.5615L46.9726 24.805C47.5308 23.8039 47.8724 23.2121 48.2531 22.7248L47.8591 22.417ZM46.5359 24.5615L46.0992 24.318C45.5623 25.2809 44.9028 26.4724 43.9505 27.9285L44.3689 28.2021L44.7873 28.4758C45.7611 26.9871 46.4358 25.7676 46.9726 24.805L46.5359 24.5615ZM44.3689 28.2021L43.9505 27.9285C41.9468 30.9918 38.2524 33.6078 35.3772 35.5202L35.6541 35.9365L35.931 36.3528C38.7864 34.4537 42.6552 31.7355 44.7873 28.4758L44.3689 28.2021ZM35.6541 35.9365L35.3772 35.5202C33.3678 36.8566 32.0984 37.6458 30.6678 38.6086L30.947 39.0234L31.2262 39.4382C32.6811 38.459 33.8652 37.7268 35.931 36.3528L35.6541 35.9365ZM30.947 39.0234L30.6679 38.6086C28.7262 39.9154 26.4451 40.4245 24.2547 40.9339L24.3679 41.4209L24.4812 41.9079C26.6325 41.4076 29.1045 40.8661 31.2262 39.4382L30.947 39.0234ZM24.3679 41.4209L24.2547 40.9339C21.9796 41.463 20.2781 41.6335 19.0094 41.7583L19.0583 42.2559L19.1073 42.7535C20.3868 42.6276 22.1408 42.4522 24.4812 41.9079L24.3679 41.4209ZM19.0583 42.2559L19.0094 41.7583C17.6878 41.8882 17.1625 41.9606 16.7863 42.1265L16.988 42.584L17.1897 43.0415C17.3847 42.9556 17.7169 42.8902 19.1073 42.7535L19.0583 42.2559ZM16.988 42.584L16.6633 42.2038C16.5838 42.2717 16.4323 42.4262 16.2339 42.7692L16.6667 43.0195L17.0995 43.2699C17.2519 43.0065 17.3345 42.9456 17.3128 42.9642L16.988 42.584ZM16.6667 43.0195L16.2339 42.7692C15.9531 43.2548 15.6815 43.9368 15.3989 44.833L15.8757 44.9834L16.3526 45.1338C16.628 44.2606 16.8736 43.6606 17.0996 43.2698L16.6667 43.0195ZM15.8757 44.9834L15.3989 44.833C15.1185 45.7223 14.8556 46.7278 14.5611 47.8474L15.0447 47.9746L15.5282 48.1018C15.8248 46.9742 16.081 45.995 16.3526 45.1338L15.8757 44.9834ZM15.0447 47.9746L14.5611 47.8474C14.271 48.9504 13.9537 50.148 13.5774 51.3474L14.0544 51.4971L14.5315 51.6467C14.9157 50.4222 15.2385 49.2034 15.5282 48.1018L15.0447 47.9746ZM14.0544 51.4971L13.5774 51.3474C12.8029 53.8161 12.3101 55.8235 12.0419 59.8683L12.5408 59.9014L13.0397 59.9344C13.3022 55.9757 13.7786 54.0465 14.5315 51.6467L14.0544 51.4971ZM12.5408 59.9014L12.0418 59.8688L12.0174 60.2428L12.5164 60.2754L13.0153 60.308L13.0397 59.9339L12.5408 59.9014ZM12.5164 60.2754L12.0561 60.0802L11.9086 60.4278L12.3689 60.623L12.8292 60.8183L12.9767 60.4706L12.5164 60.2754ZM12.3689 60.623L11.9085 60.4281C11.1579 62.2009 10.8433 63.0959 10.5775 63.8174L11.0466 63.9902L11.5158 64.1631C11.7818 63.4412 12.0891 62.5664 12.8293 60.818L12.3689 60.623ZM11.0466 63.9902L10.6452 64.2884C10.7876 64.4801 10.9084 64.6888 11.0017 64.914L11.4636 64.7227L11.9256 64.5313C11.7989 64.2256 11.6364 63.9457 11.448 63.6921L11.0466 63.9902ZM11.4636 64.7227L11.0017 64.914C11.5068 66.1336 11.6101 67.5537 11.6886 68.3701L12.1863 68.3223L12.684 68.2744C12.6097 67.5016 12.4995 65.9171 11.9256 64.5313L11.4636 64.7227ZM12.1863 68.3223L11.6886 68.3701C11.788 69.4049 11.8695 70.0099 12.0426 70.4547L12.5085 70.2734L12.9745 70.0921C12.8611 69.8007 12.7866 69.3424 12.684 68.2744L12.1863 68.3223ZM12.5085 70.2734L12.0426 70.4548C12.1346 70.6912 12.3524 71.0987 12.667 71.6495C12.9889 72.2129 13.4313 72.959 13.9923 73.8907L14.4207 73.6328L14.849 73.3749C14.2889 72.4447 13.8513 71.7066 13.5354 71.1535C13.2123 70.5879 13.0346 70.2466 12.9745 70.0921L12.5085 70.2734ZM14.4207 73.6328L13.9923 73.8907C15.0074 75.5765 16.2548 77.6276 17.2832 79.536L17.7234 79.2988L18.1635 79.0616C17.1212 77.1273 15.8591 75.0524 14.849 73.3749L14.4207 73.6328ZM17.7234 79.2988L17.2832 79.536C17.56 80.0495 17.9895 80.6371 18.523 81.293L18.9109 80.9775L19.2988 80.662C18.7754 80.0185 18.3943 79.4898 18.1635 79.0616L17.7234 79.2988ZM18.9109 80.9775L18.523 81.293C18.7851 81.6153 19.0454 81.9217 19.3137 82.2401L19.696 81.918L20.0784 81.5958C19.8066 81.2732 19.5539 80.9757 19.2988 80.662L18.9109 80.9775ZM19.696 81.918L19.3137 82.2401C19.5682 82.5422 19.8462 82.8745 20.086 83.1859L20.4822 82.8809L20.8783 82.5758C20.6235 82.2448 20.3322 81.897 20.0784 81.5958L19.696 81.918ZM20.4822 82.8809L20.0872 83.1874C20.1216 83.2317 20.1931 83.3109 20.3703 83.4713L20.7058 83.1006L21.0413 82.7298C20.8775 82.5816 20.8574 82.5489 20.8772 82.5743L20.4822 82.8809ZM20.7058 83.1006L20.3704 83.4714C20.4536 83.5466 20.8873 83.9229 21.1234 84.1469L21.4675 83.7842L21.8117 83.4215C21.568 83.1903 21.0892 82.7732 21.0412 82.7298L20.7058 83.1006ZM21.4675 83.7842L21.1234 84.1469C21.7465 84.7382 22.5332 85.6309 22.9128 86.9864L23.3943 86.8516L23.8758 86.7167C23.427 85.1142 22.4969 84.0718 21.8117 83.4215L21.4675 83.7842ZM23.3943 86.8516L22.9098 86.975L22.9869 87.2778L23.4714 87.1543L23.9559 87.0308L23.8788 86.7281L23.3943 86.8516ZM23.4714 87.1543L22.9896 87.288L23.0512 87.5097L23.533 87.376L24.0147 87.2423L23.9532 87.0206L23.4714 87.1543ZM23.533 87.376L23.0567 87.5281C23.245 88.1176 23.6402 88.7421 24.4763 90.1232L24.9041 89.8643L25.3318 89.6053C24.453 88.1537 24.1512 87.6682 24.0092 87.2238L23.533 87.376ZM24.9041 89.8643L24.4763 90.1232C25.2372 91.3801 26.2418 92.7986 26.9412 93.6256L27.323 93.3027L27.7048 92.9799C27.0467 92.2018 26.0721 90.8282 25.3318 89.6053L24.9041 89.8643ZM27.323 93.3027L26.9412 93.6256C27.1919 93.922 27.4585 94.2617 27.6753 94.5335L28.0662 94.2217L28.4571 93.9099C28.2478 93.6476 27.9676 93.2906 27.7048 92.9799L27.323 93.3027ZM28.0662 94.2217L27.6753 94.5335C27.9089 94.8264 28.1279 95.0969 28.3566 95.3556L28.7312 95.0244L29.1058 94.6932C28.8951 94.4549 28.6895 94.2013 28.457 93.9099L28.0662 94.2217ZM28.7312 95.0244L28.3566 95.3556C28.8165 95.8758 29.2469 96.2702 29.6919 96.5468L29.9558 96.1221L30.2197 95.6974C29.8883 95.4914 29.5313 95.1745 29.1058 94.6932L28.7312 95.0244ZM29.9558 96.1221L29.6919 96.5468C31.4707 97.6521 33.007 98.767 34.7298 100.484L35.0828 100.13L35.4357 99.7757C33.6461 97.9921 32.0452 96.8318 30.2197 95.6974L29.9558 96.1221ZM35.0828 100.13L34.7298 100.484C35.2314 100.984 36.0671 101.684 37.0188 102.313L37.2947 101.896L37.5706 101.479C36.6702 100.884 35.8869 100.225 35.4357 99.7757L35.0828 100.13ZM37.2947 101.896L37.0188 102.313C38.003 102.965 38.8874 103.391 39.4992 103.549L39.6238 103.064L39.7483 102.58C39.2909 102.463 38.5135 102.103 37.5706 101.479L37.2947 101.896ZM39.6238 103.064L39.4993 103.549C40.6487 103.844 42.4062 104.054 44.4106 104.308L44.4734 103.812L44.5362 103.315C42.4931 103.057 40.8198 102.856 39.7483 102.58L39.6238 103.064ZM44.4734 103.812L44.4106 104.308C45.3498 104.426 46.3305 104.555 47.1955 104.707L47.282 104.215L47.3684 103.722C46.477 103.566 45.4746 103.434 44.5362 103.315L44.4734 103.812ZM47.282 104.215L47.1955 104.707C47.9902 104.847 48.9758 105.051 49.7827 105.404L49.9832 104.946L50.1836 104.488C49.2581 104.083 48.1694 103.863 47.3684 103.722L47.282 104.215ZM49.9832 104.946L49.7827 105.404C50.92 105.902 51.8304 106.814 52.2696 107.225L52.6111 106.859L52.9526 106.494C52.5493 106.117 51.5094 105.068 50.1836 104.488L49.9832 104.946ZM52.6111 106.859L52.2696 107.225C52.8512 107.768 53.3658 108.238 54.0519 108.674L54.3201 108.252L54.5882 107.83C53.988 107.449 53.5326 107.036 52.9526 106.494L52.6111 106.859ZM54.3201 108.252L54.052 108.674C56.0963 109.973 57.5174 110.126 59.9315 110.97L60.0964 110.498L60.2614 110.026C57.6658 109.119 56.5036 109.047 54.5882 107.83L54.3201 108.252ZM60.0964 110.498L59.9315 110.97C62.5005 111.868 64.6589 112.743 65.9718 113.446L66.2078 113.005L66.4437 112.564C65.0598 111.823 62.8412 110.928 60.2614 110.026L60.0964 110.498ZM66.2078 113.005L65.9718 113.446C67.7196 114.382 68.7404 115.603 69.4453 116.406L69.821 116.076L70.1968 115.746C69.4977 114.95 68.3705 113.596 66.4438 112.564L66.2078 113.005ZM69.821 116.076L69.4453 116.406C69.6783 116.671 69.9107 116.909 70.1828 117.187L70.5398 116.837L70.8968 116.487C70.6229 116.207 70.4091 115.988 70.1968 115.746L69.821 116.076ZM70.5398 116.837L70.3417 117.296C70.9721 117.568 71.5075 118.039 71.8383 118.669L72.281 118.437L72.7237 118.204C72.2797 117.358 71.5646 116.734 70.7378 116.378L70.5398 116.837ZM72.281 118.437L71.8383 118.669C72.0352 119.044 72.1506 119.252 72.2757 119.486L72.7166 119.25L73.1574 119.014C73.0246 118.766 72.9191 118.576 72.7237 118.204L72.281 118.437ZM72.7166 119.25L72.2757 119.486C72.3908 119.701 72.5236 119.953 72.6452 120.256L73.1091 120.069L73.5731 119.883C73.4298 119.526 73.2746 119.233 73.1574 119.014L72.7166 119.25ZM73.1091 120.069L72.6451 120.256C72.7403 120.492 72.8279 120.77 72.9016 121.023L73.3816 120.883L73.8616 120.743C73.785 120.48 73.6866 120.166 73.5731 119.883L73.1091 120.069ZM73.3816 120.883L72.8996 121.016L73.0617 121.603L73.5437 121.47L74.0257 121.337L73.8635 120.75L73.3816 120.883ZM73.5437 121.47L73.0639 121.61L73.0805 121.667L73.5603 121.526L74.0401 121.386L74.0235 121.329L73.5437 121.47ZM73.5603 121.526L73.0762 121.652L73.0909 121.708L73.575 121.583L74.059 121.458L74.0444 121.401L73.5603 121.526ZM73.575 121.583L73.0894 121.702C73.2156 122.215 73.316 122.727 73.3958 123.114L73.8855 123.013L74.3752 122.912C74.2979 122.537 74.1924 122 74.0605 121.464L73.575 121.583ZM73.8855 123.013L73.3958 123.114C73.4824 123.533 73.5474 123.826 73.6183 124.064L74.0974 123.921L74.5765 123.778C74.5197 123.588 74.4624 123.334 74.3752 122.912L73.8855 123.013ZM74.0974 123.921H73.5974V123.923H74.0974H74.5974V123.921H74.0974ZM74.0974 123.923L73.8216 124.34C75.1411 125.213 76.4833 126.372 78.113 127.924L78.4578 127.562L78.8026 127.199C77.1606 125.636 75.7675 124.428 74.3732 123.506L74.0974 123.923ZM78.4578 127.562L78.1129 127.924C78.494 128.286 78.8657 128.695 79.1571 129.014L79.5261 128.677L79.8952 128.339C79.6091 128.026 79.2134 127.591 78.8026 127.199L78.4578 127.562ZM79.5261 128.677L79.1571 129.014C79.4774 129.365 79.7326 129.642 79.9812 129.884L80.3298 129.525L80.6785 129.167C80.4546 128.949 80.2192 128.694 79.8952 128.339L79.5261 128.677ZM80.3298 129.525L79.9812 129.884C80.1015 130.001 80.1989 130.088 80.2747 130.151L80.5955 129.768L80.9162 129.384C80.8619 129.339 80.783 129.269 80.6785 129.167L80.3298 129.525ZM80.5955 129.768L80.5207 130.262C81.2423 130.371 81.9246 130.576 82.4137 130.729L82.5632 130.252L82.7127 129.775C82.2174 129.62 81.473 129.395 80.6702 129.273L80.5955 129.768ZM82.5632 130.252L82.4137 130.729C83.0956 130.943 83.5573 131.104 84.0667 131.244L84.199 130.762L84.3312 130.28C83.8437 130.146 83.4343 130.001 82.7127 129.775L82.5632 130.252ZM84.199 130.762L84.6669 130.938C84.7526 130.71 84.8516 130.451 84.9555 130.168L84.4861 129.996L84.0167 129.824C83.9148 130.102 83.819 130.352 83.7311 130.585L84.199 130.762ZM84.4861 129.996L84.9555 130.168C85.4756 128.75 86.1571 126.829 86.8934 125.05L86.4314 124.858L85.9694 124.667C85.2229 126.471 84.5314 128.42 84.0167 129.824L84.4861 129.996ZM86.4314 124.858L86.8934 125.05C88.7365 120.596 89.6038 117.922 90.0546 116.527L89.5789 116.373L89.1031 116.219C88.6572 117.599 87.799 120.246 85.9694 124.667L86.4314 124.858ZM89.5789 116.373L90.0546 116.527C90.5935 114.86 91.4391 112.908 92.9654 111.295L92.6023 110.951L92.2391 110.607C90.5661 112.375 89.6627 114.488 89.1031 116.219L89.5789 116.373ZM92.6023 110.951L92.9654 111.295C94.5055 109.668 96.4301 108.14 99.6127 107.948L99.5828 107.449L99.5528 106.95C96.013 107.163 93.8662 108.888 92.2392 110.607L92.6023 110.951ZM99.5828 107.449L99.6127 107.948C100.442 107.899 101.233 107.901 101.89 107.906L101.894 107.406L101.898 106.906C101.239 106.901 100.419 106.898 99.5528 106.95L99.5828 107.449ZM101.894 107.406L101.89 107.906C102.25 107.909 102.551 107.911 102.813 107.911L102.812 107.411L102.812 106.911C102.555 106.911 102.259 106.909 101.898 106.906L101.894 107.406ZM102.812 107.411L103.299 107.526C103.486 106.732 103.646 105.929 103.82 105.071L103.33 104.972L102.84 104.872C102.664 105.738 102.509 106.521 102.326 107.296L102.812 107.411ZM103.33 104.972L103.82 105.071C103.989 104.236 104.174 103.346 104.399 102.493L103.916 102.365L103.432 102.238C103.199 103.122 103.009 104.038 102.84 104.872L103.33 104.972ZM103.916 102.365L104.399 102.493C104.631 101.616 104.752 100.542 104.868 99.2961L104.37 99.25L103.872 99.2039C103.756 100.456 103.64 101.452 103.432 102.238L103.916 102.365ZM104.37 99.25L104.868 99.2961C104.97 98.1891 105.078 96.7591 105.343 95.6373L104.856 95.5225L104.37 95.4076C104.084 96.6155 103.971 98.1361 103.872 99.2039L104.37 99.25ZM104.856 95.5225L105.343 95.6373C105.701 94.1195 106.041 92.9837 106.274 92.1582L105.793 92.0225L105.312 91.8867C105.082 92.6994 104.734 93.8629 104.37 95.4076L104.856 95.5225ZM105.793 92.0225L106.274 92.1582C106.519 91.2899 106.611 90.8747 106.635 90.5307L106.136 90.4951L105.638 90.4595C105.621 90.6885 105.558 91.0123 105.312 91.8867L105.793 92.0225ZM106.136 90.4951L106.635 90.5307C106.735 89.1291 106.851 87.384 106.847 85.8201L106.347 85.8213L105.847 85.8224C105.851 87.3448 105.738 89.0559 105.638 90.4595L106.136 90.4951ZM106.347 85.8213L106.847 85.8201C106.846 85.0377 106.814 84.3612 106.749 83.8326L106.253 83.8936L105.756 83.9545C105.815 84.4276 105.846 85.06 105.847 85.8224L106.347 85.8213ZM106.253 83.8936L106.749 83.8326C106.72 83.597 106.689 83.4357 106.667 83.3339C106.656 83.2832 106.647 83.248 106.644 83.2354C106.643 83.2315 106.644 83.2346 106.645 83.2398C106.645 83.2422 106.647 83.2509 106.649 83.2625C106.65 83.2684 106.652 83.2791 106.653 83.2926C106.654 83.3031 106.657 83.331 106.655 83.3668C106.654 83.3849 106.652 83.4167 106.643 83.4554C106.635 83.4892 106.614 83.5629 106.557 83.6397C106.491 83.7287 106.376 83.8189 106.216 83.8383C106.074 83.8555 105.966 83.8083 105.916 83.7807C105.824 83.7306 105.773 83.6637 105.766 83.6557C105.749 83.6346 105.738 83.6167 105.733 83.6089C105.723 83.5923 105.716 83.5789 105.714 83.5761C105.712 83.5713 105.71 83.5678 105.71 83.5671L106.159 83.3477L106.608 83.1282C106.607 83.1252 106.604 83.1197 106.601 83.1133C106.598 83.1088 106.591 83.0942 106.58 83.0767C106.574 83.0684 106.563 83.0502 106.546 83.0288C106.539 83.0206 106.487 82.9535 106.396 82.9033C106.345 82.8757 106.238 82.8284 106.096 82.8456C105.935 82.865 105.82 82.9553 105.754 83.0444C105.697 83.1212 105.676 83.195 105.669 83.2289C105.66 83.2676 105.657 83.2996 105.656 83.3178C105.653 83.3768 105.662 83.4243 105.662 83.425C105.664 83.4381 105.667 83.4485 105.668 83.453C105.67 83.4626 105.672 83.4715 105.673 83.475C105.677 83.4925 105.683 83.5135 105.69 83.5489C105.706 83.6193 105.731 83.7496 105.756 83.9545L106.253 83.8936ZM106.159 83.3477L106.602 83.1168C106.101 82.1541 105.755 80.985 105.532 79.9587L105.044 80.0645L104.555 80.1702C104.786 81.2396 105.157 82.5049 105.715 83.5785L106.159 83.3477ZM105.044 80.0645L105.532 79.9587C105.297 78.8713 105.144 77.6895 105.144 76.6806L104.644 76.6807L104.144 76.6807C104.144 77.7783 104.309 79.033 104.555 80.1702L105.044 80.0645ZM104.644 76.6807H105.144C105.144 76.3241 105.21 75.9827 105.33 75.6675L104.863 75.4893L104.396 75.311C104.233 75.7384 104.144 76.2005 104.144 76.6807H104.644ZM104.863 75.4893L105.346 75.3589C105.154 74.6476 104.882 73.7173 104.568 72.6239L104.088 72.7617L103.607 72.8996C103.923 74.0017 104.191 74.9183 104.38 75.6196L104.863 75.4893ZM104.088 72.7617V73.2617H104.089V72.7617V72.2617H104.088V72.7617ZM104.089 72.7617L104.569 72.6237C104.348 71.8546 103.779 70.0165 103.29 68.0354L102.804 68.1553L102.319 68.2752C102.814 70.2805 103.394 72.1558 103.608 72.8997L104.089 72.7617ZM102.804 68.1553L103.29 68.0354C102.813 66.1042 102.323 63.7059 102.345 61.7549L101.845 61.749L101.345 61.7432C101.321 63.8318 101.84 66.3371 102.319 68.2752L102.804 68.1553ZM101.845 61.749L102.345 61.7549C102.371 59.5421 102.938 57.7882 103.191 56.7807L102.706 56.6592L102.221 56.5377C101.983 57.4857 101.373 59.3826 101.345 61.7432L101.845 61.749ZM102.706 56.6592L103.191 56.7807C103.404 55.9282 103.429 55.5528 103.305 55.2187L102.837 55.3926L102.368 55.5665C102.372 55.5786 102.438 55.6714 102.221 56.5377L102.706 56.6592ZM102.837 55.3926L103.271 55.1442C103.264 55.1323 103.257 55.1204 103.252 55.1135C103.247 55.105 103.244 55.0994 103.241 55.0938L102.808 55.3447L102.376 55.5957C102.408 55.6511 102.385 55.6098 102.403 55.641L102.837 55.3926ZM102.808 55.3447L103.241 55.0938C103.177 54.984 103.056 54.7784 102.937 54.5702L102.503 54.8174L102.068 55.0646C102.189 55.2775 102.318 55.4952 102.376 55.5957L102.808 55.3447ZM102.503 54.8174L102.937 54.5702C102.688 54.1323 102.361 53.5285 102.064 52.829L101.604 53.0244L101.144 53.2198C101.462 53.9695 101.81 54.6107 102.068 55.0646L102.503 54.8174ZM101.604 53.0244L102.064 52.829C101.515 51.5358 100.847 49.4143 101.51 47.2136L101.031 47.0693L100.552 46.9251C99.7858 49.4688 100.568 51.8639 101.144 53.2198L101.604 53.0244ZM101.031 47.0693L100.552 46.9247C100.552 46.9244 100.554 46.92 100.556 46.9138C100.557 46.9107 100.559 46.9044 100.562 46.8964C100.564 46.8913 100.571 46.8718 100.584 46.8479C100.589 46.8371 100.603 46.8102 100.626 46.7791C100.631 46.7721 100.709 46.6569 100.865 46.6027C100.968 46.5669 101.106 46.5587 101.242 46.6227C101.364 46.6801 101.429 46.77 101.46 46.8213C101.514 46.913 101.523 46.9982 101.525 47.0112C101.531 47.0598 101.528 47.0987 101.528 47.1026C101.527 47.1149 101.526 47.1245 101.526 47.1287C101.524 47.144 101.522 47.1565 101.526 47.1318C101.531 47.1034 101.54 47.0509 101.552 46.9728C101.576 46.817 101.61 46.5635 101.649 46.1873L101.151 46.1367L100.654 46.0862C100.617 46.4465 100.584 46.6833 100.563 46.8217C100.553 46.8907 100.545 46.9361 100.54 46.9631C100.54 46.966 100.535 46.9954 100.532 47.0178C100.531 47.0229 100.53 47.0332 100.53 47.0461C100.529 47.0505 100.527 47.0898 100.533 47.1387C100.535 47.1518 100.544 47.2371 100.598 47.329C100.628 47.3802 100.694 47.4702 100.816 47.5276C100.952 47.5916 101.089 47.5834 101.193 47.5476C101.349 47.4933 101.427 47.3781 101.432 47.371C101.455 47.3398 101.469 47.3128 101.475 47.3019C101.487 47.2776 101.495 47.2576 101.497 47.2519C101.5 47.2432 101.503 47.2361 101.504 47.2321C101.507 47.2241 101.509 47.2172 101.51 47.214L101.031 47.0693ZM101.151 46.1367L101.649 46.1873C101.715 45.5338 101.775 44.701 101.827 43.7572L101.328 43.7295L100.829 43.7017C100.777 44.6385 100.718 45.4543 100.654 46.0862L101.151 46.1367ZM101.328 43.7295L101.827 43.7572C101.932 41.8727 102.001 39.633 102.028 37.6749L101.528 37.668L101.028 37.6611C101.001 39.6084 100.932 41.8339 100.829 43.7017L101.328 43.7295ZM101.528 37.668L102.028 37.6749C102.048 36.2632 102.062 34.9411 102.107 33.8665L101.607 33.8457L101.108 33.8249C101.062 34.9171 101.047 36.2572 101.028 37.6611L101.528 37.668ZM101.607 33.8457L102.107 33.8665C102.147 32.9021 102.218 31.7694 102.465 30.9368L101.985 30.7949L101.506 30.653C101.219 31.6224 101.147 32.8769 101.108 33.8249L101.607 33.8457ZM101.985 30.7949L102.465 30.9368C103.053 28.9496 103.788 27.3925 105.236 26.0872L104.901 25.7158L104.566 25.3444C102.925 26.8241 102.119 28.58 101.506 30.653L101.985 30.7949ZM104.901 25.7158L105.236 26.0872C105.865 25.5203 106.295 25.1703 106.848 24.6506L106.506 24.2861L106.163 23.9217C105.609 24.442 105.246 24.7316 104.566 25.3444L104.901 25.7158ZM106.506 24.2861L106.848 24.6506C107.357 24.1728 107.674 23.8148 107.841 23.5586L107.422 23.2861L107.002 23.0136C106.903 23.166 106.657 23.4576 106.163 23.9217L106.506 24.2861ZM107.422 23.2861L107.841 23.5586C108.05 23.2367 108.237 22.7917 108.507 22.0239L108.035 21.8584L107.563 21.6929C107.293 22.4623 107.139 22.8033 107.002 23.0137L107.422 23.2861ZM108.035 21.8584L108.507 22.0239C108.743 21.351 109.07 20.3359 109.538 19.3786L109.089 19.1592L108.639 18.9398C108.139 19.9638 107.788 21.0511 107.563 21.6929L108.035 21.8584ZM109.089 19.1592L109.538 19.3786C110.299 17.8203 111.653 16.102 113.371 14.879L113.081 14.4717L112.791 14.0643C110.928 15.3904 109.469 17.2417 108.639 18.9398L109.089 19.1592ZM113.081 14.4717L113.371 14.879C113.98 14.4454 114.605 14.0769 115.145 13.7665L114.895 13.333L114.646 12.8996C114.101 13.2128 113.442 13.6012 112.791 14.0643L113.081 14.4717ZM114.895 13.333L115.145 13.7665C115.72 13.4353 116.177 13.1831 116.64 12.894L116.376 12.4697L116.111 12.0454C115.668 12.322 115.241 12.5576 114.646 12.8996L114.895 13.333ZM116.376 12.4697L116.64 12.894C117.944 12.0813 118.774 11.8902 120.402 10.2015L120.042 9.85449L119.682 9.50751C118.169 11.0774 117.551 11.1475 116.111 12.0454L116.376 12.4697ZM120.042 9.85449L120.402 10.2015C120.951 9.63212 121.654 8.8766 122.347 8.28165L122.021 7.90234L121.695 7.52304C120.957 8.15723 120.21 8.95915 119.682 9.50751L120.042 9.85449ZM122.021 7.90234L122.347 8.28166C122.365 8.26608 122.374 8.25866 122.387 8.2469L122.063 7.86621L121.739 7.48552C121.725 7.49786 121.705 7.51486 121.695 7.52303L122.021 7.90234ZM122.063 7.86621L122.101 7.36761C121.852 7.34895 121.591 7.32899 121.319 7.30983L121.284 7.80859L121.249 8.30735C121.517 8.32631 121.775 8.34602 122.026 8.36481L122.063 7.86621ZM121.284 7.80859L121.286 7.3086C110.314 7.25523 102.673 7.40376 101.299 7.52236L101.342 8.02051L101.385 8.51866C102.703 8.40487 110.291 8.25514 121.282 8.30859L121.284 7.80859ZM101.342 8.02051L101.299 7.52236C98.1322 7.79568 84.8127 8.9192 76.7177 7.89652L76.655 8.39258L76.5924 8.88864C84.8143 9.92734 98.249 8.78932 101.385 8.51866L101.342 8.02051ZM76.655 8.39258L76.7177 7.89652C74.7005 7.64165 73.1671 7.05252 71.8643 6.4487L71.6541 6.90234L71.4438 7.35599C72.8014 7.98521 74.4379 8.61643 76.5924 8.88863L76.655 8.39258ZM71.6541 6.90234L71.8643 6.44871C70.5254 5.82808 69.7091 5.35136 68.6675 4.98275L68.5007 5.4541L68.3339 5.92546C69.3206 6.27464 70.0013 6.68735 71.4438 7.35598L71.6541 6.90234ZM68.5007 5.4541L68.575 4.95965C68.531 4.95303 68.4531 4.94169 68.3342 4.92873L68.28 5.42578L68.2258 5.92283C68.3275 5.93393 68.3915 5.9433 68.4265 5.94856L68.5007 5.4541ZM68.28 5.42578L68.3342 4.92873C68.0656 4.89943 67.6992 4.87 67.2446 4.8427L67.2146 5.3418L67.1846 5.8409C67.6307 5.86769 67.9794 5.89596 68.2258 5.92283L68.28 5.42578ZM67.2146 5.3418L67.2446 4.8427C66.3395 4.78835 65.1604 4.74498 63.8654 4.71111L63.8523 5.21094L63.8392 5.71077C65.1301 5.74453 66.2962 5.78755 67.1846 5.8409L67.2146 5.3418ZM63.8523 5.21094L63.8654 4.71111C61.3821 4.64616 58.528 4.61832 56.4798 4.61621L56.4792 5.11621L56.4787 5.61621C58.5208 5.61831 61.3663 5.64609 63.8392 5.71077L63.8523 5.21094Z" fill="black"/>
</g>
<defs>
<filter id="filter0_d_369_171" x="0" y="0" width="137.94" height="146.355" filterUnits="userSpaceOnUse" color-interpolation-filters="sRGB">
<feFlood flood-opacity="0" result="BackgroundImageFix"/>
<feColorMatrix in="SourceAlpha" type="matrix" values="0 0 0 0 0 0 0 0 0 0 0 0 0 0 0 0 0 0 127 0" result="hardAlpha"/>
<feOffset dy="4"/>
<feGaussianBlur stdDeviation="2"/>
<feComposite in2="hardAlpha" operator="out"/>
<feColorMatrix type="matrix" values="0 0 0 0 0 0 0 0 0 0 0 0 0 0 0 0 0 0 0.25 0"/>
<feBlend mode="normal" in2="BackgroundImageFix" result="effect1_dropShadow_369_171"/>
<feBlend mode="normal" in="SourceGraphic" in2="effect1_dropShadow_369_171" result="shape"/>
</filter>
</defs>
</svg>
