<svg width="158" height="219" viewBox="0 0 158 219" fill="none" xmlns="http://www.w3.org/2000/svg">
<g filter="url(#filter0_d_369_197)">
<path fill-rule="evenodd" clip-rule="evenodd" d="M77.0995 0.000670678C78.9809 -0.0222551 80.6231 0.548124 81.5653 0.860046C82.502 1.17013 83.3673 1.53776 83.9208 1.76434C84.2254 1.88903 84.4208 1.96567 84.5624 2.01434C84.5803 2.02048 84.5958 2.02592 84.6083 2.02997C85.4977 2.16385 86.1474 2.50044 86.5536 2.72821C86.7432 2.83452 86.969 2.96965 87.1357 3.06805C87.3255 3.18017 87.5384 3.30445 87.7987 3.44891C89.1895 4.22075 90.8643 5.24635 92.2021 5.95966C92.8675 6.31448 93.3241 6.50261 93.6903 6.64032C93.7902 6.67785 93.8879 6.71284 93.995 6.75165C94.0957 6.78812 94.2196 6.83329 94.3388 6.87762C94.5823 6.96824 94.8914 7.08799 95.2255 7.24969C96.1346 7.68977 97.0291 8.33846 97.7567 8.89423C98.4737 9.44181 99.3985 10.1937 100.129 10.7653C100.528 11.0776 101.217 11.3068 102.868 11.5837C103.096 11.6218 103.212 11.6173 103.279 11.611C103.362 11.6033 103.497 11.5813 103.79 11.4948C105.695 10.9331 107.714 11.959 108.3 13.7868C108.68 14.9744 108.36 16.2071 107.568 17.0798C107.722 17.3835 107.809 17.7235 107.809 18.0837C107.809 18.2141 107.81 19.6342 107.909 21.7712C107.94 21.792 107.974 21.8155 108.012 21.8405C108.741 22.3281 109.85 23.1046 110.905 24.6061C111.549 25.523 111.827 26.6041 111.969 27.5349C112.115 28.4985 112.147 29.5407 112.142 30.528C112.133 32.6842 111.981 34.409 112.087 35.9675C112.255 38.4446 112.527 40.3467 112.747 41.8493C112.948 43.2202 113.174 44.6179 113.078 45.697C112.995 46.6201 112.584 47.3941 112.199 47.9655C111.806 48.5489 111.313 49.1052 110.85 49.5993C109.841 50.6746 108.896 51.5594 108.003 52.6901C107.115 53.8144 106.685 55.0484 106.15 57.8659C105.162 63.0729 104.823 66.8351 104.784 67.3786C104.634 69.4787 104.189 73.3842 103.758 75.6052C103.272 78.109 102.952 81.8349 102.694 83.6599C102.683 83.7361 102.675 83.8795 102.68 84.0466C102.948 84.3758 103.183 84.689 103.379 84.9518C103.66 85.3295 103.864 85.5944 104.056 85.8093C104.817 85.7413 105.598 86.0215 106.126 86.6266C107.502 88.2064 110.144 91.4249 111.353 92.8649C111.988 93.6199 112.675 94.5418 113.289 95.3434C113.936 96.1878 114.52 96.9267 115.049 97.4821C117.2 99.743 117.842 102.465 118.174 103.994C118.4 105.038 118.812 105.245 119.975 106.679C120.473 107.295 121.033 107.961 122.373 109.675C125.067 113.124 126.52 115.494 127.391 117.216C127.827 118.079 128.107 118.756 128.314 119.284C128.546 119.875 128.613 120.062 128.697 120.222C129.611 121.957 130.045 123.767 130.466 125.096C131.057 126.966 131.142 128.613 131.151 130.068C131.159 131.391 131.115 132.41 131.222 133.514L131.276 133.995L131.293 134.11L131.296 134.226C131.366 136.611 131.554 138.538 131.809 139.858L131.921 140.386L131.947 140.494L131.962 140.605C132.003 140.911 132.033 141.251 132.059 141.58C132.282 141.72 132.485 141.896 132.656 142.111C133.097 142.665 133.758 143.537 134.38 144.467C134.971 145.351 135.649 146.468 135.997 147.458C136.446 148.737 136.614 150.432 136.713 152.012C136.809 153.54 136.864 155.595 136.948 157.127C136.966 157.446 136.975 157.768 136.983 158.051C137.777 158.242 138.49 158.391 139.184 158.546C140.104 158.751 141.174 159.002 142.08 159.469C143.43 160.166 144.566 160.907 145.561 162.062C146.395 163.03 147.043 164.19 147.697 165.62L147.978 166.249L148.011 166.324L148.038 166.401C148.33 167.227 148.548 167.96 148.696 168.548C149.571 168.434 150.39 168.324 151.118 168.213C152.43 168.012 153.663 168.869 153.873 170.128C154.083 171.386 153.189 172.571 151.878 172.772C148.371 173.31 142.622 173.898 138.925 174.364L138.865 174.371L138.805 174.377C138.156 174.427 137.471 174.459 136.934 174.492C136.356 174.527 135.896 174.564 135.519 174.622C135.43 174.636 135.352 174.649 135.285 174.663C135.267 174.738 135.245 174.817 135.218 174.899C135.112 175.219 134.916 175.633 134.539 176.015C133.903 176.66 133.078 177.021 132.427 177.247C131.73 177.488 130.928 177.675 130.104 177.837C128.493 178.152 126.335 178.45 124.114 178.812C121.657 179.213 120.539 179.347 119.955 180.85C119.916 180.951 119.868 181.144 119.824 181.504C119.803 181.675 119.785 181.856 119.766 182.067C119.747 182.266 119.726 182.503 119.699 182.734C119.649 183.163 119.559 183.797 119.304 184.402C119.028 185.057 118.468 185.881 117.386 186.303C116.358 186.704 115.293 186.814 113.452 186.928C111.567 187.046 108.414 187.181 103.059 187.476C101.687 187.552 100.196 187.561 98.6327 187.583C97.0462 187.605 95.3167 187.641 93.3554 187.763C89.3544 188.013 85.2789 188.124 83.2069 188.331C82.129 188.438 81.1372 188.626 79.996 188.833C78.8815 189.034 77.647 189.248 76.2675 189.344C75.5031 189.398 74.7902 189.413 74.1405 189.422C73.4725 189.431 72.903 189.434 72.3222 189.459C71.2064 189.505 70.1729 189.628 69.0028 190.003C65.7715 191.036 65.1651 191.239 64.4726 191.92C63.3644 193.009 61.636 195.016 59.0683 196.966C57.8095 197.923 56.7203 198.512 55.9208 198.948C55.0474 199.424 54.7826 199.596 54.6171 199.771C54.4016 200 54.2676 200.295 53.8993 201.178C53.5741 201.958 53.0844 203.115 52.0458 204.173C50.589 205.656 47.9643 208.15 46.8524 209.549C46.0466 210.562 44.5377 210.757 43.4814 209.984C43.0929 209.7 42.8207 209.324 42.6708 208.912C41.8883 208.954 41.0999 208.631 40.5995 207.981C39.8886 207.057 39.5673 206.573 39.3192 205.998L39.2919 205.933L39.2685 205.87C39.2871 205.922 39.1874 205.689 38.7304 205.084C38.3557 204.588 37.8275 203.957 37.1493 203.211C35.406 202.04 34.221 201.45 33.2714 201.028C32.3532 200.62 31.2059 200.198 30.079 199.511C28.9896 198.848 28.0206 198.389 26.7802 197.709C25.6328 197.08 24.3845 196.323 23.288 195.263C22.5112 194.513 21.3159 193.436 20.3241 191.539C19.3451 189.666 18.6276 187.137 18.3358 183.424C18.0795 180.162 18.0329 174.848 17.9023 172.26C17.7405 169.058 17.3333 166.184 17.7899 162.352C18.4664 156.677 18.4185 155.77 17.7099 154.61C17.0847 153.587 16.6249 152.431 16.2997 151.674C16.1205 151.258 15.9808 150.954 15.8534 150.723C15.7689 150.571 15.7195 150.505 15.7099 150.492C14.5787 149.479 13.4327 148.096 12.5331 146.598C12.1513 145.963 11.6031 145.181 10.9716 144.28C10.3694 143.421 9.69472 142.456 9.17178 141.579C8.88816 141.103 8.80061 140.57 8.88467 140.068C8.65756 139.919 8.43403 139.742 8.22061 139.534C7.84552 139.168 7.65664 139.087 6.75772 138.346C6.05436 137.767 5.10123 136.898 4.40909 135.624C3.4883 133.928 4.17426 131.837 5.94132 130.953C7.70832 130.069 9.88721 130.727 10.8085 132.423C10.8612 132.52 10.9724 132.667 11.286 132.941C11.3151 132.395 11.3254 131.803 11.3261 131.197C11.3263 130.951 11.2635 130.615 10.9892 129.886C10.7657 129.293 10.249 128.093 9.89835 126.926C9.03941 124.067 8.62612 121.59 9.11221 117.555C9.3293 115.754 9.93427 114.55 10.3681 113.713L10.5409 113.403C11.4438 111.909 12.8858 111.17 14.0419 110.811C15.25 110.437 16.5086 110.356 17.497 110.348C18.5137 110.34 19.518 110.412 20.246 110.464C20.6351 110.491 20.9277 110.512 21.1708 110.522C21.3533 110.53 21.4357 110.529 21.4501 110.529C22.321 110.449 23.219 110.35 24.0097 110.215C24.4052 110.147 24.737 110.076 24.9999 110.005C25.1292 109.97 25.2288 109.938 25.3017 109.912C25.3645 109.889 25.3952 109.875 25.4003 109.873C25.8807 109.636 26.3438 109.435 26.7372 109.269C27.1753 109.084 27.4379 108.98 27.7294 108.852C27.7626 108.838 27.7932 108.822 27.8222 108.809C28.479 107.638 28.7049 106.362 29.2011 104.376L29.2851 104.077C29.7487 102.6 30.8208 101.396 31.3866 100.754C32.1834 99.8484 32.7632 99.2467 33.2694 98.5358C33.28 98.5025 33.2982 98.4429 33.3173 98.3503C33.3774 98.0591 33.4189 97.6649 33.4657 97.0329C33.533 96.1252 33.5984 94.7655 33.9023 93.2946C33.8867 93.2835 33.8708 93.2721 33.8544 93.2604C33.3759 92.9186 32.2751 92.1746 31.4657 91.0026C30.7129 89.9123 30.322 88.6661 30.0683 87.5515C29.8086 86.4107 29.6298 85.1011 29.4628 83.7331C29.2279 81.809 29.2851 80.1133 29.5107 78.7692C29.622 78.1057 29.7859 77.4547 30.0185 76.8727C30.1339 76.5838 30.2936 76.2444 30.5146 75.9059C30.7019 75.6191 31.1041 75.0637 31.8085 74.6306C31.831 74.6107 32.119 74.3855 32.5497 73.8571C32.8908 73.4387 33.2147 72.9564 33.4706 72.4792C33.4609 72.4611 33.452 72.4407 33.4403 72.4206C33.4106 72.3694 33.3784 72.3191 33.3456 72.2712C33.0352 72.2548 32.5935 72.3294 31.8524 72.6286C31.3927 72.8143 30.9678 73.0197 30.3769 73.2946C29.856 73.5369 29.15 73.8601 28.4062 74.0895C27.4948 74.3706 26.5959 74.3884 25.956 74.3493C25.288 74.3084 24.5729 74.1839 23.9286 73.9684L22.8788 73.6179L22.2167 72.7595C20.737 70.8421 20.2784 69.2039 20.0683 67.9138L20.0468 67.7839L20.036 67.654C19.9875 67.0682 19.9682 66.2152 20.1278 65.2429C19.9414 64.0244 19.3578 60.9535 19.9159 56.278L19.9589 55.985C20.2106 54.5378 21.0182 53.3594 22.203 52.5895C23.2655 51.8994 24.4075 51.6904 25.0204 51.5974C25.0509 51.5927 25.0818 51.589 25.1122 51.5847C25.261 51.1424 25.4777 50.522 25.7773 49.9235L25.869 49.7458C26.8417 47.9456 28.4973 46.954 29.9091 46.3903C31.3607 45.8108 32.9594 45.521 34.3036 45.3317C34.9959 45.2343 35.6859 45.156 36.3124 45.0856C36.9577 45.0131 37.5241 44.9506 38.0507 44.8796C38.577 44.8086 38.9891 44.7385 39.3095 44.6647C39.6453 44.5873 39.7558 44.5334 39.7353 44.5436C40.3182 44.2531 40.8725 44.0036 41.3466 43.7927C41.8452 43.5709 42.2203 43.4063 42.5653 43.239C42.8436 43.104 43.0358 42.9957 43.1679 42.9147C45.2391 37.8259 46.3918 35.2122 48.2577 28.4362C48.8735 26.0121 49.545 23.116 51.2108 19.11C51.2154 19.099 51.2198 19.0878 51.2245 19.0768C51.2393 19.0424 51.2554 19.0084 51.2714 18.9743C51.2779 18.9603 51.2842 18.9462 51.2909 18.9323C51.3092 18.8946 51.3287 18.8573 51.3485 18.82C51.3611 18.7964 51.3736 18.7729 51.3866 18.7497C51.3953 18.7343 51.4041 18.7191 51.413 18.7038C51.4689 18.6075 51.5294 18.5149 51.5937 18.4255C52.7989 16.749 54.1203 14.9069 55.2675 13.5466C57.2758 11.1651 58.7309 10.2107 59.1991 9.8786C59.2011 9.87718 59.2155 9.86691 59.3056 9.79755C59.3978 9.7265 59.5293 9.62534 59.7011 9.50262C60.0469 9.25553 60.4899 8.96606 61.1425 8.5827C62.4396 7.82076 63.963 7.01814 65.2841 6.21356C66.4619 5.49622 66.8339 5.12649 66.9345 5.01434C67.0731 4.85952 66.8889 5.08085 67.3593 4.30633C68.3497 2.67571 70.0211 1.62225 71.4276 0.97821C73.4055 0.0727143 75.6814 0.0180159 77.0995 0.000670678ZM77.1913 6.92548C75.6593 6.94422 74.9018 7.06126 74.5351 7.22919C74.1704 7.3962 73.9039 7.55961 73.7304 7.69208C73.6448 7.75743 73.5979 7.80232 73.578 7.82294C73.5604 7.85309 73.5366 7.895 73.495 7.96942C73.4464 8.05655 73.3648 8.20189 73.2714 8.35712C73.0656 8.69892 72.7964 9.09443 72.4081 9.52801C71.6583 10.3652 70.6301 11.1595 69.1513 12.0602C67.9472 12.7935 65.6435 14.0587 64.911 14.489C64.3987 14.7899 64.1439 14.9628 64.0116 15.0573C63.9446 15.1052 63.8922 15.1455 63.8241 15.1979C63.7698 15.2398 63.6333 15.3457 63.4892 15.4479C63.2501 15.6175 63.0219 15.7634 62.62 16.1081C62.214 16.4563 61.6219 17.0195 60.8769 17.903C60.0005 18.9422 58.9381 20.406 57.7685 22.0319C56.4147 25.3581 55.8676 27.7246 55.2567 30.1257L55.2401 30.1891C53.1635 37.7333 51.8427 40.6105 49.5907 46.1716L49.3808 46.6911L49.0107 47.1208C48.0175 48.2766 46.7649 48.9614 45.8202 49.4196C45.3372 49.6539 44.8204 49.8808 44.3817 50.0759C43.9186 50.2819 43.4898 50.4756 43.0614 50.6891C41.765 51.3353 40.1818 51.585 39.0536 51.737C38.4255 51.8216 37.7626 51.8949 37.1513 51.9636C36.5216 52.0343 35.9268 52.1022 35.3505 52.1833C34.1569 52.3513 33.2811 52.5455 32.6815 52.7849C32.4323 52.8843 32.3031 52.9633 32.245 53.0046C32.1561 53.2 32.0655 53.4572 31.8964 53.9597C31.7329 54.4454 31.4785 55.21 31.0702 55.9694C30.5506 56.9359 29.7516 57.4803 29.1454 57.7712C28.5719 58.0464 28.0214 58.1686 27.6815 58.2321C27.4266 58.2797 27.1716 58.3124 26.9638 58.3376C26.7835 60.7843 26.9998 62.4687 27.1796 63.6472C27.5092 64.3755 27.5823 65.2149 27.3222 66.0339C27.229 66.3273 27.2088 66.6727 27.2255 66.9909C27.2298 67.0137 27.2337 67.0362 27.2382 67.0583C27.6974 66.8445 28.3691 66.5222 29.0536 66.2458C30.4604 65.6777 32.4977 65.0549 34.8671 65.487C36.5518 65.7943 37.964 66.6219 39.0321 67.9958C39.4491 68.5322 40.0462 69.4164 40.4179 70.5222C40.7946 71.6432 41.022 73.2631 40.2401 74.9489C39.6936 76.1274 38.9651 77.227 38.2333 78.1247C37.7817 78.6786 37.2438 79.2576 36.6571 79.7575C36.6504 79.7929 36.6423 79.8302 36.6357 79.8698C36.5256 80.5259 36.4659 81.5773 36.6308 82.9274C36.7974 84.2921 36.9428 85.2998 37.119 86.0739C37.2047 86.4501 37.2874 86.7201 37.3603 86.9118C37.3957 87.0051 37.4257 87.0717 37.4482 87.1159C37.4682 87.1553 37.4805 87.1737 37.4823 87.1765C37.4657 87.1525 37.4778 87.1805 37.5839 87.2712C37.7086 87.3778 37.8623 87.4893 38.164 87.7048C38.5919 88.0104 39.6242 88.7038 40.3944 89.7936L40.5448 90.0163L40.6464 90.1833C41.1556 91.0473 41.6122 92.3825 41.1298 94.0378C40.8218 95.0945 40.7681 96.1324 40.6649 97.5241C40.5863 98.5847 40.4773 100.658 39.3153 102.323C38.5024 103.487 37.4618 104.583 36.8993 105.222C36.5731 105.593 36.3718 105.843 36.244 106.029C36.219 106.066 36.2013 106.095 36.1884 106.116C35.8008 107.712 35.292 110.527 33.5976 113.032C33.0773 113.801 32.3942 114.266 31.9862 114.514C31.5438 114.783 31.0814 114.997 30.7245 115.153C29.8486 115.536 29.386 115.694 28.7001 116.032C27.6028 116.573 26.2916 116.858 25.2812 117.032C24.1898 117.219 23.0511 117.34 22.1161 117.425C21.3295 117.498 20.3053 117.412 19.7167 117.371C18.9471 117.316 18.232 117.268 17.5565 117.273C17.1143 117.277 16.7887 117.306 16.5624 117.341C16.5238 117.427 16.4907 117.507 16.4608 117.588C16.3863 117.789 16.3202 118.026 16.2812 118.35C15.9202 121.346 16.1993 122.896 16.8339 125.008C17.1008 125.897 17.37 126.453 17.7763 127.532C18.1314 128.475 18.5446 129.728 18.5429 131.205C18.5415 132.38 18.523 134.16 18.2118 135.727C18.0582 136.501 17.7848 137.491 17.2226 138.395C16.6915 139.249 15.7392 140.254 14.2401 140.657C14.4691 140.992 14.7109 141.343 14.9638 141.704C15.5585 142.552 16.218 143.486 16.7021 144.292C17.3882 145.434 18.2507 146.457 19.0097 147.133C19.5198 147.586 19.8663 148.13 20.1034 148.558C20.3494 149.003 20.5644 149.487 20.748 149.914C21.1482 150.845 21.4515 151.604 21.8612 152.275C23.5553 155.048 23.1809 157.754 22.5702 162.878C22.1726 166.214 22.5259 168.434 22.7079 172.037C22.861 175.068 22.8748 179.794 23.1327 183.077C23.3935 186.396 24.0107 188.292 24.6259 189.469C25.2281 190.621 25.886 191.222 26.7011 192.009C27.3342 192.621 28.1321 193.131 29.1679 193.699C30.1104 194.216 31.4639 194.885 32.6591 195.613C33.4273 196.081 33.9834 196.256 35.2929 196.838C36.5308 197.387 38.0369 198.149 40.164 199.598L40.3915 199.753L40.5751 199.953C41.4125 200.863 42.1034 201.682 42.6259 202.374C43.0671 202.958 43.5155 203.619 43.7636 204.232H43.7646C43.7748 204.257 43.7989 204.362 44.4198 205.173C45.8583 203.642 47.683 201.882 48.5439 201.006C48.9055 200.637 49.1212 200.21 49.4325 199.464C49.7007 198.82 50.1348 197.644 51.0487 196.674C51.8313 195.844 52.8361 195.32 53.5448 194.933C54.3279 194.506 55.1365 194.064 56.0829 193.345C58.3285 191.64 59.5937 190.107 61.0292 188.696C62.7265 187.027 64.7115 186.508 67.4814 185.622C69.2108 185.069 70.7194 184.904 72.1122 184.845C72.7852 184.817 73.4619 184.814 74.0722 184.805C74.7009 184.797 75.2999 184.783 75.9198 184.74C77.0025 184.665 78.0027 184.494 79.1054 184.295C80.1813 184.1 81.3909 183.87 82.7099 183.739C84.8689 183.524 89.3895 183.384 93.0429 183.156C95.127 183.026 96.9534 182.989 98.5634 182.966C100.196 182.944 101.544 182.935 102.783 182.867C108.245 182.566 111.259 182.438 113.142 182.321C114.031 182.266 114.575 182.214 114.923 182.169C114.94 182.018 114.956 181.856 114.974 181.661C114.993 181.453 115.014 181.21 115.045 180.963C115.104 180.484 115.206 179.857 115.447 179.237C117.167 174.811 121.639 174.533 123.308 174.26C125.736 173.864 127.624 173.61 129.142 173.313C129.833 173.178 130.345 173.05 130.713 172.929C130.751 172.793 130.806 172.63 130.89 172.456C131.76 170.644 133.729 170.22 134.76 170.062C135.85 169.895 137.378 169.852 138.373 169.777C140.033 169.569 141.957 169.35 143.884 169.128C143.787 168.795 143.661 168.401 143.506 167.957C142.812 166.378 142.331 165.557 141.853 165.004C141.411 164.49 140.871 164.087 139.802 163.536C139.542 163.402 139.085 163.264 138.096 163.044C137.195 162.843 135.952 162.592 134.522 162.201C133.904 162.032 133.134 161.653 132.649 160.824C132.277 160.187 132.239 159.518 132.223 159.302C132.199 158.998 132.188 158.643 132.179 158.33C132.169 157.996 132.16 157.677 132.143 157.369C132.04 155.475 132.015 153.956 131.91 152.29C131.809 150.677 131.657 149.556 131.437 148.93C131.292 148.517 130.896 147.809 130.329 146.961C130.244 146.833 130.156 146.708 130.069 146.584C128.881 146.646 127.8 145.856 127.576 144.703C127.431 143.954 127.363 143.239 127.315 142.642C127.267 142.037 127.243 141.632 127.198 141.272C126.809 139.562 126.575 137.185 126.49 134.472C126.282 132.842 126.348 131.295 126.341 130.094C126.333 128.808 126.255 127.679 125.862 126.438C125.314 124.707 125.066 123.566 124.402 122.305C124.164 121.853 123.963 121.297 123.811 120.911C123.635 120.461 123.413 119.925 123.062 119.231C122.357 117.838 121.083 115.719 118.523 112.444C117.217 110.773 116.698 110.156 116.177 109.513C115.565 108.758 113.986 107.344 113.463 104.935C113.146 103.475 112.698 101.86 111.496 100.596C110.774 99.8381 110.053 98.9153 109.411 98.0768C108.736 97.1957 108.152 96.4112 107.607 95.7624C106.519 94.4669 104.537 92.0597 103.138 90.4118C102.725 90.3954 102.312 90.2799 101.939 90.0505C101.648 89.871 101.206 89.6019 100.705 89.1364L100.653 89.0876L100.603 89.0358C100.152 88.562 99.7656 88.0392 99.4667 87.6384C99.1414 87.2021 98.8818 86.8573 98.5898 86.5378L98.247 86.1628L98.0956 85.6852C97.8307 84.8467 97.8269 83.7459 97.9267 83.0397C98.1179 81.6859 98.5233 77.3558 99.0273 74.7595C99.4131 72.7715 99.8404 69.0559 99.9833 67.0622C100.034 66.359 100.395 62.4254 101.417 57.0388C101.97 54.1248 102.548 51.9513 104.169 49.9001C105.223 48.5652 106.507 47.3282 107.274 46.5104C107.699 46.058 107.98 45.7231 108.157 45.4597C108.234 45.345 108.271 45.2725 108.287 45.238C108.31 44.8083 108.214 44.0725 107.982 42.4919C107.758 40.9613 107.465 38.9214 107.285 36.2673C107.168 34.5374 107.324 32.1442 107.331 30.5085C107.335 29.5999 107.303 28.8258 107.208 28.2009C107.108 27.5436 106.969 27.2616 106.916 27.1862C106.348 26.3771 105.798 25.9879 105.261 25.6286C105.043 25.4829 104.542 25.167 104.159 24.7995C103.668 24.3281 103.187 23.62 103.136 22.6423C103.034 20.7211 103.01 19.2481 103.003 18.5368C102.573 18.5277 102.117 18.4882 101.626 18.4059C100.112 18.1522 97.6094 17.7298 95.5673 16.1315C94.6273 15.3958 93.9773 14.8591 93.2626 14.3132C92.5588 13.7757 92.1643 13.5252 91.9745 13.4333C91.812 13.3546 91.7883 13.3627 91.0565 13.0876C90.4438 12.8572 89.6884 12.5424 88.6962 12.0134C87.4682 11.3585 85.0038 9.89817 84.1855 9.44403C83.846 9.25563 83.5719 9.09452 83.3534 8.96551C83.2254 8.88991 83.1353 8.8378 83.0653 8.79657C82.692 8.71818 82.3669 8.61631 82.1298 8.53485C81.7676 8.41039 81.3986 8.26129 81.0888 8.13446C80.4128 7.85773 79.8432 7.61594 79.2118 7.40692C78.1282 7.04821 77.6319 6.92013 77.1913 6.92548Z" fill="#151515"/>
</g>
<defs>
<filter id="filter0_d_369_197" x="0" y="0" width="157.903" height="218.457" filterUnits="userSpaceOnUse" color-interpolation-filters="sRGB">
<feFlood flood-opacity="0" result="BackgroundImageFix"/>
<feColorMatrix in="SourceAlpha" type="matrix" values="0 0 0 0 0 0 0 0 0 0 0 0 0 0 0 0 0 0 127 0" result="hardAlpha"/>
<feOffset dy="4"/>
<feGaussianBlur stdDeviation="2"/>
<feComposite in2="hardAlpha" operator="out"/>
<feColorMatrix type="matrix" values="0 0 0 0 0 0 0 0 0 0 0 0 0 0 0 0 0 0 0.25 0"/>
<feBlend mode="normal" in2="BackgroundImageFix" result="effect1_dropShadow_369_197"/>
<feBlend mode="normal" in="SourceGraphic" in2="effect1_dropShadow_369_197" result="shape"/>
</filter>
</defs>
</svg>
