<svg width="139" height="185" viewBox="0 0 139 185" fill="none" xmlns="http://www.w3.org/2000/svg">
<g filter="url(#filter0_d_369_338)">
<path fill-rule="evenodd" clip-rule="evenodd" d="M43.9175 1.21679C45.2103 -0.238595 47.4877 -0.413234 49.0044 0.827137C49.2567 1.0335 49.4712 1.26662 49.649 1.51757C49.8874 1.49015 50.1334 1.49614 50.3804 1.541L50.5015 1.56542L50.7076 1.62011C51.1926 1.76206 51.7118 2.00514 52.0962 2.19042C52.6141 2.44004 53.2325 2.75941 53.8765 3.09374C55.196 3.77872 56.6946 4.56167 58.1294 5.20409C59.4481 5.7945 61.1246 6.51574 62.6939 7.65526C63.2025 8.02463 64.3301 8.3789 66.815 8.65526C67.9805 8.78489 68.9714 9.22307 69.5826 9.48046C70.2902 9.77846 70.6388 9.90658 70.9839 9.94335C72.0685 10.0588 73.1356 10.3964 74.0064 10.6982C74.984 11.0371 75.6717 11.3115 76.4243 11.5351C77.746 11.9278 79.7698 12.2849 81.4517 13.7383C82.4179 14.5733 83.0656 15.5342 83.5786 16.3984C84.1813 17.4135 84.4318 17.9636 85.0064 18.8721C85.1316 19.07 85.3699 19.2896 85.9117 19.543C86.5312 19.8326 87.1132 19.9894 88.0591 20.3232C89.8136 20.9425 90.9269 21.4702 92.5884 21.8594C94.261 22.2512 95.6972 22.9131 97.0865 23.7646C97.8637 24.2411 98.5594 24.7645 99.1704 25.2363C99.8107 25.7307 100.326 26.1426 100.877 26.5283C103.04 28.0414 104.189 30.1746 104.79 31.8125C105.341 33.3169 105.343 34.8451 105.266 36.082C105.228 36.6999 105.162 37.3339 105.114 37.8564C105.063 38.409 105.029 38.8739 105.029 39.291C105.028 39.9991 105.216 40.4439 105.665 41.8467C106.096 43.1971 106.566 44.9464 106.709 47.6973C106.789 49.242 106.506 50.578 106.231 51.7119C105.943 52.899 105.687 53.7957 105.58 54.8574C105.259 58.0316 104.818 60.169 104.306 61.7705C103.785 63.4018 103.206 64.4112 102.773 65.2109C102.07 66.5095 102.129 67.4783 101.716 69.3496C101.257 71.4333 100.613 74.2141 100.376 76.0732C99.9564 79.3556 100.706 79.7185 101.026 81.7314C101.203 82.8471 101.668 83.9328 102.269 85.4414C102.525 86.0835 103.071 86.745 104.171 87.4424L104.626 87.7226C105.739 88.4401 106.543 89.3554 107.221 90.3379C107.912 91.3377 108.571 92.5626 109.271 93.8086C110.121 95.3217 110.328 96.7653 110.381 97.9043C110.406 98.4387 110.399 98.9837 110.401 99.3242C110.403 99.7286 110.418 99.9106 110.437 100.004C110.503 100.331 110.729 100.882 111.18 101.738C111.393 102.142 111.629 102.564 111.885 103.022C112.136 103.472 112.406 103.955 112.663 104.439C112.932 104.948 113.452 105.26 114.744 105.77C115.813 106.191 116.661 106.832 117.315 107.382C118.126 108.063 118.394 108.36 119.024 108.856C120.265 109.834 121.726 110.965 123.045 111.891C124.458 112.882 124.946 114.365 125.208 115.294C125.536 116.459 125.607 117.03 125.917 117.704C126.484 118.94 127.008 119.881 127.495 120.75C127.969 121.597 128.466 122.471 128.859 123.428C129.672 125.406 129.886 127.513 130.035 128.864C130.109 129.542 130.417 130.469 130.883 131.59C131.266 132.509 131.917 133.907 132.241 134.749C132.937 136.558 133.507 138.455 133.892 140.824C134.629 145.352 133.35 148.287 133.246 149.217C133.122 150.321 132.758 151.241 132.444 151.95C132.089 152.751 131.883 153.127 131.729 153.614C131.677 153.779 131.652 153.862 131.63 153.957C131.61 154.045 131.587 154.171 131.57 154.371C131.551 154.584 131.546 154.805 131.562 154.989C131.569 155.072 131.579 155.127 131.586 155.157C132.155 156.272 131.703 157.625 130.552 158.21C130.402 158.286 130.248 158.345 130.091 158.389C130.073 158.436 130.054 158.483 130.034 158.529C128.499 161.987 127.508 164.769 125.467 168.368C125.551 168.517 125.626 168.673 125.688 168.837C126.37 170.634 125.404 172.621 123.532 173.275C123.349 173.339 123.247 173.376 123.156 173.412C123.076 173.444 123.036 173.463 123.014 173.475C122.751 173.613 122.849 173.589 122.114 174.028L121.922 174.143L121.718 174.233C120.586 174.735 119.432 174.819 118.732 174.851C118.358 174.867 117.967 174.872 117.674 174.877C117.354 174.882 117.097 174.889 116.859 174.904C115.951 174.963 115.921 175.107 115.854 175.195C114.682 176.742 112.426 177.085 110.814 175.961C110.303 175.605 109.919 175.143 109.668 174.631C108.808 174.2 108.269 173.294 108.39 172.314C108.523 171.24 108.49 170.112 108.36 169.502C108.163 168.577 107.972 167.925 107.562 167.241C107.362 166.908 107.187 166.512 107.094 166.313C106.978 166.064 106.874 165.851 106.739 165.634C106.489 165.231 106.065 164.693 105.168 164.058C104.251 163.408 103.698 162.528 103.356 161.992C102.964 161.379 102.671 160.905 102.212 160.412C101.84 160.012 101.583 159.575 101.423 159.294C101.223 158.94 101.14 158.773 100.988 158.528C100.753 158.151 100.526 157.895 100.142 157.687C99.8326 157.52 99.6973 157.451 99.5445 157.396C99.4207 157.352 99.2453 157.305 98.9527 157.293C98.2756 157.265 97.669 157.27 97.1099 157.281C96.5921 157.291 95.9977 157.31 95.5103 157.294C95.0693 157.279 94.3137 157.235 93.6011 156.901C92.6579 156.46 92.0463 155.649 91.8775 154.668C91.8298 154.39 91.7975 154.13 91.772 153.909C91.7428 153.656 91.7299 153.528 91.7085 153.356C91.7024 153.307 91.6937 153.267 91.689 153.234C91.4298 152.83 91.1295 152.393 90.814 151.943C90.4627 151.442 90.0721 150.893 89.7749 150.44C89.5499 150.097 89.3642 149.767 89.2134 149.493C89.0492 149.195 88.9457 149 88.8286 148.803C88.6071 148.429 88.5114 148.364 88.4937 148.353C88.471 148.344 88.0799 148.155 87.1324 148.072C86.2085 147.991 84.9418 148.028 83.3872 148.314C82.9591 148.393 82.5267 148.408 82.2017 148.413C81.8888 148.418 81.4649 148.412 81.1587 148.412C80.4644 148.413 79.7436 148.436 78.9673 148.57C78.2741 148.69 77.906 148.915 77.0884 149.501C76.511 149.915 76.1063 150.251 75.7193 150.575C75.3462 150.888 74.9008 151.265 74.3599 151.61C73.8222 151.953 73.1856 152.367 72.5904 152.71C72.0324 153.031 71.2853 153.426 70.521 153.616C69.5815 153.85 68.5796 153.934 67.6968 153.913C66.8983 153.894 65.8942 153.782 65.0708 153.413C65.0575 153.41 65.0284 153.402 64.979 153.395C64.8068 153.367 64.6841 153.36 64.315 153.319C63.6784 153.249 62.6841 153.111 61.6402 152.513C60.5534 151.89 59.9693 150.999 59.6519 150.489C59.3813 150.054 59.2215 149.597 59.1333 149.343C59.0468 149.093 58.9973 148.951 58.9497 148.826C58.8394 148.831 58.7103 148.84 58.5601 148.85C57.9552 148.89 57.0268 148.971 56.1216 148.988C55.2154 149.005 54.1164 148.967 53.0767 148.702C52.0325 148.436 50.7742 147.868 49.9751 146.629C49.8389 146.418 49.6557 146.086 49.5152 145.827C49.3575 145.798 49.1397 145.765 48.8452 145.736C47.0852 145.563 43.8267 145.564 41.898 145.53C40.1072 145.499 39.6074 145.442 39.0288 145.272C39.3119 145.355 38.5136 145.184 37.9527 144.804C37.2614 144.335 36.8671 143.671 36.6451 143C35.429 139.326 35.1419 137.669 35.022 136.324C34.9963 136.036 34.9782 135.82 34.9517 135.599C34.9479 135.567 34.9429 135.536 34.939 135.507C34.5983 135.487 34.1943 135.468 33.7505 135.454C32.4535 135.412 30.9271 135.397 29.8872 135.397C28.5589 135.397 27.482 134.364 27.482 133.089C27.482 132.971 27.4936 132.856 27.5113 132.743C27.0254 132.382 26.6983 131.854 26.604 131.27C26.5447 131.229 26.4743 131.185 26.3911 131.136C26.1921 131.019 26.0396 130.942 25.7515 130.784C25.5136 130.654 25.1722 130.461 24.8452 130.212C24.283 129.784 24.0118 129.248 23.8775 128.878C23.7409 128.501 23.6873 128.137 23.6636 127.853C23.6167 127.289 23.6619 126.682 23.7163 126.172C23.7726 125.644 23.8559 125.076 23.9273 124.579C24.0023 124.058 24.0649 123.606 24.0992 123.217C24.1956 122.121 24.3373 121.026 24.4742 120.011C24.6136 118.976 24.7445 118.048 24.8355 117.206C24.9157 116.463 25.0939 115.703 25.2886 114.949C25.5017 114.124 25.711 113.391 25.9702 112.355C26.6159 109.777 27.2534 107.979 27.5054 107.083C27.755 106.195 27.8215 105.671 27.6568 104.638C27.2614 102.157 27.5609 100.166 28.0015 98.6416C28.2178 97.8935 28.4654 97.2708 28.6499 96.8135C28.7476 96.5716 28.812 96.4116 28.8648 96.2705C28.9192 96.1249 28.922 96.0971 28.9146 96.1328C29.1156 95.1632 29.3166 94.4428 29.4742 93.8711C29.6349 93.2878 29.7281 92.9319 29.7847 92.5518C29.9395 91.512 29.8913 90.8589 29.8111 90.4512C29.7339 90.0594 29.6102 89.7951 29.4468 89.4834C29.3086 89.2198 29.0713 88.9068 28.6597 88.4756C28.2119 88.0064 27.7797 87.6163 27.1363 86.9824C26.7148 86.5673 26.277 85.9729 25.8941 85.4717C25.4587 84.9019 24.9043 84.1857 24.1226 83.2803C22.5036 81.405 20.0073 78.6974 18.5952 77.209C17.4181 75.9682 16.5842 75.1896 15.9029 74.5791C15.755 74.558 15.6068 74.5246 15.4605 74.4756C15.2707 74.412 15.082 74.3488 14.8951 74.2861C14.2119 74.0572 13.5781 73.7127 12.8726 73.1348L12.7896 73.0674L12.7134 72.9922C10.9841 71.293 10.3057 69.4043 9.64993 68.1182C9.28917 67.4107 8.78684 66.6077 8.272 65.7666C8.02768 65.3674 7.77666 64.9525 7.5679 64.5762C7.37902 64.2356 7.13914 63.7756 7.00052 63.3223C6.68477 62.2892 6.49321 60.9677 6.32474 59.5723C6.25634 59.0057 6.14736 58.5455 5.93411 57.3418C5.73458 56.2154 5.48443 54.6363 5.19583 52.1328C5.02644 50.6632 5.02677 47.8374 5.02689 43.4004C4.62885 43.0098 4.32158 42.5232 4.14896 41.9629C3.58407 40.1289 4.67523 38.2032 6.58646 37.6611C10.6554 36.5071 13.873 35.6118 16.1519 34.915C17.2111 34.5912 17.9856 34.3318 18.5103 34.1328C19.6205 32.1569 20.7507 29.2834 21.4781 27.2568C21.4983 27.2005 21.5384 27.0532 21.5796 26.5947C21.6104 26.2525 21.6586 25.4348 21.7534 24.7207C21.9792 23.0221 22.5321 21.0244 24.1099 18.6582C24.696 17.7793 25.501 17.0255 26.2056 16.4199C26.9371 15.7912 27.8209 15.1066 28.7027 14.4189C30.515 13.0055 32.6464 11.3246 34.9009 9.08397C36.9762 7.02148 38.5113 5.793 39.7271 4.90331C41.1047 3.89524 41.4356 3.73083 41.8824 3.3037C42.2713 2.93181 42.5304 2.69703 42.7359 2.52636C42.7552 2.51034 42.7749 2.49576 42.7925 2.48143C42.814 2.45759 42.841 2.42886 42.8726 2.39354C43.0642 2.17904 43.3689 1.83443 43.9175 1.21679ZM48.3521 6.90038C48.207 7.06279 47.9865 7.31381 47.7534 7.52245C47.6259 7.63662 47.5083 7.72678 47.4605 7.76268L47.3433 7.86522C47.2679 7.93386 47.1508 8.04293 46.9761 8.20995C46.0805 9.06626 44.8858 9.83809 44.104 10.4101C43.1602 11.1008 41.8996 12.0983 40.0923 13.8945C37.5156 16.4553 35.0966 18.357 33.2554 19.793C32.3103 20.53 31.5905 21.0888 31.0201 21.5791C30.7437 21.8166 30.5406 22.0053 30.3941 22.1562C30.3227 22.2298 30.2718 22.2871 30.2368 22.3291C30.205 22.3673 30.1908 22.3879 30.189 22.3906C29.2621 23.7807 29.0219 24.7741 28.9126 25.5967C28.84 26.143 28.8348 26.4691 28.7701 27.1894C28.7158 27.7935 28.619 28.6291 28.3023 29.5117C27.4969 31.7557 25.946 35.7969 24.2408 38.4639C23.6617 39.3694 22.7908 39.8302 22.5708 39.9502C22.1805 40.163 21.754 40.3461 21.3609 40.5C20.5619 40.8129 19.525 41.1523 18.3433 41.5137C16.2117 42.1654 13.2995 42.9799 9.83841 43.959C9.83942 48.206 9.8509 50.5217 9.97806 51.625C10.2569 54.0438 10.4941 55.5335 10.6773 56.5674C10.8467 57.5235 11.0167 58.3173 11.104 59.041C11.2758 60.4637 11.4315 61.4164 11.6167 62.0224C11.6064 61.9885 11.6408 62.0905 11.8159 62.4062C11.9716 62.6869 12.1753 63.0256 12.4214 63.4277C12.8876 64.1893 13.5091 65.1827 13.9712 66.0889C14.5163 67.1578 14.8195 67.8736 15.1646 68.4766C15.3795 68.5079 15.5937 68.5664 15.8013 68.6572C15.9346 68.7156 16.0468 68.763 16.149 68.8066C16.2438 68.8472 16.3515 68.8935 16.4488 68.9375C16.6242 69.0168 16.8787 69.1382 17.1499 69.335L17.2681 69.4228L17.4507 69.581C17.6199 69.7367 17.7438 69.8791 17.7984 69.9414C17.8693 70.0222 17.8964 70.0527 17.9117 70.0693C18.7122 70.7986 19.9824 71.8117 22.1538 74.1006C23.5937 75.6183 26.1435 78.3842 27.8277 80.335C28.6972 81.3422 29.3146 82.1413 29.773 82.7412C30.2836 83.4095 30.4617 83.6417 30.5826 83.7607C31.0531 84.2243 31.7072 84.8323 32.2076 85.3564C32.7441 85.9186 33.3189 86.595 33.7456 87.4092C33.9941 87.8833 34.3409 88.5909 34.5386 89.5957C34.7332 90.5852 34.764 91.7562 34.5484 93.2051C34.4463 93.8904 34.2788 94.4947 34.1255 95.0508C33.969 95.6185 33.8025 96.2181 33.6333 97.0342C33.1992 99.128 31.8192 100.216 32.4126 103.939C32.6923 105.694 32.5479 106.869 32.1499 108.285C31.7542 109.693 31.3075 110.804 30.649 113.435C30.3979 114.437 30.1274 115.406 29.9585 116.06C29.7713 116.784 29.665 117.28 29.6216 117.682C29.5224 118.6 29.3789 119.614 29.2456 120.603C29.1098 121.61 28.9799 122.619 28.8931 123.605C28.8466 124.134 28.7659 124.702 28.6929 125.21C28.6163 125.743 28.548 126.214 28.5025 126.642C28.49 126.758 28.4794 126.863 28.4722 126.956C28.6096 127.031 28.763 127.116 28.9038 127.199C29.5137 127.558 30.3488 128.125 30.982 129.083C31.3932 129.705 31.4598 130.334 31.4331 130.79C32.2364 130.799 33.111 130.814 33.9117 130.84C34.5908 130.862 35.2477 130.892 35.7701 130.933C36.0263 130.953 36.2912 130.979 36.5269 131.015C36.6426 131.032 36.7933 131.058 36.9517 131.099C37.0292 131.118 37.3254 131.192 37.6519 131.375L37.7935 131.46L37.9927 131.6C38.9556 132.316 39.3517 133.297 39.5357 133.994C39.7259 134.715 39.7766 135.501 39.815 135.932C39.8887 136.758 40.0562 137.94 41.0005 140.888C41.2395 140.897 41.559 140.906 41.9868 140.914C43.6857 140.944 47.3095 140.944 49.3365 141.144C50.3691 141.245 51.2767 141.42 52.0171 141.794C52.9593 142.27 53.3583 142.929 53.5533 143.272C53.8584 143.81 53.9099 143.943 54.0318 144.142C54.0718 144.163 54.156 144.2 54.3111 144.239C54.7075 144.34 55.2817 144.386 56.0269 144.372C56.7729 144.358 57.4764 144.293 58.2271 144.243C58.5731 144.22 58.9554 144.199 59.3072 144.201C59.5568 144.203 60.0133 144.213 60.4898 144.341L60.6939 144.403L60.982 144.513C62.3707 145.093 63.019 146.175 63.3482 146.936C63.506 147.3 63.6346 147.703 63.6978 147.885C63.7768 148.113 63.8036 148.157 63.7906 148.135C64.0223 148.505 64.099 148.544 64.107 148.549C64.2556 148.634 64.4209 148.684 64.8658 148.733C65.0373 148.752 65.4367 148.789 65.7613 148.84C66.1301 148.898 66.6129 149.002 67.1177 149.234C67.0348 149.196 67.0486 149.217 67.2163 149.246C67.3644 149.271 67.5692 149.292 67.8169 149.298C68.3241 149.31 68.8726 149.256 69.315 149.146C69.3217 149.144 69.3923 149.123 69.5406 149.055C69.694 148.984 69.8844 148.884 70.1148 148.751C70.5883 148.478 71.1014 148.145 71.6968 147.766C71.9305 147.617 72.1405 147.445 72.5562 147.097C72.9582 146.76 73.4772 146.325 74.2095 145.801C75.1319 145.14 76.2576 144.347 78.1158 144.026C79.3068 143.821 80.3578 143.797 81.1548 143.796C81.5942 143.796 81.847 143.8 82.1294 143.796C82.3845 143.792 82.4739 143.781 82.48 143.78C84.4196 143.423 86.1418 143.349 87.5699 143.475C88.9201 143.593 90.2565 143.912 91.2232 144.551C92.132 145.152 92.6633 145.934 93.0103 146.519C93.1779 146.801 93.3457 147.116 93.4683 147.339C93.6043 147.586 93.7215 147.791 93.8462 147.981C94.092 148.356 94.4164 148.811 94.8052 149.365C95.1762 149.894 95.5924 150.494 95.9517 151.072C96.193 151.461 96.3043 151.845 96.3628 152.091C96.4119 152.297 96.4434 152.502 96.4673 152.677C96.627 152.673 96.8077 152.67 97.0142 152.666C97.6101 152.655 98.3345 152.646 99.1626 152.681C100.839 152.751 101.851 153.313 102.501 153.664C103.856 154.395 104.621 155.362 105.119 156.161C105.332 156.505 105.551 156.915 105.648 157.085C105.785 157.327 105.823 157.361 105.801 157.337C106.599 158.194 107.113 159.039 107.458 159.578C107.851 160.194 107.967 160.302 108.024 160.343C110.875 162.362 111.533 164.604 111.735 164.941C112.528 166.267 112.843 167.493 113.074 168.578C113.084 168.624 113.089 168.671 113.098 168.718C114.281 168.216 115.452 168.054 116.375 167.994C116.721 167.972 117.055 167.963 117.345 167.957C120.47 163.242 121.264 160.613 123.394 155.815C123.991 154.471 125.369 153.677 126.803 153.711C126.883 153.045 127.017 152.616 127.126 152.273C127.38 151.471 127.803 150.625 128.016 150.144C128.27 149.57 128.415 149.148 128.462 148.723C128.768 146.002 129.763 145.381 129.137 141.537C128.807 139.51 128.329 137.909 127.728 136.348C127.39 135.47 126.982 134.664 126.416 133.303C125.933 132.142 125.399 130.708 125.25 129.351C125.09 127.902 124.918 126.422 124.383 125.121C124.114 124.467 123.766 123.844 123.257 122.937C122.761 122.051 122.162 120.978 121.514 119.567C121.011 118.471 120.729 117.089 120.563 116.499C120.364 115.793 120.226 115.636 120.206 115.617C118.77 114.61 117.222 113.41 115.971 112.425C115.377 111.957 114.513 111.164 114.147 110.856C113.624 110.417 113.25 110.171 112.915 110.039C111.758 109.583 109.547 108.746 108.374 106.531C108.145 106.099 107.9 105.662 107.644 105.204C107.393 104.755 107.13 104.283 106.887 103.822C106.428 102.951 105.917 101.895 105.712 100.875C105.602 100.323 105.592 99.7637 105.589 99.3516C105.587 98.8753 105.594 98.5267 105.575 98.1123C105.539 97.3535 105.415 96.6742 105.036 95.999C104.259 94.617 103.744 93.6618 103.21 92.8887C102.71 92.1636 102.3 91.7677 101.855 91.5019C100.052 90.4247 98.545 89.0223 97.7749 87.0908C97.2606 85.8007 96.5435 84.155 96.2691 82.4268C96.1789 81.8594 95.08 79.5851 95.6001 75.5117C95.8703 73.396 96.5799 70.3399 97.0093 68.3935C97.2139 67.4658 97.3996 65.1225 98.5034 63.083C98.9449 62.2673 99.3288 61.5976 99.7066 60.416C100.094 59.2048 100.49 57.3942 100.791 54.4121C100.937 52.9599 101.304 51.6553 101.544 50.665C101.798 49.6215 101.948 48.8022 101.903 47.9267C101.784 45.6452 101.41 44.2811 101.065 43.2021C100.737 42.1761 100.215 40.8743 100.217 39.2842C100.218 38.6546 100.269 38.0216 100.321 37.4521C100.376 36.8527 100.429 36.3382 100.462 35.8066C100.528 34.7442 100.477 33.9645 100.251 33.3457C99.8271 32.1912 99.1255 31.0167 98.0425 30.2588C97.3695 29.7878 96.711 29.2632 96.1538 28.833C95.5674 28.3802 95.0406 27.9893 94.4956 27.6553C93.4362 27.0059 92.488 26.5874 91.4478 26.3437C89.4376 25.8729 87.7044 25.1183 86.398 24.6572C85.8154 24.4516 84.7138 24.1186 83.8042 23.6933C82.8169 23.2316 81.6793 22.5106 80.8931 21.2676C80.3474 20.4047 79.7271 19.238 79.398 18.6836C78.9793 17.9784 78.6333 17.5158 78.232 17.1689C77.566 16.5935 77.0548 16.5553 75.0015 15.9453C74.1172 15.6826 73.0893 15.2892 72.3706 15.04C71.5454 14.754 70.9335 14.5833 70.4536 14.5322C69.2705 14.4062 68.2756 13.9729 67.649 13.709C66.926 13.4045 66.5906 13.2789 66.2613 13.2422C63.8514 12.9742 61.4675 12.5547 59.7906 11.3369C58.7033 10.5474 57.5188 10.026 56.0952 9.38866C54.505 8.67664 52.8716 7.82193 51.5874 7.15526C50.9297 6.81382 50.3768 6.52882 49.9361 6.3164C49.547 6.12888 49.3756 6.06346 49.3492 6.05077L49.3677 6.0537L49.2486 6.02147C49.218 6.01277 49.1886 6.00096 49.1587 5.9912C48.7729 6.42598 48.5174 6.71529 48.3521 6.90038Z" fill="black"/>
</g>
<defs>
<filter id="filter0_d_369_338" x="0" y="0" width="138.12" height="184.622" filterUnits="userSpaceOnUse" color-interpolation-filters="sRGB">
<feFlood flood-opacity="0" result="BackgroundImageFix"/>
<feColorMatrix in="SourceAlpha" type="matrix" values="0 0 0 0 0 0 0 0 0 0 0 0 0 0 0 0 0 0 127 0" result="hardAlpha"/>
<feOffset dy="4"/>
<feGaussianBlur stdDeviation="2"/>
<feComposite in2="hardAlpha" operator="out"/>
<feColorMatrix type="matrix" values="0 0 0 0 0 0 0 0 0 0 0 0 0 0 0 0 0 0 0.25 0"/>
<feBlend mode="normal" in2="BackgroundImageFix" result="effect1_dropShadow_369_338"/>
<feBlend mode="normal" in="SourceGraphic" in2="effect1_dropShadow_369_338" result="shape"/>
</filter>
</defs>
</svg>
