<svg width="143" height="158" viewBox="0 0 143 158" fill="none" xmlns="http://www.w3.org/2000/svg">
<g filter="url(#filter0_d_369_333)">
<path fill-rule="evenodd" clip-rule="evenodd" d="M19.1982 1.76872C19.5093 0.529345 20.8089 -0.233715 22.1006 0.0646172C23.1575 0.308811 23.8804 1.18827 23.9385 2.17887C24.755 2.18756 25.649 2.20144 26.4658 2.2277C27.1449 2.24954 27.8009 2.27943 28.3232 2.32048C28.5794 2.34062 28.8444 2.36663 29.0801 2.40251C29.1958 2.42013 29.3465 2.4472 29.5049 2.48747C29.5821 2.50709 29.8782 2.57934 30.2051 2.76286L30.3467 2.8488L30.5469 2.98747C31.5094 3.70344 31.9048 4.68489 32.0889 5.382C32.2791 6.10274 32.3308 6.88893 32.3691 7.3195C32.4428 8.14576 32.6093 9.32759 33.5537 12.2756C33.7926 12.285 34.1121 12.2944 34.54 12.3019C36.2388 12.3319 39.8626 12.332 41.8896 12.5314C42.9223 12.6331 43.8299 12.8085 44.5703 13.1828C45.5126 13.6592 45.9125 14.3172 46.1074 14.6603C46.4125 15.1974 46.4641 15.3313 46.5859 15.5295C46.6261 15.5504 46.7096 15.5887 46.8643 15.6281C47.2607 15.729 47.8347 15.774 48.5801 15.7599C49.3261 15.7459 50.0296 15.6821 50.7803 15.632C51.1263 15.6089 51.5086 15.5868 51.8603 15.589C52.1099 15.5906 52.5663 15.6016 53.043 15.7297L53.2471 15.7912L53.5352 15.9006C54.924 16.4812 55.5722 17.5632 55.9014 18.3234C56.0594 18.6883 56.1878 19.0914 56.251 19.2736C56.3299 19.501 56.3577 19.5445 56.3447 19.5226C56.5784 19.8963 56.6542 19.9327 56.6611 19.9367C56.8098 20.0219 56.9748 20.072 57.4199 20.1213C57.5914 20.1402 57.99 20.1764 58.3144 20.2277C58.6833 20.286 59.1661 20.3906 59.6709 20.6232C59.5882 20.5851 59.6022 20.6053 59.7695 20.634C59.9175 20.6592 60.1225 20.6797 60.3701 20.6857C60.8773 20.6979 61.4268 20.6453 61.8691 20.5353C61.8774 20.5328 61.9478 20.5111 62.0937 20.4435C62.2472 20.3724 62.4376 20.2715 62.668 20.1388C63.1414 19.8662 63.6546 19.5332 64.25 19.1535C64.4837 19.0044 64.6946 18.8327 65.1103 18.4845C65.5123 18.148 66.0307 17.7131 66.7627 17.1886C67.6851 16.5278 68.8109 15.7351 70.6689 15.4142C71.8601 15.2086 72.9119 15.1844 73.709 15.1838C74.1483 15.1834 74.401 15.1888 74.6836 15.1847C74.9339 15.1812 75.0242 15.1702 75.0332 15.1691C76.973 14.8121 78.6959 14.7373 80.124 14.8625C81.4743 14.9809 82.8107 15.2995 83.7773 15.9386C84.6863 16.5396 85.2175 17.3224 85.5644 17.9074C85.732 18.1899 85.8999 18.5038 86.0225 18.7267C86.1585 18.9741 86.2747 19.1793 86.3994 19.3693C86.6452 19.7439 86.9704 20.1985 87.3594 20.7531C87.7304 21.2821 88.1465 21.8826 88.5059 22.4611C88.7469 22.8494 88.8585 23.2328 88.917 23.4787C88.966 23.6847 88.9966 23.8896 89.0205 24.0646C89.1803 24.0614 89.3608 24.0579 89.5674 24.0539C90.1633 24.0424 90.8877 24.0339 91.7158 24.0685C93.3921 24.1387 94.4053 24.7014 95.0547 25.0519C96.4097 25.7833 97.1754 26.7498 97.6728 27.549C97.8867 27.8926 98.1056 28.3038 98.2021 28.4738C98.3395 28.7157 98.3767 28.7486 98.3545 28.7248C99.1519 29.5817 99.6662 30.4272 100.011 30.966C100.405 31.5828 100.521 31.6901 100.578 31.7306C103.429 33.7498 104.086 35.9917 104.288 36.3293C105.082 37.6553 105.396 38.8806 105.627 39.966C105.891 41.2072 105.893 42.8592 105.722 44.2453L105.698 44.4357L105.643 44.6193C105.431 45.3171 105.121 46.0158 104.912 46.4943C104.797 46.7574 104.713 46.9501 104.651 47.1076C104.639 47.1385 104.631 47.165 104.623 47.1857C104.611 47.4545 104.609 47.8417 104.609 48.3381C104.609 49.4395 103.805 50.3587 102.729 50.589C102.198 51.711 101.059 52.5242 99.6875 52.6134C97.0224 52.7867 95.1244 52.4843 93.6572 52.1564C91.9516 51.7752 91.8773 51.7099 91.5918 51.7248C90.9739 51.7572 90.4301 51.9049 89.6973 52.2052C89.2996 52.3682 88.9043 52.5505 88.373 52.7922C87.8676 53.022 87.272 53.2899 86.6084 53.549C85.8214 53.8563 85.1094 54.1036 84.5332 54.3058C83.9255 54.5191 83.5196 54.6642 83.1904 54.8039C82.9859 54.8907 82.8675 54.9545 82.8057 54.9904C82.4802 55.5298 81.9897 56.2447 81.7275 56.6476C81.3599 57.2124 81.0567 57.7276 80.8379 58.2306C80.4243 59.1817 80.3959 59.8579 80.7451 60.5617C81.0407 61.1573 81.4844 61.7717 82.2891 62.9767C83.021 64.0728 83.8967 65.4514 84.6465 67.1467C85.8775 69.9303 86.5221 72.518 86.9941 74.6652C87.5012 76.9719 87.7486 78.3747 88.1904 79.4992C88.3717 79.9603 88.675 80.5195 89.1367 81.2638C89.3635 81.6294 89.6051 82.0035 89.874 82.4211C90.1365 82.8287 90.4218 83.2723 90.7031 83.7306C91.7987 85.5154 93.0972 87.911 93.3125 90.7521C93.4913 93.1123 92.7153 94.8804 92.2168 95.9533C91.704 97.0569 91.0966 98.4173 90.7383 99.6623C90.6975 99.8039 90.6623 99.937 90.6318 100.062C92.1185 100.216 93.5681 100.406 94.8574 100.661C96.3453 100.956 98.3142 101.455 99.7559 102.565L100.037 102.794L100.18 102.907C101.077 103.577 104.618 105.844 105.945 109.794C106.159 110.429 106.33 111.039 106.469 111.528C106.617 112.051 106.723 112.414 106.832 112.717C106.867 112.816 106.898 112.894 106.924 112.953C107.031 113.01 107.109 113.043 107.251 113.084C107.543 113.169 108.204 113.306 109.508 113.294C112.741 113.265 115.602 113.157 117.992 113.052C120.329 112.949 122.353 112.841 123.732 112.821C125.667 112.794 127.718 112.72 129.188 112.754C129.927 112.771 130.768 112.817 131.525 112.968C131.905 113.044 132.426 113.177 132.958 113.439C133.448 113.679 134.191 114.15 134.709 115.011L134.902 115.355C135.133 115.742 135.46 116.147 136.013 116.826C136.567 117.508 137.384 118.511 137.977 119.756C138.497 120.85 138.296 121.836 138.189 122.234C138.066 122.691 137.877 123.056 137.758 123.269C137.513 123.704 137.199 124.12 136.959 124.427C136.565 124.931 135.663 126.002 135.172 126.616C133.803 128.326 132.79 129.882 132.527 131.071C132.267 132.252 131.479 132.98 131.235 133.201C130.874 133.529 130.479 133.801 130.148 134.009C129.474 134.433 128.616 134.878 127.697 135.323C125.841 136.224 123.259 137.354 120.338 138.645C118.212 139.585 116.572 140.171 115.256 140.601C113.793 141.078 113.195 141.227 112.509 141.487C111.974 141.691 111.782 141.857 110.462 142.491C109.369 143.016 107.99 143.585 106.15 144.003C104.037 144.484 101.494 144.526 99.5351 144.593C97.3343 144.669 95.6214 144.774 94.3203 145.138C93.9425 145.243 93.6783 145.437 92.2803 146.236C91.0647 146.932 89.4428 147.765 87.1846 148.265C82.2347 149.361 76.2197 150.397 71.1279 148.376C68.0983 147.174 66.2693 146.316 64.5947 145.105C63.7952 144.526 63.1961 143.828 62.8125 143.368C62.3518 142.817 62.1084 142.496 61.7588 142.13C61.2156 141.561 60.6238 141.112 59.5068 140.877C56.4191 140.228 53.5997 139.163 47.7314 137.227C47.1546 137.036 46.6609 136.719 46.2715 136.32C45.9237 136.071 45.5999 135.78 45.3125 135.435C45.0415 135.109 44.8584 134.803 44.7344 134.568C44.6755 134.456 44.6289 134.357 44.5996 134.295C44.556 134.202 44.5647 134.219 44.5459 134.18C44.5124 134.11 44.4657 134.023 44.3564 133.826C44.2662 133.664 44.1145 133.392 43.9756 133.099C43.9516 133.068 43.8934 132.994 43.7793 132.865C43.6293 132.697 43.025 132.056 42.6094 131.564C41.5537 130.312 40.4068 128.6 39.6006 125.962C39.3087 125.007 38.9247 123.871 38.5127 122.652C38.1095 121.458 37.6802 120.188 37.335 119.055C36.7681 117.194 36.3058 115.079 36.0752 112.82C35.895 111.056 35.8881 109.747 35.6455 108.243C35.5586 107.705 35.4602 107.319 35.3711 107.061C35.1533 106.995 34.8108 106.899 34.2939 106.776C33.4259 106.568 32.085 106.284 30.8545 105.937C29.5962 105.582 28.1227 105.078 26.79 104.284C25.4336 103.477 24.0386 102.256 23.2773 100.422C23.1191 100.041 21.9451 98.257 21.9463 95.3029C21.948 91.1811 22.088 88.494 22.2246 86.5304C22.3683 84.4647 22.4733 83.551 22.459 82.5617C22.4022 78.648 22.2114 77.3722 21.7754 75.0256C21.6071 74.12 21.1906 73.2727 20.5478 72.2218C20.0272 71.3706 18.9744 69.8502 18.4238 68.4045C18.111 67.583 17.7745 66.8292 17.3301 65.7746C16.9012 64.757 16.4276 63.5852 15.9424 62.1408C15.5871 61.083 15.5216 59.9216 15.4941 59.1095C15.4791 58.6646 15.4738 58.2019 15.4687 57.7922C15.4635 57.366 15.4578 56.9793 15.4424 56.6095C15.4153 55.9632 15.3611 55.5234 15.2959 55.2336C15.2908 55.2309 15.2854 55.2274 15.2803 55.2248C14.9911 55.0758 14.5364 54.8337 14.0674 54.4924C13.0555 53.7558 11.9111 52.4995 11.6592 50.5451C11.558 49.7598 11.6001 48.9552 11.6406 48.3703C11.692 47.6297 11.7394 47.2325 11.7734 46.5968C11.8336 45.4729 11.7366 44.9259 11.626 44.6701C11.6139 44.6579 11.597 44.6406 11.5732 44.6193C11.4399 44.5001 11.2363 44.3493 10.8408 44.0832C10.7532 44.0243 10.5761 43.927 10.1836 43.7492C9.889 43.6157 9.27651 43.354 8.7832 43.1027C7.88351 42.6443 5.70671 41.4331 5.36914 38.8088C5.29407 38.2246 5.19296 37.671 5.07031 37.1789C4.99643 37.1315 4.92404 37.0798 4.85449 37.0236C4.017 36.3463 3.78314 35.2382 4.20605 34.3234C4.18904 33.0501 4.90703 31.8168 6.16601 31.1965C6.23007 31.0207 6.29467 30.8316 6.35839 30.6261C7.31607 27.5384 7.52099 25.7583 7.56347 24.6584C7.58671 24.0566 7.56462 23.6992 7.56249 23.1779C7.56062 22.7169 7.57381 22.0696 7.8164 21.3713L8.05663 20.7033C8.60038 19.246 9.0374 18.4596 9.53808 17.6672C10.1833 16.6459 11.1486 15.8319 12.1543 15.1447C13.1758 14.4467 14.4129 13.7647 15.7646 13.0646C16.4362 12.7168 16.9873 12.4815 17.3691 12.3195C17.4983 12.2647 17.5887 12.2245 17.6572 12.1945C17.7066 12.1262 17.7935 11.9903 17.8906 11.7482C18.0494 11.3525 18.1755 10.8355 18.2549 10.258C18.3331 9.68847 18.3565 9.1263 18.3437 8.67204C18.3325 8.27272 18.2964 8.08109 18.2949 8.05485L18.3066 8.08317L18.2627 7.94645C18.0549 7.26843 18.0912 6.593 18.1377 6.15446C18.1939 5.62488 18.3113 5.07187 18.4346 4.5695C18.5595 4.06012 18.7084 3.53506 18.8428 3.06266C18.9819 2.57344 19.1034 2.14694 19.1982 1.76872ZM22.9219 6.78825C23.0833 7.3463 23.1381 8.00434 23.1533 8.54704C23.1726 9.23474 23.137 10.0402 23.0244 10.8605C22.9128 11.673 22.7159 12.5701 22.3799 13.4074C22.0556 14.2154 21.5224 15.1687 20.6113 15.8634C20.3259 16.0811 20.0297 16.2253 19.8682 16.3009C19.6885 16.385 19.4799 16.472 19.3144 16.5422C18.9573 16.6936 18.5482 16.869 18.0498 17.1271C16.7327 17.8092 15.713 18.3808 14.9453 18.9054C14.1614 19.4411 13.804 19.8206 13.6523 20.0607C13.2724 20.6621 12.9332 21.2437 12.3867 22.8136C12.3837 22.8345 12.3731 22.9249 12.374 23.1593C12.3753 23.4668 12.3999 24.1088 12.3721 24.8302C12.3123 26.3772 12.0239 28.5445 10.9697 31.9435C10.9238 32.0915 10.8762 32.2344 10.8291 32.3732C10.9019 32.4797 10.9697 32.591 11.0312 32.7072C11.7966 34.1522 12.186 35.7835 12.4033 37.0998C12.6199 37.2008 12.8622 37.3046 13.2637 37.4865C13.7148 37.6909 14.3638 37.996 14.9853 38.4142C15.6861 38.8858 17.041 39.7738 17.9131 41.258L18.0801 41.5636L18.2559 41.9289C19.0747 43.7668 19.0477 45.6973 18.9805 46.9523C18.9465 47.5855 18.8695 48.4312 18.8418 48.8302C18.8322 48.9685 18.8258 49.0868 18.8213 49.1877C18.8286 49.1914 18.836 49.1955 18.8437 49.1994C18.8967 49.2261 18.9657 49.2599 19.0322 49.2941C19.1576 49.3585 19.3523 49.4609 19.5557 49.5851C21.1381 50.5522 21.8476 52.023 22.1855 53.1369C22.5225 54.248 22.6149 55.4137 22.6533 56.3322C22.6733 56.8111 22.6803 57.2871 22.6855 57.7111C22.6909 58.1516 22.695 58.5286 22.707 58.8849C22.719 59.2394 22.7375 59.5146 22.7637 59.7297C22.7863 59.9156 22.8078 60.0014 22.8115 60.0158C23.2226 61.2397 23.6259 62.2417 24.0205 63.1779C24.3995 64.0773 24.8342 65.0587 25.2031 66.0275C25.4558 66.691 25.8781 67.2537 26.7725 68.716C27.5447 69.9786 28.4838 71.6779 28.8799 73.8097C29.385 76.528 29.6126 78.1779 29.6748 82.465C29.6945 83.8263 29.5456 85.2694 29.4258 86.9914C29.2988 88.8157 29.1657 91.3494 29.1641 95.3058C29.1638 95.944 29.2616 96.2649 29.3369 96.464C29.3863 96.5945 29.4476 96.7295 29.5566 96.9504C29.6468 97.133 29.83 97.4922 29.9824 97.8595C30.0011 97.9045 30.0933 98.102 30.5947 98.4006C31.1211 98.714 31.8802 99.007 32.8906 99.2922C33.9287 99.5851 34.8947 99.7838 36.0352 100.056C36.9435 100.273 38.3431 100.613 39.4258 101.238C40.8293 102.05 41.5709 103.3 41.9775 104.244C42.3977 105.22 42.6308 106.27 42.7783 107.184C43.0482 108.857 43.1558 111.146 43.2578 112.146C43.4405 113.935 43.8087 115.624 44.2617 117.111C44.5721 118.13 44.9665 119.301 45.3769 120.516C45.7784 121.704 46.1995 122.944 46.5264 124.013C47.0208 125.63 47.6582 126.542 48.2187 127.206C48.6112 127.671 48.7743 127.813 49.2666 128.365C49.6176 128.76 50.1595 129.398 50.543 130.233L50.5449 130.232C50.5756 130.296 50.6206 130.381 50.7275 130.573C50.7787 130.666 50.8498 130.797 50.9287 130.946C50.9421 130.955 50.9546 130.965 50.9678 130.974C56.5797 132.836 58.6283 133.602 61.0508 134.111C63.9591 134.723 65.7945 136.105 67.0801 137.451C67.6446 138.043 68.1653 138.702 68.4453 139.037C68.6104 139.235 68.726 139.365 68.8193 139.461C68.8929 139.537 68.9312 139.568 68.9385 139.573C69.8424 140.227 70.9572 140.813 73.8857 141.976C76.5835 143.046 80.427 142.654 85.5615 141.517C86.7914 141.244 87.6819 140.804 88.584 140.288C89.3033 139.877 90.7643 138.918 92.3018 138.488C94.6036 137.845 97.2154 137.743 99.2773 137.672C101.581 137.593 103.241 137.548 104.485 137.265C105.647 137 106.495 136.653 107.231 136.299C107.641 136.102 107.959 135.933 108.405 135.706C108.805 135.503 109.307 135.255 109.854 135.047C110.729 134.715 111.96 134.362 112.932 134.045C114.051 133.68 115.454 133.179 117.318 132.355C120.317 131.029 122.735 129.969 124.441 129.142C125.031 128.856 125.481 128.623 125.81 128.44C126.653 126.016 128.297 123.838 129.448 122.399C129.862 121.881 130.164 121.518 130.421 121.209C130.389 121.17 130.356 121.128 130.322 121.086C130.028 120.724 129.63 120.246 129.229 119.685C129.162 119.682 129.09 119.679 129.014 119.677C127.723 119.647 126.07 119.715 123.839 119.746C122.609 119.764 120.807 119.86 118.322 119.97C115.891 120.077 112.933 120.188 109.575 120.219C107.735 120.236 106.318 120.048 105.163 119.713C103.962 119.365 103.2 118.89 102.923 118.732C101.106 117.696 100.373 115.994 100.006 114.969C99.8074 114.415 99.6427 113.83 99.5059 113.348C99.3591 112.831 99.2298 112.376 99.0762 111.919C98.8009 111.1 98.3286 110.492 97.6973 109.916C97.365 109.613 97.0045 109.332 96.5771 109.011C96.2239 108.745 95.7035 108.364 95.2539 107.979C95.2223 107.962 95.1258 107.912 94.9355 107.843C94.5871 107.716 94.0822 107.578 93.3975 107.443C92.0217 107.17 90.2537 106.969 88.2168 106.792C87.4116 106.722 86.559 106.508 85.7656 106.027C84.9618 105.539 84.4701 104.929 84.167 104.458C83.3491 103.188 83.2236 101.81 83.2588 100.805C83.2955 99.7579 83.522 98.7193 83.7812 97.8185C84.2995 96.0181 85.1148 94.2321 85.625 93.134C86.0121 92.3008 86.1596 91.8399 86.1152 91.2541C86.0266 90.0855 85.4668 88.8458 84.4844 87.2453C84.2463 86.8575 83.9979 86.47 83.7344 86.0607C83.4772 85.6613 83.1989 85.232 82.9346 84.8058C82.4141 83.9667 81.8471 82.9873 81.4365 81.9426C80.7387 80.1666 80.3371 77.9342 79.9326 76.0939C79.4929 74.0936 78.9624 72.0202 78.0039 69.8527C77.4917 68.6945 76.8717 67.7012 76.2119 66.7131C75.625 65.8341 74.7809 64.6504 74.2295 63.5392C72.7141 60.4854 73.2711 57.6471 74.1777 55.5627C74.6192 54.5478 75.16 53.6632 75.6055 52.9787C76.1352 52.1647 76.3651 51.8609 76.582 51.4884C77.5612 49.8072 79.0641 48.9837 80.2695 48.4718C80.8552 48.2232 81.4913 47.9996 82.0547 47.8019C82.6501 47.593 83.2402 47.3867 83.8877 47.134C84.3517 46.9528 84.7937 46.7555 85.2822 46.5334C85.7446 46.3231 86.3015 46.0659 86.8623 45.8361C88.0467 45.3507 89.4484 44.9005 91.1973 44.8088C92.8406 44.7226 94.5702 45.2493 95.2949 45.4113C96.2587 45.6267 97.421 45.8199 99.1992 45.7043C99.4901 45.6853 99.7754 45.7004 100.051 45.7453C100.084 45.6496 100.116 45.5633 100.145 45.4904C100.245 45.2316 100.368 44.9509 100.475 44.7082C100.675 44.2498 100.844 43.854 100.965 43.4992C101.07 42.4887 101.035 41.4628 100.913 40.8908C100.716 39.9659 100.526 39.3133 100.116 38.6291C99.9165 38.2954 99.7412 37.9 99.6484 37.7013C99.5317 37.4514 99.4269 37.2393 99.292 37.0216C99.0423 36.6191 98.6178 36.0808 97.7207 35.4455C96.8039 34.7961 96.2525 33.9154 95.9101 33.38C95.5176 32.7663 95.2244 32.293 94.7656 31.8C94.3934 31.3999 94.1372 30.9631 93.9775 30.6818C93.7769 30.3283 93.6941 30.1615 93.542 29.9172C93.3071 29.5397 93.08 29.2826 92.6963 29.0754C92.3869 28.9084 92.2514 28.8387 92.0986 28.7843C91.9749 28.7403 91.7987 28.6941 91.5059 28.6818C90.8291 28.6535 90.223 28.6583 89.6641 28.6691C89.1462 28.6791 88.5509 28.6979 88.0635 28.6818C87.6224 28.6672 86.8667 28.6235 86.1543 28.2902C85.211 27.8489 84.5994 27.0371 84.4307 26.0558C84.383 25.7784 84.3507 25.5184 84.3252 25.298C84.2959 25.045 84.2831 24.916 84.2617 24.7443C84.2556 24.6953 84.2479 24.6555 84.2432 24.6232C83.9839 24.2188 83.6828 23.7813 83.3672 23.3312C83.0159 22.8303 82.6253 22.2821 82.3281 21.8293C82.1031 21.4862 81.9174 21.1552 81.7666 20.881C81.6025 20.5825 81.4989 20.3879 81.3818 20.1906C81.1596 19.816 81.064 19.7518 81.0469 19.7404C81.0218 19.7302 80.6305 19.5429 79.6865 19.4601C78.7625 19.3791 77.4952 19.4171 75.9404 19.7033C75.5124 19.7821 75.0808 19.7973 74.7559 19.8019C74.4431 19.8064 74.0191 19.8007 73.7129 19.8009C73.0185 19.8015 72.2977 19.8242 71.5215 19.9582C70.8281 20.0779 70.4593 20.303 69.6416 20.8888C69.0645 21.3023 68.6603 21.6391 68.2734 21.9631C67.9003 22.2755 67.4541 22.6541 66.9131 22.9992C66.3754 23.3421 65.7387 23.7551 65.1436 24.0978C64.5856 24.4191 63.8385 24.8151 63.0742 25.005C62.1347 25.2385 61.1327 25.3222 60.25 25.3009C59.4514 25.2817 58.4475 25.1704 57.624 24.8009C57.6107 24.7977 57.5814 24.7911 57.5322 24.7834C57.3601 24.7562 57.2371 24.749 56.8682 24.7082C56.2316 24.6377 55.238 24.4986 54.1943 23.9006C53.1076 23.2779 52.5235 22.3883 52.2061 21.8781C51.9353 21.443 51.7747 20.9849 51.6865 20.7306C51.6001 20.4814 51.5505 20.3395 51.5029 20.215C51.3927 20.2202 51.2642 20.2284 51.1143 20.2384C50.5093 20.2788 49.5804 20.3591 48.6748 20.3761C47.7685 20.3932 46.6696 20.3557 45.6299 20.091C44.5857 19.825 43.3283 19.256 42.5293 18.0168C42.3931 17.8055 42.2099 17.4742 42.0693 17.215C41.9116 17.1859 41.6932 17.1542 41.3984 17.1252C39.6383 16.952 36.3807 16.9522 34.4521 16.9181C32.6615 16.8865 32.1614 16.83 31.583 16.6603C31.8649 16.7431 31.0675 16.5711 30.5068 16.1916C29.8155 15.7233 29.4213 15.0585 29.1992 14.3879C27.9832 10.7144 27.6951 9.05754 27.5752 7.71305C27.5494 7.42426 27.5324 7.208 27.5059 6.98649C27.502 6.95454 27.4961 6.92387 27.4922 6.8947C27.1516 6.87527 26.7482 6.8572 26.3047 6.84294C25.1956 6.80728 23.9188 6.79227 22.9219 6.78825Z" fill="black"/>
</g>
<defs>
<filter id="filter0_d_369_333" x="0" y="0" width="142.318" height="157.527" filterUnits="userSpaceOnUse" color-interpolation-filters="sRGB">
<feFlood flood-opacity="0" result="BackgroundImageFix"/>
<feColorMatrix in="SourceAlpha" type="matrix" values="0 0 0 0 0 0 0 0 0 0 0 0 0 0 0 0 0 0 127 0" result="hardAlpha"/>
<feOffset dy="4"/>
<feGaussianBlur stdDeviation="2"/>
<feComposite in2="hardAlpha" operator="out"/>
<feColorMatrix type="matrix" values="0 0 0 0 0 0 0 0 0 0 0 0 0 0 0 0 0 0 0.25 0"/>
<feBlend mode="normal" in2="BackgroundImageFix" result="effect1_dropShadow_369_333"/>
<feBlend mode="normal" in="SourceGraphic" in2="effect1_dropShadow_369_333" result="shape"/>
</filter>
</defs>
</svg>
