<svg width="196" height="244" viewBox="0 0 196 244" fill="none" xmlns="http://www.w3.org/2000/svg">
<g filter="url(#filter0_d_369_177)">
<path fill-rule="evenodd" clip-rule="evenodd" d="M57.5766 2.50408C58.4844 0.66662 60.5686 -0.370441 62.6479 0.122246C63.7426 0.381684 64.6435 0.677901 65.4408 1.05096C66.1316 1.37418 66.6418 1.71191 66.976 1.94354C67.4183 2.19018 68.4412 2.52976 70.3344 2.88787C71.2436 3.05987 72.2181 3.21452 73.2699 3.37908C74.0399 3.49956 74.8566 3.62621 75.6684 3.76385L76.477 3.90545L77.3383 4.0617L78.0785 4.52947C78.0858 4.53352 78.1933 4.59571 78.4633 4.70428C78.7426 4.81657 79.1047 4.94256 79.5756 5.09197C80.0468 5.24147 80.5612 5.3943 81.1586 5.57147C81.7407 5.74408 82.3882 5.93644 83.0541 6.14764C85.5317 6.93348 88.9045 8.15864 91.5746 10.5187C91.6027 10.5333 91.6367 10.5523 91.6781 10.5724C91.9545 10.7068 92.3807 10.8883 93.0004 11.1271C94.2465 11.6073 95.9229 12.1846 98.0814 12.9318C102.333 14.4035 108.098 16.4145 114.636 19.2072C118.675 20.9326 121.856 22.6713 124.673 24.0978C127.517 25.5378 130.197 26.7747 133.677 27.8117C136.335 28.6035 138.525 29.6647 140.401 30.5949C142.338 31.5551 143.866 32.3336 145.631 32.9347C149.723 34.3282 154.927 36.3789 159.52 38.1769C164.285 40.0423 168.176 41.5454 170.034 42.0549C173.866 43.1056 177.298 45.8708 179.969 48.6818C181.402 50.1894 183.31 51.4211 185.888 53.4543C187.023 54.3496 188.28 55.4125 189.317 56.6125C190.271 57.7172 191.312 59.2482 191.695 61.1818L191.762 61.5744L191.795 61.84C192.076 64.5648 190.479 66.7601 188.558 67.9308C186.895 68.9443 185.233 69.3224 183.879 69.5041C183.218 69.5928 182.576 69.6406 182.052 69.6779C181.489 69.718 181.061 69.7458 180.631 69.7922C179.257 69.9406 178.351 70.188 177.234 71.5754C176.1 72.9825 175.229 74.1033 174.645 74.9972C174.431 75.3238 174.295 75.5609 174.213 75.7199C174.198 77.2012 174.11 78.4456 174.272 79.8644C174.352 80.5698 174.476 81.0218 174.583 81.2726C174.587 81.282 174.591 81.2909 174.595 81.299C174.891 81.4735 175.285 81.6755 175.843 81.9445C176.436 82.2301 177.294 82.6279 178.073 83.0519C179.386 83.7669 181.944 85.2812 182.908 88.2258L182.996 88.5148L183.073 88.8254C183.402 90.3594 182.907 91.6025 182.616 92.1857C182.295 92.8261 181.89 93.328 181.671 93.591C181.432 93.8783 181.152 94.1841 180.971 94.384C180.76 94.6169 180.585 94.8143 180.419 95.0148C179.757 95.8188 179.6 96.2808 179.616 96.7267C179.629 97.096 179.717 97.6581 179.911 98.5627C180.072 99.3175 180.35 100.487 180.518 101.495C180.683 102.485 180.865 103.941 180.591 105.414C180.277 107.104 179.292 109.057 177.075 110.129C176.001 110.648 174.856 110.783 174.381 110.841C173.611 110.936 173.333 110.947 172.781 111.033C171.878 111.175 171.595 111.36 171.459 111.491C171.159 111.781 170.929 112 170.703 112.233C170.741 112.272 170.783 112.315 170.828 112.362C171.097 112.638 171.461 113.018 171.827 113.462C173.375 115.345 176.713 118.525 178.172 123.551C178.362 124.203 178.746 125.528 178.792 126.948C178.839 128.387 178.553 130.784 176.476 132.566C175.556 133.354 174.266 134.124 173.335 134.683C172.243 135.339 171.231 135.939 170.32 136.575C169.599 137.078 169.129 137.478 168.849 137.768C168.899 138.135 168.927 138.474 168.945 138.751C168.975 139.229 168.992 139.817 169.009 140.23C169.048 141.169 169.11 142.016 169.299 142.874C170.089 146.46 171.378 149.561 172.673 151.888C173.182 152.801 174.244 154.554 174.956 155.926C175.744 157.441 176.59 159.346 176.919 161.448C177.128 162.784 177.766 165.844 178.008 167.953C178.143 169.127 178.233 170.496 178.086 171.812C177.952 173.019 177.537 174.978 175.948 176.48C175.84 176.582 175.698 176.732 175.45 177.005C175.236 177.241 174.91 177.606 174.575 177.951C173.908 178.638 172.843 179.642 171.361 180.31C170.01 180.918 168.444 181.163 167.341 181.314C166.729 181.397 166.079 181.471 165.484 181.541C164.869 181.613 164.282 181.684 163.704 181.767C161.103 182.141 159.894 182.648 159.426 183.117C159.415 183.13 159.32 183.241 159.179 183.574C159.013 183.967 158.85 184.506 158.657 185.3C158.325 186.661 157.859 189.161 157.015 191.373C156.494 192.74 156.291 194.092 155.888 196.047C155.577 197.553 155.017 200.304 153.098 202.293C152.448 202.967 151.755 203.377 151.319 203.611C151.317 203.648 151.314 203.687 151.313 203.728C151.08 209.96 151.659 214.052 151.955 217.162C152.09 218.571 152.241 220.361 151.913 221.981C151.491 224.057 150.305 225.856 148.203 226.951C147.54 227.296 146.91 227.505 146.445 227.641C146.058 227.754 145.495 227.892 145.342 227.933C145.309 227.941 145.279 227.95 145.251 227.958C145.183 228.066 145.079 228.234 144.931 228.49C144.634 229.004 143.92 230.33 142.728 231.393C139.61 234.171 135.215 236.563 130.454 235.89C130.194 235.853 128.584 235.71 127.352 235.339C125.915 234.906 123.646 233.825 122.644 231.115C122.376 230.39 122.259 229.692 122.197 229.196C122.132 228.682 122.102 228.173 122.081 227.786C122.058 227.345 122.046 227.067 122.024 226.778C122.003 226.511 121.983 226.407 121.982 226.399C121.354 223.58 120.18 220.196 118.756 215.866C117.831 213.052 117.169 211.785 116.216 211.116C114.566 209.958 113.335 208.632 112.078 207.191C110.784 205.707 109.391 204.017 107.138 201.582C106.341 200.72 105.276 200.248 103.455 199.589C102.699 199.315 101.486 198.896 100.443 198.318C99.3211 197.696 97.8358 196.599 97.0414 194.646C96.2065 192.593 95.7942 189.962 95.5092 188.621C95.3335 187.795 95.1817 187.229 95.0258 186.826C94.9576 186.65 94.9055 186.555 94.8822 186.514C93.5535 185.241 93.0301 184.618 92.0189 183.717C91.2222 183.007 90.7078 182.702 90.3578 182.573C90.2879 182.57 90.0572 182.557 89.5434 182.57C88.8332 182.589 87.5508 182.656 86.1684 182.553C83.119 182.325 79.572 181.308 75.6 178.15C73.7084 176.645 72.9865 174.605 72.7182 173.09C72.449 171.57 72.5484 170.134 72.685 169.152C72.8873 167.695 73.395 164.882 75.9926 163.396L76.392 163.18C76.784 162.981 77.1476 162.83 77.4408 162.715C77.6378 162.638 77.827 162.569 77.9799 162.513C77.9946 162.508 78.0089 162.501 78.0229 162.496C77.8506 162.297 77.6747 162.087 77.5043 161.869C76.1714 160.164 74.9916 157.864 74.9945 154.658C74.9978 151.251 75.3231 148.816 75.7035 146.864C75.8841 145.938 76.0831 145.095 76.2201 144.482C76.367 143.824 76.4558 143.377 76.5043 142.972C76.899 139.677 77.5077 138.244 77.7543 133.23C77.8581 131.119 77.9969 129.324 78.1234 127.777C78.2524 126.2 78.3604 124.969 78.4203 123.847C78.5348 121.7 78.448 120.304 78.0062 118.75C76.4676 113.34 75.559 108.714 74.9125 106.077C74.777 105.525 74.6545 105.083 74.5521 104.73C72.827 104.594 71.0346 104.41 69.3539 104.09C67.0771 103.657 64.4659 102.888 62.352 101.221C60.2741 99.5818 59.8613 97.0486 59.7016 96.2531C59.4454 94.9781 59.3275 94.1477 58.9506 93.1144C58.5976 92.1469 57.9423 91.6301 56.1244 89.8224C55.4305 89.1325 54.4928 88.1499 53.7699 86.8517C53.1654 87.3162 52.4654 87.8315 51.7582 88.2512C50.8868 88.7683 48.9613 89.8092 46.6654 89.4035C45.0808 89.1234 43.7914 88.3285 42.8852 87.6623C41.9375 86.9656 41.0148 86.1087 40.1664 85.2765C36.8605 82.0339 35.3001 79.6985 33.6918 76.8078C33.5119 76.4845 33.0913 76.0087 32.141 75.4152C31.1919 74.8225 30.0292 74.2998 28.6264 73.7101C28.663 73.7263 28.3428 73.6223 27.3451 73.7834C26.3063 73.9511 25.0838 74.3067 23.56 74.7795C22.1692 75.211 20.4288 75.7733 18.8207 76.1076C17.3165 76.4202 15.0815 76.7356 12.9262 75.9738C11.689 75.5364 9.99026 74.5449 8.46524 73.1496C6.89997 71.7175 5.13802 69.5119 4.4457 66.5168C4.06234 64.8581 3.78576 61.9066 4.22305 59.6779C5.00073 55.7151 5.7637 53.0981 6.24453 49.591C6.96462 44.3391 9.89554 38.032 13.5531 33.9631C14.1521 33.2968 14.8947 32.6016 15.3656 32.1437C15.9142 31.6103 16.3282 31.1825 16.6605 30.7609C17.2532 30.0088 17.4555 29.4548 17.4135 28.7297C17.2601 26.0859 16.4655 24.3314 15.6225 22.259C14.8774 20.4274 13.3443 16.8206 15.7563 13.0363L15.9428 12.7609C16.8985 11.4347 18.1728 10.8521 18.9955 10.5793C19.7007 10.3454 20.6196 10.1896 20.7641 10.1603C20.7901 10.1551 20.8145 10.1476 20.8373 10.1428C20.8579 10.0738 20.8839 9.99053 20.9096 9.88982C20.982 9.60554 21.0509 9.28293 21.143 8.83807C21.2287 8.42388 21.3359 7.89983 21.4662 7.3615L21.5541 7.02654C21.7935 6.18971 22.2861 4.99842 23.4428 3.97674C24.6555 2.90563 26.1012 2.46405 27.3266 2.24236C27.9382 2.13172 29.5651 1.7815 31.0365 1.66033C31.8017 1.59733 32.7659 1.56906 33.7543 1.7199C34.6341 1.85419 35.9559 2.19257 37.1313 3.174L37.3637 3.37908L37.8744 3.86541C38.3674 4.34699 38.8048 4.80678 39.1586 5.17498C39.6723 5.7096 40.0039 6.04467 40.3041 6.30193C40.583 6.54095 40.7138 6.60414 40.7416 6.61639C40.7521 6.62102 40.7511 6.62032 40.7465 6.61932C40.7507 6.62008 40.7707 6.62324 40.8119 6.62322C46.0931 6.62001 49.4643 6.66222 51.8588 6.39861C53.0079 6.27209 53.6297 6.09951 53.9574 5.96209C54.0897 5.9066 54.1475 5.86675 54.1615 5.85662C54.6697 5.16611 55.3787 4.35522 56.1772 3.62322C56.5378 3.2926 57.0118 2.8886 57.5766 2.50408ZM62.6576 9.93279C62.6546 9.9348 62.6512 9.93738 62.6479 9.93963C62.5625 9.99779 62.4288 10.1015 62.2592 10.257C61.9064 10.5804 61.584 10.9549 61.4086 11.1935C59.2185 14.1736 55.8687 15.0108 52.8432 15.3439C49.8152 15.6772 45.7287 15.6202 40.8178 15.6232C37.9674 15.6249 35.9242 14.4022 34.4467 13.1359C33.7683 12.5544 33.1516 11.9143 32.6684 11.4113C32.3932 11.1249 32.1453 10.8659 31.9037 10.6213C31.863 10.6239 31.8197 10.6264 31.7748 10.6301C31.3825 10.6624 30.9295 10.7293 30.4242 10.8185C30.2497 10.8494 30.0763 10.8812 29.9018 10.9142C29.8252 11.2806 29.7367 11.6978 29.6313 12.1115C29.3805 13.0957 28.937 14.531 27.9232 15.8371C26.6432 17.486 25.0894 18.251 23.8705 18.6437C23.8986 18.7144 23.9274 18.7897 23.9594 18.8683C24.716 20.7285 26.1453 23.8395 26.3988 28.2082C26.6048 31.7588 25.2354 34.4196 23.7289 36.3312C23.0116 37.2414 22.2434 38.0091 21.64 38.5959C20.959 39.2581 20.5789 39.6099 20.2465 39.9797C17.7718 42.7327 15.6316 47.3774 15.1605 50.8137C14.6443 54.5794 13.6562 58.3431 13.0541 61.4113C13.0166 61.6025 12.9772 62.1116 13.015 62.8527C13.0512 63.5612 13.1415 64.1754 13.2143 64.4904C13.365 65.1421 13.8128 65.8432 14.5404 66.509C14.8874 66.8264 15.244 67.0846 15.5443 67.2707C15.6803 67.3549 15.786 67.4112 15.8559 67.4474C15.977 67.4459 16.3213 67.4348 16.9887 67.2961C18.0651 67.0723 19.2915 66.6797 20.893 66.1828C22.3612 65.7273 24.1579 65.1816 25.9105 64.8986C27.6048 64.6251 29.8918 64.481 32.0902 65.4045C33.4977 65.9957 35.275 66.7613 36.9086 67.7814C38.5457 68.8039 40.3541 70.2706 41.557 72.4328C42.8186 74.7003 43.8787 76.3108 46.4691 78.8517C47.0104 79.3826 47.4453 79.7823 47.8002 80.0803C47.8383 80.0526 47.8798 80.0253 47.9203 79.9953C48.1882 79.7969 48.4675 79.5789 48.7826 79.3312C48.8267 79.1937 48.9088 78.8796 48.9643 78.2804C49.0209 77.6682 49.0346 76.9974 49.0482 76.1515C49.0606 75.3888 49.0727 74.3904 49.1703 73.4572L49.2094 73.1467C49.6658 69.9988 51.8815 68.4202 53.3354 67.7531L53.6772 67.6066C55.4281 66.916 57.7724 66.8158 59.8256 68.2277C63.5895 70.8163 63.3486 75.1164 63.0307 77.2131C62.8457 78.4326 62.5306 79.6117 62.2719 80.5344C61.9976 81.5126 61.8208 82.1008 61.7084 82.5949C61.8079 82.7345 62.0197 82.9927 62.4701 83.4406C63.4317 84.3968 66.1783 86.6654 67.4057 90.0295C68.0837 91.888 68.3585 93.6527 68.5248 94.4806C68.5268 94.4905 68.5287 94.5004 68.5307 94.5099C69.0585 94.7587 69.8575 95.0241 71.0355 95.2482C72.753 95.5749 74.7771 95.7365 77.1107 95.8918C80.1728 96.0956 81.6551 98.4562 82.2338 99.6242C82.8651 100.899 83.2959 102.479 83.6527 103.935C84.4441 107.162 85.1673 111.031 86.6625 116.288C87.4794 119.161 87.5503 121.653 87.4076 124.326C87.3389 125.614 87.2145 127.027 87.0932 128.51C86.9694 130.022 86.8402 131.705 86.7436 133.671C86.4893 138.841 85.6407 142.366 85.4398 144.042C85.3345 144.921 85.1622 145.737 85.0043 146.444C84.8364 147.195 84.6869 147.82 84.5375 148.586C84.2578 150.021 83.9972 151.882 83.9945 154.667C83.9939 155.403 84.1857 155.803 84.5951 156.327C84.8666 156.675 85.1808 157.003 85.6898 157.536C86.1341 158.002 86.7951 158.693 87.3744 159.499C88.446 160.99 88.5471 162.649 88.2533 163.944C87.9941 165.085 87.4368 165.97 87.0434 166.512C86.2549 167.598 85.1991 168.533 84.6381 169.026C83.4941 170.03 82.2628 170.52 81.5619 170.784H81.56C81.5545 170.867 81.5493 170.95 81.5482 171.031C81.5465 171.171 81.5545 171.289 81.5639 171.384C83.8753 173.127 85.5736 173.484 86.8383 173.578C87.6447 173.638 88.3079 173.599 89.3158 173.573C90.0727 173.554 91.4137 173.517 92.7846 173.903L93.059 173.986L93.4467 174.119C95.3562 174.819 96.8638 175.98 98.0053 176.997C99.0426 177.921 100.492 179.428 101.171 180.076C103.316 182.124 103.97 185.136 104.313 186.75C104.692 188.532 104.872 189.673 105.155 190.61C105.436 190.729 105.849 190.884 106.521 191.127C108.25 191.753 111.293 192.821 113.745 195.471C116.114 198.033 117.72 199.967 118.86 201.274C120.035 202.621 120.674 203.25 121.385 203.749C125.087 206.347 126.462 210.489 127.306 213.055C128.628 217.075 130.015 221.063 130.767 224.444C130.902 225.051 130.962 225.638 130.996 226.08C131.017 226.35 131.03 226.639 131.043 226.893C131.233 226.915 131.475 226.945 131.713 226.979C132.716 227.12 134.526 226.634 136.706 224.701C136.729 224.665 136.846 224.495 137.14 223.986C137.473 223.41 138.193 222.105 139.418 221.029L139.675 220.813C140.97 219.781 142.379 219.407 143.042 219.232C143.059 219.227 143.076 219.222 143.091 219.218C143.073 218.891 143.042 218.498 142.996 218.017C142.722 215.141 142.06 210.359 142.32 203.392C142.383 201.705 142.659 200.061 143.477 198.654C144.434 197.007 145.771 196.339 146.181 196.122C146.352 196.032 146.517 195.951 146.647 195.888C146.731 195.646 146.883 195.153 147.074 194.229C147.358 192.848 147.747 190.417 148.606 188.166C149.181 186.659 149.398 185.277 149.912 183.17C150.331 181.449 151.049 178.772 153.053 176.762C155.849 173.959 159.896 173.222 162.424 172.859C163.129 172.757 163.817 172.675 164.436 172.603C165.074 172.528 165.618 172.465 166.124 172.396C166.629 172.327 167.014 172.263 167.309 172.197C167.5 172.155 167.607 172.122 167.651 172.108C167.685 172.083 167.828 171.979 168.113 171.686C168.315 171.477 168.5 171.27 168.786 170.955C168.893 170.837 169.019 170.699 169.157 170.552C169.168 170.204 169.148 169.689 169.067 168.98C168.965 168.095 168.797 167.11 168.6 166.038C168.414 165.026 168.187 163.856 168.028 162.839C167.922 162.164 167.594 161.278 166.969 160.075C166.27 158.73 165.683 157.836 164.808 156.264C163.119 153.228 161.501 149.31 160.51 144.81C160.147 143.16 160.061 141.675 160.017 140.601C159.993 140.007 159.984 139.666 159.962 139.313C159.947 139.06 159.931 138.961 159.931 138.955L159.938 138.983L159.881 138.728C159.355 136.107 160.422 133.938 161.488 132.543C162.559 131.141 163.982 130.023 165.169 129.195C166.391 128.342 167.71 127.563 168.701 126.968C169.067 126.748 169.372 126.561 169.624 126.403C169.596 126.297 169.565 126.183 169.529 126.06C168.735 123.326 167.249 122.064 164.876 119.181C164.76 119.04 164.613 118.881 164.373 118.634C164.171 118.426 163.82 118.072 163.504 117.72C162.828 116.964 161.911 115.788 161.449 114.1C160.682 111.298 161.877 108.998 162.736 107.76C163.597 106.519 164.738 105.47 165.208 105.016C167.31 102.987 169.78 102.394 171.389 102.142C171.418 102.137 171.447 102.134 171.477 102.129C171.375 101.648 171.254 101.12 171.11 100.446C170.91 99.5128 170.664 98.2728 170.621 97.0412C170.52 94.1506 171.589 91.9288 172.643 90.3918C172.428 90.2885 172.196 90.177 171.938 90.0529C171.256 89.7244 170.375 89.2914 169.554 88.7638C166.306 86.6765 165.567 82.9675 165.329 80.883C165.077 78.6634 165.218 76.0602 165.216 75.2697C165.213 74.0339 165.587 72.9682 165.905 72.2443C166.243 71.4738 166.678 70.7353 167.112 70.0724C167.972 68.7568 169.109 67.3142 170.225 65.9289C173.307 62.1033 176.779 61.1555 179.664 60.8439C179.986 60.8092 180.308 60.7823 180.609 60.759C180.513 60.6819 180.416 60.601 180.314 60.5207C178.588 59.1596 175.465 57.0079 173.445 54.882C171.192 52.5112 169.14 51.1422 167.654 50.7346C165.213 50.0652 160.744 48.3213 156.24 46.5578C151.562 44.7268 146.584 42.7667 142.73 41.4543C140.284 40.6214 138.178 39.5381 136.404 38.6584C134.569 37.7486 132.97 36.9916 131.108 36.4367C126.892 35.1807 123.67 33.6784 120.607 32.1271C117.517 30.5624 114.783 29.0566 111.1 27.4836C104.874 24.824 99.363 22.8996 95.1371 21.4367C93.0571 20.7167 91.1942 20.0762 89.765 19.5256C89.0476 19.2491 88.3515 18.9622 87.7426 18.6662C87.2206 18.4124 86.3992 17.9837 85.6967 17.3361C84.5625 16.2906 82.749 15.4919 80.3334 14.7258C79.7588 14.5435 79.187 14.3735 78.6 14.1994C78.0284 14.0299 77.4227 13.8519 76.8529 13.6711C76.0772 13.4249 75.1059 13.0978 74.182 12.6437C73.4494 12.5193 72.6857 12.397 71.8783 12.2707C70.8396 12.1082 69.731 11.9339 68.6615 11.7316C66.8632 11.3914 64.62 10.8828 62.7572 9.89178C62.7242 9.90555 62.6911 9.91973 62.6576 9.93279Z" fill="#151515"/>
</g>
<defs>
<filter id="filter0_d_369_177" x="0" y="0" width="195.828" height="244.005" filterUnits="userSpaceOnUse" color-interpolation-filters="sRGB">
<feFlood flood-opacity="0" result="BackgroundImageFix"/>
<feColorMatrix in="SourceAlpha" type="matrix" values="0 0 0 0 0 0 0 0 0 0 0 0 0 0 0 0 0 0 127 0" result="hardAlpha"/>
<feOffset dy="4"/>
<feGaussianBlur stdDeviation="2"/>
<feComposite in2="hardAlpha" operator="out"/>
<feColorMatrix type="matrix" values="0 0 0 0 0 0 0 0 0 0 0 0 0 0 0 0 0 0 0.25 0"/>
<feBlend mode="normal" in2="BackgroundImageFix" result="effect1_dropShadow_369_177"/>
<feBlend mode="normal" in="SourceGraphic" in2="effect1_dropShadow_369_177" result="shape"/>
</filter>
</defs>
</svg>
