<svg width="182" height="133" viewBox="0 0 182 133" fill="none" xmlns="http://www.w3.org/2000/svg">
<g filter="url(#filter0_d_369_279)">
<path fill-rule="evenodd" clip-rule="evenodd" d="M141.956 0.0604737C143.914 -0.293431 145.801 0.942139 146.171 2.82122C146.216 3.05047 146.235 3.27916 146.232 3.50383C146.316 3.49364 146.401 3.48801 146.487 3.48625C147.815 3.45931 148.916 4.47041 148.944 5.74504C149.02 9.20905 148.945 12.2447 148.771 14.6083C148.684 15.7884 148.571 16.8254 148.434 17.6757C148.306 18.4695 148.132 19.2807 147.856 19.9003C147.314 21.1194 146.255 21.776 145.722 22.0966C144.988 22.5383 144.852 22.5926 144.727 22.7128C144.739 22.7038 144.619 22.8495 144.422 23.3154C144.227 23.7756 144.03 24.3711 143.825 25.0751C143.621 25.7748 143.425 26.5212 143.223 27.288C143.026 28.0373 142.82 28.8141 142.607 29.5068C142.189 30.8648 142.079 32.6515 142.075 34.5204C142.073 35.457 142.094 36.2822 142.101 37.121C142.108 37.8863 142.103 38.706 142.013 39.3671C141.787 41.0319 141.173 42.1752 140.598 43.0165C140.464 43.2136 140.334 43.3911 140.227 43.5351C140.112 43.6904 140.037 43.7916 139.968 43.8896C139.914 43.9675 139.884 44.0152 139.871 44.038C139.54 45.1808 139.26 46.519 138.439 48.5781C137.69 50.4571 137.056 52.1296 136.878 54.7851C136.89 54.8203 136.915 54.8838 136.965 54.9775C137.101 55.2304 137.334 55.5589 137.669 55.9501C138.342 56.7365 139.195 57.5122 139.892 58.1445C140.255 58.4733 140.811 58.821 142.397 58.8534C144.174 58.8898 146.714 58.9629 149.005 59.6142C150.29 59.9798 150.937 59.8521 151.494 59.6542C151.864 59.5226 152.228 59.3446 152.793 59.0693C153.323 58.8109 153.992 58.4882 154.783 58.2109C155.082 58.1059 156.271 57.5647 157.594 58.0751C159.057 58.6398 159.889 59.6753 160.387 60.5722C160.792 61.3002 161.173 62.3885 161.281 62.6415C161.561 63.3002 161.817 64.1655 162.001 64.7206C162.221 65.3861 162.411 65.8574 162.614 66.1845C162.867 66.592 163.203 66.9116 163.685 67.2909C163.84 67.4131 164.288 67.7515 164.51 67.9306C164.804 68.1676 165.171 68.486 165.5 68.8857C166.092 69.6063 167.281 70.4706 168.688 71.2988C169.94 72.0355 171.157 72.6223 171.811 72.9286C172.155 73.0388 172.498 73.1221 172.822 73.1835C172.853 72.6333 172.887 72.082 172.925 71.5341C173.015 70.2625 174.163 69.3011 175.488 69.3866C176.813 69.4725 177.816 70.5736 177.726 71.8456C177.549 74.3716 177.462 76.9003 177.342 79.3114C177.225 81.6676 177.076 83.9366 176.758 85.7441L176.614 86.5654L175.957 87.1083C174.414 88.3844 172.651 90.0916 168.835 91.6572C166.753 92.5109 165.066 93.3414 163.465 94.1171C161.887 94.8812 160.34 95.6194 158.688 96.1845C157.793 96.4906 156.761 96.7274 155.818 96.9325C154.823 97.1491 153.909 97.3346 153.048 97.5566C152.178 97.7807 151.547 97.9978 151.136 98.2128C151.02 98.2735 150.946 98.3221 150.901 98.3544C149.949 101.266 149.702 103.461 149.702 105.828C149.702 107.103 148.625 108.136 147.297 108.137C146.102 108.137 145.113 107.301 144.924 106.206C143.588 107.334 141.96 108.51 139.971 109.201C134.835 110.986 130.527 112.343 128.09 113.661C126.408 114.57 124.76 115.172 123.216 115.679C121.61 116.205 120.27 116.584 118.829 117.13C116.708 117.932 114.907 118.899 112.965 119.849C111.11 120.755 109.082 121.669 106.884 121.987C106.296 122.072 105.705 122.216 104.986 122.415C104.305 122.604 103.429 122.866 102.496 123.1C100.535 123.591 98.1053 124.024 94.6325 124.053C81.6647 124.159 72.4757 123.665 68.8747 123.621C64.5142 123.567 60.6871 123.417 57.4284 123.275C54.1458 123.133 51.5024 123.001 49.4186 122.976C45.0628 122.921 41.3379 122.651 38.2673 122.382C35.1291 122.106 32.8553 121.852 31.151 121.792C24.9683 121.575 21.1469 121.36 18.5348 121.198C17.5809 121.139 16.8058 121.09 16.1471 121.05C16.2588 121.324 16.3676 121.598 16.4684 121.871C16.9118 123.073 16.2558 124.393 15.0036 124.818C13.7514 125.244 12.377 124.614 11.9333 123.413C11.0333 120.975 9.77236 118.82 8.36882 115.846C8.06505 115.202 7.67673 114.55 7.21355 113.8C6.76922 113.08 6.23964 112.246 5.76628 111.374C4.79283 109.581 3.93756 107.428 4.00359 104.735C4.11569 100.167 4.53348 97.0061 4.91179 94.4902C5.29635 91.9328 5.59034 90.298 5.56511 88.4833C5.4581 80.7981 4.97789 78.333 4.34148 74.2763C4.14385 73.0157 5.04839 71.8393 6.36198 71.6493C7.67558 71.4597 8.90126 72.3284 9.09929 73.5888C9.467 75.9327 9.79096 77.8133 10.0231 80.4423C10.0716 80.4395 10.1204 80.4355 10.1696 80.4355C11.9381 80.4355 15.3025 80.159 18.7067 79.6347C22.2053 79.0958 25.2854 78.3606 26.7438 77.6025C27.6475 77.1325 28.4987 76.4514 29.6764 75.5771C30.7268 74.7974 32.0985 73.8188 33.6794 73.3407C34.8783 72.9782 36.4463 72.7109 37.9401 72.4482C39.5085 72.1723 41.1445 71.8789 42.736 71.4618C44.2342 71.0691 45.5235 70.3047 46.8014 69.3984C47.5258 68.8846 47.9642 68.538 48.693 68.0116C49.3106 67.5657 50.0136 67.0865 50.7594 66.7255C52.7347 65.7695 55.6395 64.4484 58.7057 63.2978C60.8024 62.5111 63.3343 62.2158 65.4323 62.0361C67.7505 61.8374 69.3904 61.7773 70.4206 61.5585C74.6278 60.6647 77.0723 60.1155 80.4587 59.8759C81.9883 59.7677 83.6062 59.15 85.4186 58.1171C87.5273 56.9152 89.6859 55.2077 90.9792 53.6288C92.0763 52.2895 93.5099 50.7058 94.9362 49.1191C96.3844 47.508 97.8448 45.8735 99.0768 44.3573C100.287 42.8679 101.701 41.7747 103.699 41.0429C105.589 40.3506 107.908 40.0191 110.853 39.8271C110.972 39.8193 111.074 39.8103 111.164 39.8027C111.665 38.4098 111.862 37.2546 112.092 36.1259C112.322 35.0008 112.654 33.3308 114.04 32.1142L114.226 31.9609C115.177 31.2342 116.366 31.0737 116.964 30.996C117.882 30.8767 118.345 30.8679 119.042 30.7441C119.106 30.6683 119.232 30.4695 119.376 30.0029C119.668 29.0517 119.776 27.8354 119.934 26.3818C120.228 23.6857 119.816 20.7776 119.26 18.4472C118.472 15.1374 117.559 11.9709 116.864 9.97551L116.856 9.95305L116.849 9.93059L116.416 8.59368C116.281 8.17807 116.115 7.67313 115.978 7.2509C115.583 6.03385 116.291 4.73875 117.559 4.3593C118.143 4.1848 118.743 4.23615 119.259 4.45891C119.916 3.28247 121.254 2.52755 122.729 2.64055C123.11 2.66972 123.6 2.64031 124.445 2.55461C125.194 2.47857 126.27 2.3519 127.38 2.33879C133.495 2.26661 139.547 0.495857 141.956 0.0604737ZM144.145 6.60149C143.879 6.72001 143.594 6.81061 143.293 6.86516C141.966 7.10483 134.413 9.18261 127.468 9.26458C126.781 9.2727 126.119 9.34944 125.204 9.44231C124.384 9.52552 123.281 9.63024 122.154 9.54387C122.019 9.53348 121.886 9.5152 121.756 9.49114C122.449 11.6218 123.252 14.4871 123.951 17.4179C124.568 20.0056 125.088 23.4657 124.718 26.8622C124.586 28.0791 124.442 29.844 123.991 31.3095C123.553 32.7321 122.537 34.8017 120.022 35.2665C119.531 35.3572 119.059 35.4134 118.655 35.457C118.216 35.5043 117.918 35.5311 117.609 35.5712C117.424 35.5952 117.293 35.6193 117.201 35.6386C117.12 35.7903 116.993 36.1406 116.815 37.0126C116.579 38.1681 116.288 39.908 115.45 42.0009C115.085 42.9105 114.418 43.631 113.412 44.0292C112.652 44.3298 111.795 44.3924 111.179 44.4325C108.351 44.6169 106.617 44.9162 105.415 45.3564C104.32 45.7571 103.6 46.2998 102.872 47.1962C101.555 48.8162 100.018 50.534 98.5788 52.1347C97.1184 53.7593 95.7747 55.2466 94.7624 56.4823C93.0123 58.6188 90.3512 60.6749 87.8757 62.0859C85.7722 63.2847 83.4057 64.2959 80.8132 64.4794C77.8395 64.6898 75.7516 65.1549 71.4616 66.0663C70.028 66.3709 67.7335 66.4733 65.861 66.6337C63.768 66.8131 61.8516 67.0746 60.4577 67.5976C57.5764 68.6788 54.8162 69.933 52.9264 70.8476C52.5817 71.0144 52.1605 71.2857 51.5866 71.7001C51.124 72.0341 50.3014 72.6576 49.6618 73.1113C48.2112 74.14 46.3547 75.2999 44.0046 75.9159C42.188 76.392 40.3607 76.7171 38.8083 76.9902C37.1817 77.2762 35.97 77.4888 35.1257 77.7441C34.4601 77.9454 33.7008 78.4269 32.6198 79.2294C31.6661 79.9374 30.3834 80.9613 29.0358 81.662C26.7713 82.8394 22.9303 83.6602 19.4694 84.1933C15.9816 84.7305 12.4176 85.0381 10.2926 85.0497C10.3285 86.0624 10.3583 87.178 10.3757 88.4218C10.4072 90.6935 10.0293 92.7821 9.67351 95.1484C9.31142 97.5563 8.92021 100.522 8.81413 104.844C8.77429 106.471 9.26744 107.831 10.0329 109.24C10.4289 109.969 10.8665 110.659 11.3532 111.447C11.8211 112.205 12.3292 113.046 12.7516 113.941C13.1172 114.716 13.5157 115.514 13.9225 116.324C15.2059 116.349 16.6336 116.454 18.8444 116.591C21.4173 116.75 25.194 116.963 31.3268 117.178C33.2059 117.244 35.7684 117.527 38.7048 117.785C41.709 118.049 45.2984 118.307 49.4811 118.359C51.6665 118.387 54.4294 118.524 57.6462 118.664C60.8868 118.805 64.6531 118.951 68.9362 119.004C72.864 119.052 81.6251 119.542 94.5915 119.435C97.6215 119.411 99.6559 119.04 101.28 118.633C102.139 118.417 102.836 118.205 103.652 117.979C104.43 117.764 105.263 117.552 106.168 117.421C107.525 117.225 108.944 116.633 110.78 115.735C112.528 114.881 114.661 113.744 117.064 112.835C118.637 112.24 120.286 111.76 121.66 111.309C123.097 110.838 124.423 110.344 125.727 109.639C128.625 108.072 133.564 106.518 138.334 104.86C139.769 104.362 141.054 103.379 142.461 102.122C142.669 101.936 142.858 101.635 143.005 101.194C143.151 100.754 143.215 100.304 143.263 99.8935C143.413 98.6268 144.604 97.7159 145.924 97.8593C145.959 97.8631 145.994 97.8707 146.028 97.8759C146.132 97.5234 146.245 97.1628 146.368 96.7939L146.462 96.5439C146.963 95.3277 148.001 94.5949 148.834 94.1591C149.754 93.6779 150.826 93.3486 151.799 93.0976C152.781 92.8445 153.852 92.6266 154.753 92.4306C155.706 92.2231 156.481 92.0384 157.073 91.8359C158.402 91.3811 159.696 90.7697 161.296 89.995C162.871 89.2319 164.698 88.3335 166.944 87.412C169.532 86.3502 170.796 85.3087 172.133 84.1816C172.321 82.7936 172.439 81.0681 172.537 79.0907C172.557 78.6787 172.575 78.256 172.594 77.8251C171.824 77.7219 170.963 77.541 170.094 77.247L169.967 77.203L169.845 77.1464C169.186 76.8396 167.718 76.1438 166.174 75.2353C164.693 74.3644 162.874 73.1465 161.721 71.7431C161.58 71.5708 161.407 71.4693 160.634 70.8613C159.995 70.3576 159.155 69.6357 158.479 68.5468C157.973 67.7308 157.648 66.8215 157.416 66.12C157.147 65.3081 157.01 64.8185 156.827 64.3876C156.692 64.0707 156.534 63.6459 156.444 63.4169C156.331 63.1298 156.237 62.9176 156.141 62.745C156.127 62.7192 156.113 62.6952 156.099 62.6728C155.731 62.8196 155.375 62.9889 154.971 63.1855C154.483 63.4236 153.849 63.7406 153.163 63.9843C151.606 64.537 149.894 64.6824 147.638 64.0409C146.049 63.589 144.123 63.5071 142.295 63.4697C139.846 63.4195 138.031 62.8103 136.587 61.4999C135.928 60.9027 134.848 59.9292 133.95 58.8798C133.499 58.3532 133.037 57.7414 132.686 57.0868C132.351 56.4602 132.006 55.5901 132.067 54.6083L132.115 53.9794C132.388 50.9034 133.185 48.834 133.945 46.9286C134.675 45.0969 134.825 44.2031 135.256 42.7314C135.437 42.1125 135.758 41.6232 135.976 41.3124C136.088 41.1528 136.212 40.9875 136.304 40.8622C136.405 40.726 136.491 40.6071 136.574 40.4863C136.869 40.0545 137.134 39.5649 137.242 38.7695C137.283 38.4698 137.296 37.9568 137.29 37.1581C137.284 36.4328 137.261 35.4614 137.263 34.5097C137.268 32.6009 137.365 30.2394 137.994 28.1982C138.175 27.6085 138.358 26.9203 138.558 26.1581C138.754 25.4133 138.966 24.6002 139.191 23.83C139.415 23.0643 139.669 22.2771 139.964 21.58C140.236 20.9368 140.639 20.128 141.261 19.5107L141.405 19.374C141.741 19.0664 142.087 18.8328 142.362 18.6611C142.522 18.5608 142.681 18.469 142.812 18.3925C142.953 18.3104 143.059 18.2485 143.166 18.1845C143.32 18.0917 143.412 18.0264 143.463 17.9882C143.477 17.9407 143.498 17.8739 143.52 17.7861C143.571 17.5824 143.624 17.3116 143.679 16.9697C143.79 16.2845 143.891 15.3832 143.971 14.2841C144.12 12.2562 144.193 9.63377 144.145 6.60149Z" fill="black"/>
</g>
<defs>
<filter id="filter0_d_369_279" x="0" y="0" width="181.732" height="132.951" filterUnits="userSpaceOnUse" color-interpolation-filters="sRGB">
<feFlood flood-opacity="0" result="BackgroundImageFix"/>
<feColorMatrix in="SourceAlpha" type="matrix" values="0 0 0 0 0 0 0 0 0 0 0 0 0 0 0 0 0 0 127 0" result="hardAlpha"/>
<feOffset dy="4"/>
<feGaussianBlur stdDeviation="2"/>
<feComposite in2="hardAlpha" operator="out"/>
<feColorMatrix type="matrix" values="0 0 0 0 0 0 0 0 0 0 0 0 0 0 0 0 0 0 0.25 0"/>
<feBlend mode="normal" in2="BackgroundImageFix" result="effect1_dropShadow_369_279"/>
<feBlend mode="normal" in="SourceGraphic" in2="effect1_dropShadow_369_279" result="shape"/>
</filter>
</defs>
</svg>
