<svg width="98" height="159" viewBox="0 0 98 159" fill="none" xmlns="http://www.w3.org/2000/svg">
<g filter="url(#filter0_d_369_380)">
<path d="M72.837 0.182617C74.2351 -0.168994 75.4496 0.0438658 76.4044 0.342773C77.1206 0.567042 78.2527 1.05775 78.8195 1.27637C80.3149 1.85317 82.7205 2.62649 87.2325 2.88379C88.3963 2.95014 89.6105 3.12108 90.6632 3.66699C92.0136 4.36745 92.5486 5.40111 92.7218 5.71875C93.9893 8.0439 93.9204 10.9325 93.6613 12.9795C93.3856 15.1561 92.7634 17.3232 92.1105 18.7012C91.4931 20.0042 90.3667 21.3264 89.3243 22.3936C88.2137 23.5306 86.9044 24.6728 85.6339 25.6211C84.9122 26.1599 84.3659 26.9616 83.8722 28.1445C83.6247 28.7376 83.415 29.3645 83.1886 30.0674C82.9783 30.7204 82.7276 31.5275 82.4445 32.2529C81.7426 34.0512 80.8113 35.2843 80.0763 36.2012C79.2904 37.1815 78.9989 37.5184 78.7765 38C78.4534 38.6997 78.2646 39.4005 78.0695 40.4092C77.8882 41.3461 77.6619 42.8067 77.2921 44.3887C76.3497 48.4202 76.8815 50.6746 77.0763 54.1875C77.0763 54.1936 77.0933 54.3385 77.5792 55.1562C77.9256 55.7391 78.7741 57.0427 79.0255 58.665L79.0675 58.9951L79.088 59.2568C79.1677 60.5614 78.8553 61.7595 78.1974 62.8193C77.5662 63.8359 76.7087 64.568 76.0695 65.0713C74.6042 66.2249 73.6235 66.7667 72.4562 68.0664C71.8455 68.7464 71.1871 69.3327 70.547 69.8516L70.7355 69.9346L70.9396 70.0371C73.006 71.1182 73.7551 73.1239 74.0714 74.2051C74.4161 75.3832 74.5984 76.8463 74.7003 77.4395C74.8866 78.5227 74.9653 80.2976 75.2101 84.6084C75.4106 88.14 75.3057 94.2658 75.3448 97.2139C75.3736 99.3799 75.3864 100.975 75.338 102.16C75.2908 103.317 75.179 104.416 74.7892 105.445C74.4131 106.438 73.7126 108.61 71.88 110.029C69.8151 111.628 67.3031 111.239 66.2423 111.035C65.5795 110.908 64.9448 110.732 64.4972 110.608C63.9634 110.461 63.7432 110.403 63.6144 110.381C63.5606 110.372 63.1749 110.344 62.2042 110.748C61.2499 111.146 60.2287 111.737 58.9171 112.486C57.9258 113.052 57.2001 113.83 55.4142 117.094C54.6363 118.515 54.0205 119.698 53.4347 120.845C53.2695 121.396 53.0258 122.109 52.7931 122.816C52.4718 123.793 52.0629 125.08 51.5929 126.752C51.3224 128.645 51.3126 131.236 51.3126 134.279C51.3125 135.608 50.5325 136.761 49.3878 137.342C49.2304 137.825 49.0374 138.418 48.7863 139.166L48.671 139.511L48.4835 139.825C48.1214 140.432 47.7105 141.074 47.2413 141.642C46.7764 142.204 46.1068 142.876 45.1632 143.344C44.1509 143.846 43.246 144.145 42.6085 144.352C42.2651 144.463 42.065 144.526 41.881 144.593C41.7103 144.655 41.6677 144.679 41.6847 144.67C41.572 144.732 41.5227 144.778 41.4972 144.804C41.4613 144.84 41.4164 144.893 41.298 145.063C40.5052 146.207 39.2254 147.178 37.4669 147.936C36.5045 148.35 35.4836 148.785 34.5568 149.128C33.7177 149.439 32.6001 149.814 31.546 149.909C30.9044 149.967 30.2113 150.077 28.3888 150.048C27.0416 150.026 24.374 149.944 22.671 149.691C20.9715 149.439 19.4316 148.966 18.3448 147.701C17.4552 146.665 16.972 145.59 16.673 144.79C16.5552 144.475 16.4894 144.185 16.4562 144.03C16.4242 143.882 16.3839 143.675 16.3663 143.587C16.3191 143.349 16.2756 143.154 16.2062 142.944C16.0801 142.564 15.8142 141.961 15.0968 141.162C14.5858 140.593 14.1839 140.132 13.7892 139.736C13.7798 139.727 13.7709 139.717 13.7618 139.708C13.0338 139.703 11.9832 139.68 10.7531 139.523C10.028 139.431 9.26939 139.261 8.54309 138.915C7.75149 138.538 7.21537 138.057 6.83704 137.634C5.95858 136.65 5.36935 135.17 5.16125 133.632C5.06258 132.903 5.00714 132.118 4.95715 131.495C4.90296 130.82 4.85022 130.267 4.7677 129.778C4.59205 128.737 4.44066 126.273 4.42395 124.403C4.41592 123.504 4.34552 122.535 4.25891 121.481C4.17605 120.474 4.07349 119.34 4.0343 118.302C3.96037 116.341 3.98992 114.527 4.28528 113.23C4.66741 111.553 4.90224 109.495 4.95227 108.662C4.97282 108.32 4.9863 107.939 5.0011 107.501C5.01531 107.081 5.03044 106.605 5.05676 106.146C5.08887 105.585 5.14631 104.692 5.37024 103.824C4.6218 102.699 4.5897 101.21 5.41418 100.03C5.52323 99.8743 5.57225 99.8025 5.61633 99.7314C5.65203 99.6739 5.68632 99.614 5.72473 99.5312C5.80129 99.3662 5.88203 99.1388 5.93274 98.8447C5.96417 98.302 6.01429 97.2254 6.05579 96.6592C6.11535 95.8467 6.21999 94.853 6.49036 93.9043C6.51569 93.8154 6.81892 92.3977 7.23254 91.4141C7.38356 91.055 8.06949 89.4057 8.95325 86.6191C9.73521 84.1536 10.2375 82.8305 10.5148 81.7344C10.6359 81.2555 10.7942 80.7869 10.8966 80.4746C11.0127 80.1206 11.0876 79.879 11.1417 79.6514C11.2345 79.2612 11.2413 79.004 11.1652 78.709C11.0364 78.2106 10.9478 77.7447 10.882 77.376C10.8394 77.1378 10.8089 76.964 10.7823 76.8174C10.1681 76.3713 9.2702 75.6477 8.63684 74.7842C8.30264 74.3285 7.25849 73.0546 6.69348 71.8438C5.7933 69.9143 5.52135 68.964 5.33704 67.9004C5.20742 67.1523 5.33855 66.4206 5.66614 65.79C5.1153 63.2508 4.65749 59.6433 4.84387 55.5879C4.9605 53.051 5.63632 50.7491 6.31067 48.8848C6.64746 47.9537 7.00363 47.083 7.29407 46.3623C7.60031 45.6024 7.81737 45.0474 7.96008 44.5967C8.71301 42.2186 9.82407 40.102 11.0353 37.2744C11.1181 37.0811 11.1885 36.9021 11.2882 36.6494C11.3784 36.4208 11.4984 36.1165 11.6447 35.8047C11.9576 35.1376 12.4243 34.3476 13.2296 33.6045L13.5128 33.3574C14.9396 32.1794 16.5761 31.8115 18.004 31.6504C19.2944 31.5048 21.0594 31.4798 22.839 31.4072C24.4821 31.026 26.6222 30.0672 28.67 29.1631L28.8263 29.0938L28.9884 29.04C29.4571 28.8829 30.0258 28.6958 31.0382 28.5244C31.135 28.508 31.2321 28.4961 31.3282 28.4873C31.376 28.4189 31.4251 28.3506 31.4728 28.2812C32.9084 26.1922 34.0826 23.9928 34.3995 22.793C35.393 19.0322 37.4602 16.267 38.3097 14.7646C39.3167 12.9836 40.4841 11.8814 41.2736 11.1445C41.9344 10.5277 42.076 10.3563 42.0997 10.3242C44.0136 5.40013 48.5537 4.40984 49.2111 4.12109C50.5955 3.51302 51.9836 3.40897 53.1554 3.51074C54.7894 3.65282 56.2117 4.44326 56.8605 4.78809C57.2975 5.02039 57.5656 5.16654 57.8341 5.29102C58.059 5.39523 58.1573 5.42175 58.1681 5.4248C59.2707 5.65002 60.5387 5.88153 63.4786 5.61621C64.312 5.54092 64.9785 5.16504 66.3781 4.0127C67.6239 2.98691 69.6408 1.13975 72.5538 0.260742L72.837 0.182617ZM74.3595 6.99121C73.334 7.38531 72.5163 8.08374 71.0773 9.26855C69.628 10.4618 67.4444 12.2147 64.1544 12.5117C60.4023 12.8503 58.3961 12.5528 56.6652 12.1992C55.8844 12.0397 55.2071 11.764 54.6945 11.5264C54.1944 11.2945 53.6933 11.021 53.3634 10.8457C52.98 10.6419 52.7433 10.523 52.5529 10.4453C52.5002 10.4238 52.4622 10.4121 52.4386 10.4043C52.3583 10.4005 52.3015 10.4034 52.2657 10.4082C52.244 10.4111 52.2296 10.4142 52.2228 10.416C52.2199 10.4168 52.2181 10.4176 52.2169 10.418L52.215 10.4189C51.7701 10.6143 51.0403 10.8725 50.8175 10.958C50.4467 11.1004 50.1776 11.2227 49.9513 11.3584C49.5969 11.571 49.1906 11.8984 48.8615 12.7461C48.2002 14.4491 46.8888 15.5642 46.3058 16.1084C45.6252 16.7436 45.1169 17.2477 44.6534 18.0674C43.2591 20.5336 42.0924 21.8533 41.3947 24.4951C40.766 26.8748 39.0215 29.8781 37.4982 32.0947C36.9291 32.9228 36.3109 33.7613 35.7335 34.4658C35.446 34.8167 35.1429 35.1665 34.8409 35.4766C34.5817 35.7427 34.1593 36.1525 33.6388 36.4785C32.3527 37.2841 30.7303 37.2002 29.5548 36.3867C27.8731 37.1021 25.8527 37.8838 24.049 38.2441L23.7677 38.3008L23.4796 38.3135C21.1124 38.4182 19.8792 38.4118 18.8468 38.5283C18.5292 38.5642 18.3385 38.6031 18.2335 38.6309C18.231 38.6361 18.2284 38.6417 18.2257 38.6475C18.1786 38.7478 18.1253 38.877 18.0363 39.1025C17.9568 39.304 17.8424 39.6007 17.7111 39.9072C16.2106 43.4101 15.4915 44.6325 14.8654 46.6104C14.6321 47.3471 14.3149 48.1399 14.0245 48.8604C13.7185 49.6198 13.4163 50.3638 13.13 51.1553C12.5579 52.7368 12.1273 54.3161 12.0548 55.8926C11.826 60.8702 12.7619 64.9074 13.2257 66.2168C13.5228 67.0555 13.4646 67.9276 13.13 68.6836C13.1767 68.7867 13.226 68.897 13.2804 69.0137C13.4681 69.4159 13.7775 69.7594 14.5392 70.7979C14.5442 70.804 14.5669 70.8304 14.6134 70.875C14.6733 70.9323 14.7562 71.0045 14.8702 71.0928C14.9852 71.1818 15.1135 71.2739 15.2667 71.3809C15.3857 71.4639 15.615 71.6203 15.7765 71.7363C16.6067 72.333 17.067 73.079 17.3273 73.6494C17.5796 74.2025 17.7137 74.7452 17.795 75.124C17.8748 75.4956 17.9467 75.9297 17.9962 76.207C18.0539 76.5301 18.1063 76.7953 18.17 77.042C18.9504 80.062 17.6257 82.9825 17.5284 83.3672C17.1915 84.6996 16.4882 86.6512 15.8585 88.6367C14.9005 91.6574 14.1373 93.5009 13.9249 94.0059C13.8575 94.1663 13.7994 94.3529 13.7296 94.6289C13.6916 94.7792 13.6606 94.9094 13.6134 95.1055C13.5709 95.2823 13.5175 95.5014 13.4523 95.7305C13.3747 96.0026 13.3063 96.4455 13.255 97.1455C13.1901 98.0311 13.1971 98.3682 13.1271 99.4355L13.1183 99.5605L13.1017 99.6836C13.09 99.7662 13.0751 99.8473 13.0616 99.9277C13.9533 101.107 13.9854 102.727 13.0939 103.945C13.0702 103.989 13.0317 104.06 12.9796 104.166C12.8349 104.461 12.6335 104.904 12.3654 105.529C12.3597 105.557 12.3507 105.603 12.3409 105.669C12.3107 105.873 12.2841 106.155 12.2628 106.526C12.2418 106.894 12.2288 107.287 12.214 107.726C12.1998 108.146 12.184 108.615 12.1573 109.06C12.0894 110.192 11.8125 112.619 11.3361 114.71C11.2546 115.067 11.1736 116.099 11.2472 118.051C11.2792 118.901 11.3626 119.834 11.4532 120.937C11.5401 121.993 11.6313 123.178 11.6417 124.344C11.6576 126.121 11.8068 128.163 11.8927 128.672C12.0286 129.477 12.0984 130.29 12.1525 130.964C12.21 131.681 12.2492 132.225 12.3156 132.722C12.8709 132.768 13.3741 132.781 13.8175 132.783C14.065 132.785 14.4543 132.783 14.7081 132.789C14.8489 132.792 15.0567 132.799 15.2784 132.822C15.404 132.835 15.8121 132.878 16.2902 133.046L16.4991 133.126L16.7091 133.22C17.7427 133.709 18.5651 134.508 19.006 134.95C19.5706 135.517 20.1599 136.191 20.5656 136.643C21.9423 138.177 22.6739 139.61 23.0831 140.844C23.2813 141.441 23.3892 141.949 23.4572 142.292C23.4833 142.424 23.4994 142.51 23.5099 142.562C23.5479 142.658 23.5856 142.744 23.6222 142.821C23.6686 142.829 23.7186 142.839 23.7726 142.847C24.9229 143.017 27.1259 143.102 28.5089 143.124C29.2244 143.135 29.639 143.12 29.922 143.102C30.2795 143.078 30.3647 143.059 30.8702 143.014C30.8951 143.007 31.2118 142.943 31.9581 142.667C32.6805 142.4 33.5373 142.038 34.5118 141.618C35.0562 141.384 35.2834 141.203 35.3419 141.152C35.7799 140.528 36.5757 139.496 38.1017 138.658C38.9112 138.214 39.8455 137.937 40.3019 137.789C40.7879 137.632 41.1988 137.488 41.6163 137.299C41.7143 137.175 41.8485 136.984 42.0314 136.691C42.8003 134.369 43.1412 133.038 44.1056 131.344L44.1085 131.338C44.1341 129.286 44.2153 127.246 44.4825 125.536L44.5128 125.344L44.5656 125.154C45.0935 123.261 45.5551 121.811 45.9103 120.731C46.3018 119.542 46.4712 119.064 46.5392 118.795L46.632 118.429L46.8038 118.091C47.452 116.818 48.1372 115.494 49.0236 113.874C50.8155 110.599 52.3276 108.191 55.2267 106.535C56.3788 105.877 57.8558 105.01 59.3302 104.396C60.7877 103.788 62.7632 103.196 64.8976 103.566C65.4712 103.666 66.1027 103.846 66.4923 103.953C66.9164 104.07 67.2511 104.158 67.5529 104.222C67.6742 103.954 67.8076 103.606 68.007 103.08C68.0006 103.097 68.0856 102.882 68.1261 101.889C68.1657 100.919 68.1575 99.5177 68.1281 97.3027C68.083 93.9154 68.1954 88.3553 68.004 84.9854C67.7385 80.3082 67.6817 79.1581 67.5802 78.5674C67.5374 78.3186 67.4978 78.0618 67.462 77.8311C67.4248 77.5908 67.3896 77.3698 67.3527 77.1514C67.2945 76.8075 67.237 76.5196 67.1759 76.2764C67.0095 76.2666 66.8294 76.2566 66.6378 76.248C65.5888 76.201 64.3708 76.1816 63.5275 76.1816C61.7647 76.1816 60.298 74.9688 59.9825 73.3652C59.1072 72.0625 59.2286 70.3085 60.382 69.125C61.9144 67.5531 63.3474 66.4783 64.4933 65.626C65.6876 64.7377 66.3928 64.2089 66.9884 63.5459C68.698 61.6423 70.7318 60.3165 71.4923 59.7178C71.6266 59.612 71.7268 59.5255 71.8019 59.459C71.7017 59.2458 71.5661 59.0183 71.3097 58.5869C70.8937 57.8868 69.9725 56.4168 69.8693 54.5557C69.7148 51.7692 69.0241 48.1133 70.2491 42.873C70.5849 41.437 70.7231 40.44 70.9738 39.1445C71.2105 37.9211 71.5225 36.6136 72.1779 35.1943C72.8391 33.7624 73.8273 32.6387 74.3566 31.9785C74.937 31.2544 75.3578 30.6641 75.6857 29.8242C75.8743 29.3409 76.0458 28.7912 76.2931 28.0234C76.5244 27.3054 76.8078 26.4455 77.173 25.5703C77.9049 23.8165 79.0643 21.7507 81.2032 20.1543C82.1816 19.424 83.2107 18.5254 84.0587 17.6572C84.9751 16.719 85.4283 16.0709 85.5402 15.835C85.8292 15.2249 86.2915 13.7677 86.4972 12.1436C86.6255 11.1303 86.6148 10.3387 86.545 9.7793C81.3679 9.45953 78.2668 8.5275 76.1271 7.70215C75.0451 7.28478 74.7197 7.12042 74.3595 6.99121Z" fill="black"/>
</g>
<defs>
<filter id="filter0_d_369_380" x="0" y="0" width="97.8146" height="158.053" filterUnits="userSpaceOnUse" color-interpolation-filters="sRGB">
<feFlood flood-opacity="0" result="BackgroundImageFix"/>
<feColorMatrix in="SourceAlpha" type="matrix" values="0 0 0 0 0 0 0 0 0 0 0 0 0 0 0 0 0 0 127 0" result="hardAlpha"/>
<feOffset dy="4"/>
<feGaussianBlur stdDeviation="2"/>
<feComposite in2="hardAlpha" operator="out"/>
<feColorMatrix type="matrix" values="0 0 0 0 0 0 0 0 0 0 0 0 0 0 0 0 0 0 0.25 0"/>
<feBlend mode="normal" in2="BackgroundImageFix" result="effect1_dropShadow_369_380"/>
<feBlend mode="normal" in="SourceGraphic" in2="effect1_dropShadow_369_380" result="shape"/>
</filter>
</defs>
</svg>
