<svg width="189" height="269" viewBox="0 0 189 269" fill="none" xmlns="http://www.w3.org/2000/svg">
<g filter="url(#filter0_d_369_367)">
<path fill-rule="evenodd" clip-rule="evenodd" d="M36.0956 0.133031C37.3478 -0.292551 38.7231 0.336805 39.1669 1.5383C40.0443 3.91533 41.2994 6.93974 42.5321 9.66819C43.1163 10.9612 43.8202 12.1192 44.6395 13.4221C45.4452 14.7032 46.3692 16.1353 47.2528 17.8254C48.9407 21.0537 50.8546 23.968 52.6776 26.4455C53.397 27.4233 53.7964 28.619 54.0595 29.717C54.3275 30.8357 54.5042 32.0814 54.6581 33.2951C54.6838 33.3207 54.743 33.3741 54.8632 33.4446C55.2462 33.669 55.9343 33.905 57.0136 34.0969C59.1904 34.4838 61.9466 34.5439 64.8505 34.7102C66.1778 34.7862 67.4395 35.124 68.4149 36.0442C69.2985 36.8778 69.6418 37.9403 69.8378 38.5364C70.9697 41.9788 71.614 45.4046 72.1893 48.7014C72.7719 52.0396 73.2797 55.2125 74.1337 58.384C75.1651 62.2145 76.4926 66.7568 78.2147 71.2102C79.1634 73.6636 79.3576 75.9998 79.455 77.7522C79.5066 78.6823 79.526 79.33 79.5888 79.8948C79.6389 80.3451 79.6985 80.5065 79.7001 80.5198L79.8085 80.6848C81.178 82.6784 83.8777 83.9163 87.3046 84.3908C90.2611 84.8002 92.7071 86.1376 94.8466 87.801C96.9512 89.4375 98.9031 91.5088 100.792 93.4895C103.498 96.327 105.303 100.084 106.344 103.429L106.542 104.093L106.616 104.352L106.626 104.621C106.674 105.921 106.838 106.967 107.074 107.739C107.321 108.543 107.583 108.843 107.664 108.911L107.754 108.986L107.834 109.068C108.55 109.794 109.084 110.627 109.483 111.239C110.189 112.32 109.848 113.744 108.722 114.421C108.51 114.549 108.284 114.64 108.055 114.697C108.466 115.111 108.72 115.671 108.72 116.288C108.72 116.495 108.72 116.714 108.72 116.945C109.59 119.257 110.4 122.561 109.728 127.296C109.661 127.772 109.56 128.225 109.428 128.625C109.376 128.781 109.295 129.008 109.169 129.256C109.644 132.47 110.139 135.385 110.612 137.321C110.703 137.693 110.849 137.847 110.996 137.955C111.199 138.105 111.553 138.264 112.166 138.394C112.784 138.525 113.47 138.59 114.299 138.667C115.042 138.737 116.009 138.823 116.859 139.041C118.819 139.544 120.253 140.72 121.337 141.996C122.399 143.248 123.243 144.739 123.965 146.072C125.732 149.337 126.846 153.059 127.791 156.726C128.218 158.383 128.519 160.133 128.825 161.827C129.137 163.553 129.464 165.276 129.951 167.04C130.421 168.742 130.914 170.239 131.388 171.428C131.83 172.537 132.204 173.242 132.456 173.604C132.494 173.621 132.549 173.647 132.627 173.675C132.939 173.788 133.42 173.906 134.111 174.016C135.504 174.238 137.312 174.366 139.482 174.529C141.242 174.66 142.554 175.588 143.465 176.631C144.354 177.65 144.988 178.913 145.458 180.113C146.394 182.505 146.92 185.305 147.267 186.93C148.07 190.681 149.774 196.431 151.931 200.688C153.022 202.842 154.427 205.277 155.827 207.394C157.27 209.575 158.57 211.206 159.431 211.936C161.566 213.746 164.717 214.864 168.222 215.828C168.492 215.903 168.902 215.931 169.628 215.959C169.93 215.971 170.329 215.987 170.698 216.027C170.98 216.057 171.47 216.122 171.969 216.326L172.183 216.423L172.315 216.491C172.968 216.849 173.52 217.41 173.805 218.175C174.08 218.914 174.018 219.614 173.917 220.102C173.729 221.011 173.222 221.972 172.846 222.678C171.957 224.343 171.112 225.825 170.904 227.329C170.81 228.718 170.811 230.683 170.904 231.959C170.961 232.741 171.03 233.904 171.123 235.12C171.168 235.705 171.213 236.246 171.26 236.672C171.317 237.195 171.352 237.305 171.321 237.208C171.414 237.495 171.442 237.786 171.42 238.068C174.637 237.844 178.605 237.687 181.556 237.982C183.538 238.18 184.978 239.882 184.771 241.784C184.565 243.687 182.79 245.068 180.808 244.87C176.629 244.453 169.383 245.17 167.007 245.399C165.024 245.589 163.48 245.772 162.389 246.259C159.758 247.432 157.21 247.957 154.915 251.613C153.522 253.83 151.624 256.483 149.655 259.074C148.481 260.62 146.224 260.959 144.613 259.833C143.003 258.707 142.648 256.541 143.822 254.995C144.157 254.555 144.486 254.114 144.809 253.679C144.568 253.255 144.469 252.891 144.417 252.699L144.407 252.664C144.28 252.163 144.086 251.691 143.87 251.299L143.819 251.206L143.777 251.11C143.678 250.883 143.555 250.627 143.398 250.307C143.249 250.002 143.072 249.643 142.903 249.273C142.572 248.545 142.199 247.623 142.035 246.636C141.911 245.888 141.515 245.221 140.839 244.591C140.242 244.035 139.85 243.749 139.061 243.049C138.404 242.465 137.66 241.743 137.056 240.844C136.76 240.405 136.432 239.837 136.108 239.275C135.769 238.686 135.4 238.042 134.98 237.354C134.139 235.975 133.135 234.49 131.931 233.172C130.161 231.237 128.851 229.523 127.879 228.285C127.38 227.651 127.004 227.183 126.688 226.84C126.491 226.626 126.37 226.518 126.313 226.471C126.303 226.468 126.291 226.464 126.277 226.461C126.153 226.431 125.96 226.395 125.701 226.367C125.183 226.313 124.47 226.299 123.621 226.394C123.198 226.441 122.793 226.512 122.35 226.595C121.934 226.673 121.42 226.776 120.92 226.854C119.846 227.02 118.631 227.104 117.161 226.829C115.609 226.54 114.44 225.604 113.724 224.273C113.4 223.672 113.071 223.165 112.719 222.628C112.381 222.114 111.984 221.517 111.642 220.866C111.171 219.967 110.821 218.773 110.537 217.888C110.214 216.884 109.897 215.982 109.465 215.206C109.053 214.466 108.607 213.77 108.103 212.94C107.627 212.154 107.117 211.277 106.723 210.363C106.297 209.379 105.871 208.504 105.403 207.791C104.93 207.07 104.499 206.644 104.127 206.42C101.56 204.873 99.6265 203.472 98.08 202.3C96.4705 201.08 95.4727 200.265 94.5321 199.67C92.8572 198.611 91.208 197.275 90.3114 195.334C89.9238 194.495 89.4859 193.695 89.0175 193.094C88.787 192.798 88.5844 192.596 88.4208 192.47C88.2805 192.362 88.2046 192.335 88.1942 192.332C87.4865 192.167 86.3992 191.929 85.4716 191.5C84.4738 191.039 83.2813 190.182 82.8671 188.609C82.7648 188.22 82.6983 187.676 82.6444 187.235C82.581 186.715 82.513 186.11 82.4159 185.392C82.2235 183.968 81.9281 182.17 81.411 180.197C81.1645 179.257 80.8797 178.555 80.1024 177.675C79.2471 176.707 77.7365 175.459 74.8534 173.649C74.4059 173.368 74.0894 172.968 73.9169 172.521C73.0627 173.399 71.6353 173.508 70.6474 172.74C68.755 171.269 66.7803 169.746 65.1298 168.251C63.5122 166.786 61.9725 165.145 61.1483 163.379C60.3398 161.647 60.0592 159.792 59.8524 158.366C59.6188 156.755 59.4813 155.835 59.1796 155.223C58.4089 153.659 56.7888 151.64 55.0595 149.347C53.8159 147.698 52.8846 146.257 52.1337 145.165C51.3562 144.035 50.7638 143.265 50.077 142.644C48.1428 140.893 47.2258 138.557 46.745 135.978C46.4949 134.636 46.3451 133.198 46.2372 132.488C46.1933 132.2 46.1532 132 46.12 131.863C45.1721 131.177 43.842 130.444 42.2284 129.586C40.5305 128.683 38.5592 127.659 36.8798 126.539C33.748 124.451 32.301 122.08 31.7128 119.657C31.4332 118.506 31.3633 117.407 31.3417 116.455C31.3175 115.389 31.3471 114.759 31.3017 113.975C31.184 111.945 30.5111 109.948 29.62 107.341C29.2917 106.381 28.8338 105.794 28.0458 104.312C27.3238 102.954 26.6257 101.292 26.4013 98.9719C26.1965 96.8552 25.7413 95.416 25.4774 94.8C25.4406 94.7659 25.268 94.6155 24.7196 94.3908C24.3584 94.2429 23.9531 94.1085 23.454 93.9436C22.9891 93.79 22.4213 93.6035 21.8886 93.384C20.4174 92.7777 19.1383 91.8104 18.4442 90.4739C17.5385 88.7295 17.1506 86.2289 16.9745 83.6623C16.7921 81.0042 16.821 77.9231 16.9472 74.801C17.0102 73.2412 17.4342 71.8753 18.6591 71.0032C18.9855 70.7708 19.3002 70.6012 19.5272 70.4836C19.7973 70.3437 19.8947 70.2987 20.036 70.218C20.2071 70.1204 20.2728 70.0635 20.3554 69.9377C20.4778 69.7512 20.5414 69.6558 20.5956 69.5569C20.6041 69.5413 20.609 69.526 20.6151 69.5139C18.9478 66.6839 17.4226 65.3652 16.2284 64.5657C15.5784 64.1304 15.0298 63.8457 14.3661 63.469C13.7707 63.131 12.9819 62.6658 12.3339 61.9612C11.15 60.6737 10.6739 59.0332 10.4901 57.5149C10.304 55.9767 10.3877 54.3001 10.5546 52.6946C10.7218 51.086 10.9897 49.4069 11.2128 47.9016C11.4424 46.3522 11.6239 44.9879 11.6659 43.843C11.7248 42.2381 11.708 41.0453 11.2382 39.7131C11.1129 39.3581 10.9283 39.1669 10.4081 38.9543C10.1024 38.8294 9.73065 38.7219 9.23427 38.5979C8.79457 38.488 8.15614 38.3427 7.59072 38.175C7.59647 38.1767 7.60145 38.177 7.14052 38.136C6.9851 38.1221 6.68249 38.0948 6.36708 38.0178C6.07366 37.9461 5.46596 37.763 4.94618 37.2424C4.45192 36.7472 4.12125 36.1222 4.02724 35.4143C3.93878 34.7474 4.0798 34.1597 4.24892 33.7209C4.56242 32.9078 5.14401 32.1815 5.55947 31.6867C6.13786 30.9979 6.39274 30.7499 6.88075 30.1516C7.28182 29.6599 7.50836 29.3101 7.61318 29.0617C8.49921 26.9619 9.11511 24.5595 9.24306 17.9319C9.26791 16.6575 10.3652 15.6438 11.6933 15.6672C12.2982 15.678 12.8459 15.9036 13.2616 16.2649C13.5426 15.8026 13.9504 15.4026 14.4735 15.1242C15.6395 14.504 17.4233 14.0196 18.8065 13.676C20.2862 13.3084 21.9196 12.9628 22.8417 12.7512C22.9133 12.7348 23.1707 12.655 24.0136 11.9621C24.7143 11.3861 25.9625 10.2562 27.411 9.17307C28.9358 8.03298 29.6711 7.18386 30.078 6.04905C30.4035 5.14126 30.9496 4.2822 31.7265 3.61545L31.8964 3.4758C32.6479 2.8866 33.5493 2.53168 34.4979 2.44651C34.4356 1.44572 35.0616 0.48454 36.0956 0.133031ZM37.0585 9.10178C36.5965 9.2445 36.1131 9.28407 35.6444 9.22287C34.6057 11.3178 33.0356 12.7731 31.3554 14.0295C30.0334 15.018 29.2557 15.7595 28.1884 16.6369C27.2633 17.3974 26.0078 18.3543 24.3339 18.7385C23.2267 18.9926 21.8309 19.284 20.414 19.636C18.9008 20.0119 17.9195 20.3295 17.5839 20.508C16.3973 21.1393 14.9753 20.9714 13.9882 20.1906C13.7674 25.5841 13.1398 28.2662 12.0731 30.7942C11.7111 31.6521 11.1486 32.4102 10.6698 32.9973C10.4469 33.2706 10.1183 33.6482 9.82997 33.9787C10.0157 34.024 10.2176 34.0737 10.4472 34.1311C10.988 34.2662 11.6447 34.4414 12.2929 34.7063C13.6804 35.2733 15.1104 36.2897 15.7958 38.2326C16.5634 40.409 16.5363 42.3192 16.4745 44.0051C16.4224 45.4261 16.203 47.0156 15.9755 48.551C15.7414 50.1305 15.4969 51.6689 15.3427 53.1526C15.1882 54.6393 15.1424 55.9315 15.2694 56.9817C15.3989 58.0518 15.6785 58.6207 15.9413 58.9065C16.0416 59.0155 16.2389 59.1682 16.8153 59.4953C17.3239 59.784 18.1346 60.2133 18.9804 60.7795C20.7776 61.9827 22.7904 63.8233 24.8056 67.2444C25.4768 68.3841 25.5816 69.5217 25.3212 70.5422C25.0945 71.4302 24.5992 72.1359 24.4267 72.3987C23.8289 73.3092 23.1166 73.8321 22.495 74.1867C22.2402 74.3321 21.9377 74.4827 21.8134 74.5471C21.8068 74.5505 21.8001 74.5536 21.7938 74.5569C21.7785 74.6581 21.7622 74.7963 21.7548 74.9797C21.6312 78.0356 21.609 80.9338 21.7753 83.3586C21.9479 85.8748 22.3082 87.5627 22.7509 88.4153C22.7991 88.5077 23.0378 88.8341 23.787 89.1428C24.1255 89.2823 24.5169 89.4123 25.0194 89.5783C25.4875 89.733 26.0601 89.9212 26.6083 90.1457C27.5843 90.5455 29.0804 91.2854 29.827 92.8215L29.8974 92.9729L30.0809 93.4211C30.5148 94.5578 30.9762 96.3113 31.1923 98.5451C31.3444 100.118 31.7958 101.206 32.3319 102.214C32.8021 103.098 33.7109 104.497 34.1913 105.903C35.0372 108.377 35.9469 110.97 36.1063 113.717C36.155 114.556 36.1362 115.646 36.1522 116.355C36.1709 117.178 36.2297 117.912 36.3993 118.611C36.7097 119.889 37.4445 121.293 39.6249 122.747C41.0562 123.702 42.772 124.597 44.5604 125.548C46.2591 126.451 48.104 127.445 49.4589 128.508C50.1704 129.066 50.4912 129.8 50.6532 130.279C50.8249 130.786 50.9243 131.336 50.9979 131.821C51.1681 132.939 51.2356 133.847 51.4813 135.165C51.8728 137.265 52.5026 138.491 53.3788 139.284C54.4942 140.294 55.339 141.443 56.1493 142.621C56.9863 143.838 57.795 145.098 58.9579 146.64C60.4714 148.647 62.5097 151.181 63.5292 153.249C64.2227 154.657 64.4304 156.443 64.6171 157.73C64.8306 159.202 65.0467 160.438 65.539 161.492C65.958 162.39 66.9099 163.515 68.4315 164.894C69.9201 166.242 71.7334 167.642 73.6767 169.153C74.0236 169.422 74.269 169.767 74.414 170.142C75.1975 169.336 76.4932 169.162 77.4872 169.786C80.5035 171.681 82.4706 173.216 83.7733 174.691C85.1537 176.254 85.7064 177.658 86.077 179.072C86.656 181.282 86.9811 183.272 87.1874 184.798C87.2896 185.554 87.365 186.217 87.4237 186.698C87.4539 186.946 87.4786 187.138 87.5009 187.287C87.5021 187.296 87.5036 187.304 87.5048 187.312C87.5216 187.32 87.5398 187.332 87.5614 187.342C87.7177 187.414 87.9406 187.494 88.2577 187.582C88.5775 187.671 88.9185 187.75 89.3339 187.847C90.9725 188.231 92.1274 189.375 92.871 190.329C93.6537 191.334 94.2623 192.494 94.7099 193.463C95.0469 194.193 95.771 194.923 97.1806 195.815C98.3507 196.555 99.6595 197.613 101.062 198.676C102.528 199.787 104.315 201.08 106.686 202.51C107.903 203.243 108.798 204.3 109.475 205.333C110.159 206.375 110.708 207.531 111.168 208.596C111.431 209.206 111.803 209.859 112.263 210.617C112.696 211.331 113.242 212.192 113.709 213.03C114.379 214.233 114.809 215.511 115.136 216.529C115.501 217.665 115.701 218.337 115.939 218.79C116.156 219.204 116.42 219.603 116.79 220.167C117.146 220.709 117.573 221.362 117.999 222.154C118.04 222.231 118.073 222.276 118.093 222.299C118.831 222.435 119.441 222.405 120.154 222.295C120.549 222.234 120.923 222.158 121.427 222.064C121.905 221.974 122.454 221.877 123.064 221.809C124.26 221.675 125.337 221.684 126.227 221.778C126.936 221.852 127.704 221.999 128.339 222.273L128.601 222.398L128.858 222.544C129.442 222.904 129.924 223.38 130.299 223.788C130.753 224.283 131.232 224.884 131.722 225.507C132.726 226.786 133.921 228.348 135.548 230.127C137.041 231.76 138.221 233.527 139.133 235.021C139.589 235.768 139.989 236.467 140.319 237.041C140.665 237.642 140.91 238.059 141.099 238.34C141.378 238.756 141.778 239.17 142.331 239.661C142.753 240.036 143.638 240.764 144.189 241.277C145.435 242.436 146.464 243.966 146.787 245.91C146.854 246.311 147.031 246.805 147.312 247.424C147.45 247.726 147.596 248.024 147.754 248.346C147.861 248.565 147.974 248.804 148.084 249.042C148.313 248.695 148.531 248.361 148.733 248.038C152.419 242.167 157.48 240.81 159.348 239.978C161.754 238.905 164.603 238.67 166.287 238.508C166.404 238.497 166.54 238.484 166.694 238.469C166.578 238.056 166.516 237.521 166.475 237.154C166.421 236.656 166.37 236.058 166.324 235.457C166.236 234.303 166.15 232.906 166.104 232.281C165.994 230.765 165.996 228.545 166.108 226.951L166.112 226.889L166.12 226.827C166.442 224.297 167.828 221.953 168.563 220.574C168.571 220.56 168.577 220.545 168.585 220.53C168.069 220.494 167.464 220.423 166.895 220.267C163.371 219.297 159.267 217.957 156.245 215.396C154.83 214.197 153.224 212.073 151.766 209.868C150.264 207.599 148.771 205.012 147.603 202.706C145.21 197.981 143.405 191.827 142.556 187.86C142.168 186.047 141.723 183.701 140.954 181.738C140.572 180.761 140.169 180.045 139.776 179.595C139.405 179.169 139.187 179.137 139.108 179.131C137.039 178.976 134.974 178.833 133.324 178.571C132.494 178.438 131.66 178.26 130.923 177.992C130.222 177.738 129.338 177.307 128.709 176.512C128.029 175.653 127.424 174.406 126.894 173.078C126.344 171.698 125.802 170.037 125.301 168.224C124.755 166.248 124.398 164.352 124.084 162.616C123.764 160.849 123.497 159.293 123.121 157.833C122.191 154.222 121.184 150.951 119.695 148.201C118.971 146.863 118.324 145.757 117.606 144.911C116.91 144.091 116.272 143.67 115.618 143.502C115.225 143.402 114.682 143.343 113.834 143.264C113.071 143.193 112.082 143.105 111.127 142.903C110.167 142.699 109.049 142.342 108.065 141.617C107.026 140.852 106.269 139.771 105.928 138.374C105.364 136.068 104.79 132.572 104.256 128.866C104.232 128.778 104.214 128.7 104.201 128.636C104.151 128.385 104.126 128.131 104.115 127.893C104.115 127.891 104.115 127.888 104.115 127.886C103.74 125.223 103.388 122.497 103.082 120.063C102.739 117.341 102.45 114.975 102.239 113.379C102.227 113.341 102.214 113.303 102.202 113.266C102.123 113.014 102.052 112.786 102 112.607C101.974 112.519 101.948 112.426 101.927 112.341C101.916 112.3 101.902 112.242 101.889 112.178C101.884 112.157 101.844 111.975 101.838 111.754C101.829 111.434 101.826 111.108 101.845 110.862C101.85 110.797 101.86 110.674 101.888 110.533C101.901 110.464 101.929 110.338 101.982 110.189C102.019 110.087 102.149 109.727 102.482 109.375C102.502 109.354 102.525 109.334 102.548 109.312C102.517 109.221 102.486 109.131 102.458 109.04C102.098 107.866 101.903 106.516 101.832 105.079C100.939 102.066 99.3847 98.8536 97.2421 96.6067C95.2787 94.5478 93.5861 92.7635 91.8183 91.3889C90.0852 90.0413 88.4286 89.212 86.6171 88.9612C82.4751 88.3876 77.9723 86.7141 75.5595 82.8733C75.036 82.04 74.8816 81.0762 74.8046 80.384C74.7238 79.657 74.6932 78.7706 74.6503 77.9973C74.5584 76.3429 74.3875 74.5868 73.703 72.8166C71.8971 68.1466 70.522 63.4287 69.4745 59.5383C68.5551 56.1237 68.0091 52.7067 67.4433 49.4641C66.8701 46.18 66.2707 43.0335 65.2489 39.926C65.1568 39.6459 65.0963 39.4865 65.0468 39.3801C64.9586 39.3596 64.8058 39.3334 64.5643 39.3196C61.9642 39.1707 58.701 39.0928 56.1366 38.6369C54.8456 38.4074 53.4814 38.045 52.3563 37.386C51.1612 36.6857 50.0978 35.5525 49.8866 33.884C49.733 32.6697 49.5787 31.6231 49.37 30.7522C49.1541 29.8511 48.9264 29.3513 48.7479 29.1086C46.8185 26.4865 44.7702 23.3732 42.952 19.8957C42.1714 18.4026 41.3606 17.1439 40.5204 15.8078C39.6939 14.4936 38.8416 13.1055 38.1181 11.5041C37.7644 10.7213 37.4081 9.91374 37.0585 9.10178Z" fill="black"/>
</g>
<defs>
<filter id="filter0_d_369_367" x="0" y="0" width="188.791" height="268.498" filterUnits="userSpaceOnUse" color-interpolation-filters="sRGB">
<feFlood flood-opacity="0" result="BackgroundImageFix"/>
<feColorMatrix in="SourceAlpha" type="matrix" values="0 0 0 0 0 0 0 0 0 0 0 0 0 0 0 0 0 0 127 0" result="hardAlpha"/>
<feOffset dy="4"/>
<feGaussianBlur stdDeviation="2"/>
<feComposite in2="hardAlpha" operator="out"/>
<feColorMatrix type="matrix" values="0 0 0 0 0 0 0 0 0 0 0 0 0 0 0 0 0 0 0.25 0"/>
<feBlend mode="normal" in2="BackgroundImageFix" result="effect1_dropShadow_369_367"/>
<feBlend mode="normal" in="SourceGraphic" in2="effect1_dropShadow_369_367" result="shape"/>
</filter>
</defs>
</svg>
