<svg width="122" height="157" viewBox="0 0 122 157" fill="none" xmlns="http://www.w3.org/2000/svg">
<g filter="url(#filter0_d_369_256)">
<path fill-rule="evenodd" clip-rule="evenodd" d="M96.6949 0C98.5583 0.00947571 99.9617 1.01611 100.163 1.14062C101.983 2.26608 102.654 4.11729 102.941 5.34473C103.253 6.67922 103.308 8.14011 103.282 9.43848C103.234 11.8401 102.811 15.0531 102.735 16.165C102.541 18.9871 102.652 21.325 102.816 23.2715C102.898 24.2493 103.015 25.3052 103.103 26.2861C103.297 26.3936 103.511 26.5285 103.727 26.6992L103.866 26.8145L104.054 26.9844C104.961 27.8459 105.403 28.8907 105.632 29.7041C105.887 30.6044 105.974 31.5462 105.985 32.4102C106.007 34.1417 105.726 36.05 105.342 37.749C104.932 39.5681 104.041 41.4553 103.396 42.792C103.645 43.6329 103.943 44.6398 104.154 45.5654C104.458 46.8985 104.703 48.5161 104.469 50.1943C104.207 52.0817 103.085 54.4821 102.185 56.3105C101.268 58.1741 100.442 59.7045 99.8512 60.9502C99.9393 61.0615 100.055 61.1955 100.206 61.3535C100.458 61.6191 100.74 61.8839 101.077 62.1992L101.243 62.3359C101.446 62.4869 101.769 62.6835 102.293 62.9453C102.631 63.1145 102.984 63.2786 103.411 63.4785C103.817 63.6689 104.283 63.8879 104.749 64.1289C106.418 64.9922 107.795 65.9965 109.071 67.3721C109.947 68.3163 110.44 69.3466 110.741 69.9912C111.102 70.7663 111.216 71.0349 111.396 71.2939C112.849 73.3833 114.48 76.3676 114.892 81.4697C115.326 86.8334 115.835 87.6746 116.291 90.0098C116.834 92.7953 117.098 94.6528 117.27 96.0098C117.455 97.4691 117.502 97.9956 117.626 98.5244C117.768 99.1342 118.155 100.666 117.495 102.387C116.709 104.435 114.987 105.463 113.352 105.83C111.914 106.153 110.455 106.007 109.397 105.834C108.284 105.652 107.184 105.363 106.389 105.153C106.357 105.145 106.326 105.136 106.295 105.128C106.181 105.302 106.044 105.509 105.901 105.715C105.89 105.744 105.876 105.78 105.861 105.822C105.771 106.076 105.652 106.462 105.506 106.998C105.233 108.004 104.906 109.394 104.544 111.12C104.512 113.449 104.609 115.424 104.728 117.425C104.852 119.501 105.002 121.666 105.026 124.17L105.027 124.258L105.023 124.345C104.997 124.954 104.956 125.359 104.912 125.745C104.87 126.102 104.835 126.376 104.795 126.854C104.639 128.76 102.902 130.185 100.916 130.035C100.564 130.009 100.228 129.933 99.9137 129.818C98.7966 130.252 96.9869 130.837 95.0308 131.033C94.2536 131.111 93.4982 131.046 92.9683 130.987C92.5115 130.937 91.743 130.829 91.399 130.786C90.3713 130.659 89.8443 130.672 89.5406 130.75C88.7978 130.941 88.1261 131.2 87.3804 131.503C86.7403 131.763 85.7552 132.186 84.8062 132.423C84.7785 132.43 84.7509 132.437 84.7242 132.444C83.926 133.843 82.5177 134.25 82.1666 134.351C81.6144 134.508 81.0545 134.574 80.6646 134.611C80.3784 134.639 79.9914 134.663 79.5894 134.687C79.5562 134.772 79.5222 134.863 79.4849 134.955C78.3874 137.662 77.0307 140.588 75.8111 142.865C75.2085 143.991 74.593 145.046 74.023 145.855C73.7483 146.245 73.4013 146.699 72.9986 147.091C72.7994 147.285 72.489 147.561 72.0767 147.804C71.7081 148.021 70.8992 148.426 69.8072 148.372C68.0216 148.284 66.5578 147.562 65.898 147.282C65.1576 146.969 64.5733 146.759 63.6832 146.706C62.6814 146.646 61.836 146.422 61.1373 146.148C60.7865 146.595 60.2187 147.25 59.4019 147.764C58.2306 148.5 56.9627 148.525 56.3551 148.512C55.6213 148.496 54.8618 148.382 54.2017 148.261C53.0002 148.04 51.16 147.594 49.8092 147.312C47.4856 146.829 45.3966 145.959 43.7008 145.158C42.8538 144.758 42.0551 144.351 41.3912 144.018C40.6938 143.667 40.1668 143.409 39.733 143.226C38.02 142.501 36.6313 141.267 35.8258 140.587C34.7758 139.701 34.423 139.488 34.2447 139.433C32.835 138.993 31.8535 138.988 30.6158 138.968C29.3317 138.947 27.3719 138.932 25.2906 137.691C22.9225 136.279 21.8253 134.092 21.2271 132.714C20.6077 132.87 19.8402 133.101 18.8756 133.398C16.6853 134.073 13.5696 135.065 10.6314 135.314C8.14217 135.526 6.69653 133.871 6.19197 133.207C5.89001 132.81 5.64831 132.405 5.48396 132.121C5.27722 131.765 5.2037 131.625 5.07673 131.417C4.02582 129.697 3.90952 127.852 4.04646 126.474C4.18432 125.086 4.61042 123.808 5.08162 122.899C5.70113 121.705 6.79336 120.288 7.86091 119.072C8.95528 117.826 10.2719 116.512 11.4986 115.571C12.6821 114.664 14.0141 113.688 15.4136 113.033C15.4714 112.975 15.5759 112.866 15.7242 112.681C16.0834 112.232 16.5183 111.578 16.9849 110.76C17.918 109.124 18.8057 107.14 19.3443 105.526C19.4194 105.301 19.4215 105.217 19.5396 104.679C19.6271 104.28 19.8365 103.326 20.5435 102.424C21.5047 101.198 22.7628 100.572 23.5748 100.18C24.4878 99.7384 25.2746 99.4046 26.3853 98.7578C27.6922 97.9968 28.7588 97.4605 31.3189 95.5029C32.3506 94.7141 33.4721 93.9986 34.231 93.4727C35.061 92.8975 35.8961 92.2669 36.8902 91.3115C38.4044 89.8562 37.7212 89.6314 38.064 86.4268C38.2303 84.8733 39.0454 83.199 39.5924 82.1025C40.2264 80.8315 40.7526 79.8687 41.1402 78.9707C41.5748 77.2319 42.2721 76.0191 43.0992 75.0205C43.1006 74.2396 43.3709 73.5191 43.8267 72.9404C43.6133 70.593 43.4649 67.8067 43.314 65.8193C43.2963 65.5864 43.189 64.5821 43.65 63.501C44.1678 62.2866 45.1339 61.501 46.1275 61.0098L46.6021 60.7812C48.9444 59.6764 50.872 59.1712 52.5816 59.1074C54.4102 59.0392 55.808 59.5349 56.1177 59.6152C56.4133 59.6918 56.7723 59.7469 57.149 59.7783C57.1407 59.4016 57.1243 58.9608 57.1031 58.4316C57.0668 57.5249 57.0233 56.4326 57.024 55.2158C57.0244 54.5793 56.9109 53.8933 56.692 53.0215C56.5815 52.5817 56.4557 52.1361 56.3111 51.6211C56.1712 51.1228 56.0153 50.5654 55.8736 49.9854C55.5627 48.7122 55.3831 46.9624 55.8834 45.0713L55.9869 44.7256C56.5539 43.0399 57.8401 41.9825 59.189 41.4297C60.4562 40.9104 61.8084 40.8099 62.8277 40.7979C63.8955 40.7852 65.0075 40.8726 65.9195 40.9482C66.9111 41.0304 67.6582 41.0968 68.2896 41.1045C69.6675 41.1214 70.6749 41.7386 71.2916 42.3145C71.7859 42.7761 72.1262 43.3095 72.2301 43.4678C72.9395 43.6527 73.9783 43.5439 76.0152 42.7217C76.0397 42.2389 75.9479 41.4464 75.6627 40.0332C75.3625 38.5461 74.8749 36.4511 74.7662 34.2979C74.7167 33.3219 74.1142 32.435 73.2642 31.6172C73.2412 31.6029 73.2122 31.5848 73.1715 31.5596C73.1014 31.5161 72.9965 31.4514 72.8844 31.3779C72.4004 31.0605 71.66 30.5129 71.0562 29.5781C69.4569 27.1017 70.4188 24.6097 70.8814 23.709L70.9869 23.5127C72.1099 21.5207 74.2017 20.5841 75.3912 20.1396C76.704 19.6492 78.2757 19.3084 78.6441 19.21C79.4681 18.9897 80.2671 18.8105 80.7984 18.6846C80.864 18.669 80.9257 18.6545 80.983 18.6406C81.2162 18.4271 81.4831 18.2177 81.7877 18.0234C81.7505 17.2785 81.9622 16.5164 82.4459 15.8604C85.0982 12.2623 85.4066 11.0206 85.5347 9.87109C85.6426 8.90338 85.7621 7.59869 85.9683 6.52246L86.0181 6.29004C86.583 3.93251 88.5829 2.99657 89.4693 2.64551C89.8166 2.50798 90.5186 2.27252 90.5787 2.25098C90.6595 2.22182 90.7114 2.20037 90.7398 2.18848C91.7987 1.45667 93.7744 0.0845137 96.5133 0.00195312L96.6949 0ZM95.9595 7.17773C95.6971 7.31898 95.352 7.53559 94.8697 7.86816C94.2068 8.32525 93.5231 8.58684 93.1197 8.73242C93.0518 8.75692 92.9808 8.7801 92.9127 8.80371C92.8494 9.31965 92.7893 9.90963 92.7115 10.6074C92.4112 13.3014 91.413 15.5849 88.7916 19.2334C88.8286 19.3339 88.8624 19.4366 88.8902 19.542C89.3789 21.3959 88.2089 23.2789 86.2769 23.748C86.1109 23.7884 85.9607 23.8244 85.8238 23.8584L85.4303 24.3984L84.5533 24.79C83.8743 25.093 83.0307 25.2897 82.5308 25.4082C81.8809 25.5623 81.2697 25.6979 80.5816 25.8818C79.666 26.1266 78.9735 26.2522 78.1724 26.5352L78.2164 26.5742L78.4742 26.8203C79.8113 28.1278 81.803 30.5328 81.9762 33.9639C82.0532 35.4894 82.3924 36.956 82.7476 38.7158C83.0539 40.2333 83.4743 42.3675 83.064 44.3516C82.9879 44.7205 82.6713 47.4293 79.8629 48.6641C76.8068 50.0077 72.7793 51.4603 68.7037 49.5645C67.8497 49.1671 67.2591 48.6213 66.8658 48.1699C66.805 48.1002 66.7466 48.0296 66.691 47.96C66.2012 47.9254 65.724 47.8829 65.2984 47.8477C64.3569 47.7696 63.5807 47.7148 62.9176 47.7227C62.8754 47.7232 62.8342 47.7236 62.7955 47.7246C62.81 47.9563 62.8464 48.1859 62.9 48.4053C63.0112 48.8605 63.1376 49.3164 63.2789 49.8193C63.4154 50.3055 63.5697 50.8503 63.7076 51.3994C63.9854 52.5056 64.2417 53.796 64.2408 55.2197C64.2402 56.2848 64.2784 57.2526 64.315 58.167C64.3499 59.0391 64.3884 59.9589 64.3648 60.7627C64.3427 61.5155 64.2645 62.566 63.8453 63.5625C63.3432 64.7558 62.3372 65.8851 60.7115 66.3633C58.8444 66.9123 56.2221 66.8159 54.2349 66.3008C53.3407 66.0689 53.2999 66.011 52.8619 66.0273C52.5171 66.0402 51.8211 66.1362 50.606 66.6338C50.8053 69.543 50.9689 72.6405 51.2642 74.5059C51.4658 75.779 50.9164 76.9937 49.9351 77.7402L49.7154 78.3389L49.1646 78.8828C48.8139 79.2296 48.6405 79.4465 48.5152 79.6553C48.3954 79.8551 48.247 80.1702 48.1187 80.748L48.0572 81.0293L47.9468 81.2959C47.4277 82.5606 46.6115 84.0717 46.1021 85.0928C45.817 85.6643 45.5947 86.142 45.4371 86.542C45.278 86.9459 45.245 87.1226 45.2427 87.1338C45.1532 87.9742 45.8982 92.4562 41.9976 96.2051C40.6584 97.4921 39.5046 98.361 38.4556 99.0879C37.336 99.8637 36.6866 100.254 35.817 100.919C32.8582 103.181 31.4335 103.919 30.1295 104.679C28.697 105.513 27.4803 106.046 26.8209 106.365C26.696 106.426 26.5957 106.479 26.5142 106.521C26.5038 106.571 26.493 106.622 26.481 106.676C26.4216 106.941 26.3403 107.27 26.2174 107.639C25.5329 109.689 24.4606 112.078 23.316 114.085C22.744 115.088 22.1107 116.073 21.4488 116.899C20.8877 117.6 19.9453 118.661 18.6568 119.223C18.0754 119.476 17.2812 120.001 16.0025 120.981C15.2782 121.537 14.3027 122.484 13.3795 123.535C12.4295 124.617 11.7765 125.534 11.5426 125.985C11.4528 126.158 11.2822 126.616 11.231 127.131C11.179 127.655 11.2822 127.882 11.3023 127.915C11.3635 128.015 11.4204 128.114 11.4742 128.207C13.0788 127.906 14.8398 127.367 16.6715 126.803C17.782 126.461 18.9943 126.089 20.0504 125.86C20.5854 125.744 21.1985 125.639 21.8209 125.608C22.3618 125.582 23.1869 125.596 24.0533 125.906L24.2271 125.972L24.4928 126.086C25.7183 126.648 26.7173 127.594 27.3472 128.827L27.4771 129.096L27.9888 130.252C28.1244 130.554 28.2426 130.798 28.398 131.057C28.6329 131.447 28.8404 131.653 29.1011 131.809C29.3514 131.958 29.5066 132.023 30.7369 132.043C32.0143 132.063 33.9503 132.059 36.4771 132.848C38.3226 133.424 39.7838 134.705 40.5914 135.387C41.6436 136.275 42.1573 136.683 42.6441 136.889C43.3321 137.18 44.0638 137.543 44.7408 137.884C45.4512 138.241 46.1442 138.593 46.8863 138.943C48.3692 139.643 49.8515 140.235 51.3394 140.545C52.1855 140.721 53.0008 140.907 53.7086 141.066C54.4387 141.231 55.0432 141.363 55.5592 141.458C55.619 141.469 55.6762 141.478 55.7301 141.487C55.8092 141.372 55.9101 141.226 56.066 141.01C56.3203 140.657 56.8317 139.958 57.5787 139.406C58.4698 138.748 59.873 138.18 61.5494 138.588C62.0282 138.705 62.4007 138.883 62.6177 138.997C62.8426 139.115 63.0364 139.238 63.1529 139.312C63.4558 139.507 63.5087 139.548 63.6656 139.639C63.8462 139.743 63.9586 139.783 64.1334 139.794C66.1979 139.918 67.6615 140.463 68.7174 140.906C68.9222 140.556 69.1494 140.154 69.3922 139.7C70.4815 137.666 71.7374 134.962 72.7584 132.443C72.8469 132.225 73.2285 131.145 73.607 130.466C74.0766 129.623 75.2373 128.032 77.5513 127.869L78.2994 127.821C78.5378 127.808 78.7626 127.796 78.9644 127.785C78.9829 127.784 79.002 127.782 79.0201 127.781C79.1566 127.625 79.3152 127.468 79.5006 127.318C80.4527 126.551 81.7809 126.022 82.9879 125.721C83.2929 125.645 83.6655 125.491 84.567 125.125C85.363 124.802 86.4181 124.384 87.6695 124.062C89.4515 123.603 91.2123 123.781 92.3189 123.917C93.042 124.006 93.3039 124.053 93.7935 124.107C94.2088 124.153 94.3183 124.142 94.2789 124.146C95.9791 123.975 96.8802 123.524 97.7877 123.127C97.7408 121.286 97.6299 119.617 97.523 117.819C97.396 115.681 97.2818 113.417 97.3316 110.69L97.3375 110.38L97.4 110.075C97.8024 108.136 98.1833 106.496 98.522 105.25C98.6904 104.63 98.8593 104.066 99.0269 103.593C99.1518 103.24 99.4018 102.559 99.8209 101.982L100.038 101.668C100.117 101.549 100.208 101.409 100.323 101.234C100.521 100.933 100.799 100.516 101.119 100.117C101.531 99.6026 102.98 97.8348 105.431 97.9121L105.671 97.9258L106.059 97.9678C106.441 98.0204 106.8 98.0997 107.076 98.1641C107.472 98.2566 107.909 98.3712 108.298 98.4736C109.048 98.6709 109.738 98.849 110.38 98.9668C110.276 98.2911 110.198 97.5773 110.105 96.8467C109.948 95.6122 109.708 93.9023 109.197 91.2842C108.857 89.5431 108.17 87.8628 107.697 82.0059C107.398 78.3101 106.303 76.4459 105.393 75.1377C104.783 74.2609 104.365 73.2735 104.153 72.8193C103.88 72.2344 103.76 72.0612 103.68 71.9756C103.02 71.264 102.33 70.7458 101.324 70.2256C100.997 70.0568 100.648 69.8905 100.242 69.7002C99.8556 69.5191 99.3981 69.3073 98.9556 69.0859C98.0924 68.654 96.989 68.0469 96.0396 67.1592C95.4458 66.6039 94.3496 65.6007 93.5777 64.4092C92.7639 63.1528 91.9335 61.0842 92.9635 58.7725L93.231 58.1934C93.9058 56.7672 94.9144 54.8635 95.6588 53.3516C96.6653 51.3071 97.2279 49.9031 97.315 49.2773C97.387 48.7596 97.3325 48.0517 97.1031 47.0459C96.8598 45.9794 96.5474 45.0504 96.1773 43.7363C95.9141 42.8015 95.9873 41.9307 96.2457 41.1836C96.3545 40.8689 96.4821 40.6206 96.5445 40.501C96.5609 40.4695 96.5758 40.441 96.5865 40.4209C96.5993 40.3969 96.6042 40.3877 96.6109 40.375C96.6097 40.3776 96.6085 40.3806 96.607 40.3838C97.3705 38.7968 98.0293 37.4292 98.2877 36.2842C98.6038 34.8825 98.7813 33.5262 98.7681 32.4951C98.7663 32.3549 98.7591 32.2293 98.7515 32.1182C98.4513 32.0039 98.0848 31.835 97.7281 31.5898C97.3403 31.3233 96.8843 30.9169 96.5328 30.3213C96.169 29.7049 96.0071 29.0369 96.0074 28.3916L95.9986 28C95.9604 27.0595 95.7951 25.8923 95.6217 23.8281C95.4399 21.6654 95.3093 18.9707 95.5338 15.709C95.6759 13.6438 96.0185 11.6719 96.066 9.30469C96.0838 8.41433 96.0438 7.70249 95.9595 7.17773Z" fill="#151515"/>
</g>
<defs>
<filter id="filter0_d_369_256" x="0" y="0" width="121.868" height="156.514" filterUnits="userSpaceOnUse" color-interpolation-filters="sRGB">
<feFlood flood-opacity="0" result="BackgroundImageFix"/>
<feColorMatrix in="SourceAlpha" type="matrix" values="0 0 0 0 0 0 0 0 0 0 0 0 0 0 0 0 0 0 127 0" result="hardAlpha"/>
<feOffset dy="4"/>
<feGaussianBlur stdDeviation="2"/>
<feComposite in2="hardAlpha" operator="out"/>
<feColorMatrix type="matrix" values="0 0 0 0 0 0 0 0 0 0 0 0 0 0 0 0 0 0 0.25 0"/>
<feBlend mode="normal" in2="BackgroundImageFix" result="effect1_dropShadow_369_256"/>
<feBlend mode="normal" in="SourceGraphic" in2="effect1_dropShadow_369_256" result="shape"/>
</filter>
</defs>
</svg>
