<svg width="112" height="125" viewBox="0 0 112 125" fill="none" xmlns="http://www.w3.org/2000/svg">
<g filter="url(#filter0_d_369_275)">
<path fill-rule="evenodd" clip-rule="evenodd" d="M41.3167 0.0466383C42.6257 -0.158779 43.5926 0.364237 44.0061 0.646248C44.6997 1.11926 45.0455 1.72782 45.055 1.7439C45.15 1.89694 45.2207 2.03539 45.2434 2.07984C45.2593 2.11082 45.2743 2.14071 45.2835 2.15894C45.2943 2.18045 45.3001 2.19234 45.3059 2.20386C45.3175 2.22669 45.3159 2.2229 45.3069 2.20679L45.3987 2.37769C45.7818 2.37031 46.2276 2.37481 46.7024 2.4109C48.7317 2.56516 51.183 3.27719 53.5042 5.46949C55.6464 7.4928 56.7488 9.57041 57.3167 10.4959C58.359 12.1943 59.0396 12.6738 60.1565 12.864C62.6274 13.285 65.8141 14.0978 68.6311 15.0408C70.0442 15.5138 71.4303 16.0423 72.6233 16.5984C73.7151 17.1073 75.0104 17.8031 75.928 18.7146C77.5208 20.2968 79.7577 22.3439 81.8929 24.0681C82.9614 24.931 83.9613 25.6777 84.8128 26.2361C85.2372 26.5144 85.595 26.726 85.8821 26.8757C86.0239 26.9497 86.1357 27.0021 86.218 27.0369C86.3023 27.0724 86.336 27.0819 86.3255 27.0789C89.0253 27.8467 91.0535 29.5076 92.3518 30.7283C93.7901 32.0804 96.9796 34.3557 98.9954 35.6013C100.148 36.3132 104.648 38.5103 106.652 43.2957C107.646 45.6702 108.667 49.5538 106.833 53.6619C105.68 56.2453 104.475 58.8783 103.273 61.1267C102.126 63.2723 100.777 65.4718 99.2366 66.8796C98.003 68.0071 96.8426 68.9156 95.9143 69.6336C94.9028 70.4159 94.3598 70.8329 94.0237 71.1638C92.6827 72.4841 91.1134 73.6027 89.3059 74.4695C88.7881 74.7178 88.2098 74.9262 87.8733 75.0525C87.5483 75.1745 87.3253 75.2635 87.1507 75.3425C86.9032 76.6464 86.7969 77.9395 86.5804 79.488C86.4715 80.2662 86.3246 81.153 86.0784 81.9646C85.8599 82.6846 85.4094 83.8969 84.3304 84.8171C83.6435 85.4028 82.921 85.7617 82.4417 85.9822C81.7707 86.2908 81.7354 86.2793 81.3655 86.4646C80.5049 86.8958 79.6443 87.0819 79.0315 87.1834C78.4776 87.275 77.7579 87.3466 77.468 87.3826C77.3441 87.398 77.2412 87.412 77.1555 87.4255C76.7416 87.9686 76.318 88.6228 75.6409 89.5662C74.9829 90.4829 73.9319 91.8964 72.5598 92.7947C71.746 93.3274 70.8937 93.5165 70.3753 93.6033C69.8183 93.6965 69.2464 93.7312 68.7825 93.7517C67.7284 93.7984 66.8962 93.7941 65.7962 93.8982C63.7875 94.0882 61.5104 94.6122 59.2102 96.3406C57.2899 97.7836 55.5722 99.2451 53.6087 100.338C52.2991 101.066 50.7107 100.915 49.5843 100.076C49.4601 102.261 49.3825 104.659 49.2835 106.974C49.1673 109.692 49.0182 112.368 48.6975 114.192C48.4765 115.449 47.2361 116.297 45.9261 116.085C44.616 115.873 43.7335 114.682 43.9544 113.425C44.2152 111.941 44.3569 109.568 44.4759 106.786C44.4832 106.614 44.4892 106.441 44.4964 106.267C43.7361 106.163 42.8887 105.984 42.0345 105.695L41.9065 105.651L41.7854 105.594C41.1258 105.288 39.658 104.592 38.1136 103.683C36.6332 102.812 34.8143 101.595 33.6614 100.191C33.5198 100.019 33.3469 99.9173 32.5745 99.3093C31.9346 98.8057 31.0949 98.0838 30.4192 96.9949C29.9128 96.1788 29.5873 95.2696 29.3548 94.5681C29.0856 93.7561 28.9494 93.2666 28.7659 92.8357C28.631 92.5189 28.4742 92.094 28.3841 91.865C28.2711 91.578 28.1772 91.3657 28.0813 91.1931C28.0669 91.1672 28.0518 91.1433 28.0384 91.1209C27.6701 91.2677 27.3138 91.437 26.9104 91.6336C26.4219 91.8716 25.7889 92.1888 25.1028 92.4324C23.5458 92.9852 21.8338 93.1306 19.5774 92.489C17.988 92.0371 16.0623 91.9551 14.2337 91.9177C11.7853 91.8676 9.97085 91.2583 8.52664 89.948C7.86841 89.3508 6.78802 88.3773 5.88992 87.3279C5.4392 86.8012 4.9768 86.1896 4.62625 85.5349C4.29071 84.9082 3.9459 84.0383 4.00711 83.0564L4.05496 82.4275C4.32796 79.3516 5.12459 77.282 5.88406 75.3767C6.61423 73.545 6.76463 72.6512 7.19559 71.1795C7.3768 70.5607 7.69747 70.0712 7.91531 69.7605C8.02722 69.6009 8.15077 69.4356 8.24344 69.3103C8.34435 69.1739 8.43133 69.0553 8.51394 68.9343C8.80878 68.5026 9.0738 68.013 9.18191 67.2175C9.22259 66.9179 9.23641 66.4048 9.22976 65.6062C9.22372 64.8809 9.20109 63.9095 9.2034 62.9578C9.20804 61.049 9.30411 58.6874 9.93289 56.6462C10.1145 56.0566 10.2978 55.3684 10.4983 54.6062C10.6942 53.8615 10.9054 53.0483 11.1302 52.2781C11.3537 51.5124 11.6088 50.7252 11.9036 50.0281C12.1756 49.3848 12.5792 48.576 13.2014 47.9587L13.344 47.822C13.6804 47.5143 14.0269 47.281 14.302 47.1091C14.4623 47.009 14.6197 46.9171 14.7512 46.8406C14.8926 46.7584 14.9994 46.6966 15.1057 46.6326C15.26 46.5397 15.3517 46.4744 15.4026 46.4363C15.4171 46.3887 15.4375 46.322 15.4593 46.2341C15.5096 46.0304 15.5643 45.7598 15.6194 45.4177C15.7297 44.7325 15.8306 43.8312 15.9114 42.7322C16.0585 40.7318 16.1311 38.1528 16.0872 35.1726C15.7575 35.2257 15.4685 35.2714 15.2317 35.3142C13.2734 35.6679 11.3868 34.4316 11.0179 32.5525C10.6491 30.6733 11.9375 28.8627 13.8958 28.5086C15.2399 28.2657 16.1409 28.1524 17.0872 27.8611C17.9294 27.6018 18.4682 27.2861 18.8518 26.8699C19.5118 26.1538 20.0967 25.3184 21.0091 24.1179C21.8338 23.0328 22.8857 21.7131 24.2141 20.6023C24.3035 20.5276 24.449 20.38 24.7024 20.0681C24.8271 19.9146 24.952 19.7553 25.1096 19.5535C25.2583 19.3632 25.4347 19.137 25.6233 18.9089C26.341 18.0415 27.6005 16.6571 29.6663 16.0496L30.0598 15.9431C30.9847 15.7114 31.9526 15.5949 32.6585 15.5066C33.5876 15.3904 34.2974 15.3004 34.9427 15.1443C36.1047 14.8631 36.3656 14.5578 36.5442 14.0623C37.8249 10.5068 38.2313 6.46284 38.2366 3.94312C38.237 3.75615 38.2389 3.38884 38.2952 3.03004C38.3011 2.98983 38.3881 2.25058 38.9016 1.52613C39.2191 1.07843 39.9779 0.256912 41.3167 0.0466383ZM45.0511 9.32301C44.736 11.5483 44.2079 13.9853 43.3655 16.324C42.0746 19.9078 39.1012 21.2808 36.7063 21.8601C35.5729 22.1343 34.4221 22.2699 33.5911 22.3738C32.6675 22.4893 32.1586 22.5649 31.8137 22.6619C31.7696 22.6919 31.6047 22.8178 31.2757 23.2156C31.1562 23.3599 31.0333 23.5158 30.8841 23.7068C30.7438 23.8864 30.5715 24.1084 30.3948 24.3259C30.045 24.7566 29.5655 25.3129 28.9554 25.823C28.2786 26.3888 27.6245 27.1669 26.8401 28.199C26.1433 29.1159 25.2157 30.4188 24.2571 31.4587C23.2431 32.5587 22.0473 33.3214 20.8479 33.863C20.8665 33.9709 20.8806 34.0807 20.8831 34.1931C20.9594 37.6571 20.885 40.6927 20.7112 43.0564C20.6245 44.2365 20.5112 45.2734 20.3743 46.1238C20.2464 46.9176 20.0709 47.7288 19.7952 48.3484C19.2527 49.5672 18.1951 50.2231 17.6624 50.5437C16.9285 50.9854 16.7917 51.0407 16.6673 51.1609C16.6774 51.1537 16.5574 51.3005 16.3616 51.7634C16.167 52.2237 15.9695 52.8191 15.7639 53.5232C15.5597 54.2228 15.365 54.9693 15.1634 55.7361C14.9663 56.4853 14.7605 57.2621 14.5471 57.9548C14.1288 59.3129 14.0195 61.0996 14.0149 62.9685C14.0127 63.9051 14.0343 64.7303 14.0413 65.5691C14.0477 66.3343 14.0423 67.1541 13.9524 67.8152C13.7261 69.4799 13.1129 70.6233 12.5384 71.4646C12.4038 71.6616 12.2738 71.8392 12.1673 71.9832C12.0524 72.1385 11.9771 72.2397 11.9085 72.3377C11.8538 72.4157 11.8244 72.4632 11.8108 72.4861C11.4799 73.6289 11.199 74.9671 10.3782 77.0261C9.62921 78.9051 8.99532 80.5778 8.81668 83.2332C8.82943 83.2683 8.85531 83.3317 8.90555 83.4255C9.04099 83.6784 9.27307 84.0072 9.60769 84.3982C10.2807 85.1846 11.1354 85.9603 11.8323 86.5925C12.1948 86.9214 12.7501 87.269 14.3362 87.3015C16.1132 87.3379 18.6535 87.4109 20.9446 88.0623C22.2302 88.4278 22.8758 88.3001 23.4329 88.1023C23.8037 87.9706 24.1675 87.7928 24.7327 87.5173C25.2627 87.2591 25.931 86.9362 26.722 86.6589C27.0205 86.5542 28.2108 86.0124 29.5345 86.5232C30.9972 87.0878 31.828 88.1234 32.3264 89.0203C32.7309 89.7483 33.1122 90.8365 33.22 91.0896C33.5004 91.7483 33.7557 92.6135 33.9397 93.1687C34.1603 93.8342 34.3501 94.3055 34.553 94.6326C34.806 95.0403 35.1433 95.3596 35.6253 95.739C35.7804 95.8612 36.2284 96.1996 36.4505 96.3787C36.7443 96.6156 37.1115 96.9342 37.4397 97.3337C38.0318 98.0543 39.2207 98.9188 40.6282 99.7468C41.8805 100.484 43.0976 101.07 43.7513 101.377C44.0696 101.479 44.3879 101.557 44.6907 101.617C44.7409 100.523 44.7958 99.4501 44.8665 98.4441C44.956 97.1723 46.1026 96.2101 47.428 96.2957C47.7384 96.3158 48.0301 96.3939 48.2952 96.5144C48.5214 95.6333 49.1059 94.8377 49.9886 94.3464C51.373 93.576 52.3326 92.7115 54.76 90.8875C58.473 88.0975 62.2088 87.278 65.0882 87.0056C66.4319 86.8785 67.7633 86.8632 68.4505 86.8328C68.5736 86.8273 68.677 86.8189 68.7639 86.8132C68.7962 86.7789 68.8327 86.7423 68.8694 86.7009C69.1093 86.4301 69.3791 86.0797 69.6966 85.6375C70.2264 84.8993 71.1011 83.5733 71.8665 82.6707L72.012 82.5046C73.5518 80.8374 75.7738 80.6097 76.5413 80.5144C77.1896 80.4339 77.4366 80.419 77.804 80.3582C78.1128 80.307 78.1293 80.2741 78.0257 80.3259C78.3123 80.1823 78.5844 80.0616 78.7971 79.9685C78.9784 79.8892 79.0997 79.8355 79.2132 79.7849C79.281 79.4991 79.3518 79.1048 79.427 78.5671C79.599 77.3376 79.7953 75.2135 80.1927 73.406L80.2454 73.1882C80.8249 70.9688 82.5562 69.828 83.6761 69.2664C84.2587 68.9742 84.8461 68.7535 85.2434 68.6043C85.7172 68.4264 85.9254 68.348 86.0794 68.2742C87.1502 67.7607 88.0665 67.1069 88.8557 66.3298C89.5757 65.621 90.5679 64.8747 91.386 64.242C92.2876 63.5446 93.2533 62.7853 94.2591 61.866C94.8357 61.3389 95.7192 60.0823 96.8509 57.9656C97.9276 55.9516 99.0479 53.5141 100.199 50.9343C100.945 49.2645 100.628 47.4855 99.9554 45.8787C98.9952 43.5859 96.9617 42.5819 95.0872 41.4236C92.8912 40.0666 89.2413 37.4996 87.3011 35.6755C86.2711 34.7073 85.2687 34.0013 84.2747 33.7185C83.0415 33.3677 81.7826 32.6365 80.7415 31.9539C79.621 31.2191 78.4202 30.3149 77.2464 29.367C74.896 27.4689 72.478 25.255 70.7376 23.5261C70.7266 23.5195 70.3967 23.2589 69.47 22.8269C68.6096 22.4259 67.5026 21.9987 66.2542 21.5808C63.7484 20.7421 60.9362 20.0311 58.8948 19.6834C54.7949 18.985 52.6323 16.5108 51.0979 14.0105C50.3456 12.7846 49.7547 11.6452 48.4417 10.405C47.5152 9.53007 46.7473 9.36096 46.1321 9.31422C45.7928 9.28845 45.4761 9.30134 45.0511 9.32301Z" fill="black"/>
</g>
<defs>
<filter id="filter0_d_369_275" x="0" y="0" width="111.848" height="124.117" filterUnits="userSpaceOnUse" color-interpolation-filters="sRGB">
<feFlood flood-opacity="0" result="BackgroundImageFix"/>
<feColorMatrix in="SourceAlpha" type="matrix" values="0 0 0 0 0 0 0 0 0 0 0 0 0 0 0 0 0 0 127 0" result="hardAlpha"/>
<feOffset dy="4"/>
<feGaussianBlur stdDeviation="2"/>
<feComposite in2="hardAlpha" operator="out"/>
<feColorMatrix type="matrix" values="0 0 0 0 0 0 0 0 0 0 0 0 0 0 0 0 0 0 0.25 0"/>
<feBlend mode="normal" in2="BackgroundImageFix" result="effect1_dropShadow_369_275"/>
<feBlend mode="normal" in="SourceGraphic" in2="effect1_dropShadow_369_275" result="shape"/>
</filter>
</defs>
</svg>
