<svg width="102" height="150" viewBox="0 0 102 150" fill="none" xmlns="http://www.w3.org/2000/svg">
<g filter="url(#filter0_d_369_270)">
<path fill-rule="evenodd" clip-rule="evenodd" d="M68.6894 0.0111735C73.8777 0.275134 77.7624 1.61462 80.3691 4.53656C83.0568 7.54936 85.0076 11.2705 85.9072 14.0942C86.7535 16.7505 87.3143 18.2183 88.1982 19.4174C88.7287 20.137 89.8077 21.3356 90.9306 22.1313C91.4 22.4639 91.7491 22.6296 91.9589 22.7036C93.6313 21.9944 95.6254 22.6021 96.5498 24.1596C97.5357 25.8214 96.9309 27.936 95.1992 28.8823C94.735 29.1359 94.2648 29.3177 93.7978 29.4438C94.1699 32.1624 94.649 36.3631 94.6523 41.4496C94.6534 43.2195 94.3489 44.687 94.0156 45.9184C93.645 47.2874 93.3813 47.9535 93.2138 48.8178C92.6147 51.911 91.0209 53.9023 88.9785 55.936C88.96 55.9544 88.923 55.9999 88.8857 56.0815C88.848 56.1641 88.8238 56.2529 88.8134 56.3246C88.7959 56.4463 88.7931 56.6546 88.8935 57.1606C89.014 57.7675 89.1527 58.247 89.3857 59.3061C89.8087 61.2293 90.2673 63.9516 90.3076 68.2202C90.3351 71.137 89.8795 72.5869 89.6474 73.4741C89.2583 74.9609 88.1657 76.5793 87.333 77.8237C86.3801 79.2476 85.5388 80.4884 85.0488 81.6313C84.7302 82.3743 84.495 83.1826 84.038 84.5209C83.605 85.7893 83.0367 87.3192 82.1386 89.1762C80.3348 92.9062 80.3649 95.0811 80.1298 97.0082C79.9809 98.2296 79.6696 99.5209 79.417 100.689C79.1531 101.909 78.9154 103.145 78.8154 104.509C78.4302 109.762 78.6733 117.754 78.9375 122.147C79.9944 122.148 80.9629 122.82 81.2548 123.845C81.6045 125.075 80.8494 126.343 79.5683 126.679C77.7518 127.155 75.9244 127.48 74.372 127.753C72.7452 128.039 71.5337 128.253 70.6894 128.508C70.0238 128.71 69.2646 129.19 68.1836 129.993C67.2298 130.701 65.9473 131.725 64.5996 132.426C62.335 133.603 58.4939 134.423 55.0332 134.956C51.5453 135.494 47.9814 135.802 45.8564 135.814C45.8923 136.827 45.9211 137.942 45.9384 139.186C45.9559 140.46 44.8936 141.507 43.5654 141.524C42.2371 141.541 41.1448 140.522 41.1269 139.247C41.0199 131.562 40.5407 129.097 39.9043 125.04C39.4007 121.831 38.5219 118.839 37.538 114.458C36.3322 109.089 35.1508 104.819 34.5996 100.788C33.9568 96.087 33.4556 91.8143 32.8252 88.5532C32.5098 86.9221 32.1853 85.6783 31.8466 84.8315C31.6926 84.4464 31.5617 84.215 31.4755 84.0903C30.6497 83.7364 29.8815 83.2361 29.2226 82.767C28.5286 82.2729 27.693 81.6176 27.0449 81.1362C25.5526 80.0278 24.3566 79.3104 23.2578 79.1225C23.1858 79.1102 22.9502 79.0906 22.4502 79.0971C21.9811 79.1033 21.4145 79.1291 20.7314 79.1616C19.4005 79.2249 17.7071 79.3105 15.9648 79.2631C14.2294 79.2159 12.3233 79.0355 10.5517 78.519C8.77586 78.0012 6.97873 77.0989 5.6816 75.5043C5.60085 75.4051 5.07806 74.8135 4.81636 74.4477C4.49413 73.9969 3.97548 73.1526 4.03804 72.0483L4.14644 70.3159C4.45141 65.6851 5.07514 57.1083 5.07515 48.0952C5.07515 47.7161 5.17199 47.359 5.34078 47.0434C3.97019 45.983 3.57962 44.0911 4.49996 42.5922C5.20473 41.4445 6.05788 39.818 7.05953 37.9955C7.98053 36.3198 9.07346 34.3905 10.0976 33.0932C10.7058 32.3227 11.1347 31.3668 11.788 29.8334C12.3887 28.4236 13.1719 26.5565 14.4961 24.7788C14.887 24.2539 15.4954 23.5869 16.3066 23.0942C16.9088 22.7285 19.0334 21.6885 21.0898 23.1196L21.289 23.2661L21.5576 23.4829C22.174 23.9984 22.7207 24.5767 23.1474 25.0405C23.7086 25.6504 24.082 26.0819 24.5175 26.5209C24.7032 26.7081 24.8567 26.8489 24.9795 26.9545C25.0942 26.9004 25.235 26.8326 25.4033 26.7455C25.7541 26.564 26.1397 26.3512 26.5957 26.0991C27.0373 25.8549 27.5389 25.5767 28.0586 25.3022C29.9381 24.3095 33.005 22.8065 36.2295 23.1235C37.6628 23.2644 38.7916 23.8513 39.5771 24.3676C40.294 24.8388 40.9631 25.4201 41.3701 25.7651C41.5022 25.6065 41.6483 25.4307 41.8095 25.2348C45.6746 20.5394 48.1374 17.1949 49.8779 14.7758C51.515 12.5004 52.7821 10.6377 54.0087 9.39594C55.1516 8.23912 56.5823 7.38087 57.4433 6.83149C58.4708 6.17587 58.9861 5.7912 59.3056 5.4018C60.0468 4.49847 61.1653 3.14228 62.5791 2.0561C64.0359 0.936939 66.0945 -0.120755 68.6894 0.0111735ZM68.3076 6.92719C68.0908 6.91624 67.7291 6.97125 67.0898 7.46235C66.4074 7.98666 65.7523 8.73923 64.9755 9.68598C63.8534 11.0534 62.4092 11.9793 61.4394 12.5981C60.3031 13.3231 59.697 13.7042 59.247 14.1596C58.5229 14.8926 57.7215 16.0626 55.8164 18.7104C54.0144 21.2149 51.4595 24.6856 47.4736 29.5278C46.7371 30.4225 46.1136 31.1685 45.5791 31.6899C45.0038 32.251 44.0931 33.0004 42.7109 33.2172C41.1038 33.4692 39.7507 33.029 38.7773 32.5151C37.8802 32.0414 37.1245 31.4051 36.6562 31.0102C36.081 30.5251 35.793 30.2748 35.499 30.0815C35.4452 30.0462 35.4025 30.0227 35.373 30.0063C34.6275 29.984 33.4169 30.3772 31.538 31.3696C31.0921 31.6051 30.6547 31.8467 30.1982 32.0991C29.7561 32.3435 29.2833 32.6058 28.8281 32.8413C28.0677 33.2346 26.7954 33.8707 25.4658 34.0151C23.8579 34.1895 22.5122 33.6795 21.5546 33.1196C20.6265 32.5768 19.861 31.871 19.29 31.2954C19.2182 31.2229 19.1468 31.1472 19.0742 31.0717C18.8772 31.499 18.6795 31.9565 18.4677 32.4536C17.8867 33.8173 17.1305 35.6557 15.8515 37.2758C15.2447 38.0444 14.417 39.4572 13.4443 41.227C12.5524 42.8497 11.5377 44.7725 10.7177 46.1079C10.449 46.5455 10.0948 46.9044 9.68844 47.1791C9.81517 47.46 9.88668 47.7696 9.88668 48.0952C9.88667 58.2466 9.10661 67.9222 8.86422 71.9409C8.90736 71.9948 8.96235 72.0611 9.03414 72.145C9.13967 72.2682 9.31904 72.4735 9.47359 72.6635C9.96427 73.2667 10.7622 73.7556 11.9502 74.102C13.1425 74.4496 14.5708 74.6063 16.1015 74.6479C17.6252 74.6893 19.1309 74.6151 20.4941 74.5502C21.1578 74.5187 21.8127 74.4884 22.3837 74.4809C22.9237 74.4738 23.5484 74.4833 24.1005 74.5776C26.4809 74.9843 28.5069 76.3848 29.9892 77.4858C30.8281 78.1089 31.4186 78.5811 32.0898 79.059C32.7327 79.5167 33.1854 79.7803 33.5146 79.9077C34.3786 80.2419 34.9742 80.841 35.373 81.3784C35.7779 81.924 36.0888 82.5529 36.3388 83.1782C36.8378 84.4261 37.225 86.0015 37.5556 87.7114C38.217 91.1325 38.7475 95.6329 39.3701 100.186C39.8874 103.969 40.9661 107.808 42.2412 113.486C43.1449 117.51 44.1309 120.967 44.6621 124.353C45.0298 126.697 45.3535 128.577 45.5859 131.206C45.6347 131.204 45.6838 131.2 45.7334 131.2C47.5018 131.2 50.8663 130.923 54.2705 130.399C57.7691 129.86 60.8491 129.125 62.3076 128.367C63.2114 127.897 64.0623 127.215 65.2402 126.34C66.2905 125.561 67.6623 124.582 69.2431 124.104C70.4421 123.741 72.011 123.475 73.5048 123.212C73.7283 123.173 73.9528 123.132 74.1787 123.091C73.8929 118.765 73.5895 109.996 74.0156 104.185C74.1386 102.507 74.4305 101.03 74.707 99.7514C74.9947 98.4212 75.2347 97.4286 75.3515 96.4711C75.5627 94.7394 75.5827 91.7648 77.7744 87.2329C78.5683 85.5912 79.0701 84.2425 79.4658 83.0834C79.8375 81.9948 80.1903 80.8268 80.5986 79.8745C81.2925 78.2563 82.4237 76.6154 83.2841 75.3295C84.2645 73.8645 84.826 72.9436 84.9814 72.35C85.1867 71.5654 85.5188 70.5754 85.497 68.2612C85.4599 64.329 85.0414 61.9135 84.6777 60.2602C84.5174 59.5316 84.2848 58.6134 84.1679 58.0248C84.0311 57.3354 83.9245 56.5496 84.0478 55.6928C84.1758 54.8043 84.5832 53.6594 85.5136 52.7329C87.297 50.9572 88.137 49.7624 88.4834 47.9741C88.6848 46.934 89.1216 45.6328 89.3584 44.7582C89.6324 43.7458 89.8425 42.6927 89.8418 41.4526C89.8382 35.9298 89.2469 31.5397 88.8759 28.9711C88.0331 28.6093 87.2789 28.1528 86.6435 27.7026C84.732 26.3481 83.1402 24.5481 82.3066 23.4174C80.6649 21.1905 79.8261 18.6962 79.0048 16.1186C78.3771 14.1484 76.888 11.2849 74.8857 9.04047C74.0726 8.12909 72.472 7.13911 68.3076 6.92719Z" fill="black"/>
</g>
<defs>
<filter id="filter0_d_369_270" x="0" y="0" width="101.023" height="149.524" filterUnits="userSpaceOnUse" color-interpolation-filters="sRGB">
<feFlood flood-opacity="0" result="BackgroundImageFix"/>
<feColorMatrix in="SourceAlpha" type="matrix" values="0 0 0 0 0 0 0 0 0 0 0 0 0 0 0 0 0 0 127 0" result="hardAlpha"/>
<feOffset dy="4"/>
<feGaussianBlur stdDeviation="2"/>
<feComposite in2="hardAlpha" operator="out"/>
<feColorMatrix type="matrix" values="0 0 0 0 0 0 0 0 0 0 0 0 0 0 0 0 0 0 0.25 0"/>
<feBlend mode="normal" in2="BackgroundImageFix" result="effect1_dropShadow_369_270"/>
<feBlend mode="normal" in="SourceGraphic" in2="effect1_dropShadow_369_270" result="shape"/>
</filter>
</defs>
</svg>
