<svg width="56" height="191" viewBox="0 0 56 191" fill="none" xmlns="http://www.w3.org/2000/svg">
<g filter="url(#filter0_d_369_129)">
<path fill-rule="evenodd" clip-rule="evenodd" d="M20.9363 0.222059C21.7197 0.0545066 22.7239 -0.0881386 23.7078 0.065809C24.7227 0.224679 25.8865 0.744544 26.5535 1.933L26.6795 2.17909L26.8416 2.54725C26.8886 2.65573 26.9301 2.74733 26.9725 2.83534C27.058 3.013 27.1297 3.13248 27.1941 3.21425C27.2529 3.28868 27.2884 3.31053 27.2977 3.31581C27.3031 3.31888 27.3141 3.32437 27.3348 3.33046C27.3558 3.33666 27.3992 3.34698 27.4725 3.35194C30.3542 3.54633 32.4715 3.73729 34.1951 3.89393C35.9292 4.05153 37.2139 4.16877 38.4998 4.22694C42.3595 4.4015 44.83 4.60975 46.1004 4.60975C47.4261 4.60976 48.4999 5.63857 48.5047 6.90956C49.7986 6.70747 51.0268 7.53788 51.2586 8.78065C51.7003 11.1484 51.8125 14.6408 51.2684 18.3129C50.753 21.7904 48.413 25.2256 49.7029 32.5326C50.1798 35.2336 50.9382 38.3026 50.2508 42.1742C49.411 46.9038 48.9366 49.9567 48.827 51.0238C48.6617 52.6324 48.3273 56.0178 48.6111 59.7836C48.9237 63.929 47.8813 67.9467 46.3914 71.1449C45.1889 73.7261 44.6124 75.3773 42.5467 77.3666C38.9379 80.8417 37.209 82.7768 36.5897 84.9662C36.1957 86.3589 35.6442 87.6869 35.3152 88.5834C34.9256 89.6453 34.8616 90.0753 34.8797 90.2523C35.0131 91.5589 35.5883 92.6729 36.3113 94.5834C37.2598 97.0894 37.1724 99.6587 36.4988 108.275C36.3404 110.302 36.3329 111.93 36.3494 113.458C36.3657 114.969 36.4094 116.48 36.3387 118.116C36.2016 121.285 36.1228 124.221 35.993 126.342C35.9279 127.405 35.8452 128.365 35.7186 129.114C35.6564 129.481 35.5689 129.887 35.4324 130.261C35.347 130.495 35.0487 131.315 34.202 131.823C33.6263 132.168 33.0433 132.243 32.5906 132.231C32.4689 133.39 32.4352 134.982 32.5369 135.94C32.8129 138.537 33.0269 140.436 33.2108 142.688C33.3334 144.19 33.7302 147.121 33.7195 149.54C33.7142 150.759 33.6129 152.106 33.2215 153.253C32.838 154.378 31.9317 155.93 29.9432 156.267C29.3733 156.364 28.8267 156.4 28.3787 156.419C28.1558 156.429 27.9349 156.436 27.7537 156.442H27.7508C27.161 158.444 26.8345 160.32 26.8563 161.839C26.9151 165.935 27.1359 174.729 27.4617 178.323C27.5157 178.918 27.3262 179.479 26.9764 179.919C26.9058 180.325 26.7589 180.725 26.5291 181.101C25.5205 182.75 23.3103 183.303 21.5916 182.335C21.0398 182.025 20.8477 182.009 19.6473 181.441C18.6767 180.981 17.5188 180.338 16.3533 179.27C15.1875 178.202 13.7821 176.869 12.5359 175.569C11.3788 174.361 10.0629 172.881 9.36309 171.58C8.21913 169.454 7.35261 167.467 6.9627 164.865C6.63807 162.698 5.99549 159.247 5.42071 157.376C5.05209 156.177 4.04195 154.018 4.00762 149.904C3.95333 143.39 4.20603 138.281 4.2293 135.736C4.28501 129.646 4.84678 123.184 5.11895 119.1C5.27609 116.742 5.2752 115.556 5.2752 114.695C5.27532 113.686 5.72406 112.778 6.44122 112.145C6.47972 110.267 6.51751 108.527 6.55645 107.328C6.60874 105.716 6.65367 105.222 6.67755 103.345C6.6519 94.7709 6.52284 90.8216 6.68536 88.4867C6.82516 86.4789 7.43254 84.3415 7.12188 75.3959C7.08773 74.4127 6.99941 73.3321 6.89532 71.8783C6.79353 70.4566 6.68534 68.7771 6.62872 66.7445C6.53845 63.5041 6.46153 60.6446 6.42657 57.4906C6.40112 57.338 6.38346 57.1831 6.3797 57.0258C6.34869 56.9132 6.30743 56.771 6.22345 56.4848C6.137 56.1901 6.00861 55.7394 5.92755 55.2562C5.85266 54.8097 5.77041 54.0739 5.94805 53.2553H5.94708C6.05069 52.7709 6.03014 52.3096 5.83868 51.3627C5.65724 50.4654 5.26742 48.9456 5.11114 47.141C5.06179 46.5711 5.13808 46.0415 5.19317 45.7201C5.25729 45.3461 5.34908 44.9499 5.45098 44.5609C5.65508 43.782 5.94786 42.8367 6.28497 41.7982C6.62493 40.751 7.03109 39.5466 7.46954 38.2416C7.91031 36.9297 8.38957 35.5024 8.88555 33.9808C9.50877 32.0689 9.99967 30.2893 10.2469 28.724C10.501 27.1146 10.4465 26.0248 10.242 25.3588C9.53259 23.0476 9.0607 21.0266 8.74298 19.8637C8.56973 19.2296 8.44842 18.8639 8.35626 18.6469C7.1331 17.3544 7.0963 15.358 8.33184 14.0228C8.60655 13.7261 8.92286 13.486 9.26446 13.3021C8.69613 12.84 8.35696 12.1339 8.41778 11.3666C8.52932 9.96083 8.65129 9.03514 9.17266 8.14686L9.24981 8.01405L9.34649 7.891C9.86959 7.22399 10.2421 6.66487 10.6932 6.04042L10.8904 5.76698L11.16 5.558C11.4813 5.30955 11.8011 5.16509 12.0213 5.08046C12.2351 4.99832 12.4389 4.94218 12.535 4.91542C12.5612 4.9081 12.5819 4.90173 12.5994 4.89686C12.6773 4.83613 12.792 4.73695 12.951 4.5746C13.2174 4.30239 13.4112 4.07238 13.784 3.66835C14.3854 3.01652 15.4004 1.95581 16.8973 1.47792C17.5759 1.26124 19.4259 0.545196 20.9363 0.222059ZM22.5242 4.63807C22.3829 4.65448 22.2034 4.68084 21.9832 4.72792C20.7721 4.98699 19.6408 5.46771 18.4158 5.85878C18.2559 5.90989 17.981 6.08446 17.3856 6.72987C17.1599 6.97447 16.7776 7.40903 16.4578 7.73573C16.1108 8.09026 15.6488 8.52147 15.0731 8.86952C14.7839 9.04429 14.5094 9.15083 14.3152 9.21718C14.291 9.22546 14.2661 9.23282 14.242 9.24061C13.9902 9.59652 13.6909 10.0122 13.367 10.4359C13.3648 10.4456 13.3617 10.4569 13.3592 10.4691C13.3193 10.6606 13.2716 11.0119 13.2156 11.7172C13.1704 12.2873 12.9109 12.7915 12.5213 13.1674C12.843 13.3075 13.1486 13.4959 13.4266 13.7328C14.279 14.4592 14.7458 15.3487 15.0242 15.9965C15.3125 16.6674 15.5336 17.4129 15.7234 18.1078C16.1376 19.6236 16.4864 21.1926 17.1649 23.4027C17.8011 25.4758 17.7038 27.727 17.3826 29.7611C17.0544 31.8395 16.4374 34.0077 15.7723 36.0482C15.2661 37.6012 14.7797 39.054 14.3387 40.3666C13.8953 41.6862 13.5023 42.8513 13.1756 43.8578C12.8461 44.8728 12.6038 45.6663 12.451 46.2494C12.3864 46.4958 12.3472 46.6711 12.325 46.7865C12.4455 47.9744 12.6765 48.8212 12.9236 50.0433C13.0568 50.7018 13.1799 51.4404 13.2127 52.2601C13.4744 52.7397 13.6238 53.2848 13.6238 53.8637C13.6238 58.4956 13.7193 62.1334 13.8426 66.559C13.8954 68.4534 13.9968 70.0251 14.0955 71.4037C14.1919 72.7502 14.296 74.021 14.3357 75.1644C14.6625 84.5721 13.9964 87.3706 13.8865 88.9486C13.7459 90.9697 13.8679 94.375 13.8943 103.377V103.43C13.8695 105.386 13.817 106.105 13.7703 107.543C13.7217 109.043 13.6733 111.443 13.6229 113.952C13.6032 114.928 13.1623 115.801 12.4715 116.418C12.451 117.208 12.4099 118.21 12.3211 119.542C12.0362 123.817 11.4995 129.96 11.4461 135.797C11.4184 138.828 11.1707 143.286 11.2254 149.849C11.2496 152.743 11.8298 153.747 12.3436 155.418C13.0734 157.793 13.7733 161.656 14.1063 163.878C14.3368 165.417 14.8221 166.631 15.7762 168.405C15.9785 168.78 16.6626 169.644 17.8484 170.881C18.9458 172.026 20.2279 173.242 21.3387 174.26C21.6837 174.576 22.0334 174.811 22.4324 175.025C22.2236 170.717 22.0893 164.939 22.0457 161.903C22.0102 159.43 22.6191 156.629 23.4949 153.995L23.5711 153.791C23.9818 152.809 24.8275 152.333 25.4256 152.125C26.0013 151.925 26.597 151.877 26.9705 151.854C27.731 151.808 28.1856 151.821 28.66 151.778C28.8063 151.322 28.9034 150.569 28.908 149.521C28.9176 147.346 28.5692 144.95 28.4139 143.047C28.2357 140.865 28.0295 139.04 27.7498 136.408C27.5759 134.77 27.6738 131.988 28.0047 130.421C28.1796 129.593 28.5619 128.49 29.6199 127.822C30.1317 127.498 30.6491 127.375 31.0936 127.342C31.1273 126.977 31.1597 126.554 31.1893 126.072C31.3164 123.994 31.3886 121.219 31.5311 117.924C31.595 116.445 31.5553 115.116 31.5379 113.506C31.5207 111.915 31.5281 110.141 31.701 107.929C32.4086 98.8777 32.2999 97.51 31.7889 96.1596C31.2813 94.8186 30.3022 92.7756 30.0906 90.7016C29.955 89.3716 30.4188 88.0269 30.7772 87.0502C31.1963 85.9079 31.6137 84.9314 31.9461 83.7562C32.9566 80.1844 35.7107 77.4086 39.1385 74.1078C40.4378 72.8566 40.654 72.1469 41.9988 69.2601C43.2406 66.5945 44.0554 63.3425 43.8123 60.1176C43.4971 55.9361 43.8693 52.2211 44.0389 50.5707C44.1682 49.3124 44.6746 46.0954 45.5086 41.3988C46.0281 38.4731 45.4862 36.2906 44.9588 33.3031C43.5136 25.1169 46.2432 19.4263 46.5047 17.6625C46.9851 14.4205 46.8639 11.4256 46.5223 9.59413C46.4972 9.45978 46.4867 9.32569 46.4861 9.19374C46.3604 9.21322 46.2319 9.22694 46.1004 9.22694C44.7027 9.22694 41.7893 8.99826 38.2733 8.83925C36.851 8.77492 35.4457 8.64544 33.742 8.49061C32.0277 8.33482 29.9575 8.14777 27.1356 7.95741C24.2669 7.76382 22.9992 5.67621 22.5242 4.63807Z" fill="#151515"/>
</g>
<defs>
<filter id="filter0_d_369_129" x="0" y="0" width="55.6345" height="190.812" filterUnits="userSpaceOnUse" color-interpolation-filters="sRGB">
<feFlood flood-opacity="0" result="BackgroundImageFix"/>
<feColorMatrix in="SourceAlpha" type="matrix" values="0 0 0 0 0 0 0 0 0 0 0 0 0 0 0 0 0 0 127 0" result="hardAlpha"/>
<feOffset dy="4"/>
<feGaussianBlur stdDeviation="2"/>
<feComposite in2="hardAlpha" operator="out"/>
<feColorMatrix type="matrix" values="0 0 0 0 0 0 0 0 0 0 0 0 0 0 0 0 0 0 0.25 0"/>
<feBlend mode="normal" in2="BackgroundImageFix" result="effect1_dropShadow_369_129"/>
<feBlend mode="normal" in="SourceGraphic" in2="effect1_dropShadow_369_129" result="shape"/>
</filter>
</defs>
</svg>
