<svg width="118" height="167" viewBox="0 0 118 167" fill="none" xmlns="http://www.w3.org/2000/svg">
<g filter="url(#filter0_d_369_260)">
<path fill-rule="evenodd" clip-rule="evenodd" d="M84.2129 0.000270463C85.5412 0.0120619 86.6086 1.05479 86.5967 2.32937C86.5941 2.60084 86.5713 2.86362 86.5342 3.11746C86.6247 3.34826 86.7229 3.57144 86.8281 3.78738C87.4092 4.36506 88.0684 5.0002 88.6895 5.60086C89.2448 6.13794 89.851 6.72731 90.1631 7.09988C90.1908 7.1329 90.2644 7.22136 90.3516 7.34597C91.6032 8.65972 92.7499 10.048 93.3721 11.6282C93.9423 13.0765 94.5016 14.5095 95.1553 15.9016C95.2188 15.9418 95.4466 16.0599 96.1026 16.2151C96.4863 16.3059 97.2399 16.458 97.8311 16.636C98.4258 16.8151 99.2225 17.1146 99.9209 17.7044L100.06 17.8255L100.285 18.0452C101.376 19.165 101.907 20.6175 102.187 21.9202C102.492 23.3459 102.558 24.8899 102.537 26.2971C102.516 27.7145 102.403 29.0974 102.313 30.1966C102.214 31.4166 102.169 32.0689 102.193 32.3411C102.418 34.8863 102.4 37.8587 102.396 40.1643C102.395 41.3467 102.397 42.3331 102.429 43.0628C102.437 43.254 102.448 43.4119 102.458 43.5393C102.633 43.6636 102.89 43.7881 103.307 43.9026C104.085 44.1165 105.197 44.2419 106.903 44.3352C107.401 44.3625 107.942 44.4292 108.48 44.6175C108.991 44.7966 109.39 45.0463 109.718 45.3128L109.854 45.428L110.087 45.6438C111.215 46.7413 111.728 48.0806 112.022 49.1428C112.181 49.7162 112.296 50.285 112.389 50.7454C112.489 51.2405 112.562 51.595 112.647 51.8919C113.123 53.5348 113.127 55.4952 112.961 57.1917C112.792 58.9147 112.419 60.6327 111.96 61.8733C111.664 62.6742 111.503 63.9616 111.243 65.8899C111.005 67.6566 110.692 69.8039 110.002 71.7854C109.204 74.076 107.173 74.85 105.875 75.1741C105.26 75.3275 104.553 75.4392 104.212 75.5032C103.983 75.5463 103.861 75.578 103.812 75.5911C103.132 76.0544 102.634 77.0878 102.35 79.6145C102.099 81.8464 102.039 85.3337 101.334 88.4173C101.058 89.6223 100.821 90.9062 100.54 91.8567C100.225 92.9217 99.7506 94.0041 98.7686 94.9485C98.1053 95.5863 97.2883 96.0248 96.5381 96.3509C95.7728 96.6834 94.915 96.9662 94.0654 97.2268C92.2889 97.7718 90.4709 98.2491 88.5342 98.9866C85.2072 100.254 83.6444 102.987 81.7569 105.859C80.7672 107.364 80.111 108.878 78.9385 111.02C78.3354 112.121 77.9329 113.392 77.7559 119.331C77.6625 122.465 76.932 126.085 76.249 129.144C75.8947 130.731 75.5691 132.096 75.3008 133.335C75.0304 134.584 74.8753 135.457 74.8438 135.975C74.7972 136.739 74.5716 137.844 73.5498 138.613C72.6893 139.26 71.658 139.31 71.3779 139.333C67.8469 139.629 65.4142 140.103 62.3047 140.66C58.4651 141.349 56.8759 142.004 56.1983 142.41C56.0027 143.894 55.8503 145.515 55.6865 147.003C55.5917 147.865 55.491 148.695 55.376 149.374C55.3186 149.713 55.2513 150.054 55.168 150.364C55.0995 150.618 54.966 151.067 54.6963 151.482L54.5879 151.65L54.4502 151.797C53.9953 152.286 53.4857 152.577 52.9912 152.767C53.3449 153.603 53.7144 154.411 54.0996 155.171C54.6805 156.318 54.1822 157.7 52.9873 158.257C51.7926 158.814 50.3534 158.336 49.7725 157.19C47.3785 152.465 45.5739 146.31 44.7246 142.342C44.3367 140.53 43.8916 138.184 43.1231 136.221C42.7409 135.245 42.338 134.528 41.9453 134.078C41.5737 133.653 41.3561 133.619 41.2774 133.614C39.2076 133.459 37.1435 133.316 35.4932 133.053C34.6631 132.921 33.8295 132.744 33.0918 132.476C32.3911 132.221 31.5074 131.79 30.8779 130.995C30.198 130.137 29.5931 128.889 29.0635 127.561C28.513 126.18 27.9707 124.521 27.4697 122.707C26.9236 120.731 26.5667 118.835 26.2529 117.099C25.9334 115.331 25.6662 113.776 25.2901 112.316C24.3596 108.704 23.3528 105.434 21.8643 102.685C21.1397 101.347 20.4931 100.24 19.7754 99.3948C19.0785 98.5739 18.4412 98.1524 17.7871 97.9846C17.3945 97.884 16.8514 97.8256 16.0029 97.7464C15.2402 97.6752 14.2508 97.5876 13.2959 97.385C12.336 97.1813 11.2183 96.8248 10.2344 96.0999C9.19515 95.3341 8.4382 94.2547 8.09669 92.8577C7.53293 90.5511 6.95874 87.0551 6.42482 83.3499C6.40088 83.2618 6.38296 83.1835 6.37013 83.1194C6.31995 82.8687 6.29508 82.6145 6.28419 82.3762C6.28409 82.3739 6.2843 82.3708 6.28419 82.3684C5.90918 79.7056 5.5572 76.98 5.25099 74.5462C4.90851 71.824 4.61917 69.4577 4.40822 67.8616C4.39612 67.8233 4.38268 67.7861 4.37111 67.7493C4.29198 67.4976 4.22132 67.2682 4.16896 67.0891C4.14336 67.0016 4.11739 66.9082 4.09572 66.8235C4.08522 66.7825 4.07075 66.7249 4.05763 66.6614C4.05328 66.6404 4.01285 66.4586 4.00685 66.2376C3.99824 65.9176 3.99504 65.5902 4.01368 65.344C4.01862 65.279 4.02913 65.1576 4.05665 65.0169C4.07016 64.9479 4.09777 64.8219 4.15138 64.6721C4.18756 64.5711 4.31809 64.2109 4.65138 63.8587C4.83669 63.6629 5.15317 63.3967 5.62501 63.2346C6.08561 63.0766 6.56461 63.0643 7.00197 63.1653C7.67255 62.7723 8.49682 62.7246 9.20314 63.0149C9.28464 62.9191 9.36541 62.8243 9.44728 62.7337C9.9304 62.1987 10.5188 61.6325 11.1699 61.0647C12.4725 59.929 14.1153 58.7094 15.8662 57.6302C17.0473 56.902 17.9498 55.8635 18.8047 54.5637C19.2345 53.9103 19.63 53.2261 20.0518 52.4925C20.4614 51.78 20.9051 51.0045 21.3838 50.2727C22.4094 48.7052 23.7537 47.263 24.9893 45.9602C26.2418 44.6395 27.3968 43.4448 28.3623 42.179C28.3826 42.089 28.4031 41.9522 28.4268 41.7122C28.447 41.5068 28.4784 41.1204 28.5313 40.7845C28.585 40.4433 28.6911 39.9213 28.9707 39.4007L29.0596 39.2415C30.0011 37.6227 31.6844 36.6655 33.252 36.0618C34.9217 35.4188 36.8744 35.0195 38.7676 34.7425C40.6773 34.4631 42.656 34.291 44.4004 34.1448C46.1956 33.9943 47.6736 33.876 48.7539 33.7083C50.0938 33.5002 51.6266 32.8529 53.4229 31.8128C55.2136 30.7758 57.0643 29.4714 59.0996 28.0647C61.9235 26.113 66.0349 22.77 67.9766 20.1136C68.904 18.8448 72.9226 14.6308 79.4258 9.39383C79.7206 9.15638 79.7791 9.00001 79.7969 8.94461C79.8221 8.86604 79.8422 8.72771 79.7979 8.46902C79.7494 8.18666 79.6514 7.89454 79.502 7.46218C79.4368 7.27369 79.3478 7.01723 79.2783 6.76687C79.2124 6.52883 79.1214 6.14987 79.1201 5.72195L79.1182 5.22781L79.3281 4.77566C79.4188 4.58036 79.5264 4.4055 79.6416 4.24929C79.5835 4.17902 79.5257 4.1074 79.4727 4.0325C79.3443 3.85118 79.1137 3.49111 79.0117 3.00222C78.8924 2.42922 78.954 1.62976 79.5488 0.941677C80.0543 0.357152 80.6887 0.160976 81.001 0.0891377C81.3464 0.00973686 81.6673 -0.00209584 81.8955 0.000270463L82.0635 0.00808296C82.4429 0.0367072 82.7291 0.14091 82.836 0.180935C82.9141 0.210205 82.9878 0.241466 83.0557 0.272731C83.4001 0.0955424 83.7946 -0.00338829 84.2129 0.000270463ZM84.6328 8.82351C84.6258 9.28774 84.561 9.78813 84.3945 10.3059C84.0778 11.2913 83.4519 12.1783 82.5186 12.93C76.1057 18.0941 72.4748 21.999 71.9151 22.7649C69.4916 26.0804 64.8338 29.7925 61.9121 31.8118C59.9544 33.1648 57.9088 34.6074 55.9082 35.7659C53.9135 36.921 51.7591 37.9186 49.5225 38.2659C48.2222 38.4678 46.5203 38.6018 44.8193 38.7444C43.0672 38.8913 41.2312 39.0526 39.4932 39.3069C37.7388 39.5636 36.2085 39.8975 35.044 40.346C33.9401 40.7711 33.472 41.1819 33.294 41.4417C33.2923 41.4511 33.29 41.4621 33.2881 41.4739C33.2617 41.6417 33.2507 41.803 33.2168 42.1468C33.1884 42.4343 33.1444 42.8473 33.0391 43.2718C32.9328 43.6998 32.7388 44.2535 32.3408 44.7825C31.1637 46.3471 29.7591 47.7906 28.5479 49.0677C27.2867 50.3975 26.2251 51.5569 25.459 52.7278C25.0666 53.3276 24.6915 53.9806 24.2647 54.7229C23.8498 55.4445 23.3895 56.2435 22.8731 57.0286C21.8355 58.6059 20.4817 60.2723 18.4658 61.5149C16.934 62.4592 15.5049 63.523 14.4053 64.4817C13.8554 64.9611 13.4096 65.3954 13.083 65.7571C12.9204 65.9372 12.7986 66.0864 12.7129 66.2034C12.6339 66.3112 12.6042 66.3668 12.6006 66.3733C12.4561 66.6744 12.2511 66.9299 12.0078 67.136C11.9476 67.8367 11.5592 68.5026 10.8906 68.9046C10.6787 69.032 10.4534 69.123 10.2236 69.1809C10.6351 69.5947 10.8887 70.1545 10.8887 70.7718C10.8887 70.978 10.8886 71.1968 10.8887 71.427C11.7587 73.7392 12.5685 77.0431 11.8975 81.7786C11.8301 82.2542 11.7291 82.7083 11.5967 83.1087C11.5452 83.2642 11.464 83.491 11.3379 83.7395C11.8132 86.9532 12.3081 89.8671 12.7813 91.803C12.8725 92.176 13.0177 92.3302 13.1651 92.4387C13.3679 92.5881 13.7222 92.7472 14.335 92.8772C14.9531 93.0084 15.6388 93.0733 16.4678 93.1507C17.2109 93.22 18.1779 93.3067 19.0283 93.5247C20.9875 94.0269 22.4225 95.2027 23.5059 96.4788C24.5687 97.7307 25.4117 99.2225 26.1338 100.556C27.9013 103.82 29.0154 107.542 29.96 111.208C30.3869 112.866 30.688 114.616 30.9942 116.31C31.3062 118.036 31.6325 119.759 32.1201 121.524C32.5903 123.225 33.0827 124.722 33.5567 125.91C33.9988 127.019 34.3734 127.726 34.625 128.087C34.6627 128.105 34.7182 128.129 34.7959 128.158C35.1082 128.271 35.5892 128.389 36.2803 128.499C37.673 128.721 39.4807 128.849 41.6514 129.011C43.4109 129.143 44.723 130.07 45.6338 131.114C46.5236 132.133 47.1568 133.396 47.627 134.597C48.5632 136.988 49.0888 139.788 49.4365 141.412C49.7683 142.962 50.2556 144.854 50.8633 146.84C50.8752 146.735 50.8893 146.628 50.9014 146.519C51.0838 144.861 51.2833 142.715 51.5567 140.902L51.6611 140.205L52.1543 139.683C53.4676 138.291 55.6971 137.147 61.4209 136.121C64.2529 135.614 66.7556 135.129 70.1367 134.807C70.2401 134.075 70.4063 133.243 70.5899 132.396C70.8561 131.166 71.2154 129.653 71.5449 128.177C72.23 125.109 72.8669 121.863 72.9463 119.199C73.122 113.302 73.5003 111.028 74.6797 108.873C75.6094 107.175 76.5769 105.083 77.6865 103.395C79.298 100.943 81.6745 96.6311 86.7598 94.6946C88.9001 93.8796 91.0557 93.3032 92.6006 92.8294C93.4111 92.5807 94.0513 92.3627 94.5527 92.1448C95.0695 91.9202 95.2898 91.7574 95.3633 91.6868C95.5422 91.5146 95.7135 91.2664 95.9111 90.5979C96.1429 89.814 96.2845 88.9582 96.6348 87.427C97.2739 84.6329 97.2382 82.0402 97.5664 79.1194C97.851 76.5871 98.4621 73.3765 101.308 71.6428L101.443 71.5647C102.125 71.1896 102.892 71.0463 103.288 70.9719C103.885 70.8598 104.237 70.8129 104.664 70.7063C105.447 70.5108 105.428 70.3539 105.438 70.3225C105.962 68.8189 106.23 67.0861 106.472 65.2962C106.691 63.6681 106.91 61.7206 107.426 60.3274C107.722 59.5259 108.03 58.1973 108.171 56.76C108.314 55.2965 108.258 53.982 108.011 53.1262C107.864 52.6174 107.755 52.0695 107.665 51.6223C107.568 51.1405 107.483 50.7251 107.373 50.3294C107.181 49.6366 106.966 49.2185 106.726 48.9534C106.698 48.9512 106.666 48.9466 106.63 48.9446C104.91 48.8506 103.323 48.7087 101.981 48.3401C100.564 47.9503 99.2757 47.2695 98.3213 46.0286C98.0287 45.6481 97.9053 45.2614 97.8535 45.0833C97.7895 44.863 97.7505 44.6456 97.7236 44.4632C97.6698 44.0967 97.6394 43.676 97.6211 43.2552C97.5842 42.4065 97.5833 41.3138 97.585 40.1575C97.5884 37.7849 97.6024 35.0355 97.3994 32.7307C97.3335 31.9817 97.4367 30.8306 97.5176 29.8372C97.6083 28.7225 97.7079 27.4792 97.7266 26.2298C97.7454 24.9704 97.6784 23.8053 97.4736 22.8509C97.266 21.8833 96.9703 21.391 96.7451 21.1741C96.7184 21.1597 96.6195 21.1092 96.3906 21.0403C95.9841 20.9179 95.6391 20.86 94.9522 20.6975C93.9288 20.4554 91.7702 19.9247 90.791 17.847C90.0532 16.2813 89.4336 14.6864 88.8721 13.26C88.5797 12.5174 87.9927 11.7341 86.9785 10.6497C86.8414 10.5728 86.7012 10.4889 86.5723 10.4055C85.8373 9.92995 85.1961 9.39673 84.6328 8.82351Z" fill="black"/>
</g>
<defs>
<filter id="filter0_d_369_260" x="0" y="0" width="117.06" height="166.489" filterUnits="userSpaceOnUse" color-interpolation-filters="sRGB">
<feFlood flood-opacity="0" result="BackgroundImageFix"/>
<feColorMatrix in="SourceAlpha" type="matrix" values="0 0 0 0 0 0 0 0 0 0 0 0 0 0 0 0 0 0 127 0" result="hardAlpha"/>
<feOffset dy="4"/>
<feGaussianBlur stdDeviation="2"/>
<feComposite in2="hardAlpha" operator="out"/>
<feColorMatrix type="matrix" values="0 0 0 0 0 0 0 0 0 0 0 0 0 0 0 0 0 0 0.25 0"/>
<feBlend mode="normal" in2="BackgroundImageFix" result="effect1_dropShadow_369_260"/>
<feBlend mode="normal" in="SourceGraphic" in2="effect1_dropShadow_369_260" result="shape"/>
</filter>
</defs>
</svg>
