<svg width="216" height="128" viewBox="0 0 216 128" fill="none" xmlns="http://www.w3.org/2000/svg">
<g filter="url(#filter0_d_369_346)">
<path fill-rule="evenodd" clip-rule="evenodd" d="M134.806 0.00292983C134.852 0.00437385 134.899 0.00574787 134.945 0.00976576C134.989 0.0136298 135.034 0.0201881 135.078 0.0263673C135.11 0.0310167 135.143 0.0350331 135.176 0.0410158C135.223 0.0495296 135.269 0.0611827 135.315 0.0722658C135.345 0.079518 135.375 0.0853544 135.405 0.0937501C135.458 0.108788 135.51 0.127079 135.562 0.145508C135.583 0.153044 135.604 0.159829 135.625 0.167969C135.679 0.188753 135.731 0.21299 135.783 0.237305C135.802 0.246542 135.823 0.253877 135.842 0.263672C135.896 0.29066 135.947 0.3209 135.998 0.351563C136.013 0.360351 136.029 0.367825 136.043 0.376953C136.049 0.380607 136.055 0.384044 136.061 0.387695C136.067 0.391497 136.073 0.395563 136.079 0.399414C139.075 2.28336 141.031 3.81205 142.329 5.28125C143.709 6.84439 144.263 8.24863 144.633 9.66309C145.212 11.8726 145.536 13.8631 145.743 15.3896C145.845 16.1459 145.92 16.8079 145.979 17.2891C146.009 17.5367 146.035 17.7287 146.057 17.8779C146.058 17.8865 146.06 17.8954 146.061 17.9033C146.077 17.9118 146.095 17.9228 146.117 17.9326C146.273 18.0049 146.496 18.0845 146.813 18.1729C147.133 18.262 147.474 18.3411 147.89 18.4385C149.528 18.8222 150.683 19.9659 151.426 20.9199C152.209 21.9246 152.818 23.0858 153.266 24.0547C153.603 24.7841 154.326 25.5146 155.736 26.4062C156.906 27.1465 158.215 28.2043 159.618 29.2676C161.084 30.3787 162.87 31.6719 165.242 33.1016C166.458 33.8347 167.353 34.8904 168.031 35.9238C168.714 36.9658 169.263 38.1211 169.723 39.1865C169.986 39.7964 170.358 40.45 170.818 41.208C171.251 41.9221 171.797 42.7837 172.264 43.6221C172.934 44.825 173.364 46.102 173.691 47.1191C174.056 48.2556 174.258 48.9271 174.496 49.3809C174.713 49.7947 174.976 50.1946 175.346 50.7588C175.702 51.3005 176.128 51.9531 176.554 52.7441C176.596 52.8212 176.628 52.8665 176.648 52.8896C177.387 53.026 177.997 52.9959 178.71 52.8857C179.105 52.8248 179.478 52.7489 179.982 52.6543C180.46 52.5645 181.01 52.4676 181.62 52.3994C182.815 52.2657 183.892 52.2752 184.783 52.3691C185.491 52.444 186.259 52.5896 186.894 52.8633L187.158 52.9883L187.414 53.1357C187.998 53.4951 188.48 53.9708 188.855 54.3789C189.309 54.8732 189.789 55.4747 190.278 56.0977C191.282 57.3763 192.476 58.9393 194.103 60.7188C195.596 62.3517 196.778 64.1183 197.689 65.6123C198.145 66.3599 198.545 67.0589 198.875 67.6328C199.221 68.2331 199.466 68.6499 199.655 68.9307C199.934 69.3462 200.333 69.7607 200.886 70.252C201.308 70.6267 202.193 71.355 202.745 71.8682C203.99 73.0276 205.021 74.5572 205.343 76.501C205.41 76.902 205.586 77.3959 205.868 78.0146C206.005 78.317 206.152 78.6146 206.309 78.9365C206.445 79.2151 206.594 79.523 206.728 79.8242C207.071 80.4616 207.367 81.183 207.579 81.9512C209.196 81.8983 210.704 82.9004 211.169 84.46C211.665 86.1243 210.803 87.8529 209.214 88.5557C209.171 88.5918 209.116 88.6379 209.042 88.7012C208.927 88.801 208.756 88.9499 208.577 89.0986L208.566 89.1074C206.925 90.454 206.055 91.4805 205.396 92.4824C205.149 93.3357 204.801 94.3675 204.443 95.418C203.985 96.7611 203.472 98.2435 202.981 99.7871C201.965 102.982 201.207 105.961 201.184 107.948C201.161 109.86 199.527 111.393 197.535 111.371C197.365 111.369 197.198 111.355 197.035 111.331C197.244 111.576 197.443 111.835 197.644 112.111C198.405 113.156 198.139 114.596 197.05 115.326C195.961 116.056 194.462 115.8 193.701 114.755C193.318 114.229 193.142 114.057 193.018 113.957C192.884 113.849 192.691 113.73 192.098 113.441L192.075 113.43L192.052 113.419C189.092 111.902 187.084 110.605 185.572 109.555C184.172 108.583 183.448 108.017 182.768 107.608C179.789 107.108 176.26 106.871 173.122 106.986C171.483 107.047 170.002 107.201 168.793 107.444C167.536 107.697 166.777 108.007 166.414 108.253C165.33 108.99 163.829 108.744 163.061 107.703C162.293 106.663 162.55 105.222 163.634 104.485C164.261 104.06 164.994 103.728 165.772 103.464C163.098 102.376 161.481 101.608 160.047 100.574C156.786 98.2224 153.147 96.8485 150.124 95.7275C148.975 95.3014 147.879 95.0533 146.7 94.8057C145.566 94.5676 144.25 94.3117 142.961 93.8672C138.704 92.3989 133.123 89.7682 130.254 88.5947C129.092 88.1194 127.48 87.941 125.361 87.8984C123.444 87.86 120.87 87.9419 118.683 87.7988C116.55 87.6592 114.846 86.5534 113.689 85.7246C113.385 85.5073 113.091 85.2859 112.827 85.0889C112.555 84.8858 112.314 84.7078 112.083 84.5449C111.603 84.2063 111.291 84.0291 111.076 83.9453C110.104 83.5684 108.297 83.2847 106.183 83.166C104.129 83.0507 102.102 83.1066 100.848 83.2578C98.1103 83.5881 96.5416 84.5225 93.4691 86.2314C90.0428 88.1373 86.8085 91.0269 84.2094 93.623C79.9702 97.8576 78.1937 99.8524 75.7719 101.604C74.6085 102.445 73.1435 103.01 71.7895 103.437C70.4169 103.869 68.895 104.235 67.5873 104.57C63.7448 105.556 58.7848 105.913 55.0277 106.174C53.2839 106.295 51.8263 106.393 50.7436 106.514C50.794 107.021 50.8695 107.878 50.6205 108.694C50.0401 110.596 48.2443 111.448 47.3031 111.858C46.7953 112.08 46.1428 112.326 45.7455 112.486C45.2706 112.678 44.9291 112.835 44.6752 112.99C43.8874 113.47 43.0301 114.191 42.0932 115.019C41.3515 115.674 40.4684 116.482 39.6723 117.075C39.6694 117.08 39.6666 117.085 39.6635 117.09C39.6181 117.163 39.5302 117.309 39.4281 117.455C39.3213 117.608 39.1691 117.806 38.9652 118.008C38.1976 118.767 37.1525 119.055 36.8627 119.149C36.2844 119.337 35.6845 119.299 35.1625 119.089C34.0523 119.018 32.9911 118.458 32.35 117.487C31.6256 116.39 31.0302 115.918 28.5766 113.457C23.7509 108.618 23.2394 108.157 21.5795 107.59C20.4053 107.189 19.2492 106.919 17.9809 106.628C16.7908 106.355 15.3656 106.035 14.0482 105.538C12.9204 105.113 11.8302 104.921 10.2611 104.539C9.08742 104.253 6.89287 103.719 5.41055 102.171C4.85793 101.594 4.5834 100.987 4.45645 100.684C4.38934 100.523 4.33325 100.37 4.30411 100.291C4.26699 100.19 4.25651 100.16 4.24747 100.138C3.72382 98.8491 4.05947 97.4428 4.9877 96.5C4.21189 95.9468 3.8288 94.9752 4.10391 94.0283C4.75084 91.8021 6.53251 87.4095 7.74356 85.3145C8.59164 83.8474 9.74035 82.9506 10.7992 82.3076C11.3066 81.9995 11.8259 81.7316 12.2436 81.5127C12.688 81.2797 13.0395 81.0921 13.3559 80.8906C14.4923 80.1669 15.7445 79.5066 16.4691 79.0811C17.3024 78.5917 17.8011 78.2212 18.1566 77.8037C18.4386 77.4726 18.7079 77.1306 18.9975 76.7617C19.2779 76.4044 19.5871 76.0092 19.9057 75.6299C20.5425 74.8716 21.3329 74.0361 22.3822 73.3809C23.6439 72.5931 24.974 72.2957 25.9262 72.1318C26.168 72.0902 26.3981 72.0561 26.5971 72.0264C26.8052 71.9953 26.9672 71.9712 27.1176 71.9463C27.2158 71.93 27.2891 71.9141 27.3422 71.9033C27.3675 71.8631 27.4019 71.8056 27.4418 71.7256C27.6442 71.3196 27.8316 70.7389 28.1205 69.7881C28.6653 67.9952 29.4231 65.4179 31.2162 62.7139C32.0775 61.4151 32.6759 60.2742 33.2416 59.1494C33.7956 58.0478 34.3661 56.8581 35.1029 55.6631C35.4471 55.105 35.8221 54.6001 36.1674 54.1465C36.5283 53.6722 36.8468 53.2669 37.1801 52.7979C37.8118 51.9088 38.4491 50.8547 39.0092 49.3115C40.0613 46.4128 41.9969 44.5939 44.9106 42.7451C46.9488 41.4519 49.5024 41.1406 51.4711 41.04C52.4937 40.9878 53.4883 40.9892 54.2953 40.9863C55.162 40.9832 55.7336 40.9731 56.1117 40.9277C58.1095 40.6881 59.4678 40.1887 61.7787 39.0137C63.5007 38.1379 65.114 36.3329 67.1029 34.0732C68.0331 33.0165 69.0407 31.8759 70.0932 30.8955C71.1406 29.9199 72.3669 28.9722 73.7914 28.3984C76.3795 27.3559 78.3524 27.1072 79.893 26.9873C81.5688 26.8569 81.9947 26.8583 82.4711 26.627C82.7328 26.4997 83.0373 26.2189 83.4604 25.4863C83.6709 25.1217 83.8619 24.736 84.1059 24.2539C84.3343 23.8025 84.6087 23.2685 84.934 22.7549C85.6671 21.5974 86.4249 20.5416 87.0883 19.6143C87.7699 18.6615 88.3303 17.8732 88.765 17.1475C90.5153 14.226 92.2614 12.0673 93.4047 10.4756C94.6234 8.77895 97.4058 5.31376 100.26 3.28516C101.598 2.33433 103.169 1.84709 104.702 1.58105C106.236 1.31466 107.886 1.24492 109.481 1.22949C112.838 1.19703 115.874 1.37826 118.635 0.953125L118.723 0.939453L118.811 0.931641C120.341 0.805438 121.482 0.649314 122.628 0.493164C123.78 0.336364 124.949 0.179095 126.439 0.0742189L126.483 0.0703126L126.529 0.0683595C128.536 -0.000554412 131.622 1.18148e-07 134.726 1.40138e-07C134.753 1.40138e-07 134.78 0.00209837 134.806 0.00292983ZM133.997 4.61816C131.154 4.61858 128.507 4.62218 126.753 4.68066C125.458 4.77307 124.438 4.90999 123.304 5.06445C122.17 5.21892 120.931 5.38914 119.289 5.52637C116.08 6.0038 112.371 5.81921 109.53 5.84668C108.01 5.86138 106.685 5.92936 105.558 6.125C104.429 6.321 103.651 6.62032 103.123 6.99512C100.931 8.55343 98.5148 11.4963 97.3666 13.0947C96.0468 14.9321 94.5561 16.7448 92.9359 19.4492C92.3874 20.3649 91.711 21.3106 91.0551 22.2275C90.3807 23.1702 89.6991 24.1217 89.0463 25.1523C88.8507 25.4611 88.6627 25.8195 88.434 26.2715C88.2208 26.6929 87.9594 27.2223 87.6693 27.7246C87.0911 28.726 86.2 29.9899 84.643 30.7461C83.092 31.4992 81.3773 31.5046 80.2816 31.5898C79.0507 31.6856 77.6194 31.8635 75.6537 32.6553C75.0259 32.9082 74.3034 33.4082 73.4447 34.208C72.5913 35.003 71.7341 35.9673 70.7787 37.0527C68.9965 39.0775 66.7536 41.7095 64.0316 43.0938C61.4456 44.4087 59.505 45.1733 56.7084 45.5088C55.9847 45.5956 55.1008 45.6007 54.3129 45.6035C53.4649 45.6066 52.6038 45.6055 51.726 45.6504C49.894 45.7441 48.4626 46.0261 47.5648 46.5957C45.0931 48.164 44.1177 49.2717 43.5522 50.8301C42.8256 52.832 41.9734 54.2476 41.1557 55.3984C40.7643 55.9493 40.3668 56.4571 40.0531 56.8691C39.7239 57.3017 39.4642 57.6574 39.2445 58.0137C38.6396 58.9947 38.1819 59.9507 37.5756 61.1562C36.981 62.3386 36.2869 63.6676 35.2758 65.1924C33.891 67.2806 33.2884 69.2742 32.7397 71.0801C32.4818 71.9285 32.1884 72.905 31.7826 73.7188C31.3619 74.5625 30.6628 75.564 29.391 76.1084C28.8626 76.3345 28.297 76.4365 27.9379 76.4961C27.7369 76.5294 27.5224 76.5611 27.3363 76.5889C27.1411 76.618 26.958 76.6452 26.7748 76.6768C26.0258 76.8056 25.4555 76.9705 25.0063 77.251C24.5835 77.515 24.1681 77.9125 23.6518 78.5273C23.3938 78.8346 23.1379 79.161 22.8412 79.5391C22.5534 79.9058 22.2326 80.3153 21.8832 80.7256C21.0073 81.7542 19.9505 82.45 18.9809 83.0195C17.9027 83.6527 17.1039 84.0445 16.016 84.7373C15.5055 85.0624 14.9845 85.3368 14.5502 85.5645C14.0889 85.8062 13.7203 85.9972 13.3715 86.209C12.7183 86.6057 12.2759 86.9936 11.9516 87.5547C10.9568 89.2756 9.30497 93.3198 8.73868 95.2686C8.70941 95.3693 8.67008 95.465 8.62832 95.5586C9.62389 95.841 10.4825 96.5312 10.9213 97.5098C11.1771 97.6014 11.5314 97.7032 12.0365 97.8262C13.087 98.0818 14.9966 98.4544 16.6889 99.0928C17.4466 99.3786 18.3501 99.5917 19.6606 99.8926C20.893 100.176 22.4105 100.522 24.0014 101.065C27.6389 102.309 29.4331 104.3 33.7904 108.67C35.3795 110.263 36.5932 111.366 37.6391 112.675C37.9833 112.375 38.3773 112.025 38.8334 111.622C39.7589 110.804 40.902 109.821 42.0961 109.093C42.7004 108.725 43.3429 108.447 43.8754 108.231C44.4856 107.985 44.8656 107.849 45.3129 107.654C45.6756 107.496 45.876 107.38 45.9799 107.312C45.9762 107.219 45.9696 107.097 45.9535 106.937C45.9149 106.549 45.8068 105.755 45.7641 105.042C45.6961 103.908 46.401 103.187 46.8168 102.879C47.2165 102.583 47.6406 102.427 47.9018 102.344C48.4566 102.167 49.1254 102.059 49.7504 101.979C51.0398 101.816 52.8125 101.698 54.6801 101.568C58.5507 101.299 63.0276 100.962 66.3451 100.11C67.7636 99.7463 69.0829 99.4283 70.2885 99.0488C71.5126 98.6635 72.3638 98.2883 72.8773 97.917C74.8923 96.46 76.233 94.9265 80.7397 90.4248C83.4261 87.7413 87.0353 84.4732 91.057 82.2363C93.9775 80.6119 96.3808 79.1432 100.247 78.6768C101.868 78.4813 104.2 78.4296 106.463 78.5566C108.666 78.6803 111.137 78.9888 112.878 79.6641C113.667 79.9698 114.37 80.4264 114.934 80.8242C115.225 81.0297 115.515 81.246 115.782 81.4453C116.057 81.6506 116.31 81.8405 116.567 82.0244C117.651 82.8008 118.379 83.151 119.01 83.1924C121.101 83.3291 123.082 83.2345 125.46 83.2822C127.636 83.3259 130.06 83.497 132.14 84.3477C135.47 85.7098 140.461 88.0987 144.589 89.5225C145.516 89.8421 146.475 90.0316 147.729 90.2949C148.937 90.5487 150.342 90.8582 151.859 91.4209C154.851 92.5305 159.078 94.1005 162.938 96.8838C164.55 98.0458 166.423 98.7381 173.329 101.46C173.801 101.646 174.178 101.96 174.435 102.342C177.662 102.323 181.104 102.61 184.06 103.14L184.447 103.209L184.79 103.394C185.908 103.992 187.13 104.938 188.392 105.814C189.757 106.762 191.569 107.934 194.284 109.327C194.075 108.882 193.961 108.389 193.967 107.869C194.004 104.768 195.077 100.914 196.079 97.7656C196.596 96.1375 197.139 94.5695 197.584 93.2637C198.049 91.902 198.377 90.9128 198.538 90.2812L198.665 89.7871L198.934 89.3496C199.966 87.6701 201.239 86.0881 203.366 84.2705C203.124 83.8462 203.024 83.4827 202.972 83.291L202.967 83.2725L202.963 83.2559C202.836 82.7544 202.643 82.2816 202.426 81.8896L202.374 81.7969L202.332 81.7002C202.234 81.4737 202.11 81.2178 201.954 80.8984C201.804 80.5932 201.627 80.2342 201.458 79.8633C201.127 79.1356 200.755 78.2141 200.591 77.2275C200.467 76.4797 200.071 75.8115 199.394 75.1816C198.797 74.626 198.406 74.3399 197.618 73.6396C196.96 73.0558 196.215 72.3333 195.611 71.4346C195.315 70.9953 194.988 70.4282 194.664 69.8662C194.325 69.2771 193.956 68.6331 193.536 67.9443C192.695 66.5655 191.691 65.0813 190.487 63.7637C188.717 61.8285 187.407 60.1143 186.435 58.877C185.936 58.2423 185.56 57.775 185.245 57.4316C185.048 57.2172 184.926 57.1085 184.87 57.0615C184.859 57.0587 184.846 57.0551 184.832 57.0518C184.708 57.0214 184.516 56.9854 184.257 56.958C183.739 56.9034 183.027 56.8904 182.177 56.9854C181.754 57.0327 181.348 57.1025 180.906 57.1855C180.489 57.2638 179.976 57.367 179.475 57.4443C178.401 57.6102 177.187 57.6945 175.716 57.4199C174.165 57.1302 172.996 56.1948 172.279 54.8633C171.956 54.2632 171.627 53.756 171.275 53.2197C170.937 52.7055 170.54 52.1074 170.199 51.457C169.727 50.558 169.376 49.3646 169.092 48.4795C168.77 47.4749 168.453 46.5729 168.021 45.7969C167.609 45.0572 167.163 44.361 166.66 43.5312C166.183 42.7453 165.672 41.8674 165.278 40.9541C164.852 39.9693 164.426 39.0957 163.958 38.3828C163.485 37.6615 163.055 37.2349 162.683 37.0107C160.116 35.4633 158.182 34.0628 156.635 32.8906C155.026 31.6708 154.028 30.8558 153.087 30.2607C151.412 29.2012 149.764 27.8664 148.868 25.9258C148.48 25.0867 148.042 24.2857 147.574 23.6846C147.343 23.3887 147.14 23.1871 146.976 23.0605C146.835 22.952 146.759 22.927 146.749 22.9238C146.042 22.7581 144.955 22.5208 144.028 22.0918C143.03 21.6302 141.838 20.774 141.423 19.2002C141.321 18.8114 141.254 18.267 141.201 17.8252C141.137 17.3054 141.068 16.7016 140.971 15.9834C140.779 14.5599 140.484 12.7619 139.967 10.7891C139.721 9.84851 139.436 9.14681 138.659 8.2666C137.864 7.36657 136.5 6.22848 133.997 4.61816Z" fill="black"/>
</g>
<defs>
<filter id="filter0_d_369_346" x="0" y="0" width="215.309" height="127.271" filterUnits="userSpaceOnUse" color-interpolation-filters="sRGB">
<feFlood flood-opacity="0" result="BackgroundImageFix"/>
<feColorMatrix in="SourceAlpha" type="matrix" values="0 0 0 0 0 0 0 0 0 0 0 0 0 0 0 0 0 0 127 0" result="hardAlpha"/>
<feOffset dy="4"/>
<feGaussianBlur stdDeviation="2"/>
<feComposite in2="hardAlpha" operator="out"/>
<feColorMatrix type="matrix" values="0 0 0 0 0 0 0 0 0 0 0 0 0 0 0 0 0 0 0.25 0"/>
<feBlend mode="normal" in2="BackgroundImageFix" result="effect1_dropShadow_369_346"/>
<feBlend mode="normal" in="SourceGraphic" in2="effect1_dropShadow_369_346" result="shape"/>
</filter>
</defs>
</svg>
