<svg width="97" height="108" viewBox="0 0 97 108" fill="none" xmlns="http://www.w3.org/2000/svg">
<g filter="url(#filter0_d_369_242)">
<path fill-rule="evenodd" clip-rule="evenodd" d="M28.4626 0.271546C31.0579 -0.183409 34.5247 -0.336143 38.1706 2.04596C39.2736 2.76659 40.1486 3.35262 41.0036 3.73932C41.3004 3.8735 41.5072 3.94157 41.6335 3.97369C42.6721 3.63515 43.9034 3.32115 45.1716 3.28326C46.523 3.24301 48.2897 3.51329 49.822 4.75983L50.1247 5.02252L50.488 5.37116C52.2947 7.17662 53.9537 9.87914 54.8757 12.0255C55.6332 13.7888 57.1852 16.5957 57.8357 17.6143C58.3352 18.3966 59.6217 20.2381 60.3737 21.5255C60.4768 21.7019 60.5737 21.8767 60.6491 22.0137C60.7324 22.165 60.7925 22.2751 60.8571 22.3897C60.8702 22.4128 60.8833 22.4344 60.8952 22.4551C61.7577 22.7669 62.4754 23.1702 62.8445 23.3712C63.5556 23.7584 63.772 23.8676 63.9284 23.919C64.3476 24.0568 64.8851 24.1645 65.7605 24.3155C66.5186 24.4462 67.6467 24.6263 68.7195 24.9297C69.8707 25.2555 70.8398 25.8227 71.407 26.1622C72.135 26.598 72.42 26.7921 72.8239 26.9962C72.7506 26.9591 72.7414 26.9674 73.0847 27.0753C73.3314 27.1528 73.9287 27.3308 74.529 27.5928C75.9071 28.1945 77.3014 29.217 78.3347 31.0098L78.5368 31.379L78.6472 31.6055C78.9002 32.1558 79.1062 32.8522 79.115 33.6671C79.1245 34.5675 78.8882 35.2789 78.7077 35.71C78.5485 36.0902 78.3574 36.4174 78.3064 36.5069C78.22 36.6584 78.1904 36.7083 78.1511 36.7833C77.7142 37.6167 77.5783 38.4085 77.5144 39.3751C77.4973 39.6336 77.453 40.6849 77.4079 41.1758C77.3513 41.7917 77.213 42.9946 76.5573 44.1758C76.3487 44.5517 76.1655 44.9132 76.0193 45.2422C76.3993 45.5706 76.8069 45.9373 77.196 46.3223C77.8296 46.9495 78.7511 47.9429 79.3611 49.1993L79.4782 49.4542L79.5945 49.7051C79.7244 49.9738 79.8981 50.3005 80.1335 50.7325C80.4172 51.253 80.8014 51.946 81.1472 52.6485C81.5931 53.5544 81.8269 54.5823 81.9675 55.3399C82.1266 56.1972 82.2441 57.1619 82.3249 58.1553C82.4865 60.1408 82.52 62.4679 82.3718 64.6788C82.2851 65.9722 82.1778 68.4559 82.1267 70.3116C82.5758 71.0734 83.0818 71.9502 83.4148 72.6505C83.8562 73.5791 84.1347 74.5185 84.3298 75.2325C84.5675 76.102 84.6551 76.5081 84.8435 77.1378C84.8964 77.3145 84.9549 77.5167 84.9997 77.668C85.0488 77.8338 85.0926 77.98 85.1355 78.1163C85.1822 78.2651 85.2232 78.3858 85.2585 78.4844C86.4772 79.2708 89.0469 81.1253 90.2331 84.1983C90.3779 84.5733 90.5676 85.0001 90.8152 85.5518C91.0426 86.0587 91.3298 86.6955 91.5759 87.3155C91.8145 87.9166 92.1011 88.7131 92.2595 89.5616C92.3999 90.3139 92.5788 91.7915 91.8757 93.3282C91.8738 93.3326 91.8662 93.3478 91.8542 93.377C91.8375 93.418 91.8166 93.4726 91.7878 93.5469C91.7467 93.6531 91.6403 93.9317 91.5632 94.128C91.3864 94.578 91.1159 95.2376 90.739 95.9092C90.0851 97.0743 88.3662 99.5739 85.0085 99.7081C83.436 99.7708 81.887 99.821 80.6609 99.7901C80.061 99.775 79.3771 99.7379 78.739 99.6329C78.4226 99.5808 77.9812 99.4912 77.5085 99.3184C77.1185 99.1758 76.2132 98.8046 75.4362 97.921C75.3925 97.8712 75.3508 97.8224 75.3112 97.7764C75.1533 97.7561 74.9589 97.7309 74.7546 97.6993C73.8312 97.5562 72.2757 97.2396 70.778 96.1182C69.8483 95.422 69.2364 94.5792 68.8718 94.0235C68.5266 93.4972 68.1954 92.8929 68.0124 92.5674C67.8109 92.527 67.5845 92.4726 67.3464 92.3946C66.7518 92.1998 66.2709 91.9371 65.9362 91.7315C65.5958 91.5224 65.2987 91.3046 65.0808 91.1387C64.8725 90.9802 64.6405 90.7949 64.5007 90.6846C64.3612 90.5746 64.2525 90.4925 64.1579 90.4229C62.1266 90.6352 59.8512 90.2391 57.8161 88.6827C57.7936 88.6702 57.7369 88.6399 57.6345 88.5919C57.3717 88.4687 57.1383 88.3768 56.6423 88.1661C55.9315 87.8641 54.3178 87.1967 53.0642 85.8829C53.0771 85.8964 53.0327 85.8471 52.8611 85.7383C52.6798 85.6236 52.432 85.4889 52.0446 85.2989C51.4163 84.9906 50.0675 84.3917 48.904 83.6251C47.8585 82.9362 47.0788 82.6542 46.1648 82.2872C45.8189 82.1483 44.9287 81.8055 44.1423 81.2169C43.0912 80.43 42.1639 79.1834 41.9529 77.4717C41.9491 77.4525 41.9163 77.3042 41.7107 76.6797C41.4961 76.0283 41.1728 75.0726 40.8112 73.7413C40.3156 71.9164 39.355 68.8031 38.987 66.1299C38.8901 65.4261 38.7471 64.7685 38.5769 64.2403C38.5322 64.1017 38.4894 63.9864 38.4519 63.8917C37.6787 63.713 37.0194 63.6037 36.2478 63.4698C35.2961 63.3047 34.1786 63.1002 32.8542 62.6612C31.1138 62.0843 29.0905 61.0064 28.4753 60.7227C27.4083 60.2308 26.0815 59.7126 24.7751 59.2042C23.7062 58.7882 22.1894 58.2124 21.3493 57.7403C21.3489 57.7401 21.3404 57.7349 21.322 57.7256C21.3012 57.7152 21.2713 57.7009 21.2302 57.6817C21.142 57.6406 21.036 57.5936 20.8786 57.5255C20.6048 57.4069 20.1241 57.2041 19.6452 56.96C18.6796 56.4679 17.2109 55.5679 16.1755 53.8633C16.1942 53.8922 16.1219 53.7959 15.6999 53.3956C15.3117 53.0273 14.4527 52.2441 13.7536 51.209C13.5265 50.8727 13.2611 50.4395 13.113 50.2042C12.9271 49.9089 12.7761 49.6799 12.6306 49.4835C12.4301 49.2129 12.3144 49.1087 12.2878 49.085C11.3875 48.6252 10.7285 48.3023 10.1882 48.0782C9.72802 47.8873 9.51887 47.8396 9.48019 47.8311C9.4422 47.8343 7.35577 47.7717 5.80832 46.0079C4.50336 44.5202 4.24335 42.6298 4.1843 41.2364C4.04064 37.8467 3.98973 34.9431 4.00168 32.7921C4.00763 31.7217 4.02936 30.8042 4.06613 30.0909C4.08431 29.7384 4.10759 29.3912 4.14133 29.0801C4.15771 28.929 4.21957 28.286 4.4509 27.6436L4.53488 27.3907C4.5638 27.2963 4.5947 27.1892 4.62961 27.0635C4.68391 26.8679 4.79233 26.4591 4.8923 26.128C5.11446 25.3925 5.51404 24.2403 6.41476 23.1309L6.77609 22.671C7.64608 21.5271 8.713 19.9037 9.95383 18.0655C11.1758 16.2552 12.7791 13.9007 14.2087 12.5596C14.8962 11.9146 15.5909 10.9557 16.2409 9.83112C16.4756 9.42496 16.5131 9.18747 17.0749 7.87897C17.4882 6.91646 18.2269 5.33261 19.6491 4.04694L19.8093 3.90729C20.6141 3.23313 21.4382 2.9255 21.9948 2.76862C22.27 2.69111 22.5158 2.64187 22.6384 2.61725C22.8067 2.58344 22.8127 2.58253 22.8445 2.57526C23.2342 2.48579 23.7252 2.2671 24.5427 1.82233C24.8677 1.64547 25.4011 1.34586 25.8542 1.12018C26.2904 0.902975 27.0566 0.541574 27.9558 0.365296L28.4626 0.271546ZM31.7263 9.01666C31.257 8.97114 30.6987 9.01341 29.9021 9.15924C29.8911 9.16459 29.8786 9.17053 29.8659 9.17682C29.6072 9.30571 29.3589 9.44814 28.8435 9.72858C28.0833 10.1421 26.8843 10.7794 25.4529 11.1915C25.4204 11.2616 25.3828 11.3405 25.3445 11.4297C25.1561 11.8685 25.0978 12.0426 24.8464 12.6475C24.6542 13.1101 24.3871 13.7223 24.0329 14.335C23.1685 15.8306 21.9595 17.6292 20.3659 19.1241C19.8389 19.6184 18.845 20.9804 17.4138 23.1006C16.2247 24.8621 14.7685 27.0811 13.5407 28.6251C13.5316 28.6523 13.5204 28.6871 13.5075 28.7296C13.4455 28.9351 13.4084 29.0866 13.3015 29.4717C13.2418 29.6866 13.1673 29.9428 13.0769 30.2247C13.0707 30.3085 13.0605 30.4172 13.0534 30.5538C13.0264 31.0782 13.0072 31.846 13.0017 32.8419C12.9921 34.5582 13.0284 36.8557 13.1277 39.5655C14.3548 40.0255 15.5021 40.6203 16.4304 41.0948C18.0881 41.9422 19.186 43.2136 19.862 44.126C20.2135 44.6004 20.5081 45.0579 20.7292 45.4092C20.9882 45.8207 21.0923 45.9953 21.2116 46.1719C21.2627 46.2474 21.3602 46.3606 21.8943 46.8672C22.252 47.2067 23.0457 47.9333 23.695 48.919C23.7067 48.9252 23.7185 48.9335 23.7321 48.9405C23.9046 49.0284 24.092 49.1095 24.4548 49.2667C24.7485 49.3939 25.2599 49.6144 25.7585 49.8946C25.7866 49.9071 25.9639 49.9907 26.3894 50.1651C26.8374 50.3487 27.3882 50.5629 28.0398 50.8165C29.287 51.3019 30.8807 51.9219 32.2429 52.5499C33.7705 53.2541 34.5661 53.747 35.6862 54.1182C36.3489 54.3378 36.9231 54.4519 37.7859 54.6016C38.6506 54.7517 39.8096 54.9372 41.2614 55.3126C42.9047 55.7375 44.1673 56.5663 45.1413 57.7012L45.3327 57.9327L45.4861 58.1309C47.0384 60.2081 47.6452 63.0375 47.9021 64.9034C48.1661 66.8211 48.8579 69.0305 49.4968 71.3829C49.7861 72.448 50.0344 73.1819 50.2595 73.8653C50.3019 73.994 50.3483 74.1361 50.3972 74.2891C51.2696 74.6504 52.4881 75.2081 53.8562 76.1094C54.3926 76.4629 54.8998 76.6749 56.0085 77.2188C56.8827 77.6477 58.2741 78.3557 59.4626 79.5557C59.4671 79.5583 59.4721 79.5616 59.4773 79.5645C59.604 79.636 59.7994 79.7293 60.1609 79.8829C60.4437 80.003 60.9928 80.2258 61.4548 80.4424C61.9206 80.6608 62.5664 80.9925 63.2029 81.4747C63.2256 81.4726 63.2552 81.4721 63.2907 81.4659L63.5593 81.4239C66.3153 81.0494 68.385 82.3753 69.3601 83.0762C69.6121 83.2575 69.9977 83.5577 70.2575 83.7618C70.3372 83.77 70.4218 83.7772 70.5075 83.7891C70.7844 83.8277 71.2732 83.9117 71.8298 84.1309L72.072 84.2335L72.3054 84.3448C73.4461 84.9199 74.2122 85.7414 74.6872 86.3458C75.1928 86.9892 75.5826 87.6701 75.8249 88.0987C76.0142 88.4336 76.1352 88.6488 76.2341 88.8184C76.3125 88.8295 76.4017 88.8432 76.5134 88.8575C76.6584 88.876 76.8695 88.9019 77.0759 88.9317C77.4321 88.9831 77.9547 89.0687 78.53 89.2403L78.78 89.3194L79.0251 89.4073C80.0147 89.7922 80.7209 90.3943 81.1316 90.795C81.6972 90.8022 82.3935 90.7913 83.2126 90.7657C83.2209 90.7444 83.2294 90.7239 83.237 90.7042C83.2285 90.6822 83.22 90.6584 83.2107 90.6348C83.0532 90.2382 82.8565 89.8008 82.6032 89.2364C82.3701 88.7168 82.0818 88.0736 81.8366 87.4385C81.7804 87.2933 81.6226 87.0358 81.2273 86.6856C80.8207 86.3255 80.4022 86.0642 79.8611 85.7178C78.2316 84.6749 77.4463 83.1306 77.0593 82.2208C76.666 81.2961 76.3747 80.2312 76.2214 79.7188C76.0071 79.0029 75.7678 78.0423 75.6482 77.6046C75.4859 77.0109 75.3747 76.6995 75.2868 76.5147C75.1236 76.1714 74.9402 75.8486 74.7234 75.4796C73.8456 74.7506 73.2492 73.6944 73.1218 72.4981L73.0984 72.4112C72.8004 71.3364 72.8424 70.3435 72.9323 69.6719L73.0056 69.2217C73.0316 69.0818 73.033 69.077 73.0495 68.9854C73.0676 68.885 73.0934 68.7334 73.1228 68.46C73.1402 68.2978 73.1661 68.1384 73.1999 67.9825C73.257 66.4969 73.3286 65.0119 73.3913 64.0762C73.5084 62.3304 73.4825 60.4491 73.3552 58.8848C73.2916 58.1037 73.207 57.4576 73.1189 56.9825C73.0692 56.7152 73.0292 56.5661 73.0134 56.5079C72.7872 56.0569 72.5374 55.6029 72.2302 55.0391C71.9441 54.5142 71.592 53.8589 71.2907 53.1885C71.2847 53.1805 71.2779 53.1703 71.2693 53.1592C71.1941 53.0629 71.0647 52.9165 70.865 52.7188C70.4513 52.3094 69.9434 51.8823 69.3562 51.3975C68.6792 50.8387 67.3418 49.637 66.8864 47.5753C66.4648 45.6655 66.9386 43.8836 67.3073 42.8145C67.6418 41.8451 68.0785 40.9472 68.4538 40.2422C68.4863 39.843 68.4732 39.7001 68.5339 38.7813C68.598 37.8119 68.7303 36.5803 69.1325 35.2012C69.0127 35.1482 68.8895 35.0916 68.7663 35.0294C67.9783 34.6313 67.143 34.0988 66.7839 33.8839C66.4151 33.663 66.2646 33.5941 66.2409 33.5821C65.7351 33.4414 65.1568 33.3443 64.2312 33.1846C63.4057 33.0423 62.25 32.841 61.1179 32.4688C60.0185 32.1074 59.0132 31.5327 58.5407 31.2755C58.241 31.1122 58.0675 31.021 57.9314 30.9581C57.8921 30.9399 57.8659 30.9294 57.8523 30.9239C55.7481 30.3968 54.4838 28.987 53.8288 28.0899C53.268 27.3217 52.639 26.127 52.6032 26.0655C51.9006 24.8626 51.2303 23.9922 50.2507 22.4581C49.3798 21.0942 47.5848 17.8564 46.6062 15.5782C46.1394 14.4915 45.3917 13.2823 44.7302 12.4337C44.5888 12.4747 44.4299 12.5256 44.2527 12.586C41.4623 13.5366 38.837 12.6371 37.2946 11.9395C35.6582 11.1994 34.1119 10.1448 33.2478 9.58014C32.6518 9.1908 32.1718 9.05996 31.7263 9.01666Z" fill="black"/>
</g>
<defs>
<filter id="filter0_d_369_242" x="0" y="0" width="96.3888" height="107.8" filterUnits="userSpaceOnUse" color-interpolation-filters="sRGB">
<feFlood flood-opacity="0" result="BackgroundImageFix"/>
<feColorMatrix in="SourceAlpha" type="matrix" values="0 0 0 0 0 0 0 0 0 0 0 0 0 0 0 0 0 0 127 0" result="hardAlpha"/>
<feOffset dy="4"/>
<feGaussianBlur stdDeviation="2"/>
<feComposite in2="hardAlpha" operator="out"/>
<feColorMatrix type="matrix" values="0 0 0 0 0 0 0 0 0 0 0 0 0 0 0 0 0 0 0.25 0"/>
<feBlend mode="normal" in2="BackgroundImageFix" result="effect1_dropShadow_369_242"/>
<feBlend mode="normal" in="SourceGraphic" in2="effect1_dropShadow_369_242" result="shape"/>
</filter>
</defs>
</svg>
