<svg width="183" height="139" viewBox="0 0 183 139" fill="none" xmlns="http://www.w3.org/2000/svg">
<g filter="url(#filter0_d_369_179)">
<path fill-rule="evenodd" clip-rule="evenodd" d="M20.2236 1.24204C20.8375 0.111487 22.2895 -0.327253 23.4677 0.261567C23.6914 0.373385 23.8892 0.514117 24.0586 0.676606C24.4589 0.653616 24.8701 0.694411 25.2773 0.807465C27.1915 1.33921 28.2941 3.25961 27.7402 5.09653C27.5527 5.71889 27.4018 7.08212 27.2343 9.4061L27.2226 9.57309L27.1933 9.73911C27.1579 9.94203 27.1154 10.1352 27.0683 10.3202C28.2796 10.4905 29.5809 10.9291 30.0634 11.0692C31.0607 11.3586 31.7802 11.9049 32.2295 12.3114C32.688 12.7263 33.0581 13.1749 33.3183 13.5077C33.5225 13.7688 33.8914 14.2681 33.999 14.409C34.1944 14.6648 34.2956 14.7786 34.3427 14.825C35.4466 15.9115 36.1922 16.4553 36.8076 16.8748C37.3735 17.2607 38.302 17.8307 39.209 18.6844C39.2539 18.7099 39.3169 18.7456 39.4375 18.8114C39.5755 18.8866 39.7583 18.9863 39.9746 19.1102C41.755 20.1306 43.411 21.0312 44.8213 21.4139C45.5066 21.5998 45.9496 21.66 46.6787 21.8075C46.9812 21.8687 47.4483 21.9681 47.9199 22.1405C48.3965 22.3147 49.1401 22.6548 49.7812 23.3456C49.8411 23.4101 49.8975 23.4753 49.9531 23.5379C50.2202 23.4963 50.5113 23.4493 50.8359 23.3954C51.3261 23.3138 51.9267 23.2153 52.4765 23.1571C52.9189 23.1103 53.2662 23.0675 53.542 23.0272C53.7108 22.6459 53.944 22.0866 54.2861 21.2411C54.9247 19.663 55.689 18.4934 56.541 17.5663C57.3428 16.6937 58.203 16.0834 58.5508 15.8133L58.7675 15.6551C59.344 15.258 60.4095 14.7139 61.8037 14.9364C63.3387 15.1816 64.1395 16.2084 64.2636 16.3602C64.7422 16.9452 65.0378 17.5112 65.2275 17.912C65.4966 18.4804 65.4344 18.3938 65.5478 18.6092C65.9318 19.3386 66.1219 20.1447 66.2539 20.7254C66.3715 21.243 66.6064 22.3793 66.8193 23.3338C67.1225 24.6933 67.3563 25.5334 68.3388 28.2635C68.8018 28.4601 69.4195 28.7367 70.1631 29.16C71.2874 29.8001 72.335 30.636 73.0468 31.1873C73.9043 31.8515 74.3275 32.1424 74.5966 32.2645C74.7765 32.346 75.0396 32.4249 75.5341 32.5155C75.8051 32.5651 76.0197 32.5977 76.3759 32.6581C76.689 32.7111 77.0752 32.7801 77.4765 32.8768C77.8784 32.9736 78.388 33.0373 80.2871 33.1053C81.7052 33.1561 83.1408 33.3316 84.3525 33.4842C84.377 33.4873 84.4015 33.4917 84.4258 33.495C84.7549 31.9532 86.1553 30.7749 87.8652 30.7313C89.8051 30.6821 91.427 32.1118 91.5595 33.952C91.5924 34.0721 91.6151 34.1288 91.7109 34.4364C91.7818 34.6641 91.9083 35.0807 91.9746 35.5545C92.0224 35.8965 92.0505 36.3598 91.9716 36.8885C92.3221 37.6351 93.1826 39.3977 93.5605 42.3758C93.7376 43.7716 94.1759 44.9962 94.8008 46.0135C95.3572 46.9194 95.7674 47.8883 96.0947 48.702C96.4503 49.586 96.6859 50.223 96.959 50.7713C97.6644 52.1879 98.1553 53.7493 98.6465 55.2879C98.7338 55.5614 99.026 56.0013 99.7695 56.5428C100.491 57.0684 101.453 57.554 102.52 57.9725C106.707 59.6141 107.819 59.983 110.1 60.2166C113.951 60.6111 119.266 59.8665 124.37 59.1942C127.495 58.7826 129.923 59.1775 131.789 59.8387C133.582 60.4743 134.876 61.3949 135.283 61.6356C136.535 62.3753 138.649 63.1874 140.053 63.6004C140.071 63.6029 140.095 63.6067 140.126 63.6102C140.263 63.6256 140.465 63.6433 140.738 63.662C141.282 63.6992 142.037 63.7354 142.986 63.7684C144.88 63.8342 147.483 63.8851 150.584 63.912C154.588 63.9467 156.43 65.2805 157.528 65.7342C158.439 66.1104 159.939 66.2404 161.782 66.1434C163.55 66.0503 165.286 65.7742 166.53 65.5799L166.671 65.5575L166.813 65.5516C167.528 65.5222 168.474 65.5085 169.375 65.495C170.095 65.4842 170.788 65.4701 171.367 65.4539C171.555 65.2223 171.764 64.9972 171.996 64.787L172.134 64.6678C173.587 63.4802 175.772 63.5835 177.097 64.9315C178.431 66.2896 178.398 68.4088 177.048 69.7293C177.041 69.7403 177.033 69.7542 177.023 69.7713C176.952 69.9007 176.854 70.1139 176.725 70.4579C176.594 70.8043 176.468 71.1811 176.305 71.6629C176.156 72.1004 175.98 72.6085 175.779 73.1268C175.393 74.1778 174.83 75.6824 174.554 76.8065C174.323 77.745 174.319 78.3447 174.319 79.2557C174.319 80.6409 173.471 81.8348 172.246 82.3885C171.076 83.9716 169.74 85.424 168.742 86.5086C168.187 87.1126 167.767 87.5711 167.456 87.9422C167.389 88.0228 167.336 88.0892 167.295 88.1414C167.253 88.512 167.204 89.2258 167.167 90.6151C167.13 92.0179 167.111 94.0273 167.092 96.1043C167.073 98.1594 167.055 100.278 167.017 101.841C166.956 104.342 166.75 105.92 166.559 107.092C166.463 107.672 166.401 108.027 166.36 108.275C166.481 108.366 166.625 108.471 166.804 108.596C167.055 108.772 167.476 109.059 167.827 109.333C169.372 110.54 169.606 112.721 168.349 114.204C167.485 115.222 166.144 115.646 164.888 115.423C164.655 115.603 164.43 115.778 164.213 115.945C163.59 116.423 163.038 116.85 162.491 117.318L162.211 117.558L161.868 117.704C160.874 118.129 159.329 118.949 157.173 119.517C155.99 119.829 154.881 120.085 153.852 120.398C153.355 120.55 152.958 120.693 152.66 120.825C152.474 120.908 152.375 120.966 152.336 120.99C152.305 121.04 152.183 121.237 151.998 121.726C151.753 122.375 151.594 122.947 151.281 123.857C151.011 124.644 150.651 125.591 150.121 126.432C149.607 127.248 148.812 128.155 147.58 128.65C147.468 128.721 147.442 128.743 147.21 128.89C146.836 129.129 146.309 129.445 145.598 129.747C144.16 130.358 142.168 130.831 139.28 130.811C135.101 130.782 132.55 130.585 130.804 130.348C129.925 130.228 129.266 130.1 128.731 129.987C128.157 129.866 127.885 129.799 127.566 129.747C126.291 129.539 125.231 129.208 124.421 128.98C123.59 128.746 122.922 128.587 122.123 128.543C120.526 128.454 119.395 128.222 118.347 127.989C117.327 127.762 116.441 127.548 115.124 127.397C112.739 127.124 111.382 126.824 109.705 126.251C108.399 125.804 106.631 125.249 104.438 124.264C103.829 123.99 103.282 123.832 102.572 123.639C101.873 123.448 100.995 123.216 99.9951 122.798C98.3057 122.091 96.3599 121.267 92.7314 119.01C87.3552 115.665 84.8993 114.017 82.1103 113.159C81.3508 112.926 80.6504 112.842 79.6933 112.719C78.7805 112.601 77.6312 112.445 76.4033 111.975C76.4903 112.009 76.441 111.981 76.1152 111.929C75.8367 111.884 75.4637 111.838 74.999 111.791C74.071 111.698 72.8891 111.613 71.5742 111.527C68.9931 111.359 65.8927 111.187 63.6211 110.943C62.6822 110.842 61.7395 110.593 61.0273 110.412C60.2393 110.212 59.6483 110.071 59.1064 110.021C58.0332 109.923 57.16 109.7 56.4697 109.513C55.7374 109.314 55.3262 109.194 54.873 109.138C52.9107 108.892 51.1299 108.289 49.6914 107.666C47.7709 106.834 46.0158 105.518 43.999 103.663C41.3825 101.256 39.6436 99.5712 38.4941 98.4979C37.2739 97.3585 36.7506 96.9443 36.3271 96.7108C35.9635 96.5103 35.5292 96.366 34.8759 96.2108C34.3321 96.0816 33.3158 95.8828 32.4531 95.6434C31.8813 95.4848 31.5012 95.4635 30.4541 95.2459C29.5922 95.0668 28.4998 94.7788 27.4443 94.1463C25.3527 92.893 24.12 91.6082 23.0634 90.5252C22.6411 90.0922 22.4431 89.5838 22.3623 89.3661C22.251 89.0662 22.1617 88.7362 22.0879 88.4061C21.9387 87.7393 21.8143 86.8987 21.7236 85.9334C21.5414 83.9938 21.4808 81.4032 21.6728 78.4002C21.7428 77.3063 21.7071 76.5212 21.7158 75.5409C21.7242 74.6016 21.7783 73.5839 22.1045 72.4403C22.72 70.2826 23.6778 68.2039 23.8525 67.7235C24.0696 67.1261 24.5167 66.6682 25.0654 66.41C25.06 66.306 25.0571 66.2152 25.0498 66.1327C24.9657 65.4508 24.8081 64.777 24.6318 64.0623C24.4693 63.4036 24.2502 62.5667 24.165 61.826C24.0583 60.8981 23.6562 58.9633 22.9482 57.5995C22.942 57.5892 22.8757 57.4813 22.6474 57.2274C22.412 56.9655 22.0957 56.6464 21.6533 56.2088C20.787 55.3521 19.5753 54.1737 18.1025 52.537C16.7468 51.0303 15.6937 50.1247 14.6181 49.0858C13.5518 48.0557 12.548 46.9639 11.7451 45.3426C11.5239 44.896 11.2376 44.6561 10.4345 43.7664C9.70399 42.9571 8.83798 41.8582 8.3945 40.1727C7.7739 37.8137 7.49746 35.8228 7.2861 34.1239C7.06897 32.3785 6.93383 31.1006 6.61618 29.8885C6.06168 27.7727 5.61039 25.9706 5.20212 24.4959C4.77804 22.9643 4.47178 22.0654 4.25974 21.6629C3.66 20.5254 4.13408 19.1361 5.31931 18.5604C5.4255 18.5088 5.5349 18.4677 5.6445 18.4325C5.83522 17.746 6.21662 17.0111 6.66208 16.325C7.28592 15.3643 8.20492 14.2345 9.48923 13.0184C10.9421 11.6428 12.0895 10.6622 12.7275 10.078C13.4177 9.44596 13.6345 9.17188 13.7861 8.88754C14.497 7.55458 15.6564 6.51932 16.6816 5.78696C17.5705 5.15207 18.4951 4.64844 19.2588 4.2977C19.293 4.13132 19.3267 3.96427 19.3574 3.79477C19.4192 3.45391 19.5155 2.85566 19.6728 2.39145L19.6933 2.32993L19.7187 2.26938C19.8826 1.86492 20.0894 1.48923 20.2236 1.24204ZM19.3271 9.65805C18.7047 10.1336 18.2773 10.5991 18.0683 10.9911C17.536 11.9894 16.8338 12.699 16.0488 13.4178C15.2115 14.1845 14.327 14.9242 12.8691 16.3045C11.8242 17.2939 11.1501 18.1443 10.7461 18.7664C10.2855 19.4757 10.2882 19.7099 10.3134 19.492C10.2296 20.2155 9.80488 20.8221 9.21091 21.1844C9.4327 21.8372 9.6455 22.5637 9.85251 23.3114C10.2709 24.8226 10.7468 26.7198 11.2822 28.7625C11.6943 30.3348 11.8654 31.9842 12.0634 33.576C12.2673 35.2145 12.5152 36.9735 13.0595 39.0428C13.2399 39.728 13.565 40.1831 14.0713 40.744C14.5052 41.2247 15.5019 42.1721 16.0908 43.3612C16.5551 44.2987 17.1262 44.9576 18.0312 45.8319C18.9269 46.6971 20.2432 47.8503 21.7451 49.5194C23.1116 51.038 24.2245 52.1228 25.1054 52.994C25.5363 53.4201 25.9498 53.8323 26.291 54.2118C26.6227 54.5807 26.9898 55.0294 27.2558 55.5418C28.3169 57.5861 28.8102 60.1197 28.9482 61.3192C28.9926 61.7048 29.1157 62.1933 29.3144 62.9989C29.496 63.7352 29.7157 64.6541 29.834 65.6454L29.8379 65.6747L29.8408 65.7039C29.8674 65.991 29.88 66.2915 29.8896 66.5155C29.9004 66.7684 29.9083 66.9337 29.9209 67.0604C29.9225 67.0766 29.9236 67.0901 29.9248 67.0995C29.9402 67.1313 29.9765 67.2004 30.0508 67.3231C30.7174 68.4255 30.3263 69.8382 29.1777 70.4784C28.7355 70.7246 28.2451 70.8182 27.7715 70.7801C27.4467 71.5588 27.0852 72.4667 26.7451 73.659C26.5806 74.2357 26.5343 74.7914 26.5273 75.5809C26.5207 76.3293 26.5556 77.4301 26.4756 78.6825C26.2969 81.4755 26.3572 83.832 26.5156 85.5184C26.5952 86.3661 26.6965 87.0096 26.792 87.4364C26.8101 87.5175 26.8281 87.5854 26.8427 87.6405C27.77 88.5868 28.6105 89.4018 29.9931 90.2303C30.3531 90.446 30.8124 90.596 31.4726 90.7332C31.9477 90.8319 33.0611 91.0057 33.79 91.2079C34.5779 91.4265 35.1127 91.5101 36.0312 91.7284C36.8404 91.9206 37.7833 92.1886 38.7236 92.7069C39.7461 93.2706 40.6724 94.0901 41.8496 95.1893C43.0978 96.3548 44.7053 97.916 47.3291 100.33C49.1951 102.047 50.4849 102.944 51.6709 103.458C52.8353 103.962 54.1459 104.391 55.4941 104.559C56.3803 104.67 57.1944 104.911 57.7773 105.069C58.4024 105.239 58.9363 105.368 59.5634 105.426C60.5574 105.517 61.5175 105.761 62.2588 105.949C63.0762 106.157 63.6431 106.3 64.1552 106.355C66.2895 106.584 69.2175 106.746 71.9004 106.921C73.2169 107.007 74.4763 107.096 75.5 107.199C76.0108 107.25 76.4919 107.307 76.9072 107.374C77.2752 107.433 77.7609 107.524 78.1855 107.686C78.8105 107.926 79.4357 108.028 80.334 108.143C81.1878 108.253 82.3359 108.381 83.5781 108.763C87.1482 109.86 90.3106 112 95.3496 115.136C98.697 117.218 100.395 117.928 101.92 118.566C102.579 118.842 103.152 118.997 103.889 119.198C104.614 119.396 105.488 119.637 106.478 120.082C108.412 120.951 109.919 121.423 111.32 121.902C112.592 122.337 113.587 122.572 115.695 122.813C117.316 122.999 118.46 123.275 119.433 123.491C120.376 123.701 121.203 123.867 122.401 123.933C123.755 124.009 124.841 124.288 125.775 124.551C126.731 124.82 127.448 125.045 128.371 125.195C128.844 125.272 129.356 125.391 129.768 125.478C130.22 125.574 130.753 125.678 131.479 125.777C132.945 125.977 135.268 126.166 139.315 126.194C141.615 126.21 142.917 125.836 143.649 125.525C144.022 125.367 144.301 125.203 144.547 125.046C144.618 125 144.862 124.84 144.971 124.772C145.101 124.691 145.374 124.523 145.71 124.398C145.731 124.385 145.836 124.309 146.003 124.044C146.239 123.669 146.463 123.135 146.712 122.411C146.918 121.811 147.214 120.841 147.476 120.15C147.737 119.46 148.162 118.459 148.934 117.719C149.46 117.213 150.107 116.871 150.634 116.637C151.192 116.388 151.805 116.179 152.395 115.999C153.541 115.65 154.915 115.323 155.898 115.064C157.448 114.656 158.346 114.176 159.573 113.634C159.965 113.307 160.353 113.001 160.731 112.708C160 111.956 159.122 110.741 159.084 109.079C159.057 107.903 159.304 106.785 159.43 106.016C159.577 105.119 159.749 103.847 159.802 101.68C159.838 100.18 159.856 98.1202 159.875 96.0438C159.894 93.9891 159.913 91.9118 159.952 90.4373C160.027 87.6344 160.149 86.6224 160.509 85.6766C160.843 84.7973 161.482 84.0195 161.83 83.6034C162.268 83.0805 162.813 82.4894 163.331 81.9266C164.425 80.7374 165.571 79.4846 166.503 78.1913C166.945 77.5776 167.127 77.0887 167.237 76.7606C167.301 76.2908 167.392 75.7781 167.53 75.2157C167.917 73.6429 168.642 71.7243 168.974 70.8231L168.999 70.7547C169.08 70.5491 169.157 70.3371 169.235 70.1141C168.451 70.1262 167.715 70.1389 167.145 70.16C165.927 70.3506 164.022 70.6497 162.045 70.7538C160.056 70.8585 157.612 70.7944 155.627 69.9745C153.81 69.2241 153.282 68.5529 150.541 68.5291C147.415 68.502 144.766 68.4496 142.812 68.3817C141.838 68.3478 141.02 68.3091 140.395 68.2664C140.085 68.2452 139.803 68.2221 139.564 68.1952C139.377 68.1741 139.054 68.135 138.755 68.0487C137.128 67.5795 134.522 66.6078 132.761 65.5672C131.961 65.0946 131.323 64.5957 130.121 64.1698C128.992 63.7695 127.361 63.4607 125.024 63.7684C120.193 64.4048 114.168 65.2765 109.589 64.8075C106.568 64.498 104.902 63.8933 100.7 62.2459C99.4106 61.7403 98.035 61.0742 96.8613 60.2196C95.7098 59.381 94.5482 58.2107 94.0468 56.6405C93.5283 55.0157 93.1381 53.8075 92.6172 52.7616C92.2378 51.9998 91.893 51.0777 91.6064 50.3651C91.2915 49.5821 90.9975 48.9154 90.6552 48.3582C89.6707 46.7552 89.0365 44.9148 88.7851 42.9344C88.6788 42.0968 88.5266 41.399 88.3633 40.8182C87.4705 41.1481 86.2989 41.341 84.9873 40.953C84.7298 40.8768 84.521 40.7879 84.4248 40.7459C84.3154 40.6982 84.2098 40.6476 84.1494 40.619C84.0028 40.5497 83.9223 40.5116 83.8291 40.4725C83.662 40.4024 83.5331 40.3656 83.4131 40.3504C82.183 40.1955 81.0568 40.0634 80.0175 40.0262C78.1917 39.9609 76.9575 39.8917 75.7197 39.5936C75.2898 39.4901 75.0639 39.48 74.1806 39.3182C73.4725 39.1885 72.5111 38.9783 71.5136 38.5262C70.3267 37.9881 69.2333 37.1334 68.5136 36.576C67.6482 35.9057 67.0563 35.4439 66.4804 35.1161C66.0178 34.8527 65.6538 34.6942 65.2783 34.537C65.1081 34.4657 64.8309 34.3522 64.582 34.2372C64.3138 34.1132 63.9617 33.9356 63.5947 33.6844C62.2237 32.7457 61.7824 31.2596 61.5927 30.7342C60.7679 28.4496 60.3719 27.2373 60.0566 26.0164C59.975 26.194 59.8981 26.3588 59.8222 26.5086C59.4672 27.21 58.9981 27.964 58.1718 28.5985C57.2244 29.3259 56.1149 29.5953 55.4961 29.7235C54.776 29.8726 53.9769 29.9648 53.2675 30.0399C52.9752 30.0708 52.5917 30.1325 52.0683 30.2196C51.5915 30.2989 50.9904 30.4001 50.4277 30.4735C49.901 30.5421 49.17 30.6198 48.456 30.578C48.1004 30.5571 47.5538 30.4978 46.9658 30.285C46.3718 30.07 45.4417 29.5868 44.8379 28.5497C44.8304 28.5368 44.8226 28.5238 44.8154 28.5116C44.3421 28.4225 43.608 28.2819 42.8564 28.078C40.3745 27.4044 37.9104 25.9932 36.2744 25.0555C36.1291 24.9722 36.0031 24.9043 35.872 24.8329C35.7553 24.7692 35.5855 24.6773 35.4238 24.5829C35.0284 24.3518 34.618 24.0713 34.1797 23.6502C33.8045 23.2899 33.5644 23.1602 32.6259 22.5204C31.7215 21.9036 30.6326 21.0939 29.1748 19.659C28.7633 19.254 28.4214 18.8214 28.1787 18.5038C28.0538 18.3403 27.928 18.1711 27.8271 18.036C27.7193 17.8914 27.6299 17.7724 27.5459 17.6649C27.509 17.6178 27.4742 17.5774 27.4443 17.5409C26.6813 17.3127 26.3463 17.203 26.0068 17.1668C24.6333 17.021 23.5206 16.7245 22.7011 16.4754C22.4478 16.3984 22.0659 16.2849 21.7275 16.1678C21.4854 16.084 20.8366 15.8608 20.2578 15.4637C19.1048 14.6726 18.5825 13.35 18.7939 12.0926C18.6553 11.2687 18.8261 10.3992 19.3271 9.65805Z" fill="#151515"/>
</g>
<defs>
<filter id="filter0_d_369_179" x="0" y="0" width="182.079" height="138.812" filterUnits="userSpaceOnUse" color-interpolation-filters="sRGB">
<feFlood flood-opacity="0" result="BackgroundImageFix"/>
<feColorMatrix in="SourceAlpha" type="matrix" values="0 0 0 0 0 0 0 0 0 0 0 0 0 0 0 0 0 0 127 0" result="hardAlpha"/>
<feOffset dy="4"/>
<feGaussianBlur stdDeviation="2"/>
<feComposite in2="hardAlpha" operator="out"/>
<feColorMatrix type="matrix" values="0 0 0 0 0 0 0 0 0 0 0 0 0 0 0 0 0 0 0.25 0"/>
<feBlend mode="normal" in2="BackgroundImageFix" result="effect1_dropShadow_369_179"/>
<feBlend mode="normal" in="SourceGraphic" in2="effect1_dropShadow_369_179" result="shape"/>
</filter>
</defs>
</svg>
