<svg width="239" height="334" viewBox="0 0 239 334" fill="none" xmlns="http://www.w3.org/2000/svg">
<g filter="url(#filter0_d_369_359)">
<path fill-rule="evenodd" clip-rule="evenodd" d="M77.0419 0.125809C80.2292 -0.172857 83.8298 -0.0698342 87.3046 1.9012C88.041 2.31887 88.9306 2.64017 90.0458 2.96272C90.9805 3.23306 92.5223 3.61487 93.6727 4.00667C94.9183 4.43087 96.4666 5.09074 97.7225 6.32503C99.087 7.66589 99.8215 9.3953 99.9237 11.4178C100.07 14.3207 99.9392 18.2536 99.5878 21.8631C99.4113 23.676 99.1746 25.4575 98.8759 27.0252C98.5888 28.5319 98.2046 30.0636 97.6581 31.2498C96.2591 34.2867 94.9771 36.3771 92.7362 42.3084C92.6418 42.5583 92.5908 42.7295 92.5634 42.8485C92.5691 42.8542 92.5746 42.8618 92.5809 42.868C95.6122 45.7899 99.9308 47.8029 104.391 48.4696C104.5 48.4858 104.607 48.507 104.712 48.5321C105.871 48.0476 107.262 48.1632 108.34 48.95C108.931 49.3816 109.344 49.9546 109.567 50.5819C109.747 50.6536 109.922 50.7451 110.086 50.8621C110.466 51.1341 110.835 51.3979 111.209 51.6658C111.605 51.9499 112.306 52.3219 113.622 52.7938L114.225 53.0028L114.489 53.0907L114.725 53.2362C116.23 54.1554 118.465 55.1902 121.039 56.5223C123.441 57.7653 126.124 59.264 127.907 60.9403C129.249 62.2021 131.128 63.4536 132.929 66.619C133.457 67.5472 134.169 68.704 134.705 69.783C135.26 70.9005 135.771 72.2003 135.881 73.6278C135.97 74.7936 135.753 75.9209 135.486 76.8875C135.222 77.8437 134.853 78.8234 134.574 79.6082C133.451 82.7684 130.321 85.6482 131.623 92.1092C132.408 96.0033 133.683 97.3572 134.753 99.3426C135.84 101.36 136.958 102.915 138.132 103.733C139.676 104.81 141.291 106.033 142.706 107.109C144.155 108.211 145.344 109.122 146.126 109.66C147.326 110.485 148.523 110.956 151.49 111.787C156.23 113.115 160.641 114.812 167.437 120.547C168.373 120.927 168.99 121.853 168.895 122.876C168.87 123.157 168.895 123.49 169.081 124.267C169.175 124.661 169.294 125.109 169.448 125.699C169.599 126.277 169.775 126.959 169.967 127.768L170.031 128.043L170.026 128.323C169.893 135.211 169.246 138.254 168.045 141.1C167.683 141.958 167.12 142.716 166.641 143.303C166.419 143.576 166.09 143.953 165.802 144.284C165.987 144.329 166.189 144.378 166.419 144.435C166.96 144.571 167.616 144.748 168.265 145.013C169.652 145.58 171.082 146.596 171.767 148.539C172.535 150.715 172.508 152.625 172.446 154.31C172.394 155.732 172.175 157.322 171.947 158.857C171.713 160.437 171.469 161.975 171.314 163.459C171.16 164.945 171.114 166.238 171.241 167.288C171.371 168.358 171.65 168.926 171.913 169.212C172.013 169.321 172.21 169.474 172.787 169.802C173.296 170.09 174.107 170.518 174.952 171.084C176.749 172.287 178.762 174.128 180.777 177.55C181.449 178.69 181.553 179.828 181.293 180.848C181.066 181.737 180.571 182.443 180.398 182.705C179.801 183.615 179.088 184.137 178.467 184.492C178.212 184.637 177.91 184.787 177.785 184.851C177.779 184.855 177.772 184.858 177.766 184.861C177.75 184.962 177.734 185.101 177.726 185.285C177.603 188.341 177.581 191.239 177.747 193.664C177.92 196.18 178.28 197.868 178.723 198.721C178.77 198.813 179.009 199.138 179.759 199.447C180.097 199.587 180.489 199.718 180.991 199.884C181.459 200.038 182.032 200.227 182.58 200.451C183.587 200.864 185.149 201.639 185.869 203.277C186.35 204.372 186.917 206.298 187.164 208.851C187.316 210.424 187.768 211.511 188.304 212.519C188.774 213.404 189.684 214.802 190.164 216.207C191.01 218.682 191.919 221.276 192.078 224.023C192.127 224.862 192.109 225.951 192.125 226.66C192.144 227.483 192.202 228.216 192.371 228.915C192.681 230.193 193.416 231.599 195.597 233.054C197.028 234.008 198.744 234.902 200.532 235.852C202.231 236.756 204.076 237.75 205.432 238.813C206.143 239.371 206.463 240.105 206.625 240.584C206.797 241.091 206.896 241.642 206.97 242.126C207.14 243.244 207.207 244.152 207.453 245.471C207.844 247.571 208.474 248.797 209.35 249.591C210.466 250.6 211.311 251.749 212.121 252.928C212.958 254.145 213.767 255.403 214.93 256.945C216.443 258.952 218.481 261.486 219.501 263.555C220.194 264.962 220.402 266.749 220.589 268.036C220.802 269.508 221.018 270.744 221.511 271.799C221.93 272.696 222.882 273.821 224.403 275.199C225.892 276.548 227.705 277.948 229.648 279.459C229.751 279.538 229.843 279.626 229.928 279.718C230.655 279.717 231.398 279.715 232.142 279.715C233.471 279.715 234.547 280.748 234.548 282.022C234.548 283.297 233.471 284.331 232.142 284.331C229.026 284.331 226.071 284.332 224.169 284.395C222.873 284.488 221.855 284.624 220.721 284.778C219.586 284.933 218.347 285.103 216.705 285.24C213.495 285.717 209.786 285.533 206.945 285.56C205.425 285.575 204.101 285.643 202.975 285.839C201.846 286.035 201.067 286.335 200.54 286.71C198.347 288.268 195.93 291.211 194.782 292.809C193.462 294.647 191.973 296.459 190.352 299.163C189.804 300.079 189.127 301.025 188.471 301.942C187.796 302.885 187.114 303.836 186.462 304.866C186.266 305.175 186.078 305.533 185.85 305.985C185.636 306.407 185.375 306.936 185.085 307.438C184.507 308.44 183.615 309.705 182.058 310.461C180.508 311.214 178.793 311.218 177.697 311.304C176.466 311.399 175.035 311.578 173.069 312.37C172.441 312.623 171.719 313.123 170.86 313.923C170.007 314.718 169.15 315.681 168.194 316.766C166.412 318.791 164.168 321.423 161.446 322.807C158.86 324.122 156.921 324.887 154.125 325.222C152.807 325.381 151.604 324.484 151.439 323.219C151.438 323.211 151.438 323.204 151.437 323.197C150.982 322.911 150.624 322.478 150.453 321.939C150.344 321.596 150.288 321.427 150.213 321.27V321.269C149.911 320.673 149.715 319.918 149.591 319.472C149.434 318.909 149.272 318.356 149.055 317.8C148.734 317.282 148.059 316.265 147.648 315.053C147.158 313.605 146.991 311.864 147.41 309.609C147.758 307.736 148.064 305.904 148.718 303.534C149.219 301.716 149.699 299.792 149.911 298.114C150.017 297.277 150.045 296.57 149.999 296.011C149.951 295.429 149.834 295.17 149.789 295.098C149.25 294.249 148.968 293.643 148.159 293.219C147.179 292.705 146.469 292.679 145.523 292.658C144.514 292.636 143.086 292.675 142.1 292.559C141.072 292.439 139.231 292.028 138.492 290.156C138.209 289.438 137.937 288.373 137.795 287.92C137.594 287.279 137.427 286.957 137.272 286.778C137.096 286.574 136.917 286.494 136.061 285.928C135.343 285.452 134.322 284.702 133.67 283.374C133.153 282.321 132.948 281.312 132.798 280.612C132.634 279.847 132.534 279.45 132.344 279.095C131.726 277.938 130.605 276.218 130.422 273.745C130.354 272.83 130.321 271.888 130.293 270.991C130.265 270.078 130.241 269.221 130.196 268.407C130.1 266.679 129.913 265.591 129.637 265.031C129.353 264.456 129.194 263.848 129.09 263.405C128.958 262.846 128.918 262.598 128.816 262.216C128.809 262.189 128.801 262.165 128.795 262.141C128.315 262.05 127.78 261.963 127.189 261.873C125.117 261.557 122.687 260.817 121.1 258.204C120.757 257.637 120.474 257.364 119.855 256.518C119.328 255.798 118.727 254.845 118.455 253.586C118.25 252.636 118.14 251.303 118.027 250.394C117.929 249.604 117.816 248.987 117.679 248.534C116.121 248.384 113.286 248.164 108.586 247.786C105.322 247.523 102.74 247.34 98.7811 247.155C97.3946 247.09 95.879 247.049 94.3407 247.005C92.8151 246.961 91.2664 246.915 89.8622 246.841C88.4731 246.767 87.1418 246.663 86.0702 246.488C85.5391 246.402 84.9882 246.285 84.4931 246.114C84.0908 245.975 83.3001 245.664 82.7479 244.954C81.9417 243.917 81.6927 242.822 81.5858 242.004C81.5119 241.438 81.4711 240.793 81.4335 240.239C81.3934 239.648 81.3548 239.11 81.287 238.622C81.2319 238.225 81.1647 237.934 81.0995 237.73C80.9613 237.712 80.7899 237.693 80.5741 237.672C79.8754 237.604 78.8053 237.523 77.6796 237.317C75.363 236.894 72.4572 235.89 70.2763 233.068C69.6776 232.294 69.1375 231.457 68.7157 230.851C68.2624 230.2 67.8222 229.624 67.2489 229.053C66.2937 228.101 65.4476 227.62 64.7782 227.492C63.8903 227.322 62.8756 227.181 61.9169 227.168C60.9223 227.154 60.1991 227.281 59.7587 227.48C58.7138 227.954 58.014 228.475 57.1513 229.066C56.3531 229.613 55.2111 230.376 53.6591 230.547C53.1129 230.607 52.4739 230.65 51.8349 230.595C51.2032 230.54 50.3986 230.376 49.6571 229.889C48.8145 229.335 47.9985 228.537 47.3417 227.877C46.6116 227.143 46.0089 226.507 45.4003 225.97C44.1912 224.901 42.4508 223.591 40.745 222.226C39.9604 221.599 39.2592 220.842 38.7089 220.264C38.1082 219.634 37.63 219.15 37.1288 218.777C36.0723 217.991 35.0698 217.259 32.6347 216.77C25.9765 215.435 23.284 215.139 21.2606 215.086C20.7239 215.657 19.9876 216.063 19.1337 216.189C17.1642 216.481 15.3206 215.185 15.0165 213.295C14.9356 212.792 14.8618 212.453 14.7968 212.198C14.7308 211.939 14.6656 211.733 14.5722 211.439C14.0164 209.695 13.4878 207.441 13.6825 195.294L13.6923 194.653L13.9413 194.058C15.6584 189.949 17.5074 184.544 18.7606 179.699C19.3877 177.275 19.8477 175.06 20.0761 173.258C20.3236 171.303 20.2288 170.32 20.1444 170.055C19.4148 167.765 18.5537 165.259 17.4794 162.805C16.7164 161.063 16.4155 159.318 16.1308 157.048C15.826 154.618 15.5605 151.77 14.9081 146.823C14.3068 142.264 13.3391 140.241 11.9433 138.555C11.6308 138.178 11.2469 137.79 10.7167 137.268C10.2266 136.786 9.59134 136.17 9.00185 135.494C7.77055 134.083 6.51342 132.171 6.25868 129.523C6.20282 128.942 6.0434 128.353 5.75283 127.486C5.48377 126.684 5.05405 125.519 4.71669 124.227C3.99133 121.451 3.63651 117.98 4.53115 112.797C4.81469 111.154 4.81088 108.981 4.94033 106.753C4.98977 105.902 5.07455 104.617 5.41493 103.648C5.51322 103.369 5.69961 102.91 6.05361 102.446C6.39819 101.994 7.09291 101.298 8.23329 101.021C8.50766 100.677 8.80238 100.386 8.95986 100.222C9.22111 99.9519 9.41169 99.7426 9.58095 99.4949C9.87355 99.0668 10.2539 98.3028 10.2841 96.6903C10.4602 87.2769 10.142 85.5746 9.82607 84.6766C9.48566 83.7088 9.3626 82.6629 9.26943 81.8358C9.16733 80.9294 9.0925 80.1707 8.91396 79.4149C8.63227 78.2224 8.60576 76.9979 8.55361 75.8299C8.49893 74.6058 8.4149 73.1464 8.08193 71.1561C7.77824 69.3407 7.78145 67.9732 7.88368 66.4198C7.98734 64.8449 8.1666 63.3251 8.28017 60.7235C8.4109 57.7281 8.40824 52.7143 8.45497 49.9442C8.47683 48.6491 8.50324 47.7177 8.63173 46.9783C8.78833 46.0779 9.08898 45.4915 9.412 44.9051C12.2281 39.7932 14.4866 37.8161 15.6952 36.4188C16.9429 34.9762 18.1645 33.9632 19.5722 32.7215C20.7956 31.6423 22.2882 29.7297 23.8974 27.7537C23.9169 26.2214 25.0033 24.8326 26.6249 24.4403C27.6772 24.1857 28.8753 24.1508 29.6854 24.1278C30.6526 24.1002 31.4397 24.0894 32.2157 24.0096C33.8841 23.838 34.0526 23.4754 34.0712 23.4412C34.1228 23.3483 34.1939 23.1924 34.3388 22.8407C34.4561 22.5559 34.65 22.0701 34.8808 21.6131C35.2811 20.8203 36.3609 18.9175 38.8134 18.4686L39.956 18.2616C40.2207 18.2099 40.425 18.1597 40.5888 18.1151C40.6013 18.0587 40.6178 17.9974 40.6327 17.9285C40.6754 17.7313 40.7347 17.457 40.8017 17.1864C40.9236 16.6939 41.1567 15.8375 41.6796 15.0272C42.279 14.0985 43.3227 13.1446 44.9179 12.8387L45.5243 12.7264C48.4461 12.2075 49.7365 12.2562 51.119 10.8914C56.2115 5.86383 61.7185 1.80563 68.0038 1.3221C69.4436 1.21131 70.8743 0.999589 72.3915 0.763504C73.8615 0.534761 75.4691 0.273209 77.0419 0.125809ZM83.6317 7.86311C82.0726 6.97874 80.2853 6.78126 77.744 7.01936C76.4528 7.14036 75.1105 7.35708 73.5468 7.60042C72.0299 7.83645 70.3411 8.09091 68.58 8.22639C65.1087 8.49353 61.2153 10.8607 56.2948 15.7186C53.498 18.4797 49.8712 19.1198 47.6796 19.4285C47.6365 19.6262 47.5823 19.8676 47.5185 20.1112C47.3914 20.5963 47.1223 21.538 46.4589 22.3875C45.3959 23.7486 43.9467 24.3618 42.9071 24.6805C42.3356 24.8557 41.7144 24.9865 41.1737 25.0887C41.1383 25.1739 41.0976 25.2716 41.0507 25.3856C40.9189 25.7055 40.7099 26.2116 40.4384 26.7C38.6197 29.9714 35.118 30.677 32.9852 30.8963C31.8565 31.0124 30.7009 31.0278 29.9003 31.0506C28.9427 31.0779 28.5464 31.1179 28.3886 31.1561C27.9768 31.2557 27.5638 31.2816 27.164 31.2449C25.8084 32.9231 24.2184 34.8943 22.829 36.1199C21.2971 37.4712 20.3841 38.2261 19.3974 39.367C17.9728 41.0141 16.1813 42.4944 13.6649 47.0623C13.4218 47.5037 13.406 47.5705 13.3768 47.7381C13.3196 48.0675 13.2901 48.6221 13.2665 50.0194C13.2224 52.6357 13.2207 57.8498 13.0868 60.9168C12.9725 63.5366 12.7714 65.405 12.6854 66.7108C12.5981 68.0378 12.6021 69.0448 12.8329 70.4246C13.2081 72.6672 13.3029 74.3266 13.3612 75.6317C13.422 76.9927 13.4444 77.7088 13.6063 78.3944C13.8602 79.4692 13.9629 80.5341 14.0536 81.3397C14.1533 82.2248 14.2374 82.7812 14.3847 83.2C15.0237 85.0165 15.266 87.6173 15.0946 96.7733C15.05 99.153 14.4511 100.787 13.6044 102.026C13.3219 102.44 13.0284 102.78 12.7772 103.053C13.0578 103.567 13.1337 104.002 13.1464 104.064C13.2006 104.331 13.22 104.571 13.2265 104.752C13.2397 105.122 13.2094 105.515 13.1356 105.905C13.0314 106.455 12.7714 107.344 12.0995 108.171C12.0303 109.851 11.9512 112.191 11.6513 113.929C10.9088 118.23 11.2467 120.74 11.7177 122.543C11.9785 123.541 12.272 124.316 12.6239 125.366C12.9542 126.351 13.3144 127.527 13.4452 128.887C13.516 129.623 13.8326 130.241 14.536 131.048C14.9139 131.481 15.337 131.895 15.8837 132.433C16.3902 132.932 17.0217 133.555 17.5936 134.246C20.0811 137.25 21.3657 140.626 22.0683 145.953C22.702 150.758 23.0413 154.183 23.2968 156.22C23.5722 158.416 23.788 159.333 24.1337 160.123C25.3453 162.89 26.2877 165.65 27.0458 168.029C27.611 169.803 27.4973 172.065 27.2401 174.095C26.9636 176.277 26.4326 178.789 25.7655 181.368C24.4912 186.294 22.6522 191.718 20.8895 196.026C20.7239 207.631 21.2924 208.842 21.4745 209.414C21.5759 209.732 21.6811 210.069 21.789 210.484C24.16 210.576 27.1836 210.961 33.6181 212.251C37.0366 212.936 38.7075 214.111 40.0761 215.129C40.9451 215.775 41.6779 216.537 42.2606 217.149C42.8933 217.814 43.3486 218.297 43.8261 218.68C45.3505 219.899 47.338 221.405 48.6601 222.573C49.4199 223.245 50.2045 224.067 50.8222 224.688C51.4388 225.308 51.8983 225.736 52.2528 225.994C52.2568 225.994 52.2612 225.996 52.2655 225.996C52.4331 226.01 52.7021 226.005 53.1122 225.96C53.3137 225.938 53.5607 225.852 54.3544 225.308C55.0836 224.809 56.1801 223.996 57.704 223.305C59.0991 222.673 60.6673 222.533 61.9882 222.552C63.3451 222.571 64.6714 222.764 65.7167 222.964C67.761 223.354 69.4419 224.582 70.7147 225.85C71.5696 226.702 72.1897 227.531 72.7157 228.287C73.2732 229.088 73.6327 229.661 74.1405 230.318C75.3346 231.863 76.9199 232.478 78.579 232.781C79.4411 232.939 80.2307 232.998 81.0585 233.078C81.4423 233.115 81.8807 233.162 82.286 233.238C82.6085 233.299 83.0967 233.409 83.58 233.657L83.786 233.771L83.9608 233.884C84.8077 234.459 85.2695 235.264 85.5321 235.909C85.8173 236.61 85.965 237.361 86.0556 238.013C86.1477 238.676 86.1959 239.359 86.2352 239.939C86.2771 240.556 86.3076 241.034 86.3593 241.43C86.3824 241.607 86.4107 241.744 86.4423 241.853C86.5583 241.879 86.7025 241.908 86.8768 241.936C87.6699 242.066 88.7782 242.16 90.1268 242.231C91.461 242.302 92.9503 242.347 94.4843 242.39C96.0055 242.434 97.5726 242.476 99.0145 242.544C103.043 242.732 105.684 242.92 108.987 243.185C114.63 243.639 117.758 243.878 119.134 244.044C121.17 244.289 121.831 246.049 121.886 246.163C122.452 247.347 122.669 248.763 122.804 249.847C122.961 251.111 123.016 251.953 123.166 252.649C123.245 253.015 123.426 253.363 123.794 253.866C124.071 254.244 124.797 255.121 125.259 255.881C125.786 256.75 126.486 257.09 127.943 257.312C128.815 257.445 129.692 257.59 130.485 257.767C131.602 258.017 132.328 258.699 132.761 259.359C133.155 259.961 133.357 260.615 133.479 261.078C133.591 261.497 133.718 262.116 133.782 262.388C133.874 262.775 133.939 262.965 133.983 263.054C134.717 264.54 134.908 266.495 135.001 268.162C135.05 269.045 135.075 269.974 135.102 270.853C135.13 271.749 135.161 272.606 135.221 273.417C135.318 274.733 135.827 275.492 136.626 276.989C137.16 277.989 137.363 278.998 137.51 279.683C137.67 280.433 137.784 280.921 138.022 281.406C138.124 281.613 138.289 281.793 138.794 282.128C138.962 282.239 139.452 282.546 139.75 282.754C140.122 283.013 140.573 283.362 140.981 283.837C141.77 284.752 142.158 285.808 142.403 286.59C142.606 287.237 142.703 287.631 142.81 287.988C143.068 288.011 143.4 288.023 143.85 288.027C144.328 288.032 144.988 288.029 145.634 288.043C146.732 288.067 148.424 288.096 150.466 289.167C152.666 290.321 153.632 292.278 153.898 292.698C154.489 293.63 154.717 294.693 154.796 295.644C154.876 296.619 154.815 297.658 154.687 298.669C154.433 300.687 153.876 302.873 153.368 304.716C152.776 306.861 152.508 308.478 152.147 310.42C151.85 312.023 152.007 312.987 152.224 313.626C152.415 314.192 152.642 314.543 152.971 315.073L153.336 315.678L153.417 315.815L153.477 315.962C153.837 316.839 154.069 317.672 154.238 318.279C154.328 318.601 154.393 318.83 154.454 319.02C154.504 319.176 154.53 319.235 154.529 319.235L154.557 319.282L154.586 319.345C154.77 319.73 154.896 320.103 154.989 320.392C156.299 320.094 157.487 319.597 159.194 318.728C160.916 317.853 162.529 316.048 164.518 313.788C165.449 312.731 166.457 311.591 167.51 310.61C168.557 309.635 169.783 308.687 171.207 308.113C173.795 307.071 175.768 306.822 177.308 306.702C178.984 306.572 179.41 306.572 179.887 306.341C180.148 306.213 180.453 305.933 180.876 305.201C181.086 304.836 181.277 304.451 181.521 303.969C181.75 303.517 182.025 302.982 182.35 302.469C183.084 301.311 183.84 300.255 184.504 299.328C185.185 298.375 185.746 297.588 186.181 296.862C187.931 293.94 189.677 291.781 190.82 290.189C192.039 288.492 194.822 285.027 197.677 282.999C199.015 282.048 200.585 281.562 202.117 281.296C203.651 281.029 205.301 280.959 206.896 280.943C210.254 280.911 213.29 281.092 216.052 280.667L216.14 280.653L216.226 280.646C217.757 280.52 218.898 280.363 220.045 280.207C220.866 280.095 221.696 279.984 222.645 279.89C222.11 279.444 221.591 279 221.101 278.556C219.484 277.091 217.944 275.451 217.12 273.685C216.311 271.953 216.031 270.097 215.824 268.672C215.591 267.061 215.454 266.14 215.152 265.528C214.382 263.964 212.761 261.945 211.031 259.651C209.788 258.002 208.856 256.562 208.105 255.471C207.328 254.34 206.736 253.571 206.049 252.949C204.115 251.198 203.198 248.864 202.717 246.284C202.466 244.942 202.317 243.503 202.209 242.794C202.165 242.505 202.125 242.305 202.092 242.169C201.144 241.482 199.814 240.75 198.2 239.892C196.502 238.99 194.531 237.965 192.851 236.845C189.72 234.756 188.274 232.386 187.685 229.964C187.406 228.812 187.335 227.712 187.313 226.761C187.289 225.695 187.32 225.064 187.274 224.279C187.157 222.249 186.483 220.253 185.592 217.646C185.263 216.686 184.805 216.1 184.017 214.618C183.295 213.26 182.597 211.599 182.373 209.278C182.168 207.163 181.714 205.723 181.45 205.106C181.415 205.074 181.244 204.924 180.691 204.697C180.33 204.549 179.925 204.414 179.426 204.249C178.961 204.095 178.393 203.91 177.86 203.69C176.389 203.084 175.11 202.116 174.416 200.78C173.51 199.036 173.122 196.534 172.946 193.968C172.764 191.309 172.793 188.228 172.919 185.106C172.982 183.547 173.406 182.181 174.631 181.308L174.873 181.145C175.109 180.994 175.329 180.877 175.499 180.789C175.769 180.649 175.867 180.605 176.008 180.524C176.179 180.427 176.245 180.37 176.327 180.244C176.45 180.057 176.513 179.961 176.567 179.862C176.576 179.846 176.581 179.831 176.587 179.819C174.919 176.989 173.394 175.67 172.2 174.871C171.55 174.436 171.001 174.152 170.338 173.775C169.742 173.437 168.954 172.971 168.306 172.266C167.122 170.979 166.646 169.338 166.462 167.82C166.276 166.282 166.359 164.605 166.526 163C166.693 161.391 166.961 159.712 167.184 158.207C167.414 156.657 167.597 155.293 167.639 154.148C167.697 152.543 167.68 151.351 167.21 150.018C167.085 149.663 166.9 149.473 166.38 149.261C166.074 149.136 165.702 149.028 165.206 148.904C164.766 148.794 164.128 148.649 163.562 148.481C163.552 148.481 163.481 148.475 163.112 148.442C162.957 148.428 162.654 148.399 162.339 148.322C162.045 148.25 161.438 148.069 160.918 147.549C160.423 147.053 160.093 146.428 159.999 145.72C159.91 145.053 160.052 144.466 160.221 144.027C160.534 143.214 161.116 142.488 161.531 141.993C162.11 141.304 162.364 141.055 162.852 140.457C163.253 139.965 163.48 139.615 163.585 139.367C164.458 137.297 165.068 134.934 165.208 128.519C165.053 127.875 164.91 127.318 164.78 126.821C164.635 126.267 164.499 125.751 164.391 125.298C164.28 124.834 164.184 124.374 164.128 123.902C157.983 118.742 154.232 117.365 150.142 116.22C147.104 115.368 145.229 114.724 143.322 113.413C142.418 112.791 141.101 111.779 139.718 110.726C138.3 109.648 136.755 108.481 135.302 107.468C133.165 105.977 131.623 103.586 130.479 101.463C129.701 100.017 127.857 97.7385 126.899 92.9862C125.274 84.9228 129.526 79.5076 130.02 78.118C130.342 77.2139 130.626 76.4592 130.835 75.7049C131.041 74.9609 131.116 74.399 131.083 73.9666C131.036 73.363 130.805 72.6624 130.361 71.7703C129.899 70.8396 129.356 69.9753 128.705 68.8309C127.353 66.4549 126.308 65.9011 124.54 64.2381C123.304 63.0757 121.193 61.8484 118.755 60.5867C116.591 59.4669 114.075 58.2778 112.377 57.2713C110.62 56.6697 109.316 56.0705 108.332 55.366C108.223 55.288 108.114 55.2103 108.006 55.1326C107.746 55.4138 107.444 55.7126 107.079 56.034C105.61 57.3266 103.326 57.2315 101.979 55.8221C101.728 55.5595 101.528 55.2696 101.377 54.9637C96.2061 53.8493 91.2188 51.3717 87.4657 47.7537C86.2251 46.5578 85.4855 45.138 85.3456 43.5418C85.2184 42.0903 85.6237 40.8146 85.9511 39.9481C88.3009 33.7283 89.86 31.0493 91.0575 28.45C91.2499 28.0323 91.5144 27.1535 91.7763 25.7791C92.0264 24.466 92.239 22.8951 92.4022 21.2186C92.7303 17.8489 92.842 14.253 92.7157 11.7528C92.7007 11.4554 92.6483 11.3114 92.6268 11.2616C92.6089 11.2199 92.5919 11.1958 92.5585 11.1629C92.4506 11.0571 92.1366 10.832 91.2587 10.533C90.2848 10.2014 89.4395 10.0207 87.9628 9.59358C86.6667 9.21872 85.1198 8.70715 83.6317 7.86311Z" fill="black"/>
</g>
<defs>
<filter id="filter0_d_369_359" x="0" y="0" width="238.548" height="333.24" filterUnits="userSpaceOnUse" color-interpolation-filters="sRGB">
<feFlood flood-opacity="0" result="BackgroundImageFix"/>
<feColorMatrix in="SourceAlpha" type="matrix" values="0 0 0 0 0 0 0 0 0 0 0 0 0 0 0 0 0 0 127 0" result="hardAlpha"/>
<feOffset dy="4"/>
<feGaussianBlur stdDeviation="2"/>
<feComposite in2="hardAlpha" operator="out"/>
<feColorMatrix type="matrix" values="0 0 0 0 0 0 0 0 0 0 0 0 0 0 0 0 0 0 0.25 0"/>
<feBlend mode="normal" in2="BackgroundImageFix" result="effect1_dropShadow_369_359"/>
<feBlend mode="normal" in="SourceGraphic" in2="effect1_dropShadow_369_359" result="shape"/>
</filter>
</defs>
</svg>
