<svg width="82" height="127" viewBox="0 0 82 127" fill="none" xmlns="http://www.w3.org/2000/svg">
<g filter="url(#filter0_d_369_244)">
<path fill-rule="evenodd" clip-rule="evenodd" d="M39.989 0.0208344C41.372 -0.0786326 42.9882 0.162222 44.3171 1.08724L44.5974 1.29623L44.7155 1.37728C44.8415 1.46096 44.9154 1.50666 45.1257 1.64388C45.4793 1.87468 45.9693 2.2045 46.4968 2.65365C47.6011 3.59399 48.6825 4.89566 49.5622 6.83822C50.0111 7.8294 50.3261 8.52659 50.6403 9.07845C50.7496 9.27034 50.8377 9.40117 50.8991 9.48763C51.1968 9.5743 51.2977 9.59287 51.9489 9.78158C53.0585 10.1031 54.5623 10.6159 56.2018 11.6536C57.6323 12.5591 59.1578 13.4604 59.8884 13.9349C60.8912 14.5863 61.7507 15.2523 62.5759 16.2962C62.6945 16.4462 62.7508 16.4677 63.3649 17.0355C63.7945 17.4327 64.7319 18.3122 65.1726 19.6673C65.1165 19.4951 65.4928 20.4778 65.6354 21.2347C65.8067 22.1444 65.8797 23.5655 65.0837 25.0208C64.5815 25.9388 63.9718 26.6893 63.5446 27.1839C63.3484 27.4111 63.1129 27.6711 63.029 27.766C63.0087 27.7889 62.9928 27.8072 62.9811 27.8206C62.1468 29.0086 60.6508 29.5583 59.239 29.2689C58.7813 29.4227 58.4236 29.5101 58.277 29.5511C58.2731 29.5522 58.2691 29.553 58.2653 29.554C57.1945 30.5012 56.2631 30.9996 55.6403 31.3314C55.3081 31.5084 55.2132 31.5627 55.1433 31.6097C55.1423 31.6103 55.1412 31.6111 55.1403 31.6117C54.8215 31.9875 54.5932 32.2531 54.3952 32.4984C54.201 32.739 54.0969 32.8853 54.0358 32.9827C53.9966 33.0455 53.9823 33.0765 53.9792 33.0843C53.9772 33.0933 53.9728 33.1164 53.9694 33.1595C53.8956 34.1093 53.7671 35.1057 53.7253 36.3353C53.6825 37.5946 53.7738 38.4485 53.9138 38.8509C53.9389 38.9231 53.9557 38.9946 54.2087 39.2865C54.3635 39.465 54.5704 39.6848 54.8884 40.0111C55.1842 40.3147 55.5932 40.7283 56.0388 41.1908C57.2257 42.4228 59.0213 45.0081 60.7751 47.7972C61.853 49.5115 62.0711 50.6734 62.2634 51.555C62.367 52.0302 62.3488 52.4311 62.3405 52.5824C62.3297 52.7799 62.3064 52.9586 62.2888 53.0814C62.2547 53.3176 62.2029 53.6022 62.1647 53.8128C62.0788 54.2879 61.9815 54.8374 61.9167 55.4915C61.788 56.7916 61.7858 58.4968 62.3132 60.4388C62.7223 61.9454 63.3858 63.1111 64.1511 64.3783C64.8051 65.4612 65.9612 67.2135 66.2741 69.2005C66.5279 70.8136 66.0342 72.3434 65.7917 73.1361C65.4825 74.1467 65.2642 74.8117 65.1823 75.5755C65.0885 76.451 65.067 77.5819 65.114 78.64C65.1371 79.1612 65.1757 79.6307 65.2224 80.0111C65.2456 80.2006 65.2699 80.3552 65.2917 80.473C65.3135 80.5908 65.3278 80.6424 65.3278 80.6429C65.5763 81.4755 65.7739 82.5767 65.9157 83.2786C66.0958 84.17 66.227 84.6617 66.3259 84.888C66.41 85.0804 66.4872 85.2374 66.5583 85.3636C66.6011 85.4395 66.638 85.498 66.6677 85.5413C67.4161 85.8188 67.9551 85.9944 68.3278 86.097C68.5196 86.1498 68.6411 86.1752 68.7038 86.1869C69.5842 86.2223 70.3827 86.5608 70.9899 87.096C71.4669 87.1029 72.4038 87.1305 73.5759 87.2376C74.6612 87.3369 75.6754 87.8021 76.4343 88.6009C77.1155 89.3182 77.4155 90.1186 77.5612 90.68C77.8365 91.7407 77.7887 92.8902 77.7321 93.6849C77.6713 94.5387 77.5449 95.5498 77.4577 96.3607C77.3627 97.244 77.2971 98.0244 77.2976 98.7093C77.2979 99.3584 77.2027 99.969 77.1647 100.297C77.1167 100.713 77.0545 101.355 77.0222 102.547C76.9582 104.903 76.9542 109.962 76.6628 112.591C76.5322 113.77 76.2828 115.411 75.1862 116.635C73.8041 118.177 71.8155 118.2 71.7272 118.209C69.832 118.407 68.383 118.525 67.2517 118.497C65.9894 118.467 64.8695 118.254 63.7643 117.654C63.1342 117.311 62.6728 116.908 62.3991 116.655C61.972 116.26 62.0963 116.353 61.9382 116.217C60.3839 114.882 60.126 113.019 60.0114 112.393C59.8633 111.584 59.7676 110.983 59.5007 110.274C59.257 110.126 58.803 109.924 57.9782 109.661C57.196 109.413 56.3736 109.441 55.3308 109.667C54.7799 109.787 54.2846 109.933 53.6393 110.112C53.0995 110.261 52.2736 110.489 51.445 110.566C51.4041 110.57 50.1595 110.758 49.1911 110.707C47.1498 110.601 45.8618 109.296 45.3981 108.809C45.106 108.502 44.8352 108.173 44.6726 107.979C44.505 107.779 44.4151 107.679 44.3581 107.618C44.3305 107.601 44.2688 107.564 44.1589 107.513C43.9187 107.401 43.5917 107.281 43.1227 107.132C42.7672 107.019 42.0514 106.806 41.5671 106.643C41.0321 106.463 40.3042 106.197 39.6218 105.794C38.2013 104.956 37.5833 104.532 36.5202 103.919C35.6039 103.391 35.1038 103.183 34.8415 103.119C33.2218 102.725 32.0116 102.184 31.1921 101.811C30.7742 101.621 30.5679 101.527 30.402 101.463C29.8678 101.463 29.0243 101.585 27.7643 101.799C27.1654 101.901 26.4547 102.024 25.8102 102.101C25.248 102.168 24.3224 102.258 23.4157 102.102C21.4096 101.757 20.1927 100.321 19.6677 99.6234C19.0223 98.7657 18.5532 97.8256 18.2585 97.1527C17.7097 95.8994 17.5384 94.3583 17.4265 92.9095C17.3071 91.3647 17.2252 89.2796 17.0905 86.7327C17.0631 86.2155 16.8742 85.7921 16.5446 85.3402C16.3686 85.0989 16.165 84.8677 15.9099 84.5911C15.761 84.4298 15.4191 84.0679 15.1315 83.7113C13.704 82.1027 13.0921 80.9395 12.4587 79.1859L12.4362 79.1224L12.4157 79.0579C12.3282 78.7816 12.2743 78.6281 12.2087 78.4417C11.7293 77.0802 12.1818 75.6312 13.238 74.7357L13.2282 74.5716C13.1957 74.0889 13.1366 73.8545 13.0358 73.6038C12.9059 73.2808 12.6484 72.7969 12.027 71.8744C11.7378 71.4449 11.4011 71.1157 10.8806 70.6419C10.5086 70.3035 9.47965 69.4415 8.86786 68.2933C8.44677 67.5028 8.08651 66.7692 7.80146 66.1956C7.56944 65.7288 7.40733 65.4087 7.2829 65.1839C7.17448 65.0931 7.13412 65.068 6.80048 64.7933C6.3839 64.4503 5.11681 63.4293 4.73603 61.7025C4.706 61.6164 4.64991 61.4582 4.59833 61.2952C4.45019 60.8271 4.29404 60.2199 4.17841 59.4056C3.95229 57.813 3.89727 55.5239 4.27509 52.0169C4.42626 50.6139 4.60486 49.3976 4.84736 48.4476C4.96698 47.9791 5.13607 47.4314 5.40204 46.9105C5.62641 46.4711 6.17345 45.535 7.32196 44.9652L7.52411 44.8577C8.04367 44.5672 8.90542 43.9663 10.5397 42.4613C11.2731 41.7859 11.9476 41.0413 12.9157 40.0648C13.7051 39.2685 14.8539 38.1429 16.0954 37.4652C17.2805 36.8184 18.8722 35.8963 20.2321 35.0238C20.9149 34.5857 21.4956 34.1881 21.9226 33.8636C21.9992 33.8054 22.0629 33.7524 22.1179 33.7083C22.1309 33.603 22.1464 33.469 22.1628 33.3021C22.2597 32.3173 22.3926 30.6975 22.822 28.0404C23.0704 26.5027 23.3076 25.2005 23.5505 24.1829C23.6718 23.6746 23.809 23.177 23.9694 22.7269C24.1107 22.3305 24.3527 21.7264 24.7761 21.1663L24.9548 20.9437C25.8655 19.8707 27.0371 19.3983 27.7829 19.1585C28.493 18.9302 29.4722 18.734 29.8825 18.637C30.2548 18.5491 30.5857 18.4606 30.8747 18.3704C31.0369 18.3198 31.1732 18.2706 31.2868 18.2269C31.3297 18.0322 31.38 17.782 31.4323 17.4632C31.5586 16.694 31.6553 15.8963 31.8093 14.8255C32.2388 11.8382 33.2987 7.79285 34.5749 5.1888C34.641 5.05383 34.712 4.87527 34.8708 4.47494C35.0026 4.14249 35.201 3.64431 35.4567 3.15365C35.8778 2.34581 37.0731 0.332403 39.696 0.0472016L39.989 0.0208344ZM41.3601 7.56966C41.2825 7.75421 41.1973 7.95009 41.1061 8.13607C40.2395 9.90444 39.3274 13.2148 38.9597 15.7728C38.8334 16.651 38.7009 17.6958 38.5622 18.5404C38.425 19.3761 38.2276 20.3902 37.861 21.2865C37.1529 23.0177 35.6282 23.9114 34.6901 24.3519C33.6606 24.8352 32.5226 25.1444 31.6071 25.3607C31.4159 25.4058 31.232 25.4474 31.069 25.4837C30.8991 25.5216 30.7597 25.5519 30.6227 25.5833C30.6112 25.6295 30.5978 25.6777 30.5856 25.7288C30.4021 26.4977 30.1961 27.6022 29.9538 29.1019C29.5626 31.5232 29.4477 32.9424 29.3483 33.9525C29.2639 34.8104 29.1703 36.1698 28.2897 37.4554C27.7531 38.2387 26.9221 38.8979 26.403 39.2923C25.7641 39.7778 25.0071 40.2913 24.2429 40.7816C22.7084 41.7661 20.9643 42.7758 19.6638 43.4857C19.6626 43.4864 19.6592 43.4884 19.654 43.4915C19.6472 43.4956 19.6374 43.5019 19.6247 43.5101C19.5985 43.527 19.5626 43.5512 19.5173 43.5843C19.4245 43.6521 19.3069 43.7449 19.1638 43.8685C18.872 44.1204 18.5379 44.4431 18.1462 44.8382C17.4528 45.5376 16.4172 46.6466 15.5368 47.4574C14.0313 48.8438 12.8496 49.7915 11.7712 50.474C11.6722 50.9705 11.5646 51.7005 11.4538 52.7288C11.1129 55.8932 11.2047 57.5968 11.3288 58.471C11.3883 58.8901 11.4582 59.136 11.5046 59.2826C11.5363 59.3828 11.5547 59.4309 11.6071 59.5833C11.6113 59.5955 11.616 59.6143 11.6237 59.637C11.6668 59.6715 11.7164 59.7115 11.7809 59.763C11.895 59.8542 12.0501 59.9794 12.2106 60.1195C12.4746 60.3499 12.882 60.7288 13.2438 61.2523L13.3942 61.4847L13.6354 61.8988C13.8744 62.3276 14.107 62.7933 14.3161 63.2142C14.6058 63.7972 14.903 64.3999 15.2477 65.0511C15.2552 65.0592 15.2635 65.0693 15.2741 65.0804C15.3905 65.2017 15.5357 65.3339 15.8474 65.6175C16.4113 66.1307 17.297 66.9404 18.0886 68.1156C18.792 69.16 19.3707 70.1179 19.7702 71.1117C20.1124 71.963 20.2846 72.7465 20.3747 73.5306C20.4096 73.5905 20.4582 73.67 20.5261 73.7738C20.5772 73.8519 20.6312 73.9327 20.6989 74.0335C20.7629 74.1288 20.8396 74.2443 20.9177 74.3636C21.0359 74.5442 21.1735 74.7594 21.3122 75.0023L21.4509 75.2542L21.8386 75.9857L21.8434 76.807C21.8487 77.7194 21.538 78.7187 21.4597 78.9994C21.3839 79.2706 21.2754 79.5249 21.1413 79.7611C21.9369 80.5648 24.1263 83.1261 24.2985 86.3822C24.4411 89.0791 24.5135 90.9584 24.6247 92.3978C24.6791 93.1015 24.7366 93.6089 24.8005 93.9818C24.8662 94.3656 24.9193 94.4871 24.9118 94.4701C24.9994 94.67 25.1015 94.8826 25.2126 95.0843C25.2312 95.1181 25.2521 95.1495 25.2702 95.181C25.6151 95.1309 26.0176 95.0639 26.5065 94.9808C27.6284 94.7901 29.4593 94.4609 31.0231 94.555C31.8364 94.604 32.5239 94.8217 33.0046 95.0023C33.4683 95.1765 33.9518 95.4011 34.2839 95.5521C35.0141 95.8841 35.7042 96.1845 36.6159 96.4066C37.9671 96.7355 39.2301 97.4023 40.237 97.9827C41.0973 98.4787 42.5643 99.3991 43.404 99.8949C43.4143 99.9002 43.4524 99.9194 43.527 99.9505C43.629 99.9931 43.7667 100.045 43.9538 100.108C44.4145 100.263 44.728 100.347 45.3942 100.559C46.2875 100.843 47.9598 101.381 49.2585 102.53L49.5124 102.768L49.7448 103.008C49.9689 103.248 50.1629 103.48 50.2956 103.638C50.3184 103.665 50.3405 103.691 50.361 103.715C50.478 103.701 50.6129 103.685 50.7546 103.672C50.758 103.672 50.8259 103.664 50.9899 103.626C51.1567 103.588 51.3603 103.535 51.6374 103.458C52.1445 103.318 52.9214 103.091 53.737 102.913C55.4272 102.546 57.7206 102.284 60.2487 103.088C61.9271 103.622 64.7743 104.622 66.0104 107.245L66.1257 107.503L66.2429 107.799C66.8065 109.26 66.9943 110.509 67.1198 111.195C67.138 111.294 67.1555 111.374 67.1686 111.439C67.1716 111.442 67.1746 111.445 67.1774 111.448C67.2303 111.498 67.2702 111.536 67.3024 111.567C67.3392 111.569 67.3828 111.573 67.4333 111.575C67.8546 111.585 68.489 111.553 69.5241 111.461C69.7352 109.106 69.7358 105.002 69.8073 102.367C69.8448 100.986 69.9207 100.149 69.9919 99.5335C70.0731 98.8305 70.0808 98.8539 70.0808 98.7132C70.0801 97.651 70.1787 96.5741 70.278 95.6507C70.3456 95.022 70.4078 94.4918 70.4577 94.012C69.5987 93.963 68.8227 93.624 68.2292 93.098C67.5578 93.0588 66.8955 92.9075 66.3386 92.7542C65.6263 92.5582 64.7796 92.2726 63.7868 91.8978C61.2918 90.9554 60.1778 88.7273 59.6706 87.5667C59.2399 86.5812 58.9925 85.3976 58.8308 84.597C58.6308 83.6069 58.523 82.9981 58.3893 82.5501C58.091 81.5506 57.9568 80.147 57.903 78.9349C57.8454 77.6365 57.8642 76.1576 58.0026 74.8665C58.1673 73.3315 58.6229 71.9821 58.8669 71.1849C59.0793 70.4908 59.1184 70.2376 59.1286 70.1908C59.0555 69.8095 58.7966 69.3242 57.9069 67.8509C57.0935 66.5039 56.0007 64.6557 55.3298 62.1849C54.5362 59.2624 54.5466 56.7099 54.7321 54.8363C54.8244 53.9044 54.9609 53.1383 55.0534 52.6273C55.0651 52.5625 55.0737 52.5052 55.0827 52.4554C55.0558 52.3441 55.0333 52.2627 55.0017 52.1712C54.9496 52.0209 54.8503 51.7807 54.5954 51.3753C52.8092 48.5348 51.3592 46.5348 50.7399 45.8919C49.9862 45.1096 49.1934 44.3304 48.6608 43.7161C48.0062 42.9611 47.4505 42.1469 47.0671 41.0452C46.4929 39.3954 46.4657 37.4813 46.5124 36.1087C46.5601 34.7063 46.7285 33.2053 46.7722 32.6439C46.975 30.0347 48.5126 28.453 49.5544 27.2249L49.7351 27.0208C50.6393 26.0386 51.6337 25.545 52.1374 25.2767C52.6494 25.0039 52.9927 24.8147 53.4518 24.3929L53.6491 24.2181C54.6389 23.3843 55.6503 23.0721 56.2556 22.9027C56.9234 22.7157 56.9406 22.7193 57.07 22.6507L57.1159 22.6263C57.4684 22.446 57.7441 22.3345 57.9489 22.2542C58.075 22.1621 58.2056 22.0791 58.3395 22.0052C58.2741 21.9451 58.203 21.8818 58.1042 21.7933C58.0048 21.7042 57.878 21.5909 57.7477 21.4691C57.4874 21.2256 57.1507 20.893 56.8249 20.4808C56.6455 20.2539 56.4744 20.0807 55.8425 19.6702C55.4897 19.4411 55.0605 19.1809 54.444 18.806C53.8438 18.4409 53.1121 17.995 52.2272 17.4349C51.3931 16.9069 50.6179 16.6295 49.862 16.4105C49.6709 16.3551 48.869 16.138 48.5886 16.0531C48.1993 15.9352 47.4314 15.694 46.7214 15.2015C45.5457 14.3858 44.7989 13.262 44.3073 12.3988C43.8009 11.5094 43.3412 10.4771 42.9431 9.59798C42.4831 8.58233 42.0268 8.10687 41.7067 7.83431C41.5987 7.74236 41.4864 7.65848 41.3601 7.56966Z" fill="black"/>
</g>
<defs>
<filter id="filter0_d_369_244" x="0" y="0" width="81.7756" height="126.501" filterUnits="userSpaceOnUse" color-interpolation-filters="sRGB">
<feFlood flood-opacity="0" result="BackgroundImageFix"/>
<feColorMatrix in="SourceAlpha" type="matrix" values="0 0 0 0 0 0 0 0 0 0 0 0 0 0 0 0 0 0 127 0" result="hardAlpha"/>
<feOffset dy="4"/>
<feGaussianBlur stdDeviation="2"/>
<feComposite in2="hardAlpha" operator="out"/>
<feColorMatrix type="matrix" values="0 0 0 0 0 0 0 0 0 0 0 0 0 0 0 0 0 0 0.25 0"/>
<feBlend mode="normal" in2="BackgroundImageFix" result="effect1_dropShadow_369_244"/>
<feBlend mode="normal" in="SourceGraphic" in2="effect1_dropShadow_369_244" result="shape"/>
</filter>
</defs>
</svg>
