<svg width="138" height="180" viewBox="0 0 138 180" fill="none" xmlns="http://www.w3.org/2000/svg">
<g filter="url(#filter0_d_369_326)">
<path fill-rule="evenodd" clip-rule="evenodd" d="M105.798 0.142856C107.709 -0.398999 109.716 0.647944 110.281 2.48172C110.712 3.88175 110.177 5.33415 109.05 6.18485C109.05 10.5955 109.06 12.9822 109.189 14.1077C109.468 16.5263 109.705 18.0162 109.889 19.0501C110.058 20.0062 110.228 20.8 110.315 21.5237C110.487 22.9465 110.643 23.8991 110.828 24.5052C110.818 24.4715 110.852 24.5736 111.027 24.889C111.183 25.1696 111.386 25.5085 111.632 25.9104C112.098 26.6721 112.719 27.6662 113.181 28.5725C113.727 29.6413 114.031 30.3564 114.376 30.9593C114.591 30.9907 114.805 31.0491 115.013 31.1399C115.146 31.1982 115.257 31.2457 115.359 31.2893C115.454 31.3299 115.563 31.3762 115.66 31.4202C115.835 31.4995 116.089 31.6212 116.36 31.8177L116.478 31.9065L116.662 32.0638C116.831 32.2193 116.954 32.3618 117.009 32.4241C117.084 32.5103 117.11 32.54 117.125 32.5559C117.926 33.285 119.196 34.2976 121.364 36.5833C122.804 38.101 125.354 40.8678 127.038 42.8186C127.908 43.8261 128.526 44.625 128.984 45.2249C129.495 45.8927 129.673 46.1243 129.794 46.2434C130.264 46.707 130.919 47.3151 131.419 47.8391C131.955 48.4013 132.529 49.0778 132.956 49.8919C133.204 50.3659 133.552 51.0733 133.75 52.0784C133.945 53.068 133.974 54.2389 133.759 55.6878C133.657 56.3733 133.489 56.9782 133.336 57.5345C133.179 58.102 133.014 58.7011 132.845 59.5169C132.41 61.6107 131.031 62.6984 131.624 66.4221C131.904 68.177 131.759 69.3523 131.361 70.7679C130.965 72.1753 130.518 73.2869 129.859 75.9173C129.608 76.92 129.338 77.8896 129.169 78.5432C128.982 79.2677 128.875 79.7633 128.832 80.1643C128.733 81.0823 128.589 82.097 128.456 83.0852C128.32 84.0926 128.191 85.1015 128.104 86.0882C128.058 86.6169 127.977 87.1857 127.904 87.6936C127.828 88.2262 127.758 88.697 127.713 89.1243C127.7 89.2412 127.69 89.3457 127.682 89.4388C127.82 89.5136 127.973 89.5991 128.114 89.6819C128.724 90.0403 129.559 90.6087 130.192 91.5667C130.925 92.675 130.566 93.8033 130.531 93.9407C130.415 94.4024 130.27 94.9065 130.139 95.3694C130.002 95.8493 129.875 96.2991 129.772 96.718C129.668 97.144 129.605 97.4746 129.58 97.7132C129.573 97.7756 129.57 97.8217 129.569 97.8528C129.737 98.4163 129.793 99.0869 129.808 99.638C129.828 100.326 129.791 101.132 129.679 101.952C129.567 102.765 129.37 103.661 129.034 104.498C128.71 105.306 128.177 106.261 127.265 106.955C126.98 107.173 126.684 107.316 126.522 107.392C126.343 107.476 126.135 107.563 125.97 107.633C125.612 107.785 125.203 107.96 124.705 108.218C123.388 108.9 122.367 109.472 121.599 109.996C120.816 110.532 120.458 110.911 120.306 111.151C119.926 111.752 119.587 112.334 119.041 113.905C119.038 113.925 119.027 114.016 119.028 114.25C119.029 114.558 119.054 115.199 119.026 115.92C118.966 117.467 118.679 119.634 117.625 123.033C116.824 125.614 115.833 126.771 114.898 127.836C114.042 128.811 112.526 128.936 111.51 128.115C111.349 127.985 111.212 127.837 111.097 127.68C107.719 127.45 105.762 127.168 102.896 128.975C98.9841 131.442 92.4579 135.867 89.7508 138.623C89.0624 139.324 88.5133 140 87.9608 140.702C87.4517 141.349 86.8121 142.19 86.1141 142.908C85.3596 143.685 84.4174 144.453 83.1541 145.014C81.8977 145.571 80.5269 145.833 79.0213 145.876C75.6604 145.972 73.486 145.679 71.6844 145.357C69.8849 145.035 69.0027 144.813 67.5829 144.802C63.8904 144.772 60.8531 144.749 58.5926 144.844C57.4592 144.892 56.6421 144.966 56.0975 145.057C56.0212 145.07 55.9557 145.082 55.9012 145.093C55.6236 145.331 55.3303 145.59 55.0584 145.857C54.6461 146.261 54.4092 146.555 54.3143 146.706C52.8663 149.023 51.6188 151.143 50.4998 154.876C49.6448 157.729 48.4093 161.227 47.1082 163.279C45.7877 165.361 43.8402 168.049 42.2196 169.935C40.9518 171.41 38.678 171.62 37.1405 170.404C36.3098 169.746 35.8644 168.807 35.8299 167.85C35.524 167.731 35.2112 167.602 34.9002 167.456C33.5835 166.838 32.0945 165.883 31.0692 164.386C30.1324 163.018 29.3401 161.794 28.745 160.807C28.1989 159.901 27.6927 158.995 27.4832 158.357C27.3184 157.855 27.1754 157.207 27.0516 156.651C26.9165 156.043 26.7811 155.431 26.617 154.833C26.4518 154.232 26.2768 153.718 26.0877 153.32C26.0056 153.146 25.9284 153.016 25.8641 152.92C25.6148 152.87 25.2483 152.82 24.7401 152.771C23.6328 152.665 22.1823 152.596 20.3914 152.496C19.6418 152.454 18.6073 152.42 17.7186 152.213C16.6969 151.976 15.5769 151.456 14.8026 150.296C13.919 148.972 13.3773 147.714 12.9706 146.234C12.6656 145.124 12.3058 143.792 12.078 142.469C11.8544 141.171 11.7212 139.691 11.9842 138.312C12.4454 135.895 13.3655 134.673 12.8094 131.684C12.1005 127.875 11.9106 125.894 10.9813 122.559C10.7282 121.651 10.5819 120.667 10.4832 120.188C10.3686 119.632 10.242 119.234 9.98813 118.807C9.39638 117.811 8.83246 117.263 8.10434 116.655C7.98767 116.557 7.84579 116.456 7.63364 116.317C7.45635 116.2 7.13564 115.998 6.86118 115.806C6.23208 115.366 5.5115 114.767 4.88657 113.811C4.59732 113.368 4.49866 112.884 4.4725 112.766C4.42165 112.535 4.38167 112.282 4.34946 112.038C4.28418 111.545 4.22958 110.937 4.18442 110.307C4.09352 109.038 4.03178 107.547 4.00082 106.402C3.96682 105.143 4.98959 104.094 6.29477 104.036C6.08788 102.589 6.8571 101.117 8.30161 100.448C10.3085 99.5175 12.2305 98.7261 13.6522 97.9934C15.361 97.1129 17.2165 96.1247 18.8622 94.47C24.1063 89.1971 25.069 87.5342 28.2498 82.8929C28.2611 82.8764 28.2725 82.8602 28.284 82.844C28.2927 82.8319 28.3016 82.8199 28.3104 82.8079C28.5082 82.537 28.7389 82.3006 28.995 82.1018C29.0087 82.0911 29.023 82.0811 29.037 82.0706C29.2086 81.9413 29.3906 81.8278 29.5809 81.7317C29.5987 81.7227 29.6166 81.7141 29.6346 81.7054C29.667 81.6897 29.6995 81.6742 29.7323 81.6595C29.7778 81.639 29.8243 81.6205 29.8709 81.6018C29.8734 81.6009 29.8754 81.5989 29.8778 81.5979C29.9234 81.5797 29.9697 81.5626 30.0164 81.5462C30.0249 81.5432 30.0334 81.5403 30.0418 81.5374C30.0846 81.5227 30.1281 81.5096 30.1717 81.4964C30.1864 81.4919 30.2009 81.487 30.2157 81.4827C30.2442 81.4744 30.2727 81.4659 30.3016 81.4583C30.344 81.447 30.3867 81.4368 30.4295 81.427C30.4357 81.4256 30.4419 81.4245 30.4481 81.4231C30.4906 81.4137 30.5332 81.4047 30.576 81.3968C30.5899 81.3942 30.604 81.3914 30.618 81.3889C31.2086 81.2857 31.6213 81.1908 32.1414 81.0784C32.66 80.9664 33.2496 80.846 33.9881 80.7669L34.1024 80.7552L34.2166 80.7503C35.3918 80.6965 36.1426 80.5925 36.5907 80.4759C36.6306 80.4655 36.6655 80.4545 36.6952 80.4456C36.8264 80.3049 36.9555 80.1681 37.0809 80.0393L37.8563 79.2542C37.7947 79.2358 37.7312 79.2179 37.6688 79.1966C36.6924 78.8632 35.7208 78.1856 35.1151 77.0647C34.6991 76.2949 34.2403 75.3296 33.8163 74.4388C33.3725 73.5065 32.9505 72.6197 32.5555 71.8655C32.2687 71.3179 31.9908 70.427 31.7674 69.5315C31.5137 68.5142 31.2504 67.164 31.0789 65.5471C30.7363 62.3151 30.7552 57.9621 31.9959 53.0491C33.0436 48.9005 33.9936 46.1839 36.0155 44.346C36.4022 43.9945 36.8109 43.6444 37.1659 43.3401C37.5377 43.0214 37.8661 42.7392 38.1698 42.4593C38.8065 41.8724 39.1291 41.4816 39.2762 41.221C40.2123 39.5631 41.5695 38.1389 43.0174 36.6438C44.5322 35.0798 46.4236 33.1731 48.8963 30.3206C51.0505 27.8356 52.7085 26.2552 54.1493 24.8167C55.5623 23.4059 56.8509 22.054 58.4979 19.8538C59.7049 18.2412 61.4241 16.3222 63.4774 14.7708C65.4736 13.2625 68.1924 11.7951 71.3163 11.7991C72.9933 11.8013 74.371 12.0329 75.492 12.2483C76.6818 12.477 77.3591 12.6324 78.1444 12.6907C80.6358 12.8757 83.0382 13.6927 84.3739 14.0706C84.7751 14.1841 85.0779 14.2592 85.3075 14.3089C85.52 13.9545 85.8371 13.3684 86.325 12.4573C86.8796 11.4218 87.5769 10.1298 88.3797 8.82157C89.1789 7.51926 90.1295 6.12122 91.2235 4.87723C92.2961 3.65747 93.6602 2.40767 95.3329 1.6077L95.5965 1.49247C96.2065 1.25122 96.7581 1.19558 97.0018 1.17411C97.3462 1.14379 97.6946 1.14107 97.95 1.1409C98.5385 1.14052 99.0517 1.15482 99.784 1.13016C101.157 1.08393 103.137 0.897342 105.798 0.142856ZM104.239 7.61161C102.576 7.90128 101.177 8.01266 100.037 8.05106C99.248 8.07762 98.5434 8.068 98.1151 8.06571C97.7335 8.33034 97.2698 8.74166 96.7401 9.34403C96.0086 10.1758 95.2904 11.2093 94.5995 12.3352C93.9122 13.4552 93.2982 14.5904 92.745 15.6233C92.2473 16.5526 91.6819 17.6307 91.2108 18.3225C90.6646 19.1246 90.0203 19.7818 89.2938 20.2884C87.8982 21.2614 86.3706 21.3715 85.2704 21.2952C84.2062 21.2213 83.1483 20.9439 82.3329 20.7132C80.4608 20.1835 79.0991 19.7073 77.5877 19.595C76.2428 19.4951 74.9664 19.2108 74.0741 19.0393C73.1133 18.8547 72.2784 18.7262 71.3065 18.7249C70.5245 18.724 69.3745 19.13 67.9422 20.2122C66.5668 21.2515 65.2977 22.6414 64.3602 23.8938C62.442 26.4565 60.9018 28.0695 59.3534 29.6155C57.8327 31.1338 56.3935 32.5027 54.4452 34.7503C51.8211 37.7773 49.7843 39.8298 48.3036 41.3587C46.7563 42.9562 46.0512 43.7604 45.6219 44.5208C44.9335 45.74 43.9589 46.7251 43.1688 47.4534C42.7589 47.8312 42.3406 48.1913 41.9745 48.5052C41.5916 48.8333 41.2716 49.1068 40.9784 49.3733C40.7112 49.6162 40.1107 50.3246 39.0106 54.6809C37.9953 58.7015 37.9835 62.2499 38.2586 64.846C38.3961 66.143 38.6048 67.1887 38.787 67.9192C38.945 68.5528 39.0529 68.8317 39.0497 68.8401L39.0038 68.7561C39.4714 69.6492 39.9528 70.6649 40.3797 71.5618C40.5478 71.9149 40.7082 72.2467 40.8573 72.555C41.0121 72.5646 41.1857 72.5813 41.369 72.6096C41.6898 72.6594 42.1259 72.7569 42.5956 72.97L42.7987 73.0696L43.0741 73.2229C44.3205 73.9713 45.0164 75.1339 45.3602 76.2415L45.4286 76.4788L45.4852 76.7102C45.7521 77.8817 45.7294 79.2793 45.4422 80.3968C45.0824 81.7963 44.1979 82.8373 43.6454 83.4417C43.3421 83.7733 43.0156 84.0996 42.7508 84.3655C42.4787 84.6388 42.2466 84.8741 42.0282 85.1106C40.9917 86.3257 39.5702 86.8759 38.4813 87.1595C37.3281 87.4597 36.0248 87.5942 34.7147 87.6595C34.4014 87.6962 34.1248 87.7482 33.7264 87.8343C33.6449 87.8519 33.5562 87.8702 33.4618 87.8909C30.7772 91.8282 29.2836 94.022 24.0829 99.2513C21.5721 101.776 18.8001 103.202 17.0663 104.095C15.4974 104.903 12.9957 105.963 11.4403 106.684C10.5928 107.077 9.6641 107.123 8.82895 106.881C8.8621 107.87 8.91508 109.011 8.9852 109.991C9.02791 110.587 9.07467 111.093 9.12289 111.457C9.12975 111.509 9.13633 111.555 9.14243 111.596C9.29321 111.771 9.46628 111.915 9.69418 112.074C9.89589 112.215 10.0569 112.314 10.3524 112.508C10.6128 112.679 10.9355 112.899 11.2635 113.173C12.2399 113.989 13.221 114.925 14.1678 116.518C14.7756 117.54 15.0339 118.471 15.203 119.291C15.388 120.189 15.4248 120.63 15.6297 121.366C16.629 124.952 16.8918 127.363 17.5448 130.872C18.3041 134.953 16.9367 137.991 16.7166 139.143C16.6017 139.746 16.6354 140.609 16.826 141.716C17.0124 142.799 17.315 143.936 17.6229 145.057C17.9062 146.088 18.2467 146.872 18.7918 147.708C18.8084 147.713 18.8274 147.72 18.8504 147.726C18.9926 147.759 19.2015 147.79 19.5243 147.817C19.8541 147.844 20.2049 147.861 20.6707 147.887C22.3732 147.982 23.9809 148.058 25.2186 148.177C25.8395 148.237 26.4499 148.313 26.9823 148.428C27.3871 148.516 28.1012 148.693 28.7127 149.135L28.8338 149.227L28.9784 149.348C29.6866 149.966 30.1519 150.742 30.4676 151.408C30.8165 152.145 31.0721 152.939 31.2694 153.658C31.4677 154.38 31.6267 155.103 31.7567 155.687C31.898 156.322 31.9913 156.724 32.0721 156.97C32.0779 156.984 32.1292 157.112 32.2791 157.396C32.4293 157.68 32.6388 158.049 32.9081 158.495C33.4456 159.387 34.188 160.533 35.0897 161.85C35.4618 162.393 36.113 162.886 37.0155 163.31C37.3665 163.475 37.7298 163.615 38.0897 163.74C39.107 162.411 40.1569 160.919 40.9432 159.679C41.6848 158.509 42.7023 155.838 43.5643 152.962C44.9294 148.408 46.5253 145.702 48.1239 143.144C49.0816 141.611 50.7685 140.189 51.5164 139.568L51.7284 139.403C52.8038 138.613 54.1259 138.356 54.8602 138.234C55.8561 138.068 57.0318 137.978 58.2752 137.925C60.7692 137.82 64.0285 137.847 67.6444 137.876C69.876 137.894 71.5936 138.297 73.0057 138.549C74.4155 138.801 76.0656 139.032 78.8075 138.954C79.5631 138.933 79.9361 138.812 80.1258 138.728C80.3087 138.647 80.5173 138.513 80.8358 138.185C81.2106 137.799 81.5678 137.333 82.201 136.529C82.7913 135.779 83.5314 134.857 84.4979 133.873C87.878 130.432 95.1261 125.587 98.9325 123.187C104.615 119.604 109.704 120.694 112.815 120.844C112.965 120.851 113.113 120.869 113.258 120.893C114.005 118.305 114.179 116.748 114.218 115.749C114.241 115.147 114.22 114.789 114.218 114.268C114.216 113.807 114.228 113.16 114.471 112.462L114.712 111.794C115.256 110.337 115.693 109.551 116.193 108.758C116.838 107.737 117.803 106.923 118.808 106.236C119.83 105.537 121.068 104.855 122.42 104.155C123.091 103.807 123.642 103.572 124.024 103.41C124.153 103.356 124.243 103.315 124.311 103.285C124.361 103.217 124.448 103.081 124.545 102.839C124.704 102.443 124.83 101.927 124.909 101.349C124.987 100.779 125.011 100.217 124.998 99.763C124.983 99.2304 124.924 99.0678 124.962 99.1731C124.704 98.4507 124.743 97.7132 124.793 97.2454C124.849 96.7159 124.965 96.1627 125.089 95.6604C125.214 95.1511 125.363 94.626 125.497 94.1536C125.548 93.9753 125.595 93.8051 125.64 93.6429C125.628 93.6353 125.616 93.6262 125.602 93.6184C125.403 93.5014 125.251 93.4249 124.963 93.2669C124.725 93.1364 124.382 92.9442 124.056 92.6956C123.493 92.2678 123.223 91.7307 123.089 91.3606C122.952 90.984 122.899 90.6195 122.875 90.3352C122.828 89.7712 122.872 89.1652 122.927 88.6546C122.983 88.1265 123.066 87.5584 123.138 87.0618C123.213 86.5406 123.276 86.0885 123.31 85.6995C123.407 84.6037 123.548 83.5088 123.684 82.4934C123.824 81.459 123.955 80.531 124.046 79.6888C124.126 78.9461 124.305 78.1859 124.5 77.4319C124.713 76.6069 124.921 75.8734 125.181 74.8382C125.826 72.2593 126.464 70.4617 126.716 69.5657C126.965 68.678 127.032 68.154 126.867 67.1204C126.472 64.64 126.771 62.6485 127.212 61.1243C127.428 60.3763 127.676 59.7535 127.86 59.2962C127.958 59.0542 128.023 58.8944 128.076 58.7532C128.131 58.6072 128.132 58.5802 128.125 58.6165C128.326 57.6466 128.527 56.9256 128.684 56.3538C128.845 55.7705 128.939 55.4146 128.996 55.0345C129.151 53.9953 129.102 53.3426 129.022 52.9348C128.945 52.5431 128.821 52.2785 128.658 51.9671C128.52 51.7034 128.283 51.3896 127.871 50.9583C127.423 50.4889 126.99 50.0993 126.347 49.4651C125.925 49.0499 125.487 48.4557 125.104 47.9544C124.669 47.3846 124.116 46.6685 123.334 45.763C121.715 43.888 119.219 41.1813 117.806 39.6927C116.629 38.4515 115.795 37.6724 115.113 37.0618C114.966 37.0407 114.818 37.0072 114.672 36.9583C114.482 36.8947 114.293 36.8315 114.106 36.7688C113.423 36.5399 112.788 36.1964 112.083 35.6184L112 35.5501L111.925 35.4749C110.195 33.7757 109.517 31.887 108.861 30.6009C108.5 29.8934 107.998 29.0904 107.483 28.2493C107.239 27.8501 106.988 27.4353 106.779 27.0589C106.59 26.7183 106.35 26.2583 106.212 25.805C105.896 24.7719 105.704 23.4505 105.536 22.055C105.468 21.4883 105.358 21.0285 105.144 19.8245C104.945 18.6981 104.696 17.1191 104.407 14.6155C104.261 13.3466 104.242 11.0667 104.239 7.61161Z" fill="#151515"/>
</g>
<defs>
<filter id="filter0_d_369_326" x="0" y="0" width="137.908" height="179.194" filterUnits="userSpaceOnUse" color-interpolation-filters="sRGB">
<feFlood flood-opacity="0" result="BackgroundImageFix"/>
<feColorMatrix in="SourceAlpha" type="matrix" values="0 0 0 0 0 0 0 0 0 0 0 0 0 0 0 0 0 0 127 0" result="hardAlpha"/>
<feOffset dy="4"/>
<feGaussianBlur stdDeviation="2"/>
<feComposite in2="hardAlpha" operator="out"/>
<feColorMatrix type="matrix" values="0 0 0 0 0 0 0 0 0 0 0 0 0 0 0 0 0 0 0.25 0"/>
<feBlend mode="normal" in2="BackgroundImageFix" result="effect1_dropShadow_369_326"/>
<feBlend mode="normal" in="SourceGraphic" in2="effect1_dropShadow_369_326" result="shape"/>
</filter>
</defs>
</svg>
