<svg width="117" height="153" viewBox="0 0 117 153" fill="none" xmlns="http://www.w3.org/2000/svg">
<g filter="url(#filter0_d_369_297)">
<path fill-rule="evenodd" clip-rule="evenodd" d="M102.664 0.159631C104.566 -0.412742 106.591 0.60278 107.188 2.42721C107.232 2.5621 107.329 2.77903 107.556 3.17526C107.668 3.37029 107.789 3.57076 107.939 3.82076C108.082 4.0592 108.248 4.33779 108.414 4.63131C109.089 5.82375 109.888 7.48896 109.983 9.64498C110.013 10.3416 110.175 11.1791 110.467 12.2827C110.611 12.8264 110.775 13.3941 110.957 14.0219C111.136 14.6382 111.332 15.3102 111.521 16.0053C112.278 18.8018 112.993 22.2432 112.495 26.2212C112.191 28.6559 111.865 30.7872 111.628 32.4741C111.381 34.2356 111.242 35.4381 111.232 36.2758C111.186 39.9217 111.286 42.5966 111.434 43.7114C111.486 44.1044 111.466 44.4907 111.386 44.8579C111.789 45.7739 112.321 47.1896 112.616 49.0141L112.779 50.0161L112.353 50.9428C111.771 52.2077 110.806 53.3654 109.986 54.2866C109.549 54.7768 109.077 55.2831 108.62 55.7719C108.154 56.2716 107.693 56.7661 107.233 57.2797C105.363 59.3679 103.808 61.4647 103.142 63.8169C102.163 67.2718 101.537 70.676 101.3 73.4243C101.181 74.8014 101.166 75.9482 101.233 76.8178C101.297 77.6598 101.42 77.9837 101.418 77.9946L101.685 78.4672C102.319 79.5741 102.9 80.4638 103.451 81.3003C104.058 82.2214 104.724 83.218 105.27 84.2983C105.753 85.2555 106.539 86.6794 107.105 87.9087C107.714 89.2315 108.305 90.7907 108.51 92.5151C108.555 92.8949 108.72 93.5795 109.01 94.894C109.268 96.0633 109.572 97.5316 109.749 99.0493C109.923 100.542 109.998 102.268 109.697 103.919C109.395 105.569 108.648 107.498 106.861 108.894C105.482 109.971 103.722 110.671 101.908 111.154C99.7428 111.73 97.5224 111.56 95.8704 111.58C93.9728 111.602 91.3265 111.766 86.9876 112.79C87.1867 112.743 86.6785 112.841 85.4886 114.381C84.4272 115.755 83.2304 117.727 81.8343 120.255C80.7812 122.163 80.4854 123.391 80.0325 125.129C79.8976 125.647 79.6626 126.125 79.5169 126.408C79.3392 126.753 79.1202 127.135 78.8811 127.535C78.4012 128.336 77.7553 129.341 76.9915 130.499C75.4609 132.817 73.3551 135.895 70.927 139.451C69.9568 140.871 69.4742 141.617 69.2395 142.014C69.2322 142.026 69.2254 142.038 69.219 142.049C68.7904 143.502 67.3997 144.568 65.7483 144.568C63.7554 144.568 62.1389 143.017 62.1389 141.105C62.139 140.972 62.1476 140.843 62.1614 140.716C62.1473 140.592 62.1399 140.465 62.1399 140.337C62.1399 139.878 62.1343 139.631 62.1204 139.467C61.7687 137.804 61.1983 135.76 60.6067 134.228C59.9393 132.999 59.3451 132.004 58.8089 131.129C58.2683 130.248 57.7071 129.361 57.2464 128.542C56.5784 127.356 56.1949 125.985 55.9466 125.168C55.7052 124.374 55.535 123.891 55.3723 123.562C55.117 123.423 54.6956 123.24 54.0296 123.004C53.3612 122.768 52.5831 122.525 51.6487 122.235C50.7368 121.952 49.701 121.632 48.6194 121.267C47.961 121.045 47.357 120.873 46.761 120.708C46.2103 120.556 45.5375 120.377 44.9475 120.177C43.7345 119.766 41.9 118.96 40.969 116.888C40.5863 116.036 40.4555 115.096 40.3841 114.658C39.5436 109.504 38.7775 100.063 38.4778 97.4965C38.2415 95.4722 38.4945 93.3539 38.5716 92.1577C38.6611 90.7665 38.5347 90.4524 38.554 90.4741C38.2834 90.0686 37.9571 89.6452 37.5882 89.2856C37.2067 88.9139 36.8649 88.693 36.5862 88.5835C34.2927 87.683 33.281 87.2681 31.8382 87.1333C29.9952 86.9611 27.8915 86.9748 25.4602 86.8608C24.3587 86.8092 23.1884 86.7277 22.1653 86.5561C21.6521 86.47 21.0777 86.345 20.5198 86.1499C20.0048 85.9698 19.2247 85.6351 18.5462 84.9848C17.5624 84.0419 16.7085 82.8932 15.9632 81.6977C15.3406 81.4669 14.8194 80.9922 14.5706 80.3442C9.90503 68.1867 8.28363 64.1738 6.58035 61.019C5.47299 59.2821 4.79288 57.8723 4.48172 56.9692C4.28804 56.4069 4.1409 55.8758 4.00711 54.3452C4.00592 54.3315 4.0061 54.3178 4.00516 54.3042C4.00244 54.264 4.0008 54.2237 4.00027 54.1831C3.9996 54.1375 4.00014 54.0923 4.00223 54.0473C4.0028 54.0353 4.00244 54.0232 4.0032 54.0112C4.09275 52.602 4.29062 50.5258 5.87723 48.3442C6.88514 46.9585 8.39945 46.3351 9.71316 46.0454C11.0294 45.7551 12.4362 45.7334 13.6321 45.7729C14.7427 45.8096 16.1068 45.9269 16.804 45.9633C17.1115 45.9794 17.3405 45.9853 17.5071 45.9829C17.8625 45.7017 18.2357 45.3177 18.6936 44.8159C18.9533 44.5314 19.2747 44.1736 19.5843 43.8637C19.89 43.5577 20.3025 43.1767 20.8001 42.8755C22.395 41.9099 24.7505 41.407 28.3196 41.1421C30.1687 41.0047 31.2681 40.4875 32.4554 39.8901C33.985 39.1203 35.4873 38.6894 36.7278 38.3891C38.1091 38.0547 38.8144 37.9435 39.4221 37.7387C39.4372 37.7297 39.4703 37.7097 39.5247 37.6704C39.5942 37.6201 39.6712 37.5599 39.7932 37.4643C39.9052 37.3766 40.0552 37.2589 40.219 37.1381C40.9497 36.5995 41.9285 36.0214 43.4632 35.6713C46.8447 34.9 48.9717 34.7914 50.5725 34.8266C52.3633 34.8661 52.594 34.9718 53.2249 34.8178C54.7992 34.4335 55.8742 33.8945 56.597 33.2885C56.7326 33.1747 56.974 32.8765 57.4329 32.1665C57.8213 31.5655 58.3614 30.6769 58.97 29.8715C59.525 29.1372 60.6083 28.0666 61.8645 26.893C63.1747 25.6691 64.8333 24.1876 66.6673 22.5805C69.9604 19.6949 73.0252 17.2804 74.8274 16.1079C76.206 15.211 77.0256 14.6682 77.5501 14.187C77.5533 14.1839 77.5692 14.1698 77.6009 14.1381C77.6385 14.1005 77.6887 14.0495 77.7513 13.9848C77.8771 13.8546 78.0374 13.6857 78.2395 13.4731C78.6402 13.0517 79.1802 12.4829 79.847 11.7983C81.182 10.4275 83.0252 8.59111 85.3235 6.4819C87.5573 4.43197 89.7189 3.74272 91.6624 3.65084C92.5664 3.60816 93.3632 3.6996 93.9173 3.76412C94.217 3.79904 94.4104 3.82144 94.5843 3.83444C94.5971 3.83539 94.6099 3.83563 94.6214 3.83639C96.7306 3.1202 98.7605 2.20864 99.9583 1.54733L100.099 1.47018L100.249 1.41158C100.497 1.31469 100.783 1.21326 101.102 1.10592C101.514 0.67943 102.044 0.346312 102.664 0.159631ZM101.064 6.20944C99.5921 6.92273 97.7233 7.70361 95.8382 8.32174L95.5891 8.40377L95.3274 8.43112C94.5774 8.5115 93.7654 8.3969 93.3382 8.34713C92.7951 8.28388 92.3559 8.24156 91.8987 8.26315C91.1189 8.30005 90.0526 8.53141 88.6497 9.81881C86.4314 11.8545 84.6522 13.6265 83.3626 14.9506C82.7172 15.6133 82.194 16.164 81.7932 16.5854C81.4327 16.9646 81.0846 17.3328 80.8753 17.5249C79.9908 18.3363 78.7687 19.1218 77.5276 19.9292C76.0165 20.9122 73.1545 23.1479 69.9114 25.9897C68.0913 27.5846 66.4767 29.0275 65.221 30.2006C63.9116 31.4238 63.1366 32.2237 62.8655 32.5825C62.3925 33.2084 62.0096 33.8457 61.5227 34.5991C61.1065 35.2431 60.5197 36.1299 59.762 36.7651C58.3217 37.9726 56.4994 38.7827 54.4114 39.2924C52.9302 39.654 51.448 39.4646 50.4622 39.4428C49.2862 39.417 47.5698 39.4805 44.5755 40.1635C43.8394 40.3315 43.4673 40.5651 43.1497 40.7993C43.0516 40.8716 42.958 40.9461 42.8362 41.0415C42.7246 41.1289 42.5765 41.2445 42.4212 41.3569C42.1003 41.589 41.6522 41.8782 41.0647 42.0796C40.1733 42.3849 38.8254 42.6428 37.9046 42.8657C36.8243 43.1272 35.7367 43.4521 34.6897 43.979C33.3082 44.6742 31.5162 45.5357 28.6907 45.7456C25.2102 46.0039 23.8916 46.4618 23.3665 46.7797C23.3762 46.7739 23.3531 46.787 23.2932 46.8374C23.2342 46.8871 23.1573 46.9586 23.0579 47.0581C22.8454 47.2708 22.6259 47.5168 22.3147 47.8579C21.7564 48.4698 20.935 49.3605 19.8948 50.0288C19.1786 50.4886 18.3705 50.5591 18.0022 50.5835C17.5277 50.6148 17.0111 50.5982 16.5423 50.5737C15.4519 50.5167 14.6148 50.4251 13.4671 50.3872C12.404 50.352 11.4924 50.3905 10.7903 50.5454C10.0871 50.7006 9.88068 50.907 9.82254 50.9868C9.05258 52.0456 8.89461 53.0201 8.81668 54.1274C8.86843 54.6816 8.91468 54.9867 8.94949 55.1635C8.98018 55.3192 9.00112 55.3807 9.0491 55.52C9.2106 55.9888 9.71326 57.099 10.7346 58.6899L10.7805 58.7612L10.8206 58.8354C12.323 61.6082 13.7234 64.9097 16.5755 72.2446C18.0306 72.1455 19.4635 72.9048 20.1096 74.2514C21.2601 76.6492 22.2454 78.5312 23.2884 79.7094C23.325 79.7163 23.3646 79.7257 23.4075 79.7329C23.9707 79.8273 24.7738 79.8951 25.8128 79.9438C27.6631 80.0305 30.5121 80.0505 32.5374 80.2397C35.2425 80.4924 37.2934 81.3791 39.3186 82.1743C42.1111 83.2707 43.8431 85.5473 44.6634 86.7856C46.0081 88.8158 45.8618 91.2331 45.7747 92.5854C45.6624 94.3288 45.5051 95.4878 45.6497 96.726C46.0131 99.8383 46.6973 108.58 47.5139 113.587C47.5207 113.629 47.5274 113.668 47.5335 113.705C47.8328 113.798 48.2028 113.9 48.7581 114.053C49.3841 114.226 50.152 114.442 51.0149 114.734C51.9939 115.064 52.9402 115.358 53.8684 115.646C54.7737 115.927 55.6948 116.212 56.5237 116.505C57.3406 116.794 58.2113 117.138 58.9905 117.569C59.6889 117.955 60.5898 118.557 61.2571 119.5L61.388 119.694L61.5325 119.928C62.235 121.107 62.6197 122.388 62.8753 123.229C63.2066 124.319 63.3748 124.858 63.595 125.249C63.9728 125.92 64.4085 126.605 65.0296 127.618C65.4787 128.35 65.9848 129.191 66.5432 130.185L67.1184 131.233L67.2122 131.406L67.2845 131.587C67.3309 131.704 67.3744 131.824 67.4202 131.945C68.7748 129.957 69.9512 128.223 70.8958 126.792C71.6434 125.66 72.2219 124.754 72.6233 124.083C72.8248 123.747 72.9618 123.503 73.0462 123.339C73.0577 123.317 73.0664 123.297 73.0745 123.281C73.524 121.548 74.0065 119.64 75.4573 117.012C76.8791 114.437 78.2865 112.075 79.6917 110.256C80.9682 108.604 82.7901 106.65 85.263 106.066C90.1667 104.908 93.3637 104.683 95.7815 104.655C98.4443 104.623 99.0122 104.737 99.9798 104.48C101.317 104.124 102.011 103.752 102.305 103.522C102.254 103.561 102.454 103.449 102.587 102.723C102.719 101.999 102.716 101.015 102.576 99.8198C102.44 98.6498 102.196 97.4505 101.949 96.3266C101.733 95.3479 101.436 94.1124 101.339 93.3003C101.252 92.5692 100.979 91.7402 100.504 90.7085C99.9858 89.583 99.4651 88.6845 98.7747 87.3169C98.4426 86.6589 98.0192 86.0151 97.3509 85.0005C96.7053 84.0204 95.915 82.8129 95.0384 81.2319C94.3669 80.0208 94.1292 78.563 94.0345 77.3237C93.9323 75.9871 93.969 74.4614 94.1077 72.853C94.3858 69.6292 95.0997 65.8058 96.178 61.9995C97.2826 58.1008 99.7251 55.0364 101.758 52.7661C102.274 52.1902 102.783 51.6449 103.244 51.1508C103.716 50.6463 104.128 50.204 104.499 49.7876C104.809 49.4397 105.049 49.1514 105.234 48.9155C104.967 47.9592 104.628 47.3465 104.308 46.6362C104.175 46.4125 103.667 45.5577 103.292 44.6333C102.77 43.3423 103.109 41.9334 104.041 40.9917C104.002 39.5875 103.992 37.9531 104.014 36.1919C104.031 34.8667 104.236 33.2574 104.476 31.5483C104.727 29.7647 105.033 27.7647 105.329 25.395C105.668 22.6872 105.208 20.2318 104.535 17.7475C104.366 17.1225 104.188 16.5119 104.005 15.8823C103.826 15.2645 103.64 14.6219 103.472 13.9887C103.141 12.7379 102.834 11.3523 102.772 9.93698C102.745 9.31813 102.531 8.74708 102.072 7.93405C101.954 7.72625 101.828 7.51681 101.685 7.2778C101.549 7.05078 101.387 6.78294 101.234 6.5151C101.178 6.4187 101.122 6.31615 101.064 6.20944Z" fill="black"/>
</g>
<defs>
<filter id="filter0_d_369_297" x="0" y="0" width="116.779" height="152.567" filterUnits="userSpaceOnUse" color-interpolation-filters="sRGB">
<feFlood flood-opacity="0" result="BackgroundImageFix"/>
<feColorMatrix in="SourceAlpha" type="matrix" values="0 0 0 0 0 0 0 0 0 0 0 0 0 0 0 0 0 0 127 0" result="hardAlpha"/>
<feOffset dy="4"/>
<feGaussianBlur stdDeviation="2"/>
<feComposite in2="hardAlpha" operator="out"/>
<feColorMatrix type="matrix" values="0 0 0 0 0 0 0 0 0 0 0 0 0 0 0 0 0 0 0.25 0"/>
<feBlend mode="normal" in2="BackgroundImageFix" result="effect1_dropShadow_369_297"/>
<feBlend mode="normal" in="SourceGraphic" in2="effect1_dropShadow_369_297" result="shape"/>
</filter>
</defs>
</svg>
