<svg width="186" height="173" viewBox="0 0 186 173" fill="none" xmlns="http://www.w3.org/2000/svg">
<g filter="url(#filter0_d_369_153)">
<path fill-rule="evenodd" clip-rule="evenodd" d="M73.8048 0.183916C75.2347 0.0819586 78.8596 -0.352337 82.0069 0.627275C83.7566 1.17202 84.9948 2.44571 85.5528 2.96614C86.2722 3.63703 86.91 4.20964 87.8829 4.73763C88.6431 5.15016 89.2615 5.57427 89.7677 5.92903C90.297 6.29998 90.6757 6.5733 91.1485 6.86458C91.9251 7.34303 92.6916 8.07525 93.2716 8.65364C93.8387 9.21924 94.4758 9.89629 95.1271 10.5902C95.2275 10.6124 95.3716 10.6403 95.5685 10.6654C96.3625 10.7664 97.4653 10.784 98.9718 10.7659C99.3041 10.7618 99.7622 10.6398 100.453 10.2025C101.199 9.73045 101.838 9.15261 102.758 8.37728L103.218 7.98958L103.786 7.76985C105.049 7.27972 106.837 7.047 108.433 6.92708C110.167 6.7967 112.176 6.76702 114.138 6.86458H114.14C114.229 6.86907 114.336 6.87261 114.459 6.87727C115.069 6.42399 115.835 6.15469 116.666 6.15462C117.534 6.15462 118.392 6.39558 118.886 6.5472C119.494 6.73387 120.139 6.97665 120.741 7.22688C121.178 7.40827 121.834 7.59179 122.619 7.74837C123.377 7.8996 124.125 8.00006 124.673 8.05696C126.707 8.26806 128.848 9.36692 130.34 10.3509C130.424 10.4066 130.996 10.8009 134.337 10.93C137.12 11.0377 139.042 12.5266 139.863 13.0706C140.693 13.6202 142.498 14.6529 144.444 16.4329C144.498 16.4814 144.708 16.6408 145.358 16.8509C146.04 17.0715 146.819 17.2361 147.982 17.4993C150.394 18.046 152.237 19.5152 153.518 21.1458C155.353 23.4821 155.99 24.9783 156.497 26.1839C157.102 27.622 157.427 29.3008 157.685 30.3929C158.442 33.6086 157.352 36.6604 157.234 37.2874L157.192 37.5169L157.147 37.6507C157.145 37.662 157.142 37.6771 157.139 37.6956C157.124 37.795 157.105 37.9528 157.09 38.1741C157.062 38.5857 157.05 39.134 157.065 39.7972C157.098 39.8487 157.143 39.917 157.204 40.0042C157.902 41.0004 157.988 42.2182 157.547 43.2513C157.563 43.2646 157.579 43.2779 157.595 43.2913C159.26 44.6893 159.335 45.4658 161.285 45.9154C161.787 46.0309 162.254 46.0912 163.045 46.1927C163.823 46.2925 164.802 46.4206 166.168 46.6781C168.09 47.0401 169.467 47.2027 171.202 47.5023C172.802 47.7786 174.415 48.1327 176.032 48.8001C177.14 49.257 178.348 49.7526 179.277 50.3587C180.216 50.9709 181.191 51.9033 181.476 53.3353L181.524 53.6292L181.567 54.0033C181.607 54.3918 181.634 54.8185 181.616 55.2327C181.597 55.6981 181.514 56.6059 180.897 57.387C180.225 58.2361 179.219 58.7717 178.702 59.054C178 59.4378 177.64 59.6271 177.378 59.849C176.428 60.6528 175.74 61.339 174.466 63.0218C172.726 65.321 171.006 69.2297 165.89 71.514C163.708 72.488 161.655 73.165 160.12 73.7337C158.488 74.3386 157.457 74.8162 156.742 75.4115C155.713 76.2682 154.205 77.3682 153.027 78.2786C151.7 79.3056 150.798 80.0896 150.442 80.5667C150.438 80.5719 150.375 80.6643 150.244 80.8997C150.12 81.1235 149.967 81.415 149.79 81.7659C149.438 82.4669 149.017 83.3534 148.575 84.3109C147.693 86.2233 146.752 88.3641 146.157 89.7542C146.116 89.8511 146.066 89.9423 146.013 90.0306C146.503 90.8437 146.444 91.8958 145.782 92.6605C144.501 94.1411 143.432 95.0396 142.914 95.5394C141.137 97.4872 140.319 98.5832 138.699 100.602L138.698 100.603C137.943 101.544 136.989 102.787 136.058 103.821C135.193 104.779 133.984 105.991 132.575 106.519C129.486 107.678 127.265 108.309 125.966 110.904C125.043 112.747 124.174 114.221 122.949 115.657C122.8 115.832 122.48 116.32 121.808 117.321C121.2 118.224 120.41 119.377 119.466 120.604C117.606 123.02 115.018 125.897 111.822 127.762C110.166 128.729 108.419 129.267 107.266 129.681C105.966 130.148 105.407 130.46 105.086 130.836C104.621 131.382 104.116 132.076 103.673 132.846C102.627 134.662 100.657 136.248 99.2648 137.269C98.36 137.932 97.3195 138.43 96.6935 138.763C95.9705 139.147 95.5786 139.411 95.3136 139.706C94.9338 140.13 94.4876 140.55 94.1251 140.895C93.7344 141.267 93.3901 141.597 93.0802 141.942C92.4598 142.632 92.1426 143.198 92.0597 143.761C91.8776 145 91.4013 146.231 90.9376 147.402C90.4508 148.63 89.9054 149.957 89.381 151.635C89.1296 152.439 88.922 153.875 88.7853 155.512C88.6899 156.654 88.637 157.796 88.6144 158.715C89.4863 159.918 89.4951 161.57 88.5177 162.796C87.3158 164.303 85.0761 164.599 83.4952 163.468C83.5175 163.483 83.4224 163.423 83.1144 163.331C82.7543 163.224 82.2792 163.124 81.6573 163.021C80.6381 162.851 78.7444 162.623 77.3946 162.277C76.8464 162.136 76.3361 161.942 75.9669 161.796C75.5291 161.624 75.2668 161.512 74.9093 161.38C74.2762 161.146 73.7656 161.014 73.2452 160.991C72.1606 160.942 71.0549 160.585 70.2853 160.311C69.4247 160.005 68.4773 159.611 67.6075 159.247C65.6974 158.45 64.1503 157.812 63.0372 157.582C60.9254 157.146 59.6243 155.788 58.9044 154.826C58.2445 153.945 57.6512 152.767 57.5148 152.529C56.6873 151.08 55.4262 148.314 54.6319 146.573C54.2794 145.8 53.5882 145.147 52.2257 143.948C51.4073 143.227 50.6667 142.291 50.0089 141.421C49.174 140.317 48.7087 139.646 47.6691 138.279C47.2912 137.826 47.0158 137.523 46.5841 137.047C46.1167 136.532 45.3791 135.724 44.6271 134.548C44.4254 134.233 44.2831 133.898 44.1964 133.557C42.7502 132.206 40.9388 130.507 39.7189 129.418C38.9661 128.746 38.3019 127.8 37.9132 127.273C37.424 126.609 36.9514 125.984 36.3585 125.367C35.3727 124.339 35.0087 123.005 34.836 122.212C34.6294 121.263 34.5252 120.198 34.4776 119.148C34.4019 117.475 34.4605 115.591 34.5939 113.785C34.574 113.784 34.5536 113.782 34.5333 113.781C34.1949 113.757 33.8402 113.739 33.4483 113.719C33.0702 113.7 32.6487 113.68 32.2384 113.652C31.4782 113.6 30.4451 113.508 29.4991 113.233C25.8933 112.185 24.0812 110.196 22.9737 108.528C22.6961 108.109 22.2371 107.591 21.5577 106.91C20.9987 106.349 20.0601 105.461 19.4044 104.77C18.1816 103.482 17.2651 102.271 16.5284 101.24C15.7259 100.116 15.3137 99.4734 14.8243 98.8704C13.8983 97.7293 13.3651 96.6291 12.9728 95.7777C12.5561 94.8734 12.3446 94.3747 11.9864 93.8284C11.0643 92.4221 10.1124 91.1252 7.76183 86.7718C5.92267 83.6415 4.73334 81.0502 4.3546 79.9486C4.2955 79.8045 4.06024 79.1981 4.01085 78.4808C3.95194 77.6235 4.13885 76.8288 4.42784 76.1009C4.52746 75.8501 4.65441 75.6165 4.80382 75.4027C4.80088 75.1312 4.79992 74.853 4.80382 74.5687L4.81358 74.3353C4.96144 71.9669 6.83622 70.7794 7.86534 70.3128C8.92886 69.8307 10.1784 69.5811 11.0401 69.4173C12.0806 69.2196 12.8464 69.0986 13.6066 68.9095C13.877 68.8422 14.0947 68.7774 14.2677 68.7171C14.2966 68.4829 14.316 68.1469 14.3009 67.6898C14.2541 66.2736 13.9641 64.6949 13.7062 62.8822C13.6437 62.4435 13.5406 62.2382 13.4982 62.1654C13.46 62.1001 13.4267 62.0653 13.3761 62.0267C13.3055 61.9728 13.1879 61.8999 12.9239 61.7767C12.7267 61.6847 12.7039 61.6784 12.4347 61.555C12.2533 61.4719 11.9695 61.3397 11.6788 61.1693C10.9085 60.7176 10.1813 60.1604 9.52257 59.5169C8.37174 58.3926 8.1337 56.9564 8.06065 56.2376C7.97245 55.3689 8.03492 54.4872 8.13976 53.7464L8.18175 53.5033C8.4236 52.304 9.15641 51.3839 10.0597 50.8118C10.8372 50.3195 11.6329 50.1568 11.9376 50.096C12.6591 49.952 13.456 49.8586 14.1368 49.7796C14.8674 49.6949 15.5699 49.6152 16.3116 49.4974C17.566 49.2981 18.83 49.0012 20.0753 48.4769C20.0911 48.2075 20.1122 47.9015 20.1446 47.5687C20.2476 46.5139 20.7152 45.7165 21.1232 45.1927C21.5018 44.7067 21.9348 44.3254 22.1749 44.1165C22.7991 43.5735 22.9287 43.4727 23.0528 43.2972C24.0577 41.8762 24.9406 40.0674 26.6202 37.1302C27.0006 36.465 27.5327 35.5504 27.5636 30.6204C27.5815 27.7614 27.7129 26.1437 27.6017 24.43C27.4751 22.4792 27.4694 20.778 27.5577 19.5023C27.6004 18.8864 27.6718 18.2489 27.8038 17.6937C27.8639 17.4409 27.9815 17.0091 28.2179 16.5609C28.3357 16.3375 28.5638 15.9523 28.961 15.5745C29.3589 15.1963 30.0946 14.6744 31.1632 14.5599C31.1709 14.5579 31.1819 14.5556 31.1944 14.5521C31.2842 14.5268 31.4135 14.4838 31.6417 14.4017C32.0266 14.2632 32.7782 13.9749 33.5802 13.7757C34.0548 13.6579 34.8595 13.5405 35.589 13.431C36.4417 13.3029 37.5625 13.1356 38.9591 12.9066C41.3893 12.5081 43.1207 12.5671 44.3946 12.68C44.7907 12.7151 45.0107 12.7384 45.1739 12.7562C45.3586 12.6032 45.5908 12.3988 45.879 12.1302C46.273 11.7631 46.7105 11.3361 47.2208 10.8382C47.6868 10.3836 48.2052 9.88026 48.754 9.3597C48.8161 9.29002 48.8627 9.23112 48.9054 9.18001C48.9388 8.05782 49.5398 6.97269 50.6075 6.33528C51.1579 6.00668 51.9973 5.41348 53.3253 4.55794C54.3499 3.89782 55.9274 2.90438 57.2062 2.4886C58.7148 1.99814 60.5242 1.78198 61.1944 1.68978C62.9058 1.45433 64.9699 1.23035 66.6739 0.894853C68.1611 0.602075 69.8318 0.467153 73.8048 0.183916ZM77.2823 6.92513C76.2535 6.92793 75.328 7.01868 74.339 7.08919C70.1891 7.38503 69.0538 7.496 68.1241 7.67903C66.138 8.07007 63.6093 8.35493 62.2189 8.54622C61.784 8.60605 61.3124 8.66608 60.7989 8.75521C60.2792 8.84543 59.8403 8.94491 59.5226 9.04817C59.5493 9.03948 59.4992 9.0545 59.3536 9.12435C59.2167 9.19005 59.041 9.28262 58.8263 9.40364C58.3934 9.64762 57.8879 9.95999 57.3478 10.3079C57.1594 10.4293 56.9549 10.5657 56.7413 10.7064C56.5804 11.1732 56.3139 11.6145 55.9386 11.9954C55.2078 12.7369 55.0156 12.9367 54.8995 13.0716C54.8394 13.1416 54.8282 13.1577 54.673 13.3499C54.5346 13.5213 54.3651 13.725 54.1222 13.9915L54.0333 14.0892L53.9376 14.18C53.3919 14.6954 52.8738 15.2015 52.3673 15.6956C51.8708 16.18 51.3713 16.6658 50.9064 17.099C50.4475 17.5265 49.9569 17.9643 49.4689 18.3363C49.0342 18.6675 48.344 19.1503 47.4982 19.4329C46.5543 19.7482 45.69 19.7367 45.1534 19.7064C44.7395 19.683 44.0013 19.5995 43.7306 19.5755C42.9389 19.5054 41.8551 19.457 40.1739 19.7327C38.7208 19.9711 37.5539 20.1463 36.7052 20.2738C36.2748 20.3384 35.9454 20.3873 35.6944 20.4281C35.4074 20.4747 35.347 20.4902 35.3888 20.4798C35.1787 20.532 34.9842 20.5966 34.7247 20.6888C34.7009 21.546 34.7185 22.6694 34.8048 23.9993C34.935 26.0045 34.7947 28.3822 34.7804 30.6624C34.7467 36.0437 34.1745 38.3147 32.9464 40.4622C32.0864 41.9661 31.262 43.5178 30.4591 44.9036C30.4955 45.995 29.9958 47.0855 29.0157 47.7894C28.642 48.0577 28.3437 48.2735 28.0997 48.4622C28.096 48.4726 28.0919 48.483 28.088 48.4935C28.0486 48.7937 27.9731 49.3128 27.8116 49.8763C27.3824 51.3741 26.3455 53.2112 23.963 54.3734C21.628 55.5122 19.3653 56.0314 17.4894 56.3294C17.4869 56.3298 17.484 56.33 17.4816 56.3304C17.6102 56.4172 17.7421 56.5095 17.8732 56.6097C19.3708 57.7544 20.5044 59.4718 20.8566 61.9466C21.059 63.3695 21.4513 65.5766 21.5138 67.471C21.5459 68.4441 21.5062 69.5689 21.2276 70.6517C20.9495 71.7323 20.3475 73.0945 18.9952 74.0804C17.8198 74.9372 16.4298 75.3607 15.4171 75.6126C14.3865 75.8689 13.2043 76.0655 12.4425 76.2103C12.2964 76.2381 12.1635 76.2664 12.0421 76.2913C12.1097 77.9294 12.3042 78.959 12.3907 80.179C12.3951 80.2412 12.3966 80.303 12.3976 80.3646C12.7687 81.0926 13.2189 81.9329 13.7482 82.8538L14.0763 83.4173L14.1085 83.472L14.1388 83.5286C16.3608 87.648 17.1737 88.7351 18.0948 90.14C18.8046 91.2224 19.2637 92.307 19.5724 92.9769C19.9053 93.6995 20.1531 94.1651 20.5187 94.6156C21.185 95.4366 21.9063 96.5181 22.4816 97.3236C23.1226 98.2212 23.8295 99.1462 24.7413 100.107C25.3597 100.758 25.9162 101.264 26.7716 102.121C27.5066 102.858 28.3822 103.783 29.0616 104.807C29.3359 105.22 29.5964 105.533 29.9288 105.8C30.2519 106.059 30.7517 106.362 31.5909 106.606C31.6993 106.637 32.0277 106.695 32.7472 106.743C33.0773 106.766 33.4269 106.783 33.8253 106.803C34.2097 106.822 34.6385 106.844 35.0655 106.874C35.879 106.932 36.9154 107.034 37.8898 107.301C38.7274 107.531 40.1262 108.042 41.0929 109.315L41.2804 109.579L41.3849 109.746C41.8769 110.582 41.9443 111.394 41.9581 111.811C41.9732 112.269 41.9277 112.735 41.9005 113.015C41.7051 115.028 41.6117 117.148 41.6886 118.847C41.7274 119.704 41.805 120.358 41.9005 120.796C41.9155 120.865 41.93 120.922 41.9425 120.969C42.7378 121.834 43.3496 122.656 43.8048 123.274C44.0738 123.639 44.2544 123.886 44.422 124.097C44.5555 124.265 44.6215 124.334 44.6349 124.348C46.2669 125.805 50.2442 129.551 50.9816 130.218C51.6944 130.863 52.0722 131.721 52.1105 132.591C52.4148 132.926 52.6867 133.227 52.9972 133.588L53.3556 134.012L53.4034 134.07L53.4483 134.13C54.2969 135.245 55.3744 136.724 55.8507 137.354C56.517 138.235 56.8811 138.649 57.1046 138.846C58.2027 139.813 60.1682 141.439 61.2433 143.797C62.1018 145.68 63.2103 148.09 63.8439 149.2C63.9444 149.375 64.044 149.559 64.1251 149.709C64.2123 149.871 64.2873 150.01 64.3653 150.149C64.5224 150.428 64.65 150.631 64.7648 150.785C64.7916 150.82 64.8159 150.85 64.836 150.874C66.7488 151.314 68.917 152.241 70.4874 152.897C71.3965 153.276 72.1553 153.589 72.7941 153.817C73.5236 154.076 73.7122 154.078 73.5831 154.073C75.1953 154.145 76.5236 154.555 77.504 154.917C77.9532 155.083 78.4426 155.284 78.7081 155.389C79.0421 155.521 79.1888 155.569 79.2579 155.586C80.2078 155.83 81.2084 155.917 82.8917 156.198C83.1853 156.247 83.5276 156.305 83.8995 156.381C83.9245 155.975 83.9547 155.559 83.9894 155.144C84.1277 153.487 84.361 151.623 84.7716 150.309C85.3564 148.438 85.9733 146.94 86.4405 145.761C86.9309 144.524 87.2 143.763 87.295 143.117C87.5628 141.295 88.5437 139.919 89.4376 138.925C89.885 138.428 90.354 137.98 90.7374 137.616C91.1487 137.224 91.4389 136.948 91.6671 136.694C92.5268 135.736 93.5704 135.145 94.3624 134.724C95.2515 134.251 95.807 133.994 96.3439 133.6C97.7318 132.582 98.9503 131.5 99.461 130.613C100.054 129.583 100.726 128.66 101.362 127.913C102.586 126.478 104.294 125.818 105.578 125.357C107.009 124.843 108.164 124.494 109.322 123.818C111.717 122.42 113.859 120.117 115.596 117.861C116.45 116.751 117.176 115.693 117.766 114.817C118.29 114.038 118.849 113.175 119.226 112.733C120.109 111.697 120.786 110.588 121.628 108.905C123.907 104.352 128.276 103.174 130.823 102.218C131.008 102.149 131.539 101.777 132.419 100.801C132.826 100.35 133.228 99.8624 133.636 99.3548L134.888 97.7845C136.467 95.8167 137.407 94.5627 139.35 92.4378L139.394 92.39L139.441 92.3441C140.203 91.5975 140.825 91.118 141.828 89.9945C141.487 89.4028 141.418 88.6741 141.706 88.0003C142.314 86.5805 143.273 84.4004 144.177 82.4417C144.628 81.4637 145.073 80.5263 145.457 79.7611C145.806 79.067 146.197 78.3227 146.529 77.8773C147.334 76.7998 148.782 75.6316 150.008 74.6829C151.384 73.6182 152.635 72.7183 153.589 71.9241C154.997 70.7524 156.737 70.0373 158.386 69.4261C160.133 68.7789 161.873 68.2147 163.86 67.3275C167.486 65.7089 168.125 63.5424 170.572 60.3089C172.023 58.3928 172.945 57.4458 174.197 56.3861C174.926 55.7698 175.838 55.3056 176.321 55.0413C176.523 54.9309 176.678 54.8407 176.803 54.764C176.802 54.7463 176.801 54.7274 176.8 54.7083C176.792 54.5904 176.778 54.4592 176.761 54.3138C176.723 54.2822 176.663 54.2366 176.571 54.1771C176.104 53.872 175.371 53.554 174.131 53.0423C173.008 52.5791 171.813 52.2988 170.351 52.0462C169.024 51.817 167.082 51.5554 165.24 51.2083C164.016 50.9777 163.15 50.8632 162.407 50.7679C161.678 50.6743 160.949 50.5865 160.16 50.4046C156.675 49.6009 154.897 47.1604 154.428 46.7659C153.803 46.2417 153.134 45.6982 152.216 44.8216C151.831 44.5771 151.489 44.2577 151.216 43.8675C151.187 43.8269 151.16 43.7849 151.132 43.7435C151.019 43.6271 150.901 43.5079 150.781 43.3822L150.695 43.2913L150.619 43.1917C150.214 42.6626 149.959 42.3839 149.515 41.8265C149.14 41.3563 148.712 40.7793 148.387 40.0892L148.236 39.7708L148.191 39.4232C148.129 38.9523 148.134 38.4241 148.134 38.0902C148.134 36.9316 149.023 35.9744 150.183 35.8089C150.265 35.4172 150.364 35.0291 150.435 34.7425C150.532 34.3493 150.61 34.022 150.665 33.6956C150.771 33.0754 150.786 32.5172 150.646 31.9202C150.284 30.3877 150.126 29.5376 149.806 28.7767C149.427 27.8777 149.069 26.9871 147.755 25.3138C147.183 24.5858 146.664 24.3168 146.323 24.2396C145.369 24.0234 144.144 23.7659 143.054 23.4134C141.932 23.0508 140.6 22.4852 139.464 21.4456C138.055 20.1571 136.975 19.5722 135.764 18.7699C135.437 18.5536 135.255 18.4278 135.019 18.2767C134.81 18.1436 134.656 18.0549 134.528 17.9915C134.306 17.8813 134.178 17.855 134.046 17.8499C130.524 17.7138 128.141 17.3049 126.252 16.0589C125.74 15.7209 125.206 15.4293 124.73 15.222C124.494 15.1195 124.295 15.0463 124.137 14.9993C123.979 14.9523 123.901 14.9432 123.897 14.9427C122.631 14.8113 120.19 14.4686 118.198 13.7103C117.518 14.0173 116.733 14.1244 115.94 13.9681C115.181 13.8185 114.669 13.8272 113.762 13.7816V13.7806C112.104 13.6983 110.41 13.7241 108.996 13.8304C108.289 13.8835 107.686 13.9543 107.215 14.0325C107.11 14.0501 107.015 14.0686 106.93 14.0853C106.267 14.6496 105.384 15.3787 104.426 15.9847C103.09 16.8299 101.28 17.6641 99.0616 17.6908C97.5783 17.7085 95.9935 17.7055 94.6192 17.5306C93.4173 17.3776 91.4288 16.9986 90.0431 15.5218C89.265 14.6926 88.6167 14.0002 88.0704 13.4554C87.4582 12.8448 87.2239 12.6773 87.2491 12.6927C86.5463 12.2597 85.9484 11.8285 85.5108 11.5218C85.05 11.1988 84.7094 10.9717 84.3302 10.7659C82.507 9.77663 81.3197 8.67632 80.5226 7.93294C79.9668 7.41459 79.744 7.2357 79.6905 7.1888C79.0602 7.00729 78.2504 6.9225 77.2823 6.92513Z" fill="black"/>
</g>
<defs>
<filter id="filter0_d_369_153" x="0" y="0" width="185.622" height="172.154" filterUnits="userSpaceOnUse" color-interpolation-filters="sRGB">
<feFlood flood-opacity="0" result="BackgroundImageFix"/>
<feColorMatrix in="SourceAlpha" type="matrix" values="0 0 0 0 0 0 0 0 0 0 0 0 0 0 0 0 0 0 127 0" result="hardAlpha"/>
<feOffset dy="4"/>
<feGaussianBlur stdDeviation="2"/>
<feComposite in2="hardAlpha" operator="out"/>
<feColorMatrix type="matrix" values="0 0 0 0 0 0 0 0 0 0 0 0 0 0 0 0 0 0 0.25 0"/>
<feBlend mode="normal" in2="BackgroundImageFix" result="effect1_dropShadow_369_153"/>
<feBlend mode="normal" in="SourceGraphic" in2="effect1_dropShadow_369_153" result="shape"/>
</filter>
</defs>
</svg>
