<svg width="236" height="133" viewBox="0 0 236 133" fill="none" xmlns="http://www.w3.org/2000/svg">
<g filter="url(#filter0_d_369_162)">
<path fill-rule="evenodd" clip-rule="evenodd" d="M146.68 0.288297C147.254 0.064094 148.054 -0.101357 148.966 0.072477L149.149 0.11154L149.416 0.180875C152.114 0.953002 152.944 3.25068 153.229 4.34396C153.381 4.92905 153.479 5.56319 153.539 5.91037C153.616 6.35475 153.659 6.53039 153.688 6.61252C153.886 7.18109 154.122 7.75596 154.406 8.46115C154.677 9.13186 154.988 9.9094 155.251 10.7238C156.061 13.2312 157.016 15.3236 157.506 16.4133C158.012 17.5391 157.861 18.6064 157.573 19.3469C157.566 19.3654 157.557 19.3834 157.55 19.4016C157.607 19.436 157.665 19.47 157.721 19.5041C157.934 19.6353 158.197 19.8039 158.465 20.0031C159.473 20.7536 160.724 21.5802 161.719 22.0608C162.373 22.3767 162.527 22.4672 162.824 22.5695C163.038 22.643 163.392 22.7385 164.083 22.7824C166.442 22.9322 168.518 22.9624 170.181 22.9856C170.993 22.9969 171.758 23.0078 172.379 23.0324C172.822 23.05 173.495 23.0807 174.116 23.2063L174.379 23.2658L174.952 23.4231C177.738 24.2328 179.348 25.4098 180.255 25.9367C182.452 27.2137 183.073 29.3897 183.311 30.6457C183.441 31.3356 183.504 32.0219 183.549 32.5695C183.598 33.1788 183.623 33.5847 183.672 33.9836C183.717 34.3466 183.965 34.9557 185.441 37.0979C186.312 38.3613 187.266 39.856 187.701 41.7688C188.15 43.7424 187.313 45.3402 186.787 46.1711C186.508 46.6125 186.203 47.0107 186 47.2756C185.757 47.5917 185.654 47.7261 185.585 47.8332C185.459 48.0277 185.346 48.2215 185.248 48.4143C185.3 48.5017 185.364 48.6067 185.446 48.7336C185.531 48.8649 185.621 49.0004 185.728 49.1604C185.806 49.2781 185.894 49.4114 185.984 49.549C186.163 49.7836 186.461 50.0812 187.052 50.468L187.084 50.4895L187.115 50.511C187.183 50.5574 187.254 50.6066 187.313 50.6467C187.374 50.6891 187.429 50.7264 187.481 50.7619C187.587 50.8337 187.667 50.8859 187.732 50.926C187.777 50.953 187.807 50.9686 187.824 50.9777C188.641 51.2485 189.294 51.7758 189.717 52.4348C189.866 52.5498 190.018 52.6678 190.171 52.7873C190.963 53.4082 191.726 54.0206 192.412 54.551C193.404 55.3181 194.216 56.3237 194.647 56.8195C195.188 57.4426 195.493 57.7319 195.784 57.9133C196.359 58.2711 197.125 58.3995 199.654 58.8322C199.654 58.8323 199.657 58.8323 199.66 58.8322C199.666 58.8321 199.682 58.8317 199.71 58.8264C199.77 58.8148 199.869 58.7853 200.006 58.7209C200.143 58.6566 200.286 58.5737 200.439 58.4729C200.519 58.4207 200.589 58.3717 200.684 58.3069C200.7 58.2958 200.731 58.2743 200.772 58.2463C200.808 58.2035 200.856 58.1452 200.915 58.0686C201.19 57.7146 201.473 57.3111 201.914 56.7082C202.624 55.7362 203.855 54.0644 205.375 53.0383L205.622 52.885C206.247 52.5301 207.203 52.2172 208.345 52.4592C209.53 52.7105 210.219 53.4213 210.509 53.7785C210.872 54.2253 211.081 54.7073 211.185 54.9895C211.278 55.0184 211.387 55.0525 211.519 55.093C211.839 55.1919 212.308 55.3382 212.783 55.5383C214.234 56.1499 215.322 56.4759 216.406 56.6194C217.548 56.7703 218.443 57.1164 219.152 57.426C219.936 57.7678 220.299 57.9642 221.059 58.258C221.607 58.4704 221.892 58.4841 221.99 58.4826C222.074 58.4813 222.156 58.468 222.314 58.4006C222.549 58.3008 222.753 58.177 223.295 57.8596C223.738 57.6002 224.508 57.1516 225.447 56.8694L225.661 56.8108C226.77 56.5342 228.946 56.3894 230.424 58.1613L230.574 58.3518L230.689 58.511C231.844 60.1615 231.998 62.1207 231.941 63.4582C231.879 64.9313 231.528 66.4504 230.996 67.6106C230.607 68.4595 230.064 69.1676 229.793 69.5344C229.459 69.986 229.331 70.1771 229.247 70.3567C229.092 70.6861 228.99 71.0214 228.864 71.5295C228.755 71.9741 228.579 72.7847 228.301 73.5744C227.398 76.1364 225.325 79.6735 224.896 80.4543C224.711 80.7898 223.843 83.0548 222.056 85.0617C220.949 86.3041 219.975 87.0902 219.02 87.8508C218.1 88.5832 217.13 89.3431 215.751 90.6594C214.238 92.1033 211.217 95.1178 208.221 98.4553C204.438 102.668 201.573 105.632 200.642 106.777C199.748 107.875 198.268 110.478 197.485 112.428C197.108 113.369 196.43 114.156 195.974 114.648C195.445 115.218 194.816 115.806 194.191 116.361C193.081 117.348 191.313 118.804 190.272 119.712C189.102 120.731 188.117 121.393 187.295 121.902C186.364 122.477 186.097 122.604 185.735 122.877C184.859 123.538 183.85 123.797 183.3 123.919C182.648 124.064 181.947 124.153 181.331 124.219C179.919 124.37 178.886 124.421 177.745 124.591C176.132 124.832 174.601 124.008 173.933 122.662C173.335 122.574 172.87 122.451 172.377 122.198L172.252 122.135L172.136 122.058C171.124 121.384 170.334 120.812 169.212 120.331C168.73 120.186 168.21 120.112 167.314 119.927C166.631 119.785 165.335 119.513 164.382 118.72C163.655 118.115 163.157 117.467 162.792 116.963C162.384 116.4 162.208 116.125 161.951 115.848C161.083 114.911 159.832 114.271 158.564 113.477C157.663 112.913 156.691 112.132 156.087 111.692C155.355 111.158 154.891 110.9 154.534 110.801C153.985 110.648 152.858 110.325 151.641 109.976C150.412 109.623 149.078 109.242 148.09 108.968C146.105 108.417 143.344 107.222 142.352 106.791C140.51 105.992 138.241 104.758 135.595 103.377C132.22 101.616 130.375 99.3809 127.376 96.3381C126.706 95.6583 126.164 95.2396 125.678 94.8879C125.247 94.5764 124.562 94.1223 123.993 93.5725C122.539 92.166 121.357 91.2252 120.782 90.8938C119.195 89.9796 118.631 89.3012 116.899 88.7395C115.249 88.2038 114.109 87.9914 112.473 87.842C112.009 87.7997 111.398 87.7655 110.616 87.717C109.862 87.6702 108.992 87.612 108.112 87.5227C106.476 87.3566 104.361 87.0498 102.851 86.2541C101.719 85.6579 100.134 84.7031 95.7051 82.4514C94.5536 81.8659 94.1028 80.5115 94.6729 79.3967C94.5533 79.2837 94.4332 79.1576 94.3233 79.0188L94.2002 78.8635L94.1407 78.7541C94.0718 78.671 94.0462 78.6472 93.8926 78.469C93.6476 78.1845 93.2763 77.7319 92.9795 77.1037L92.9268 76.9904L92.8858 76.8723C92.705 76.3454 92.5673 75.7627 92.4561 75.2697C92.3403 74.7564 92.2511 74.3367 92.1504 73.9397C91.4903 74.0167 90.684 74.1948 89.5791 74.4328C88.4415 74.678 86.899 74.7779 85.5391 74.8967C84.0698 75.0251 82.5346 75.1893 81.0254 75.5315C78.1496 76.1836 75.846 77.1537 70.8926 76.6047C70.1319 76.5204 68.7175 76.3937 67.3155 76.008C65.926 75.6258 64.1914 74.8999 62.9971 73.3781C62.6101 72.885 62.3628 72.3552 62.2071 72.0139C62.0233 71.6111 61.9207 71.3657 61.7666 71.0891C61.3875 70.4086 61.1386 69.9448 60.8702 69.549C60.7453 69.365 60.6406 69.2348 60.5547 69.1418C60.5085 69.1347 60.4562 69.1263 60.3985 69.1184C59.9557 69.0576 59.301 68.9952 58.4522 68.9485C56.7612 68.8554 54.4043 68.8287 51.625 68.9621C50.5281 69.0148 48.9997 69.1695 47.2168 69.3137C45.5194 69.4509 43.6264 69.5737 42.0772 69.5149C41.0053 69.4741 39.7453 69.378 38.6338 69.2971C37.9814 69.2496 37.3915 69.2087 36.8897 69.1819C36.5099 69.6454 35.9483 69.9716 35.2901 70.0481C34.0189 70.1957 32.8592 69.3636 32.6338 68.1701C32.5963 68.1385 32.5354 68.0898 32.4385 68.0266C31.9708 67.7214 31.2376 67.4036 29.9971 66.8918C28.8743 66.4286 27.679 66.1483 26.2168 65.8957C24.8897 65.6665 22.9493 65.4049 21.1075 65.0578C19.8832 64.8272 19.0161 64.7127 18.2735 64.6174C17.5445 64.5239 16.8162 64.4369 16.0274 64.2551C12.5412 63.4514 10.7624 61.0105 10.293 60.6164C9.66991 60.0934 9.00288 59.5503 8.08793 58.677C7.70117 58.4321 7.3568 58.112 7.08207 57.7199C7.05187 57.6768 7.02339 57.6321 6.9932 57.5881C6.8818 57.4733 6.76542 57.3556 6.6475 57.2317L6.56058 57.1408L6.48539 57.0412C6.08065 56.5123 5.82614 56.2332 5.38187 55.676C5.00702 55.2058 4.57842 54.6297 4.25296 53.9397L4.10257 53.6203L4.05765 53.2727C3.99661 52.8017 4.00003 52.2736 4.00003 51.9397C4.00007 50.7803 4.89119 49.8228 6.05179 49.6584C6.13383 49.2673 6.23084 48.88 6.30179 48.594C6.39935 48.2006 6.47673 47.8727 6.53226 47.5461C6.63766 46.9261 6.6533 46.3684 6.51273 45.7717C6.15152 44.2391 5.9921 43.389 5.67191 42.6281C5.23203 41.5826 5.36218 40.4516 5.92191 39.5529C6.31577 38.0502 7.73365 36.9378 9.42191 36.9377C10.9901 36.9377 12.9104 37.1045 14.9522 37.3713C19.6418 37.9841 23.1922 37.6215 25.4756 37.2922C25.5193 37.2484 25.589 37.171 25.6807 37.0383C26.0001 36.5758 26.2691 35.9271 26.543 35.1535L26.6612 34.8567C26.9547 34.189 27.3697 33.6934 27.67 33.3781C28.034 32.996 28.43 32.6721 28.7608 32.4201C29.3451 31.9749 30.2317 31.3891 30.7032 31.0578L30.9571 30.8889C32.2363 30.0828 33.68 29.8314 34.7774 29.7434C36.0149 29.6442 37.3118 29.7187 38.4727 29.8352C39.6465 29.9529 40.834 30.1305 41.8448 30.2815C42.9118 30.4408 43.7308 30.5618 44.3643 30.6145C45.1648 30.681 47.9942 30.785 52.1123 30.6779C53.112 30.6519 53.7306 30.4822 54.5694 30.135C55.068 29.9286 55.575 29.6876 56.334 29.3391C57.0612 29.0052 57.9258 28.6174 58.9766 28.1994C60.3906 27.6369 61.3468 27.1851 62.2442 26.7766C63.1227 26.3766 64.0658 25.9598 65.1983 25.6682C67.8433 24.9871 70.008 25.7282 70.8829 26.1018C72.3052 26.7092 73.4416 27.7176 74.0938 28.3039C74.4158 28.5934 74.6208 28.7815 74.8145 28.9524C74.8679 28.9548 74.925 28.9591 74.9854 28.9611C75.0212 28.9623 75.0583 28.9613 75.0957 28.9621C75.5395 27.9576 76.3368 27.1635 77.1319 26.468C78.13 25.5948 79.693 24.4129 82.1563 22.7199C83.7096 21.6523 86.5263 19.9705 90.2266 17.8264C94.8801 15.1302 99.8743 16.2589 102.783 17.3615V17.3606C103.749 17.7088 105.518 18.0251 108.009 17.9924C108.201 17.9841 108.336 17.9752 108.43 17.967C108.469 17.9635 108.5 17.9597 108.522 17.9572C109.846 17.5337 111.25 17.8887 112.188 18.7688C112.271 18.6805 112.404 18.5215 112.565 18.2463C112.878 17.7145 113.167 16.9945 113.413 16.1574C113.414 16.1557 113.414 16.1533 113.414 16.1516C113.089 16.1568 112.75 16.1497 112.402 16.1194C109.388 15.8554 107.151 14.0512 105.897 12.594C104.295 10.7337 104.371 8.70384 104.422 7.8547L104.448 7.55685C104.615 6.07996 105.339 4.81677 106.279 3.94259L106.422 3.81564C107.138 3.20865 107.934 2.94509 108.354 2.82443C108.893 2.66915 109.453 2.57757 109.957 2.51877C110.973 2.40021 112.147 2.37196 113.304 2.39377C115.623 2.43752 118.3 2.69131 120.344 3.06271C121.794 3.32637 123.496 3.84055 124.939 4.24533C126.467 4.67367 127.959 5.05812 129.444 5.27365C129.487 5.27118 129.578 5.26537 129.726 5.24435C130.047 5.1984 130.496 5.10727 131.09 4.95627C132.284 4.65288 133.805 4.17696 135.644 3.57443C137.628 2.92404 139.88 2.57996 141.467 2.27853C143.272 1.93576 144.427 1.62025 145.211 1.17111C145.313 1.11263 145.172 1.19304 145.627 0.868375C145.768 0.767435 146.155 0.493082 146.68 0.288297ZM146.642 8.12912C145.322 8.58441 143.996 8.85802 142.867 9.07248C140.859 9.45387 139.36 9.67447 137.976 10.1281C136.134 10.7316 134.401 11.2788 132.939 11.6506C131.665 11.9743 129.96 12.3472 128.489 12.1408C126.448 11.8542 124.524 11.344 122.915 10.8928C121.919 10.6136 121.101 10.3761 120.396 10.1897C120.627 10.4504 120.834 10.751 120.995 11.0949C121.348 11.8476 121.393 12.5874 121.316 13.1828C121.26 13.6243 121.025 15.7753 120.358 18.0403C120.025 19.1727 119.548 20.4621 118.854 21.6457C118.177 22.798 117.127 24.1346 115.511 24.9651C114.765 25.3483 113.901 25.5492 113.336 25.6643C112.672 25.7995 111.94 25.9061 111.234 25.9885C109.835 26.152 108.312 26.2463 107.256 26.2463C106.017 26.2462 104.923 25.6469 104.273 24.7336C102.767 24.5585 101.404 24.2609 100.245 23.843L100.21 23.8313L100.176 23.8176C97.9993 22.9835 95.7209 22.7316 93.9561 23.7541C90.2015 25.9296 87.6394 27.4694 86.3584 28.3498C83.9632 29.9961 82.6738 30.9908 81.9932 31.5861C81.9839 31.5943 81.9749 31.6026 81.9659 31.6106C81.945 31.8243 81.9142 32.1052 81.8565 32.3869C81.7854 32.7339 81.6303 33.3324 81.2168 33.9465C80.204 35.4506 78.6042 35.7214 78.0616 35.8029L77.8829 35.8303L77.7022 35.8391C76.5867 35.8981 75.5705 35.9095 74.7373 35.882C74.0754 35.8602 73.0813 35.8071 72.2998 35.5656L72.0049 35.4748L71.7325 35.3371C71.0697 35.0041 70.5226 34.5604 70.1817 34.2707C69.8359 33.9769 69.4214 33.5935 69.1602 33.3586C68.477 32.7445 68.1328 32.5084 67.9493 32.4299C67.8981 32.4081 67.7666 32.3579 67.5948 32.3322C67.4312 32.3078 67.256 32.3086 67.0694 32.3567C66.6236 32.4715 66.1941 32.6437 65.3379 33.0334C64.5007 33.4146 63.3588 33.954 61.7403 34.5979C60.8609 34.9477 60.1275 35.2757 59.4493 35.5871C58.8034 35.8837 58.0968 36.2178 57.4287 36.4944C55.9334 37.1134 54.4066 37.5462 52.3067 37.6008C48.0577 37.7112 44.925 37.6134 43.7403 37.5149C42.8093 37.4374 41.719 37.2722 40.7344 37.1252C39.6937 36.9698 38.6858 36.8205 37.7227 36.7238C36.7461 36.6259 35.9613 36.599 35.378 36.6457C35.0741 36.6701 34.9128 36.7074 34.8516 36.7238C34.5391 36.9417 34.2206 37.16 33.9707 37.3313C33.6665 37.5399 33.4346 37.7026 33.2491 37.844C33.2272 37.8607 33.2072 37.8772 33.1885 37.8918C32.8833 38.7074 32.4123 39.8281 31.6973 40.8635C30.8096 42.1488 29.2358 43.7473 26.71 44.1184C24.0363 44.5111 19.6913 44.9792 13.9786 44.2326C13.8291 44.2131 13.6814 44.1949 13.5362 44.177C13.5414 44.1993 13.5466 44.2215 13.5518 44.2434C14.3095 47.4582 13.2192 50.5095 13.1016 51.1379L13.0596 51.3674L13.0118 51.507C13.0099 51.5176 13.0074 51.5311 13.0049 51.5471C12.9898 51.6465 12.9721 51.8042 12.9571 52.0256C12.9291 52.4369 12.9175 52.985 12.9317 53.6477C12.965 53.6993 13.01 53.7672 13.0713 53.8547C13.7693 54.8507 13.8551 56.0687 13.4141 57.1018C13.4299 57.115 13.4461 57.1285 13.4619 57.1418C15.1268 58.5395 15.2017 59.3163 17.1514 59.7658C17.6528 59.8814 18.1203 59.9407 18.9112 60.0422C19.6887 60.142 20.6677 60.2701 22.0342 60.5276C23.9561 60.8897 25.3343 61.0521 27.0694 61.3518C28.6691 61.6281 30.2801 61.9823 31.8975 62.6496C33.0048 63.1065 34.2135 63.6031 35.1426 64.2092C35.3003 64.3121 35.4589 64.4243 35.6153 64.5461C35.7038 64.5366 35.7937 64.5315 35.8848 64.5315C36.7283 64.5315 37.8924 64.6121 38.9981 64.6926C40.1546 64.7768 41.3052 64.865 42.2676 64.9016C43.4868 64.9479 45.1114 64.8506 46.8125 64.7131C48.4278 64.5825 50.1812 64.4086 51.3838 64.3508C54.3222 64.2097 56.8521 64.2369 58.7276 64.3401C59.6615 64.3914 60.4603 64.463 61.0801 64.5481C61.3862 64.5901 61.6846 64.6399 61.9502 64.7014C62.0946 64.7348 62.6205 64.8502 63.0889 65.1623C63.904 65.7059 64.4746 66.3989 64.9024 67.0295C65.3154 67.6383 65.6923 68.3398 66.0108 68.9113C66.2808 69.3959 66.4908 69.8895 66.6153 70.1623C66.6861 70.3177 66.7364 70.4204 66.7793 70.4992C66.8202 70.5742 66.8409 70.6008 66.8409 70.6008C67.1255 70.9633 67.6889 71.3076 68.6407 71.5695C69.5801 71.828 70.5521 71.9198 71.4454 72.0188C75.3494 72.4514 76.6381 71.7821 79.918 71.0383C81.7751 70.6172 83.5926 70.431 85.1026 70.299C86.7216 70.1576 87.7864 70.0869 88.5245 69.9279C89.9225 69.6267 91.8792 69.1301 93.7383 69.3293C95.2729 69.4939 95.9801 70.678 96.2051 71.1028C96.497 71.6538 96.6806 72.2813 96.8067 72.7688C96.937 73.2727 97.0581 73.8492 97.1582 74.2932C97.2501 74.7003 97.3309 75.0259 97.4092 75.2815C97.4463 75.3393 97.503 75.4133 97.6006 75.5266C97.644 75.577 97.8111 75.7661 97.9102 75.886C97.9678 75.9556 98.0396 76.0438 98.1153 76.1487C98.1193 76.1514 98.1227 76.1555 98.127 76.1584C98.1497 76.1737 98.1736 76.1891 98.2022 76.2082C99.1343 76.8298 99.465 77.9696 99.0694 78.9416C102.691 80.8057 104.385 81.7959 105.166 82.2072C105.73 82.5044 106.939 82.7604 108.618 82.9309C109.396 83.0098 110.184 83.0635 110.927 83.1096C111.641 83.1539 112.369 83.1944 112.928 83.2453C114.898 83.4252 116.406 83.7063 118.44 84.3664C120.798 85.1314 122.623 86.5693 123.257 86.9348C124.376 87.5794 125.909 88.8714 127.408 90.3215C127.657 90.5618 127.893 90.7091 128.574 91.2014C129.199 91.6535 129.962 92.2416 130.871 93.1643C134.195 96.5359 135.374 98.0075 137.893 99.3215C140.688 100.78 142.704 101.877 144.333 102.584C145.409 103.051 147.839 104.091 149.427 104.531C150.439 104.812 151.792 105.201 153.018 105.552C154.254 105.907 155.349 106.222 155.872 106.367C157.14 106.72 158.204 107.435 158.999 108.015C159.921 108.687 160.474 109.159 161.192 109.609C161.982 110.102 164.116 111.238 165.546 112.78C166.054 113.329 166.487 113.973 166.743 114.327C167.023 114.714 167.239 114.973 167.482 115.186C167.503 115.195 167.535 115.209 167.581 115.225C167.748 115.282 167.984 115.343 168.329 115.414C168.884 115.529 169.996 115.709 170.856 115.989L170.95 116.021L171.041 116.058C172.592 116.705 173.767 117.514 174.63 118.097C174.694 118.107 174.782 118.119 174.901 118.133C175.041 118.149 175.175 118.179 175.305 118.216C175.7 117.984 176.149 117.821 176.635 117.748C177.945 117.552 179.624 117.433 180.533 117.336C181.04 117.282 181.391 117.23 181.624 117.182C182.267 116.737 182.983 116.329 183.386 116.08C183.972 115.718 184.618 115.283 185.419 114.585C186.912 113.284 188.024 112.401 189.287 111.279C189.849 110.779 190.282 110.368 190.581 110.045C190.712 109.904 190.786 109.811 190.822 109.764C191.798 107.39 193.541 104.25 194.954 102.514C196.003 101.225 199.328 97.7502 202.753 93.9358C205.889 90.4432 209.039 87.2988 210.661 85.7502C212.29 84.1957 213.478 83.2648 214.411 82.5217C215.309 81.8071 215.884 81.332 216.569 80.5627C217.673 79.3238 217.638 78.8103 218.512 77.2219C219.156 76.0515 220.802 73.2348 221.465 71.3557C221.601 70.9684 221.666 70.6449 221.841 69.9348C222 69.288 222.228 68.4458 222.666 67.5119C223.077 66.6361 223.605 65.9358 223.907 65.5266C224.052 65.3312 224.149 65.1921 224.219 65.092C222.544 65.57 220.619 65.5552 218.359 64.6809C217.433 64.3222 216.538 63.8932 216.165 63.7307C215.719 63.536 215.558 63.4987 215.422 63.4807C213.449 63.2199 211.69 62.6416 209.881 61.8791C209.777 61.8352 209.619 61.782 209.31 61.6867C209.058 61.6092 208.614 61.4773 208.205 61.3283C208.03 61.2647 207.805 61.1771 207.549 61.0608C207.273 61.4426 206.966 61.8673 206.7 62.2092C206.511 62.4524 206.284 62.7311 206.036 62.9934C205.82 63.2214 205.424 63.6175 204.875 63.9397C204.958 63.8906 205.007 63.8544 204.883 63.9397C204.804 63.9938 204.666 64.0884 204.509 64.1916C204.189 64.4015 203.733 64.6803 203.177 64.9416C202.082 65.4555 200.392 65.9933 198.389 65.6506C196.62 65.3481 193.972 65.0413 191.855 63.7229C190.58 62.929 189.687 61.9264 189.104 61.2551C188.41 60.4565 188.169 60.1637 187.883 59.9426C187.196 59.4113 186.286 58.6848 185.605 58.1516C185.244 57.8681 184.929 57.6249 184.68 57.4397C184.473 57.2859 184.381 57.2252 184.372 57.218L184.411 57.2385L184.253 57.1457C183.995 56.9841 183.765 56.7946 183.565 56.5852C183.25 56.3821 183.021 56.215 182.923 56.1477V56.1467C181.798 55.403 180.821 54.5506 180.042 53.4826L179.985 53.4045L179.933 53.3235C179.691 52.9491 178.986 51.9561 178.562 51.0705C178.083 50.0701 177.552 48.4444 178.224 46.6057L178.362 46.2483C178.695 45.4313 179.094 44.7354 179.456 44.176C179.711 43.7834 180.014 43.3948 180.189 43.1672C180.321 42.9941 180.419 42.8623 180.496 42.7541C180.314 42.296 179.997 41.7539 179.422 40.9192C178.148 39.0712 176.786 37.0812 176.505 34.7961C176.433 34.2145 176.39 33.562 176.354 33.1067C176.312 32.5898 176.27 32.2035 176.21 31.885C176.191 31.7872 176.172 31.7085 176.156 31.6467C174.957 30.9273 174.262 30.4189 172.612 29.9826C172.564 29.9789 172.405 29.9642 172.081 29.9514C171.58 29.9315 170.928 29.9222 170.076 29.9104C168.411 29.8871 166.17 29.8553 163.607 29.6926C162.333 29.6117 161.308 29.4054 160.387 29.0881C159.549 28.7998 158.812 28.4099 158.474 28.2463C156.873 27.4733 155.199 26.3376 154.04 25.4748C153.937 25.3983 153.795 25.3154 153.336 25.0422C152.976 24.8279 152.383 24.4729 151.829 24.011C151.262 23.5387 150.548 22.8035 150.119 21.7395C149.663 20.6068 149.654 19.4126 150.002 18.2707C150.067 18.0586 150.145 17.8642 150.228 17.6897C149.687 16.4413 148.986 14.7201 148.357 12.7736C148.176 12.2123 147.948 11.6346 147.677 10.9631C147.42 10.3263 147.109 9.57018 146.844 8.81076C146.764 8.58133 146.698 8.3503 146.642 8.12912Z" fill="black"/>
</g>
<defs>
<filter id="filter0_d_369_162" x="0" y="0" width="235.951" height="132.633" filterUnits="userSpaceOnUse" color-interpolation-filters="sRGB">
<feFlood flood-opacity="0" result="BackgroundImageFix"/>
<feColorMatrix in="SourceAlpha" type="matrix" values="0 0 0 0 0 0 0 0 0 0 0 0 0 0 0 0 0 0 127 0" result="hardAlpha"/>
<feOffset dy="4"/>
<feGaussianBlur stdDeviation="2"/>
<feComposite in2="hardAlpha" operator="out"/>
<feColorMatrix type="matrix" values="0 0 0 0 0 0 0 0 0 0 0 0 0 0 0 0 0 0 0.25 0"/>
<feBlend mode="normal" in2="BackgroundImageFix" result="effect1_dropShadow_369_162"/>
<feBlend mode="normal" in="SourceGraphic" in2="effect1_dropShadow_369_162" result="shape"/>
</filter>
</defs>
</svg>
