<svg width="134" height="159" viewBox="0 0 134 159" fill="none" xmlns="http://www.w3.org/2000/svg">
<g filter="url(#filter0_d_369_236)">
<path d="M63.5935 0.00292969C63.7842 -0.00459866 63.978 0.00202304 64.1736 0.0244141C64.9961 0.118651 65.9298 0.265049 66.8796 0.854492L67.0701 0.978516L67.3025 1.14551C67.6773 1.43002 67.9925 1.73957 68.2429 2.0166L68.5115 2.33008L68.9841 2.9082L69.1707 3.62207C69.3439 4.28377 69.4683 4.98028 69.5681 5.58105C69.6777 6.24073 69.7527 6.74735 69.8513 7.28418C69.9471 7.80533 70.0318 8.15806 70.1091 8.3877C70.1109 8.39301 70.1133 8.39833 70.115 8.40332C70.6103 8.94949 70.9861 9.50707 71.2546 9.9248C71.6304 10.5093 71.7554 10.7379 71.9792 11.0557C73.9091 11.1291 75.3275 11.0407 77.3455 10.5508C77.6666 10.4728 77.9402 10.3407 78.6951 9.98242C79.2841 9.70282 80.485 9.11801 81.95 9.03711L82.2576 9.01172C82.9487 8.9378 83.4987 8.75419 84.8933 8.50586C85.8878 8.32876 88.1942 7.93857 90.2234 9.23828L90.4187 9.37012L90.616 9.5C90.9471 9.72098 91.6276 10.1935 92.1853 10.7275C92.9652 11.4745 93.8708 12.6372 94.1814 14.2627L94.2351 14.5938L94.3318 15.249C94.356 15.3983 94.3833 15.5456 94.4099 15.6904C95.1963 15.3209 96.2334 15.0161 97.4451 15.1211C96.8834 15.0722 100.392 14.745 102.648 17.3115L102.862 17.5693L103.035 17.7695C103.111 17.8535 103.211 17.9598 103.346 18.1016C103.582 18.3483 103.935 18.7127 104.278 19.1191C104.998 19.9733 105.814 21.1672 106.2 22.8047C106.404 23.6692 106.599 24.8496 106.64 26.0957C106.68 27.2832 106.592 28.8557 105.985 30.3105C105.309 31.9286 104.091 33.0019 103.465 33.5996C102.766 34.2655 102.127 34.8924 101.46 35.9443C101.062 36.5708 100.671 37.5851 100.381 38.7393C100.09 39.8935 99.989 40.8312 99.989 41.1689C99.989 41.5731 99.9157 41.9607 99.783 42.3213C101.792 41.2556 104.629 40.4218 107.603 41.9287C108.633 42.4503 110.905 43.7292 111.472 46.3262L111.521 46.582L111.662 47.334C112.035 49.2324 112.617 52.115 111.354 55.5518L111.288 55.7285C110.498 57.8792 109.885 59.5539 109.338 60.8076C108.831 61.9683 108.253 63.08 107.398 64.0176C107.377 64.0627 107.347 64.1296 107.311 64.2217C107.182 64.5536 107.028 65.0631 106.894 65.7393C106.628 67.088 106.477 68.9107 106.652 70.9639C106.809 72.8052 107.221 74.1359 107.73 74.8105C107.741 74.8224 107.898 75.0005 108.331 75.3223C108.749 75.6328 109.297 75.9846 109.945 76.3516C111.242 77.0865 112.756 77.7784 114.043 78.2461C114.067 78.2517 114.156 78.2705 114.361 78.2969C114.552 78.3214 115.297 78.4 115.85 78.4814C117.245 78.6866 119.011 79.0856 121.451 80.0811C123.538 80.9326 125.337 81.6799 126.615 82.4336C127.848 83.1613 129.482 84.4014 129.839 86.5615L129.869 86.7725L129.893 87.0381C129.936 87.6905 129.85 88.5708 129.287 89.5303C128.775 90.4026 128.001 91.1024 127.182 91.707C123.625 94.3345 119.848 96.3021 117.427 97.4258C117.536 98.1257 117.489 98.9572 117.086 99.8115C116.267 101.548 114.639 103.388 113.477 104.722C112.555 105.781 111.792 106.665 111.23 107.419C111.24 107.444 111.252 107.47 111.261 107.496C111.529 108.199 112.058 110.021 110.779 111.852C109.066 114.303 106.722 115.599 106.408 115.848C104.785 117.129 102.916 118.239 101.099 118.783C100.091 119.085 99.0807 119.02 98.7576 119.007C98.2312 118.985 98.0517 118.975 97.8552 118.993C97.7258 119.005 97.68 119.025 97.6433 119.044C97.6063 119.063 97.4506 119.149 97.2048 119.438C97.1904 119.475 97.1688 119.532 97.1394 119.613C97.069 119.808 96.6824 121.107 95.4412 122.02C93.8107 123.219 91.6996 124.733 89.7078 125.896C89.2318 126.173 88.0162 126.981 86.4968 127.425C84.8289 127.912 82.9527 127.965 80.7224 127.453C80.3292 127.363 79.978 127.293 79.6667 127.245C79.6541 127.243 79.641 127.241 79.6287 127.239C79.581 127.39 79.5363 127.538 79.4988 127.68C79.4967 127.688 79.494 127.695 79.4919 127.703C80.0189 128.037 80.4617 128.508 80.7546 129.094C81.4088 130.403 81.1275 131.909 80.1687 132.921C80.2716 133.319 80.4307 133.854 80.6746 134.573C81.0379 135.324 81.5348 136.014 82.1951 136.879C82.8035 137.676 83.7692 138.882 84.3699 140.234C84.7535 141.098 85.2197 142.541 84.8689 144.233C84.6412 145.331 83.972 146.361 83.2478 147.15C82.4434 148.027 81.3208 148.886 79.8542 149.519C78.548 150.082 74.8412 151.735 71.0515 150.153C69.5437 149.524 67.7611 148.457 67.0603 146.443C66.8546 145.852 66.7602 145.215 66.7087 144.714C66.6694 144.775 66.63 144.838 66.5876 144.898C66.48 145.054 65.0753 147.92 61.8386 148.941C59.4235 149.703 57.4769 150.208 55.8816 150.389C54.2217 150.576 52.5452 150.459 51.0066 149.572C49.9582 148.968 48.092 147.951 46.1208 146.235C45.118 145.363 44.339 144.792 43.5281 144.207C42.7071 143.615 41.7871 142.965 40.7009 142.033C40.1553 141.565 39.3313 141.199 38.2039 140.942C38.1975 140.941 38.1039 140.925 37.823 140.911C37.679 140.904 37.0574 140.884 36.696 140.857C36.2662 140.825 35.5414 140.753 34.7898 140.476C33.9602 140.17 32.9755 139.568 32.3328 138.452C31.8948 137.692 31.4404 136.522 31.0144 135.094C30.6503 133.873 30.2224 132.475 29.7644 131.278C29.3518 130.2 29.2493 128.883 29.1941 127.944C29.1365 126.966 29.1053 125.59 29.0583 124.557C28.9447 122.058 28.6876 120.252 28.1726 119.295C26.656 116.477 23.8515 112.64 23.0349 111.727C21.7183 110.255 21.4794 109.717 20.0593 108.497C19.3995 107.93 18.7377 107.287 18.2498 106.831C17.7141 106.331 17.26 105.931 16.7878 105.59C15.9584 104.99 14.7392 104.148 13.7566 103.397C12.8832 102.731 11.5689 101.685 10.8328 100.516C10.3757 99.7891 9.99261 98.9729 9.76343 98.5176C9.49291 97.9802 9.2927 97.6313 9.06128 97.3359C8.43198 96.5327 7.93862 95.6665 7.5896 95.0156C7.41555 94.691 7.29457 94.4551 7.2019 94.2744C7.13791 94.2062 7.07553 94.1356 7.01636 94.0615C6.51157 93.429 6.27464 92.8035 6.14917 92.3281C6.10084 92.145 6.06938 91.9762 6.05249 91.8887C5.86897 91.4046 5.57664 90.8076 5.14917 89.8984L4.97437 89.5283L4.89429 89.1289C4.8429 88.8723 4.77362 88.6468 4.62085 88.1045C4.48176 87.6107 4.31289 86.9774 4.18823 86.2021C3.93367 84.6186 3.90014 82.689 4.32104 79.9922C4.35892 79.7493 4.37511 79.4632 4.38647 79.0117C4.39583 78.6402 4.40264 77.9933 4.47827 77.3877C4.5566 76.7605 4.73928 75.8503 5.30249 74.9521C5.91836 73.97 6.83472 73.2437 7.95483 72.8125L8.23022 72.7139C8.88086 72.4979 9.5824 72.3797 10.239 72.3447C10.9278 72.3081 11.8465 72.3479 12.781 72.6572L12.9685 72.7227L13.4285 72.8955C14.4833 73.3003 15.8838 73.9152 16.9167 74.9316L17.1492 75.1729L17.3894 75.4473C18.428 76.6601 19.311 78.069 19.8767 78.957C20.1562 78.2952 20.4031 77.7708 20.5427 77.4629C21.0752 76.172 21.6395 74.7089 21.9851 73.583C22.4141 71.946 23.0161 68.6128 23.2263 66.7861C23.2379 66.6854 23.2437 66.5197 23.2351 66.1885C23.2285 65.9372 23.2053 65.4199 23.2166 64.9736C23.2362 64.1957 23.3442 62.0805 25.2908 60.6865L25.488 60.5547C25.6792 60.4343 25.8525 60.3477 25.9851 60.2871C26.1643 60.2053 26.3231 60.1466 26.4314 60.1094C26.5432 60.071 26.6742 60.0331 26.7625 60.0068C26.7794 59.9691 26.7994 59.9226 26.8201 59.8662C26.974 59.4458 27.1822 58.5754 27.2498 57.6113C27.3222 56.5777 27.194 55.9542 27.1052 55.7578C26.274 53.9216 25.2168 50.2462 25.2634 46.9385C25.3065 43.8892 25.5168 41.9238 25.8445 40.4785C26.1801 38.9986 26.6806 38.0233 26.823 37.6748C26.8234 37.6737 26.8253 37.67 26.8279 37.6631C26.8311 37.6544 26.835 37.6416 26.8406 37.625C26.8522 37.5903 26.8668 37.5427 26.8845 37.4814C26.921 37.3549 26.9621 37.1984 27.0105 36.998C27.0938 36.6533 27.2277 36.0563 27.364 35.5498C27.5047 35.0271 27.7115 34.3458 28.033 33.6895C28.3323 33.0786 28.9136 32.1023 30.0212 31.4219C30.799 30.9441 31.5536 30.8774 31.781 30.8594C32.1019 30.834 32.3767 30.8485 32.5359 30.8604C32.5708 30.863 32.6056 30.8669 32.6404 30.8701C32.6286 30.8221 32.6181 30.7732 32.6042 30.7246C32.4584 30.2137 32.3093 29.9923 31.8962 29.0859C31.5048 28.2271 31.0791 27.109 31.0125 25.5879C30.9455 24.0588 31.0247 22.4652 31.3318 21.0596C31.4854 20.3566 31.7176 19.6003 32.0828 18.8896C32.4368 18.2008 33.0256 17.3402 34.0076 16.7109L34.2322 16.5742C35.4304 15.8683 37.7799 14.9429 40.5222 15.958C41.3253 16.2554 42.1031 16.7612 42.3708 16.9229C42.7689 17.1632 43.0508 17.317 43.3689 17.4346C43.8948 17.6287 44.9882 17.9004 47.3142 17.3975C47.9972 17.2498 48.3051 17.08 48.4294 16.998C48.5285 16.9327 48.6117 16.8555 48.7302 16.7002C48.7471 16.635 48.7824 16.4836 48.825 16.1895C48.9087 15.6103 49.0277 14.4168 49.4197 13.0977C50.1914 10.501 51.6255 8.79032 52.6121 7.6084C52.873 7.29565 53.1762 6.84991 53.571 6.22363C53.9189 5.67187 54.3956 4.88456 54.8396 4.2207C55.292 3.54433 55.8781 2.73401 56.5955 2.04395C57.2913 1.37467 58.4296 0.507348 60.0203 0.28125C61.768 0.0328924 63.056 0.00599181 63.5935 0.00292969ZM62.49 6.97754C62.2221 6.99775 61.9178 7.02536 61.5818 7.06543C61.4209 7.24564 61.2019 7.53032 60.9138 7.96094C60.5352 8.52697 60.2073 9.07816 59.7468 9.80859C59.3336 10.4641 58.8236 11.245 58.2449 11.9385C57.2958 13.0756 56.7012 13.849 56.3601 14.9961C56.1467 15.7141 56.1057 16.2331 55.9744 17.1416C55.8576 17.949 55.6424 19.2959 54.7068 20.5889C54.2198 21.2617 53.5415 22.0301 52.5164 22.7061C51.5035 23.3739 50.3081 23.8489 48.9001 24.1533C45.4356 24.9024 42.8581 24.6674 40.7761 23.8984C39.7907 23.5345 39.0342 23.0913 38.5271 22.7852C38.4642 22.7472 38.4072 22.7133 38.3562 22.6826C38.236 23.3446 38.1775 24.2496 38.2234 25.2969C38.2382 25.634 38.3074 25.8671 38.5095 26.3105C38.6902 26.7069 39.2346 27.7401 39.5642 28.8945C40.3156 31.5264 39.8142 33.9515 39.7996 33.9951C39.7208 34.8372 39.4001 35.7095 38.7429 36.4521C38.1089 37.1685 37.3448 37.5584 36.7156 37.7686C35.756 38.0889 34.7978 38.0922 34.1609 38.0537C34.1249 38.2071 34.0865 38.3733 34.0408 38.5625C33.9357 38.997 33.778 39.6249 33.5417 40.2031C33.1826 41.082 33.0705 41.1872 32.8972 41.9512C32.7161 42.75 32.5203 44.1946 32.4802 47.0322C32.4501 49.1717 33.2156 51.8721 33.7253 52.998C34.4973 54.7033 34.5512 56.6437 34.4509 58.0752C34.3458 59.5765 34.0265 61.0742 33.6277 62.1631C32.9419 64.035 31.8059 65.2709 30.449 66.0049C30.4491 66.0083 30.4499 66.0122 30.45 66.0156C30.4599 66.3986 30.4681 66.9546 30.4001 67.5459C30.1578 69.6524 29.491 73.3705 28.9626 75.3555L28.947 75.4111L28.9304 75.4668C28.4857 76.9315 27.8022 78.6814 27.2371 80.0498L27.2185 80.0967L27.197 80.1426C26.9293 80.7399 26.6255 81.3618 26.2869 82.248C26.6852 83.4635 26.367 84.8448 25.3445 85.7871C25.392 85.7433 25.4137 85.7194 25.3552 85.7803C25.3187 85.8183 25.2272 85.9132 25.1365 86.0059C24.9342 86.2123 24.6628 86.4765 24.3054 86.7793C22.1829 88.5778 19.5384 88.1066 18.5291 87.835C16.1885 87.205 15.0738 85.5908 14.5271 84.418C14.2925 83.9146 14.1064 83.3666 14.0281 83.1504C13.9783 83.0131 13.948 82.9389 13.9353 82.9082C13.1697 81.7299 12.5351 80.6698 11.7644 79.791C11.7331 79.7718 11.6841 79.7405 11.6101 79.7021C11.6015 79.6977 11.5916 79.694 11.5828 79.6895C11.5654 80.0799 11.5344 80.5397 11.4597 81.0186C11.1254 83.1607 11.1972 84.3759 11.321 85.1465C11.3856 85.5481 11.4745 85.8952 11.5876 86.2969C11.6624 86.5623 11.7814 86.9599 11.8855 87.3887C12.1845 88.0181 12.5546 88.7922 12.8337 89.5234L12.9675 89.8906L13.0173 90.0352V90.0381C13.0583 90.0972 13.0989 90.1575 13.1365 90.2197C13.3031 90.4957 13.4673 90.811 13.5916 91.0508C13.7341 91.3258 13.8607 91.5747 14.0066 91.8467C14.301 92.3958 14.5731 92.8461 14.8298 93.1738C15.4956 94.0236 15.9408 94.866 16.2625 95.5049C16.6127 96.2006 16.7721 96.5476 16.988 96.8975C17.0126 96.9249 17.0879 97.0075 17.2419 97.1494C17.4873 97.3755 17.8233 97.6519 18.2498 97.9775C19.1434 98.6599 20.0927 99.3084 21.1306 100.059C21.9735 100.668 22.6878 101.311 23.2839 101.868C23.9281 102.47 24.3629 102.899 24.8738 103.338C26.7517 104.952 27.8109 106.433 28.5115 107.216C29.7173 108.564 32.8288 112.854 34.5847 116.117C35.9367 118.629 36.1639 121.959 36.2683 124.255C36.3303 125.619 36.3404 126.556 36.3992 127.554C36.4601 128.589 36.5477 128.913 36.5388 128.891C37.099 130.354 37.5914 131.976 37.9529 133.188C38.043 133.491 38.1296 133.759 38.2097 133.994C38.6182 134.015 39.2253 134.057 39.8669 134.203C41.6017 134.597 43.7205 135.333 45.5115 136.869C46.3316 137.573 47.0057 138.052 47.864 138.671C48.7323 139.297 49.7197 140.018 50.9695 141.105C52.2657 142.233 53.4637 142.912 54.5525 143.537C54.6396 143.539 54.7942 143.538 55.0369 143.511C55.8764 143.416 57.2518 143.098 59.5847 142.362C59.6586 142.339 59.7093 142.315 59.823 142.183C59.8956 142.098 59.9801 141.984 60.1013 141.798C60.1669 141.697 60.2201 141.611 60.3044 141.479C60.3603 141.391 60.4341 141.279 60.5144 141.16C60.5266 141.109 60.5601 140.964 60.5886 140.673C60.6014 140.543 60.6127 140.403 60.6248 140.236C60.6359 140.082 60.6496 139.882 60.6658 139.692C60.6936 139.366 60.7419 138.88 60.865 138.37C60.8651 138.369 60.8658 138.368 60.866 138.367C60.87 138.332 60.8773 138.265 60.8865 138.195C60.9203 137.937 61.012 137.277 61.3962 136.567L61.5046 136.376C62.6525 134.454 64.6521 133.936 65.4832 133.791C67.7493 133.396 69.381 134.671 69.95 135.144C70.3105 135.443 70.6372 135.764 70.8416 135.964C71.0913 136.209 71.1979 136.312 71.2791 136.38C72.3576 137.28 72.9099 138.405 73.2117 139.298C73.515 140.196 73.6463 141.103 73.7205 141.82C73.7895 142.488 73.8333 143.305 73.864 143.708C73.8658 143.731 73.8672 143.754 73.8689 143.775C73.8887 143.784 73.909 143.794 73.9304 143.803C74.1435 143.892 74.4645 143.943 75.0154 143.841C75.5971 143.733 76.2052 143.499 76.8972 143.201C77.2256 143.06 77.4663 142.898 77.6355 142.757C77.4188 142.35 77.0547 141.865 76.3728 140.972C75.672 140.054 74.7179 138.793 73.9988 137.219L73.9294 137.068L73.8757 136.912C73.0097 134.391 72.6026 132.667 72.8298 130.921L72.8757 130.573L72.9695 130.303C72.467 129.708 72.1658 128.95 72.1658 128.124C72.1658 127.384 72.3484 126.564 72.5056 125.972C72.6854 125.294 72.9361 124.536 73.238 123.82C73.408 123.418 73.7959 122.577 74.5173 121.871L74.655 121.742C76.0887 120.437 77.8914 120.25 78.9978 120.254C80.2152 120.258 81.4461 120.499 82.4011 120.718C83.5771 120.988 84.133 120.877 84.3962 120.8C84.8077 120.68 85.0252 120.522 85.9568 119.979C87.3956 119.139 88.9984 118.016 90.4685 116.946C90.6306 116.538 90.9174 115.921 91.405 115.311L91.5701 115.109C93.2883 113.064 95.2866 112.27 97.1736 112.099C97.9834 112.025 98.7496 112.074 99.071 112.088C99.1145 112.09 99.1532 112.089 99.1863 112.09C99.8236 111.85 100.767 111.333 101.823 110.499C102.873 109.67 103.405 109.42 103.888 109.016C103.723 108.635 103.579 108.15 103.557 107.575C103.52 106.57 103.87 105.752 104.167 105.214L104.354 104.885C105.33 103.239 106.828 101.556 107.938 100.281C108.762 99.335 109.394 98.5863 109.841 97.9932C109.774 97.8447 109.708 97.6744 109.649 97.4873C109.531 97.1108 109.433 96.6139 109.469 96.0361L109.484 95.8486C109.683 93.9475 111.037 92.8793 111.772 92.4141C112.462 91.9778 113.382 91.602 113.713 91.4541C115.42 90.6911 118.211 89.3007 121.012 87.4512C120.379 87.1753 119.597 86.8494 118.628 86.4541C116.757 85.6908 115.573 85.4473 114.757 85.3271C114.205 85.246 114.028 85.2414 113.403 85.1611C112.915 85.0984 112.235 84.9945 111.504 84.7295C109.822 84.1197 107.93 83.2521 106.276 82.3154C104.772 81.4632 102.936 80.2652 101.885 78.8721C100.185 76.6195 99.6447 73.7124 99.4587 71.5273C99.2308 68.8483 99.4184 66.4025 99.8044 64.4492C99.9971 63.4745 100.249 62.5734 100.55 61.7998C100.811 61.1288 101.241 60.1979 101.96 59.4658L102.029 59.3818C102.133 59.242 102.342 58.9072 102.68 58.1318C103.127 57.1084 103.66 55.6639 104.482 53.4258L104.547 53.248C105.185 51.5103 104.889 50.4561 104.486 48.1914C104.417 48.1509 104.334 48.1035 104.234 48.0527C104.223 48.047 104.215 48.0449 104.213 48.0439C104.2 48.0432 104.119 48.0416 103.949 48.0898C103.564 48.1993 103.009 48.4817 102.298 49.002C101.603 49.5099 100.961 50.0901 100.314 50.6729C100.023 50.9354 99.6689 51.2539 99.3464 51.5127C99.1824 51.6443 98.9626 51.8134 98.7107 51.9727C98.5087 52.1003 98.0312 52.3887 97.3826 52.5469C96.5114 52.7592 95.4285 52.7666 94.364 52.2656C93.3554 51.7908 92.7635 51.0466 92.4353 50.4863C91.8518 49.49 91.6881 48.3537 91.6111 47.7314C91.5225 47.0162 91.4743 46.1685 91.4304 45.5742C91.3797 44.8873 91.3273 44.3984 91.2517 44.0449L91.2195 43.8916L91.2009 43.7363C91.0909 42.7979 91.0532 41.3669 91.3621 40.1455L91.446 39.8457C91.8961 38.3895 92.7648 37.5752 93.1619 37.1914C93.2386 37.1172 93.3184 37.0476 93.4001 36.9814C93.774 35.5315 94.3724 33.7965 95.2957 32.3418C96.4285 30.557 97.5714 29.4555 98.3777 28.6865C99.2555 27.8494 99.2661 27.7794 99.2849 27.7344C99.3539 27.5687 99.4525 27.1039 99.4265 26.3154C99.4024 25.5848 99.282 24.8477 99.1609 24.334C99.1028 24.0879 98.9792 23.8452 98.6667 23.4746C98.4932 23.2687 98.3052 23.0731 98.0281 22.7832C97.853 22.6 97.6167 22.3535 97.3767 22.0752C97.3243 22.1211 97.2662 22.1753 97.2019 22.2373C96.9359 22.4939 96.7544 22.7029 96.4148 23.0635C96.282 23.2044 96.0686 23.4289 95.8308 23.6367C95.7089 23.7432 95.5208 23.8983 95.282 24.0527C95.0702 24.1896 94.632 24.4496 94.0222 24.5947C92.0658 25.0601 90.6788 23.9663 90.3279 23.6689C89.8111 23.2309 89.4544 22.7381 89.2371 22.3887C87.8925 20.2269 87.3634 17.5271 87.1003 15.6426C87.0964 15.6387 87.0921 15.6342 87.0876 15.6299C87.0186 15.5637 86.9165 15.4796 86.7605 15.3691C86.7083 15.3322 86.6541 15.2962 86.5945 15.2559C86.4918 15.2682 86.3654 15.2867 86.2097 15.3145C85.7019 15.4049 85.366 15.4901 84.6179 15.6396C84.0153 15.7601 83.262 15.8933 82.4558 15.9443C82.4082 15.9624 82.2459 16.0235 81.8943 16.1904C81.3951 16.4274 80.3465 16.9667 79.115 17.2656C76.0375 18.0127 73.7968 18.0856 71.0945 17.9521C68.2936 17.8137 66.7642 16.0161 66.0134 14.9541C65.678 14.4795 65.2831 13.8267 65.1121 13.5605C64.8685 13.1817 64.7306 13.0087 64.6423 12.9189C63.8474 12.1098 63.4554 11.149 63.2429 10.5186C63.0109 9.83019 62.8577 9.10558 62.7439 8.48633C62.6354 7.89602 62.5579 7.40699 62.49 6.97754Z" fill="#151515"/>
</g>
<defs>
<filter id="filter0_d_369_236" x="0" y="0" width="133.903" height="158.82" filterUnits="userSpaceOnUse" color-interpolation-filters="sRGB">
<feFlood flood-opacity="0" result="BackgroundImageFix"/>
<feColorMatrix in="SourceAlpha" type="matrix" values="0 0 0 0 0 0 0 0 0 0 0 0 0 0 0 0 0 0 127 0" result="hardAlpha"/>
<feOffset dy="4"/>
<feGaussianBlur stdDeviation="2"/>
<feComposite in2="hardAlpha" operator="out"/>
<feColorMatrix type="matrix" values="0 0 0 0 0 0 0 0 0 0 0 0 0 0 0 0 0 0 0.25 0"/>
<feBlend mode="normal" in2="BackgroundImageFix" result="effect1_dropShadow_369_236"/>
<feBlend mode="normal" in="SourceGraphic" in2="effect1_dropShadow_369_236" result="shape"/>
</filter>
</defs>
</svg>
