<svg width="95" height="119" viewBox="0 0 95 119" fill="none" xmlns="http://www.w3.org/2000/svg">
<g filter="url(#filter0_d_369_265)">
<path fill-rule="evenodd" clip-rule="evenodd" d="M40.691 0.0105713C42.5553 0.0743705 45.2611 0.459429 47.0132 2.35334L47.1802 2.54084L47.7613 3.22834C48.3981 3.98809 49.1769 4.95147 49.8736 5.99983C50.7809 7.36532 51.768 9.18882 52.0347 11.2293C52.4082 14.0885 52.8634 16.4536 54.2818 18.7489C54.7866 19.5659 55.1403 20.4518 55.3902 21.1073C55.6075 21.6773 55.7503 22.0796 55.8941 22.4383C59.4261 21.9261 63.1341 21.128 66.5288 20.3826C68.624 19.9226 70.7488 19.4466 72.5982 19.1102C72.7187 18.2574 73.167 17.4462 73.9244 16.868L74.0572 16.7703C74.4148 16.5152 75.1096 16.0963 76.0689 15.9989C77.5517 15.8484 78.8146 16.5285 79.5357 17.4774C80.0772 18.1902 80.2196 18.9157 80.2681 19.203C80.3293 19.566 80.3391 19.8968 80.3384 20.1229V20.2088L80.3335 20.2948C80.1263 24.0662 80.3286 28.6247 80.4829 30.411C80.6647 31.3806 80.9185 32.4427 81.3013 33.3358C81.7332 34.3432 82.0886 34.5708 82.0992 34.578C82.5058 34.7735 82.9641 34.9303 83.5542 34.9823C85.5389 35.1567 86.9997 36.8425 86.8179 38.7469C86.7666 39.284 86.5895 39.7806 86.3179 40.2137C86.3232 40.2288 86.3305 40.2433 86.3355 40.2586C86.427 40.5404 86.6827 41.3273 86.772 41.6024C86.8446 41.8259 86.9167 42.0484 86.9888 42.2703C87.0561 42.4774 87.1232 42.6849 87.191 42.8934L87.4839 43.7625C88.1857 45.904 89.0037 48.8179 89.7144 51.7996C90.3311 54.3873 90.8518 57.8475 90.482 61.244C90.3494 62.4607 90.205 64.2258 89.7544 65.6912C89.317 67.1139 88.2994 69.1836 85.7847 69.6483C85.2939 69.7389 84.8221 69.7962 84.4185 69.8397C83.9792 69.887 83.6814 69.9138 83.3726 69.9539C83.1877 69.9779 83.0566 70.001 82.9644 70.0203C82.8832 70.172 82.7566 70.5229 82.5787 71.3953C82.343 72.5508 82.0514 74.2898 81.2134 76.3826C80.8491 77.2924 80.1817 78.0137 79.1753 78.4119C78.4155 78.7125 77.5587 78.7751 76.9429 78.8153C74.1148 78.9996 72.3804 79.2989 71.1783 79.7391C70.0842 80.1398 69.3636 80.6817 68.6353 81.578C67.3189 83.198 65.7812 84.9158 64.3423 86.5164C62.8817 88.1413 61.5373 89.6291 60.5249 90.8651C58.7749 93.0015 56.1147 95.0577 53.6392 96.4686C51.5357 97.6674 49.1692 98.6786 46.5767 98.8621C43.6029 99.0725 41.5145 99.5375 37.2242 100.449C35.7904 100.754 33.4959 100.856 31.6236 101.016C29.5308 101.196 27.6151 101.456 26.2212 101.979C23.34 103.06 20.5797 104.315 18.69 105.229C18.3452 105.396 17.9241 105.668 17.3501 106.083C16.8875 106.417 16.065 107.04 15.4253 107.494C13.9747 108.523 12.1175 109.683 9.76713 110.299C8.86617 110.535 7.94623 110.245 7.35697 109.626C7.24295 109.65 7.12637 109.67 7.00638 109.679C5.68159 109.772 4.52856 108.817 4.43119 107.546C4.13156 103.618 3.75668 94.0182 4.21244 87.8035C4.33551 86.1256 4.62732 84.6473 4.90385 83.369C5.19156 82.0389 5.4316 81.047 5.54838 80.0897C5.75953 78.358 5.77953 75.3835 7.97123 70.8514C8.76512 69.2097 9.26691 67.861 9.66263 66.702C10.0344 65.6131 10.387 64.4445 10.7954 63.492C11.4894 61.8737 12.6205 60.233 13.481 58.9471C14.4614 57.4819 15.023 56.5611 15.1783 55.9676C15.3836 55.183 15.7147 54.1936 15.6929 51.8797C15.6558 47.9476 15.2382 45.5321 14.8745 43.8787C14.7143 43.15 14.4816 42.2309 14.3648 41.6424C14.228 40.9531 14.1214 40.1679 14.2447 39.3114C14.3727 38.4228 14.78 37.278 15.7105 36.3514C17.4938 34.5757 18.3339 33.381 18.6802 31.5926C18.8817 30.5526 19.3184 29.2514 19.5552 28.3768C19.8292 27.3644 20.0384 26.3111 20.0376 25.0711C20.0333 18.4078 19.1767 13.3929 18.8794 11.2371C18.7484 10.2865 19.24 9.3951 20.0523 8.94026C20.2208 7.9416 20.8411 7.02188 21.8286 6.48225C22.936 5.87694 26.2722 2.43405 33.6089 0.80061C36.0193 0.263977 38.5035 -0.0642196 40.691 0.0105713ZM40.4341 6.93147C39.1013 6.8859 37.2907 7.09108 35.2398 7.54768C29.1535 8.9028 28.824 10.6286 25.3999 12.4998C24.9479 12.7468 24.4633 12.8884 23.9771 12.9354C24.3515 15.6493 24.8458 19.9019 24.8492 25.0682C24.8503 26.838 24.5457 28.3056 24.2124 29.5369C23.8418 30.906 23.5781 31.572 23.4107 32.4364C22.8116 35.5296 21.2177 37.5208 19.1753 39.5545C19.1568 39.5729 19.1198 39.6184 19.0826 39.7C19.0449 39.7826 19.0206 39.8715 19.0103 39.9432C18.9928 40.0648 18.99 40.2734 19.0904 40.7791C19.2109 41.386 19.3496 41.8655 19.5826 42.9246C20.0056 44.8478 20.4642 47.5701 20.5044 51.8387C20.5319 54.7555 20.0764 56.2055 19.8443 57.0926C19.4552 58.5794 18.3625 60.1979 17.5298 61.4422C16.5771 62.8659 15.7357 64.1061 15.2456 65.2489C14.927 65.992 14.691 66.8009 14.2339 68.1395C13.8009 69.4079 13.2335 70.9378 12.3355 72.7948C10.5317 76.5247 10.5617 78.6996 10.3267 80.6268C10.1777 81.8481 9.86646 83.1395 9.61381 84.3074C9.34992 85.5274 9.11227 86.764 9.01224 88.1278C8.63028 93.3363 8.86592 101.238 9.12748 105.653C10.3645 105.23 11.4691 104.558 12.565 103.781C13.2895 103.267 13.7276 102.92 14.4566 102.393C15.074 101.948 15.7772 101.468 16.523 101.107C18.4983 100.151 21.4032 98.8301 24.4693 97.6795C26.5659 96.8929 29.0979 96.5976 31.1958 96.4178C33.514 96.2192 35.154 96.16 36.1841 95.9412C40.3914 95.0474 42.8357 94.4972 46.2222 94.2576C47.7519 94.1494 49.3697 93.5318 51.1822 92.4989C53.2908 91.297 55.4495 89.5903 56.7427 88.0116C57.8399 86.6721 59.2733 85.0876 60.6997 83.5008C62.148 81.8897 63.6083 80.2553 64.8404 78.7391C66.0507 77.2497 67.4644 76.1574 69.4624 75.4256C71.353 74.7333 73.671 74.4018 76.6167 74.2098C76.7353 74.2021 76.838 74.193 76.9273 74.1854C77.4282 72.7925 77.6258 71.6374 77.856 70.5086C78.0855 69.3834 78.4174 67.7127 79.8033 66.4959L79.9898 66.3426C80.941 65.6159 82.1292 65.4554 82.7271 65.3778C83.646 65.2584 84.1084 65.2506 84.8052 65.1268C84.8697 65.0509 84.9957 64.8513 85.1392 64.3846C85.4316 63.4335 85.5385 62.2179 85.6968 60.7645C85.9904 58.0685 85.5794 55.1603 85.024 52.8299C84.2351 49.52 83.3227 46.3527 82.6275 44.3573L82.6197 44.3348L82.6128 44.3123C82.5401 44.0886 82.4682 43.8664 82.396 43.6444C82.3239 43.4222 82.251 43.2002 82.1783 42.9764C81.9868 42.3871 81.9488 42.2709 81.771 41.7235C80.6237 41.5099 79.661 41.1527 78.8658 40.7703C76.5301 39.6473 75.2957 37.5308 74.6265 35.9696C73.9192 34.3191 73.5532 32.5953 73.3443 31.4451L73.3179 31.3016L73.3052 31.1571C73.2105 30.1324 73.1021 28.2526 73.0542 26.0819C71.7119 26.3494 70.0674 26.711 68.1382 27.1346C64.3546 27.9653 59.8156 28.9467 55.5074 29.4852C53.7176 29.7088 52.2038 29.0748 51.1412 28.0867C50.2427 27.2512 49.7238 26.2227 49.4165 25.536C49.1051 24.8399 48.8066 23.9955 48.6128 23.4871C48.3756 22.8649 48.2111 22.5023 48.0738 22.2801C45.8495 18.6805 45.2669 15.0949 44.8745 12.0916C44.8038 11.5503 44.4731 10.755 43.7876 9.72346C43.1725 8.79775 42.4451 7.93156 41.7466 7.10725H41.7456C41.5205 7.03614 41.0984 6.95423 40.4341 6.93147Z" fill="black"/>
</g>
<defs>
<filter id="filter0_d_369_265" x="0" y="0" width="94.6055" height="118.381" filterUnits="userSpaceOnUse" color-interpolation-filters="sRGB">
<feFlood flood-opacity="0" result="BackgroundImageFix"/>
<feColorMatrix in="SourceAlpha" type="matrix" values="0 0 0 0 0 0 0 0 0 0 0 0 0 0 0 0 0 0 127 0" result="hardAlpha"/>
<feOffset dy="4"/>
<feGaussianBlur stdDeviation="2"/>
<feComposite in2="hardAlpha" operator="out"/>
<feColorMatrix type="matrix" values="0 0 0 0 0 0 0 0 0 0 0 0 0 0 0 0 0 0 0.25 0"/>
<feBlend mode="normal" in2="BackgroundImageFix" result="effect1_dropShadow_369_265"/>
<feBlend mode="normal" in="SourceGraphic" in2="effect1_dropShadow_369_265" result="shape"/>
</filter>
</defs>
</svg>
