<svg width="235" height="194" viewBox="0 0 235 194" fill="none" xmlns="http://www.w3.org/2000/svg">
<g filter="url(#filter0_d_369_227)">
<path fill-rule="evenodd" clip-rule="evenodd" d="M125.912 0.377243C127.024 -0.320988 128.515 -0.022236 129.243 1.04424C129.547 1.48929 130.062 1.86151 130.942 2.21611C131.973 2.63139 132.747 2.7749 134.078 3.21123C136.353 3.9572 139.398 4.66905 143.779 7.60478C144.671 8.20228 145.555 8.56511 146.687 9.07549C147.736 9.54887 149.056 10.1762 150.156 11.2884C151.905 13.056 153.837 15.6971 155.248 17.5628C156.055 17.2797 156.704 16.8808 157.772 16.2903C158.836 15.7015 160.148 15.0358 161.919 14.6663C162.051 14.6387 162.168 14.6107 162.32 14.5755C162.454 14.5448 162.645 14.501 162.84 14.4681C163.156 14.4147 164.015 14.2818 164.901 14.7151C166.283 15.3905 167.486 16.5886 168.345 17.3958C169.337 18.329 170.149 19.0417 171.048 19.4847C171.819 19.8646 172.632 20.0546 173.734 20.2806C174.762 20.4911 176.138 20.7481 177.487 21.3616C179.713 22.3734 184.104 23.4688 186.51 23.8948C187.688 24.1035 188.991 24.5357 190.181 24.9231C191.437 25.3324 192.708 25.743 194.061 26.0462C195.286 26.3207 197.539 26.4559 200.196 26.4446C202.789 26.4336 205.544 26.2852 207.654 26.0745L207.668 26.0735L207.684 26.0726C212.266 25.67 218.289 25.8504 221.65 26.054L222.916 26.1409L222.955 26.1438L222.995 26.1487C224.071 26.2678 224.806 26.5597 226.138 27.1595C227.249 27.66 227.773 28.8707 227.401 29.9622C228.512 29.9964 229.591 30.5207 230.267 31.4681C231.392 33.0464 230.971 35.2016 229.326 36.2815C228.673 36.7102 228.171 37.2547 227.567 38.0354C227.079 38.667 226.178 39.9726 225.116 40.9241C224.493 41.4823 224.136 41.7702 223.778 42.1897C223.766 42.2282 223.751 42.2828 223.733 42.3558C223.657 42.6747 223.589 43.1497 223.54 43.8265C223.435 45.2687 223.45 46.8222 223.376 48.9212C223.348 49.7197 223.239 50.9982 222.401 52.1263C221.489 53.356 220.174 53.752 219.869 53.8567C217.384 54.7113 215.167 55.0062 213.515 55.1761C212.61 55.2691 212.099 55.3062 211.575 55.3733C211.51 55.3818 211.452 55.3903 211.402 55.3978C211.39 55.4129 211.376 55.4284 211.362 55.4456C211.098 55.7786 210.755 56.2987 210.329 57.0433C209.475 58.538 208.523 60.5187 207.399 62.8479C206.56 64.5896 206.318 66.3382 206.301 68.0628C206.292 68.9397 206.342 69.7719 206.393 70.6341C206.44 71.4266 206.501 72.3894 206.455 73.2542C206.353 75.164 204.656 76.6322 202.666 76.5345C200.676 76.4367 199.145 74.8096 199.247 72.8997C199.269 72.4864 199.241 71.934 199.188 71.0276C199.138 70.1905 199.074 69.1379 199.085 67.9983C199.093 67.1972 199.138 66.335 199.252 65.428C199.239 65.4376 199.226 65.4478 199.214 65.4563C198.956 65.6331 198.714 65.7298 198.583 65.7767C197.523 66.1568 196.362 65.7721 195.753 64.9124C195.716 64.8984 195.671 64.8809 195.614 64.8636C195.347 64.7821 194.93 64.698 194.293 64.6351L194.117 64.6185L193.946 64.5765C192.2 64.15 190.567 63.5968 189.228 63.1673C187.923 62.7491 186.944 62.4674 186.147 62.3548C186.11 62.3643 186.064 62.3768 186.008 62.3938C185.707 62.4852 185.291 62.6391 184.707 62.8685C183.588 63.3085 181.979 63.9779 180.065 64.6575C176.915 65.7762 174.293 65.9956 172.356 66.3548C171.02 66.6028 169.899 66.9685 168.927 67.302C168.467 67.4598 167.959 67.639 167.524 67.7679C167.128 67.8853 166.511 68.0526 165.862 68.0423C163.868 68.0102 161.711 67.4348 160.002 66.9681C158.077 66.4424 156.785 66.0824 155.915 66.0608C154.694 66.0307 153.875 66.333 152.856 66.7903C152.391 66.9986 151.826 67.3548 151.02 67.9046C150.268 68.4173 149.325 69.0836 148.296 69.7103C147.409 70.2502 146.463 70.6907 145.831 71.0081C145.115 71.368 144.729 71.6049 144.487 71.8274C142.972 73.2253 140.405 74.792 138.122 79.0061C136.655 81.714 135.434 82.6823 133.8 84.2981C132.191 85.8894 130.161 86.5564 129.224 86.9339C128.033 87.4132 126.379 88.218 124.529 88.5755C122.832 88.9035 121.596 89.0518 120.148 89.3792C118.806 89.6825 117.804 90.0458 117.083 90.5433C116.389 91.0225 115.731 91.4676 115.111 91.886C114.489 92.3067 113.909 92.6989 113.354 93.0833C112.453 93.7062 111.514 94.3184 110.655 94.9769C110.238 95.2968 109.898 95.5858 109.645 95.8382C109.386 96.0958 109.307 96.2272 109.303 96.2347C108.793 97.2882 108.528 97.9907 108.571 98.9349C108.601 99.5848 108.681 100.248 108.773 100.939C108.859 101.589 108.965 102.336 109.011 102.992C109.053 103.607 109.073 104.471 108.794 105.283C108.736 105.451 108.66 105.628 108.565 105.807C108.818 106.648 108.743 107.582 108.275 108.413C107.329 110.096 105.14 110.725 103.386 109.817C103.012 109.623 102.681 109.469 102.293 109.287C101.917 109.112 101.469 108.903 100.984 108.645C100.356 108.31 99.4297 107.818 98.1719 107.152C97.2331 106.654 96.3793 106.547 95.8653 106.593C95.8623 106.593 95.8206 106.599 95.7335 106.627C95.636 106.659 95.5032 106.714 95.3282 106.802C94.9304 107.003 94.5841 107.23 94.001 107.593C94.0007 107.593 93.9971 107.596 93.9903 107.601C93.9829 107.606 93.9717 107.613 93.9581 107.623C93.9303 107.644 93.8929 107.674 93.8467 107.713C93.7526 107.794 93.6374 107.903 93.504 108.043C93.2335 108.327 92.942 108.681 92.6534 109.07C92.1932 109.689 91.8394 110.263 91.6544 110.592C91.6291 110.806 91.6053 111.141 91.5997 111.596C91.5879 112.538 91.6557 113.865 91.8848 115.469C91.9089 115.637 92.0311 116.056 92.3399 116.728C92.6256 117.349 92.9792 117.994 93.3086 118.569C93.7994 119.425 94.3447 120.115 94.9346 120.884C95.2138 121.248 96.4223 122.652 97.3047 123.991C98.022 125.079 98.6051 126.041 99.0489 126.818C100.053 126.862 101.896 126.838 103.39 126.772C105.694 126.67 106.854 126.394 107.449 126.27C108.961 125.955 110.655 126.075 111.732 126.161C113.152 126.275 113.763 126.345 114.126 126.318C115.274 126.23 116.362 126.144 117.278 126.12C118.086 126.099 119.091 126.11 120.055 126.34L120.247 126.39L120.51 126.468C121.791 126.894 122.604 127.75 123.076 128.45C123.565 129.173 123.835 129.935 123.996 130.498C124.092 130.832 124.179 131.231 124.254 131.615C124.285 131.621 124.317 131.629 124.351 131.636C124.624 131.693 124.926 131.754 125.275 131.825C125.62 131.894 126.003 131.97 126.419 132.056C126.969 132.17 127.334 132.215 127.597 132.24C127.745 132.253 127.863 132.262 128.037 132.275C128.188 132.286 128.423 132.303 128.675 132.337C130.701 132.612 131.559 134.134 131.808 134.664C132.089 135.265 132.212 135.882 132.273 136.203C132.424 137.009 132.447 137.343 132.544 137.789C132.627 137.826 132.724 137.871 132.84 137.92C133.167 138.059 133.704 138.278 134.181 138.501C134.663 138.727 135.307 139.056 135.907 139.515C137.248 140.54 137.708 141.868 137.835 142.845C137.853 142.987 137.863 143.123 137.87 143.249C137.977 143.322 138.11 143.407 138.274 143.499C139.111 143.969 140.105 144.316 140.498 144.418C141.364 144.643 142.009 144.685 142.473 144.676C143.017 144.666 143.235 144.607 143.882 144.533C144.255 144.49 144.617 144.423 145.206 144.321C145.757 144.225 146.44 144.111 147.228 144.039C148.609 143.913 149.754 143.93 151.123 144.272C152.22 144.546 153.503 145.053 155.009 145.609C155.717 145.87 156.279 145.994 156.702 146.067C156.939 146.108 157.105 146.129 157.355 146.165C157.46 146.181 157.618 146.205 157.78 146.237C157.886 146.257 158.079 146.297 158.31 146.368L158.551 146.45L158.874 146.582C160.447 147.282 161.309 148.513 161.698 149.089C161.815 149.261 161.925 149.433 162.004 149.555C162.013 149.569 162.022 149.583 162.03 149.596C162.269 149.704 162.67 149.902 163.084 150.241C163.538 150.611 163.855 151.021 164.084 151.401C164.678 152.384 164.712 153.532 164.279 154.502C164.335 154.651 164.389 154.802 164.438 154.956C164.726 155.872 165.318 158.334 165.496 161.543C165.534 162.221 165.543 162.59 165.633 163.06C165.712 163.477 165.866 163.998 166.231 164.679C166.288 164.785 166.387 164.936 166.81 165.433C167.207 165.9 167.833 166.609 168.621 167.608C169.044 168.143 169.726 168.729 170.639 169.462C171.035 169.78 171.534 170.175 171.943 170.534C172.277 170.828 172.95 171.429 173.393 172.214C173.811 172.955 173.92 173.768 173.958 174.039C174.02 174.479 174.059 174.976 174.087 175.472C174.143 176.471 174.169 177.744 174.191 179.099C174.203 179.801 174.165 180.427 174.041 181.02C173.91 181.649 173.703 182.106 173.633 182.273C173.12 183.484 172.116 184.181 171.735 184.438C171.239 184.774 170.677 185.07 170.315 185.262C169.459 185.716 168.47 185.928 167.422 185.806C166.495 185.698 165.734 185.353 165.205 185.066C164.228 184.536 163.066 183.642 161.876 182.745C160.717 181.872 160.027 181.469 159.108 180.864C158.481 180.45 157.813 180.063 157.091 179.65C156.414 179.263 155.618 178.814 154.933 178.363C153.773 177.598 152.942 177.003 152.358 176.586C152.057 176.371 151.865 176.233 151.718 176.134C151.679 176.108 151.65 176.09 151.631 176.077C151.26 175.912 150.633 175.73 149.789 175.539C149.286 175.425 149.076 175.385 148.587 175.277C148.315 175.216 147.714 175.086 147.213 174.882C147.108 174.84 146.927 174.789 146.453 174.724C146.145 174.682 145.415 174.603 144.715 174.456C144.645 174.463 144.532 174.474 144.275 174.496C143.495 174.564 142.457 174.606 140.95 174.4C138.247 174.03 136.204 173.068 135.205 172.546C135.011 172.562 134.755 172.587 134.413 172.627C133.67 172.715 132.711 172.768 131.854 172.82C130.935 172.875 130.006 172.934 129.122 173.029C127.742 173.176 126.708 173.351 125.992 173.512C125.688 173.992 125.32 174.323 125.049 174.525C124.607 174.854 124.171 175.035 123.9 175.133C123.354 175.331 122.792 175.428 122.372 175.486C121.484 175.607 120.363 175.658 119.149 175.67C116.425 175.698 114.257 174.898 112.674 173.645C111.472 172.693 110.68 171.692 110.126 170.879C109.863 170.493 109.634 170.12 109.493 169.894C109.318 169.614 109.279 169.564 109.288 169.575C109.062 169.299 108.468 168.734 104.894 167.011C103.479 166.329 102.417 165.584 101.618 164.729C101.396 164.49 101.206 164.254 101.044 164.031C101.022 164.022 100.999 164.014 100.977 164.004C99.3885 163.337 98.0018 162.157 97.0372 161.148C96.5788 160.668 96.3016 160.523 96.1768 160.463C96.0875 160.42 95.9872 160.381 95.795 160.313C95.6606 160.265 95.2581 160.131 94.8946 159.97C93.9148 159.537 93.2062 159.164 92.3174 158.813C91.5581 158.512 90.4819 158.095 89.5645 157.621C88.1923 156.913 87.3644 155.758 86.9483 155.124C86.7094 154.761 86.5054 154.405 86.3575 154.146C86.1842 153.842 86.111 153.711 86.0499 153.616C85.8876 153.362 85.6309 153.042 84.9454 152.088C84.3422 151.249 83.5713 150.136 82.668 148.681C82.4771 148.373 82.3471 148.207 82.0401 147.939C81.637 147.586 80.9617 147.092 79.6045 146.194C78.7773 145.646 77.9271 145.33 75.7461 145.066C75.263 145.007 74.659 144.983 73.9815 144.976C73.4522 144.97 72.5466 144.978 72.0684 144.966C70.9759 144.938 70.5404 144.866 68.5967 144.709C66.4851 144.539 62.4353 144.246 60.2813 144.121C59.2587 144.062 58.8342 144.114 58.6846 144.141C58.5835 144.159 58.5836 144.158 58.1426 144.339C57.532 144.59 56.9252 144.678 56.5811 144.72C56.1732 144.77 55.7405 144.796 55.3282 144.81C54.5053 144.839 53.5056 144.831 52.4766 144.819C51.2058 144.804 49.8174 144.731 48.6944 144.617C48.1474 144.561 47.5697 144.486 47.0713 144.381C46.8394 144.333 46.4849 144.249 46.1172 144.107C45.9381 144.037 45.6252 143.904 45.2881 143.677C45.0134 143.492 44.2933 142.962 43.918 141.965C43.6917 141.364 43.5616 140.766 43.4883 140.435C43.4446 140.237 43.4185 140.115 43.3907 140.005C43.3891 139.999 43.3862 139.993 43.3848 139.988C43.3654 139.962 43.3421 139.928 43.3096 139.888C43.2438 139.806 43.0529 139.577 42.8995 139.372C42.7876 139.224 42.6556 139.034 42.5196 138.811C42.5107 138.808 42.5009 138.804 42.4913 138.801C42.1144 138.672 41.7645 138.505 41.5167 138.381C41.2472 138.247 40.9684 138.096 40.712 137.954C40.2157 137.681 39.8081 137.449 39.3721 137.214C38.5021 137.284 37.6034 137.054 36.8594 136.5C36.7333 136.406 36.4941 136.255 36.168 136.096C36.002 136.015 35.8326 135.941 35.667 135.877C35.5426 135.906 35.3827 135.945 35.1788 135.999C34.8728 136.081 34.3094 136.239 33.877 136.348C33.4095 136.466 32.8094 136.605 32.1895 136.674C31.0076 136.807 29.6681 137.028 28.4336 137.271C28.2841 137.3 27.9437 137.408 27.1915 137.69C26.5523 137.929 25.6565 138.278 24.7501 138.568C23.7718 138.88 22.6937 138.96 21.8672 138.996C20.9885 139.035 19.9372 139.036 18.9356 139.047C17.3841 139.064 15.762 139.11 14.3721 138.737C14.2715 138.71 13.8984 138.646 13.2803 138.656C12.6961 138.665 12.0451 138.737 11.4346 138.879C11.3814 138.892 11.2897 138.921 10.7471 139.179C10.6836 139.209 10.6121 139.241 10.5352 139.278C10.2435 140.076 9.50723 140.691 8.57329 140.806C7.69031 140.914 6.85942 140.548 6.35552 139.914C5.27875 139.53 4.41037 138.661 4.10943 137.511C3.742 136.107 4.32599 134.688 5.46978 133.879C5.38743 132.019 5.37177 130.11 5.41509 128.329C5.45708 126.604 5.5537 124.966 5.70415 123.578C5.84826 122.249 6.05879 120.966 6.39165 120.062C7.01695 118.362 7.63909 116.758 8.26861 115.402C8.87671 114.092 9.5838 112.807 10.4434 111.894C11.9286 110.316 13.6598 109.143 15.0655 108.035C16.6281 106.804 19.3597 104.61 21.2198 102.918C21.8249 102.368 22.3966 101.74 23.0342 101.017C23.6479 100.321 24.3448 99.5123 25.1016 98.7513C25.7621 98.087 26.3049 97.1653 26.8751 95.9144C27.1578 95.2939 27.4255 94.646 27.7227 93.9319C28.0134 93.2334 28.3284 92.4816 28.6836 91.7317C30.0009 88.9517 31.3676 87.3581 32.5088 86.0042C33.6775 84.6178 34.6871 82.6214 35.001 81.1448C35.4176 79.1849 35.1127 77.5 34.9571 74.7688C34.8501 72.8909 35.7354 70.9601 36.4102 69.5071C37.1796 67.8505 37.9216 66.3616 38.3252 64.7669C39.6103 59.6892 40.0873 57.998 42.0967 52.6263C42.9559 50.3295 43.9351 47.9416 44.8663 45.9036C45.7677 43.9306 46.7087 42.0946 47.501 41.0364C48.3108 39.955 49.3258 38.7125 50.1602 37.6419C51.0438 36.5082 51.7946 35.4807 52.3018 34.5901C53.4245 32.6186 55.0126 31.0027 56.5616 29.8011C58.0928 28.6133 59.7258 27.7223 61.0586 27.2981C62.309 26.9003 63.8267 26.7584 65.0264 26.6282C66.3528 26.4843 67.5303 26.3403 68.5831 26.0306C69.2331 25.8392 69.9367 25.4881 70.8233 25.0061C71.6179 24.5742 72.6656 23.9727 73.6885 23.5823C75.9176 22.7318 78.038 22.6497 80.5938 22.4505C85.3993 22.0759 91.7621 22.3702 99.086 22.3743C99.9228 22.3747 101.019 21.8551 102.592 20.4651C103.335 19.8084 104.082 19.0534 104.883 18.2337C105.662 17.4363 106.504 16.5651 107.355 15.7815C110.078 13.2737 112.263 12.1671 114.544 10.5647C115.555 9.85445 116.532 9.06987 117.579 8.24443C118.58 7.45535 119.652 6.62361 120.746 5.929C122.561 4.65568 123.926 3.76464 124.83 3.13408C124.848 3.05297 124.865 2.9509 124.887 2.8206C124.67 1.90702 125.048 0.920588 125.912 0.377243ZM128.448 6.25713L128.304 6.40752L128.134 6.53154C127.301 7.13756 125.342 8.42156 123.534 9.6917L123.486 9.72685L123.436 9.75908C122.565 10.3084 121.657 11.0057 120.633 11.8128C119.641 12.5947 118.533 13.4842 117.386 14.2903C114.514 16.3075 113.119 16.8732 110.687 19.1126C109.949 19.7918 109.207 20.5573 108.393 21.3909C107.6 22.2023 106.742 23.0751 105.852 23.8616C104.158 25.3582 101.874 26.993 99.0831 26.9915C91.3763 26.9872 85.534 26.6983 80.9835 27.053C78.1244 27.2759 76.8676 27.3389 75.4669 27.8733C74.8357 28.1142 74.1673 28.4944 73.1954 29.0228C72.3156 29.501 71.2015 30.0891 69.9932 30.4446C68.4537 30.8976 66.8507 31.0769 65.5674 31.2161C64.1577 31.369 63.2349 31.4705 62.5733 31.681C61.9227 31.888 60.7916 32.4567 59.586 33.3919C58.3982 34.3133 57.2757 35.4849 56.5245 36.804C55.8415 38.0033 54.9117 39.2532 54.0127 40.4065C53.0647 41.623 52.1947 42.6782 51.4073 43.7298C50.9461 44.3457 50.1827 45.7661 49.2725 47.7581C48.392 49.6852 47.4519 51.9727 46.6241 54.1858C44.6826 59.376 44.2537 60.9072 43.001 65.8567C42.4685 67.961 41.4883 69.9152 40.8047 71.387C40.0267 73.0623 39.7285 73.9481 39.7608 74.5159C39.8829 76.6582 40.2959 79.3387 39.7159 82.0677C39.2283 84.3614 37.8391 87.0234 36.25 88.9085C35.154 90.2087 34.1146 91.4245 33.0635 93.6429C32.7595 94.2844 32.4809 94.9462 32.1905 95.6438C31.9065 96.3262 31.6059 97.0592 31.2842 97.7649C30.6455 99.1665 29.8312 100.683 28.5821 101.939C27.9509 102.573 27.3737 103.244 26.7061 104C26.0622 104.73 25.3432 105.529 24.5293 106.269C22.5335 108.084 19.6852 110.369 18.1192 111.603C16.3474 112.999 15.1787 113.751 14.0137 114.989C13.6894 115.333 13.2331 116.055 12.6641 117.281C12.1163 118.461 11.5469 119.923 10.9297 121.6C10.8004 121.951 10.6304 122.764 10.4903 124.056C10.3565 125.29 10.2655 126.8 10.2256 128.438C10.1971 129.609 10.196 130.83 10.2227 132.043C12.306 131.63 14.6153 131.61 16.3174 132.068C16.3174 132.068 16.4445 132.101 16.8877 132.118C17.3428 132.136 17.936 132.132 18.8555 132.122C19.9846 132.11 20.8221 132.11 21.5333 132.078C22.2956 132.045 22.5093 131.984 22.4708 131.996C23.1505 131.779 23.8021 131.525 24.5645 131.24C25.2131 130.996 26.13 130.655 26.9874 130.487C28.3512 130.219 29.9043 129.958 31.3526 129.795C31.7194 129.754 32.1878 129.608 33.251 129.325C33.678 129.212 34.2374 129.07 34.7989 128.985C35.2693 128.913 36.2326 128.794 37.2588 129.084C37.8143 129.241 38.3698 129.443 38.9024 129.675C39.2555 129.653 39.5331 129.683 39.6846 129.703C40.0589 129.754 40.3616 129.847 40.542 129.909C40.909 130.036 41.2358 130.196 41.462 130.315C41.8996 130.545 42.3812 130.842 42.8438 131.143C43.3703 131.426 43.938 131.746 44.3067 131.95C44.5369 132.076 44.7139 132.171 44.8497 132.239C44.9596 132.293 44.9955 132.307 44.9766 132.3C45.7156 132.557 47.6943 133.322 48.7452 135.31C48.7475 135.313 48.7509 135.316 48.754 135.321C48.8147 135.401 48.8571 135.452 49.0206 135.655C49.2366 135.923 49.6747 136.465 50.0098 137.205L50.1456 137.534L50.2227 137.748C50.2279 137.764 50.2323 137.78 50.2374 137.795C50.9596 137.847 51.7821 137.885 52.5645 137.894C53.617 137.906 54.4458 137.91 55.0665 137.888C55.2982 137.88 55.4649 137.868 55.5782 137.858C55.9667 137.7 56.5684 137.476 57.3487 137.335C58.3006 137.163 59.3746 137.132 60.7159 137.209C62.9424 137.338 67.0519 137.634 69.2022 137.808C71.5202 137.995 71.4402 138.022 72.2608 138.043C72.8143 138.057 75.0389 138 76.6475 138.195C79.3757 138.525 81.525 139.053 83.7012 140.492C86.473 142.326 87.7387 143.319 88.8672 145.136C89.6703 146.429 90.3515 147.411 90.8868 148.156C91.3393 148.785 91.9081 149.536 92.1973 149.988C92.3824 150.276 92.5737 150.619 92.6905 150.825C92.8325 151.074 92.9442 151.265 93.0538 151.432C93.1101 151.518 93.1555 151.581 93.1895 151.625C93.6782 151.86 94.2957 152.104 95.0684 152.409C96.0715 152.806 97.4736 153.485 97.9122 153.679C97.919 153.682 97.9411 153.69 97.9864 153.706C98.0719 153.737 98.128 153.757 98.2842 153.812C98.5511 153.906 98.948 154.05 99.3985 154.266C99.8753 154.494 100.358 154.776 100.849 155.134C101.754 154.62 102.885 154.489 103.947 154.868C105.616 155.465 106.552 157.122 106.234 158.746C106.396 159.019 106.608 159.382 106.777 159.719C106.971 160.104 106.96 160.071 106.994 160.108C107.042 160.159 107.304 160.421 108.134 160.822C111.54 162.464 113.606 163.633 114.972 165.308C115.277 165.683 115.532 166.09 115.684 166.333C115.869 166.631 116.002 166.848 116.166 167.088C116.466 167.528 116.798 167.931 117.268 168.302C117.45 168.447 117.934 168.756 119.072 168.744C119.541 168.74 119.945 168.727 120.286 168.711C120.447 168.527 120.593 168.389 120.693 168.302C121.068 167.979 121.45 167.764 121.718 167.63C122.267 167.355 122.885 167.148 123.473 166.986C124.684 166.652 126.314 166.359 128.324 166.145C129.403 166.03 130.493 165.962 131.403 165.908C132.376 165.849 133.059 165.809 133.53 165.753C134.823 165.6 136.579 165.355 138.19 166.215C138.809 166.545 140.097 167.287 141.969 167.543C142.811 167.658 143.274 167.629 143.623 167.599C143.738 167.589 144.202 167.539 144.536 167.526C144.926 167.51 145.412 167.52 145.964 167.627L146.205 167.68L146.422 167.725C146.644 167.764 146.911 167.79 147.481 167.868C148.11 167.955 149.04 168.105 150.026 168.505C149.843 168.431 149.794 168.437 150.217 168.531C150.423 168.576 151.054 168.71 151.447 168.799C152.352 169.004 153.723 169.34 154.9 169.902C155.286 170.086 155.627 170.305 155.861 170.463C156.111 170.631 156.394 170.833 156.67 171.031C157.241 171.439 157.98 171.968 159.021 172.655C159.467 172.949 160.024 173.266 160.784 173.7C161.499 174.109 162.352 174.599 163.193 175.154C163.899 175.618 164.934 176.244 166.335 177.3C166.555 177.466 166.758 177.618 166.946 177.759C166.93 177.016 166.911 176.375 166.881 175.848C166.873 175.703 166.862 175.574 166.854 175.461C166.633 175.277 166.364 175.061 166.006 174.773C165.16 174.093 163.856 173.041 162.868 171.79C162.183 170.922 161.691 170.368 161.218 169.812C160.77 169.286 160.246 168.652 159.814 167.847C158.367 165.147 158.354 163.087 158.289 161.912C158.142 159.257 157.649 157.344 157.529 156.963C157.395 156.538 157.299 156.455 156.777 155.447C156.533 154.974 156.412 154.474 156.401 153.979C156.318 153.869 156.247 153.77 156.189 153.686C156.066 153.509 155.953 153.333 155.868 153.202C155.794 153.088 155.738 153.001 155.686 152.922C155.603 152.909 155.514 152.897 155.426 152.882C154.66 152.75 153.642 152.525 152.419 152.074C150.562 151.389 149.885 151.118 149.306 150.974C148.999 150.897 148.751 150.857 147.91 150.934C147.438 150.977 147.001 151.046 146.494 151.134C146.025 151.216 145.387 151.334 144.742 151.408C144.031 151.49 141.824 151.937 138.614 151.104C137.677 150.861 136.08 150.291 134.631 149.478C133.904 149.07 133.059 148.515 132.341 147.794C131.688 147.139 130.854 146.054 130.68 144.576C130.466 144.484 130.23 144.385 129.924 144.255C129.525 144.086 128.956 143.841 128.429 143.535C127.974 143.272 127.059 142.695 126.464 141.667C126.453 141.649 125.891 140.821 125.614 139.768C125.538 139.476 125.476 139.191 125.425 138.928C125.258 138.898 125.082 138.865 124.897 138.826C123.501 138.538 122.037 138.275 121.067 137.978C120.547 137.818 119.772 137.54 119.063 136.995C118.221 136.349 117.626 135.448 117.415 134.371C117.374 134.162 117.339 133.944 117.31 133.761C117.278 133.56 117.253 133.393 117.222 133.208C117.213 133.155 117.201 133.104 117.192 133.054C116.552 133.08 115.755 133.139 114.7 133.22C114.038 133.271 113.349 133.238 112.81 133.2C112.288 133.165 111.604 133.101 111.135 133.064C109.943 132.969 109.288 132.973 108.981 133.037C108.247 133.19 106.626 133.562 103.721 133.69C102.126 133.76 99.993 133.797 98.6622 133.735C98.0594 133.707 97.2657 133.68 96.6641 133.587C96.1782 133.513 94.2453 133.196 93.3399 131.297C93.1483 130.895 92.4386 129.563 91.2051 127.692C90.8853 127.206 90.5299 126.74 90.169 126.289C89.8766 125.924 89.3937 125.343 89.1231 124.991C88.6136 124.327 87.7516 123.245 86.9844 121.906C86.6218 121.273 86.1503 120.421 85.7374 119.523C85.3476 118.675 84.8972 117.549 84.7344 116.41C84.4608 114.496 84.3656 112.826 84.3819 111.514C84.39 110.861 84.427 110.262 84.4913 109.745C84.5402 109.352 84.6444 108.63 84.9561 107.969L85.1006 107.678C85.4726 106.961 86.0856 105.98 86.7754 105.051C87.5141 104.056 88.6804 102.65 90.0752 101.783C90.7192 101.382 92.7833 99.9117 95.1973 99.6966C97.2485 99.514 99.543 99.9658 101.662 101.089C102.693 101.636 103.504 102.066 104.112 102.39C104.08 102.129 104.042 101.842 103.999 101.52C103.906 100.816 103.804 99.9916 103.765 99.138C103.669 97.0412 104.354 95.4985 104.94 94.2894C105.523 93.0841 106.754 92.0584 107.65 91.3704C108.633 90.6167 109.789 89.8581 110.54 89.3382C111.121 88.9361 111.724 88.5288 112.341 88.1116C112.962 87.6921 113.602 87.2595 114.274 86.7952C115.756 85.773 117.48 85.2396 119.044 84.886C120.502 84.5565 122.353 84.2862 123.579 84.0491C124.807 83.8118 125.725 83.3362 127.362 82.677C128.656 82.156 129.578 81.8424 130.346 81.0833C132.118 79.3303 132.776 78.8646 133.853 76.8772C136.612 71.7835 140.108 69.4624 141.152 68.4983C141.932 67.779 142.864 67.2864 143.599 66.9173C144.418 66.5054 145.055 66.2154 145.718 65.8118C146.608 65.2698 147.393 64.7132 148.232 64.1409C149.017 63.6058 149.908 63.0154 150.816 62.6077C152.08 62.0407 153.708 61.3882 156.038 61.4456C157.678 61.4861 159.723 62.0907 161.319 62.5267C163.088 63.0097 164.609 63.3855 165.852 63.4222C165.889 63.414 165.97 63.3967 166.105 63.3567C166.408 63.2667 166.769 63.1403 167.308 62.9554C168.333 62.6035 169.734 62.1386 171.443 61.8216C173.921 61.362 175.737 61.271 178.395 60.3274C180.205 59.6845 181.658 59.0776 182.883 58.596C183.471 58.3647 184.048 58.1456 184.556 57.9915C184.969 57.8661 185.714 57.6566 186.482 57.7395C187.893 57.892 189.386 58.3506 190.752 58.7884C192.151 59.2369 193.519 59.6989 194.993 60.0667C196.394 60.2201 197.826 60.537 198.909 61.386C198.922 61.3941 198.938 61.4033 198.965 61.4202C198.983 61.4317 199.209 61.5667 199.414 61.7435C199.511 61.8268 199.725 62.0234 199.913 62.3294C200.154 61.5475 200.46 60.748 200.85 59.9397C201.931 57.6976 203 55.4643 204 53.7142C204.502 52.8363 205.044 51.9747 205.624 51.2454C206.145 50.5902 206.973 49.6789 208.148 49.1419L208.485 49.0003C209.277 48.6973 210.078 48.5775 210.619 48.5081C211.251 48.427 212.109 48.3558 212.745 48.2903C213.819 48.18 214.967 48.0271 216.189 47.7112C216.226 46.243 216.247 44.6254 216.341 43.3431C216.401 42.5117 216.501 41.6312 216.698 40.8069C216.886 40.022 217.226 39.0019 217.947 38.1019L218.273 37.7132C219.041 36.8365 219.828 36.187 220.189 35.8626C220.617 35.4797 220.886 35.0533 221.77 33.9104C222.354 33.1547 223.114 32.2376 224.166 31.3675C224.142 31.3576 224.117 31.3498 224.094 31.3392C223.439 31.0442 223.102 30.9059 222.875 30.8294C222.715 30.7754 222.621 30.7562 222.469 30.7386C219.678 30.5215 212.929 30.248 208.122 30.6702V30.6692C205.85 30.895 202.948 31.0502 200.217 31.0618C197.539 31.0732 194.789 30.9509 192.966 30.5423C191.352 30.1806 189.871 29.6974 188.634 29.2942C187.33 28.8694 186.396 28.5694 185.637 28.4349C183.094 27.9846 178.218 26.8034 175.427 25.5345C174.679 25.1947 173.888 25.0327 172.73 24.7952C171.646 24.573 170.253 24.2847 168.85 23.5931C167.22 22.7898 165.935 21.5951 164.978 20.6946C164.181 19.9461 163.645 19.4444 163.193 19.1204C163.115 19.1382 163.029 19.1596 162.94 19.178C161.895 19.3964 161.091 19.7837 160.175 20.2903C159.31 20.7687 158.124 21.497 156.71 21.9661C156.229 22.1257 155.438 22.3294 154.537 22.2493C153.545 22.161 152.456 21.7227 151.67 20.6936C150.072 18.6013 148.268 16.0851 146.667 14.4671C146.243 14.0382 145.661 13.7147 144.639 13.2532C143.698 12.8287 142.339 12.2709 141.024 11.3899C137.304 8.89686 134.95 8.3764 132.523 7.58037C131.826 7.35191 130.24 6.94107 129.08 6.47392C128.886 6.39552 128.687 6.30754 128.486 6.21416C128.473 6.22798 128.462 6.24337 128.448 6.25713Z" fill="#151515"/>
</g>
<defs>
<filter id="filter0_d_369_227" x="0" y="0" width="234.897" height="193.84" filterUnits="userSpaceOnUse" color-interpolation-filters="sRGB">
<feFlood flood-opacity="0" result="BackgroundImageFix"/>
<feColorMatrix in="SourceAlpha" type="matrix" values="0 0 0 0 0 0 0 0 0 0 0 0 0 0 0 0 0 0 127 0" result="hardAlpha"/>
<feOffset dy="4"/>
<feGaussianBlur stdDeviation="2"/>
<feComposite in2="hardAlpha" operator="out"/>
<feColorMatrix type="matrix" values="0 0 0 0 0 0 0 0 0 0 0 0 0 0 0 0 0 0 0.25 0"/>
<feBlend mode="normal" in2="BackgroundImageFix" result="effect1_dropShadow_369_227"/>
<feBlend mode="normal" in="SourceGraphic" in2="effect1_dropShadow_369_227" result="shape"/>
</filter>
</defs>
</svg>
