<svg width="137" height="142" viewBox="0 0 137 142" fill="none" xmlns="http://www.w3.org/2000/svg">
<g filter="url(#filter0_d_369_322)">
<path fill-rule="evenodd" clip-rule="evenodd" d="M60.9053 0.16811C61.5117 0.0812213 62.5082 -0.0563291 63.5449 0.0245548C64.654 0.111157 66.0745 0.466136 67.2842 1.57436C67.6056 1.86883 67.9095 2.15279 68.1816 2.40737C68.4598 2.66755 68.7 2.8919 68.9199 3.09194C69.1402 3.29227 69.3125 3.44334 69.4502 3.5558C69.5626 3.64766 69.6206 3.68789 69.6328 3.69643C70.5061 4.23453 72.0751 4.84549 74.6846 5.59389C79.048 6.84529 80.6168 6.76559 82.2959 6.44936C83.082 6.30129 83.9025 6.23783 84.5742 6.19252C85.3158 6.14251 85.9172 6.1121 86.5684 6.04799C87.8546 5.92133 88.7428 5.70476 89.3906 5.33608C90.6875 4.59812 92.2677 4.72588 93.4053 5.54018C93.8122 4.86473 94.5621 4.40086 95.4336 4.37905C96.7678 4.34582 97.8783 5.35806 97.9131 6.63979C97.943 7.74883 98.0027 9.17873 98.0879 10.3703C98.1308 10.97 98.1781 11.4791 98.2266 11.8458C98.2334 11.8979 98.24 11.9445 98.2461 11.9855C98.3976 12.1614 98.5718 12.3067 98.8008 12.4669C99.0034 12.6087 99.1651 12.7072 99.4619 12.9025C99.7236 13.0747 100.048 13.2957 100.378 13.5714C101.359 14.3922 102.344 15.3347 103.295 16.9367C103.906 17.9651 104.165 18.9011 104.335 19.7257C104.521 20.6284 104.558 21.0724 104.764 21.8126C105.767 25.4193 106.032 27.8441 106.688 31.3732C107.452 35.4786 106.076 38.5348 105.855 39.6935C105.74 40.2997 105.773 41.168 105.965 42.2814C106.152 43.3701 106.456 44.5145 106.766 45.6417C107.05 46.6789 107.393 47.4664 107.94 48.3078C107.957 48.3124 107.977 48.3199 108 48.3253C108.143 48.3585 108.352 48.3901 108.676 48.4171C109.007 48.4448 109.36 48.4613 109.828 48.4874C111.539 48.5831 113.154 48.659 114.397 48.7785C115.021 48.8384 115.634 48.9166 116.169 49.0324C116.576 49.1204 117.294 49.2973 117.908 49.7423L118.029 49.8351L118.175 49.9572C118.886 50.5783 119.353 51.3595 119.67 52.0294C120.02 52.7698 120.277 53.5685 120.476 54.2912C120.675 55.0178 120.835 55.7446 120.966 56.3322C121.108 56.9709 121.201 57.3755 121.282 57.6232C121.288 57.6359 121.34 57.7639 121.491 58.0509C121.642 58.3371 121.853 58.7082 122.123 59.1574C122.663 60.0538 123.408 61.2075 124.313 62.5314C124.687 63.0779 125.342 63.5737 126.249 64.0001C126.919 64.3152 127.631 64.548 128.287 64.7306L128.922 64.8976L130.232 65.2238L130.259 65.3078C130.514 65.4265 130.76 65.5758 130.988 65.757C132.533 66.9806 132.752 69.1753 131.479 70.6593C130.767 71.4889 130.046 72.5402 129.008 73.9542C128.053 75.254 126.884 76.7784 125.521 78.0656C123.763 79.726 122.453 80.8155 121.406 81.7003C120.366 82.5794 119.644 83.2085 118.864 84.0597C116.769 86.3477 115.536 88.3373 114.139 90.338C112.81 92.2405 111.181 94.388 108.432 95.7042C108.427 95.7066 108.402 95.72 108.354 95.7482C108.299 95.7812 108.225 95.8282 108.134 95.8917C107.948 96.0204 107.717 96.1972 107.452 96.422C106.921 96.873 106.313 97.4667 105.718 98.1544C104.475 99.5902 103.545 101.134 103.229 102.395C102.868 103.83 102.645 105.261 102.381 106.807C102.134 108.252 101.835 109.908 101.297 111.371C100.951 112.313 100.675 113.147 100.415 113.939C100.162 114.709 99.9058 115.497 99.6279 116.235C99.0412 117.794 98.3026 119.284 96.958 120.826C95.9358 121.999 94.3506 123.09 92.4248 124.1C90.4348 125.143 87.8383 126.222 84.5674 127.28C80.9106 128.463 74.8209 130.866 67.5283 128.813C64.634 127.998 62.5983 126.626 61.3252 125.814C61.239 125.797 61.1299 125.779 60.9971 125.758C60.4246 125.669 59.5765 125.575 58.4785 125.503C56.2908 125.36 53.2547 125.316 49.6924 125.534C46.6235 125.722 46.3723 125.811 45.8516 126.048C42.9066 127.391 40.9266 128.287 38.915 128.869C37.5732 129.258 36.0829 129.512 34.957 129.738C33.7343 129.984 32.6092 130.249 31.4648 130.689C30.8477 130.925 30.2399 131.203 29.4912 131.541C28.7882 131.858 27.9493 132.234 27.0723 132.539C25.2715 133.166 22.9438 133.633 20.3525 132.78C17.9832 132.001 16.1121 130.422 14.9297 129.544C14.0212 128.87 12.9659 127.858 12.1641 126.247C11.3825 124.677 10.9408 122.735 10.9062 120.315C10.7942 112.454 10.5534 106.916 10.5098 105.758C10.4431 103.991 10.6896 102.271 10.748 101.579C10.801 100.952 10.9074 100.261 10.9766 99.7619C11.0538 99.2042 11.1099 98.7333 11.127 98.2863C11.16 97.4199 11.0373 96.8245 10.7393 96.3156C8.98796 93.3258 8.2115 91.4319 6.09082 85.9689C5.55554 85.4992 5.00403 84.8959 4.53613 84.1115L4 83.214L4.0625 82.1818C4.16242 80.5022 4.45285 78.7021 5.08984 77.1203C5.697 75.6127 6.87288 73.7002 9.1377 72.8371L9.26074 72.7863C9.88302 72.5164 10.5731 71.9732 10.9971 71.2013C11.364 70.5331 11.8575 69.9282 12.1533 69.5607C12.5067 69.1216 12.7922 68.7697 13.0742 68.3546C13.588 67.5982 14.105 66.6004 14.3516 65.0382C14.9289 61.3798 14.7907 58.1831 14.3477 56.7765C13.7947 55.0212 13.4143 52.9718 13.0684 50.9415C12.7098 48.8372 12.379 46.6966 11.9219 44.4562C11.7488 43.6082 11.4799 42.9685 11.0732 42.0568C10.6653 41.1423 10.1084 39.9336 9.71875 38.3263C9.3088 36.6354 8.97378 34.4444 9.00293 32.2814C9.03034 30.253 9.37965 27.6007 10.9551 25.5529C11.9969 24.1989 13.2455 23.2615 13.9473 22.7081C14.2939 22.4348 14.499 22.2563 14.6172 22.1496C14.6362 21.9897 14.668 21.7603 14.7266 21.505C14.7921 21.2194 14.851 20.7355 14.9141 19.9728C14.9688 19.3101 15.0294 18.3936 15.1201 17.5998C15.2065 16.8439 15.356 15.8035 15.7227 14.881C16.0033 14.1749 17.1165 11.8651 19.9521 11.8732C19.9159 11.8731 19.8475 11.8766 20.2998 11.8439C20.6128 11.8212 21.0712 11.7943 21.5967 11.8126C22.5762 11.8468 23.9509 12.0415 25.3086 12.8312L25.5801 12.9972L25.9648 13.255C26.3478 13.5193 26.7143 13.7953 27.001 14.007C27.4283 14.3226 27.78 14.5749 28.1289 14.7912C28.8179 15.2181 29.2634 15.3488 29.627 15.3585C29.9548 15.3672 30.5657 15.2905 31.7354 14.84C32.9063 14.389 34.3853 13.6666 36.4121 12.5958C38.477 11.5049 40.4001 10.6985 42.042 10.0958C42.8227 9.80933 43.5729 9.68389 44.1084 9.61049C44.3781 9.57352 44.6506 9.54331 44.8535 9.51967C45.0752 9.49385 45.2399 9.47361 45.3867 9.45131C45.3917 9.45056 45.3975 9.44913 45.4023 9.44838C45.4192 9.41056 45.439 9.36903 45.459 9.32241C45.5721 9.0588 45.8449 8.37063 46.1104 7.83315C46.6988 6.64195 47.9715 4.61972 50.7764 4.08901L51.6758 3.9308C51.9664 3.88304 52.245 3.83897 52.5029 3.79897C53.0427 3.71527 53.4772 3.64871 53.8691 3.57436C54.2616 3.49991 54.5107 3.43639 54.666 3.38491C54.676 3.3816 54.6851 3.37803 54.6934 3.37514C55.6693 2.61775 57.7949 0.613924 60.9053 0.16811ZM62.6543 6.97573C62.4732 6.98995 62.2594 7.01696 61.9746 7.05776C61.6585 7.10313 61.3899 7.20675 60.9902 7.46987C60.7644 7.61857 60.5187 7.80351 60.1865 8.06459C59.8865 8.30045 59.4623 8.64228 59.0352 8.9601C57.7753 9.89733 56.2079 10.2311 55.2734 10.4083C54.7317 10.5111 54.1608 10.599 53.6582 10.6769C53.306 10.7315 52.9742 10.7848 52.6514 10.84C52.4975 11.1543 52.4155 11.3874 52.1631 11.9757C51.9652 12.437 51.6301 13.1888 51.0938 13.8849C49.6604 15.745 47.6125 16.1652 46.5195 16.3312C46.1872 16.3817 45.2004 16.4977 45.1328 16.507C44.7805 16.5553 44.6573 16.5926 44.6299 16.6027C43.2387 17.1133 41.6274 17.7891 39.9062 18.6984C37.8526 19.7833 36.0435 20.6854 34.4326 21.3058C32.8214 21.9263 31.1554 22.3685 29.4248 22.3224C27.2098 22.2633 25.4557 21.4232 24.1992 20.6447C23.5754 20.2581 23.0166 19.8495 22.582 19.5285C22.4565 19.4357 22.3428 19.353 22.2402 19.2775C22.209 19.66 22.1804 20.0677 22.1426 20.5246C22.0816 21.2617 21.9933 22.1914 21.8066 23.005C21.8236 22.9311 21.8255 22.8972 21.8193 22.9513C21.8165 22.9763 21.8139 23.0074 21.8086 23.0607C21.8041 23.1066 21.797 23.1806 21.7891 23.254C21.7635 23.4899 21.6929 24.183 21.3574 24.9083C20.6121 26.5196 19.2056 27.575 18.5488 28.0929C17.6962 28.7653 17.1963 29.1604 16.7861 29.6935C16.5951 29.9421 16.2747 30.7609 16.2529 32.3712C16.233 33.8477 16.4692 35.4659 16.7793 36.7453C17.0044 37.6739 17.3108 38.3553 17.7383 39.3136C18.1669 40.2745 18.7066 41.4921 19.0381 43.1164C19.5243 45.4992 19.887 47.8411 20.2236 49.8165C20.5729 51.866 20.8903 53.4962 21.2881 54.7589C22.1917 57.6279 22.1595 62.0343 21.5205 66.0831C21.0952 68.7779 20.1354 70.7041 19.1455 72.1613C18.6759 72.8526 18.203 73.4308 17.8887 73.8214C17.7201 74.0308 17.6076 74.1734 17.5186 74.2941C17.4419 74.3981 17.4137 74.4454 17.4102 74.4513C16.1425 76.7596 14.1113 78.3651 12.0615 79.2091C12.0138 79.2837 11.94 79.4168 11.8525 79.6339C11.6965 80.0214 11.5612 80.5289 11.46 81.1369C11.5015 81.1555 11.5525 81.1805 11.6172 81.2091C11.8753 81.3232 12.2414 81.4848 12.7852 81.7404C14.5836 82.5858 15.3282 84.6718 14.4482 86.3996C14.3695 86.5541 14.2798 86.7001 14.1816 86.838C15.3463 89.7465 15.9584 91.0203 17.0586 92.8986C18.2382 94.9123 18.4348 96.9231 18.373 98.5421C18.3427 99.3377 18.2471 100.08 18.1641 100.68C18.0729 101.338 18.0088 101.749 17.9756 102.143C17.8703 103.388 17.7098 104.282 17.7559 105.505C17.7991 106.652 18.0429 112.268 18.1562 120.219C18.18 121.886 18.4778 122.784 18.7051 123.241C18.9121 123.657 19.1352 123.862 19.3623 124.03C21.0895 125.312 21.7709 125.884 22.7012 126.191C23.1039 126.323 23.5943 126.341 24.6016 125.99C25.1282 125.807 25.6907 125.56 26.4082 125.236C27.0802 124.933 27.9137 124.551 28.7764 124.22C30.5055 123.556 32.1131 123.193 33.4746 122.92C34.9331 122.627 35.8806 122.473 36.8223 122.2C38.2054 121.8 39.6585 121.161 42.7422 119.755C44.7357 118.846 46.4288 118.755 49.2314 118.583C53.102 118.346 56.4564 118.389 58.9697 118.553C60.2217 118.635 61.3027 118.749 62.1562 118.882C62.5788 118.948 62.9925 119.025 63.3652 119.118C63.5816 119.172 64.1078 119.306 64.6445 119.589L64.875 119.72L66.0615 120.465C67.1716 121.164 68.124 121.722 69.5674 122.128C74.2915 123.458 78.1212 122.017 82.2529 120.68C85.2295 119.717 87.4192 118.788 88.9521 117.985C90.5493 117.147 91.2253 116.553 91.4004 116.353C92.0363 115.623 92.4103 114.928 92.8096 113.867C93.0246 113.296 93.2305 112.666 93.5 111.845C93.7625 111.045 94.0703 110.113 94.4609 109.051C94.7541 108.254 94.9675 107.186 95.2256 105.677C95.4664 104.269 95.7415 102.514 96.1807 100.763C96.8628 98.0436 98.5503 95.5406 100.144 93.7003C101.692 91.9123 103.602 90.234 105.198 89.4699C106.111 89.0327 106.848 88.2756 108.118 86.4572C109.319 84.737 110.919 82.1887 113.421 79.4572C114.528 78.2486 115.549 77.3725 116.617 76.4699C117.679 75.5729 118.844 74.6038 120.438 73.0978C121.303 72.2809 122.157 71.2 123.083 69.9396C123.463 69.4217 123.88 68.8389 124.309 68.254C124.247 68.2263 124.185 68.1989 124.124 68.1701C122.801 67.5479 121.304 66.5879 120.274 65.0822C119.333 63.7065 118.537 62.4751 117.939 61.4826C117.391 60.5718 116.882 59.6592 116.672 59.0177C116.506 58.5128 116.363 57.8614 116.238 57.3019C116.103 56.6911 115.967 56.0749 115.802 55.4738C115.636 54.8686 115.46 54.3524 115.271 53.9513C115.188 53.7771 115.11 53.6461 115.046 53.5499C114.795 53.4998 114.427 53.4486 113.916 53.3996C112.804 53.2927 111.346 53.2239 109.547 53.1232C108.794 53.0811 107.755 53.0456 106.862 52.838C105.836 52.5993 104.711 52.0782 103.933 50.9113C103.045 49.5794 102.5 48.3145 102.092 46.8253C101.785 45.7087 101.424 44.3693 101.195 43.0382C100.971 41.7324 100.837 40.2435 101.102 38.8566C101.565 36.4257 102.489 35.196 101.93 32.1896C101.218 28.3584 101.027 26.3664 100.094 23.0119C99.8395 22.0982 99.6919 21.1086 99.5928 20.6271C99.4776 20.0679 99.3508 19.6681 99.0957 19.2384C98.5013 18.2373 97.9345 17.6864 97.2031 17.0744C97.0859 16.9763 96.9437 16.8738 96.7305 16.7335C96.5524 16.6163 96.2298 16.4128 95.9541 16.2199C95.3222 15.7776 94.5984 15.1742 93.9707 14.213C93.6801 13.7679 93.5809 13.2814 93.5547 13.1623C93.5036 12.9303 93.464 12.6749 93.4316 12.4298C93.3836 12.0661 93.3427 11.6411 93.3057 11.1906C93.2343 11.2381 93.1618 11.2851 93.0859 11.3283C91.0774 12.4713 88.9329 12.8166 87.3066 12.9767C86.5016 13.056 85.6755 13.1007 85.082 13.1408C84.4192 13.1855 83.9954 13.2271 83.6914 13.2843C80.5029 13.8848 77.6915 13.7246 72.6113 12.2677C69.9541 11.5056 67.5204 10.6713 65.7168 9.55971C65.0499 9.14869 64.41 8.58294 63.9346 8.15053C63.6464 7.8884 63.1026 7.37904 62.668 6.97475C62.6636 6.97508 62.6588 6.97537 62.6543 6.97573Z" fill="#151515"/>
</g>
<defs>
<filter id="filter0_d_369_322" x="0" y="0" width="136.307" height="141.244" filterUnits="userSpaceOnUse" color-interpolation-filters="sRGB">
<feFlood flood-opacity="0" result="BackgroundImageFix"/>
<feColorMatrix in="SourceAlpha" type="matrix" values="0 0 0 0 0 0 0 0 0 0 0 0 0 0 0 0 0 0 127 0" result="hardAlpha"/>
<feOffset dy="4"/>
<feGaussianBlur stdDeviation="2"/>
<feComposite in2="hardAlpha" operator="out"/>
<feColorMatrix type="matrix" values="0 0 0 0 0 0 0 0 0 0 0 0 0 0 0 0 0 0 0.25 0"/>
<feBlend mode="normal" in2="BackgroundImageFix" result="effect1_dropShadow_369_322"/>
<feBlend mode="normal" in="SourceGraphic" in2="effect1_dropShadow_369_322" result="shape"/>
</filter>
</defs>
</svg>
